<?xml version='1.0' encoding='UTF-8' standalone='no'?>
<!-- Created with Inkscape (http://www.inkscape.org/) -->
<svg height="16" id="svg7384" inkscape:export-filename="/home/sam/source-symbolic.png" inkscape:export-xdpi="270" inkscape:export-ydpi="270" inkscape:version="0.48.4 r9939" sodipodi:docname="folder-templates-symbolic.svg" style="enable-background:new" version="1.1" width="16" xmlns="http://www.w3.org/2000/svg" xmlns:cc="http://creativecommons.org/ns#" xmlns:dc="http://purl.org/dc/elements/1.1/" xmlns:inkscape="http://www.inkscape.org/namespaces/inkscape" xmlns:osb="http://www.openswatchbook.org/uri/2009/osb" xmlns:rdf="http://www.w3.org/1999/02/22-rdf-syntax-ns#" xmlns:sodipodi="http://sodipodi.sourceforge.net/DTD/sodipodi-0.dtd" xmlns:svg="http://www.w3.org/2000/svg">
 <sodipodi:namedview bordercolor="#666666" borderlayer="false" borderopacity="1" gridtolerance="10" guidetolerance="10" id="namedview88" inkscape:bbox-nodes="true" inkscape:bbox-paths="true" inkscape:current-layer="layer1" inkscape:cx="8.00047" inkscape:cy="8.00683" inkscape:guide-bbox="true" inkscape:object-nodes="true" inkscape:object-paths="true" inkscape:pageopacity="1" inkscape:pageshadow="2" inkscape:showpageshadow="false" inkscape:snap-bbox="true" inkscape:snap-bbox-edge-midpoints="false" inkscape:snap-bbox-midpoints="false" inkscape:snap-center="false" inkscape:snap-global="true" inkscape:snap-grids="true" inkscape:snap-intersection-paths="true" inkscape:snap-midpoints="true" inkscape:snap-nodes="true" inkscape:snap-object-midpoints="true" inkscape:snap-others="true" inkscape:snap-page="false" inkscape:snap-smooth-nodes="true" inkscape:snap-to-guides="true" inkscape:window-height="716" inkscape:window-maximized="1" inkscape:window-width="1366" inkscape:window-x="0" inkscape:window-y="27" inkscape:zoom="1" objecttolerance="10" pagecolor="#f7f7f7" showborder="false" showgrid="false" showguides="true">
  <inkscape:grid color="#000000" dotted="false" empcolor="#0800ff" empopacity="0.4627451" empspacing="4" enabled="true" id="grid4866" opacity="0.16470588" originx="-526.9998px" originy="-608.99988px" snapvisiblegridlinesonly="true" spacingx="0.25px" spacingy="0.25px" type="xygrid" visible="true">
  </inkscape:grid>
 </sodipodi:namedview>
 <metadata id="metadata90">
  <rdf:rdf>
   <cc:work rdf:about="">
    <dc:format>
     image/svg+xml
    </dc:format>
    <dc:type rdf:resource="http://purl.org/dc/dcmitype/StillImage">
    </dc:type>
    <dc:title>
     Paper Symbolic Icon Theme
    </dc:title>
   </cc:work>
  </rdf:rdf>
 </metadata>
 <title id="title8473">
  Paper Symbolic Icon Theme
 </title>
 <defs id="defs7386">
  <style id="current-color-scheme" type="text/css">
   .ColorScheme-Text { color:#555555; }
  </style>
  <lineargradient id="linearGradient5606" osb:paint="solid">
   <stop id="stop5608" offset="0" style="stop-color:#000000;stop-opacity:1;">
   </stop>
  </lineargradient>
  <filter color-interpolation-filters="sRGB" id="filter7554" inkscape:collect="always">
   <feblend id="feBlend7556" in2="BackgroundImage" inkscape:collect="always" mode="darken">
   </feblend>
  </filter>
 </defs>
 <g id="layer9" inkscape:groupmode="layer" inkscape:label="status" style="display:inline" transform="translate(-768,391.99988)">
 </g>
 <g id="layer10" inkscape:groupmode="layer" inkscape:label="devices" style="display:inline;filter:url(#filter7554)" transform="translate(-768,391.99988)">
 </g>
 <g id="layer1" inkscape:groupmode="layer" inkscape:label="places" style="display:inline" transform="translate(-526.9998,-225.00012)">
  <rect height="1" id="rect12037" style="color:#000000;fill:#555555;fill-opacity:1;fill-rule:evenodd;stroke:none;stroke-width:1;marker:none;visibility:visible;display:inline;overflow:visible;enable-background:new" width="0.99998313" x="530" y="234">
  </rect>
  <rect height="1" id="rect12039" style="color:#000000;fill:#555555;fill-opacity:1;fill-rule:evenodd;stroke:none;stroke-width:1;marker:none;visibility:visible;display:inline;overflow:visible;enable-background:new" width="0.99998313" x="529" y="235">
  </rect>
  <rect height="1" id="rect12041" style="color:#000000;fill:#555555;fill-opacity:1;fill-rule:evenodd;stroke:none;stroke-width:1;marker:none;visibility:visible;display:inline;overflow:visible;enable-background:new" width="0.99998313" x="530" y="236">
  </rect>
  <rect height="1" id="rect12043" style="color:#000000;fill:#555555;fill-opacity:1;fill-rule:evenodd;stroke:none;stroke-width:1;marker:none;visibility:visible;display:inline;overflow:visible;enable-background:new" width="0.99998313" x="529" y="237">
  </rect>
  <rect height="1" id="rect12045" style="color:#000000;fill:#555555;fill-opacity:1;fill-rule:evenodd;stroke:none;stroke-width:1;marker:none;visibility:visible;display:inline;overflow:visible;enable-background:new" width="0.99998313" x="530" y="238">
  </rect>
  <rect height="1" id="rect12047" style="color:#000000;fill:#555555;fill-opacity:1;fill-rule:evenodd;stroke:none;stroke-width:1;marker:none;visibility:visible;display:inline;overflow:visible;enable-background:new" width="0.99998313" x="529" y="239">
  </rect>
  <rect height="1" id="rect12051" style="color:#000000;fill:#555555;fill-opacity:1;fill-rule:evenodd;stroke:none;stroke-width:1;marker:none;visibility:visible;display:inline;overflow:visible;enable-background:new" width="0.99998313" x="531" y="239">
  </rect>
  <rect height="1" id="rect12055" style="color:#000000;fill:#555555;fill-opacity:1;fill-rule:evenodd;stroke:none;stroke-width:1;marker:none;visibility:visible;display:inline;overflow:visible;enable-background:new" width="0.99998313" x="533" y="239">
  </rect>
  <rect height="1" id="rect12059" style="color:#000000;fill:#555555;fill-opacity:1;fill-rule:evenodd;stroke:none;stroke-width:1;marker:none;visibility:visible;display:inline;overflow:visible;enable-background:new" width="0.99998313" x="535" y="239">
  </rect>
  <rect height="1" id="rect12063" style="color:#000000;fill:#555555;fill-opacity:1;fill-rule:evenodd;stroke:none;stroke-width:1;marker:none;visibility:visible;display:inline;overflow:visible;enable-background:new" width="0.99998313" x="537" y="239">
  </rect>
  <path class="ColorScheme-Text" d="m 529.8125,226 c -0.0237,0.005 -0.0393,0.0248 -0.0625,0.0312 -0.0791,0.0194 -0.15937,0.0462 -0.25,0.0937 -0.0994,0.0521 -0.19803,0.11886 -0.28125,0.21875 -0.009,0.0108 -0.0229,0.0201 -0.0312,0.0312 -0.057,0.0759 -0.0919,0.17368 -0.125,0.28125 -0.009,0.0307 -0.0243,0.0601 -0.0312,0.0937 -0.0209,0.0807 -0.0327,0.16601 -0.0312,0.25 l 0,7 0,1 0,1 1,0 0,-1 1,0 0,-7 5,0 0,3 3,0 0,8 1,0 1,0 c 0.001,-0.14516 -8.2e-4,-0.73763 0,-1 l 0,-1 c 4.3e-4,-0.35608 -10e-5,-0.57373 0,-1 l 0,-1 0,-2 c -0.002,-2.41694 -6.6e-4,-2.34627 0,-2.4375 1.5e-4,-0.0211 0,-0.5625 0,-0.5625 l -4,-4 -0.5625,0 L 530,226 c 0,0 -0.0555,0.001 -0.0937,0 -0.0312,-0.001 -0.0625,-0.001 -0.0937,0 z M 529,237 l 0,1 1,0 0,-1 -1,0 z m 0,2 0,1 1,0 0,-1 -1,0 z m 1,1 0,1 1,0 0,-1 -1,0 z m 2,0 0,1 1,0 0,-1 -1,0 z m 2,0 0,1 1,0 0,-1 -1,0 z m 2,0 0,1 1,0 0,-1 -1,0 z m 2,0 0,1 1,0 0,-1 -1,0 z m 2,0 0,1 1,0 0,-1 -1,0 z" id="path1234-5" inkscape:connector-curvature="0" style="fill:currentColor">
  </path>
  <rect height="1" id="rect12326" style="color:#000000;fill:#555555;fill-opacity:1;fill-rule:evenodd;stroke:none;stroke-width:1;marker:none;visibility:visible;display:inline;overflow:visible;enable-background:new" width="0.99998313" x="530" y="240">
  </rect>
  <rect height="1" id="rect12328" style="color:#000000;fill:#555555;fill-opacity:1;fill-rule:evenodd;stroke:none;stroke-width:1;marker:none;visibility:visible;display:inline;overflow:visible;enable-background:new" width="0.99998313" x="532" y="240">
  </rect>
  <rect height="1" id="rect12330" style="color:#000000;fill:#555555;fill-opacity:1;fill-rule:evenodd;stroke:none;stroke-width:1;marker:none;visibility:visible;display:inline;overflow:visible;enable-background:new" width="0.99998313" x="534" y="240">
  </rect>
  <rect height="1" id="rect12332" style="color:#000000;fill:#555555;fill-opacity:1;fill-rule:evenodd;stroke:none;stroke-width:1;marker:none;visibility:visible;display:inline;overflow:visible;enable-background:new" width="0.99998313" x="536" y="240">
  </rect>
  <rect height="1" id="rect12334" style="color:#000000;fill:#555555;fill-opacity:1;fill-rule:evenodd;stroke:none;stroke-width:1;marker:none;visibility:visible;display:inline;overflow:visible;enable-background:new" width="0.99998313" x="538" y="240">
  </rect>
  <rect height="1.1875" id="rect12336" style="color:#000000;fill:#555555;fill-opacity:1;fill-rule:evenodd;stroke:none;stroke-width:1;marker:none;visibility:visible;display:inline;overflow:visible;enable-background:new" width="0.99998474" x="539" y="238.8125">
  </rect>
 </g>
 <g id="layer14" inkscape:groupmode="layer" inkscape:label="mimetypes" style="display:inline" transform="translate(-768,391.99988)">
 </g>
 <g id="layer15" inkscape:groupmode="layer" inkscape:label="emblems" style="display:inline" transform="translate(-768,391.99988)">
 </g>
 <g id="g71291" inkscape:groupmode="layer" inkscape:label="emotes" style="display:inline" transform="translate(-768,391.99988)">
 </g>
 <g id="layer2" inkscape:groupmode="layer" inkscape:label="categories" style="display:inline" transform="translate(-526.9998,-75.00012)">
 </g>
 <g id="g6058" inkscape:groupmode="layer" inkscape:label="apps" style="display:inline" transform="translate(-526.9998,-75.00012)">
 </g>
 <g id="layer12" inkscape:groupmode="layer" inkscape:label="actions" style="display:inline" transform="translate(-768,391.99988)">
 </g>
</svg>
