<?xml version='1.0' encoding='UTF-8' standalone='no'?>
<svg enable-background="new" height="16" version="1.1" width="16" xmlns="http://www.w3.org/2000/svg" xmlns:inkscape="http://www.inkscape.org/namespaces/inkscape" xmlns:sodipodi="http://sodipodi.sourceforge.net/DTD/sodipodi-0.dtd">
 <metadata id="metadata90">
 </metadata>
 <defs id="defs7386">
  <style id="current-color-scheme" type="text/css">
   .ColorScheme-Text { color:#555555; }
  </style>
  <lineargradient id="linearGradient5606" osb:paint="solid">
   <stop id="stop5608">
   </stop>
  </lineargradient>
  <filter color-interpolation-filters="sRGB" id="filter7554" inkscape:collect="always">
   <feblend id="feBlend7556" in2="BackgroundImage" inkscape:collect="always" mode="darken">
   </feblend>
  </filter>
 </defs>
 <g filter="url(#filter7554)" id="layer10" inkscape:groupmode="layer" inkscape:label="devices" transform="translate(-281.00021,52.031197)">
  <path class="ColorScheme-Text" d="m 289.5002,-47 c -1.38071,0 -2.5,1.11929 -2.5,2.5 0,1.38071 1.11929,2.5 2.5,2.5 1.38071,0 2.5,-1.11929 2.5,-2.5 0,-1.38071 -1.11929,-2.5 -2.5,-2.5 z m 0,1 c 0.82843,0 1.5,0.67157 1.5,1.5 0,0.82843 -0.67157,1.5 -1.5,1.5 -0.82843,0 -1.5,-0.67157 -1.5,-1.5 0,-0.82843 0.67157,-1.5 1.5,-1.5 z" fill="#555555" id="path5705" inkscape:connector-curvature="0" style="fill:currentColor">
  </path>
  <rect fill="#555555" height="1" id="rect5701" width="3" x="288" y="-41">
  </rect>
  <rect fill="#555555" height="1" id="rect5703" width="3" x="288" y="-39">
  </rect>
  <rect fill="#555555" height="1" id="rect5738" transform="matrix(0.70710678,-0.70710678,0.70710678,0.70710678,0,0)" width="3" x="234.67" y="166.74">
  </rect>
  <rect fill="#555555" height="1" id="rect5740" transform="matrix(0.70710678,-0.70710678,0.70710678,0.70710678,0,0)" width="3" x="234.67" y="168.74">
  </rect>
  <rect fill="#555555" height="3" id="rect5764" transform="matrix(0.70710678,0.70710678,-0.70710678,0.70710678,0,0)" width="3" x="171.74" y="-242.67">
  </rect>
 </g>
</svg>
