<?xml version='1.0' encoding='UTF-8' standalone='no'?>
<!-- Created with Inkscape (http://www.inkscape.org/) -->
<svg height="16" id="svg7384" inkscape:export-filename="/home/sam/source-symbolic.png" inkscape:export-xdpi="270" inkscape:export-ydpi="270" inkscape:version="0.48.5 r10040" sodipodi:docname="input-tablet-symbolic.svg" style="enable-background:new" version="1.1" width="16.012831" xmlns="http://www.w3.org/2000/svg" xmlns:cc="http://creativecommons.org/ns#" xmlns:dc="http://purl.org/dc/elements/1.1/" xmlns:inkscape="http://www.inkscape.org/namespaces/inkscape" xmlns:osb="http://www.openswatchbook.org/uri/2009/osb" xmlns:rdf="http://www.w3.org/1999/02/22-rdf-syntax-ns#" xmlns:sodipodi="http://sodipodi.sourceforge.net/DTD/sodipodi-0.dtd" xmlns:svg="http://www.w3.org/2000/svg">
 <sodipodi:namedview bordercolor="#666666" borderlayer="false" borderopacity="1" gridtolerance="10" guidetolerance="10" id="namedview88" inkscape:bbox-nodes="true" inkscape:bbox-paths="true" inkscape:current-layer="layer10" inkscape:cx="-112.07094" inkscape:cy="24.323723" inkscape:guide-bbox="true" inkscape:object-nodes="true" inkscape:object-paths="true" inkscape:pageopacity="1" inkscape:pageshadow="2" inkscape:showpageshadow="false" inkscape:snap-bbox="true" inkscape:snap-bbox-edge-midpoints="false" inkscape:snap-bbox-midpoints="false" inkscape:snap-center="false" inkscape:snap-global="true" inkscape:snap-grids="true" inkscape:snap-intersection-paths="true" inkscape:snap-midpoints="true" inkscape:snap-nodes="true" inkscape:snap-object-midpoints="true" inkscape:snap-others="true" inkscape:snap-page="false" inkscape:snap-smooth-nodes="true" inkscape:snap-to-guides="true" inkscape:window-height="701" inkscape:window-maximized="0" inkscape:window-width="1362" inkscape:window-x="0" inkscape:window-y="28" inkscape:zoom="1" objecttolerance="10" pagecolor="#f7f7f7" showborder="false" showgrid="false" showguides="true">
  <inkscape:grid color="#000000" dotted="false" empcolor="#0800ff" empopacity="0.4627451" empspacing="4" enabled="true" id="grid4866" opacity="0.16470588" originx="-223.9874px" originy="-356.00336px" snapvisiblegridlinesonly="true" spacingx="0.25px" spacingy="0.25px" type="xygrid" visible="true">
  </inkscape:grid>
 </sodipodi:namedview>
 <metadata id="metadata90">
  <rdf:rdf>
   <cc:work rdf:about="">
    <dc:format>
     image/svg+xml
    </dc:format>
    <dc:type rdf:resource="http://purl.org/dc/dcmitype/StillImage">
    </dc:type>
    <dc:title>
     Paper Symbolic Icon Theme
    </dc:title>
   </cc:work>
  </rdf:rdf>
 </metadata>
 <title id="title8473">
  Paper Symbolic Icon Theme
 </title>
 <defs id="defs7386">
  <style id="current-color-scheme" type="text/css">
   .ColorScheme-Text { color:#555555; }
  </style>
  <lineargradient id="linearGradient5606" osb:paint="solid">
   <stop id="stop5608" offset="0" style="stop-color:#000000;stop-opacity:1;">
   </stop>
  </lineargradient>
  <filter color-interpolation-filters="sRGB" id="filter7554" inkscape:collect="always">
   <feblend id="feBlend7556" in2="BackgroundImage" inkscape:collect="always" mode="darken">
   </feblend>
  </filter>
 </defs>
 <g id="layer9" inkscape:groupmode="layer" inkscape:label="status" style="display:inline" transform="translate(-464.9876,139.00336)">
 </g>
 <g id="layer10" inkscape:groupmode="layer" inkscape:label="devices" style="display:inline;filter:url(#filter7554)" transform="translate(-464.9876,139.00336)">
  <path class="ColorScheme-Text" d="m 465.9377,-138 c -0.6096,-0.0199 -1.02933,0.58742 -0.9375,1.15625 0.003,3.66379 -0.011,7.33642 0,11 0.0413,0.59291 0.67435,0.92654 1.21875,0.84375 3.98438,-0.003 7.95332,0.0114 11.9375,0 0.59291,-0.0413 0.92654,-0.67435 0.84375,-1.21875 8e-5,-1.96876 -3e-4,-3.93748 0,-5.90625 l -2,2 c -0.003,1.03781 0,2.07803 0,3.125 l -10,0 0,-9 10,0 c 4e-4,0.0421 -3.8e-4,0.0829 0,0.125 l 1.5625,-1.5625 c 0.0702,-0.0702 0.14049,-0.13116 0.21875,-0.1875 -0.14224,-0.20054 -0.36779,-0.375 -0.78125,-0.375 -1.72813,1e-5 -5.6159,8e-5 -12.0625,0 z m 14.0625,1 c -0.277,0 -0.538,0.1005 -0.71875,0.28125 l -6,6 C 473.1007,-130.538 473.0002,-130.277 473.0002,-130 l 0,1 1,0 c 0.277,0 0.538,-0.1005 0.71875,-0.28125 l 6,-6 c 0.18075,-0.18075 0.28125,-0.44175 0.28125,-0.71875 0,-0.554 -0.446,-1 -1,-1 z" id="rect6444" inkscape:connector-curvature="0" style="fill:currentColor">
  </path>
 </g>
 <g id="layer1" inkscape:groupmode="layer" inkscape:label="places" style="display:inline" transform="translate(-223.9874,-477.99664)">
 </g>
 <g id="layer14" inkscape:groupmode="layer" inkscape:label="mimetypes" style="display:inline" transform="translate(-464.9876,139.00336)">
 </g>
 <g id="layer15" inkscape:groupmode="layer" inkscape:label="emblems" style="display:inline" transform="translate(-464.9876,139.00336)">
 </g>
 <g id="g71291" inkscape:groupmode="layer" inkscape:label="emotes" style="display:inline" transform="translate(-464.9876,139.00336)">
 </g>
 <g id="layer2" inkscape:groupmode="layer" inkscape:label="categories" style="display:inline" transform="translate(-223.9874,-327.99664)">
 </g>
 <g id="g6058" inkscape:groupmode="layer" inkscape:label="apps" style="display:inline" transform="translate(-223.9874,-327.99664)">
 </g>
 <g id="layer12" inkscape:groupmode="layer" inkscape:label="actions" style="display:inline" transform="translate(-464.9876,139.00336)">
 </g>
</svg>
