<?xml version="1.0" encoding="UTF-8" standalone="no"?>
<!-- Created with Inkscape (http://www.inkscape.org/) -->
<svg height="16" id="svg7384" inkscape:export-filename="/home/sam/source-symbolic.png" inkscape:export-xdpi="270" inkscape:export-ydpi="270" inkscape:version="0.91 r" sodipodi:docname="kr_invert.svg" style="enable-background:new" version="1.1" width="16" xmlns="http://www.w3.org/2000/svg" xmlns:cc="http://creativecommons.org/ns#" xmlns:dc="http://purl.org/dc/elements/1.1/" xmlns:inkscape="http://www.inkscape.org/namespaces/inkscape" xmlns:osb="http://www.openswatchbook.org/uri/2009/osb" xmlns:rdf="http://www.w3.org/1999/02/22-rdf-syntax-ns#" xmlns:sodipodi="http://sodipodi.sourceforge.net/DTD/sodipodi-0.dtd" xmlns:svg="http://www.w3.org/2000/svg">
 <sodipodi:namedview bordercolor="#666666" borderlayer="false" borderopacity="1" gridtolerance="10" guidetolerance="10" id="namedview88" inkscape:bbox-nodes="true" inkscape:bbox-paths="false" inkscape:current-layer="layer12" inkscape:cx="6.971115" inkscape:cy="5.964391" inkscape:guide-bbox="true" inkscape:object-nodes="true" inkscape:object-paths="true" inkscape:pageopacity="0" inkscape:pageshadow="2" inkscape:showpageshadow="false" inkscape:snap-bbox="true" inkscape:snap-bbox-edge-midpoints="false" inkscape:snap-bbox-midpoints="true" inkscape:snap-center="false" inkscape:snap-global="true" inkscape:snap-grids="true" inkscape:snap-intersection-paths="true" inkscape:snap-midpoints="true" inkscape:snap-nodes="true" inkscape:snap-object-midpoints="true" inkscape:snap-others="true" inkscape:snap-page="false" inkscape:snap-smooth-nodes="true" inkscape:snap-to-guides="true" inkscape:window-height="842" inkscape:window-maximized="1" inkscape:window-width="1600" inkscape:window-x="-4" inkscape:window-y="32" inkscape:zoom="26.24" objecttolerance="10" pagecolor="#f7f7f7" showborder="true" showgrid="false" showguides="true">
  <inkscape:grid color="#000000" dotted="false" empcolor="#0800ff" empopacity="0.4627451" empspacing="4" enabled="true" id="grid4866" opacity="0.16470588" originx="-124.0002" originy="-336.00336" snapvisiblegridlinesonly="true" spacingx="0.25px" spacingy="0.25px" type="xygrid" visible="true">
  </inkscape:grid>
 </sodipodi:namedview>
 <metadata id="metadata90">
  <rdf:rdf>
   <cc:work rdf:about="">
    <dc:format>
     image/svg+xml
    </dc:format>
    <dc:type rdf:resource="http://purl.org/dc/dcmitype/StillImage">
    </dc:type>
    <dc:title>
     Paper Symbolic Icon Theme
    </dc:title>
   </cc:work>
  </rdf:rdf>
 </metadata>
 <title id="title8473">
  Paper Symbolic Icon Theme
 </title>
 <defs id="defs7386">
  <style id="current-color-scheme" type="text/css">
   .ColorScheme-Text { color:#555555; }
  </style>
  <lineargradient id="linearGradient5606" osb:paint="solid">
   <stop id="stop5608" offset="0" style="stop-color:#000000;stop-opacity:1;">
   </stop>
  </lineargradient>
 </defs>
 <g id="layer12" inkscape:groupmode="layer" inkscape:label="actions" style="display:inline" transform="translate(-365.0004,119.00336)">
  <path class="ColorScheme-Text" d="M 2 2 L 2 14 L 14 14 L 14 2 L 2 2 z M 7.5 4 L 9.8339844 5.7148438 L 7.5 7.4277344 L 7.5 6.2851562 C 6.21135 6.2851562 5.1660156 7.3098999 5.1660156 8.5722656 C 5.1660156 9.8346313 6.21135 10.857422 7.5 10.857422 C 8.78865 10.857422 9.8339844 9.8346313 9.8339844 8.5722656 A 0.58332653 0.57142857 0 0 1 10.416016 8 A 0.58332653 0.57142857 0 0 1 11 8.5722656 A 0.58332653 0.57142857 0 0 1 10.996094 8.6289062 C 10.964711 10.495895 9.413346 12 7.5 12 C 5.567025 12 4 10.465814 4 8.5722656 C 4 6.6787171 5.567025 5.1425781 7.5 5.1425781 L 7.5 4 z " id="path4220" style="fill:currentColor" transform="translate(365.0004,-119.00336)">
  </path>
  <g id="g4693" transform="matrix(1.5,0,0,2,-188.2502,108.00336)">
  </g>
  <g id="g4814" transform="matrix(0,1.5,-2,0,158.99368,-671.25396)">
  </g>
  <g id="g4175" transform="translate(0,1)">
   <g id="g4162" transform="translate(1.0000033,0)">
   </g>
   <g id="g4167" transform="translate(1.0000033,2.9999969)">
   </g>
  </g>
  <g id="g4232" style="enable-background:new" transform="matrix(0.58332653,0,0,0.57142857,367.85002,-115.00342)">
   <g id="layer12-2" inkscape:label="actions" style="display:inline" transform="translate(-465.03395,-41.017475)">
   </g>
  </g>
 </g>
</svg>
