<?xml version="1.0" encoding="UTF-8" standalone="no"?>
<!-- Created with Inkscape (http://www.inkscape.org/) -->
<svg height="16" id="svg7384" inkscape:export-filename="/home/sam/source-symbolic.png" inkscape:export-xdpi="270" inkscape:export-ydpi="270" inkscape:version="0.91 r" sodipodi:docname="folder-sync.svg" style="enable-background:new" version="1.1" width="16" xmlns="http://www.w3.org/2000/svg" xmlns:cc="http://creativecommons.org/ns#" xmlns:dc="http://purl.org/dc/elements/1.1/" xmlns:inkscape="http://www.inkscape.org/namespaces/inkscape" xmlns:osb="http://www.openswatchbook.org/uri/2009/osb" xmlns:rdf="http://www.w3.org/1999/02/22-rdf-syntax-ns#" xmlns:sodipodi="http://sodipodi.sourceforge.net/DTD/sodipodi-0.dtd" xmlns:svg="http://www.w3.org/2000/svg">
 <sodipodi:namedview bordercolor="#666666" borderlayer="false" borderopacity="1" gridtolerance="10" guidetolerance="10" id="namedview88" inkscape:bbox-nodes="true" inkscape:bbox-paths="false" inkscape:current-layer="layer12" inkscape:cx="-15.537688" inkscape:cy="5.9268103" inkscape:guide-bbox="true" inkscape:object-nodes="true" inkscape:object-paths="true" inkscape:pageopacity="0" inkscape:pageshadow="2" inkscape:showpageshadow="false" inkscape:snap-bbox="true" inkscape:snap-bbox-edge-midpoints="false" inkscape:snap-bbox-midpoints="true" inkscape:snap-center="false" inkscape:snap-global="true" inkscape:snap-grids="true" inkscape:snap-intersection-paths="true" inkscape:snap-midpoints="true" inkscape:snap-nodes="true" inkscape:snap-object-midpoints="true" inkscape:snap-others="true" inkscape:snap-page="false" inkscape:snap-smooth-nodes="true" inkscape:snap-to-guides="true" inkscape:window-height="842" inkscape:window-maximized="1" inkscape:window-width="1600" inkscape:window-x="-4" inkscape:window-y="32" inkscape:zoom="15.07" objecttolerance="10" pagecolor="#f7f7f7" showborder="true" showgrid="false" showguides="true">
  <inkscape:grid color="#000000" dotted="false" empcolor="#0800ff" empopacity="0.4627451" empspacing="4" enabled="true" id="grid4866" opacity="0.16470588" originx="-164" originy="-216" snapvisiblegridlinesonly="true" spacingx="0.25px" spacingy="0.25px" type="xygrid" visible="true">
  </inkscape:grid>
 </sodipodi:namedview>
 <metadata id="metadata90">
  <rdf:rdf>
   <cc:work rdf:about="">
    <dc:format>
     image/svg+xml
    </dc:format>
    <dc:type rdf:resource="http://purl.org/dc/dcmitype/StillImage">
    </dc:type>
    <dc:title>
     Paper Symbolic Icon Theme
    </dc:title>
   </cc:work>
  </rdf:rdf>
 </metadata>
 <title id="title8473">
  Paper Symbolic Icon Theme
 </title>
 <defs id="defs7386">
  <style id="current-color-scheme" type="text/css">
   .ColorScheme-Text { color:#555555; }
  </style>
  <lineargradient id="linearGradient5606" osb:paint="solid">
   <stop id="stop5608" offset="0" style="stop-color:#000000;stop-opacity:1;">
   </stop>
  </lineargradient>
 </defs>
 <g id="layer12" inkscape:groupmode="layer" inkscape:label="actions" style="display:inline" transform="translate(-405.0002,-0.99999613)">
  <path class="ColorScheme-Text" d="M 2 1.0039062 C 2 1.0039062 1 1.0039063 1 2.0039062 L 1 13.003906 C 1 13.003906 1 14.003906 2 14.003906 L 14 14.003906 C 14 14.003906 15 14.003906 15 13.003906 L 15 4.0039062 C 15 3.0039062 14 3.0039063 14 3.0039062 L 9 3.0039062 L 7 1.0039062 L 2 1.0039062 z M 11.5 7 L 13.166016 8.2851562 L 11.5 9.5722656 L 11.5 8.7148438 C 10.57962 8.7148438 9.8339844 9.4809614 9.8339844 10.427734 C 9.8339844 11.374508 10.57962 12.142578 11.5 12.142578 C 12.42039 12.142578 13.166016 11.374508 13.166016 10.427734 A 0.41662656 0.42857124 0 0 1 13.583984 10 A 0.41662656 0.42857124 0 0 1 14 10.427734 A 0.41662656 0.42857124 0 0 1 13.998047 10.470703 C 13.975637 11.870944 12.86656 13 11.5 13 C 10.11942 13 9 11.847894 9 10.427734 C 9 9.0075744 10.11942 7.8574219 11.5 7.8574219 L 11.5 7 z " id="path5940" style="fill:currentColor" transform="translate(405.0002,0.99999613)">
  </path>
 </g>
</svg>
