<?xml version='1.0' encoding='UTF-8' standalone='no'?>
<!-- Created with Inkscape (http://www.inkscape.org/) -->
<svg height="16" id="svg7384" inkscape:export-filename="/home/sam/source-symbolic.png" inkscape:export-xdpi="270" inkscape:export-ydpi="270" inkscape:version="0.91 r" sodipodi:docname="view-dual.svg" style="enable-background:new" version="1.1" width="16.000013" xmlns="http://www.w3.org/2000/svg" xmlns:cc="http://creativecommons.org/ns#" xmlns:dc="http://purl.org/dc/elements/1.1/" xmlns:inkscape="http://www.inkscape.org/namespaces/inkscape" xmlns:osb="http://www.openswatchbook.org/uri/2009/osb" xmlns:rdf="http://www.w3.org/1999/02/22-rdf-syntax-ns#" xmlns:sodipodi="http://sodipodi.sourceforge.net/DTD/sodipodi-0.dtd" xmlns:svg="http://www.w3.org/2000/svg">
 <sodipodi:namedview bordercolor="#666666" borderlayer="false" borderopacity="1" gridtolerance="10" guidetolerance="10" id="namedview88" inkscape:bbox-nodes="true" inkscape:bbox-paths="false" inkscape:current-layer="layer12" inkscape:cx="37.864531" inkscape:cy="-58.05659" inkscape:guide-bbox="true" inkscape:object-nodes="true" inkscape:object-paths="true" inkscape:pageopacity="0" inkscape:pageshadow="2" inkscape:showpageshadow="false" inkscape:snap-bbox="true" inkscape:snap-bbox-edge-midpoints="false" inkscape:snap-bbox-midpoints="true" inkscape:snap-center="false" inkscape:snap-global="true" inkscape:snap-grids="true" inkscape:snap-intersection-paths="true" inkscape:snap-midpoints="true" inkscape:snap-nodes="true" inkscape:snap-object-midpoints="true" inkscape:snap-others="true" inkscape:snap-page="false" inkscape:snap-smooth-nodes="true" inkscape:snap-to-guides="true" inkscape:window-height="706" inkscape:window-maximized="1" inkscape:window-width="1366" inkscape:window-x="0" inkscape:window-y="32" inkscape:zoom="1" objecttolerance="10" pagecolor="#f7f7f7" showborder="true" showgrid="false" showguides="true">
  <inkscape:grid color="#000000" dotted="false" empcolor="#0800ff" empopacity="0.4627451" empspacing="4" enabled="true" id="grid4866" opacity="0.16470588" originx="-264.0002" originy="-196.00336" snapvisiblegridlinesonly="true" spacingx="0.25px" spacingy="0.25px" type="xygrid" visible="true">
  </inkscape:grid>
 </sodipodi:namedview>
 <metadata id="metadata90">
  <rdf:rdf>
   <cc:work rdf:about="">
    <dc:format>
     image/svg+xml
    </dc:format>
    <dc:type rdf:resource="http://purl.org/dc/dcmitype/StillImage">
    </dc:type>
    <dc:title>
     Paper Symbolic Icon Theme
    </dc:title>
   </cc:work>
  </rdf:rdf>
 </metadata>
 <title id="title8473">
  Paper Symbolic Icon Theme
 </title>
 <defs id="defs7386">
  <style id="current-color-scheme" type="text/css">
   .ColorScheme-Text { color:#555555; }
  </style>
  <lineargradient id="linearGradient5606" osb:paint="solid">
   <stop id="stop5608" offset="0" style="stop-color:#000000;stop-opacity:1;">
   </stop>
  </lineargradient>
 </defs>
 <g id="layer12" inkscape:groupmode="layer" inkscape:label="actions" style="display:inline" transform="translate(-505.0004,-20.99664)">
  <path class="ColorScheme-Text" d="m 505.0004,21.99664 c 0,4.66667 0,9.33333 0,14 5.33327,-0.002 10.66653,0.005 15.9998,0.003 0,-4.66667 0,-9.33333 0,-14 -5.33327,0.002 -10.66653,-0.005 -15.9998,-0.003 z M 507.0002,24 c 1.66673,-0.001 3.33347,-0.002 5.0002,-0.003 -7e-5,3.33445 -1.3e-4,6.66891 -2e-4,10.00336 -1.66673,10e-4 -3.33347,0.002 -5.0002,0.003 7e-5,-3.33433 1.3e-4,-6.66867 2e-4,-10.003 z m 7,0 c 1.66667,0 3.33333,0 5,0 -7e-5,3.33445 -1.3e-4,6.66891 -2e-4,10.00336 -1.66667,0 -3.33333,0 -5,0 7e-5,-3.33445 1.3e-4,-6.66891 2e-4,-10.00336 z" id="rect5700" inkscape:connector-curvature="0" style="fill:currentColor">
  </path>
 </g>
</svg>
