<?xml version="1.0" encoding="UTF-8" standalone="no"?>
<!-- Created with Inkscape (http://www.inkscape.org/) -->
<svg height="48" id="svg2817" version="1.0" width="48" xmlns="http://www.w3.org/2000/svg" xmlns:cc="http://creativecommons.org/ns#" xmlns:dc="http://purl.org/dc/elements/1.1/" xmlns:rdf="http://www.w3.org/1999/02/22-rdf-syntax-ns#" xmlns:xlink="http://www.w3.org/1999/xlink">
 <metadata id="metadata57">
  <rdf:rdf>
   <cc:work rdf:about="">
    <dc:format>
     image/svg+xml
    </dc:format>
    <dc:type rdf:resource="http://purl.org/dc/dcmitype/StillImage">
    </dc:type>
    <dc:title>
    </dc:title>
   </cc:work>
  </rdf:rdf>
 </metadata>
 <defs id="defs2819">
  <style id="current-color-scheme" type="text/css">
   .ColorScheme-Text {
        color:#31363b;
      }
      .ColorScheme-Background{
        color:#eff0f1;
      }
      .ColorScheme-ViewText {
        color:#31363b;
      }
      .ColorScheme-ViewBackground{
        color:#fcfcfc;
      }
      .ColorScheme-ViewHover {
        color:#3daee9;
      }
      .ColorScheme-ViewFocus{
        color:#3daee9;
      }
      .ColorScheme-ButtonText {
        color:#31363b;
      }
      .ColorScheme-ButtonBackground{
        color:#eff0f1;
      }
      .ColorScheme-ButtonHover {
        color:#3daee9;
      }
      .ColorScheme-ButtonFocus{
        color:#3daee9;
      }
  </style>
 </defs>
 <text fill="#000000" font-family="'Bitstream Vera Sans'" font-size="12.666px" id="text4087-2-6-5" opacity=".8" x="877.22626" xml:space="preserve" y="10.812601">
  <tspan id="tspan4089-7-2-9" x="877.22626" y="10.812601">
  </tspan>
 </text>
 <text fill="#000000" font-family="'Bitstream Vera Sans'" font-size="12.666px" id="text4087-2-6-5-5" opacity=".8" x="901.18719" xml:space="preserve" y="-29.929106">
  <tspan id="tspan4089-7-2-9-6" x="901.18719" y="-29.929106">
  </tspan>
 </text>
 <text fill="#000000" font-family="'Bitstream Vera Sans'" font-size="12.666px" id="text4087-2-6-5-2" opacity=".8" x="-569.37115" xml:space="preserve" y="-60.007248">
  <tspan id="tspan4089-7-2-9-2" x="-569.37115" y="-60.007248">
  </tspan>
 </text>
 <text fill="#000000" font-family="'Bitstream Vera Sans'" font-size="12.666px" id="text4087-2-6-5-59" opacity=".8" x="-2393.0571" xml:space="preserve" y="685.5462">
  <tspan id="tspan4089-7-2-9-4" x="-2393.0571" y="685.5462">
  </tspan>
 </text>
 <text fill="#000000" font-family="'Bitstream Vera Sans'" font-size="12.666px" id="text4087-2-6-5-1" opacity=".8" x="-454.88007" xml:space="preserve" y="-445.32822">
  <tspan id="tspan4089-7-2-9-7" x="-454.88007" y="-445.32822">
  </tspan>
 </text>
 <text fill="#000000" font-family="'Bitstream Vera Sans'" font-size="12.666px" id="text4087-2-6-5-7" opacity=".8" x="352.72208" xml:space="preserve" y="-858.79834">
  <tspan id="tspan4089-7-2-9-1" x="352.72208" y="-858.79834">
  </tspan>
 </text>
 <text fill="#000000" font-family="'Bitstream Vera Sans'" font-size="12.666px" id="text4087-2-6-5-5-3" opacity=".8" x="376.68301" xml:space="preserve" y="-899.54004">
  <tspan id="tspan4089-7-2-9-6-5" x="376.68301" y="-899.54004">
  </tspan>
 </text>
 <text fill="#000000" font-family="'Bitstream Vera Sans'" font-size="12.666px" id="text4087-2-6-5-3" opacity=".8" x="-1114.7802" xml:space="preserve" y="-906.74994">
  <tspan id="tspan4089-7-2-9-18" x="-1114.7802" y="-906.74994">
  </tspan>
 </text>
 <text fill="#000000" font-family="'Bitstream Vera Sans'" font-size="12.666px" id="text4087-2-6-5-4" opacity=".8" x="345.7626" xml:space="preserve" y="-1179.9841">
  <tspan id="tspan4089-7-2-9-9" x="345.7626" y="-1179.9841">
  </tspan>
 </text>
 <text fill="#000000" font-family="'Bitstream Vera Sans'" font-size="12.666px" id="text4087-2-6-5-7-1" opacity=".8" x="1831.8861" xml:space="preserve" y="-553.29272">
  <tspan id="tspan4089-7-2-9-1-8" x="1831.8861" y="-553.29272">
  </tspan>
 </text>
 <text fill="#000000" font-family="'Bitstream Vera Sans'" font-size="12.666px" id="text4087-2-6-5-5-5" opacity=".8" x="1855.8469" xml:space="preserve" y="-594.03448">
  <tspan id="tspan4089-7-2-9-6-9" x="1855.8469" y="-594.03448">
  </tspan>
 </text>
 <text fill="#000000" font-family="'Bitstream Vera Sans'" font-size="12.666px" id="text4087-2-6-5-75" opacity=".8" x="364.38376" xml:space="preserve" y="-601.24438">
  <tspan id="tspan4089-7-2-9-3" x="364.38376" y="-601.24438">
  </tspan>
 </text>
 <text fill="#000000" font-family="'Bitstream Vera Sans'" font-size="12.666px" id="text4087-2-6-5-4-8" opacity=".8" x="1824.9266" xml:space="preserve" y="-874.47839">
  <tspan id="tspan4089-7-2-9-9-8" x="1824.9266" y="-874.47839">
  </tspan>
 </text>
 <text fill="#000000" font-family="'Bitstream Vera Sans'" font-size="12.666px" id="text4087-2-6-5-45" opacity=".8" x="-573.43256" xml:space="preserve" y="-649.33569">
  <tspan id="tspan4089-7-2-9-75" x="-573.43256" y="-649.33569">
  </tspan>
 </text>
 <text fill="#000000" font-family="'Bitstream Vera Sans'" font-size="12.666px" id="text4087-2-6-5-59-7" opacity=".8" x="-2397.1182" xml:space="preserve" y="96.217857">
  <tspan id="tspan4089-7-2-9-4-0" x="-2397.1182" y="96.217857">
  </tspan>
 </text>
 <text fill="#000000" font-family="'Bitstream Vera Sans'" font-size="12.666px" id="text4087-2-6-5-8" opacity=".8" x="-682.36279" xml:space="preserve" y="189.09">
  <tspan id="tspan4089-7-2-9-19" x="-682.36279" y="189.09">
  </tspan>
 </text>
 <text fill="#000000" font-family="'Bitstream Vera Sans'" font-size="12.666px" id="text4087-2-6-5-7-5" opacity=".8" x="426.66153" xml:space="preserve" y="9.9078522">
  <tspan id="tspan4089-7-2-9-1-2" x="426.66153" y="9.9078522">
  </tspan>
 </text>
 <text fill="#000000" font-family="'Bitstream Vera Sans'" font-size="12.666px" id="text4087-2-6-5-5-0" opacity=".8" x="450.62247" xml:space="preserve" y="-30.833855">
  <tspan id="tspan4089-7-2-9-6-2" x="450.62247" y="-30.833855">
  </tspan>
 </text>
 <text fill="#000000" font-family="'Bitstream Vera Sans'" font-size="12.666px" id="text4087-2-6-5-26" opacity=".8" x="-1040.8407" xml:space="preserve" y="-38.043827">
  <tspan id="tspan4089-7-2-9-90" x="-1040.8407" y="-38.043827">
  </tspan>
 </text>
 <text fill="#000000" font-family="'Bitstream Vera Sans'" font-size="12.666px" id="text4087-2-6-5-4-3" opacity=".8" x="419.70206" xml:space="preserve" y="-311.27789">
  <tspan id="tspan4089-7-2-9-9-5" x="419.70206" y="-311.27789">
  </tspan>
 </text>
 <text fill="#000000" font-family="'Bitstream Vera Sans'" font-size="12.666px" id="text4087-2-6-5-55" opacity=".8" x="-608.03253" xml:space="preserve" y="-40.758072">
  <tspan id="tspan4089-7-2-9-32" x="-608.03253" y="-40.758072">
  </tspan>
 </text>
 <text fill="#000000" font-family="'Bitstream Vera Sans'" font-size="12.666px" id="text4087-2-6-5-59-9" opacity=".8" x="-2431.7185" xml:space="preserve" y="704.79541">
  <tspan id="tspan4089-7-2-9-4-1" x="-2431.7185" y="704.79541">
  </tspan>
 </text>
 <text fill="#000000" font-family="'Bitstream Vera Sans'" font-size="12.666px" id="text4087-2-6-5-1-8" opacity=".8" x="-456.93948" xml:space="preserve" y="-902.28857">
  <tspan id="tspan4089-7-2-9-7-8" x="-456.93948" y="-902.28857">
  </tspan>
 </text>
 <text fill="#000000" font-family="'Bitstream Vera Sans'" font-size="12.666px" id="text4087-2-6-5-7-8" opacity=".8" x="350.66266" xml:space="preserve" y="-1315.7588">
  <tspan id="tspan4089-7-2-9-1-9" x="350.66266" y="-1315.7588">
  </tspan>
 </text>
 <text fill="#000000" font-family="'Bitstream Vera Sans'" font-size="12.666px" id="text4087-2-6-5-5-52" opacity=".8" x="374.62357" xml:space="preserve" y="-1356.5005">
  <tspan id="tspan4089-7-2-9-6-4" x="374.62357" y="-1356.5005">
  </tspan>
 </text>
 <text fill="#000000" font-family="'Bitstream Vera Sans'" font-size="12.666px" id="text4087-2-6-5-3-4" opacity=".8" x="-1116.8396" xml:space="preserve" y="-1363.7104">
  <tspan id="tspan4089-7-2-9-18-3" x="-1116.8396" y="-1363.7104">
  </tspan>
 </text>
 <text fill="#000000" font-family="'Bitstream Vera Sans'" font-size="12.666px" id="text4087-2-6-5-4-7" opacity=".8" x="343.70316" xml:space="preserve" y="-1636.9446">
  <tspan id="tspan4089-7-2-9-9-54" x="343.70316" y="-1636.9446">
  </tspan>
 </text>
 <text fill="#000000" font-family="'Bitstream Vera Sans'" font-size="12.666px" id="text4087-2-6-5-7-1-2" opacity=".8" x="1829.8265" xml:space="preserve" y="-1010.2533">
  <tspan id="tspan4089-7-2-9-1-8-0" x="1829.8265" y="-1010.2533">
  </tspan>
 </text>
 <text fill="#000000" font-family="'Bitstream Vera Sans'" font-size="12.666px" id="text4087-2-6-5-5-5-6" opacity=".8" x="1853.7874" xml:space="preserve" y="-1050.9949">
  <tspan id="tspan4089-7-2-9-6-9-8" x="1853.7874" y="-1050.9949">
  </tspan>
 </text>
 <text fill="#000000" font-family="'Bitstream Vera Sans'" font-size="12.666px" id="text4087-2-6-5-75-4" opacity=".8" x="362.32431" xml:space="preserve" y="-1058.2048">
  <tspan id="tspan4089-7-2-9-3-9" x="362.32431" y="-1058.2048">
  </tspan>
 </text>
 <text fill="#000000" font-family="'Bitstream Vera Sans'" font-size="12.666px" id="text4087-2-6-5-4-8-1" opacity=".8" x="1822.8671" xml:space="preserve" y="-1331.439">
  <tspan id="tspan4089-7-2-9-9-8-8" x="1822.8671" y="-1331.439">
  </tspan>
 </text>
 <text fill="#000000" font-family="'Bitstream Vera Sans'" font-size="12.666px" id="text4087-2-6-5-45-0" opacity=".8" x="-575.492" xml:space="preserve" y="-1106.2961">
  <tspan id="tspan4089-7-2-9-75-2" x="-575.492" y="-1106.2961">
  </tspan>
 </text>
 <text fill="#000000" font-family="'Bitstream Vera Sans'" font-size="12.666px" id="text4087-2-6-5-59-5" opacity=".8" x="-2399.1777" xml:space="preserve" y="-360.74261">
  <tspan id="tspan4089-7-2-9-4-00" x="-2399.1777" y="-360.74261">
  </tspan>
 </text>
 <text fill="#000000" font-family="'Bitstream Vera Sans'" font-size="12.666px" id="text4087-2-6-5-264" opacity=".8" x="-684.42224" xml:space="preserve" y="-267.87045">
  <tspan id="tspan4089-7-2-9-8" x="-684.42224" y="-267.87045">
  </tspan>
 </text>
 <text fill="#000000" font-family="'Bitstream Vera Sans'" font-size="12.666px" id="text4087-2-6-5-42" opacity=".8" x="155.5923" xml:space="preserve" y="-26.956278">
  <tspan id="tspan4089-7-2-9-93" x="155.5923" y="-26.956278">
  </tspan>
 </text>
 <text fill="#000000" font-family="'Bitstream Vera Sans'" font-size="12.666px" id="text4087-2-6-5-5-05" opacity=".8" x="179.55324" xml:space="preserve" y="-67.697998">
  <tspan id="tspan4089-7-2-9-6-49" x="179.55324" y="-67.697998">
  </tspan>
 </text>
 <text fill="#000000" font-family="'Bitstream Vera Sans'" font-size="12.666px" id="text4087-2-6-5-1-4" opacity=".8" x="-1090.2634" xml:space="preserve" y="-261.72662">
  <tspan id="tspan4089-7-2-9-7-7" x="-1090.2634" y="-261.72662">
  </tspan>
 </text>
 <text fill="#000000" font-family="'Bitstream Vera Sans'" font-size="12.666px" id="text4087-2-6-5-7-56" opacity=".8" x="-282.66141" xml:space="preserve" y="-675.19678">
  <tspan id="tspan4089-7-2-9-1-1" x="-282.66141" y="-675.19678">
  </tspan>
 </text>
 <text fill="#000000" font-family="'Bitstream Vera Sans'" font-size="12.666px" id="text4087-2-6-5-5-8" opacity=".8" x="-258.70047" xml:space="preserve" y="-715.93848">
  <tspan id="tspan4089-7-2-9-6-7" x="-258.70047" y="-715.93848">
  </tspan>
 </text>
 <text fill="#000000" font-family="'Bitstream Vera Sans'" font-size="12.666px" id="text4087-2-6-5-3-42" opacity=".8" x="-1750.1636" xml:space="preserve" y="-723.14838">
  <tspan id="tspan4089-7-2-9-18-39" x="-1750.1636" y="-723.14838">
  </tspan>
 </text>
 <text fill="#000000" font-family="'Bitstream Vera Sans'" font-size="12.666px" id="text4087-2-6-5-4-4" opacity=".8" x="-289.62085" xml:space="preserve" y="-996.38251">
  <tspan id="tspan4089-7-2-9-9-3" x="-289.62085" y="-996.38251">
  </tspan>
 </text>
 <text fill="#000000" font-family="'Bitstream Vera Sans'" font-size="12.666px" id="text4087-2-6-5-7-1-0" opacity=".8" x="1196.5026" xml:space="preserve" y="-369.69113">
  <tspan id="tspan4089-7-2-9-1-8-5" x="1196.5026" y="-369.69113">
  </tspan>
 </text>
 <text fill="#000000" font-family="'Bitstream Vera Sans'" font-size="12.666px" id="text4087-2-6-5-5-5-5" opacity=".8" x="1220.4634" xml:space="preserve" y="-410.43286">
  <tspan id="tspan4089-7-2-9-6-9-2" x="1220.4634" y="-410.43286">
  </tspan>
 </text>
 <text fill="#000000" font-family="'Bitstream Vera Sans'" font-size="12.666px" id="text4087-2-6-5-75-9" opacity=".8" x="-270.99973" xml:space="preserve" y="-417.64282">
  <tspan id="tspan4089-7-2-9-3-1" x="-270.99973" y="-417.64282">
  </tspan>
 </text>
 <text fill="#000000" font-family="'Bitstream Vera Sans'" font-size="12.666px" id="text4087-2-6-5-4-8-18" opacity=".8" x="1189.5431" xml:space="preserve" y="-690.87689">
  <tspan id="tspan4089-7-2-9-9-8-4" x="1189.5431" y="-690.87689">
  </tspan>
 </text>
 <text fill="#000000" font-family="'Bitstream Vera Sans'" font-size="12.666px" id="text4087-2-6-5-45-3" opacity=".8" x="-1208.816" xml:space="preserve" y="-465.7341">
  <tspan id="tspan4089-7-2-9-75-7" x="-1208.816" y="-465.7341">
  </tspan>
 </text>
 <text fill="#000000" font-family="'Bitstream Vera Sans'" font-size="12.666px" id="text4087-2-6-5-59-8" opacity=".8" x="-3032.5017" xml:space="preserve" y="279.81946">
  <tspan id="tspan4089-7-2-9-4-2" x="-3032.5017" y="279.81946">
  </tspan>
 </text>
 <g id="layer4-0" transform="matrix(.90475 0 0 .90475 -716.75 -676.29)">
  <text fill="#000000" font-family="'Bitstream Vera Sans'" font-size="14px" id="text4087-2-6-5-20" opacity=".8" x="-664.2738" xml:space="preserve" y="1159.4154">
   <tspan id="tspan4089-7-2-9-82" x="-664.2738" y="1159.4154">
   </tspan>
  </text>
 </g>
 <text fill="#000000" font-family="'Bitstream Vera Sans'" font-size="12.666px" id="text4087-2-6-5-9" opacity=".8" x="877.22626" xml:space="preserve" y="18.050589">
  <tspan id="tspan4089-7-2-9-43" x="877.22626" y="18.050589">
  </tspan>
 </text>
 <text fill="#000000" font-family="'Bitstream Vera Sans'" font-size="12.666px" id="text4087-2-6-5-5-51" opacity=".8" x="901.18719" xml:space="preserve" y="-22.691116">
  <tspan id="tspan4089-7-2-9-6-74" x="901.18719" y="-22.691116">
  </tspan>
 </text>
 <text fill="#000000" font-family="'Bitstream Vera Sans'" font-size="12.666px" id="text4087-2-6-5-2-3" opacity=".8" x="-569.37115" xml:space="preserve" y="-52.76926">
  <tspan id="tspan4089-7-2-9-2-1" x="-569.37115" y="-52.76926">
  </tspan>
 </text>
 <text fill="#000000" font-family="'Bitstream Vera Sans'" font-size="12.666px" id="text4087-2-6-5-59-4" opacity=".8" x="-2393.0571" xml:space="preserve" y="692.78418">
  <tspan id="tspan4089-7-2-9-4-6" x="-2393.0571" y="692.78418">
  </tspan>
 </text>
 <text fill="#000000" font-family="'Bitstream Vera Sans'" font-size="12.666px" id="text4087-2-6-5-1-9" opacity=".8" x="-454.88007" xml:space="preserve" y="-438.09021">
  <tspan id="tspan4089-7-2-9-7-4" x="-454.88007" y="-438.09021">
  </tspan>
 </text>
 <text fill="#000000" font-family="'Bitstream Vera Sans'" font-size="12.666px" id="text4087-2-6-5-7-2" opacity=".8" x="352.72208" xml:space="preserve" y="-851.5603">
  <tspan id="tspan4089-7-2-9-1-26" x="352.72208" y="-851.5603">
  </tspan>
 </text>
 <text fill="#000000" font-family="'Bitstream Vera Sans'" font-size="12.666px" id="text4087-2-6-5-5-3-4" opacity=".8" x="376.68301" xml:space="preserve" y="-892.30206">
  <tspan id="tspan4089-7-2-9-6-5-1" x="376.68301" y="-892.30206">
  </tspan>
 </text>
 <text fill="#000000" font-family="'Bitstream Vera Sans'" font-size="12.666px" id="text4087-2-6-5-3-2" opacity=".8" x="-1114.7802" xml:space="preserve" y="-899.51196">
  <tspan id="tspan4089-7-2-9-18-8" x="-1114.7802" y="-899.51196">
  </tspan>
 </text>
 <text fill="#000000" font-family="'Bitstream Vera Sans'" font-size="12.666px" id="text4087-2-6-5-4-89" opacity=".8" x="345.7626" xml:space="preserve" y="-1172.7461">
  <tspan id="tspan4089-7-2-9-9-2" x="345.7626" y="-1172.7461">
  </tspan>
 </text>
 <text fill="#000000" font-family="'Bitstream Vera Sans'" font-size="12.666px" id="text4087-2-6-5-7-1-8" opacity=".8" x="1831.8861" xml:space="preserve" y="-546.05475">
  <tspan id="tspan4089-7-2-9-1-8-8" x="1831.8861" y="-546.05475">
  </tspan>
 </text>
 <text fill="#000000" font-family="'Bitstream Vera Sans'" font-size="12.666px" id="text4087-2-6-5-5-5-8" opacity=".8" x="1855.8469" xml:space="preserve" y="-586.79651">
  <tspan id="tspan4089-7-2-9-6-9-6" x="1855.8469" y="-586.79651">
  </tspan>
 </text>
 <text fill="#000000" font-family="'Bitstream Vera Sans'" font-size="12.666px" id="text4087-2-6-5-75-8" opacity=".8" x="364.38376" xml:space="preserve" y="-594.00641">
  <tspan id="tspan4089-7-2-9-3-3" x="364.38376" y="-594.00641">
  </tspan>
 </text>
 <text fill="#000000" font-family="'Bitstream Vera Sans'" font-size="12.666px" id="text4087-2-6-5-4-8-8" opacity=".8" x="1824.9266" xml:space="preserve" y="-867.24036">
  <tspan id="tspan4089-7-2-9-9-8-3" x="1824.9266" y="-867.24036">
  </tspan>
 </text>
 <text fill="#000000" font-family="'Bitstream Vera Sans'" font-size="12.666px" id="text4087-2-6-5-45-33" opacity=".8" x="-573.43256" xml:space="preserve" y="-642.09772">
  <tspan id="tspan4089-7-2-9-75-8" x="-573.43256" y="-642.09772">
  </tspan>
 </text>
 <text fill="#000000" font-family="'Bitstream Vera Sans'" font-size="12.666px" id="text4087-2-6-5-59-7-0" opacity=".8" x="-2397.1182" xml:space="preserve" y="103.45585">
  <tspan id="tspan4089-7-2-9-4-0-4" x="-2397.1182" y="103.45585">
  </tspan>
 </text>
 <text fill="#000000" font-family="'Bitstream Vera Sans'" font-size="12.666px" id="text4087-2-6-5-8-7" opacity=".8" x="-682.36279" xml:space="preserve" y="196.32799">
  <tspan id="tspan4089-7-2-9-19-6" x="-682.36279" y="196.32799">
  </tspan>
 </text>
 <text fill="#000000" font-family="'Bitstream Vera Sans'" font-size="12.666px" id="text4087-2-6-5-7-5-8" opacity=".8" x="426.66153" xml:space="preserve" y="17.14584">
  <tspan id="tspan4089-7-2-9-1-2-9" x="426.66153" y="17.14584">
  </tspan>
 </text>
 <text fill="#000000" font-family="'Bitstream Vera Sans'" font-size="12.666px" id="text4087-2-6-5-5-0-0" opacity=".8" x="450.62247" xml:space="preserve" y="-23.595865">
  <tspan id="tspan4089-7-2-9-6-2-6" x="450.62247" y="-23.595865">
  </tspan>
 </text>
 <text fill="#000000" font-family="'Bitstream Vera Sans'" font-size="12.666px" id="text4087-2-6-5-26-8" opacity=".8" x="-1040.8407" xml:space="preserve" y="-30.805836">
  <tspan id="tspan4089-7-2-9-90-7" x="-1040.8407" y="-30.805836">
  </tspan>
 </text>
 <text fill="#000000" font-family="'Bitstream Vera Sans'" font-size="12.666px" id="text4087-2-6-5-4-3-9" opacity=".8" x="419.70206" xml:space="preserve" y="-304.03989">
  <tspan id="tspan4089-7-2-9-9-5-0" x="419.70206" y="-304.03989">
  </tspan>
 </text>
 <text fill="#000000" font-family="'Bitstream Vera Sans'" font-size="12.666px" id="text4087-2-6-5-55-3" opacity=".8" x="-608.03253" xml:space="preserve" y="-33.520081">
  <tspan id="tspan4089-7-2-9-32-3" x="-608.03253" y="-33.520081">
  </tspan>
 </text>
 <text fill="#000000" font-family="'Bitstream Vera Sans'" font-size="12.666px" id="text4087-2-6-5-59-9-3" opacity=".8" x="-2431.7185" xml:space="preserve" y="712.03345">
  <tspan id="tspan4089-7-2-9-4-1-7" x="-2431.7185" y="712.03345">
  </tspan>
 </text>
 <text fill="#000000" font-family="'Bitstream Vera Sans'" font-size="12.666px" id="text4087-2-6-5-1-8-3" opacity=".8" x="-456.93948" xml:space="preserve" y="-895.0506">
  <tspan id="tspan4089-7-2-9-7-8-2" x="-456.93948" y="-895.0506">
  </tspan>
 </text>
 <text fill="#000000" font-family="'Bitstream Vera Sans'" font-size="12.666px" id="text4087-2-6-5-7-8-6" opacity=".8" x="350.66266" xml:space="preserve" y="-1308.5208">
  <tspan id="tspan4089-7-2-9-1-9-5" x="350.66266" y="-1308.5208">
  </tspan>
 </text>
 <text fill="#000000" font-family="'Bitstream Vera Sans'" font-size="12.666px" id="text4087-2-6-5-5-52-2" opacity=".8" x="374.62357" xml:space="preserve" y="-1349.2626">
  <tspan id="tspan4089-7-2-9-6-4-6" x="374.62357" y="-1349.2626">
  </tspan>
 </text>
 <text fill="#000000" font-family="'Bitstream Vera Sans'" font-size="12.666px" id="text4087-2-6-5-3-4-5" opacity=".8" x="-1116.8396" xml:space="preserve" y="-1356.4724">
  <tspan id="tspan4089-7-2-9-18-3-8" x="-1116.8396" y="-1356.4724">
  </tspan>
 </text>
 <text fill="#000000" font-family="'Bitstream Vera Sans'" font-size="12.666px" id="text4087-2-6-5-4-7-7" opacity=".8" x="343.70316" xml:space="preserve" y="-1629.7065">
  <tspan id="tspan4089-7-2-9-9-54-9" x="343.70316" y="-1629.7065">
  </tspan>
 </text>
 <text fill="#000000" font-family="'Bitstream Vera Sans'" font-size="12.666px" id="text4087-2-6-5-7-1-2-6" opacity=".8" x="1829.8265" xml:space="preserve" y="-1003.0153">
  <tspan id="tspan4089-7-2-9-1-8-0-0" x="1829.8265" y="-1003.0153">
  </tspan>
 </text>
 <text fill="#000000" font-family="'Bitstream Vera Sans'" font-size="12.666px" id="text4087-2-6-5-5-5-6-4" opacity=".8" x="1853.7874" xml:space="preserve" y="-1043.757">
  <tspan id="tspan4089-7-2-9-6-9-8-1" x="1853.7874" y="-1043.757">
  </tspan>
 </text>
 <text fill="#000000" font-family="'Bitstream Vera Sans'" font-size="12.666px" id="text4087-2-6-5-75-4-0" opacity=".8" x="362.32431" xml:space="preserve" y="-1050.9668">
  <tspan id="tspan4089-7-2-9-3-9-4" x="362.32431" y="-1050.9668">
  </tspan>
 </text>
 <text fill="#000000" font-family="'Bitstream Vera Sans'" font-size="12.666px" id="text4087-2-6-5-4-8-1-8" opacity=".8" x="1822.8671" xml:space="preserve" y="-1324.2009">
  <tspan id="tspan4089-7-2-9-9-8-8-7" x="1822.8671" y="-1324.2009">
  </tspan>
 </text>
 <text fill="#000000" font-family="'Bitstream Vera Sans'" font-size="12.666px" id="text4087-2-6-5-45-0-0" opacity=".8" x="-575.492" xml:space="preserve" y="-1099.0581">
  <tspan id="tspan4089-7-2-9-75-2-8" x="-575.492" y="-1099.0581">
  </tspan>
 </text>
 <text fill="#000000" font-family="'Bitstream Vera Sans'" font-size="12.666px" id="text4087-2-6-5-59-5-6" opacity=".8" x="-2399.1777" xml:space="preserve" y="-353.50461">
  <tspan id="tspan4089-7-2-9-4-00-2" x="-2399.1777" y="-353.50461">
  </tspan>
 </text>
 <text fill="#000000" font-family="'Bitstream Vera Sans'" font-size="12.666px" id="text4087-2-6-5-264-4" opacity=".8" x="-684.42224" xml:space="preserve" y="-260.63245">
  <tspan id="tspan4089-7-2-9-8-7" x="-684.42224" y="-260.63245">
  </tspan>
 </text>
 <text fill="#000000" font-family="'Bitstream Vera Sans'" font-size="12.666px" id="text4087-2-6-5-42-9" opacity=".8" x="155.5923" xml:space="preserve" y="-19.71829">
  <tspan id="tspan4089-7-2-9-93-3" x="155.5923" y="-19.71829">
  </tspan>
 </text>
 <text fill="#000000" font-family="'Bitstream Vera Sans'" font-size="12.666px" id="text4087-2-6-5-5-05-9" opacity=".8" x="179.55324" xml:space="preserve" y="-60.460011">
  <tspan id="tspan4089-7-2-9-6-49-2" x="179.55324" y="-60.460011">
  </tspan>
 </text>
 <text fill="#000000" font-family="'Bitstream Vera Sans'" font-size="12.666px" id="text4087-2-6-5-1-4-8" opacity=".8" x="-1090.2634" xml:space="preserve" y="-254.4886">
  <tspan id="tspan4089-7-2-9-7-7-3" x="-1090.2634" y="-254.4886">
  </tspan>
 </text>
 <text fill="#000000" font-family="'Bitstream Vera Sans'" font-size="12.666px" id="text4087-2-6-5-7-56-0" opacity=".8" x="-282.66141" xml:space="preserve" y="-667.9588">
  <tspan id="tspan4089-7-2-9-1-1-1" x="-282.66141" y="-667.9588">
  </tspan>
 </text>
 <text fill="#000000" font-family="'Bitstream Vera Sans'" font-size="12.666px" id="text4087-2-6-5-5-8-7" opacity=".8" x="-258.70047" xml:space="preserve" y="-708.7005">
  <tspan id="tspan4089-7-2-9-6-7-8" x="-258.70047" y="-708.7005">
  </tspan>
 </text>
 <text fill="#000000" font-family="'Bitstream Vera Sans'" font-size="12.666px" id="text4087-2-6-5-3-42-9" opacity=".8" x="-1750.1636" xml:space="preserve" y="-715.91046">
  <tspan id="tspan4089-7-2-9-18-39-1" x="-1750.1636" y="-715.91046">
  </tspan>
 </text>
 <text fill="#000000" font-family="'Bitstream Vera Sans'" font-size="12.666px" id="text4087-2-6-5-4-4-5" opacity=".8" x="-289.62085" xml:space="preserve" y="-989.14447">
  <tspan id="tspan4089-7-2-9-9-3-4" x="-289.62085" y="-989.14447">
  </tspan>
 </text>
 <text fill="#000000" font-family="'Bitstream Vera Sans'" font-size="12.666px" id="text4087-2-6-5-7-1-0-9" opacity=".8" x="1196.5026" xml:space="preserve" y="-362.45316">
  <tspan id="tspan4089-7-2-9-1-8-5-2" x="1196.5026" y="-362.45316">
  </tspan>
 </text>
 <text fill="#000000" font-family="'Bitstream Vera Sans'" font-size="12.666px" id="text4087-2-6-5-5-5-5-5" opacity=".8" x="1220.4634" xml:space="preserve" y="-403.19489">
  <tspan id="tspan4089-7-2-9-6-9-2-7" x="1220.4634" y="-403.19489">
  </tspan>
 </text>
 <text fill="#000000" font-family="'Bitstream Vera Sans'" font-size="12.666px" id="text4087-2-6-5-75-9-4" opacity=".8" x="-270.99973" xml:space="preserve" y="-410.40482">
  <tspan id="tspan4089-7-2-9-3-1-9" x="-270.99973" y="-410.40482">
  </tspan>
 </text>
 <text fill="#000000" font-family="'Bitstream Vera Sans'" font-size="12.666px" id="text4087-2-6-5-4-8-18-9" opacity=".8" x="1189.5431" xml:space="preserve" y="-683.63892">
  <tspan id="tspan4089-7-2-9-9-8-4-4" x="1189.5431" y="-683.63892">
  </tspan>
 </text>
 <text fill="#000000" font-family="'Bitstream Vera Sans'" font-size="12.666px" id="text4087-2-6-5-45-3-5" opacity=".8" x="-1208.816" xml:space="preserve" y="-458.49609">
  <tspan id="tspan4089-7-2-9-75-7-9" x="-1208.816" y="-458.49609">
  </tspan>
 </text>
 <text fill="#000000" font-family="'Bitstream Vera Sans'" font-size="12.666px" id="text4087-2-6-5-59-8-3" opacity=".8" x="-3032.5017" xml:space="preserve" y="287.05743">
  <tspan id="tspan4089-7-2-9-4-2-5" x="-3032.5017" y="287.05743">
  </tspan>
 </text>
 <g id="layer4-0-7" transform="matrix(.90475 0 0 .90475 -716.75 -669.05)">
  <text fill="#000000" font-family="'Bitstream Vera Sans'" font-size="14px" id="text4087-2-6-5-20-0" opacity=".8" x="-664.2738" xml:space="preserve" y="1159.4154">
   <tspan id="tspan4089-7-2-9-82-8" x="-664.2738" y="1159.4154">
   </tspan>
  </text>
 </g>
 <text fill="#000000" font-family="'Droid Sans'" font-size="12.666px" id="text7276" x="435.90427" xml:space="preserve" y="-361.22546">
  <tspan id="tspan7278" x="435.90427" y="-361.22546">
  </tspan>
  <tspan id="tspan7280" x="435.90427" y="-345.3924">
  </tspan>
 </text>
 <text fill="#000000" font-family="'Bitstream Vera Sans'" font-size="12.666px" id="text4087-2-6-5-51" opacity=".8" x="901.0882" xml:space="preserve" y="-843.27002">
  <tspan id="tspan4089-7-2-9-97" x="901.0882" y="-843.27002">
  </tspan>
 </text>
 <text fill="#000000" font-family="'Bitstream Vera Sans'" font-size="12.666px" id="text4087-2-6-5-59-2" opacity=".8" x="-922.59778" xml:space="preserve" y="-97.716553">
  <tspan id="tspan4089-7-2-9-4-4" x="-922.59778" y="-97.716553">
  </tspan>
 </text>
 <text fill="#000000" font-family="'Bitstream Vera Sans'" font-size="12.666px" id="text4087-2-6-5-7-7" opacity=".8" x="1628.1677" xml:space="preserve" y="-1128.2659">
  <tspan id="tspan4089-7-2-9-1-6" x="1628.1677" y="-1128.2659">
  </tspan>
 </text>
 <text fill="#000000" font-family="'Bitstream Vera Sans'" font-size="12.666px" id="text4087-2-6-5-5-6" opacity=".8" x="1652.1285" xml:space="preserve" y="-1169.0076">
  <tspan id="tspan4089-7-2-9-6-53" x="1652.1285" y="-1169.0076">
  </tspan>
 </text>
 <text fill="#000000" font-family="'Bitstream Vera Sans'" font-size="12.666px" id="text4087-2-6-5-54" opacity=".8" x="160.66542" xml:space="preserve" y="-1176.2175">
  <tspan id="tspan4089-7-2-9-0" x="160.66542" y="-1176.2175">
  </tspan>
 </text>
 <text fill="#000000" font-family="'Bitstream Vera Sans'" font-size="12.666px" id="text4087-2-6-5-4-1" opacity=".8" x="1621.2083" xml:space="preserve" y="-1449.4517">
  <tspan id="tspan4089-7-2-9-9-28" x="1621.2083" y="-1449.4517">
  </tspan>
 </text>
 <rect fill-opacity="0" height="60" id="rect3024" ry="10" width="20" x="869.19" y="-421.36">
 </rect>
 <g id="g4487">
  <rect fill="#9ea7a9" height="32" id="rect4203" rx="2" ry="2" transform="matrix(0,-1,-1,0,0,0)" width="40" x="-44" y="-40">
  </rect>
  <path d="m10 4c-1.108 0-2 0.892-2 2v1c0-1.108 0.892-2 2-2h28c1.108 0 2 0.892 2 2v-1c0-1.108-0.892-2-2-2h-28z" fill="#fff" id="rect4196" opacity=".2">
  </path>
  <path d="m13 7h22c1.108 0 2 0.892 2 2v22c0 1.108-0.892 2-2 2h-22c-1.108 0-2-0.892-2-2v-22c0-1.108 0.892-2 2-2z" id="rect4443" opacity=".2">
  </path>
  <g id="g5046" opacity=".2" transform="translate(0,1)">
   <path d="m13 36h4c1.108 0 2 0.892 2 2s-0.892 2-2 2h-4c-1.108 0-2-0.892-2-2s0.892-2 2-2z" id="path5048" opacity="1">
   </path>
   <path d="m31 36h4c1.108 0 2 0.892 2 2s-0.892 2-2 2h-4c-1.108 0-2-0.892-2-2s0.892-2 2-2z" id="path5050" opacity="1">
   </path>
  </g>
  <g id="g5042">
   <path d="m13 36h4c1.108 0 2 0.892 2 2s-0.892 2-2 2h-4c-1.108 0-2-0.892-2-2s0.892-2 2-2z" fill="#92e763" id="rect4446">
   </path>
   <path d="m31 36h4c1.108 0 2 0.892 2 2s-0.892 2-2 2h-4c-1.108 0-2-0.892-2-2s0.892-2 2-2z" fill="#e76363" id="path4449">
   </path>
  </g>
  <path class="ColorScheme-Text" d="m25.825 10-3.8649 0.35154v15.063l3.8236-0.54683v-6.422l5.1449 7.1251 4.03-1.2109-5.2688-6.8517 5.3101-6.461-4.1126-0.89066-5.1036 6.4611 0.04124-6.6173zm-8.762 3.672c-0.04363 0.0081-0.09098 0.01545-0.12386 0.04715l-1.5195 1.4375c-0.06378 0.06096-0.07155 0.15323-0.02473 0.22656l1.7755 2.7735c-0.31527 0.50138-0.57128 1.0392-0.75151 1.6093l-3.262 0.64063c-0.09081 0.0175-0.15691 0.09928-0.15691 0.18728v2.0313c0 0.08592 0.06902 0.15948 0.1569 0.17971l3.1629 0.72654c0.16913 0.66017 0.43042 1.2918 0.77627 1.8673l-1.8333 2.6407c-0.05115 0.07336-0.04116 0.17214 0.02473 0.23436l1.5195 1.4375c0.06396 0.06026 0.16219 0.06788 0.23949 0.02311l2.8739-1.6485c0.56367 0.30785 1.1739 0.55448 1.8168 0.71875l0.66893 3.0469c0.02 0.088 0.098 0.15 0.191 0.15h2.1471c0.0901 0 0.16854-0.0571 0.18994-0.14065l0.79279-3.0625c0.66304-0.16914 1.2882-0.42017 1.8664-0.74222l2.8326 1.7579c0.07805 0.04782 0.18156 0.03856 0.24776-0.02316l1.5113-1.4375c0.06418-0.06096 0.08008-0.15338 0.03309-0.22657l-1.0323-1.6093-0.33859 0.10151c-0.04891 0.01463-0.10306-0.0081-0.13213-0.04715 0 0-0.65208-0.90749-1.503-2.0859-1.0177 1.8838-3.0931 3.1719-5.4835 3.1719-3.3967 0-6.1524-2.607-6.1524-5.8204 0-2.3637 1.4941-4.3939 3.6336-5.3048v-1.5c-0.38939 0.12891-0.76558 0.28446-1.1231 0.46873-0.000449-0.000317 0.000732-0.0081 0-0.0081l-2.8986-1.7969c-0.03895-0.02387-0.08022-0.02774-0.12388-0.02313z" id="path4483" opacity=".2" style="color:#31363b">
  </path>
  <path class="ColorScheme-Text" d="m25.825 9-3.8649 0.35154v15.063l3.8236-0.54683v-6.422l5.1449 7.1251 4.03-1.2109-5.2688-6.8517 5.3101-6.461-4.1126-0.89066-5.1036 6.4611 0.04124-6.6173zm-8.762 3.672c-0.04363 0.0081-0.09098 0.01545-0.12386 0.04715l-1.5195 1.4375c-0.06378 0.06096-0.07155 0.15323-0.02473 0.22656l1.7755 2.7735c-0.31527 0.50138-0.57128 1.0392-0.75151 1.6093l-3.262 0.64063c-0.09081 0.0175-0.15691 0.09928-0.15691 0.18728v2.0313c0 0.08592 0.06902 0.15948 0.1569 0.17971l3.1629 0.72654c0.16913 0.66017 0.43042 1.2918 0.77627 1.8673l-1.8333 2.6407c-0.05115 0.07336-0.04116 0.17214 0.02473 0.23436l1.5195 1.4375c0.06396 0.06026 0.16219 0.06788 0.23949 0.02311l2.8739-1.6485c0.56367 0.30785 1.1739 0.55448 1.8168 0.71875l0.66893 3.0469c0.02 0.088 0.098 0.15 0.191 0.15h2.1471c0.0901 0 0.16854-0.0571 0.18994-0.14065l0.79279-3.0625c0.66304-0.16914 1.2882-0.42017 1.8664-0.74222l2.8326 1.7579c0.07805 0.04782 0.18156 0.03856 0.24776-0.02316l1.5113-1.4375c0.06418-0.06096 0.08008-0.15338 0.03309-0.22657l-1.0323-1.6093-0.33859 0.10151c-0.04891 0.01463-0.10306-0.0081-0.13213-0.04715 0 0-0.65208-0.90749-1.503-2.0859-1.0177 1.8838-3.0931 3.1719-5.4835 3.1719-3.3967 0-6.1524-2.607-6.1524-5.8204 0-2.3637 1.4941-4.3939 3.6336-5.3048v-1.5c-0.38939 0.12891-0.76558 0.28446-1.1231 0.46873-0.000449-0.000317 0.000732-0.0081 0-0.0081l-2.8986-1.7969c-0.03895-0.02387-0.08022-0.02774-0.12388-0.02313z" fill="#fff" id="path2876" style="color:#31363b">
  </path>
  <path d="m8 41v1c0 1.108 0.892 2 2 2h28c1.108 0 2-0.892 2-2v-1c0 1.108-0.892 2-2 2h-28c-1.108 0-2-0.892-2-2z" id="rect4453" opacity=".3">
  </path>
 </g>
</svg>
