<?xml version="1.0" encoding="UTF-8" standalone="no"?>
<!-- Created with Inkscape (http://www.inkscape.org/) -->
<svg height="22" id="svg2817" inkscape:version="0.91 r13725" sodipodi:docname="kdeconnect.svg" version="1.0" width="22" xmlns="http://www.w3.org/2000/svg" xmlns:cc="http://creativecommons.org/ns#" xmlns:dc="http://purl.org/dc/elements/1.1/" xmlns:inkscape="http://www.inkscape.org/namespaces/inkscape" xmlns:rdf="http://www.w3.org/1999/02/22-rdf-syntax-ns#" xmlns:sodipodi="http://sodipodi.sourceforge.net/DTD/sodipodi-0.dtd" xmlns:svg="http://www.w3.org/2000/svg">
 <sodipodi:namedview bordercolor="#666666" borderopacity="1" gridtolerance="10" guidetolerance="10" id="namedview229" inkscape:current-layer="svg2817" inkscape:cx="28.945003" inkscape:cy="11.061373" inkscape:pageopacity="0" inkscape:pageshadow="2" inkscape:window-height="849" inkscape:window-maximized="1" inkscape:window-width="1600" inkscape:window-x="0" inkscape:window-y="0" inkscape:zoom="8.6599296" objecttolerance="10" pagecolor="#ffffff" showgrid="false">
 </sodipodi:namedview>
 <metadata id="metadata57">
  <rdf:rdf>
   <cc:work rdf:about="">
    <dc:format>
     image/svg+xml
    </dc:format>
    <dc:type rdf:resource="http://purl.org/dc/dcmitype/StillImage">
    </dc:type>
    <dc:title>
    </dc:title>
   </cc:work>
  </rdf:rdf>
 </metadata>
 <defs id="defs2819">
  <style id="current-color-scheme" type="text/css">
   .ColorScheme-Text {
        color:#31363b;
      }
      .ColorScheme-Background{
        color:#eff0f1;
      }
      .ColorScheme-ViewText {
        color:#31363b;
      }
      .ColorScheme-ViewBackground{
        color:#fcfcfc;
      }
      .ColorScheme-ViewHover {
        color:#3daee9;
      }
      .ColorScheme-ViewFocus{
        color:#3daee9;
      }
      .ColorScheme-ButtonText {
        color:#31363b;
      }
      .ColorScheme-ButtonBackground{
        color:#eff0f1;
      }
      .ColorScheme-ButtonHover {
        color:#3daee9;
      }
      .ColorScheme-ButtonFocus{
        color:#3daee9;
      }
  </style>
 </defs>
 <text font-size="12.666px" id="text4087-2-6-5" style="font-size:12.66600037px;font-family:'Bitstream Vera Sans';opacity:0.8;fill:#000000" x="877.22626" xml:space="preserve" y="8.8126011">
  <tspan id="tspan4089-7-2-9" x="877.22626" y="8.8126011">
  </tspan>
 </text>
 <text font-size="12.666px" id="text4087-2-6-5-5" style="font-size:12.66600037px;font-family:'Bitstream Vera Sans';opacity:0.8;fill:#000000" x="901.18719" xml:space="preserve" y="-31.929106">
  <tspan id="tspan4089-7-2-9-6" x="901.18719" y="-31.929106">
  </tspan>
 </text>
 <text font-size="12.666px" id="text4087-2-6-5-2" style="font-size:12.66600037px;font-family:'Bitstream Vera Sans';opacity:0.8;fill:#000000" x="-569.37115" xml:space="preserve" y="-62.007248">
  <tspan id="tspan4089-7-2-9-2" x="-569.37115" y="-62.007248">
  </tspan>
 </text>
 <text font-size="12.666px" id="text4087-2-6-5-59" style="font-size:12.66600037px;font-family:'Bitstream Vera Sans';opacity:0.8;fill:#000000" x="-2393.0571" xml:space="preserve" y="683.5462">
  <tspan id="tspan4089-7-2-9-4" x="-2393.0571" y="683.5462">
  </tspan>
 </text>
 <text font-size="12.666px" id="text4087-2-6-5-1" style="font-size:12.66600037px;font-family:'Bitstream Vera Sans';opacity:0.8;fill:#000000" x="-454.88007" xml:space="preserve" y="-447.32822">
  <tspan id="tspan4089-7-2-9-7" x="-454.88007" y="-447.32822">
  </tspan>
 </text>
 <text font-size="12.666px" id="text4087-2-6-5-7" style="font-size:12.66600037px;font-family:'Bitstream Vera Sans';opacity:0.8;fill:#000000" x="352.72208" xml:space="preserve" y="-860.79834">
  <tspan id="tspan4089-7-2-9-1" x="352.72208" y="-860.79834">
  </tspan>
 </text>
 <text font-size="12.666px" id="text4087-2-6-5-5-3" style="font-size:12.66600037px;font-family:'Bitstream Vera Sans';opacity:0.8;fill:#000000" x="376.68301" xml:space="preserve" y="-901.54004">
  <tspan id="tspan4089-7-2-9-6-5" x="376.68301" y="-901.54004">
  </tspan>
 </text>
 <text font-size="12.666px" id="text4087-2-6-5-3" style="font-size:12.66600037px;font-family:'Bitstream Vera Sans';opacity:0.8;fill:#000000" x="-1114.7802" xml:space="preserve" y="-908.74994">
  <tspan id="tspan4089-7-2-9-18" x="-1114.7802" y="-908.74994">
  </tspan>
 </text>
 <text font-size="12.666px" id="text4087-2-6-5-4" style="font-size:12.66600037px;font-family:'Bitstream Vera Sans';opacity:0.8;fill:#000000" x="345.7626" xml:space="preserve" y="-1181.9841">
  <tspan id="tspan4089-7-2-9-9" x="345.7626" y="-1181.9841">
  </tspan>
 </text>
 <text font-size="12.666px" id="text4087-2-6-5-7-1" style="font-size:12.66600037px;font-family:'Bitstream Vera Sans';opacity:0.8;fill:#000000" x="1831.8861" xml:space="preserve" y="-555.29272">
  <tspan id="tspan4089-7-2-9-1-8" x="1831.8861" y="-555.29272">
  </tspan>
 </text>
 <text font-size="12.666px" id="text4087-2-6-5-5-5" style="font-size:12.66600037px;font-family:'Bitstream Vera Sans';opacity:0.8;fill:#000000" x="1855.8469" xml:space="preserve" y="-596.03448">
  <tspan id="tspan4089-7-2-9-6-9" x="1855.8469" y="-596.03448">
  </tspan>
 </text>
 <text font-size="12.666px" id="text4087-2-6-5-75" style="font-size:12.66600037px;font-family:'Bitstream Vera Sans';opacity:0.8;fill:#000000" x="364.38376" xml:space="preserve" y="-603.24438">
  <tspan id="tspan4089-7-2-9-3" x="364.38376" y="-603.24438">
  </tspan>
 </text>
 <text font-size="12.666px" id="text4087-2-6-5-4-8" style="font-size:12.66600037px;font-family:'Bitstream Vera Sans';opacity:0.8;fill:#000000" x="1824.9266" xml:space="preserve" y="-876.47839">
  <tspan id="tspan4089-7-2-9-9-8" x="1824.9266" y="-876.47839">
  </tspan>
 </text>
 <text font-size="12.666px" id="text4087-2-6-5-45" style="font-size:12.66600037px;font-family:'Bitstream Vera Sans';opacity:0.8;fill:#000000" x="-573.43256" xml:space="preserve" y="-651.33569">
  <tspan id="tspan4089-7-2-9-75" x="-573.43256" y="-651.33569">
  </tspan>
 </text>
 <text font-size="12.666px" id="text4087-2-6-5-59-7" style="font-size:12.66600037px;font-family:'Bitstream Vera Sans';opacity:0.8;fill:#000000" x="-2397.1182" xml:space="preserve" y="94.217857">
  <tspan id="tspan4089-7-2-9-4-0" x="-2397.1182" y="94.217857">
  </tspan>
 </text>
 <text font-size="12.666px" id="text4087-2-6-5-8" style="font-size:12.66600037px;font-family:'Bitstream Vera Sans';opacity:0.8;fill:#000000" x="-682.36279" xml:space="preserve" y="187.09">
  <tspan id="tspan4089-7-2-9-19" x="-682.36279" y="187.09">
  </tspan>
 </text>
 <text font-size="12.666px" id="text4087-2-6-5-7-5" style="font-size:12.66600037px;font-family:'Bitstream Vera Sans';opacity:0.8;fill:#000000" x="426.66153" xml:space="preserve" y="7.9078522">
  <tspan id="tspan4089-7-2-9-1-2" x="426.66153" y="7.9078522">
  </tspan>
 </text>
 <text font-size="12.666px" id="text4087-2-6-5-5-0" style="font-size:12.66600037px;font-family:'Bitstream Vera Sans';opacity:0.8;fill:#000000" x="450.62247" xml:space="preserve" y="-32.833855">
  <tspan id="tspan4089-7-2-9-6-2" x="450.62247" y="-32.833855">
  </tspan>
 </text>
 <text font-size="12.666px" id="text4087-2-6-5-26" style="font-size:12.66600037px;font-family:'Bitstream Vera Sans';opacity:0.8;fill:#000000" x="-1040.8407" xml:space="preserve" y="-40.043827">
  <tspan id="tspan4089-7-2-9-90" x="-1040.8407" y="-40.043827">
  </tspan>
 </text>
 <text font-size="12.666px" id="text4087-2-6-5-4-3" style="font-size:12.66600037px;font-family:'Bitstream Vera Sans';opacity:0.8;fill:#000000" x="419.70206" xml:space="preserve" y="-313.27789">
  <tspan id="tspan4089-7-2-9-9-5" x="419.70206" y="-313.27789">
  </tspan>
 </text>
 <text font-size="12.666px" id="text4087-2-6-5-55" style="font-size:12.66600037px;font-family:'Bitstream Vera Sans';opacity:0.8;fill:#000000" x="-608.03253" xml:space="preserve" y="-42.758072">
  <tspan id="tspan4089-7-2-9-32" x="-608.03253" y="-42.758072">
  </tspan>
 </text>
 <text font-size="12.666px" id="text4087-2-6-5-59-9" style="font-size:12.66600037px;font-family:'Bitstream Vera Sans';opacity:0.8;fill:#000000" x="-2431.7185" xml:space="preserve" y="702.79541">
  <tspan id="tspan4089-7-2-9-4-1" x="-2431.7185" y="702.79541">
  </tspan>
 </text>
 <text font-size="12.666px" id="text4087-2-6-5-1-8" style="font-size:12.66600037px;font-family:'Bitstream Vera Sans';opacity:0.8;fill:#000000" x="-456.93948" xml:space="preserve" y="-904.28857">
  <tspan id="tspan4089-7-2-9-7-8" x="-456.93948" y="-904.28857">
  </tspan>
 </text>
 <text font-size="12.666px" id="text4087-2-6-5-7-8" style="font-size:12.66600037px;font-family:'Bitstream Vera Sans';opacity:0.8;fill:#000000" x="350.66266" xml:space="preserve" y="-1317.7588">
  <tspan id="tspan4089-7-2-9-1-9" x="350.66266" y="-1317.7588">
  </tspan>
 </text>
 <text font-size="12.666px" id="text4087-2-6-5-5-52" style="font-size:12.66600037px;font-family:'Bitstream Vera Sans';opacity:0.8;fill:#000000" x="374.62357" xml:space="preserve" y="-1358.5005">
  <tspan id="tspan4089-7-2-9-6-4" x="374.62357" y="-1358.5005">
  </tspan>
 </text>
 <text font-size="12.666px" id="text4087-2-6-5-3-4" style="font-size:12.66600037px;font-family:'Bitstream Vera Sans';opacity:0.8;fill:#000000" x="-1116.8396" xml:space="preserve" y="-1365.7104">
  <tspan id="tspan4089-7-2-9-18-3" x="-1116.8396" y="-1365.7104">
  </tspan>
 </text>
 <text font-size="12.666px" id="text4087-2-6-5-4-7" style="font-size:12.66600037px;font-family:'Bitstream Vera Sans';opacity:0.8;fill:#000000" x="343.70316" xml:space="preserve" y="-1638.9446">
  <tspan id="tspan4089-7-2-9-9-54" x="343.70316" y="-1638.9446">
  </tspan>
 </text>
 <text font-size="12.666px" id="text4087-2-6-5-7-1-2" style="font-size:12.66600037px;font-family:'Bitstream Vera Sans';opacity:0.8;fill:#000000" x="1829.8265" xml:space="preserve" y="-1012.2533">
  <tspan id="tspan4089-7-2-9-1-8-0" x="1829.8265" y="-1012.2533">
  </tspan>
 </text>
 <text font-size="12.666px" id="text4087-2-6-5-5-5-6" style="font-size:12.66600037px;font-family:'Bitstream Vera Sans';opacity:0.8;fill:#000000" x="1853.7874" xml:space="preserve" y="-1052.9949">
  <tspan id="tspan4089-7-2-9-6-9-8" x="1853.7874" y="-1052.9949">
  </tspan>
 </text>
 <text font-size="12.666px" id="text4087-2-6-5-75-4" style="font-size:12.66600037px;font-family:'Bitstream Vera Sans';opacity:0.8;fill:#000000" x="362.32431" xml:space="preserve" y="-1060.2048">
  <tspan id="tspan4089-7-2-9-3-9" x="362.32431" y="-1060.2048">
  </tspan>
 </text>
 <text font-size="12.666px" id="text4087-2-6-5-4-8-1" style="font-size:12.66600037px;font-family:'Bitstream Vera Sans';opacity:0.8;fill:#000000" x="1822.8671" xml:space="preserve" y="-1333.439">
  <tspan id="tspan4089-7-2-9-9-8-8" x="1822.8671" y="-1333.439">
  </tspan>
 </text>
 <text font-size="12.666px" id="text4087-2-6-5-45-0" style="font-size:12.66600037px;font-family:'Bitstream Vera Sans';opacity:0.8;fill:#000000" x="-575.492" xml:space="preserve" y="-1108.2961">
  <tspan id="tspan4089-7-2-9-75-2" x="-575.492" y="-1108.2961">
  </tspan>
 </text>
 <text font-size="12.666px" id="text4087-2-6-5-59-5" style="font-size:12.66600037px;font-family:'Bitstream Vera Sans';opacity:0.8;fill:#000000" x="-2399.1777" xml:space="preserve" y="-362.74261">
  <tspan id="tspan4089-7-2-9-4-00" x="-2399.1777" y="-362.74261">
  </tspan>
 </text>
 <text font-size="12.666px" id="text4087-2-6-5-264" style="font-size:12.66600037px;font-family:'Bitstream Vera Sans';opacity:0.8;fill:#000000" x="-684.42224" xml:space="preserve" y="-269.87045">
  <tspan id="tspan4089-7-2-9-8" x="-684.42224" y="-269.87045">
  </tspan>
 </text>
 <text font-size="12.666px" id="text4087-2-6-5-42" style="font-size:12.66600037px;font-family:'Bitstream Vera Sans';opacity:0.8;fill:#000000" x="155.5923" xml:space="preserve" y="-28.956278">
  <tspan id="tspan4089-7-2-9-93" x="155.5923" y="-28.956278">
  </tspan>
 </text>
 <text font-size="12.666px" id="text4087-2-6-5-5-05" style="font-size:12.66600037px;font-family:'Bitstream Vera Sans';opacity:0.8;fill:#000000" x="179.55324" xml:space="preserve" y="-69.697998">
  <tspan id="tspan4089-7-2-9-6-49" x="179.55324" y="-69.697998">
  </tspan>
 </text>
 <text font-size="12.666px" id="text4087-2-6-5-1-4" style="font-size:12.66600037px;font-family:'Bitstream Vera Sans';opacity:0.8;fill:#000000" x="-1090.2634" xml:space="preserve" y="-263.72662">
  <tspan id="tspan4089-7-2-9-7-7" x="-1090.2634" y="-263.72662">
  </tspan>
 </text>
 <text font-size="12.666px" id="text4087-2-6-5-7-56" style="font-size:12.66600037px;font-family:'Bitstream Vera Sans';opacity:0.8;fill:#000000" x="-282.66141" xml:space="preserve" y="-677.19678">
  <tspan id="tspan4089-7-2-9-1-1" x="-282.66141" y="-677.19678">
  </tspan>
 </text>
 <text font-size="12.666px" id="text4087-2-6-5-5-8" style="font-size:12.66600037px;font-family:'Bitstream Vera Sans';opacity:0.8;fill:#000000" x="-258.70047" xml:space="preserve" y="-717.93848">
  <tspan id="tspan4089-7-2-9-6-7" x="-258.70047" y="-717.93848">
  </tspan>
 </text>
 <text font-size="12.666px" id="text4087-2-6-5-3-42" style="font-size:12.66600037px;font-family:'Bitstream Vera Sans';opacity:0.8;fill:#000000" x="-1750.1636" xml:space="preserve" y="-725.14838">
  <tspan id="tspan4089-7-2-9-18-39" x="-1750.1636" y="-725.14838">
  </tspan>
 </text>
 <text font-size="12.666px" id="text4087-2-6-5-4-4" style="font-size:12.66600037px;font-family:'Bitstream Vera Sans';opacity:0.8;fill:#000000" x="-289.62085" xml:space="preserve" y="-998.38251">
  <tspan id="tspan4089-7-2-9-9-3" x="-289.62085" y="-998.38251">
  </tspan>
 </text>
 <text font-size="12.666px" id="text4087-2-6-5-7-1-0" style="font-size:12.66600037px;font-family:'Bitstream Vera Sans';opacity:0.8;fill:#000000" x="1196.5026" xml:space="preserve" y="-371.69113">
  <tspan id="tspan4089-7-2-9-1-8-5" x="1196.5026" y="-371.69113">
  </tspan>
 </text>
 <text font-size="12.666px" id="text4087-2-6-5-5-5-5" style="font-size:12.66600037px;font-family:'Bitstream Vera Sans';opacity:0.8;fill:#000000" x="1220.4634" xml:space="preserve" y="-412.43286">
  <tspan id="tspan4089-7-2-9-6-9-2" x="1220.4634" y="-412.43286">
  </tspan>
 </text>
 <text font-size="12.666px" id="text4087-2-6-5-75-9" style="font-size:12.66600037px;font-family:'Bitstream Vera Sans';opacity:0.8;fill:#000000" x="-270.99973" xml:space="preserve" y="-419.64282">
  <tspan id="tspan4089-7-2-9-3-1" x="-270.99973" y="-419.64282">
  </tspan>
 </text>
 <text font-size="12.666px" id="text4087-2-6-5-4-8-18" style="font-size:12.66600037px;font-family:'Bitstream Vera Sans';opacity:0.8;fill:#000000" x="1189.5431" xml:space="preserve" y="-692.87689">
  <tspan id="tspan4089-7-2-9-9-8-4" x="1189.5431" y="-692.87689">
  </tspan>
 </text>
 <text font-size="12.666px" id="text4087-2-6-5-45-3" style="font-size:12.66600037px;font-family:'Bitstream Vera Sans';opacity:0.8;fill:#000000" x="-1208.816" xml:space="preserve" y="-467.7341">
  <tspan id="tspan4089-7-2-9-75-7" x="-1208.816" y="-467.7341">
  </tspan>
 </text>
 <text font-size="12.666px" id="text4087-2-6-5-59-8" style="font-size:12.66600037px;font-family:'Bitstream Vera Sans';opacity:0.8;fill:#000000" x="-3032.5017" xml:space="preserve" y="277.81946">
  <tspan id="tspan4089-7-2-9-4-2" x="-3032.5017" y="277.81946">
  </tspan>
 </text>
 <g id="layer4-0" transform="matrix(0.90475,0,0,0.90475,-716.75,-678.29)">
  <text font-size="14px" id="text4087-2-6-5-20" style="font-size:14px;font-family:'Bitstream Vera Sans';opacity:0.8;fill:#000000" x="-664.2738" xml:space="preserve" y="1159.4154">
   <tspan id="tspan4089-7-2-9-82" x="-664.2738" y="1159.4154">
   </tspan>
  </text>
 </g>
 <text font-size="12.666px" id="text4087-2-6-5-9" style="font-size:12.66600037px;font-family:'Bitstream Vera Sans';opacity:0.8;fill:#000000" x="877.22626" xml:space="preserve" y="16.050589">
  <tspan id="tspan4089-7-2-9-43" x="877.22626" y="16.050589">
  </tspan>
 </text>
 <text font-size="12.666px" id="text4087-2-6-5-5-51" style="font-size:12.66600037px;font-family:'Bitstream Vera Sans';opacity:0.8;fill:#000000" x="901.18719" xml:space="preserve" y="-24.691116">
  <tspan id="tspan4089-7-2-9-6-74" x="901.18719" y="-24.691116">
  </tspan>
 </text>
 <text font-size="12.666px" id="text4087-2-6-5-2-3" style="font-size:12.66600037px;font-family:'Bitstream Vera Sans';opacity:0.8;fill:#000000" x="-569.37115" xml:space="preserve" y="-54.76926">
  <tspan id="tspan4089-7-2-9-2-1" x="-569.37115" y="-54.76926">
  </tspan>
 </text>
 <text font-size="12.666px" id="text4087-2-6-5-59-4" style="font-size:12.66600037px;font-family:'Bitstream Vera Sans';opacity:0.8;fill:#000000" x="-2393.0571" xml:space="preserve" y="690.78418">
  <tspan id="tspan4089-7-2-9-4-6" x="-2393.0571" y="690.78418">
  </tspan>
 </text>
 <text font-size="12.666px" id="text4087-2-6-5-1-9" style="font-size:12.66600037px;font-family:'Bitstream Vera Sans';opacity:0.8;fill:#000000" x="-454.88007" xml:space="preserve" y="-440.09021">
  <tspan id="tspan4089-7-2-9-7-4" x="-454.88007" y="-440.09021">
  </tspan>
 </text>
 <text font-size="12.666px" id="text4087-2-6-5-7-2" style="font-size:12.66600037px;font-family:'Bitstream Vera Sans';opacity:0.8;fill:#000000" x="352.72208" xml:space="preserve" y="-853.5603">
  <tspan id="tspan4089-7-2-9-1-26" x="352.72208" y="-853.5603">
  </tspan>
 </text>
 <text font-size="12.666px" id="text4087-2-6-5-5-3-4" style="font-size:12.66600037px;font-family:'Bitstream Vera Sans';opacity:0.8;fill:#000000" x="376.68301" xml:space="preserve" y="-894.30206">
  <tspan id="tspan4089-7-2-9-6-5-1" x="376.68301" y="-894.30206">
  </tspan>
 </text>
 <text font-size="12.666px" id="text4087-2-6-5-3-2" style="font-size:12.66600037px;font-family:'Bitstream Vera Sans';opacity:0.8;fill:#000000" x="-1114.7802" xml:space="preserve" y="-901.51196">
  <tspan id="tspan4089-7-2-9-18-8" x="-1114.7802" y="-901.51196">
  </tspan>
 </text>
 <text font-size="12.666px" id="text4087-2-6-5-4-89" style="font-size:12.66600037px;font-family:'Bitstream Vera Sans';opacity:0.8;fill:#000000" x="345.7626" xml:space="preserve" y="-1174.7461">
  <tspan id="tspan4089-7-2-9-9-2" x="345.7626" y="-1174.7461">
  </tspan>
 </text>
 <text font-size="12.666px" id="text4087-2-6-5-7-1-8" style="font-size:12.66600037px;font-family:'Bitstream Vera Sans';opacity:0.8;fill:#000000" x="1831.8861" xml:space="preserve" y="-548.05475">
  <tspan id="tspan4089-7-2-9-1-8-8" x="1831.8861" y="-548.05475">
  </tspan>
 </text>
 <text font-size="12.666px" id="text4087-2-6-5-5-5-8" style="font-size:12.66600037px;font-family:'Bitstream Vera Sans';opacity:0.8;fill:#000000" x="1855.8469" xml:space="preserve" y="-588.79651">
  <tspan id="tspan4089-7-2-9-6-9-6" x="1855.8469" y="-588.79651">
  </tspan>
 </text>
 <text font-size="12.666px" id="text4087-2-6-5-75-8" style="font-size:12.66600037px;font-family:'Bitstream Vera Sans';opacity:0.8;fill:#000000" x="364.38376" xml:space="preserve" y="-596.00641">
  <tspan id="tspan4089-7-2-9-3-3" x="364.38376" y="-596.00641">
  </tspan>
 </text>
 <text font-size="12.666px" id="text4087-2-6-5-4-8-8" style="font-size:12.66600037px;font-family:'Bitstream Vera Sans';opacity:0.8;fill:#000000" x="1824.9266" xml:space="preserve" y="-869.24036">
  <tspan id="tspan4089-7-2-9-9-8-3" x="1824.9266" y="-869.24036">
  </tspan>
 </text>
 <text font-size="12.666px" id="text4087-2-6-5-45-33" style="font-size:12.66600037px;font-family:'Bitstream Vera Sans';opacity:0.8;fill:#000000" x="-573.43256" xml:space="preserve" y="-644.09772">
  <tspan id="tspan4089-7-2-9-75-8" x="-573.43256" y="-644.09772">
  </tspan>
 </text>
 <text font-size="12.666px" id="text4087-2-6-5-59-7-0" style="font-size:12.66600037px;font-family:'Bitstream Vera Sans';opacity:0.8;fill:#000000" x="-2397.1182" xml:space="preserve" y="101.45585">
  <tspan id="tspan4089-7-2-9-4-0-4" x="-2397.1182" y="101.45585">
  </tspan>
 </text>
 <text font-size="12.666px" id="text4087-2-6-5-8-7" style="font-size:12.66600037px;font-family:'Bitstream Vera Sans';opacity:0.8;fill:#000000" x="-682.36279" xml:space="preserve" y="194.32799">
  <tspan id="tspan4089-7-2-9-19-6" x="-682.36279" y="194.32799">
  </tspan>
 </text>
 <text font-size="12.666px" id="text4087-2-6-5-7-5-8" style="font-size:12.66600037px;font-family:'Bitstream Vera Sans';opacity:0.8;fill:#000000" x="426.66153" xml:space="preserve" y="15.14584">
  <tspan id="tspan4089-7-2-9-1-2-9" x="426.66153" y="15.14584">
  </tspan>
 </text>
 <text font-size="12.666px" id="text4087-2-6-5-5-0-0" style="font-size:12.66600037px;font-family:'Bitstream Vera Sans';opacity:0.8;fill:#000000" x="450.62247" xml:space="preserve" y="-25.595865">
  <tspan id="tspan4089-7-2-9-6-2-6" x="450.62247" y="-25.595865">
  </tspan>
 </text>
 <text font-size="12.666px" id="text4087-2-6-5-26-8" style="font-size:12.66600037px;font-family:'Bitstream Vera Sans';opacity:0.8;fill:#000000" x="-1040.8407" xml:space="preserve" y="-32.805836">
  <tspan id="tspan4089-7-2-9-90-7" x="-1040.8407" y="-32.805836">
  </tspan>
 </text>
 <text font-size="12.666px" id="text4087-2-6-5-4-3-9" style="font-size:12.66600037px;font-family:'Bitstream Vera Sans';opacity:0.8;fill:#000000" x="419.70206" xml:space="preserve" y="-306.03989">
  <tspan id="tspan4089-7-2-9-9-5-0" x="419.70206" y="-306.03989">
  </tspan>
 </text>
 <text font-size="12.666px" id="text4087-2-6-5-55-3" style="font-size:12.66600037px;font-family:'Bitstream Vera Sans';opacity:0.8;fill:#000000" x="-608.03253" xml:space="preserve" y="-35.520081">
  <tspan id="tspan4089-7-2-9-32-3" x="-608.03253" y="-35.520081">
  </tspan>
 </text>
 <text font-size="12.666px" id="text4087-2-6-5-59-9-3" style="font-size:12.66600037px;font-family:'Bitstream Vera Sans';opacity:0.8;fill:#000000" x="-2431.7185" xml:space="preserve" y="710.03345">
  <tspan id="tspan4089-7-2-9-4-1-7" x="-2431.7185" y="710.03345">
  </tspan>
 </text>
 <text font-size="12.666px" id="text4087-2-6-5-1-8-3" style="font-size:12.66600037px;font-family:'Bitstream Vera Sans';opacity:0.8;fill:#000000" x="-456.93948" xml:space="preserve" y="-897.0506">
  <tspan id="tspan4089-7-2-9-7-8-2" x="-456.93948" y="-897.0506">
  </tspan>
 </text>
 <text font-size="12.666px" id="text4087-2-6-5-7-8-6" style="font-size:12.66600037px;font-family:'Bitstream Vera Sans';opacity:0.8;fill:#000000" x="350.66266" xml:space="preserve" y="-1310.5208">
  <tspan id="tspan4089-7-2-9-1-9-5" x="350.66266" y="-1310.5208">
  </tspan>
 </text>
 <text font-size="12.666px" id="text4087-2-6-5-5-52-2" style="font-size:12.66600037px;font-family:'Bitstream Vera Sans';opacity:0.8;fill:#000000" x="374.62357" xml:space="preserve" y="-1351.2626">
  <tspan id="tspan4089-7-2-9-6-4-6" x="374.62357" y="-1351.2626">
  </tspan>
 </text>
 <text font-size="12.666px" id="text4087-2-6-5-3-4-5" style="font-size:12.66600037px;font-family:'Bitstream Vera Sans';opacity:0.8;fill:#000000" x="-1116.8396" xml:space="preserve" y="-1358.4724">
  <tspan id="tspan4089-7-2-9-18-3-8" x="-1116.8396" y="-1358.4724">
  </tspan>
 </text>
 <text font-size="12.666px" id="text4087-2-6-5-4-7-7" style="font-size:12.66600037px;font-family:'Bitstream Vera Sans';opacity:0.8;fill:#000000" x="343.70316" xml:space="preserve" y="-1631.7065">
  <tspan id="tspan4089-7-2-9-9-54-9" x="343.70316" y="-1631.7065">
  </tspan>
 </text>
 <text font-size="12.666px" id="text4087-2-6-5-7-1-2-6" style="font-size:12.66600037px;font-family:'Bitstream Vera Sans';opacity:0.8;fill:#000000" x="1829.8265" xml:space="preserve" y="-1005.0153">
  <tspan id="tspan4089-7-2-9-1-8-0-0" x="1829.8265" y="-1005.0153">
  </tspan>
 </text>
 <text font-size="12.666px" id="text4087-2-6-5-5-5-6-4" style="font-size:12.66600037px;font-family:'Bitstream Vera Sans';opacity:0.8;fill:#000000" x="1853.7874" xml:space="preserve" y="-1045.757">
  <tspan id="tspan4089-7-2-9-6-9-8-1" x="1853.7874" y="-1045.757">
  </tspan>
 </text>
 <text font-size="12.666px" id="text4087-2-6-5-75-4-0" style="font-size:12.66600037px;font-family:'Bitstream Vera Sans';opacity:0.8;fill:#000000" x="362.32431" xml:space="preserve" y="-1052.9668">
  <tspan id="tspan4089-7-2-9-3-9-4" x="362.32431" y="-1052.9668">
  </tspan>
 </text>
 <text font-size="12.666px" id="text4087-2-6-5-4-8-1-8" style="font-size:12.66600037px;font-family:'Bitstream Vera Sans';opacity:0.8;fill:#000000" x="1822.8671" xml:space="preserve" y="-1326.2009">
  <tspan id="tspan4089-7-2-9-9-8-8-7" x="1822.8671" y="-1326.2009">
  </tspan>
 </text>
 <text font-size="12.666px" id="text4087-2-6-5-45-0-0" style="font-size:12.66600037px;font-family:'Bitstream Vera Sans';opacity:0.8;fill:#000000" x="-575.492" xml:space="preserve" y="-1101.0581">
  <tspan id="tspan4089-7-2-9-75-2-8" x="-575.492" y="-1101.0581">
  </tspan>
 </text>
 <text font-size="12.666px" id="text4087-2-6-5-59-5-6" style="font-size:12.66600037px;font-family:'Bitstream Vera Sans';opacity:0.8;fill:#000000" x="-2399.1777" xml:space="preserve" y="-355.50461">
  <tspan id="tspan4089-7-2-9-4-00-2" x="-2399.1777" y="-355.50461">
  </tspan>
 </text>
 <text font-size="12.666px" id="text4087-2-6-5-264-4" style="font-size:12.66600037px;font-family:'Bitstream Vera Sans';opacity:0.8;fill:#000000" x="-684.42224" xml:space="preserve" y="-262.63245">
  <tspan id="tspan4089-7-2-9-8-7" x="-684.42224" y="-262.63245">
  </tspan>
 </text>
 <text font-size="12.666px" id="text4087-2-6-5-42-9" style="font-size:12.66600037px;font-family:'Bitstream Vera Sans';opacity:0.8;fill:#000000" x="155.5923" xml:space="preserve" y="-21.71829">
  <tspan id="tspan4089-7-2-9-93-3" x="155.5923" y="-21.71829">
  </tspan>
 </text>
 <text font-size="12.666px" id="text4087-2-6-5-5-05-9" style="font-size:12.66600037px;font-family:'Bitstream Vera Sans';opacity:0.8;fill:#000000" x="179.55324" xml:space="preserve" y="-62.460011">
  <tspan id="tspan4089-7-2-9-6-49-2" x="179.55324" y="-62.460011">
  </tspan>
 </text>
 <text font-size="12.666px" id="text4087-2-6-5-1-4-8" style="font-size:12.66600037px;font-family:'Bitstream Vera Sans';opacity:0.8;fill:#000000" x="-1090.2634" xml:space="preserve" y="-256.48859">
  <tspan id="tspan4089-7-2-9-7-7-3" x="-1090.2634" y="-256.48859">
  </tspan>
 </text>
 <text font-size="12.666px" id="text4087-2-6-5-7-56-0" style="font-size:12.66600037px;font-family:'Bitstream Vera Sans';opacity:0.8;fill:#000000" x="-282.66141" xml:space="preserve" y="-669.9588">
  <tspan id="tspan4089-7-2-9-1-1-1" x="-282.66141" y="-669.9588">
  </tspan>
 </text>
 <text font-size="12.666px" id="text4087-2-6-5-5-8-7" style="font-size:12.66600037px;font-family:'Bitstream Vera Sans';opacity:0.8;fill:#000000" x="-258.70047" xml:space="preserve" y="-710.7005">
  <tspan id="tspan4089-7-2-9-6-7-8" x="-258.70047" y="-710.7005">
  </tspan>
 </text>
 <text font-size="12.666px" id="text4087-2-6-5-3-42-9" style="font-size:12.66600037px;font-family:'Bitstream Vera Sans';opacity:0.8;fill:#000000" x="-1750.1636" xml:space="preserve" y="-717.91046">
  <tspan id="tspan4089-7-2-9-18-39-1" x="-1750.1636" y="-717.91046">
  </tspan>
 </text>
 <text font-size="12.666px" id="text4087-2-6-5-4-4-5" style="font-size:12.66600037px;font-family:'Bitstream Vera Sans';opacity:0.8;fill:#000000" x="-289.62085" xml:space="preserve" y="-991.14447">
  <tspan id="tspan4089-7-2-9-9-3-4" x="-289.62085" y="-991.14447">
  </tspan>
 </text>
 <text font-size="12.666px" id="text4087-2-6-5-7-1-0-9" style="font-size:12.66600037px;font-family:'Bitstream Vera Sans';opacity:0.8;fill:#000000" x="1196.5026" xml:space="preserve" y="-364.45316">
  <tspan id="tspan4089-7-2-9-1-8-5-2" x="1196.5026" y="-364.45316">
  </tspan>
 </text>
 <text font-size="12.666px" id="text4087-2-6-5-5-5-5-5" style="font-size:12.66600037px;font-family:'Bitstream Vera Sans';opacity:0.8;fill:#000000" x="1220.4634" xml:space="preserve" y="-405.19489">
  <tspan id="tspan4089-7-2-9-6-9-2-7" x="1220.4634" y="-405.19489">
  </tspan>
 </text>
 <text font-size="12.666px" id="text4087-2-6-5-75-9-4" style="font-size:12.66600037px;font-family:'Bitstream Vera Sans';opacity:0.8;fill:#000000" x="-270.99973" xml:space="preserve" y="-412.40482">
  <tspan id="tspan4089-7-2-9-3-1-9" x="-270.99973" y="-412.40482">
  </tspan>
 </text>
 <text font-size="12.666px" id="text4087-2-6-5-4-8-18-9" style="font-size:12.66600037px;font-family:'Bitstream Vera Sans';opacity:0.8;fill:#000000" x="1189.5431" xml:space="preserve" y="-685.63892">
  <tspan id="tspan4089-7-2-9-9-8-4-4" x="1189.5431" y="-685.63892">
  </tspan>
 </text>
 <text font-size="12.666px" id="text4087-2-6-5-45-3-5" style="font-size:12.66600037px;font-family:'Bitstream Vera Sans';opacity:0.8;fill:#000000" x="-1208.816" xml:space="preserve" y="-460.49609">
  <tspan id="tspan4089-7-2-9-75-7-9" x="-1208.816" y="-460.49609">
  </tspan>
 </text>
 <text font-size="12.666px" id="text4087-2-6-5-59-8-3" style="font-size:12.66600037px;font-family:'Bitstream Vera Sans';opacity:0.8;fill:#000000" x="-3032.5017" xml:space="preserve" y="285.05743">
  <tspan id="tspan4089-7-2-9-4-2-5" x="-3032.5017" y="285.05743">
  </tspan>
 </text>
 <g id="layer4-0-7" transform="matrix(0.90475,0,0,0.90475,-716.75,-671.05)">
  <text font-size="14px" id="text4087-2-6-5-20-0" style="font-size:14px;font-family:'Bitstream Vera Sans';opacity:0.8;fill:#000000" x="-664.2738" xml:space="preserve" y="1159.4154">
   <tspan id="tspan4089-7-2-9-82-8" x="-664.2738" y="1159.4154">
   </tspan>
  </text>
 </g>
 <text font-size="12.666px" id="text7276" style="font-size:12.66600037px;font-family:'Droid Sans';fill:#000000" x="435.90427" xml:space="preserve" y="-363.22546">
  <tspan id="tspan7278" x="435.90427" y="-363.22546">
  </tspan>
  <tspan id="tspan7280" x="435.90427" y="-347.3924">
  </tspan>
 </text>
 <text font-size="12.666px" id="text4087-2-6-5-51" style="font-size:12.66600037px;font-family:'Bitstream Vera Sans';opacity:0.8;fill:#000000" x="901.0882" xml:space="preserve" y="-845.27002">
  <tspan id="tspan4089-7-2-9-97" x="901.0882" y="-845.27002">
  </tspan>
 </text>
 <text font-size="12.666px" id="text4087-2-6-5-59-2" style="font-size:12.66600037px;font-family:'Bitstream Vera Sans';opacity:0.8;fill:#000000" x="-922.59778" xml:space="preserve" y="-99.716553">
  <tspan id="tspan4089-7-2-9-4-4" x="-922.59778" y="-99.716553">
  </tspan>
 </text>
 <text font-size="12.666px" id="text4087-2-6-5-7-7" style="font-size:12.66600037px;font-family:'Bitstream Vera Sans';opacity:0.8;fill:#000000" x="1628.1677" xml:space="preserve" y="-1130.2659">
  <tspan id="tspan4089-7-2-9-1-6" x="1628.1677" y="-1130.2659">
  </tspan>
 </text>
 <text font-size="12.666px" id="text4087-2-6-5-5-6" style="font-size:12.66600037px;font-family:'Bitstream Vera Sans';opacity:0.8;fill:#000000" x="1652.1285" xml:space="preserve" y="-1171.0076">
  <tspan id="tspan4089-7-2-9-6-53" x="1652.1285" y="-1171.0076">
  </tspan>
 </text>
 <text font-size="12.666px" id="text4087-2-6-5-54" style="font-size:12.66600037px;font-family:'Bitstream Vera Sans';opacity:0.8;fill:#000000" x="160.66542" xml:space="preserve" y="-1178.2175">
  <tspan id="tspan4089-7-2-9-0" x="160.66542" y="-1178.2175">
  </tspan>
 </text>
 <text font-size="12.666px" id="text4087-2-6-5-4-1" style="font-size:12.66600037px;font-family:'Bitstream Vera Sans';opacity:0.8;fill:#000000" x="1621.2083" xml:space="preserve" y="-1451.4517">
  <tspan id="tspan4089-7-2-9-9-28" x="1621.2083" y="-1451.4517">
  </tspan>
 </text>
 <rect height="60" id="rect3024" ry="10" style="fill-opacity:0" width="20" x="869.19" y="-423.35999">
 </rect>
 <g id="g4487" transform="matrix(0.5,0,0,0.5,-1,-1)">
  <rect height="32" id="rect4203" rx="2" ry="2" style="fill:#9ea7a9" transform="matrix(0,-1,-1,0,0,0)" width="40" x="-44" y="-40">
  </rect>
  <path d="M 10,4 C 8.892,4 8,4.892 8,6 L 8,7 C 8,5.892 8.892,5 10,5 l 28,0 c 1.108,0 2,0.892 2,2 L 40,6 C 40,4.892 39.108,4 38,4 L 10,4 Z" id="rect4196" inkscape:connector-curvature="0" style="opacity:0.2;fill:#ffffff">
  </path>
  <path d="m 13,7 22,0 c 1.108,0 2,0.892 2,2 l 0,22 c 0,1.108 -0.892,2 -2,2 l -22,0 c -1.108,0 -2,-0.892 -2,-2 L 11,9 c 0,-1.108 0.892,-2 2,-2 z" id="rect4443" inkscape:connector-curvature="0" style="opacity:0.2">
  </path>
  <g id="g5046" style="opacity:0.2" transform="translate(0,1)">
   <path d="m 13,36 4,0 c 1.108,0 2,0.892 2,2 0,1.108 -0.892,2 -2,2 l -4,0 c -1.108,0 -2,-0.892 -2,-2 0,-1.108 0.892,-2 2,-2 z" id="path5048" inkscape:connector-curvature="0" style="opacity:1">
   </path>
   <path d="m 31,36 4,0 c 1.108,0 2,0.892 2,2 0,1.108 -0.892,2 -2,2 l -4,0 c -1.108,0 -2,-0.892 -2,-2 0,-1.108 0.892,-2 2,-2 z" id="path5050" inkscape:connector-curvature="0" style="opacity:1">
   </path>
  </g>
  <g id="g5042">
   <path d="m 13,36 4,0 c 1.108,0 2,0.892 2,2 0,1.108 -0.892,2 -2,2 l -4,0 c -1.108,0 -2,-0.892 -2,-2 0,-1.108 0.892,-2 2,-2 z" id="rect4446" inkscape:connector-curvature="0" style="fill:#92e763">
   </path>
   <path d="m 31,36 4,0 c 1.108,0 2,0.892 2,2 0,1.108 -0.892,2 -2,2 l -4,0 c -1.108,0 -2,-0.892 -2,-2 0,-1.108 0.892,-2 2,-2 z" id="path4449" inkscape:connector-curvature="0" style="fill:#e76363">
   </path>
  </g>
  <path class="ColorScheme-Text" d="m 25.825,10 -3.8649,0.35154 0,15.063 3.8236,-0.54683 0,-6.422 5.1449,7.1251 4.03,-1.2109 -5.2688,-6.8517 5.3101,-6.461 -4.1126,-0.89066 -5.1036,6.4611 0.04124,-6.6173 z m -8.762,3.672 c -0.04363,0.0081 -0.09098,0.01545 -0.12386,0.04715 l -1.5195,1.4375 c -0.06378,0.06096 -0.07155,0.15323 -0.02473,0.22656 l 1.7755,2.7735 c -0.31527,0.50138 -0.57128,1.0392 -0.75151,1.6093 l -3.262,0.64063 c -0.09081,0.0175 -0.15691,0.09928 -0.15691,0.18728 l 0,2.0313 c 0,0.08592 0.06902,0.15948 0.1569,0.17971 l 3.1629,0.72654 c 0.16913,0.66017 0.43042,1.2918 0.77627,1.8673 l -1.8333,2.6407 c -0.05115,0.07336 -0.04116,0.17214 0.02473,0.23436 l 1.5195,1.4375 c 0.06396,0.06026 0.16219,0.06788 0.23949,0.02311 l 2.8739,-1.6485 c 0.56367,0.30785 1.1739,0.55448 1.8168,0.71875 l 0.66893,3.0469 c 0.02,0.088 0.098,0.15 0.191,0.15 l 2.1471,0 c 0.0901,0 0.16854,-0.0571 0.18994,-0.14065 l 0.79279,-3.0625 c 0.66304,-0.16914 1.2882,-0.42017 1.8664,-0.74222 l 2.8326,1.7579 c 0.07805,0.04782 0.18156,0.03856 0.24776,-0.02316 l 1.5113,-1.4375 c 0.06418,-0.06096 0.08008,-0.15338 0.03309,-0.22657 l -1.0323,-1.6093 -0.33859,0.10151 c -0.04891,0.01463 -0.10306,-0.0081 -0.13213,-0.04715 0,0 -0.65208,-0.90749 -1.503,-2.0859 -1.0177,1.8838 -3.0931,3.1719 -5.4835,3.1719 -3.3967,0 -6.1524,-2.607 -6.1524,-5.8204 0,-2.3637 1.4941,-4.3939 3.6336,-5.3048 l 0,-1.5 c -0.38939,0.12891 -0.76558,0.28446 -1.1231,0.46873 -4.49e-4,-3.17e-4 7.32e-4,-0.0081 0,-0.0081 l -2.8986,-1.7969 c -0.03895,-0.02387 -0.08022,-0.02774 -0.12388,-0.02313 z" id="path4483" inkscape:connector-curvature="0" style="color:#31363b;opacity:0.2">
  </path>
  <path class="ColorScheme-Text" d="m 25.825,9 -3.8649,0.35154 0,15.063 3.8236,-0.54683 0,-6.422 5.1449,7.1251 4.03,-1.2109 -5.2688,-6.8517 5.3101,-6.461 -4.1126,-0.89066 -5.1036,6.4611 0.04124,-6.6173 z m -8.762,3.672 c -0.04363,0.0081 -0.09098,0.01545 -0.12386,0.04715 l -1.5195,1.4375 c -0.06378,0.06096 -0.07155,0.15323 -0.02473,0.22656 l 1.7755,2.7735 c -0.31527,0.50138 -0.57128,1.0392 -0.75151,1.6093 l -3.262,0.64063 c -0.09081,0.0175 -0.15691,0.09928 -0.15691,0.18728 l 0,2.0313 c 0,0.08592 0.06902,0.15948 0.1569,0.17971 l 3.1629,0.72654 c 0.16913,0.66017 0.43042,1.2918 0.77627,1.8673 l -1.8333,2.6407 c -0.05115,0.07336 -0.04116,0.17214 0.02473,0.23436 l 1.5195,1.4375 c 0.06396,0.06026 0.16219,0.06788 0.23949,0.02311 l 2.8739,-1.6485 c 0.56367,0.30785 1.1739,0.55448 1.8168,0.71875 l 0.66893,3.0469 c 0.02,0.088 0.098,0.15 0.191,0.15 l 2.1471,0 c 0.0901,0 0.16854,-0.0571 0.18994,-0.14065 l 0.79279,-3.0625 c 0.66304,-0.16914 1.2882,-0.42017 1.8664,-0.74222 l 2.8326,1.7579 c 0.07805,0.04782 0.18156,0.03856 0.24776,-0.02316 l 1.5113,-1.4375 c 0.06418,-0.06096 0.08008,-0.15338 0.03309,-0.22657 l -1.0323,-1.6093 -0.33859,0.10151 c -0.04891,0.01463 -0.10306,-0.0081 -0.13213,-0.04715 0,0 -0.65208,-0.90749 -1.503,-2.0859 -1.0177,1.8838 -3.0931,3.1719 -5.4835,3.1719 -3.3967,0 -6.1524,-2.607 -6.1524,-5.8204 0,-2.3637 1.4941,-4.3939 3.6336,-5.3048 l 0,-1.5 c -0.38939,0.12891 -0.76558,0.28446 -1.1231,0.46873 -4.49e-4,-3.17e-4 7.32e-4,-0.0081 0,-0.0081 l -2.8986,-1.7969 c -0.03895,-0.02387 -0.08022,-0.02774 -0.12388,-0.02313 z" id="path2876" inkscape:connector-curvature="0" style="color:#31363b;fill:#ffffff">
  </path>
  <path d="m 8,41 0,1 c 0,1.108 0.892,2 2,2 l 28,0 c 1.108,0 2,-0.892 2,-2 l 0,-1 c 0,1.108 -0.892,2 -2,2 L 10,43 C 8.892,43 8,42.108 8,41 Z" id="rect4453" inkscape:connector-curvature="0" style="opacity:0.3">
  </path>
 </g>
</svg>
