<?xml version="1.0" encoding="UTF-8" standalone="no"?>
<!-- Created with Inkscape (http://www.inkscape.org/) -->
<svg height="22" id="svg2817" inkscape:version="0.91 r13725" sodipodi:docname="kwalletmanager.svg" version="1.0" width="22" xmlns="http://www.w3.org/2000/svg" xmlns:cc="http://creativecommons.org/ns#" xmlns:dc="http://purl.org/dc/elements/1.1/" xmlns:inkscape="http://www.inkscape.org/namespaces/inkscape" xmlns:rdf="http://www.w3.org/1999/02/22-rdf-syntax-ns#" xmlns:sodipodi="http://sodipodi.sourceforge.net/DTD/sodipodi-0.dtd" xmlns:svg="http://www.w3.org/2000/svg">
 <sodipodi:namedview bordercolor="#666666" borderopacity="1" gridtolerance="10" guidetolerance="10" id="namedview226" inkscape:current-layer="svg2817" inkscape:cx="-26.920425" inkscape:cy="7.9322034" inkscape:pageopacity="0" inkscape:pageshadow="2" inkscape:window-height="849" inkscape:window-maximized="1" inkscape:window-width="1600" inkscape:window-x="0" inkscape:window-y="0" inkscape:zoom="6.1198265" objecttolerance="10" pagecolor="#ffffff" showgrid="false">
 </sodipodi:namedview>
 <metadata id="metadata57">
  <rdf:rdf>
   <cc:work rdf:about="">
    <dc:format>
     image/svg+xml
    </dc:format>
    <dc:type rdf:resource="http://purl.org/dc/dcmitype/StillImage">
    </dc:type>
    <dc:title>
    </dc:title>
   </cc:work>
  </rdf:rdf>
 </metadata>
 <defs id="defs2819">
  <style id="current-color-scheme" type="text/css">
   .ColorScheme-Text {
        color:#31363b;
      }
      .ColorScheme-Background{
        color:#eff0f1;
      }
      .ColorScheme-ViewText {
        color:#31363b;
      }
      .ColorScheme-ViewBackground{
        color:#fcfcfc;
      }
      .ColorScheme-ViewHover {
        color:#3daee9;
      }
      .ColorScheme-ViewFocus{
        color:#3daee9;
      }
      .ColorScheme-ButtonText {
        color:#31363b;
      }
      .ColorScheme-ButtonBackground{
        color:#eff0f1;
      }
      .ColorScheme-ButtonHover {
        color:#3daee9;
      }
      .ColorScheme-ButtonFocus{
        color:#3daee9;
      }
  </style>
 </defs>
 <text font-size="12.666px" id="text4087-2-6-5" style="font-size:12.66600037px;font-family:'Bitstream Vera Sans';opacity:0.8;fill:#000000" x="877.22626" xml:space="preserve" y="8.8126011">
  <tspan id="tspan4089-7-2-9" x="877.22626" y="8.8126011">
  </tspan>
 </text>
 <text font-size="12.666px" id="text4087-2-6-5-5" style="font-size:12.66600037px;font-family:'Bitstream Vera Sans';opacity:0.8;fill:#000000" x="901.18719" xml:space="preserve" y="-31.929106">
  <tspan id="tspan4089-7-2-9-6" x="901.18719" y="-31.929106">
  </tspan>
 </text>
 <text font-size="12.666px" id="text4087-2-6-5-2" style="font-size:12.66600037px;font-family:'Bitstream Vera Sans';opacity:0.8;fill:#000000" x="-569.37115" xml:space="preserve" y="-62.007248">
  <tspan id="tspan4089-7-2-9-2" x="-569.37115" y="-62.007248">
  </tspan>
 </text>
 <text font-size="12.666px" id="text4087-2-6-5-59" style="font-size:12.66600037px;font-family:'Bitstream Vera Sans';opacity:0.8;fill:#000000" x="-2393.0571" xml:space="preserve" y="683.5462">
  <tspan id="tspan4089-7-2-9-4" x="-2393.0571" y="683.5462">
  </tspan>
 </text>
 <text font-size="12.666px" id="text4087-2-6-5-1" style="font-size:12.66600037px;font-family:'Bitstream Vera Sans';opacity:0.8;fill:#000000" x="-454.88007" xml:space="preserve" y="-447.32822">
  <tspan id="tspan4089-7-2-9-7" x="-454.88007" y="-447.32822">
  </tspan>
 </text>
 <text font-size="12.666px" id="text4087-2-6-5-7" style="font-size:12.66600037px;font-family:'Bitstream Vera Sans';opacity:0.8;fill:#000000" x="352.72208" xml:space="preserve" y="-860.79834">
  <tspan id="tspan4089-7-2-9-1" x="352.72208" y="-860.79834">
  </tspan>
 </text>
 <text font-size="12.666px" id="text4087-2-6-5-5-3" style="font-size:12.66600037px;font-family:'Bitstream Vera Sans';opacity:0.8;fill:#000000" x="376.68301" xml:space="preserve" y="-901.54004">
  <tspan id="tspan4089-7-2-9-6-5" x="376.68301" y="-901.54004">
  </tspan>
 </text>
 <text font-size="12.666px" id="text4087-2-6-5-3" style="font-size:12.66600037px;font-family:'Bitstream Vera Sans';opacity:0.8;fill:#000000" x="-1114.7802" xml:space="preserve" y="-908.74994">
  <tspan id="tspan4089-7-2-9-18" x="-1114.7802" y="-908.74994">
  </tspan>
 </text>
 <text font-size="12.666px" id="text4087-2-6-5-4" style="font-size:12.66600037px;font-family:'Bitstream Vera Sans';opacity:0.8;fill:#000000" x="345.7626" xml:space="preserve" y="-1181.9841">
  <tspan id="tspan4089-7-2-9-9" x="345.7626" y="-1181.9841">
  </tspan>
 </text>
 <text font-size="12.666px" id="text4087-2-6-5-7-1" style="font-size:12.66600037px;font-family:'Bitstream Vera Sans';opacity:0.8;fill:#000000" x="1831.8861" xml:space="preserve" y="-555.29272">
  <tspan id="tspan4089-7-2-9-1-8" x="1831.8861" y="-555.29272">
  </tspan>
 </text>
 <text font-size="12.666px" id="text4087-2-6-5-5-5" style="font-size:12.66600037px;font-family:'Bitstream Vera Sans';opacity:0.8;fill:#000000" x="1855.8469" xml:space="preserve" y="-596.03448">
  <tspan id="tspan4089-7-2-9-6-9" x="1855.8469" y="-596.03448">
  </tspan>
 </text>
 <text font-size="12.666px" id="text4087-2-6-5-75" style="font-size:12.66600037px;font-family:'Bitstream Vera Sans';opacity:0.8;fill:#000000" x="364.38376" xml:space="preserve" y="-603.24438">
  <tspan id="tspan4089-7-2-9-3" x="364.38376" y="-603.24438">
  </tspan>
 </text>
 <text font-size="12.666px" id="text4087-2-6-5-4-8" style="font-size:12.66600037px;font-family:'Bitstream Vera Sans';opacity:0.8;fill:#000000" x="1824.9266" xml:space="preserve" y="-876.47839">
  <tspan id="tspan4089-7-2-9-9-8" x="1824.9266" y="-876.47839">
  </tspan>
 </text>
 <text font-size="12.666px" id="text4087-2-6-5-45" style="font-size:12.66600037px;font-family:'Bitstream Vera Sans';opacity:0.8;fill:#000000" x="-573.43256" xml:space="preserve" y="-651.33569">
  <tspan id="tspan4089-7-2-9-75" x="-573.43256" y="-651.33569">
  </tspan>
 </text>
 <text font-size="12.666px" id="text4087-2-6-5-59-7" style="font-size:12.66600037px;font-family:'Bitstream Vera Sans';opacity:0.8;fill:#000000" x="-2397.1182" xml:space="preserve" y="94.217857">
  <tspan id="tspan4089-7-2-9-4-0" x="-2397.1182" y="94.217857">
  </tspan>
 </text>
 <text font-size="12.666px" id="text4087-2-6-5-8" style="font-size:12.66600037px;font-family:'Bitstream Vera Sans';opacity:0.8;fill:#000000" x="-682.36279" xml:space="preserve" y="187.09">
  <tspan id="tspan4089-7-2-9-19" x="-682.36279" y="187.09">
  </tspan>
 </text>
 <text font-size="12.666px" id="text4087-2-6-5-7-5" style="font-size:12.66600037px;font-family:'Bitstream Vera Sans';opacity:0.8;fill:#000000" x="426.66153" xml:space="preserve" y="7.9078522">
  <tspan id="tspan4089-7-2-9-1-2" x="426.66153" y="7.9078522">
  </tspan>
 </text>
 <text font-size="12.666px" id="text4087-2-6-5-5-0" style="font-size:12.66600037px;font-family:'Bitstream Vera Sans';opacity:0.8;fill:#000000" x="450.62247" xml:space="preserve" y="-32.833855">
  <tspan id="tspan4089-7-2-9-6-2" x="450.62247" y="-32.833855">
  </tspan>
 </text>
 <text font-size="12.666px" id="text4087-2-6-5-26" style="font-size:12.66600037px;font-family:'Bitstream Vera Sans';opacity:0.8;fill:#000000" x="-1040.8407" xml:space="preserve" y="-40.043827">
  <tspan id="tspan4089-7-2-9-90" x="-1040.8407" y="-40.043827">
  </tspan>
 </text>
 <text font-size="12.666px" id="text4087-2-6-5-4-3" style="font-size:12.66600037px;font-family:'Bitstream Vera Sans';opacity:0.8;fill:#000000" x="419.70206" xml:space="preserve" y="-313.27789">
  <tspan id="tspan4089-7-2-9-9-5" x="419.70206" y="-313.27789">
  </tspan>
 </text>
 <text font-size="12.666px" id="text4087-2-6-5-55" style="font-size:12.66600037px;font-family:'Bitstream Vera Sans';opacity:0.8;fill:#000000" x="-608.03253" xml:space="preserve" y="-42.758072">
  <tspan id="tspan4089-7-2-9-32" x="-608.03253" y="-42.758072">
  </tspan>
 </text>
 <text font-size="12.666px" id="text4087-2-6-5-59-9" style="font-size:12.66600037px;font-family:'Bitstream Vera Sans';opacity:0.8;fill:#000000" x="-2431.7185" xml:space="preserve" y="702.79541">
  <tspan id="tspan4089-7-2-9-4-1" x="-2431.7185" y="702.79541">
  </tspan>
 </text>
 <text font-size="12.666px" id="text4087-2-6-5-1-8" style="font-size:12.66600037px;font-family:'Bitstream Vera Sans';opacity:0.8;fill:#000000" x="-456.93948" xml:space="preserve" y="-904.28857">
  <tspan id="tspan4089-7-2-9-7-8" x="-456.93948" y="-904.28857">
  </tspan>
 </text>
 <text font-size="12.666px" id="text4087-2-6-5-7-8" style="font-size:12.66600037px;font-family:'Bitstream Vera Sans';opacity:0.8;fill:#000000" x="350.66266" xml:space="preserve" y="-1317.7588">
  <tspan id="tspan4089-7-2-9-1-9" x="350.66266" y="-1317.7588">
  </tspan>
 </text>
 <text font-size="12.666px" id="text4087-2-6-5-5-52" style="font-size:12.66600037px;font-family:'Bitstream Vera Sans';opacity:0.8;fill:#000000" x="374.62357" xml:space="preserve" y="-1358.5005">
  <tspan id="tspan4089-7-2-9-6-4" x="374.62357" y="-1358.5005">
  </tspan>
 </text>
 <text font-size="12.666px" id="text4087-2-6-5-3-4" style="font-size:12.66600037px;font-family:'Bitstream Vera Sans';opacity:0.8;fill:#000000" x="-1116.8396" xml:space="preserve" y="-1365.7104">
  <tspan id="tspan4089-7-2-9-18-3" x="-1116.8396" y="-1365.7104">
  </tspan>
 </text>
 <text font-size="12.666px" id="text4087-2-6-5-4-7" style="font-size:12.66600037px;font-family:'Bitstream Vera Sans';opacity:0.8;fill:#000000" x="343.70316" xml:space="preserve" y="-1638.9446">
  <tspan id="tspan4089-7-2-9-9-54" x="343.70316" y="-1638.9446">
  </tspan>
 </text>
 <text font-size="12.666px" id="text4087-2-6-5-7-1-2" style="font-size:12.66600037px;font-family:'Bitstream Vera Sans';opacity:0.8;fill:#000000" x="1829.8265" xml:space="preserve" y="-1012.2533">
  <tspan id="tspan4089-7-2-9-1-8-0" x="1829.8265" y="-1012.2533">
  </tspan>
 </text>
 <text font-size="12.666px" id="text4087-2-6-5-5-5-6" style="font-size:12.66600037px;font-family:'Bitstream Vera Sans';opacity:0.8;fill:#000000" x="1853.7874" xml:space="preserve" y="-1052.9949">
  <tspan id="tspan4089-7-2-9-6-9-8" x="1853.7874" y="-1052.9949">
  </tspan>
 </text>
 <text font-size="12.666px" id="text4087-2-6-5-75-4" style="font-size:12.66600037px;font-family:'Bitstream Vera Sans';opacity:0.8;fill:#000000" x="362.32431" xml:space="preserve" y="-1060.2048">
  <tspan id="tspan4089-7-2-9-3-9" x="362.32431" y="-1060.2048">
  </tspan>
 </text>
 <text font-size="12.666px" id="text4087-2-6-5-4-8-1" style="font-size:12.66600037px;font-family:'Bitstream Vera Sans';opacity:0.8;fill:#000000" x="1822.8671" xml:space="preserve" y="-1333.439">
  <tspan id="tspan4089-7-2-9-9-8-8" x="1822.8671" y="-1333.439">
  </tspan>
 </text>
 <text font-size="12.666px" id="text4087-2-6-5-45-0" style="font-size:12.66600037px;font-family:'Bitstream Vera Sans';opacity:0.8;fill:#000000" x="-575.492" xml:space="preserve" y="-1108.2961">
  <tspan id="tspan4089-7-2-9-75-2" x="-575.492" y="-1108.2961">
  </tspan>
 </text>
 <text font-size="12.666px" id="text4087-2-6-5-59-5" style="font-size:12.66600037px;font-family:'Bitstream Vera Sans';opacity:0.8;fill:#000000" x="-2399.1777" xml:space="preserve" y="-362.74261">
  <tspan id="tspan4089-7-2-9-4-00" x="-2399.1777" y="-362.74261">
  </tspan>
 </text>
 <text font-size="12.666px" id="text4087-2-6-5-264" style="font-size:12.66600037px;font-family:'Bitstream Vera Sans';opacity:0.8;fill:#000000" x="-684.42224" xml:space="preserve" y="-269.87045">
  <tspan id="tspan4089-7-2-9-8" x="-684.42224" y="-269.87045">
  </tspan>
 </text>
 <text font-size="12.666px" id="text4087-2-6-5-42" style="font-size:12.66600037px;font-family:'Bitstream Vera Sans';opacity:0.8;fill:#000000" x="155.5923" xml:space="preserve" y="-28.956278">
  <tspan id="tspan4089-7-2-9-93" x="155.5923" y="-28.956278">
  </tspan>
 </text>
 <text font-size="12.666px" id="text4087-2-6-5-5-05" style="font-size:12.66600037px;font-family:'Bitstream Vera Sans';opacity:0.8;fill:#000000" x="179.55324" xml:space="preserve" y="-69.697998">
  <tspan id="tspan4089-7-2-9-6-49" x="179.55324" y="-69.697998">
  </tspan>
 </text>
 <text font-size="12.666px" id="text4087-2-6-5-1-4" style="font-size:12.66600037px;font-family:'Bitstream Vera Sans';opacity:0.8;fill:#000000" x="-1090.2634" xml:space="preserve" y="-263.72662">
  <tspan id="tspan4089-7-2-9-7-7" x="-1090.2634" y="-263.72662">
  </tspan>
 </text>
 <text font-size="12.666px" id="text4087-2-6-5-7-56" style="font-size:12.66600037px;font-family:'Bitstream Vera Sans';opacity:0.8;fill:#000000" x="-282.66141" xml:space="preserve" y="-677.19678">
  <tspan id="tspan4089-7-2-9-1-1" x="-282.66141" y="-677.19678">
  </tspan>
 </text>
 <text font-size="12.666px" id="text4087-2-6-5-5-8" style="font-size:12.66600037px;font-family:'Bitstream Vera Sans';opacity:0.8;fill:#000000" x="-258.70047" xml:space="preserve" y="-717.93848">
  <tspan id="tspan4089-7-2-9-6-7" x="-258.70047" y="-717.93848">
  </tspan>
 </text>
 <text font-size="12.666px" id="text4087-2-6-5-3-42" style="font-size:12.66600037px;font-family:'Bitstream Vera Sans';opacity:0.8;fill:#000000" x="-1750.1636" xml:space="preserve" y="-725.14838">
  <tspan id="tspan4089-7-2-9-18-39" x="-1750.1636" y="-725.14838">
  </tspan>
 </text>
 <text font-size="12.666px" id="text4087-2-6-5-4-4" style="font-size:12.66600037px;font-family:'Bitstream Vera Sans';opacity:0.8;fill:#000000" x="-289.62085" xml:space="preserve" y="-998.38251">
  <tspan id="tspan4089-7-2-9-9-3" x="-289.62085" y="-998.38251">
  </tspan>
 </text>
 <text font-size="12.666px" id="text4087-2-6-5-7-1-0" style="font-size:12.66600037px;font-family:'Bitstream Vera Sans';opacity:0.8;fill:#000000" x="1196.5026" xml:space="preserve" y="-371.69113">
  <tspan id="tspan4089-7-2-9-1-8-5" x="1196.5026" y="-371.69113">
  </tspan>
 </text>
 <text font-size="12.666px" id="text4087-2-6-5-5-5-5" style="font-size:12.66600037px;font-family:'Bitstream Vera Sans';opacity:0.8;fill:#000000" x="1220.4634" xml:space="preserve" y="-412.43286">
  <tspan id="tspan4089-7-2-9-6-9-2" x="1220.4634" y="-412.43286">
  </tspan>
 </text>
 <text font-size="12.666px" id="text4087-2-6-5-75-9" style="font-size:12.66600037px;font-family:'Bitstream Vera Sans';opacity:0.8;fill:#000000" x="-270.99973" xml:space="preserve" y="-419.64282">
  <tspan id="tspan4089-7-2-9-3-1" x="-270.99973" y="-419.64282">
  </tspan>
 </text>
 <text font-size="12.666px" id="text4087-2-6-5-4-8-18" style="font-size:12.66600037px;font-family:'Bitstream Vera Sans';opacity:0.8;fill:#000000" x="1189.5431" xml:space="preserve" y="-692.87689">
  <tspan id="tspan4089-7-2-9-9-8-4" x="1189.5431" y="-692.87689">
  </tspan>
 </text>
 <text font-size="12.666px" id="text4087-2-6-5-45-3" style="font-size:12.66600037px;font-family:'Bitstream Vera Sans';opacity:0.8;fill:#000000" x="-1208.816" xml:space="preserve" y="-467.7341">
  <tspan id="tspan4089-7-2-9-75-7" x="-1208.816" y="-467.7341">
  </tspan>
 </text>
 <text font-size="12.666px" id="text4087-2-6-5-59-8" style="font-size:12.66600037px;font-family:'Bitstream Vera Sans';opacity:0.8;fill:#000000" x="-3032.5017" xml:space="preserve" y="277.81946">
  <tspan id="tspan4089-7-2-9-4-2" x="-3032.5017" y="277.81946">
  </tspan>
 </text>
 <g id="layer4-0" transform="matrix(0.90475,0,0,0.90475,-716.75,-678.29)">
  <text font-size="14px" id="text4087-2-6-5-20" style="font-size:14px;font-family:'Bitstream Vera Sans';opacity:0.8;fill:#000000" x="-664.2738" xml:space="preserve" y="1159.4154">
   <tspan id="tspan4089-7-2-9-82" x="-664.2738" y="1159.4154">
   </tspan>
  </text>
 </g>
 <text font-size="12.666px" id="text4087-2-6-5-9" style="font-size:12.66600037px;font-family:'Bitstream Vera Sans';opacity:0.8;fill:#000000" x="877.22626" xml:space="preserve" y="16.050589">
  <tspan id="tspan4089-7-2-9-43" x="877.22626" y="16.050589">
  </tspan>
 </text>
 <text font-size="12.666px" id="text4087-2-6-5-5-51" style="font-size:12.66600037px;font-family:'Bitstream Vera Sans';opacity:0.8;fill:#000000" x="901.18719" xml:space="preserve" y="-24.691116">
  <tspan id="tspan4089-7-2-9-6-74" x="901.18719" y="-24.691116">
  </tspan>
 </text>
 <text font-size="12.666px" id="text4087-2-6-5-2-3" style="font-size:12.66600037px;font-family:'Bitstream Vera Sans';opacity:0.8;fill:#000000" x="-569.37115" xml:space="preserve" y="-54.76926">
  <tspan id="tspan4089-7-2-9-2-1" x="-569.37115" y="-54.76926">
  </tspan>
 </text>
 <text font-size="12.666px" id="text4087-2-6-5-59-4" style="font-size:12.66600037px;font-family:'Bitstream Vera Sans';opacity:0.8;fill:#000000" x="-2393.0571" xml:space="preserve" y="690.78418">
  <tspan id="tspan4089-7-2-9-4-6" x="-2393.0571" y="690.78418">
  </tspan>
 </text>
 <text font-size="12.666px" id="text4087-2-6-5-1-9" style="font-size:12.66600037px;font-family:'Bitstream Vera Sans';opacity:0.8;fill:#000000" x="-454.88007" xml:space="preserve" y="-440.09021">
  <tspan id="tspan4089-7-2-9-7-4" x="-454.88007" y="-440.09021">
  </tspan>
 </text>
 <text font-size="12.666px" id="text4087-2-6-5-7-2" style="font-size:12.66600037px;font-family:'Bitstream Vera Sans';opacity:0.8;fill:#000000" x="352.72208" xml:space="preserve" y="-853.5603">
  <tspan id="tspan4089-7-2-9-1-26" x="352.72208" y="-853.5603">
  </tspan>
 </text>
 <text font-size="12.666px" id="text4087-2-6-5-5-3-4" style="font-size:12.66600037px;font-family:'Bitstream Vera Sans';opacity:0.8;fill:#000000" x="376.68301" xml:space="preserve" y="-894.30206">
  <tspan id="tspan4089-7-2-9-6-5-1" x="376.68301" y="-894.30206">
  </tspan>
 </text>
 <text font-size="12.666px" id="text4087-2-6-5-3-2" style="font-size:12.66600037px;font-family:'Bitstream Vera Sans';opacity:0.8;fill:#000000" x="-1114.7802" xml:space="preserve" y="-901.51196">
  <tspan id="tspan4089-7-2-9-18-8" x="-1114.7802" y="-901.51196">
  </tspan>
 </text>
 <text font-size="12.666px" id="text4087-2-6-5-4-89" style="font-size:12.66600037px;font-family:'Bitstream Vera Sans';opacity:0.8;fill:#000000" x="345.7626" xml:space="preserve" y="-1174.7461">
  <tspan id="tspan4089-7-2-9-9-2" x="345.7626" y="-1174.7461">
  </tspan>
 </text>
 <text font-size="12.666px" id="text4087-2-6-5-7-1-8" style="font-size:12.66600037px;font-family:'Bitstream Vera Sans';opacity:0.8;fill:#000000" x="1831.8861" xml:space="preserve" y="-548.05475">
  <tspan id="tspan4089-7-2-9-1-8-8" x="1831.8861" y="-548.05475">
  </tspan>
 </text>
 <text font-size="12.666px" id="text4087-2-6-5-5-5-8" style="font-size:12.66600037px;font-family:'Bitstream Vera Sans';opacity:0.8;fill:#000000" x="1855.8469" xml:space="preserve" y="-588.79651">
  <tspan id="tspan4089-7-2-9-6-9-6" x="1855.8469" y="-588.79651">
  </tspan>
 </text>
 <text font-size="12.666px" id="text4087-2-6-5-75-8" style="font-size:12.66600037px;font-family:'Bitstream Vera Sans';opacity:0.8;fill:#000000" x="364.38376" xml:space="preserve" y="-596.00641">
  <tspan id="tspan4089-7-2-9-3-3" x="364.38376" y="-596.00641">
  </tspan>
 </text>
 <text font-size="12.666px" id="text4087-2-6-5-4-8-8" style="font-size:12.66600037px;font-family:'Bitstream Vera Sans';opacity:0.8;fill:#000000" x="1824.9266" xml:space="preserve" y="-869.24036">
  <tspan id="tspan4089-7-2-9-9-8-3" x="1824.9266" y="-869.24036">
  </tspan>
 </text>
 <text font-size="12.666px" id="text4087-2-6-5-45-33" style="font-size:12.66600037px;font-family:'Bitstream Vera Sans';opacity:0.8;fill:#000000" x="-573.43256" xml:space="preserve" y="-644.09772">
  <tspan id="tspan4089-7-2-9-75-8" x="-573.43256" y="-644.09772">
  </tspan>
 </text>
 <text font-size="12.666px" id="text4087-2-6-5-59-7-0" style="font-size:12.66600037px;font-family:'Bitstream Vera Sans';opacity:0.8;fill:#000000" x="-2397.1182" xml:space="preserve" y="101.45585">
  <tspan id="tspan4089-7-2-9-4-0-4" x="-2397.1182" y="101.45585">
  </tspan>
 </text>
 <text font-size="12.666px" id="text4087-2-6-5-8-7" style="font-size:12.66600037px;font-family:'Bitstream Vera Sans';opacity:0.8;fill:#000000" x="-682.36279" xml:space="preserve" y="194.32799">
  <tspan id="tspan4089-7-2-9-19-6" x="-682.36279" y="194.32799">
  </tspan>
 </text>
 <text font-size="12.666px" id="text4087-2-6-5-7-5-8" style="font-size:12.66600037px;font-family:'Bitstream Vera Sans';opacity:0.8;fill:#000000" x="426.66153" xml:space="preserve" y="15.14584">
  <tspan id="tspan4089-7-2-9-1-2-9" x="426.66153" y="15.14584">
  </tspan>
 </text>
 <text font-size="12.666px" id="text4087-2-6-5-5-0-0" style="font-size:12.66600037px;font-family:'Bitstream Vera Sans';opacity:0.8;fill:#000000" x="450.62247" xml:space="preserve" y="-25.595865">
  <tspan id="tspan4089-7-2-9-6-2-6" x="450.62247" y="-25.595865">
  </tspan>
 </text>
 <text font-size="12.666px" id="text4087-2-6-5-26-8" style="font-size:12.66600037px;font-family:'Bitstream Vera Sans';opacity:0.8;fill:#000000" x="-1040.8407" xml:space="preserve" y="-32.805836">
  <tspan id="tspan4089-7-2-9-90-7" x="-1040.8407" y="-32.805836">
  </tspan>
 </text>
 <text font-size="12.666px" id="text4087-2-6-5-4-3-9" style="font-size:12.66600037px;font-family:'Bitstream Vera Sans';opacity:0.8;fill:#000000" x="419.70206" xml:space="preserve" y="-306.03989">
  <tspan id="tspan4089-7-2-9-9-5-0" x="419.70206" y="-306.03989">
  </tspan>
 </text>
 <text font-size="12.666px" id="text4087-2-6-5-55-3" style="font-size:12.66600037px;font-family:'Bitstream Vera Sans';opacity:0.8;fill:#000000" x="-608.03253" xml:space="preserve" y="-35.520081">
  <tspan id="tspan4089-7-2-9-32-3" x="-608.03253" y="-35.520081">
  </tspan>
 </text>
 <text font-size="12.666px" id="text4087-2-6-5-59-9-3" style="font-size:12.66600037px;font-family:'Bitstream Vera Sans';opacity:0.8;fill:#000000" x="-2431.7185" xml:space="preserve" y="710.03345">
  <tspan id="tspan4089-7-2-9-4-1-7" x="-2431.7185" y="710.03345">
  </tspan>
 </text>
 <text font-size="12.666px" id="text4087-2-6-5-1-8-3" style="font-size:12.66600037px;font-family:'Bitstream Vera Sans';opacity:0.8;fill:#000000" x="-456.93948" xml:space="preserve" y="-897.0506">
  <tspan id="tspan4089-7-2-9-7-8-2" x="-456.93948" y="-897.0506">
  </tspan>
 </text>
 <text font-size="12.666px" id="text4087-2-6-5-7-8-6" style="font-size:12.66600037px;font-family:'Bitstream Vera Sans';opacity:0.8;fill:#000000" x="350.66266" xml:space="preserve" y="-1310.5208">
  <tspan id="tspan4089-7-2-9-1-9-5" x="350.66266" y="-1310.5208">
  </tspan>
 </text>
 <text font-size="12.666px" id="text4087-2-6-5-5-52-2" style="font-size:12.66600037px;font-family:'Bitstream Vera Sans';opacity:0.8;fill:#000000" x="374.62357" xml:space="preserve" y="-1351.2626">
  <tspan id="tspan4089-7-2-9-6-4-6" x="374.62357" y="-1351.2626">
  </tspan>
 </text>
 <text font-size="12.666px" id="text4087-2-6-5-3-4-5" style="font-size:12.66600037px;font-family:'Bitstream Vera Sans';opacity:0.8;fill:#000000" x="-1116.8396" xml:space="preserve" y="-1358.4724">
  <tspan id="tspan4089-7-2-9-18-3-8" x="-1116.8396" y="-1358.4724">
  </tspan>
 </text>
 <text font-size="12.666px" id="text4087-2-6-5-4-7-7" style="font-size:12.66600037px;font-family:'Bitstream Vera Sans';opacity:0.8;fill:#000000" x="343.70316" xml:space="preserve" y="-1631.7065">
  <tspan id="tspan4089-7-2-9-9-54-9" x="343.70316" y="-1631.7065">
  </tspan>
 </text>
 <text font-size="12.666px" id="text4087-2-6-5-7-1-2-6" style="font-size:12.66600037px;font-family:'Bitstream Vera Sans';opacity:0.8;fill:#000000" x="1829.8265" xml:space="preserve" y="-1005.0153">
  <tspan id="tspan4089-7-2-9-1-8-0-0" x="1829.8265" y="-1005.0153">
  </tspan>
 </text>
 <text font-size="12.666px" id="text4087-2-6-5-5-5-6-4" style="font-size:12.66600037px;font-family:'Bitstream Vera Sans';opacity:0.8;fill:#000000" x="1853.7874" xml:space="preserve" y="-1045.757">
  <tspan id="tspan4089-7-2-9-6-9-8-1" x="1853.7874" y="-1045.757">
  </tspan>
 </text>
 <text font-size="12.666px" id="text4087-2-6-5-75-4-0" style="font-size:12.66600037px;font-family:'Bitstream Vera Sans';opacity:0.8;fill:#000000" x="362.32431" xml:space="preserve" y="-1052.9668">
  <tspan id="tspan4089-7-2-9-3-9-4" x="362.32431" y="-1052.9668">
  </tspan>
 </text>
 <text font-size="12.666px" id="text4087-2-6-5-4-8-1-8" style="font-size:12.66600037px;font-family:'Bitstream Vera Sans';opacity:0.8;fill:#000000" x="1822.8671" xml:space="preserve" y="-1326.2009">
  <tspan id="tspan4089-7-2-9-9-8-8-7" x="1822.8671" y="-1326.2009">
  </tspan>
 </text>
 <text font-size="12.666px" id="text4087-2-6-5-45-0-0" style="font-size:12.66600037px;font-family:'Bitstream Vera Sans';opacity:0.8;fill:#000000" x="-575.492" xml:space="preserve" y="-1101.0581">
  <tspan id="tspan4089-7-2-9-75-2-8" x="-575.492" y="-1101.0581">
  </tspan>
 </text>
 <text font-size="12.666px" id="text4087-2-6-5-59-5-6" style="font-size:12.66600037px;font-family:'Bitstream Vera Sans';opacity:0.8;fill:#000000" x="-2399.1777" xml:space="preserve" y="-355.50461">
  <tspan id="tspan4089-7-2-9-4-00-2" x="-2399.1777" y="-355.50461">
  </tspan>
 </text>
 <text font-size="12.666px" id="text4087-2-6-5-264-4" style="font-size:12.66600037px;font-family:'Bitstream Vera Sans';opacity:0.8;fill:#000000" x="-684.42224" xml:space="preserve" y="-262.63245">
  <tspan id="tspan4089-7-2-9-8-7" x="-684.42224" y="-262.63245">
  </tspan>
 </text>
 <text font-size="12.666px" id="text4087-2-6-5-42-9" style="font-size:12.66600037px;font-family:'Bitstream Vera Sans';opacity:0.8;fill:#000000" x="155.5923" xml:space="preserve" y="-21.71829">
  <tspan id="tspan4089-7-2-9-93-3" x="155.5923" y="-21.71829">
  </tspan>
 </text>
 <text font-size="12.666px" id="text4087-2-6-5-5-05-9" style="font-size:12.66600037px;font-family:'Bitstream Vera Sans';opacity:0.8;fill:#000000" x="179.55324" xml:space="preserve" y="-62.460011">
  <tspan id="tspan4089-7-2-9-6-49-2" x="179.55324" y="-62.460011">
  </tspan>
 </text>
 <text font-size="12.666px" id="text4087-2-6-5-1-4-8" style="font-size:12.66600037px;font-family:'Bitstream Vera Sans';opacity:0.8;fill:#000000" x="-1090.2634" xml:space="preserve" y="-256.48859">
  <tspan id="tspan4089-7-2-9-7-7-3" x="-1090.2634" y="-256.48859">
  </tspan>
 </text>
 <text font-size="12.666px" id="text4087-2-6-5-7-56-0" style="font-size:12.66600037px;font-family:'Bitstream Vera Sans';opacity:0.8;fill:#000000" x="-282.66141" xml:space="preserve" y="-669.9588">
  <tspan id="tspan4089-7-2-9-1-1-1" x="-282.66141" y="-669.9588">
  </tspan>
 </text>
 <text font-size="12.666px" id="text4087-2-6-5-5-8-7" style="font-size:12.66600037px;font-family:'Bitstream Vera Sans';opacity:0.8;fill:#000000" x="-258.70047" xml:space="preserve" y="-710.7005">
  <tspan id="tspan4089-7-2-9-6-7-8" x="-258.70047" y="-710.7005">
  </tspan>
 </text>
 <text font-size="12.666px" id="text4087-2-6-5-3-42-9" style="font-size:12.66600037px;font-family:'Bitstream Vera Sans';opacity:0.8;fill:#000000" x="-1750.1636" xml:space="preserve" y="-717.91046">
  <tspan id="tspan4089-7-2-9-18-39-1" x="-1750.1636" y="-717.91046">
  </tspan>
 </text>
 <text font-size="12.666px" id="text4087-2-6-5-4-4-5" style="font-size:12.66600037px;font-family:'Bitstream Vera Sans';opacity:0.8;fill:#000000" x="-289.62085" xml:space="preserve" y="-991.14447">
  <tspan id="tspan4089-7-2-9-9-3-4" x="-289.62085" y="-991.14447">
  </tspan>
 </text>
 <text font-size="12.666px" id="text4087-2-6-5-7-1-0-9" style="font-size:12.66600037px;font-family:'Bitstream Vera Sans';opacity:0.8;fill:#000000" x="1196.5026" xml:space="preserve" y="-364.45316">
  <tspan id="tspan4089-7-2-9-1-8-5-2" x="1196.5026" y="-364.45316">
  </tspan>
 </text>
 <text font-size="12.666px" id="text4087-2-6-5-5-5-5-5" style="font-size:12.66600037px;font-family:'Bitstream Vera Sans';opacity:0.8;fill:#000000" x="1220.4634" xml:space="preserve" y="-405.19489">
  <tspan id="tspan4089-7-2-9-6-9-2-7" x="1220.4634" y="-405.19489">
  </tspan>
 </text>
 <text font-size="12.666px" id="text4087-2-6-5-75-9-4" style="font-size:12.66600037px;font-family:'Bitstream Vera Sans';opacity:0.8;fill:#000000" x="-270.99973" xml:space="preserve" y="-412.40482">
  <tspan id="tspan4089-7-2-9-3-1-9" x="-270.99973" y="-412.40482">
  </tspan>
 </text>
 <text font-size="12.666px" id="text4087-2-6-5-4-8-18-9" style="font-size:12.66600037px;font-family:'Bitstream Vera Sans';opacity:0.8;fill:#000000" x="1189.5431" xml:space="preserve" y="-685.63892">
  <tspan id="tspan4089-7-2-9-9-8-4-4" x="1189.5431" y="-685.63892">
  </tspan>
 </text>
 <text font-size="12.666px" id="text4087-2-6-5-45-3-5" style="font-size:12.66600037px;font-family:'Bitstream Vera Sans';opacity:0.8;fill:#000000" x="-1208.816" xml:space="preserve" y="-460.49609">
  <tspan id="tspan4089-7-2-9-75-7-9" x="-1208.816" y="-460.49609">
  </tspan>
 </text>
 <text font-size="12.666px" id="text4087-2-6-5-59-8-3" style="font-size:12.66600037px;font-family:'Bitstream Vera Sans';opacity:0.8;fill:#000000" x="-3032.5017" xml:space="preserve" y="285.05743">
  <tspan id="tspan4089-7-2-9-4-2-5" x="-3032.5017" y="285.05743">
  </tspan>
 </text>
 <g id="layer4-0-7" transform="matrix(0.90475,0,0,0.90475,-716.75,-671.05)">
  <text font-size="14px" id="text4087-2-6-5-20-0" style="font-size:14px;font-family:'Bitstream Vera Sans';opacity:0.8;fill:#000000" x="-664.2738" xml:space="preserve" y="1159.4154">
   <tspan id="tspan4089-7-2-9-82-8" x="-664.2738" y="1159.4154">
   </tspan>
  </text>
 </g>
 <text font-size="12.666px" id="text7276" style="font-size:12.66600037px;font-family:'Droid Sans';fill:#000000" x="435.90427" xml:space="preserve" y="-363.22546">
  <tspan id="tspan7278" x="435.90427" y="-363.22546">
  </tspan>
  <tspan id="tspan7280" x="435.90427" y="-347.3924">
  </tspan>
 </text>
 <text font-size="12.666px" id="text4087-2-6-5-51" style="font-size:12.66600037px;font-family:'Bitstream Vera Sans';opacity:0.8;fill:#000000" x="901.0882" xml:space="preserve" y="-845.27002">
  <tspan id="tspan4089-7-2-9-97" x="901.0882" y="-845.27002">
  </tspan>
 </text>
 <text font-size="12.666px" id="text4087-2-6-5-59-2" style="font-size:12.66600037px;font-family:'Bitstream Vera Sans';opacity:0.8;fill:#000000" x="-922.59778" xml:space="preserve" y="-99.716553">
  <tspan id="tspan4089-7-2-9-4-4" x="-922.59778" y="-99.716553">
  </tspan>
 </text>
 <text font-size="12.666px" id="text4087-2-6-5-7-7" style="font-size:12.66600037px;font-family:'Bitstream Vera Sans';opacity:0.8;fill:#000000" x="1628.1677" xml:space="preserve" y="-1130.2659">
  <tspan id="tspan4089-7-2-9-1-6" x="1628.1677" y="-1130.2659">
  </tspan>
 </text>
 <text font-size="12.666px" id="text4087-2-6-5-5-6" style="font-size:12.66600037px;font-family:'Bitstream Vera Sans';opacity:0.8;fill:#000000" x="1652.1285" xml:space="preserve" y="-1171.0076">
  <tspan id="tspan4089-7-2-9-6-53" x="1652.1285" y="-1171.0076">
  </tspan>
 </text>
 <text font-size="12.666px" id="text4087-2-6-5-54" style="font-size:12.66600037px;font-family:'Bitstream Vera Sans';opacity:0.8;fill:#000000" x="160.66542" xml:space="preserve" y="-1178.2175">
  <tspan id="tspan4089-7-2-9-0" x="160.66542" y="-1178.2175">
  </tspan>
 </text>
 <text font-size="12.666px" id="text4087-2-6-5-4-1" style="font-size:12.66600037px;font-family:'Bitstream Vera Sans';opacity:0.8;fill:#000000" x="1621.2083" xml:space="preserve" y="-1451.4517">
  <tspan id="tspan4089-7-2-9-9-28" x="1621.2083" y="-1451.4517">
  </tspan>
 </text>
 <g id="g4352" transform="translate(-1,-1)">
  <path d="M 20,21 20,3 C 20,2.446 19.554,2 19,2 L 5,2 C 4.446,2 4,2.446 4,3 l 0,18 c 0,0.554 0.446,1 1,1 l 14,0 c 0.554,0 1,-0.446 1,-1 z" id="rect4203" inkscape:connector-curvature="0" style="fill:#c49a6c">
  </path>
  <path d="m 6.1115,3 0,0.5 1.49985,0 0,-0.5 -1.5,0 z m 2,0 0,0.5 1.5,0 0,-0.5 -1.5,0 z m 2,0 0,0.5 1.3885,0 0,-0.5 -1.3885,0 z M 12,3 l 0,0.5 1.25,0 0,-0.5 L 12,3 Z m 1.75,0 0,0.5 1.5,0 0,-0.5 -1.5,0 z m 2,0 0,0.5 1.5,0 0,-0.5 -1.5,0 z m 2,0 0,0.5 0.484375,0 0.16699,0.015625 0.1416,0.044922 0.126955,0.069335 0.11035,0.089845 0.09082,0.11035 0.01563,0.019531 0.09961,-0.08203 0.32422,-0.17578 L 19.29981,3.57129 19.28809,3.549805 19.27246,3.531251 19.15039,3.382811 19.13574,3.364256 19.11719,3.349608 18.96875,3.227538 18.9502,3.211913 18.92872,3.200194 18.7588,3.108399 18.73732,3.09668 18.71388,3.08984 l -0.189,-0.0586 -0.0235,-0.00685 -0.0255,-0.0029 -0.201,-0.0205 -0.013,-10e-4 -0.5125,0 z M 5.587,3.0146485 5.523525,3.0214845 5.498135,3.0244145 5.4747,3.0312505 5.286225,3.0898455 5.26279,3.0966815 5.241305,3.1084 5.071385,3.200195 5.0499,3.2119135 l -0.018555,0.015625 -0.1482,0.122 -0.01855,0.01465 -0.01465,0.01855 -0.09665,0.1172 0.88255,0 -0.0485,-0.48535 z m 13.905,1.1416 -0.498,0.0498 0.006,0.05955 0,1.41505 0.5,0 0,-1.4432 -0.001,-0.0127 -0.007,-0.06835 z m -0.492,2.02425 0,1.5 0.5,0 0,-1.5 -0.5,0 z m 0,2 0,1.5 0.5,0 0,-1.5 -0.5,0 z m 0,1.9999995 0,1.5 0.5,0 0,-1.5 -0.5,0 z m 0,2 0,1.5 0.5,0 0,-1.5 -0.5,0 z m 0,2 0,1.5 0.5,0 0,-1.5 -0.5,0 z m 0,2 0,1.5 0.5,0 0,-1.5 -0.5,0 z m 0,2 0,1.5 0.5,0 0,-1.5 -0.5,0 z m 0,2 0,0.05371 -0.01563,0.16699 -0.04492,0.1416 -0.06933,0.126955 -0.08985,0.11035 -0.11035,0.08985 -0.126955,0.06933 -0.140625,0.04395 -0.03907,0.0039 0.0498,0.498045 0.06348,-0.0068 0.02539,-0.003 0.02343,-0.0068 0.188475,-0.0586 0.02343,-0.0068 0.02149,-0.01172 0.16992,-0.0918 0.02149,-0.01172 0.01855,-0.01563 0.14844,-0.12207 0.01855,-0.01465 0.01465,-0.01855 0.12207,-0.148441 0.01563,-0.01855 0.01172,-0.02149 0.09179,-0.16992 0.01172,-0.02149 0.0068,-0.02343 0.05859,-0.188475 0.0068,-0.02343 0.0029,-0.02539 0.02051,-0.20117 10e-4,-0.013 0,-0.08184 -0.5,0 z m -14.247,0.8195 0.09668,0.11719 0.014648,0.01856 0.018554,0.01465 0.14844,0.12207 0.018555,0.01563 0.021485,0.01172 0.16992,0.0918 0.021485,0.01172 0.023435,0.0068 0.188475,0.0586 0.023435,0.0068 0.02539,0.003 0.20117,0.02051 0.012695,0.001 0.5127,0 0,-0.5 -1.4971,0 z m 1.99705,0 0,0.5 1.5,0 0,-0.5 -1.5,0 z m 2,0 0,0.5 1.5,0 0,-0.5 -1.5,0 z m 2,0 0,0.5 1.25,0 0,-0.5 -1.25,0 z m 1.75,0 0,0.5 1.38865,0 0,-0.5 -1.3885,0 z m 1.88865,0 0,0.5 1.5,0 0,-0.5 -1.5,0 z m 2,0 0,0.5 1.5,0 0,-0.5 -1.5,0 z" id="rect4434" inkscape:connector-curvature="0" style="color:#000000;text-indent:0;text-decoration:none;text-decoration-line:none;text-decoration-style:solid;text-decoration-color:#000000;text-transform:none;block-progression:tb;white-space:normal;isolation:auto;mix-blend-mode:normal;solid-color:#000000;fill:#ffffff;color-rendering:auto;image-rendering:auto;shape-rendering:auto">
  </path>
  <path d="M 5,2 C 4.446,2 4,2.446 4,3 l 0,0.5 c 0,-0.554 0.446,-1 1,-1 l 14,0 c 0.554,0 1,0.446 1,1 L 20,3 C 20,2.446 19.554,2 19,2 Z" id="rect4199" inkscape:connector-curvature="0" style="opacity:0.2;fill:#ffffff">
  </path>
  <path d="m 16,9 4,0 0,6 -4,0 c -0.554,0 -1,-0.446 -1,-1 l 0,-4 c 0,-0.554 0.446,-1 1,-1 z" id="rect4426" inkscape:connector-curvature="0" style="fill:#9b6e3e">
  </path>
  <g id="g4460" transform="matrix(0.5,0,0,0.5,1,0.5)">
   <path d="m 36,23 a 2,2 0 0 1 -2,2 2,2 0 0 1 -2,-2 2,2 0 0 1 2,-2 2,2 0 0 1 2,2 z" id="path4429" inkscape:connector-curvature="0" style="fill:#c8c8c8">
   </path>
   <path d="M 35.5,22.25 A 1.5,1.25 0 0 1 34,23.5 1.5,1.25 0 0 1 32.5,22.25 1.5,1.25 0 0 1 34,21 a 1.5,1.25 0 0 1 1.5,1.25 z" id="path4432" inkscape:connector-curvature="0" style="fill:#ffffff">
   </path>
  </g>
  <path d="m 16.29984,9.375 0,0.125 -0.0127,-0.124025 -0.04687,0.0049 0.02636,0.248045 0.03321,-0.0039 0.499995,0 0,-0.25 -0.5,0 z m 0.75,0 0,0.25 0.5,0 0,-0.25 -0.5,0 z m 0.75,0 0,0.25 0.5,0 0,-0.25 -0.5,0 z m 0.75,0 0,0.25 0.5,0 0,-0.25 -0.5,0 z m 0.75,0 0,0.25 0.325195,0 0,-0.25 -0.325195,0 z m -3.32715,0.064455 -0.02246,0.00683 -0.01269,0.0039 -0.01074,0.00586 -0.13574,0.07715 -0.01074,0.00586 -0.0098,0.00782 -0.118165,0.10156 -0.0088,0.00782 -0.0078,0.00976 -0.09766,0.123045 -0.0068,0.00977 -0.0059,0.01074 -0.003,0.00586 0.14258,0.07422 0.06933,0.05469 0.0918,-0.115235 0.09668,-0.083985 0.115235,-0.064455 0.01074,-0.0039 -0.001,-0.00195 0.002,-0.001 -0.0049,-0.00781 -0.07227,-0.22656 z m -0.5576,0.62695 -0.01856,0.06348 -0.0039,0.01074 -0.001,0.01269 -0.01563,0.16797 -10e-4,0.0059 0,0.271485 0.25,0 0,-0.265645 0.01465,-0.14551 0.01465,-0.0498 -0.23926,-0.07129 z m -0.04004,0.78225 0,0.5 0.25,0 0,-0.5 -0.25,0 z m 0,0.75 0,0.5 0.25,0 0,-0.5 -0.25,0 z m 0,0.75 0,0.5 0.25,0 0,-0.5 -0.25,0 z m 0,0.75 0,0.5 0.25,0 0,-0.5 -0.25,0 z m 0.26465,0.7129 -0.23926,0.07129 0.04199,0.14453 0.0039,0.01172 0.0059,0.0098 0.07324,0.1416 0.0059,0.01074 0.0068,0.0098 0.09766,0.123045 0.0078,0.0098 0.0088,0.0078 0.02442,0.02051 0.163085,-0.189455 -0.01367,-0.01172 -0.08398,-0.10547 -0.06348,-0.12207 -0.03907,-0.131835 z m 0.38379,0.5 -0.12207,0.217775 0.02539,0.01465 0.01074,0.0059 0.0127,0.0039 0.149415,0.04883 0.01269,0.0039 0.0127,10e-4 0.16211,0.0166 0.0068,10e-4 0.15625,0 0,-0.25 -0.150385,0 -0.137695,-0.01563 -0.125975,-0.04101 -0.01269,-0.0068 z m 0.67675,0.06348 0,0.25 0.5,0 0,-0.25 -0.5,0 z m 0.75,0 0,0.25 0.5,0 0,-0.25 -0.5,0 z m 0.75,0 0,0.25 0.5,0 0,-0.25 -0.5,0 z m 0.75,0 0,0.25 0.5,0 0,-0.25 -0.5,0 z" id="path4452" inkscape:connector-curvature="0" style="color:#000000;text-indent:0;text-decoration:none;text-decoration-line:none;text-decoration-style:solid;text-decoration-color:#000000;text-transform:none;block-progression:tb;white-space:normal;isolation:auto;mix-blend-mode:normal;solid-color:#000000;fill:#ffffff;color-rendering:auto;image-rendering:auto;shape-rendering:auto">
  </path>
  <path class="ColorScheme-Text" d="m 9.08023,12.999945 -1.2297,0.11185 0,4.79265 1.2166,-0.17399 0,-2.04335 1.637,2.26705 1.2823,-0.3853 -1.6764,-2.18005 1.68955,-2.05575 -1.30855,-0.28339 -1.62385,2.0558 0.013115,-2.1055 z m -2.7879,1.16835 c -0.01387,0.0026 -0.02898,0.0049 -0.039415,0.01505 l -0.483485,0.45738 c -0.0203,0.0194 -0.022785,0.04875 -0.00786,0.07209 l 0.56495,0.88245 C 6.22621,15.75479 6.14475,15.92591 6.0874,16.107315 L 5.0495,16.31115 C 5.021,16.31665 5,16.34265 5,16.37065 l 0,0.6463 c 0,0.02736 0.02197,0.05076 0.049925,0.05718 l 1.0064,0.23117 c 0.05381,0.21005 0.136945,0.41104 0.24699,0.5941 l -0.5833,0.8402 c -0.016285,0.02336 -0.013105,0.05477 0.00786,0.07457 l 0.483485,0.457385 c 0.02038,0.01918 0.05161,0.02158 0.0762,0.0073 l 0.9144,-0.5245 c 0.179345,0.09795 0.37352,0.176425 0.57805,0.228695 L 7.99285,19.9525 C 7.99885,19.98 8.02335,20 8.05335,20 l 0.6832,0 c 0.02865,0 0.053625,-0.01815 0.06043,-0.04474 l 0.25225,-0.97445 c 0.211,-0.054 0.41,-0.134 0.594,-0.2365 l 0.9013,0.5593 c 0.02483,0.01519 0.05776,0.01225 0.07883,-0.0074 l 0.48085,-0.45738 c 0.02043,-0.01939 0.02548,-0.0488 0.01055,-0.07209 L 10.78631,18.25469 10.678575,18.287 c -0.01556,0.0046 -0.0328,-0.0027 -0.04204,-0.01503 0,0 -0.20748,-0.288745 -0.478225,-0.6637 -0.32381,0.5994 -0.98415,1.00925 -1.74475,1.00925 -1.08075,0 -1.95755,-0.8295 -1.95755,-1.85195 0,-0.7521 0.47539,-1.39805 1.15615,-1.6879 l 0,-0.477255 c -0.1239,0.04103 -0.243595,0.09051 -0.35736,0.14914 -1.42e-4,-1.04e-4 2.295e-4,-0.0026 0,-0.0026 l -0.9223,-0.57175 c -0.01236,-0.0076 -0.02552,-0.0088 -0.03942,-0.0073 z" id="path2876-1" inkscape:connector-curvature="0" style="color:#31363b;opacity:0.2">
  </path>
  <path d="M 4,20.5 4,21 c 0,0.554 0.446,1 1,1 l 14,0 c 0.554,0 1,-0.446 1,-1 l 0,-0.5 c 0,0.554 -0.446,1 -1,1 l -14,0 c -0.554,0 -1,-0.446 -1,-1 z" id="rect4279" inkscape:connector-curvature="0" style="opacity:0.3">
  </path>
 </g>
</svg>
