<?xml version="1.0" encoding="UTF-8" standalone="no"?>
<svg id="svg2" inkscape:version="0.91 r13725" sodipodi:docname="emblem-error.svg" version="1.1" viewbox="0 0 8 8 " xmlns="http://www.w3.org/2000/svg" xmlns:cc="http://creativecommons.org/ns#" xmlns:dc="http://purl.org/dc/elements/1.1/" xmlns:inkscape="http://www.inkscape.org/namespaces/inkscape" xmlns:rdf="http://www.w3.org/1999/02/22-rdf-syntax-ns#" xmlns:sodipodi="http://sodipodi.sourceforge.net/DTD/sodipodi-0.dtd" xmlns:svg="http://www.w3.org/2000/svg">
 <metadata id="metadata12">
  <rdf:rdf>
   <cc:work rdf:about="">
    <dc:format>
     image/svg+xml
    </dc:format>
    <dc:type rdf:resource="http://purl.org/dc/dcmitype/StillImage">
    </dc:type>
   </cc:work>
  </rdf:rdf>
 </metadata>
 <defs id="defs10">
  <style id="current-color-scheme" type="text/css">
   .ColorScheme-Text { color:#555555; }
  </style>
 </defs>
 <sodipodi:namedview bordercolor="#666666" borderopacity="1" gridtolerance="10" guidetolerance="10" id="namedview8" inkscape:current-layer="svg2" inkscape:cx="-6.779661" inkscape:cy="4" inkscape:pageopacity="0" inkscape:pageshadow="2" inkscape:window-height="849" inkscape:window-maximized="1" inkscape:window-width="1600" inkscape:window-x="0" inkscape:window-y="0" inkscape:zoom="29.5" objecttolerance="10" pagecolor="#ffffff" showgrid="false">
 </sodipodi:namedview>
 <g id="g4142">
  <path class="ColorScheme-Text" d="M 1 0 C 0.4459807 0 0 0.446 0 1 L 0 7 C 0 7.5541 0.4459807 8 1 8 L 7 8 C 7.554019 8 8 7.5541 8 7 L 8 1 C 8 0.446 7.554019 0 7 0 L 1 0 z M 2 1 L 4 3 L 6 1 L 7 2 L 5 4 L 7 6 L 6 7 L 4 5 L 2 7 L 1 6 L 3 4 L 1 2 L 2 1 z " id="rect4153" style="fill:currentColor">
  </path>
 </g>
</svg>
