<?xml version="1.0" encoding="UTF-8" standalone="no"?>
<!-- Created with Inkscape (http://www.inkscape.org/) -->
<svg height="22" id="svg4355" version="1.1" width="22" xmlns="http://www.w3.org/2000/svg" xmlns:cc="http://creativecommons.org/ns#" xmlns:dc="http://purl.org/dc/elements/1.1/" xmlns:rdf="http://www.w3.org/1999/02/22-rdf-syntax-ns#">
 <defs id="defs4357">
  <style id="current-color-scheme" type="text/css">
   .ColorScheme-Text {
        color:#4d4d4d;
      }
      .ColorScheme-Background {
        color:#eff0f1;
      }
      .ColorScheme-Highlight {
        color:#3daee9;
      }
      .ColorScheme-ViewText {
        color:#31363b;
      }
      .ColorScheme-ViewBackground {
        color:#fcfcfc;
      }
      .ColorScheme-ViewHover {
        color:#93cee9;
      }
      .ColorScheme-ViewFocus{
        color:#3daee9;
      }
      .ColorScheme-ButtonText {
        color:#31363b;
      }
      .ColorScheme-ButtonBackground {
        color:#eff0f1;
      }
      .ColorScheme-ButtonHover {
        color:#93cee9;
      }
      .ColorScheme-ButtonFocus{
        color:#3daee9;
      }
  </style>
 </defs>
 <metadata id="metadata4360">
  <rdf:rdf>
   <cc:work rdf:about="">
    <dc:format>
     image/svg+xml
    </dc:format>
    <dc:type rdf:resource="http://purl.org/dc/dcmitype/StillImage">
    </dc:type>
    <dc:title>
    </dc:title>
   </cc:work>
  </rdf:rdf>
 </metadata>
 <g id="layer1" transform="translate(-544.57 -742.93)">
  <rect class="ColorScheme-Text" fill="currentColor" height="11" id="rect4035" width="0" x="520.21" y="747.07">
  </rect>
  <rect class="ColorScheme-Text" fill="currentColor" height="11" id="rect4035-5" width="0" x="538.25" y="745.02">
  </rect>
  <rect class="ColorScheme-Text" fill="currentColor" height="11" id="rect4035-8" width="0" x="520.21" y="747.07">
  </rect>
  <rect class="ColorScheme-Text" fill="currentColor" height="11" id="rect4035-59" width="0" x="520.21" y="747.07">
  </rect>
  <rect class="ColorScheme-Text" fill="currentColor" height="11" id="rect4035-6" width="0" x="512.9" y="742.24">
  </rect>
  <rect class="ColorScheme-Text" fill="currentColor" height="11" id="rect4035-5-1" width="0" x="530.94" y="740.19">
  </rect>
  <rect class="ColorScheme-Text" fill="currentColor" height="11" id="rect4035-8-3" width="0" x="512.9" y="742.24">
  </rect>
  <rect class="ColorScheme-Text" fill="currentColor" height="11" id="rect4035-59-4" width="0" x="512.9" y="742.24">
  </rect>
  <rect class="ColorScheme-Text" fill="currentColor" height="11" id="rect4035-1" width="0" x="518.92" y="746.45">
  </rect>
  <rect class="ColorScheme-Text" fill="currentColor" height="11" id="rect4035-5-0" width="0" x="536.96" y="744.4">
  </rect>
  <rect class="ColorScheme-Text" fill="currentColor" height="11" id="rect4035-8-1" width="0" x="518.92" y="746.45">
  </rect>
  <rect class="ColorScheme-Text" fill="currentColor" height="11" id="rect4035-59-1" width="0" x="518.92" y="746.45">
  </rect>
  <rect class="ColorScheme-Text" fill="currentColor" height="11" id="rect4035-7" width="0" x="520.21" y="747.07">
  </rect>
  <rect class="ColorScheme-Text" fill="currentColor" height="11" id="rect4035-5-7" width="0" x="538.25" y="745.02">
  </rect>
  <rect class="ColorScheme-Text" fill="currentColor" height="11" id="rect4035-8-16" width="0" x="520.21" y="747.07">
  </rect>
  <rect class="ColorScheme-Text" fill="currentColor" height="11" id="rect4035-59-18" width="0" x="520.21" y="747.07">
  </rect>
  <rect class="ColorScheme-Text" fill="currentColor" height="11" id="rect4035-6-5" width="0" x="512.9" y="742.24">
  </rect>
  <rect class="ColorScheme-Text" fill="currentColor" height="11" id="rect4035-5-1-8" width="0" x="530.94" y="740.19">
  </rect>
  <rect class="ColorScheme-Text" fill="currentColor" height="11" id="rect4035-8-3-8" width="0" x="512.9" y="742.24">
  </rect>
  <rect class="ColorScheme-Text" fill="currentColor" height="11" id="rect4035-59-4-7" width="0" x="512.9" y="742.24">
  </rect>
  <rect class="ColorScheme-Text" fill="currentColor" height="11" id="rect4035-1-7" width="0" x="518.92" y="746.45">
  </rect>
  <rect class="ColorScheme-Text" fill="currentColor" height="11" id="rect4035-5-0-8" width="0" x="536.96" y="744.4">
  </rect>
  <rect class="ColorScheme-Text" fill="currentColor" height="11" id="rect4035-8-1-0" width="0" x="518.92" y="746.45">
  </rect>
  <rect class="ColorScheme-Text" fill="currentColor" height="11" id="rect4035-59-1-3" width="0" x="518.92" y="746.45">
  </rect>
  <rect class="ColorScheme-Text" fill="currentColor" height="11" id="rect4035-0" width="0" x="517.68" y="750.45">
  </rect>
  <rect class="ColorScheme-Text" fill="currentColor" height="11" id="rect4035-5-5" width="0" x="535.72" y="748.4">
  </rect>
  <rect class="ColorScheme-Text" fill="currentColor" height="11" id="rect4035-8-6" width="0" x="517.68" y="750.45">
  </rect>
  <rect class="ColorScheme-Text" fill="currentColor" height="11" id="rect4035-59-11" width="0" x="517.68" y="750.45">
  </rect>
  <rect class="ColorScheme-Text" fill="currentColor" height="11" id="rect4035-9" width="0" x="501.69" y="746.82">
  </rect>
  <rect class="ColorScheme-Text" fill="currentColor" height="11" id="rect4035-5-8" width="0" x="519.73" y="744.77">
  </rect>
  <rect class="ColorScheme-Text" fill="currentColor" height="11" id="rect4035-8-0" width="0" x="501.69" y="746.82">
  </rect>
  <rect class="ColorScheme-Text" fill="currentColor" height="11" id="rect4035-59-1-8" width="0" x="501.69" y="746.82">
  </rect>
  <rect class="ColorScheme-Text" fill="currentColor" height="11" id="rect4035-3" width="0" x="520.21" y="747.07">
  </rect>
  <rect class="ColorScheme-Text" fill="currentColor" height="11" id="rect4035-5-2" width="0" x="538.25" y="745.02">
  </rect>
  <rect class="ColorScheme-Text" fill="currentColor" height="11" id="rect4035-8-7" width="0" x="520.21" y="747.07">
  </rect>
  <rect class="ColorScheme-Text" fill="currentColor" height="11" id="rect4035-59-43" width="0" x="520.21" y="747.07">
  </rect>
  <rect class="ColorScheme-Text" fill="currentColor" height="11" id="rect4035-6-2" width="0" x="512.9" y="742.24">
  </rect>
  <rect class="ColorScheme-Text" fill="currentColor" height="11" id="rect4035-5-1-6" width="0" x="530.94" y="740.19">
  </rect>
  <rect class="ColorScheme-Text" fill="currentColor" height="11" id="rect4035-8-3-4" width="0" x="512.9" y="742.24">
  </rect>
  <rect class="ColorScheme-Text" fill="currentColor" height="11" id="rect4035-59-4-8" width="0" x="512.9" y="742.24">
  </rect>
  <rect class="ColorScheme-Text" fill="currentColor" height="11" id="rect4035-1-8" width="0" x="518.92" y="746.45">
  </rect>
  <rect class="ColorScheme-Text" fill="currentColor" height="11" id="rect4035-5-0-0" width="0" x="536.96" y="744.4">
  </rect>
  <rect class="ColorScheme-Text" fill="currentColor" height="11" id="rect4035-8-1-3" width="0" x="518.92" y="746.45">
  </rect>
  <rect class="ColorScheme-Text" fill="currentColor" height="11" id="rect4035-59-1-1" width="0" x="518.92" y="746.45">
  </rect>
  <rect class="ColorScheme-Text" fill="currentColor" height="11" id="rect4035-08" width="0" x="520.16" y="747.07">
  </rect>
  <rect class="ColorScheme-Text" fill="currentColor" height="11" id="rect4035-5-9" width="0" x="538.2" y="745.02">
  </rect>
  <rect class="ColorScheme-Text" fill="currentColor" height="11" id="rect4035-8-09" width="0" x="520.16" y="747.07">
  </rect>
  <rect class="ColorScheme-Text" fill="currentColor" height="11" id="rect4035-59-23" width="0" x="520.16" y="747.07">
  </rect>
  <rect class="ColorScheme-Text" fill="currentColor" height="11" id="rect4035-6-51" width="0" x="512.85" y="742.24">
  </rect>
  <rect class="ColorScheme-Text" fill="currentColor" height="11" id="rect4035-5-1-67" width="0" x="530.89" y="740.19">
  </rect>
  <rect class="ColorScheme-Text" fill="currentColor" height="11" id="rect4035-8-3-9" width="0" x="512.85" y="742.24">
  </rect>
  <rect class="ColorScheme-Text" fill="currentColor" height="11" id="rect4035-59-4-5" width="0" x="512.85" y="742.24">
  </rect>
  <rect class="ColorScheme-Text" fill="currentColor" height="11" id="rect4035-1-79" width="0" x="518.87" y="746.45">
  </rect>
  <rect class="ColorScheme-Text" fill="currentColor" height="11" id="rect4035-5-0-3" width="0" x="536.91" y="744.4">
  </rect>
  <rect class="ColorScheme-Text" fill="currentColor" height="11" id="rect4035-8-1-6" width="0" x="518.87" y="746.45">
  </rect>
  <rect class="ColorScheme-Text" fill="currentColor" height="11" id="rect4035-59-1-39" width="0" x="518.87" y="746.45">
  </rect>
  <rect class="ColorScheme-Text" fill="currentColor" height="11" id="rect4035-7-5" width="0" x="520.16" y="747.07">
  </rect>
  <rect class="ColorScheme-Text" fill="currentColor" height="11" id="rect4035-5-7-3" width="0" x="538.2" y="745.02">
  </rect>
  <rect class="ColorScheme-Text" fill="currentColor" height="11" id="rect4035-8-16-1" width="0" x="520.16" y="747.07">
  </rect>
  <rect class="ColorScheme-Text" fill="currentColor" height="11" id="rect4035-59-18-3" width="0" x="520.16" y="747.07">
  </rect>
  <rect class="ColorScheme-Text" fill="currentColor" height="11" id="rect4035-6-5-0" width="0" x="512.85" y="742.24">
  </rect>
  <rect class="ColorScheme-Text" fill="currentColor" height="11" id="rect4035-5-1-8-6" width="0" x="530.89" y="740.19">
  </rect>
  <rect class="ColorScheme-Text" fill="currentColor" height="11" id="rect4035-8-3-8-6" width="0" x="512.85" y="742.24">
  </rect>
  <rect class="ColorScheme-Text" fill="currentColor" height="11" id="rect4035-59-4-7-6" width="0" x="512.85" y="742.24">
  </rect>
  <rect class="ColorScheme-Text" fill="currentColor" height="11" id="rect4035-1-7-0" width="0" x="518.87" y="746.45">
  </rect>
  <rect class="ColorScheme-Text" fill="currentColor" height="11" id="rect4035-5-0-8-2" width="0" x="536.91" y="744.4">
  </rect>
  <rect class="ColorScheme-Text" fill="currentColor" height="11" id="rect4035-8-1-0-6" width="0" x="518.87" y="746.45">
  </rect>
  <rect class="ColorScheme-Text" fill="currentColor" height="11" id="rect4035-59-1-3-3" width="0" x="518.87" y="746.45">
  </rect>
  <rect class="ColorScheme-Text" fill="currentColor" height="11" id="rect4035-0-4" width="0" x="517.63" y="750.45">
  </rect>
  <rect class="ColorScheme-Text" fill="currentColor" height="11" id="rect4035-5-5-7" width="0" x="535.67" y="748.4">
  </rect>
  <rect class="ColorScheme-Text" fill="currentColor" height="11" id="rect4035-8-6-2" width="0" x="517.63" y="750.45">
  </rect>
  <rect class="ColorScheme-Text" fill="currentColor" height="11" id="rect4035-59-11-4" width="0" x="517.63" y="750.45">
  </rect>
  <rect class="ColorScheme-Text" fill="currentColor" height="11" id="rect4035-9-6" width="0" x="501.64" y="746.82">
  </rect>
  <rect class="ColorScheme-Text" fill="currentColor" height="11" id="rect4035-5-8-6" width="0" x="519.68" y="744.77">
  </rect>
  <rect class="ColorScheme-Text" fill="currentColor" height="11" id="rect4035-8-0-7" width="0" x="501.64" y="746.82">
  </rect>
  <rect class="ColorScheme-Text" fill="currentColor" height="11" id="rect4035-59-1-8-4" width="0" x="501.64" y="746.82">
  </rect>
  <g id="g4229">
   <path d="m4 3v6 1 3.461 1.414 0.125 1 1h-1v1h1v1h1v-1h13.293 0.707v-0.707-0.293h-0.293-1.414-12.293v-1.568-0.008-0.424-1.125l3.998-3.998 2.123 2.123 0.006-0.004 0.004 0.004 7.869-7.875v-1.125h-0.289c0.007-0.0124-7.584 7.59-7.584 7.59l-2.127-2.1252-0.002 0.002-0.0019-0.002-3.9961 3.9962v-0.037-1-0.424-1-1-3-0.0078-0.9922-2h-1z" fill="currentColor" id="path4154" opacity=".5" transform="translate(544.57 742.93)">
   </path>
   <path class="ColorScheme-Text" d="m19 4.125l-7.869 7.875-0.004-0.004-0.006 0.004-2.123-2.123-3.998 3.998v3.125h14v-12.875z" fill-rule="evenodd" id="path5276" opacity=".2" transform="translate(544.57 742.93)">
   </path>
  </g>
 </g>
</svg>
