<?xml version="1.0" encoding="UTF-8" standalone="no"?>
<!-- Created with Inkscape (http://www.inkscape.org/) -->
<svg height="22" id="svg3049" version="1.1" width="22" xmlns="http://www.w3.org/2000/svg" xmlns:cc="http://creativecommons.org/ns#" xmlns:dc="http://purl.org/dc/elements/1.1/" xmlns:rdf="http://www.w3.org/1999/02/22-rdf-syntax-ns#">
 <defs id="defs3051">
  <style id="current-color-scheme" type="text/css">
   .ColorScheme-Text {
        color:#4d4d4d;
      }
      .ColorScheme-Background {
        color:#eff0f1;
      }
      .ColorScheme-Highlight {
        color:#3daee9;
      }
      .ColorScheme-ViewText {
        color:#31363b;
      }
      .ColorScheme-ViewBackground {
        color:#fcfcfc;
      }
      .ColorScheme-ViewHover {
        color:#93cee9;
      }
      .ColorScheme-ViewFocus{
        color:#3daee9;
      }
      .ColorScheme-ButtonText {
        color:#31363b;
      }
      .ColorScheme-ButtonBackground {
        color:#eff0f1;
      }
      .ColorScheme-ButtonHover {
        color:#93cee9;
      }
      .ColorScheme-ButtonFocus{
        color:#3daee9;
      }
  </style>
  <style id="current-color-scheme-9" type="text/css">
   .ColorScheme-Text {
        color:#4d4d4d;
      }
      .ColorScheme-Background {
        color:#eff0f1;
      }
      .ColorScheme-Highlight {
        color:#3daee9;
      }
      .ColorScheme-ViewText {
        color:#31363b;
      }
      .ColorScheme-ViewBackground {
        color:#fcfcfc;
      }
      .ColorScheme-ViewHover {
        color:#93cee9;
      }
      .ColorScheme-ViewFocus{
        color:#3daee9;
      }
      .ColorScheme-ButtonText {
        color:#31363b;
      }
      .ColorScheme-ButtonBackground {
        color:#eff0f1;
      }
      .ColorScheme-ButtonHover {
        color:#93cee9;
      }
      .ColorScheme-ButtonFocus{
        color:#3daee9;
      }
  </style>
 </defs>
 <metadata id="metadata3054">
  <rdf:rdf>
   <cc:work rdf:about="">
    <dc:format>
     image/svg+xml
    </dc:format>
    <dc:type rdf:resource="http://purl.org/dc/dcmitype/StillImage">
    </dc:type>
    <dc:title>
    </dc:title>
   </cc:work>
  </rdf:rdf>
 </metadata>
 <g id="layer1" transform="translate(-421.71 -525.79)">
  <path class="ColorScheme-Text" d="m435.71 529.79-0.57422 1.6133-1.5469-0.73437 0.73437 1.5469-1.6133 0.57422 1.6133 0.57422-0.73437 1.5469 1.5469-0.73437 0.57422 1.6133 0.57422-1.6133 1.5469 0.73437-0.73437-1.5469 1.6133-0.57422-1.6133-0.57422 0.73437-1.5469-1.5469 0.73437-0.57422-1.6133zm-5 1c-0.20703 0.66364-0.48677 1.313-0.78906 1.9492-1.5405 3.1502-3.9511 5.3048-4.1836 7.293-0.006 0.0297-0.0221 0.0622-0.0273 0.0918l0.0195 0.006c-0.005 0.0684-0.0195 0.13688-0.0195 0.20507 0 2.4602 2.2386 4.4551 5 4.4551s5-1.9949 5-4.4551c0-0.0682-0.0145-0.13671-0.0195-0.20507l0.0195-0.006c-0.005-0.0295-0.021-0.0621-0.0273-0.0918-0.23255-1.9882-2.6431-4.1447-4.1836-7.2949-0.30228-0.63621-0.58204-1.2836-0.78906-1.9473z" fill-rule="evenodd" id="path4187" style="fill:currentColor">
  </path>
  <rect class="ColorScheme-Text" fill="currentColor" height="11" id="rect4035" style="color:#4d4d4d" width="0" x="404.71" y="534.79">
  </rect>
  <rect class="ColorScheme-Text" fill="currentColor" height="11" id="rect4035-5" style="color:#4d4d4d" width="0" x="422.76" y="532.74">
  </rect>
  <rect class="ColorScheme-Text" fill="currentColor" height="11" id="rect4035-8" style="color:#4d4d4d" width="0" x="404.71" y="534.79">
  </rect>
  <rect class="ColorScheme-Text" fill="currentColor" height="11" id="rect4035-59" style="color:#4d4d4d" width="0" x="404.71" y="534.79">
  </rect>
  <rect class="ColorScheme-Text" fill="currentColor" height="11" id="rect4035-66" style="color:#4d4d4d" width="0" x="361.3" y="535.43">
  </rect>
  <rect class="ColorScheme-Text" fill="currentColor" height="11" id="rect4035-5-22" style="color:#4d4d4d" width="0" x="379.34" y="533.38">
  </rect>
  <rect class="ColorScheme-Text" fill="currentColor" height="11" id="rect4035-8-18" style="color:#4d4d4d" width="0" x="361.3" y="535.43">
  </rect>
  <rect class="ColorScheme-Text" fill="currentColor" height="11" id="rect4035-59-0" style="color:#4d4d4d" width="0" x="361.3" y="535.43">
  </rect>
  <rect class="ColorScheme-Text" fill="currentColor" height="11" id="rect4035-6" style="color:#4d4d4d" width="0" x="353.99" y="530.59">
  </rect>
  <rect class="ColorScheme-Text" fill="currentColor" height="11" id="rect4035-5-1" style="color:#4d4d4d" width="0" x="372.04" y="528.54">
  </rect>
  <rect class="ColorScheme-Text" fill="currentColor" height="11" id="rect4035-8-3" style="color:#4d4d4d" width="0" x="353.99" y="530.59">
  </rect>
  <rect class="ColorScheme-Text" fill="currentColor" height="11" id="rect4035-59-4" style="color:#4d4d4d" width="0" x="353.99" y="530.59">
  </rect>
  <rect class="ColorScheme-Text" fill="currentColor" height="11" id="rect4035-1" style="color:#4d4d4d" width="0" x="360.01" y="534.81">
  </rect>
  <rect class="ColorScheme-Text" fill="currentColor" height="11" id="rect4035-5-0" style="color:#4d4d4d" width="0" x="378.05" y="532.76">
  </rect>
  <rect class="ColorScheme-Text" fill="currentColor" height="11" id="rect4035-8-1" style="color:#4d4d4d" width="0" x="360.01" y="534.81">
  </rect>
  <rect class="ColorScheme-Text" fill="currentColor" height="11" id="rect4035-59-1" style="color:#4d4d4d" width="0" x="360.01" y="534.81">
  </rect>
  <rect class="ColorScheme-Text" fill="currentColor" height="11" id="rect4035-7" style="color:#4d4d4d" width="0" x="361.3" y="535.43">
  </rect>
  <rect class="ColorScheme-Text" fill="currentColor" height="11" id="rect4035-5-7" style="color:#4d4d4d" width="0" x="379.34" y="533.38">
  </rect>
  <rect class="ColorScheme-Text" fill="currentColor" height="11" id="rect4035-8-16" style="color:#4d4d4d" width="0" x="361.3" y="535.43">
  </rect>
  <rect class="ColorScheme-Text" fill="currentColor" height="11" id="rect4035-59-18" style="color:#4d4d4d" width="0" x="361.3" y="535.43">
  </rect>
  <rect class="ColorScheme-Text" fill="currentColor" height="11" id="rect4035-6-5" style="color:#4d4d4d" width="0" x="353.99" y="530.59">
  </rect>
  <rect class="ColorScheme-Text" fill="currentColor" height="11" id="rect4035-5-1-8" style="color:#4d4d4d" width="0" x="372.04" y="528.54">
  </rect>
  <rect class="ColorScheme-Text" fill="currentColor" height="11" id="rect4035-8-3-8" style="color:#4d4d4d" width="0" x="353.99" y="530.59">
  </rect>
  <rect class="ColorScheme-Text" fill="currentColor" height="11" id="rect4035-59-4-7" style="color:#4d4d4d" width="0" x="353.99" y="530.59">
  </rect>
  <rect class="ColorScheme-Text" fill="currentColor" height="11" id="rect4035-1-7" style="color:#4d4d4d" width="0" x="360.01" y="534.81">
  </rect>
  <rect class="ColorScheme-Text" fill="currentColor" height="11" id="rect4035-5-0-8" style="color:#4d4d4d" width="0" x="378.05" y="532.76">
  </rect>
  <rect class="ColorScheme-Text" fill="currentColor" height="11" id="rect4035-8-1-0" style="color:#4d4d4d" width="0" x="360.01" y="534.81">
  </rect>
  <rect class="ColorScheme-Text" fill="currentColor" height="11" id="rect4035-59-1-3" style="color:#4d4d4d" width="0" x="360.01" y="534.81">
  </rect>
  <rect class="ColorScheme-Text" fill="currentColor" height="11" id="rect4035-0" style="color:#4d4d4d" width="0" x="358.77" y="538.81">
  </rect>
  <rect class="ColorScheme-Text" fill="currentColor" height="11" id="rect4035-5-5" style="color:#4d4d4d" width="0" x="376.81" y="536.76">
  </rect>
  <rect class="ColorScheme-Text" fill="currentColor" height="11" id="rect4035-8-6" style="color:#4d4d4d" width="0" x="358.77" y="538.81">
  </rect>
  <rect class="ColorScheme-Text" fill="currentColor" height="11" id="rect4035-59-11" style="color:#4d4d4d" width="0" x="358.77" y="538.81">
  </rect>
  <rect class="ColorScheme-Text" fill="currentColor" height="11" id="rect4035-9" style="color:#4d4d4d" width="0" x="342.78" y="535.17">
  </rect>
  <rect class="ColorScheme-Text" fill="currentColor" height="11" id="rect4035-5-8" style="color:#4d4d4d" width="0" x="360.82" y="533.12">
  </rect>
  <rect class="ColorScheme-Text" fill="currentColor" height="11" id="rect4035-8-0" style="color:#4d4d4d" width="0" x="342.78" y="535.17">
  </rect>
  <rect class="ColorScheme-Text" fill="currentColor" height="11" id="rect4035-59-1-8" style="color:#4d4d4d" width="0" x="342.78" y="535.17">
  </rect>
  <rect class="ColorScheme-Text" fill="currentColor" height="11" id="rect4035-3" style="color:#4d4d4d" width="0" x="361.3" y="535.43">
  </rect>
  <rect class="ColorScheme-Text" fill="currentColor" height="11" id="rect4035-5-2" style="color:#4d4d4d" width="0" x="379.34" y="533.38">
  </rect>
  <rect class="ColorScheme-Text" fill="currentColor" height="11" id="rect4035-8-7" style="color:#4d4d4d" width="0" x="361.3" y="535.43">
  </rect>
  <rect class="ColorScheme-Text" fill="currentColor" height="11" id="rect4035-59-43" style="color:#4d4d4d" width="0" x="361.3" y="535.43">
  </rect>
  <rect class="ColorScheme-Text" fill="currentColor" height="11" id="rect4035-6-2" style="color:#4d4d4d" width="0" x="353.99" y="530.59">
  </rect>
  <rect class="ColorScheme-Text" fill="currentColor" height="11" id="rect4035-5-1-6" style="color:#4d4d4d" width="0" x="372.04" y="528.54">
  </rect>
  <rect class="ColorScheme-Text" fill="currentColor" height="11" id="rect4035-8-3-4" style="color:#4d4d4d" width="0" x="353.99" y="530.59">
  </rect>
  <rect class="ColorScheme-Text" fill="currentColor" height="11" id="rect4035-59-4-8" style="color:#4d4d4d" width="0" x="353.99" y="530.59">
  </rect>
  <rect class="ColorScheme-Text" fill="currentColor" height="11" id="rect4035-1-8" style="color:#4d4d4d" width="0" x="360.01" y="534.81">
  </rect>
  <rect class="ColorScheme-Text" fill="currentColor" height="11" id="rect4035-5-0-0" style="color:#4d4d4d" width="0" x="378.05" y="532.76">
  </rect>
  <rect class="ColorScheme-Text" fill="currentColor" height="11" id="rect4035-8-1-3" style="color:#4d4d4d" width="0" x="360.01" y="534.81">
  </rect>
  <rect class="ColorScheme-Text" fill="currentColor" height="11" id="rect4035-59-1-1" style="color:#4d4d4d" width="0" x="360.01" y="534.81">
  </rect>
 </g>
</svg>
