<?xml version="1.0" encoding="UTF-8" standalone="no"?>
<!-- Created with Inkscape (http://www.inkscape.org/) -->
<svg height="22" id="svg4355" version="1.1" width="22" xmlns="http://www.w3.org/2000/svg" xmlns:cc="http://creativecommons.org/ns#" xmlns:dc="http://purl.org/dc/elements/1.1/" xmlns:rdf="http://www.w3.org/1999/02/22-rdf-syntax-ns#">
 <defs id="defs4357">
  <style id="current-color-scheme" type="text/css">
   .ColorScheme-Text {
        color:#4d4d4d;
      }
      .ColorScheme-Background {
        color:#eff0f1;
      }
      .ColorScheme-Highlight {
        color:#3daee9;
      }
      .ColorScheme-ViewText {
        color:#31363b;
      }
      .ColorScheme-ViewBackground {
        color:#fcfcfc;
      }
      .ColorScheme-ViewHover {
        color:#93cee9;
      }
      .ColorScheme-ViewFocus{
        color:#3daee9;
      }
      .ColorScheme-ButtonText {
        color:#31363b;
      }
      .ColorScheme-ButtonBackground {
        color:#eff0f1;
      }
      .ColorScheme-ButtonHover {
        color:#93cee9;
      }
      .ColorScheme-ButtonFocus{
        color:#3daee9;
      }
  </style>
 </defs>
 <metadata id="metadata4360">
  <rdf:rdf>
   <cc:work rdf:about="">
    <dc:format>
     image/svg+xml
    </dc:format>
    <dc:type rdf:resource="http://purl.org/dc/dcmitype/StillImage">
    </dc:type>
    <dc:title>
    </dc:title>
   </cc:work>
  </rdf:rdf>
 </metadata>
 <g id="layer1" transform="translate(-544.57 -742.93)">
  <rect class="ColorScheme-Text" fill="currentColor" height="11" id="rect4035" width="0" x="507.1" y="747.55">
  </rect>
  <rect class="ColorScheme-Text" fill="currentColor" height="11" id="rect4035-5" width="0" x="525.14" y="745.5">
  </rect>
  <rect class="ColorScheme-Text" fill="currentColor" height="11" id="rect4035-8" width="0" x="507.1" y="747.55">
  </rect>
  <rect class="ColorScheme-Text" fill="currentColor" height="11" id="rect4035-59" width="0" x="507.1" y="747.55">
  </rect>
  <rect class="ColorScheme-Text" fill="currentColor" height="11" id="rect4035-6" width="0" x="499.8" y="742.72">
  </rect>
  <rect class="ColorScheme-Text" fill="currentColor" height="11" id="rect4035-5-1" width="0" x="517.84" y="740.67">
  </rect>
  <rect class="ColorScheme-Text" fill="currentColor" height="11" id="rect4035-8-3" width="0" x="499.8" y="742.72">
  </rect>
  <rect class="ColorScheme-Text" fill="currentColor" height="11" id="rect4035-59-4" width="0" x="499.8" y="742.72">
  </rect>
  <rect class="ColorScheme-Text" fill="currentColor" height="11" id="rect4035-1" width="0" x="505.81" y="746.94">
  </rect>
  <rect class="ColorScheme-Text" fill="currentColor" height="11" id="rect4035-5-0" width="0" x="523.85" y="744.88">
  </rect>
  <rect class="ColorScheme-Text" fill="currentColor" height="11" id="rect4035-8-1" width="0" x="505.81" y="746.94">
  </rect>
  <rect class="ColorScheme-Text" fill="currentColor" height="11" id="rect4035-59-1" width="0" x="505.81" y="746.94">
  </rect>
  <rect class="ColorScheme-Text" fill="currentColor" height="11" id="rect4035-7" width="0" x="507.1" y="747.55">
  </rect>
  <rect class="ColorScheme-Text" fill="currentColor" height="11" id="rect4035-5-7" width="0" x="525.14" y="745.5">
  </rect>
  <rect class="ColorScheme-Text" fill="currentColor" height="11" id="rect4035-8-16" width="0" x="507.1" y="747.55">
  </rect>
  <rect class="ColorScheme-Text" fill="currentColor" height="11" id="rect4035-59-18" width="0" x="507.1" y="747.55">
  </rect>
  <rect class="ColorScheme-Text" fill="currentColor" height="11" id="rect4035-6-5" width="0" x="499.8" y="742.72">
  </rect>
  <rect class="ColorScheme-Text" fill="currentColor" height="11" id="rect4035-5-1-8" width="0" x="517.84" y="740.67">
  </rect>
  <rect class="ColorScheme-Text" fill="currentColor" height="11" id="rect4035-8-3-8" width="0" x="499.8" y="742.72">
  </rect>
  <rect class="ColorScheme-Text" fill="currentColor" height="11" id="rect4035-59-4-7" width="0" x="499.8" y="742.72">
  </rect>
  <rect class="ColorScheme-Text" fill="currentColor" height="11" id="rect4035-1-7" width="0" x="505.81" y="746.94">
  </rect>
  <rect class="ColorScheme-Text" fill="currentColor" height="11" id="rect4035-5-0-8" width="0" x="523.85" y="744.88">
  </rect>
  <rect class="ColorScheme-Text" fill="currentColor" height="11" id="rect4035-8-1-0" width="0" x="505.81" y="746.94">
  </rect>
  <rect class="ColorScheme-Text" fill="currentColor" height="11" id="rect4035-59-1-3" width="0" x="505.81" y="746.94">
  </rect>
  <rect class="ColorScheme-Text" fill="currentColor" height="11" id="rect4035-0" width="0" x="504.57" y="750.93">
  </rect>
  <rect class="ColorScheme-Text" fill="currentColor" height="11" id="rect4035-5-5" width="0" x="522.61" y="748.88">
  </rect>
  <rect class="ColorScheme-Text" fill="currentColor" height="11" id="rect4035-8-6" width="0" x="504.57" y="750.93">
  </rect>
  <rect class="ColorScheme-Text" fill="currentColor" height="11" id="rect4035-59-11" width="0" x="504.57" y="750.93">
  </rect>
  <rect class="ColorScheme-Text" fill="currentColor" height="11" id="rect4035-9" width="0" x="488.58" y="747.3">
  </rect>
  <rect class="ColorScheme-Text" fill="currentColor" height="11" id="rect4035-5-8" width="0" x="506.62" y="745.25">
  </rect>
  <rect class="ColorScheme-Text" fill="currentColor" height="11" id="rect4035-8-0" width="0" x="488.58" y="747.3">
  </rect>
  <rect class="ColorScheme-Text" fill="currentColor" height="11" id="rect4035-59-1-8" width="0" x="488.58" y="747.3">
  </rect>
  <rect class="ColorScheme-Text" fill="currentColor" height="11" id="rect4035-3" width="0" x="507.1" y="747.55">
  </rect>
  <rect class="ColorScheme-Text" fill="currentColor" height="11" id="rect4035-5-2" width="0" x="525.14" y="745.5">
  </rect>
  <rect class="ColorScheme-Text" fill="currentColor" height="11" id="rect4035-8-7" width="0" x="507.1" y="747.55">
  </rect>
  <rect class="ColorScheme-Text" fill="currentColor" height="11" id="rect4035-59-43" width="0" x="507.1" y="747.55">
  </rect>
  <rect class="ColorScheme-Text" fill="currentColor" height="11" id="rect4035-6-2" width="0" x="499.8" y="742.72">
  </rect>
  <rect class="ColorScheme-Text" fill="currentColor" height="11" id="rect4035-5-1-6" width="0" x="517.84" y="740.67">
  </rect>
  <rect class="ColorScheme-Text" fill="currentColor" height="11" id="rect4035-8-3-4" width="0" x="499.8" y="742.72">
  </rect>
  <rect class="ColorScheme-Text" fill="currentColor" height="11" id="rect4035-59-4-8" width="0" x="499.8" y="742.72">
  </rect>
  <rect class="ColorScheme-Text" fill="currentColor" height="11" id="rect4035-1-8" width="0" x="505.81" y="746.94">
  </rect>
  <rect class="ColorScheme-Text" fill="currentColor" height="11" id="rect4035-5-0-0" width="0" x="523.85" y="744.88">
  </rect>
  <rect class="ColorScheme-Text" fill="currentColor" height="11" id="rect4035-8-1-3" width="0" x="505.81" y="746.94">
  </rect>
  <rect class="ColorScheme-Text" fill="currentColor" height="11" id="rect4035-59-1-1" width="0" x="505.81" y="746.94">
  </rect>
  <path class="ColorScheme-Text" d="m11 4a5 5 0 0 0 -5 5 5 5 0 0 0 0 0.0078 5 5 0 0 0 -2 3.9922 5 5 0 0 0 5 5 5 5 0 0 0 1.996 -0.422 5 5 0 0 0 2.004 0.422 5 5 0 0 0 5 -5 5 5 0 0 0 -2 -3.9922 5 5 0 0 0 0 -0.0078 5 5 0 0 0 -5 -5z" id="path4149-7" style="fill:currentColor" transform="translate(544.57 742.93)">
  </path>
 </g>
</svg>
