<?xml version="1.0" encoding="UTF-8" standalone="no"?>
<!-- Created with Inkscape (http://www.inkscape.org/) -->
<svg height="22" id="svg7384" style="enable-background:new" version="1.1" width="22" xmlns="http://www.w3.org/2000/svg" xmlns:cc="http://creativecommons.org/ns#" xmlns:dc="http://purl.org/dc/elements/1.1/" xmlns:osb="http://www.openswatchbook.org/uri/2009/osb" xmlns:rdf="http://www.w3.org/1999/02/22-rdf-syntax-ns#">
 <defs>
  <style id="current-color-scheme" type="text/css">
   .ColorScheme-Text { color:#555555; }
  </style>
 </defs>
 <metadata id="metadata90">
  <rdf:rdf>
   <cc:work rdf:about="">
    <dc:format>
     image/svg+xml
    </dc:format>
    <dc:type rdf:resource="http://purl.org/dc/dcmitype/StillImage">
    </dc:type>
    <dc:title>
     Paper Symbolic Icon Theme
    </dc:title>
   </cc:work>
  </rdf:rdf>
 </metadata>
 <title id="title8473">
  Paper Symbolic Icon Theme
 </title>
 <g id="layer12" transform="translate(-525 41.003)">
  <path class="ColorScheme-Text" d="m529.97-23.003c-0.53403 0-0.96875-0.42699-0.96875-0.96875v-0.0625c0.0171-6.6128 5.3832-11.969 12-11.969h0.0312c0.54483 0 0.9688 0.446 0.9688 1v1 2c0 0.554-0.446 1-1 1h-2c-0.554 0-1-0.446-1-1v-0.46875c-2.5569 0.90388-4.5649 2.9119-5.4688 5.4688h0.46875c0.55401 0 1 0.44599 1 1v2c0 0.55401-0.44599 1-1 1h-1-1-0.96875-0.0312-0.0312z" fill="#e74c3c" id="path6060" style="fill:currentColor">
  </path>
 </g>
</svg>
