<?xml version="1.0" encoding="UTF-8" standalone="no"?>
<!-- Created with Inkscape (http://www.inkscape.org/) -->
<svg height="22" id="svg4355" version="1.1" width="22" xmlns="http://www.w3.org/2000/svg" xmlns:cc="http://creativecommons.org/ns#" xmlns:dc="http://purl.org/dc/elements/1.1/" xmlns:rdf="http://www.w3.org/1999/02/22-rdf-syntax-ns#">
 <defs id="defs4357">
  <style id="current-color-scheme" type="text/css">
   .ColorScheme-Text {
        color:#4d4d4d;
      }
      .ColorScheme-Background {
        color:#eff0f1;
      }
      .ColorScheme-Highlight {
        color:#3daee9;
      }
      .ColorScheme-ViewText {
        color:#31363b;
      }
      .ColorScheme-ViewBackground {
        color:#fcfcfc;
      }
      .ColorScheme-ViewHover {
        color:#93cee9;
      }
      .ColorScheme-ViewFocus{
        color:#3daee9;
      }
      .ColorScheme-ButtonText {
        color:#31363b;
      }
      .ColorScheme-ButtonBackground {
        color:#eff0f1;
      }
      .ColorScheme-ButtonHover {
        color:#93cee9;
      }
      .ColorScheme-ButtonFocus{
        color:#3daee9;
      }
  </style>
 </defs>
 <metadata id="metadata4360">
  <rdf:rdf>
   <cc:work rdf:about="">
    <dc:format>
     image/svg+xml
    </dc:format>
    <dc:type rdf:resource="http://purl.org/dc/dcmitype/StillImage">
    </dc:type>
    <dc:title>
    </dc:title>
   </cc:work>
  </rdf:rdf>
 </metadata>
 <g id="layer1" transform="translate(-544.57 -742.93)">
  <rect class="ColorScheme-Text" fill="currentColor" height="11" id="rect4035" width="0" x="507.1" y="747.55">
  </rect>
  <rect class="ColorScheme-Text" fill="currentColor" height="11" id="rect4035-5" width="0" x="525.14" y="745.5">
  </rect>
  <rect class="ColorScheme-Text" fill="currentColor" height="11" id="rect4035-8" width="0" x="507.1" y="747.55">
  </rect>
  <rect class="ColorScheme-Text" fill="currentColor" height="11" id="rect4035-59" width="0" x="507.1" y="747.55">
  </rect>
  <rect class="ColorScheme-Text" fill="currentColor" height="11" id="rect4035-6" width="0" x="499.8" y="742.72">
  </rect>
  <rect class="ColorScheme-Text" fill="currentColor" height="11" id="rect4035-5-1" width="0" x="517.84" y="740.67">
  </rect>
  <rect class="ColorScheme-Text" fill="currentColor" height="11" id="rect4035-8-3" width="0" x="499.8" y="742.72">
  </rect>
  <rect class="ColorScheme-Text" fill="currentColor" height="11" id="rect4035-59-4" width="0" x="499.8" y="742.72">
  </rect>
  <rect class="ColorScheme-Text" fill="currentColor" height="11" id="rect4035-1" width="0" x="505.81" y="746.94">
  </rect>
  <rect class="ColorScheme-Text" fill="currentColor" height="11" id="rect4035-5-0" width="0" x="523.85" y="744.88">
  </rect>
  <rect class="ColorScheme-Text" fill="currentColor" height="11" id="rect4035-8-1" width="0" x="505.81" y="746.94">
  </rect>
  <rect class="ColorScheme-Text" fill="currentColor" height="11" id="rect4035-59-1" width="0" x="505.81" y="746.94">
  </rect>
  <rect class="ColorScheme-Text" fill="currentColor" height="11" id="rect4035-7" width="0" x="507.1" y="747.55">
  </rect>
  <rect class="ColorScheme-Text" fill="currentColor" height="11" id="rect4035-5-7" width="0" x="525.14" y="745.5">
  </rect>
  <rect class="ColorScheme-Text" fill="currentColor" height="11" id="rect4035-8-16" width="0" x="507.1" y="747.55">
  </rect>
  <rect class="ColorScheme-Text" fill="currentColor" height="11" id="rect4035-59-18" width="0" x="507.1" y="747.55">
  </rect>
  <rect class="ColorScheme-Text" fill="currentColor" height="11" id="rect4035-6-5" width="0" x="499.8" y="742.72">
  </rect>
  <rect class="ColorScheme-Text" fill="currentColor" height="11" id="rect4035-5-1-8" width="0" x="517.84" y="740.67">
  </rect>
  <rect class="ColorScheme-Text" fill="currentColor" height="11" id="rect4035-8-3-8" width="0" x="499.8" y="742.72">
  </rect>
  <rect class="ColorScheme-Text" fill="currentColor" height="11" id="rect4035-59-4-7" width="0" x="499.8" y="742.72">
  </rect>
  <rect class="ColorScheme-Text" fill="currentColor" height="11" id="rect4035-1-7" width="0" x="505.81" y="746.94">
  </rect>
  <rect class="ColorScheme-Text" fill="currentColor" height="11" id="rect4035-5-0-8" width="0" x="523.85" y="744.88">
  </rect>
  <rect class="ColorScheme-Text" fill="currentColor" height="11" id="rect4035-8-1-0" width="0" x="505.81" y="746.94">
  </rect>
  <rect class="ColorScheme-Text" fill="currentColor" height="11" id="rect4035-59-1-3" width="0" x="505.81" y="746.94">
  </rect>
  <rect class="ColorScheme-Text" fill="currentColor" height="11" id="rect4035-0" width="0" x="504.57" y="750.93">
  </rect>
  <rect class="ColorScheme-Text" fill="currentColor" height="11" id="rect4035-5-5" width="0" x="522.61" y="748.88">
  </rect>
  <rect class="ColorScheme-Text" fill="currentColor" height="11" id="rect4035-8-6" width="0" x="504.57" y="750.93">
  </rect>
  <rect class="ColorScheme-Text" fill="currentColor" height="11" id="rect4035-59-11" width="0" x="504.57" y="750.93">
  </rect>
  <rect class="ColorScheme-Text" fill="currentColor" height="11" id="rect4035-9" width="0" x="488.58" y="747.3">
  </rect>
  <rect class="ColorScheme-Text" fill="currentColor" height="11" id="rect4035-5-8" width="0" x="506.62" y="745.25">
  </rect>
  <rect class="ColorScheme-Text" fill="currentColor" height="11" id="rect4035-8-0" width="0" x="488.58" y="747.3">
  </rect>
  <rect class="ColorScheme-Text" fill="currentColor" height="11" id="rect4035-59-1-8" width="0" x="488.58" y="747.3">
  </rect>
  <path class="ColorScheme-Text" d="m10.5 3v1.8125h1v-1.8125h-1zm-4.8125 1.9688l-0.7187 0.7187 1.2812 1.3125 0.7188-0.75-1.2813-1.2812zm10.624 0l-1.281 1.2812 0.719 0.75 1.281-1.3125-0.719-0.7187zm-5.312 1.0312c-2.7614 0-5 2.2386-5 5 0 2.761 2.2386 5 5 5 2.761 0 5-2.239 5-5 0-2.7614-2.239-5-5-5zm-8 4.5v1h1.8125v-1h-1.8125zm14.188 0v1h1.812v-1h-1.812zm-10.938 4.531l-1.2812 1.281 0.7187 0.719 1.2813-1.281-0.7188-0.719zm9.5 0l-0.719 0.719 1.281 1.281 0.719-0.719-1.281-1.281zm-5.25 2.157v1.812h1v-1.812h-1z" id="rect4148" style="fill:currentColor" transform="translate(544.57 742.93)">
  </path>
  <rect class="ColorScheme-Text" fill="currentColor" height="11" id="rect4035-69" width="0" x="507.1" y="747.55">
  </rect>
  <rect class="ColorScheme-Text" fill="currentColor" height="11" id="rect4035-5-4" width="0" x="525.14" y="745.5">
  </rect>
  <rect class="ColorScheme-Text" fill="currentColor" height="11" id="rect4035-8-72" width="0" x="507.1" y="747.55">
  </rect>
  <rect class="ColorScheme-Text" fill="currentColor" height="11" id="rect4035-59-0" width="0" x="507.1" y="747.55">
  </rect>
  <rect class="ColorScheme-Text" fill="currentColor" height="11" id="rect4035-6-9" width="0" x="499.8" y="742.72">
  </rect>
  <rect class="ColorScheme-Text" fill="currentColor" height="11" id="rect4035-5-1-1" width="0" x="517.84" y="740.67">
  </rect>
  <rect class="ColorScheme-Text" fill="currentColor" height="11" id="rect4035-8-3-7" width="0" x="499.8" y="742.72">
  </rect>
  <rect class="ColorScheme-Text" fill="currentColor" height="11" id="rect4035-59-4-5" width="0" x="499.8" y="742.72">
  </rect>
  <rect class="ColorScheme-Text" fill="currentColor" height="11" id="rect4035-1-1" width="0" x="505.81" y="746.94">
  </rect>
  <rect class="ColorScheme-Text" fill="currentColor" height="11" id="rect4035-5-0-2" width="0" x="523.85" y="744.88">
  </rect>
  <rect class="ColorScheme-Text" fill="currentColor" height="11" id="rect4035-8-1-4" width="0" x="505.81" y="746.94">
  </rect>
  <rect class="ColorScheme-Text" fill="currentColor" height="11" id="rect4035-59-1-7" width="0" x="505.81" y="746.94">
  </rect>
  <rect class="ColorScheme-Text" fill="currentColor" height="11" id="rect4035-7-1" width="0" x="507.1" y="747.55">
  </rect>
  <rect class="ColorScheme-Text" fill="currentColor" height="11" id="rect4035-5-7-6" width="0" x="525.14" y="745.5">
  </rect>
  <rect class="ColorScheme-Text" fill="currentColor" height="11" id="rect4035-8-16-2" width="0" x="507.1" y="747.55">
  </rect>
  <rect class="ColorScheme-Text" fill="currentColor" height="11" id="rect4035-59-18-3" width="0" x="507.1" y="747.55">
  </rect>
  <rect class="ColorScheme-Text" fill="currentColor" height="11" id="rect4035-6-5-7" width="0" x="499.8" y="742.72">
  </rect>
  <rect class="ColorScheme-Text" fill="currentColor" height="11" id="rect4035-5-1-8-8" width="0" x="517.84" y="740.67">
  </rect>
  <rect class="ColorScheme-Text" fill="currentColor" height="11" id="rect4035-8-3-8-9" width="0" x="499.8" y="742.72">
  </rect>
  <rect class="ColorScheme-Text" fill="currentColor" height="11" id="rect4035-59-4-7-6" width="0" x="499.8" y="742.72">
  </rect>
  <rect class="ColorScheme-Text" fill="currentColor" height="11" id="rect4035-1-7-1" width="0" x="505.81" y="746.94">
  </rect>
  <rect class="ColorScheme-Text" fill="currentColor" height="11" id="rect4035-5-0-8-1" width="0" x="523.85" y="744.88">
  </rect>
  <rect class="ColorScheme-Text" fill="currentColor" height="11" id="rect4035-8-1-0-5" width="0" x="505.81" y="746.94">
  </rect>
  <rect class="ColorScheme-Text" fill="currentColor" height="11" id="rect4035-59-1-3-6" width="0" x="505.81" y="746.94">
  </rect>
  <rect class="ColorScheme-Text" fill="currentColor" height="11" id="rect4035-0-5" width="0" x="504.57" y="750.93">
  </rect>
  <rect class="ColorScheme-Text" fill="currentColor" height="11" id="rect4035-5-5-1" width="0" x="522.61" y="748.88">
  </rect>
  <rect class="ColorScheme-Text" fill="currentColor" height="11" id="rect4035-8-6-9" width="0" x="504.57" y="750.93">
  </rect>
  <rect class="ColorScheme-Text" fill="currentColor" height="11" id="rect4035-59-11-7" width="0" x="504.57" y="750.93">
  </rect>
  <rect class="ColorScheme-Text" fill="currentColor" height="11" id="rect4035-9-9" width="0" x="488.58" y="747.3">
  </rect>
  <rect class="ColorScheme-Text" fill="currentColor" height="11" id="rect4035-5-8-5" width="0" x="506.62" y="745.25">
  </rect>
  <rect class="ColorScheme-Text" fill="currentColor" height="11" id="rect4035-8-0-9" width="0" x="488.58" y="747.3">
  </rect>
  <rect class="ColorScheme-Text" fill="currentColor" height="11" id="rect4035-59-1-8-3" width="0" x="488.58" y="747.3">
  </rect>
  <rect class="ColorScheme-Text" fill="currentColor" height="11" id="rect4035-3" width="0" x="507.1" y="747.55">
  </rect>
  <rect class="ColorScheme-Text" fill="currentColor" height="11" id="rect4035-5-2" width="0" x="525.14" y="745.5">
  </rect>
  <rect class="ColorScheme-Text" fill="currentColor" height="11" id="rect4035-8-7" width="0" x="507.1" y="747.55">
  </rect>
  <rect class="ColorScheme-Text" fill="currentColor" height="11" id="rect4035-59-43" width="0" x="507.1" y="747.55">
  </rect>
  <rect class="ColorScheme-Text" fill="currentColor" height="11" id="rect4035-6-2" width="0" x="499.8" y="742.72">
  </rect>
  <rect class="ColorScheme-Text" fill="currentColor" height="11" id="rect4035-5-1-6" width="0" x="517.84" y="740.67">
  </rect>
  <rect class="ColorScheme-Text" fill="currentColor" height="11" id="rect4035-8-3-4" width="0" x="499.8" y="742.72">
  </rect>
  <rect class="ColorScheme-Text" fill="currentColor" height="11" id="rect4035-59-4-8" width="0" x="499.8" y="742.72">
  </rect>
  <rect class="ColorScheme-Text" fill="currentColor" height="11" id="rect4035-1-8" width="0" x="505.81" y="746.94">
  </rect>
  <rect class="ColorScheme-Text" fill="currentColor" height="11" id="rect4035-5-0-0" width="0" x="523.85" y="744.88">
  </rect>
  <rect class="ColorScheme-Text" fill="currentColor" height="11" id="rect4035-8-1-3" width="0" x="505.81" y="746.94">
  </rect>
  <rect class="ColorScheme-Text" fill="currentColor" height="11" id="rect4035-59-1-1" width="0" x="505.81" y="746.94">
  </rect>
 </g>
</svg>
