<?xml version="1.0" encoding="UTF-8" standalone="no"?>
<!-- Created with Inkscape (http://www.inkscape.org/) -->
<svg height="22" id="svg7384" style="enable-background:new" version="1.1" width="22" xmlns="http://www.w3.org/2000/svg" xmlns:cc="http://creativecommons.org/ns#" xmlns:dc="http://purl.org/dc/elements/1.1/" xmlns:osb="http://www.openswatchbook.org/uri/2009/osb" xmlns:rdf="http://www.w3.org/1999/02/22-rdf-syntax-ns#">
 <defs>
  <style id="current-color-scheme" type="text/css">
   .ColorScheme-Text { color:#555555; }
  </style>
 </defs>
 <metadata id="metadata90">
  <rdf:rdf>
   <cc:work rdf:about="">
    <dc:format>
     image/svg+xml
    </dc:format>
    <dc:type rdf:resource="http://purl.org/dc/dcmitype/StillImage">
    </dc:type>
    <dc:title>
     Paper Symbolic Icon Theme
    </dc:title>
   </cc:work>
  </rdf:rdf>
 </metadata>
 <title id="title8473">
  Paper Symbolic Icon Theme
 </title>
 <g id="layer12" transform="translate(-505 39.003)">
  <g id="g4180" opacity=".5" transform="matrix(.72572 0 0 .81721 509 -35.885)">
   <g id="g4140">
    <path class="ColorScheme-Text" d="m7.621 10.267c-0.367 0.404-0.457 0.694-0.938 1.454 0.311 0.217 0.908 0.718 1.322 1.581 0.827-0.475 1.213-0.547 1.651-0.916 2.862-2.41 9.87-11.049 9.629-11.299-0.253-0.265-9.144 6.416-11.664 9.18zm-1.764 2.125c-1.243-0.22-2.47 0.566-3.289 2.53-0.82 1.964-2.284 2.75-2.568 2.702 1.528 0.553 6.188 1.967 7.346-3.416-0.492-1.291-1.489-1.816-1.489-1.816z" id="path4142" style="fill:currentColor">
    </path>
   </g>
  </g>
 </g>
</svg>
