<?xml version="1.0" encoding="UTF-8" standalone="no"?>
<!-- Created with Inkscape (http://www.inkscape.org/) -->
<svg height="22" id="svg3049" inkscape:export-filename="/home/uri/.kde/share/icons/NITRUX-KDE/16x16/actions/view-right-new.png" inkscape:export-xdpi="30" inkscape:export-ydpi="30" inkscape:version="0.91 r13725" sodipodi:docname="draw-bezier-curves.svg" version="1.1" width="22" xmlns="http://www.w3.org/2000/svg" xmlns:cc="http://creativecommons.org/ns#" xmlns:dc="http://purl.org/dc/elements/1.1/" xmlns:inkscape="http://www.inkscape.org/namespaces/inkscape" xmlns:rdf="http://www.w3.org/1999/02/22-rdf-syntax-ns#" xmlns:sodipodi="http://sodipodi.sourceforge.net/DTD/sodipodi-0.dtd" xmlns:svg="http://www.w3.org/2000/svg">
 <defs id="defs3051">
  <style id="current-color-scheme" type="text/css">
   .ColorScheme-Text {
        color:#4d4d4d;
      }
      .ColorScheme-Background {
        color:#eff0f1;
      }
      .ColorScheme-Highlight {
        color:#3daee9;
      }
      .ColorScheme-ViewText {
        color:#31363b;
      }
      .ColorScheme-ViewBackground {
        color:#fcfcfc;
      }
      .ColorScheme-ViewHover {
        color:#93cee9;
      }
      .ColorScheme-ViewFocus{
        color:#3daee9;
      }
      .ColorScheme-ButtonText {
        color:#31363b;
      }
      .ColorScheme-ButtonBackground {
        color:#eff0f1;
      }
      .ColorScheme-ButtonHover {
        color:#93cee9;
      }
      .ColorScheme-ButtonFocus{
        color:#3daee9;
      }
  </style>
 </defs>
 <sodipodi:namedview bordercolor="#666666" borderlayer="true" borderopacity="1.0" fit-margin-bottom="0" fit-margin-left="0" fit-margin-right="0" fit-margin-top="0" id="base" inkscape:current-layer="layer1" inkscape:cx="-11.108099" inkscape:cy="8.8330706" inkscape:document-units="px" inkscape:object-nodes="true" inkscape:pageopacity="0.0" inkscape:pageshadow="2" inkscape:showpageshadow="false" inkscape:snap-bbox="true" inkscape:snap-global="true" inkscape:window-height="847" inkscape:window-maximized="1" inkscape:window-width="1600" inkscape:window-x="0" inkscape:window-y="30" inkscape:zoom="24.411306" pagecolor="#000000" showgrid="false" showguides="false">
  <inkscape:grid id="grid4085" type="xygrid">
  </inkscape:grid>
  <sodipodi:guide id="guide4075" orientation="12,0" position="2.0000044,14.00003">
  </sodipodi:guide>
  <sodipodi:guide id="guide4077" orientation="0,12" position="2.0000044,2.0000296">
  </sodipodi:guide>
  <sodipodi:guide id="guide4079" orientation="-12,0" position="14.000004,2.0000296">
  </sodipodi:guide>
  <sodipodi:guide id="guide4081" orientation="0,-12" position="14.000004,14.00003">
  </sodipodi:guide>
 </sodipodi:namedview>
 <metadata id="metadata3054">
  <rdf:rdf>
   <cc:work rdf:about="">
    <dc:format>
     image/svg+xml
    </dc:format>
    <dc:type rdf:resource="http://purl.org/dc/dcmitype/StillImage">
    </dc:type>
    <dc:title>
    </dc:title>
   </cc:work>
  </rdf:rdf>
 </metadata>
 <g id="layer1" inkscape:groupmode="layer" inkscape:label="Capa 1" transform="translate(-421.71429,-525.79074)">
  <path class="ColorScheme-Text" d="m 437.21429,529.79074 a 2.5,2.5 0 0 0 -2.44922,2 l -8.05078,0 0,1 c 1.85517,0.95878 3.16505,2.47949 3.35742,3.30273 0.20854,0.89243 -0.0238,1.91183 -0.64844,3.00977 a 2.5,2.5 0 0 0 -1.20898,-0.3125 2.5,2.5 0 0 0 -2.5,2.5 2.5,2.5 0 0 0 2.5,2.5 2.5,2.5 0 0 0 2.44922,-2 l 3.05078,0 0,1 0,1 5,0 0,-5 -5,0 0,1 0,1 -3.05469,0 a 2.5,2.5 0 0 0 -0.44336,-0.99414 c 0.85239,-1.34544 1.2088,-2.62487 0.92383,-3.86523 -0.29376,-1.27864 -1.18443,-2.27613 -2.45703,-3.14063 l 6.08594,0 a 2.5,2.5 0 0 0 2.44531,2 2.5,2.5 0 0 0 2.5,-2.5 2.5,2.5 0 0 0 -2.5,-2.5 z" id="path4139" inkscape:connector-curvature="0" style="fill:currentColor">
  </path>
 </g>
</svg>
