<?xml version="1.0" encoding="UTF-8" standalone="no"?>
<!-- Created with Inkscape (http://www.inkscape.org/) -->
<svg height="22" id="svg3049" version="1.1" width="22" xmlns="http://www.w3.org/2000/svg" xmlns:cc="http://creativecommons.org/ns#" xmlns:dc="http://purl.org/dc/elements/1.1/" xmlns:rdf="http://www.w3.org/1999/02/22-rdf-syntax-ns#">
 <defs id="defs3051">
  <style id="current-color-scheme" type="text/css">
   .ColorScheme-Text {
        color:#4d4d4d;
      }
      .ColorScheme-Background {
        color:#eff0f1;
      }
      .ColorScheme-Highlight {
        color:#3daee9;
      }
      .ColorScheme-ViewText {
        color:#31363b;
      }
      .ColorScheme-ViewBackground {
        color:#fcfcfc;
      }
      .ColorScheme-ViewHover {
        color:#93cee9;
      }
      .ColorScheme-ViewFocus{
        color:#3daee9;
      }
      .ColorScheme-ButtonText {
        color:#31363b;
      }
      .ColorScheme-ButtonBackground {
        color:#eff0f1;
      }
      .ColorScheme-ButtonHover {
        color:#93cee9;
      }
      .ColorScheme-ButtonFocus{
        color:#3daee9;
      }
  </style>
 </defs>
 <metadata id="metadata3054">
  <rdf:rdf>
   <cc:work rdf:about="">
    <dc:format>
     image/svg+xml
    </dc:format>
    <dc:type rdf:resource="http://purl.org/dc/dcmitype/StillImage">
    </dc:type>
    <dc:title>
    </dc:title>
   </cc:work>
  </rdf:rdf>
 </metadata>
 <g id="layer1" transform="translate(-421.71 -525.79)">
  <path class="ColorScheme-Text" d="m430.71 529.79c-0.55226 0.00006-0.99994 0.44774-1 1v3h-3c-0.55226 0.00006-0.99994 0.44774-1 1v4c0.00006 0.55226 0.44774 0.99994 1 1h3v3c0.00006 0.55226 0.44774 0.99994 1 1h4c0.55226-0.00006 0.99994-0.44774 1-1v-3h3c0.55226-0.00006 0.99994-0.44774 1-1v-4c-0.00006-0.55226-0.44774-0.99994-1-1h-3v-3c-0.00006-0.55226-0.44774-0.99994-1-1h-4zm1 2h2v3 1h1 3v2h-3-1v1 3h-2v-3-1h-1-3v-2h3 1v-1-3z" fill-rule="evenodd" id="path4140" style="fill:currentColor">
  </path>
 </g>
</svg>
