<?xml version="1.0" encoding="UTF-8" standalone="no"?>
<!-- Created with Inkscape (http://www.inkscape.org/) -->
<svg height="22" id="svg7384" style="enable-background:new" version="1.1" width="22" xmlns="http://www.w3.org/2000/svg" xmlns:cc="http://creativecommons.org/ns#" xmlns:dc="http://purl.org/dc/elements/1.1/" xmlns:osb="http://www.openswatchbook.org/uri/2009/osb" xmlns:rdf="http://www.w3.org/1999/02/22-rdf-syntax-ns#">
 <defs>
  <style id="current-color-scheme" type="text/css">
   .ColorScheme-Text { color:#555555; }
  </style>
 </defs>
 <metadata id="metadata90">
  <rdf:rdf>
   <cc:work rdf:about="">
    <dc:format>
     image/svg+xml
    </dc:format>
    <dc:type rdf:resource="http://purl.org/dc/dcmitype/StillImage">
    </dc:type>
    <dc:title>
     Paper Symbolic Icon Theme
    </dc:title>
   </cc:work>
  </rdf:rdf>
 </metadata>
 <title id="title8473">
  Paper Symbolic Icon Theme
 </title>
 <g id="layer12" transform="translate(-385 59.003)">
  <path class="ColorScheme-Text" d="m390-54.003v8h4v4h8v-8h-4v-4h-8zm8 5c0.73867 0 1.334 0.68344 1.334 1.5234v1.4766h0.33203c0.18466 0 0.33398 0.16725 0.33398 0.375v2.25c0 0.20775-0.14932 0.375-0.33398 0.375h-3.332c-0.18467 0-0.33399-0.16725-0.33399-0.375v-2.25c0-0.20775 0.14932-0.375 0.33399-0.375h0.33203 0.33398 1 0.66602v-1.5c0-0.4155-0.29668-0.75-0.66602-0.75-0.36933 0-0.66601 0.3345-0.66601 0.75v0.375h-0.33399-0.33398v-0.375c0.0111-0.82935 0.60233-1.5 1.334-1.5z" id="rect4138" style="fill:currentColor">
  </path>
 </g>
</svg>
