<?xml version="1.0" encoding="UTF-8" standalone="no"?>
<!-- Created with Inkscape (http://www.inkscape.org/) -->
<svg height="22" id="svg3049" version="1.1" width="22" xmlns="http://www.w3.org/2000/svg" xmlns:cc="http://creativecommons.org/ns#" xmlns:dc="http://purl.org/dc/elements/1.1/" xmlns:rdf="http://www.w3.org/1999/02/22-rdf-syntax-ns#">
 <defs id="defs3051">
  <style id="current-color-scheme" type="text/css">
   .ColorScheme-Text {
        color:#4d4d4d;
      }
      .ColorScheme-Background {
        color:#eff0f1;
      }
      .ColorScheme-Highlight {
        color:#3daee9;
      }
      .ColorScheme-ViewText {
        color:#31363b;
      }
      .ColorScheme-ViewBackground {
        color:#fcfcfc;
      }
      .ColorScheme-ViewHover {
        color:#93cee9;
      }
      .ColorScheme-ViewFocus{
        color:#3daee9;
      }
      .ColorScheme-ButtonText {
        color:#31363b;
      }
      .ColorScheme-ButtonBackground {
        color:#eff0f1;
      }
      .ColorScheme-ButtonHover {
        color:#93cee9;
      }
      .ColorScheme-ButtonFocus{
        color:#3daee9;
      }
  </style>
 </defs>
 <metadata id="metadata3054">
  <rdf:rdf>
   <cc:work rdf:about="">
    <dc:format>
     image/svg+xml
    </dc:format>
    <dc:type rdf:resource="http://purl.org/dc/dcmitype/StillImage">
    </dc:type>
    <dc:title>
    </dc:title>
   </cc:work>
  </rdf:rdf>
 </metadata>
 <g id="layer1" transform="translate(-421.71 -525.79)">
  <g id="layer1-0" transform="matrix(.75 0 0 0.75 421.46 -241.23)">
   <g id="layer1-6" transform="translate(6.2938e-7 -.00020410)">
    <text fill="#000000" font-family="Sans" font-size="12px" id="text3781" line-height="125%" style="word-spacing:0px;letter-spacing:0px" transform="scale(1)" x="16.914654" xml:space="preserve" y="1053.0374">
     <tspan id="tspan3783" x="16.914654" y="1053.0374">
     </tspan>
    </text>
    <path class="ColorScheme-Text" d="m5.6667 1028v18.667h18.667v-18.667h-18.667zm2.6667 2.6667h5.3333v4.3698c-0.40076 0.2331-0.73049 0.5628-0.96354 0.9636h-4.3698v-5.3334zm8 0h5.3333v5.3334h-4.3698c-0.23305-0.4008-0.56278-0.7305-0.96354-0.9636v-4.3698zm-8 8h4.3698c0.23305 0.4008 0.56278 0.7305 0.96354 0.9636v4.3698h-5.3333v-5.3334zm8.9635 0h4.3698v5.3334h-5.3333v-4.3698c0.40076-0.2331 0.73049-0.5628 0.96354-0.9636z" fill-rule="evenodd" id="rect4152-9" style="fill:currentColor">
    </path>
   </g>
  </g>
 </g>
</svg>
