<?xml version="1.0" encoding="UTF-8" standalone="no"?>
<!-- Created with Inkscape (http://www.inkscape.org/) -->
<svg height="22" id="svg3869" version="1.1" width="22" xmlns="http://www.w3.org/2000/svg" xmlns:cc="http://creativecommons.org/ns#" xmlns:dc="http://purl.org/dc/elements/1.1/" xmlns:rdf="http://www.w3.org/1999/02/22-rdf-syntax-ns#">
 <defs id="defs3871">
  <style id="current-color-scheme" type="text/css">
   .ColorScheme-Text {
        color:#4d4d4d;
      }
      .ColorScheme-Background {
        color:#eff0f1;
      }
      .ColorScheme-Highlight {
        color:#3daee9;
      }
      .ColorScheme-ViewText {
        color:#31363b;
      }
      .ColorScheme-ViewBackground {
        color:#fcfcfc;
      }
      .ColorScheme-ViewHover {
        color:#93cee9;
      }
      .ColorScheme-ViewFocus{
        color:#3daee9;
      }
      .ColorScheme-ButtonText {
        color:#31363b;
      }
      .ColorScheme-ButtonBackground {
        color:#eff0f1;
      }
      .ColorScheme-ButtonHover {
        color:#93cee9;
      }
      .ColorScheme-ButtonFocus{
        color:#3daee9;
      }
  </style>
 </defs>
 <metadata id="metadata3874">
  <rdf:rdf>
   <cc:work rdf:about="">
    <dc:format>
     image/svg+xml
    </dc:format>
    <dc:type rdf:resource="http://purl.org/dc/dcmitype/StillImage">
    </dc:type>
    <dc:title>
    </dc:title>
   </cc:work>
  </rdf:rdf>
 </metadata>
 <g id="layer1" transform="translate(-326 -534.36)">
  <path class="ColorScheme-Text" d="m3 3v7h8v-7h-8zm9 1.0781v1.0117 2.9102h1v-2.6445c2.393 0.846 3.995 3.1063 4 5.6445h1c-0.003-3.4773-2.558-6.4251-6-6.9219zm-8 6.9219c0.003 3.477 2.5584 6.425 6 6.922v-1.012-2.91h-1v2.645c-2.393-0.847-3.9948-3.107-4-5.645h-1zm11.5 1a3.5 3.5 0 0 0 -3.5 3.5 3.5 3.5 0 0 0 0.699 2.094l0.717-0.717a2.5 2.5 0 0 1 -0.416 -1.377 2.5 2.5 0 0 1 2.5 -2.5 2.5 2.5 0 0 1 1.377 0.416l0.717-0.717a3.5 3.5 0 0 0 -2.094 -0.699zm2.801 1.406l-0.717 0.717a2.5 2.5 0 0 1 0.416 1.377 2.5 2.5 0 0 1 -2.5 2.5 2.5 2.5 0 0 1 -1.377 -0.416l-0.717 0.717a3.5 3.5 0 0 0 2.094 0.699 3.5 3.5 0 0 0 3.5 -3.5 3.5 3.5 0 0 0 -0.699 -2.094z" id="rect4253" style="fill:currentColor" transform="translate(326 534.36)">
  </path>
 </g>
</svg>
