<?xml version="1.0" encoding="UTF-8" standalone="no"?>
<!-- Created with Inkscape (http://www.inkscape.org/) -->
<svg height="22" id="svg3049" version="1.1" width="22" xmlns="http://www.w3.org/2000/svg" xmlns:cc="http://creativecommons.org/ns#" xmlns:dc="http://purl.org/dc/elements/1.1/" xmlns:rdf="http://www.w3.org/1999/02/22-rdf-syntax-ns#">
 <defs id="defs3051">
  <style id="current-color-scheme" type="text/css">
   .ColorScheme-Text {
        color:#4d4d4d;
      }
      .ColorScheme-Background {
        color:#eff0f1;
      }
      .ColorScheme-Highlight {
        color:#3daee9;
      }
      .ColorScheme-ViewText {
        color:#31363b;
      }
      .ColorScheme-ViewBackground {
        color:#fcfcfc;
      }
      .ColorScheme-ViewHover {
        color:#93cee9;
      }
      .ColorScheme-ViewFocus{
        color:#3daee9;
      }
      .ColorScheme-ButtonText {
        color:#31363b;
      }
      .ColorScheme-ButtonBackground {
        color:#eff0f1;
      }
      .ColorScheme-ButtonHover {
        color:#93cee9;
      }
      .ColorScheme-ButtonFocus{
        color:#3daee9;
      }
  </style>
 </defs>
 <metadata id="metadata3054">
  <rdf:rdf>
   <cc:work rdf:about="">
    <dc:format>
     image/svg+xml
    </dc:format>
    <dc:type rdf:resource="http://purl.org/dc/dcmitype/StillImage">
    </dc:type>
    <dc:title>
    </dc:title>
   </cc:work>
  </rdf:rdf>
 </metadata>
 <g id="layer1" transform="translate(-421.71 -525.79)">
  <rect class="ColorScheme-Text" fill="currentColor" height="11" id="rect4035" style="color:#4d4d4d" width="0" x="398.04" y="533.89">
  </rect>
  <rect class="ColorScheme-Text" fill="currentColor" height="11" id="rect4035-5" style="color:#4d4d4d" width="0" x="416.08" y="531.84">
  </rect>
  <rect class="ColorScheme-Text" fill="currentColor" height="11" id="rect4035-8" style="color:#4d4d4d" width="0" x="398.04" y="533.89">
  </rect>
  <rect class="ColorScheme-Text" fill="currentColor" height="11" id="rect4035-59" style="color:#4d4d4d" width="0" x="398.04" y="533.89">
  </rect>
  <text class="ColorScheme-Text" fill="currentColor" font-family="Sans" font-size="9px" id="text3781" line-height="125%" style="color:#4d4d4d;word-spacing:0px;letter-spacing:0px" x="413.47781" xml:space="preserve" y="546.64935">
   <tspan id="tspan3783" x="413.47781" y="546.64935">
   </tspan>
  </text>
  <text class="ColorScheme-Text" fill="currentColor" font-family="Sans" font-size="9px" id="text3781-8" line-height="125%" style="color:#4d4d4d;word-spacing:0px;letter-spacing:0px" x="414.21451" xml:space="preserve" y="540.78601">
   <tspan id="tspan3783-1" x="414.21451" y="540.78601">
   </tspan>
  </text>
  <rect class="ColorScheme-Text" fill="currentColor" height="11" id="rect4035-4" style="color:#4d4d4d" width="0" x="404.71" y="533.79">
  </rect>
  <rect class="ColorScheme-Text" fill="currentColor" height="11" id="rect4035-5-7" style="color:#4d4d4d" width="0" x="422.76" y="531.74">
  </rect>
  <rect class="ColorScheme-Text" fill="currentColor" height="11" id="rect4035-8-9" style="color:#4d4d4d" width="0" x="404.71" y="533.79">
  </rect>
  <rect class="ColorScheme-Text" fill="currentColor" height="11" id="rect4035-59-5" style="color:#4d4d4d" width="0" x="404.71" y="533.79">
  </rect>
  <text fill="#000000" font-family="Sans" font-size="9px" id="text3781-6" line-height="125%" style="word-spacing:0px;letter-spacing:0px" x="420.15027" xml:space="preserve" y="546.54797">
   <tspan id="tspan3783-7" x="420.15027" y="546.54797">
   </tspan>
  </text>
  <text fill="#000000" font-family="Sans" font-size="9px" id="text3781-8-2" line-height="125%" style="word-spacing:0px;letter-spacing:0px" x="420.88696" xml:space="preserve" y="540.68463">
   <tspan id="tspan3783-1-6" x="420.88696" y="540.68463">
   </tspan>
  </text>
  <text fill="#000000" font-family="Sans" font-size="9px" id="text3781-4" line-height="125%" style="word-spacing:0px;letter-spacing:0px" x="414.15027" xml:space="preserve" y="547.54797">
   <tspan id="tspan3783-13" x="414.15027" y="547.54797">
   </tspan>
  </text>
  <rect fill="#04896a" height="14.668" id="rect4035-82" width="0" x="366.74" y="510.9">
  </rect>
  <rect fill="#16907d" height="14.668" id="rect4035-8-7" width="0" x="373.7" y="533.47">
  </rect>
  <rect fill="#6c7a89" height="14.668" id="rect4035-0" width="0" x="375.51" y="532.41">
  </rect>
  <path class="ColorScheme-Text" d="m430.71 533.79c-1.1046 0-2 0.89543-2 2v1 1.5 0.0312h0.002a1.5 1.5 0 0 0 1.498 1.4688 1.5 1.5 0 0 0 1.5 -1.5 1.5 1.5 0 0 0 -1.5 -1.5 1.5 1.5 0 0 0 -0.0312 0.002v-0.002h-0.46875v-1c0-0.55228 0.44772-1 1-1v-1zm4 0c-1.1046 0-2 0.89543-2 2v1 1.5 0.0312h0.002a1.5 1.5 0 0 0 1.498 1.4688 1.5 1.5 0 0 0 1.5 -1.5 1.5 1.5 0 0 0 -1.5 -1.5 1.5 1.5 0 0 0 -0.0312 0.002v-0.002h-0.46875v-1c0-0.55228 0.44772-1 1-1v-1z" id="rect4457" style="fill:currentColor">
  </path>
 </g>
</svg>
