<?xml version="1.0" encoding="UTF-8" standalone="no"?>
<!-- Created with Inkscape (http://www.inkscape.org/) -->
<svg height="22" id="svg3049" version="1.1" width="22" xmlns="http://www.w3.org/2000/svg" xmlns:cc="http://creativecommons.org/ns#" xmlns:dc="http://purl.org/dc/elements/1.1/" xmlns:rdf="http://www.w3.org/1999/02/22-rdf-syntax-ns#">
 <defs id="defs3051">
  <style id="current-color-scheme" type="text/css">
   .ColorScheme-Text {
        color:#4d4d4d;
      }
      .ColorScheme-Background {
        color:#eff0f1;
      }
      .ColorScheme-Highlight {
        color:#3daee9;
      }
      .ColorScheme-ViewText {
        color:#31363b;
      }
      .ColorScheme-ViewBackground {
        color:#fcfcfc;
      }
      .ColorScheme-ViewHover {
        color:#93cee9;
      }
      .ColorScheme-ViewFocus{
        color:#3daee9;
      }
      .ColorScheme-ButtonText {
        color:#31363b;
      }
      .ColorScheme-ButtonBackground {
        color:#eff0f1;
      }
      .ColorScheme-ButtonHover {
        color:#93cee9;
      }
      .ColorScheme-ButtonFocus{
        color:#3daee9;
      }
  </style>
 </defs>
 <metadata id="metadata3054">
  <rdf:rdf>
   <cc:work rdf:about="">
    <dc:format>
     image/svg+xml
    </dc:format>
    <dc:type rdf:resource="http://purl.org/dc/dcmitype/StillImage">
    </dc:type>
    <dc:title>
    </dc:title>
   </cc:work>
  </rdf:rdf>
 </metadata>
 <g id="layer1" transform="translate(-421.71 -525.79)">
  <rect fill="#4d4d4d" height="11" id="rect4035" width="0" x="418.21" y="534.79">
  </rect>
  <rect fill="#4d4d4d" height="11" id="rect4035-2" width="0" x="412.07" y="535.06">
  </rect>
  <rect fill="#4d4d4d" height="11" id="rect4035-5" width="0" x="430.11" y="533.01">
  </rect>
  <rect fill="#4d4d4d" height="11" id="rect4035-8" width="0" x="412.07" y="535.06">
  </rect>
  <rect fill="#4d4d4d" height="11" id="rect4035-59" width="0" x="412.07" y="535.06">
  </rect>
  <text fill="#4d4d4d" font-family="Sans" font-size="9px" id="text3781" line-height="125%" style="word-spacing:0px;letter-spacing:0px" x="427.51004" xml:space="preserve" y="547.81396">
   <tspan id="tspan3783" x="427.51004" y="547.81396">
   </tspan>
  </text>
  <text fill="#4d4d4d" font-family="Sans" font-size="9px" id="text3781-8" line-height="125%" style="word-spacing:0px;letter-spacing:0px" x="428.24673" xml:space="preserve" y="541.95062">
   <tspan id="tspan3783-1" x="428.24673" y="541.95062">
   </tspan>
  </text>
  <text fill="#4d4d4d" font-family="Sans" font-size="9px" id="text3781-4" line-height="125%" style="word-spacing:0px;letter-spacing:0px" x="421.51004" xml:space="preserve" y="548.81396">
   <tspan id="tspan3783-13" x="421.51004" y="548.81396">
   </tspan>
  </text>
  <rect fill="#4d4d4d" height="11" id="rect4035-9" width="0" x="412.07" y="535.06">
  </rect>
  <rect fill="#4d4d4d" height="11" id="rect4035-5-7" width="0" x="430.11" y="533.01">
  </rect>
  <rect fill="#4d4d4d" height="11" id="rect4035-9-0" width="0" x="392.07" y="535.06">
  </rect>
  <rect fill="#4d4d4d" height="11" id="rect4035-5-7-5" width="0" x="410.11" y="533.01">
  </rect>
  <rect fill="#4d4d4d" height="11" id="rect4035-90" width="0" x="410.21" y="512.79">
  </rect>
  <path class="ColorScheme-Text" d="m434.71 530.79 2.5 3 2.5-3h-5zm-1 1v11h1v-0.76953a3 3 0 0 0 2 0.76953 3 3 0 0 0 3 -3 3 3 0 0 0 -3 -3 3 3 0 0 0 -2 0.76758v-5.7676h-1zm-5 5a3 3 0 0 0 -3 3 3 3 0 0 0 3 3 3 3 0 0 0 2 -0.76758v0.76758h1v-6h-1v0.76953a3 3 0 0 0 -2 -0.76953zm0 1a2 2 0 0 1 2 2 2 2 0 0 1 -2 2 2 2 0 0 1 -2 -2 2 2 0 0 1 2 -2zm8 0a2 2 0 0 1 2 2 2 2 0 0 1 -2 2 2 2 0 0 1 -2 -2 2 2 0 0 1 2 -2z" id="path5641" style="fill:currentColor">
  </path>
 </g>
</svg>
