<?xml version="1.0" encoding="UTF-8" standalone="no"?>
<!-- Created with Inkscape (http://www.inkscape.org/) -->
<svg height="22" id="svg7384" style="enable-background:new" version="1.1" width="22" xmlns="http://www.w3.org/2000/svg" xmlns:cc="http://creativecommons.org/ns#" xmlns:dc="http://purl.org/dc/elements/1.1/" xmlns:osb="http://www.openswatchbook.org/uri/2009/osb" xmlns:rdf="http://www.w3.org/1999/02/22-rdf-syntax-ns#">
 <metadata id="metadata90">
  <rdf:rdf>
   <cc:work rdf:about="">
    <dc:format>
     image/svg+xml
    </dc:format>
    <dc:type rdf:resource="http://purl.org/dc/dcmitype/StillImage">
    </dc:type>
    <dc:title>
     Paper Symbolic Icon Theme
    </dc:title>
   </cc:work>
  </rdf:rdf>
 </metadata>
 <title id="title8473">
  Paper Symbolic Icon Theme
 </title>
 <defs id="defs7386">
  <style id="current-color-scheme" type="text/css">
   .ColorScheme-Text {
        color:#4d4d4d;
      }
      .ColorScheme-Background {
        color:#eff0f1;
      }
      .ColorScheme-Highlight {
        color:#3daee9;
      }
      .ColorScheme-ViewText {
        color:#31363b;
      }
      .ColorScheme-ViewBackground {
        color:#fcfcfc;
      }
      .ColorScheme-ViewHover {
        color:#93cee9;
      }
      .ColorScheme-ViewFocus{
        color:#3daee9;
      }
      .ColorScheme-ButtonText {
        color:#31363b;
      }
      .ColorScheme-ButtonBackground {
        color:#eff0f1;
      }
      .ColorScheme-ButtonHover {
        color:#93cee9;
      }
      .ColorScheme-ButtonFocus{
        color:#3daee9;
      }
  </style>
 </defs>
 <g id="layer12" transform="translate(-525 105.01)">
  <path class="ColorScheme-Text" d="m529.84-100.01c-0.28125 0.0469-0.84375 0.25-0.84375 1v11s0 1 1 1h8.6719v-1.6816c-0.39787 0.31542-0.96894 0.28266-1.3281-0.07617l-0.70703-0.70703c-0.39037-0.39053-0.39037-1.0235 0-1.4141l0.94922-0.94922 1.8789-1.8789c0.18415-0.18422 0.43291-0.28933 0.69336-0.29297 0.26993-0.0036 0.52986 0.10205 0.72071 0.29297l1.8789 1.8789 0.24219 0.24219v-5.4141c0-1-1-1-1-1h-5l-2-2h-5s-0.0625-0.0156-0.15625 0zm10.328 7-1.8789 1.8789-0.94922 0.94922 0.70703 0.70703 0.94922-0.94922 0.67188-0.67188v2.0859 2h1v-1-1-2.0859l0.67187 0.67188 0.94922 0.94922 0.70703-0.70703-0.94922-0.94922-1.8789-1.8789z" id="path4247" style="fill:currentColor">
  </path>
  <text fill="#000000" font-family="Sans" font-size="9px" id="text3781" line-height="125%" style="word-spacing:0px;letter-spacing:0px" x="512.0119" xml:space="preserve" y="-91.443733">
   <tspan id="tspan3783" x="512.0119" y="-91.443733">
   </tspan>
  </text>
  <rect class="ColorScheme-Text" fill="currentColor" height="11" id="rect4035" style="color:#4d4d4d" transform="scale(-1,1)" width="0" x="-571.67" y="-84.076">
  </rect>
  <rect class="ColorScheme-Text" fill="currentColor" height="11" id="rect4035-5" style="color:#4d4d4d" transform="scale(-1,1)" width="0" x="-553.63" y="-86.127">
  </rect>
  <rect class="ColorScheme-Text" fill="currentColor" height="11" id="rect4035-8" style="color:#4d4d4d" transform="scale(-1,1)" width="0" x="-571.67" y="-84.076">
  </rect>
  <rect class="ColorScheme-Text" fill="currentColor" height="11" id="rect4035-59" style="color:#4d4d4d" transform="scale(-1,1)" width="0" x="-571.67" y="-84.076">
  </rect>
  <text class="ColorScheme-Text" fill="currentColor" font-family="Sans" font-size="9px" id="text3781-9" line-height="125%" style="color:#4d4d4d;word-spacing:0px;letter-spacing:0px" transform="scale(-1 1)" x="-556.2337" xml:space="preserve" y="-71.318726">
   <tspan id="tspan3783-5" x="-556.2337" y="-71.318726">
   </tspan>
  </text>
  <text class="ColorScheme-Text" fill="currentColor" font-family="Sans" font-size="9px" id="text3781-8" line-height="125%" style="color:#4d4d4d;word-spacing:0px;letter-spacing:0px" transform="scale(-1 1)" x="-555.49701" xml:space="preserve" y="-77.18203">
   <tspan id="tspan3783-1" x="-555.49701" y="-77.18203">
   </tspan>
  </text>
  <text class="ColorScheme-Text" fill="currentColor" font-family="Sans" font-size="9px" id="text3781-4" line-height="125%" style="color:#4d4d4d;word-spacing:0px;letter-spacing:0px" transform="scale(-1 1)" x="-562.2337" xml:space="preserve" y="-70.318695">
   <tspan id="tspan3783-13" x="-562.2337" y="-70.318695">
   </tspan>
  </text>
  <rect class="ColorScheme-Text" fill="currentColor" height="11" id="rect4035-9" style="color:#4d4d4d" transform="scale(-1,1)" width="0" x="-571.67" y="-84.076">
  </rect>
  <rect class="ColorScheme-Text" fill="currentColor" height="11" id="rect4035-5-7" style="color:#4d4d4d" transform="scale(-1,1)" width="0" x="-553.63" y="-86.127">
  </rect>
  <rect class="ColorScheme-Text" fill="currentColor" height="11" id="rect4035-9-0" style="color:#4d4d4d" transform="scale(-1,1)" width="0" x="-591.67" y="-84.076">
  </rect>
  <rect class="ColorScheme-Text" fill="currentColor" height="11" id="rect4035-5-7-5" style="color:#4d4d4d" transform="scale(-1,1)" width="0" x="-573.63" y="-86.127">
  </rect>
  <rect class="ColorScheme-Text" fill="currentColor" height="11" id="rect4035-3" style="color:#4d4d4d" transform="scale(-1,1)" width="0" x="-571.67" y="-84.076">
  </rect>
  <rect class="ColorScheme-Text" fill="currentColor" height="11" id="rect4035-5-4" style="color:#4d4d4d" transform="scale(-1,1)" width="0" x="-553.63" y="-86.127">
  </rect>
  <rect class="ColorScheme-Text" fill="currentColor" height="11" id="rect4035-8-7" style="color:#4d4d4d" transform="scale(-1,1)" width="0" x="-571.67" y="-84.076">
  </rect>
  <rect class="ColorScheme-Text" fill="currentColor" height="11" id="rect4035-59-1" style="color:#4d4d4d" transform="scale(-1,1)" width="0" x="-571.67" y="-84.076">
  </rect>
  <text class="ColorScheme-Text" fill="currentColor" font-family="Sans" font-size="9px" id="text3781-1" line-height="125%" style="color:#4d4d4d;word-spacing:0px;letter-spacing:0px" transform="scale(-1 1)" x="-556.2337" xml:space="preserve" y="-71.318726">
   <tspan id="tspan3783-8" x="-556.2337" y="-71.318726">
   </tspan>
  </text>
  <text class="ColorScheme-Text" fill="currentColor" font-family="Sans" font-size="9px" id="text3781-8-2" line-height="125%" style="color:#4d4d4d;word-spacing:0px;letter-spacing:0px" transform="scale(-1 1)" x="-555.49701" xml:space="preserve" y="-77.18203">
   <tspan id="tspan3783-1-6" x="-555.49701" y="-77.18203">
   </tspan>
  </text>
  <text class="ColorScheme-Text" fill="currentColor" font-family="Sans" font-size="9px" id="text3781-4-7" line-height="125%" style="color:#4d4d4d;word-spacing:0px;letter-spacing:0px" transform="scale(-1 1)" x="-562.2337" xml:space="preserve" y="-70.318695">
   <tspan id="tspan3783-13-8" x="-562.2337" y="-70.318695">
   </tspan>
  </text>
  <rect class="ColorScheme-Text" fill="currentColor" height="11" id="rect4035-9-08" style="color:#4d4d4d" transform="scale(-1,1)" width="0" x="-571.67" y="-84.076">
  </rect>
  <rect class="ColorScheme-Text" fill="currentColor" height="11" id="rect4035-5-7-8" style="color:#4d4d4d" transform="scale(-1,1)" width="0" x="-553.63" y="-86.127">
  </rect>
  <rect class="ColorScheme-Text" fill="currentColor" height="11" id="rect4035-9-0-2" style="color:#4d4d4d" transform="scale(-1,1)" width="0" x="-591.67" y="-84.076">
  </rect>
  <rect class="ColorScheme-Text" fill="currentColor" height="11" id="rect4035-5-7-5-2" style="color:#4d4d4d" transform="scale(-1,1)" width="0" x="-573.63" y="-86.127">
  </rect>
  <rect class="ColorScheme-Text" fill="currentColor" height="11" id="rect4035-2" style="color:#4d4d4d" transform="scale(-1,1)" width="0" x="-575.9" y="-82.101">
  </rect>
  <rect class="ColorScheme-Text" fill="currentColor" height="11" id="rect4035-5-0" style="color:#4d4d4d" transform="scale(-1,1)" width="0" x="-557.86" y="-84.152">
  </rect>
  <rect class="ColorScheme-Text" fill="currentColor" height="11" id="rect4035-8-1" style="color:#4d4d4d" transform="scale(-1,1)" width="0" x="-575.9" y="-82.101">
  </rect>
  <rect class="ColorScheme-Text" fill="currentColor" height="11" id="rect4035-59-7" style="color:#4d4d4d" transform="scale(-1,1)" width="0" x="-575.9" y="-82.101">
  </rect>
  <text class="ColorScheme-Text" fill="currentColor" font-family="Sans" font-size="9px" id="text3781-41" line-height="125%" style="color:#4d4d4d;word-spacing:0px;letter-spacing:0px" transform="scale(-1 1)" x="-560.46808" xml:space="preserve" y="-69.34375">
   <tspan id="tspan3783-9" x="-560.46808" y="-69.34375">
   </tspan>
  </text>
  <text class="ColorScheme-Text" fill="currentColor" font-family="Sans" font-size="9px" id="text3781-8-7" line-height="125%" style="color:#4d4d4d;word-spacing:0px;letter-spacing:0px" transform="scale(-1 1)" x="-559.73138" xml:space="preserve" y="-75.207054">
   <tspan id="tspan3783-1-2" x="-559.73138" y="-75.207054">
   </tspan>
  </text>
  <text class="ColorScheme-Text" fill="currentColor" font-family="Sans" font-size="9px" id="text3781-4-3" line-height="125%" style="color:#4d4d4d;word-spacing:0px;letter-spacing:0px" transform="scale(-1 1)" x="-566.46808" xml:space="preserve" y="-68.343719">
   <tspan id="tspan3783-13-6" x="-566.46808" y="-68.343719">
   </tspan>
  </text>
  <rect class="ColorScheme-Text" fill="currentColor" height="11" id="rect4035-9-9" style="color:#4d4d4d" transform="scale(-1,1)" width="0" x="-575.9" y="-82.101">
  </rect>
  <rect class="ColorScheme-Text" fill="currentColor" height="11" id="rect4035-5-7-9" style="color:#4d4d4d" transform="scale(-1,1)" width="0" x="-557.86" y="-84.152">
  </rect>
  <rect class="ColorScheme-Text" fill="currentColor" height="11" id="rect4035-9-0-5" style="color:#4d4d4d" transform="scale(-1,1)" width="0" x="-595.9" y="-82.101">
  </rect>
  <rect class="ColorScheme-Text" fill="currentColor" height="11" id="rect4035-5-7-5-3" style="color:#4d4d4d" transform="scale(-1,1)" width="0" x="-577.86" y="-84.152">
  </rect>
 </g>
</svg>
