<?xml version="1.0" encoding="UTF-8" standalone="no"?>
<!-- Created with Inkscape (http://www.inkscape.org/) -->
<svg height="22" id="svg2" version="1.1" width="22" xmlns="http://www.w3.org/2000/svg" xmlns:cc="http://creativecommons.org/ns#" xmlns:dc="http://purl.org/dc/elements/1.1/" xmlns:rdf="http://www.w3.org/1999/02/22-rdf-syntax-ns#">
 <defs>
  <style id="current-color-scheme" type="text/css">
   .ColorScheme-Text { color:#555555; }
  </style>
 </defs>
 <metadata id="metadata7">
  <rdf:rdf>
   <cc:work rdf:about="">
    <dc:format>
     image/svg+xml
    </dc:format>
    <dc:type rdf:resource="http://purl.org/dc/dcmitype/StillImage">
    </dc:type>
    <dc:title>
    </dc:title>
   </cc:work>
  </rdf:rdf>
 </metadata>
 <g id="layer1" transform="translate(0 -1030.4)">
  <path class="ColorScheme-Text" d="m11 1034.4c-3.8659 0-7 2.3506-7 5.25 0 2.855 3.2159 5.6795 7 5.75v3c7-4 7-6.7675 7-8.75 0-2.8994-3.1341-5.25-7-5.25zm-4 3h3v3c0 1-1 2-2 2v-1s1 0 1-1h-2v-3zm5 0h3v3c0 1-1 2-2 2v-1s1 0 1-1h-2v-3z" id="path4147" style="fill:currentColor">
  </path>
 </g>
</svg>
