<?xml version="1.0" encoding="UTF-8" standalone="no"?>
<!-- Created with Inkscape (http://www.inkscape.org/) -->
<svg height="22" id="svg7384" style="enable-background:new" version="1.1" width="22" xmlns="http://www.w3.org/2000/svg" xmlns:cc="http://creativecommons.org/ns#" xmlns:dc="http://purl.org/dc/elements/1.1/" xmlns:osb="http://www.openswatchbook.org/uri/2009/osb" xmlns:rdf="http://www.w3.org/1999/02/22-rdf-syntax-ns#">
 <metadata id="metadata90">
  <rdf:rdf>
   <cc:work rdf:about="">
    <dc:format>
     image/svg+xml
    </dc:format>
    <dc:type rdf:resource="http://purl.org/dc/dcmitype/StillImage">
    </dc:type>
    <dc:title>
     Paper Symbolic Icon Theme
    </dc:title>
   </cc:work>
  </rdf:rdf>
 </metadata>
 <title id="title8473">
  Paper Symbolic Icon Theme
 </title>
 <defs id="defs7386">
  <style id="current-color-scheme" type="text/css">
   .ColorScheme-Text { color:#555555; }
  </style>
  <filter id="filter7554" style="color-interpolation-filters:sRGB">
   <feblend id="feBlend7556" in2="BackgroundImage" mode="darken">
   </feblend>
  </filter>
 </defs>
 <g id="layer12" transform="translate(-265 -40.997)">
  <path class="ColorScheme-Text" d="m269 44.993v2 2.0039 2 2 2 1.9961 2h2 4v-2-5.9961h8v-2-4.0039h-12-2zm2 2h2v2.0039h-2v-2.0039zm4 0h2v2.0039h-2v-2.0039zm4 0h2v2.0039h-2v-2.0039zm-8 4.0039h2v2h-2v-2zm8 2v2h-2v2h2v2h2v-2h2v-2h-2v-2h-2zm-8 2h2v1.9961h-2v-1.9961z" id="path4156" style="fill:currentColor">
  </path>
 </g>
</svg>
