<?xml version="1.0" encoding="UTF-8" standalone="no"?>
<!-- Created with Inkscape (http://www.inkscape.org/) -->
<svg height="22" id="svg7384" style="enable-background:new" version="1.1" width="22" xmlns="http://www.w3.org/2000/svg" xmlns:cc="http://creativecommons.org/ns#" xmlns:dc="http://purl.org/dc/elements/1.1/" xmlns:osb="http://www.openswatchbook.org/uri/2009/osb" xmlns:rdf="http://www.w3.org/1999/02/22-rdf-syntax-ns#">
 <defs>
  <style id="current-color-scheme" type="text/css">
   .ColorScheme-Text { color:#555555; }
  </style>
 </defs>
 <metadata id="metadata90">
  <rdf:rdf>
   <cc:work rdf:about="">
    <dc:format>
     image/svg+xml
    </dc:format>
    <dc:type rdf:resource="http://purl.org/dc/dcmitype/StillImage">
    </dc:type>
    <dc:title>
     Paper Symbolic Icon Theme
    </dc:title>
   </cc:work>
  </rdf:rdf>
 </metadata>
 <title id="title8473">
  Paper Symbolic Icon Theme
 </title>
 <g id="layer12" transform="translate(-265 79.003)">
  <path class="ColorScheme-Text" d="m270-74.003c-1 0-1 1-1 1v4h2v-3h3v-2h-4zm8 0v2h3v3h2v-4c0-1-1-1-1-1h-4zm-3.0098 2.9961v1h2v-1h-2zm0 2v4h2v-4h-2zm-5.9902 2.0039v4c0 1 1 1 1 1h4v-2h-3v-3h-2zm12 0v3h-3v2h4s1 0 1-1v-4h-2z" id="path10424" style="fill:currentColor">
  </path>
 </g>
</svg>
