<?xml version="1.0" encoding="UTF-8" standalone="no"?>
<!-- Created with Inkscape (http://www.inkscape.org/) -->
<svg height="22" id="svg3760" version="1.1" width="22" xmlns="http://www.w3.org/2000/svg" xmlns:cc="http://creativecommons.org/ns#" xmlns:dc="http://purl.org/dc/elements/1.1/" xmlns:rdf="http://www.w3.org/1999/02/22-rdf-syntax-ns#">
 <defs id="defs3762">
  <style id="current-color-scheme" type="text/css">
   .ColorScheme-Text {
        color:#4d4d4d;
      }
      .ColorScheme-Background {
        color:#eff0f1;
      }
      .ColorScheme-Highlight {
        color:#3daee9;
      }
      .ColorScheme-ViewText {
        color:#31363b;
      }
      .ColorScheme-ViewBackground {
        color:#fcfcfc;
      }
      .ColorScheme-ViewHover {
        color:#93cee9;
      }
      .ColorScheme-ViewFocus{
        color:#3daee9;
      }
      .ColorScheme-ButtonText {
        color:#31363b;
      }
      .ColorScheme-ButtonBackground {
        color:#eff0f1;
      }
      .ColorScheme-ButtonHover {
        color:#93cee9;
      }
      .ColorScheme-ButtonFocus{
        color:#3daee9;
      }
  </style>
 </defs>
 <metadata id="metadata3765">
  <rdf:rdf>
   <cc:work rdf:about="">
    <dc:format>
     image/svg+xml
    </dc:format>
    <dc:type rdf:resource="http://purl.org/dc/dcmitype/StillImage">
    </dc:type>
    <dc:title>
    </dc:title>
   </cc:work>
  </rdf:rdf>
 </metadata>
 <g id="layer1" transform="translate(-551.29 -607.65)">
  <path class="ColorScheme-Text" d="m16.727 3l-1.727 2.9902v2 0.0098h-1.646-0.354-1l-1 1v-5h-1v5.9941l-0.0059 0.0059h0.0059l-1.002 1h-5.998v1h4.9961l-0.9961 0.998-1 0.998v0.004 0.789 3.211h-3v1h4v-1-3.59l0.4102-0.41h0.0019l2-2h0.5879v7h1v-7h7v-1h-7v-0.588l1.412-1.412h3.588v-1-1.7422l1.303-2.2578h1.697v-1h-1.119-1.154z" id="rect3764" style="fill:currentColor" transform="translate(551.29 607.65)">
  </path>
 </g>
</svg>
