<?xml version="1.0" encoding="UTF-8" standalone="no"?>
<!-- Created with Inkscape (http://www.inkscape.org/) -->
<svg height="22" id="svg4355" inkscape:version="0.91 r13725" sodipodi:docname="labplot-zoom-in-x.svg" version="1.1" width="22" xmlns="http://www.w3.org/2000/svg" xmlns:cc="http://creativecommons.org/ns#" xmlns:dc="http://purl.org/dc/elements/1.1/" xmlns:inkscape="http://www.inkscape.org/namespaces/inkscape" xmlns:rdf="http://www.w3.org/1999/02/22-rdf-syntax-ns#" xmlns:sodipodi="http://sodipodi.sourceforge.net/DTD/sodipodi-0.dtd" xmlns:svg="http://www.w3.org/2000/svg">
 <defs id="defs4357">
  <style id="current-color-scheme" type="text/css">
   .ColorScheme-Text {
        color:#4d4d4d;
      }
      .ColorScheme-Background {
        color:#eff0f1;
      }
      .ColorScheme-Highlight {
        color:#3daee9;
      }
      .ColorScheme-ViewText {
        color:#31363b;
      }
      .ColorScheme-ViewBackground {
        color:#fcfcfc;
      }
      .ColorScheme-ViewHover {
        color:#93cee9;
      }
      .ColorScheme-ViewFocus{
        color:#3daee9;
      }
      .ColorScheme-ButtonText {
        color:#31363b;
      }
      .ColorScheme-ButtonBackground {
        color:#eff0f1;
      }
      .ColorScheme-ButtonHover {
        color:#93cee9;
      }
      .ColorScheme-ButtonFocus{
        color:#3daee9;
      }
  </style>
 </defs>
 <sodipodi:namedview bordercolor="#666666" borderopacity="1.0" fit-margin-bottom="0" fit-margin-left="0" fit-margin-right="0" fit-margin-top="0" height="0px" id="base" inkscape:current-layer="layer1" inkscape:cx="8.197571" inkscape:cy="8.0782804" inkscape:document-units="px" inkscape:pageopacity="0.0" inkscape:pageshadow="2" inkscape:showpageshadow="false" inkscape:window-height="847" inkscape:window-maximized="1" inkscape:window-width="1600" inkscape:window-x="0" inkscape:window-y="30" inkscape:zoom="24.26" pagecolor="#000000" showgrid="false" showguides="false" width="0px">
  <inkscape:grid id="grid4112" type="xygrid">
  </inkscape:grid>
  <sodipodi:guide id="guide4118" orientation="18,0" position="2.0000011,19.999996">
  </sodipodi:guide>
  <sodipodi:guide id="guide4120" orientation="0,18" position="2.0000011,1.9999962">
  </sodipodi:guide>
  <sodipodi:guide id="guide4122" orientation="-18,0" position="20.000001,1.9999962">
  </sodipodi:guide>
  <sodipodi:guide id="guide4124" orientation="0,-18" position="20.000001,19.999996">
  </sodipodi:guide>
  <sodipodi:guide id="guide4126" orientation="16,0" position="3.0000011,18.999996">
  </sodipodi:guide>
  <sodipodi:guide id="guide4128" orientation="0,16" position="3.0000011,2.9999962">
  </sodipodi:guide>
  <sodipodi:guide id="guide4130" orientation="-16,0" position="19.000001,2.9999962">
  </sodipodi:guide>
  <sodipodi:guide id="guide4132" orientation="0,-16" position="19.000001,18.999996">
  </sodipodi:guide>
 </sodipodi:namedview>
 <metadata id="metadata4360">
  <rdf:rdf>
   <cc:work rdf:about="">
    <dc:format>
     image/svg+xml
    </dc:format>
    <dc:type rdf:resource="http://purl.org/dc/dcmitype/StillImage">
    </dc:type>
    <dc:title>
    </dc:title>
   </cc:work>
  </rdf:rdf>
 </metadata>
 <g id="layer1" inkscape:groupmode="layer" inkscape:label="Capa 1" transform="translate(-544.57141,-742.93359)">
  <path class="ColorScheme-Text" d="M 3 3 L 3 5 L 4 5 L 4 4 L 5 4 L 5 3 L 3 3 z M 8 3 L 8 4 L 10 4 L 10 3 L 8 3 z M 16.171875 3.6699219 L 15.464844 4.3769531 L 17.085938 6 L 12.429688 6 L 12.429688 7 L 17.085938 7 L 15.464844 8.6210938 L 16.171875 9.328125 L 18.292969 7.2070312 L 19 6.5 L 16.171875 3.6699219 z M 3 8 L 3 10 L 4 10 L 4 8 L 3 8 z M 18 12 L 18 14 L 19 14 L 19 12 L 18 12 z M 3 13 L 3 19 L 9 19 L 9 13 L 3 13 z M 18 17 L 18 18 L 17 18 L 17 19 L 19 19 L 19 17 L 18 17 z M 12 18 L 12 19 L 14 19 L 14 18 L 12 18 z " id="path4153" style="fill:currentColor" transform="translate(544.57141,742.93359)">
  </path>
 </g>
</svg>
