<?xml version="1.0" encoding="UTF-8" standalone="no"?>
<!-- Created with Inkscape (http://www.inkscape.org/) -->
<svg height="22" id="svg7384" style="enable-background:new" version="1.1" width="22" xmlns="http://www.w3.org/2000/svg" xmlns:cc="http://creativecommons.org/ns#" xmlns:dc="http://purl.org/dc/elements/1.1/" xmlns:osb="http://www.openswatchbook.org/uri/2009/osb" xmlns:rdf="http://www.w3.org/1999/02/22-rdf-syntax-ns#">
 <defs>
  <style id="current-color-scheme" type="text/css">
   .ColorScheme-Text { color:#555555; }
  </style>
 </defs>
 <metadata id="metadata90">
  <rdf:rdf>
   <cc:work rdf:about="">
    <dc:format>
     image/svg+xml
    </dc:format>
    <dc:type rdf:resource="http://purl.org/dc/dcmitype/StillImage">
    </dc:type>
    <dc:title>
     Paper Symbolic Icon Theme
    </dc:title>
   </cc:work>
  </rdf:rdf>
 </metadata>
 <title id="title8473">
  Paper Symbolic Icon Theme
 </title>
 <g id="layer12" transform="translate(-565 -21)">
  <path class="ColorScheme-Text" d="m571 25c-1.108 0-2 0.892-2 2v10c0 1.108 0.892 2 2 2h10c1.108 0.00002 2-0.892 2-2v-4l-2-0.006v4.0059h-10v-10h4v-2h-4zm5 0v2h3.5859l-4.4941 4.4941-0.70703 0.70703 0.006 0.006a1 1 0 0 0 -0.39077 0.79283 1 1 0 0 0 1 1 1 1 0 0 0 0.79297 -0.39062l0.006 0.006 0.70703-0.70703 4.494-4.4943v3.5859l2 0.006v-7.0059h-7z" id="path6522" style="fill:currentColor">
  </path>
 </g>
</svg>
