<?xml version="1.0" encoding="UTF-8" standalone="no"?>
<!-- Created with Inkscape (http://www.inkscape.org/) -->
<svg height="22" id="svg7384" style="enable-background:new" version="1.1" width="22" xmlns="http://www.w3.org/2000/svg" xmlns:cc="http://creativecommons.org/ns#" xmlns:dc="http://purl.org/dc/elements/1.1/" xmlns:osb="http://www.openswatchbook.org/uri/2009/osb" xmlns:rdf="http://www.w3.org/1999/02/22-rdf-syntax-ns#">
 <defs>
  <style id="current-color-scheme" type="text/css">
   .ColorScheme-Text { color:#555555; }
  </style>
 </defs>
 <metadata id="metadata90">
  <rdf:rdf>
   <cc:work rdf:about="">
    <dc:format>
     image/svg+xml
    </dc:format>
    <dc:type rdf:resource="http://purl.org/dc/dcmitype/StillImage">
    </dc:type>
    <dc:title>
     Paper Symbolic Icon Theme
    </dc:title>
   </cc:work>
  </rdf:rdf>
 </metadata>
 <title id="title8473">
  Paper Symbolic Icon Theme
 </title>
 <g id="layer12" transform="translate(-485 99.007)">
  <g id="g4151" opacity=".5" transform="translate(3 3)">
   <path class="ColorScheme-Text" d="m4 5c-1.6569 0-3 1.3431-3 3s1.3431 3 3 3l0.0273-0.002c-0.6358-0.839-1.0273-1.8707-1.0273-2.998 0-1.1283 0.3924-2.1589 1.0293-2.998zm8 0c-0.01 0.0006-0.021 0.0012-0.031 0.002 0.637 0.8392 1.031 1.8696 1.031 2.998 0 1.1274-0.39331 2.1592-1.0293 2.998l0.029 0.002c1.6569 0 3-1.3431 3-3s-1.3431-3-3-3z" id="circle4140" style="fill:currentColor" transform="translate(485 -99.007)">
   </path>
   <circle cx="493" cy="-91.007" id="path4138" opacity="1" r="4">
   </circle>
  </g>
 </g>
</svg>
