<?xml version="1.0" encoding="UTF-8" standalone="no"?>
<!-- Created with Inkscape (http://www.inkscape.org/) -->
<svg height="22" id="svg7384" style="enable-background:new" version="1.1" width="22" xmlns="http://www.w3.org/2000/svg" xmlns:cc="http://creativecommons.org/ns#" xmlns:dc="http://purl.org/dc/elements/1.1/" xmlns:osb="http://www.openswatchbook.org/uri/2009/osb" xmlns:rdf="http://www.w3.org/1999/02/22-rdf-syntax-ns#">
 <defs>
  <style id="current-color-scheme" type="text/css">
   .ColorScheme-Text { color:#555555; }
  </style>
 </defs>
 <metadata id="metadata90">
  <rdf:rdf>
   <cc:work rdf:about="">
    <dc:format>
     image/svg+xml
    </dc:format>
    <dc:type rdf:resource="http://purl.org/dc/dcmitype/StillImage">
    </dc:type>
    <dc:title>
     Paper Symbolic Icon Theme
    </dc:title>
   </cc:work>
  </rdf:rdf>
 </metadata>
 <title id="title8473">
  Paper Symbolic Icon Theme
 </title>
 <g id="layer12" transform="translate(-445.03 98.938)">
  <path class="ColorScheme-Text" d="m458.81-94.938 0.3125 0.28125 3.625 3.625 0.28125 0.3125v0.40625 4.75 0.40625l-0.28125 0.3125-3.625 3.625-0.3125 0.28125h-0.40625-4.75-0.40625l-0.3125-0.28125-3.625-3.625-0.28125-0.3125v-0.40625-4.75-0.40625l0.28125-0.3125 3.625-3.625 0.3125-0.28125h0.40625 4.75 0.40625zm-0.78125 2h-4l-3 3v4l3 3h4l3-3v-4l-3-3zm-0.4375 1 2.4375 2.4375v3.125l-2.4375 2.4375h-3.125l-2.4375-2.4375v-3.125l2.4375-2.4375h3.125z" id="path8974" style="fill:currentColor">
  </path>
 </g>
</svg>
