<?xml version="1.0" encoding="UTF-8" standalone="no"?>
<!-- Created with Inkscape (http://www.inkscape.org/) -->
<svg height="22" id="svg4355" inkscape:version="0.91 r13725" sodipodi:docname="raindrop.svg" version="1.1" width="22" xmlns="http://www.w3.org/2000/svg" xmlns:cc="http://creativecommons.org/ns#" xmlns:dc="http://purl.org/dc/elements/1.1/" xmlns:inkscape="http://www.inkscape.org/namespaces/inkscape" xmlns:rdf="http://www.w3.org/1999/02/22-rdf-syntax-ns#" xmlns:sodipodi="http://sodipodi.sourceforge.net/DTD/sodipodi-0.dtd" xmlns:svg="http://www.w3.org/2000/svg">
 <defs id="defs4357">
  <style id="current-color-scheme" type="text/css">
   .ColorScheme-Text {
        color:#4d4d4d;
      }
      .ColorScheme-Background {
        color:#eff0f1;
      }
      .ColorScheme-Highlight {
        color:#3daee9;
      }
      .ColorScheme-ViewText {
        color:#31363b;
      }
      .ColorScheme-ViewBackground {
        color:#fcfcfc;
      }
      .ColorScheme-ViewHover {
        color:#93cee9;
      }
      .ColorScheme-ViewFocus{
        color:#3daee9;
      }
      .ColorScheme-ButtonText {
        color:#31363b;
      }
      .ColorScheme-ButtonBackground {
        color:#eff0f1;
      }
      .ColorScheme-ButtonHover {
        color:#93cee9;
      }
      .ColorScheme-ButtonFocus{
        color:#3daee9;
      }
  </style>
  <clippath clippathunits="userSpaceOnUse" id="clipPath4160">
   <rect height="1" id="rect4162" style="opacity:1;fill:#f2f2f2;fill-opacity:1;stroke:none;stroke-opacity:1" width="1" x="7" y="1023.3622">
   </rect>
  </clippath>
 </defs>
 <sodipodi:namedview bordercolor="#666666" borderopacity="1.0" fit-margin-bottom="0" fit-margin-left="0" fit-margin-right="0" fit-margin-top="0" height="0px" id="base" inkscape:current-layer="layer1" inkscape:cx="-17.574596" inkscape:cy="11.519569" inkscape:document-units="px" inkscape:guide-bbox="true" inkscape:object-nodes="true" inkscape:pageopacity="0.0" inkscape:pageshadow="2" inkscape:showpageshadow="false" inkscape:snap-bbox="true" inkscape:snap-global="true" inkscape:window-height="847" inkscape:window-maximized="1" inkscape:window-width="1600" inkscape:window-x="0" inkscape:window-y="30" inkscape:zoom="11.707099" pagecolor="#000000" showgrid="false" showguides="false" width="0px">
  <inkscape:grid id="grid4114" type="xygrid">
  </inkscape:grid>
  <sodipodi:guide id="guide4120" orientation="18,0" position="2,13">
  </sodipodi:guide>
  <sodipodi:guide id="guide4122" orientation="0,18" position="2.0000011,1.9999962">
  </sodipodi:guide>
  <sodipodi:guide id="guide4124" orientation="-18,0" position="20.000001,1.9999962">
  </sodipodi:guide>
  <sodipodi:guide id="guide4126" orientation="0,-18" position="20.000001,19.999996">
  </sodipodi:guide>
  <sodipodi:guide id="guide4128" orientation="16,0" position="3,6">
  </sodipodi:guide>
  <sodipodi:guide id="guide4130" orientation="0,16" position="3.0000011,2.9999962">
  </sodipodi:guide>
  <sodipodi:guide id="guide4134" orientation="0,-16" position="6,19">
  </sodipodi:guide>
  <sodipodi:guide id="guide4431" orientation="1,0" position="19,11">
  </sodipodi:guide>
 </sodipodi:namedview>
 <metadata id="metadata4360">
  <rdf:rdf>
   <cc:work rdf:about="">
    <dc:format>
     image/svg+xml
    </dc:format>
    <dc:type rdf:resource="http://purl.org/dc/dcmitype/StillImage">
    </dc:type>
    <dc:title>
    </dc:title>
   </cc:work>
  </rdf:rdf>
 </metadata>
 <g id="layer1" inkscape:groupmode="layer" inkscape:label="Capa 1" transform="translate(-544.57141,-742.93359)">
  <path class="ColorScheme-Text" d="M 11 3 C 10.51354 4.7025 9.33743 6.17195 8.8125 7.34375 C 8.6288 7.69215 8.5 8.0773 8.5 8.5 C 8.5 9.885 9.615 11 11 11 C 12.385 11 13.5 9.885 13.5 8.5 C 13.5 8.0773 13.40246 7.69215 13.21875 7.34375 C 12.69384 6.17195 11.48645 4.7025 11 3 z M 6.5 11 C 6.01354 12.7025 4.83743 14.17195 4.3125 15.34375 C 4.1288 15.69215 4 16.0773 4 16.5 C 4 17.885 5.115 19 6.5 19 C 7.885 19 9 17.885 9 16.5 C 9 16.0773 8.90246 15.69215 8.71875 15.34375 C 8.19384 14.17195 6.98645 12.7025 6.5 11 z M 15.5 11 C 15.01354 12.7025 13.83743 14.17195 13.3125 15.34375 C 13.1288 15.69215 13 16.0773 13 16.5 C 13 17.885 14.115 19 15.5 19 C 16.885 19 18 17.885 18 16.5 C 18 16.0773 17.90246 15.69215 17.71875 15.34375 C 17.19384 14.17195 15.98645 12.7025 15.5 11 z " id="rect4151" style="fill:currentColor" transform="translate(544.57141,742.93359)">
  </path>
 </g>
</svg>
