<?xml version="1.0" encoding="UTF-8" standalone="no"?>
<!-- Created with Inkscape (http://www.inkscape.org/) -->
<svg height="22" id="svg7384" style="enable-background:new" version="1.1" width="22" xmlns="http://www.w3.org/2000/svg" xmlns:cc="http://creativecommons.org/ns#" xmlns:dc="http://purl.org/dc/elements/1.1/" xmlns:osb="http://www.openswatchbook.org/uri/2009/osb" xmlns:rdf="http://www.w3.org/1999/02/22-rdf-syntax-ns#">
 <defs>
  <style id="current-color-scheme" type="text/css">
   .ColorScheme-Text { color:#555555; }
  </style>
 </defs>
 <metadata id="metadata90">
  <rdf:rdf>
   <cc:work rdf:about="">
    <dc:format>
     image/svg+xml
    </dc:format>
    <dc:type rdf:resource="http://purl.org/dc/dcmitype/StillImage">
    </dc:type>
    <dc:title>
     Paper Symbolic Icon Theme
    </dc:title>
   </cc:work>
  </rdf:rdf>
 </metadata>
 <title id="title8473">
  Paper Symbolic Icon Theme
 </title>
 <g id="layer12" transform="translate(-465 79.003)">
  <path class="ColorScheme-Text" d="m474.49-75.003c3.0244 0 5.5232 2.4737 5.5232 5.4981 0 1.1495-0.38864 2.2071-0.99854 3.0927l3.6821 3.6862a1.004 1.0051 0 0 1 -1.4042 1.437l-3.6821-3.6862c-0.886 0.61069-1.9701 0.96841-3.1205 0.96841-3.0245 0-5.492-2.4737-5.492-5.4981s2.4675-5.4981 5.492-5.4981zm0 1.9993c-1.9445 0-3.4949 1.5543-3.4949 3.4988s1.5504 3.4988 3.4949 3.4988 3.4949-1.5543 3.4949-3.4988-1.5504-3.4988-3.4949-3.4988z" id="path6876" style="fill:currentColor">
  </path>
 </g>
</svg>
