<?xml version="1.0" encoding="UTF-8" standalone="no"?>
<!-- Created with Inkscape (http://www.inkscape.org/) -->
<svg height="22" id="svg7384" style="enable-background:new" version="1.1" width="22" xmlns="http://www.w3.org/2000/svg" xmlns:cc="http://creativecommons.org/ns#" xmlns:dc="http://purl.org/dc/elements/1.1/" xmlns:osb="http://www.openswatchbook.org/uri/2009/osb" xmlns:rdf="http://www.w3.org/1999/02/22-rdf-syntax-ns#">
 <metadata id="metadata90">
  <rdf:rdf>
   <cc:work rdf:about="">
    <dc:format>
     image/svg+xml
    </dc:format>
    <dc:type rdf:resource="http://purl.org/dc/dcmitype/StillImage">
    </dc:type>
    <dc:title>
     Paper Symbolic Icon Theme
    </dc:title>
   </cc:work>
  </rdf:rdf>
 </metadata>
 <title id="title8473">
  Paper Symbolic Icon Theme
 </title>
 <defs id="defs7386">
  <style id="current-color-scheme" type="text/css">
   .ColorScheme-Text { color:#555555; }
  </style>
  <filter color-interpolation-filters="sRGB" id="filter7554">
   <feblend id="feBlend7556" in2="BackgroundImage" mode="darken">
   </feblend>
  </filter>
 </defs>
 <g id="layer1" transform="translate(-504 -206)">
  <rect fill="none" height="22" id="rect5385-6-4-8" stroke-width=".1" style="color:#000000" width="22" x="504" y="206">
  </rect>
  <path class="ColorScheme-Text" d="m508.03 209.5a0.50005 0.50005 0 0 0 -0.0508 0.002 0.50005 0.50005 0 0 0 -0.0332 0.99609s3.6861 0.51316 6.2988 2.1758c1.3064 0.83132 2.3077 1.9094 2.5566 3.3203 0.22485 1.2741-0.1579 2.9106-1.666 5.0078h-1.123v3h3v-1.668c2.3593-0.3912 3.7676-1.4484 4.5352-2.5449 0.9648-1.3783 0.96484-2.7871 0.96484-2.7871a0.50005 0.50005 0 1 0 -1 0s0.00004 1.0912-0.78516 2.2129c-0.58758 0.8394-1.7764 1.6045-3.7148 1.959v-0.17188h-0.82227c1.282-1.9752 1.8515-3.7303 1.5957-5.1797-0.31352-1.7766-1.5622-3.0735-3.0059-3.9922-2.8873-1.8374-6.7012-2.3242-6.7012-2.3242a0.50005 0.50005 0 0 0 -0.0488 -0.006z" id="path6308-6-9" style="fill:currentColor">
  </path>
  <rect fill="none" height="22" id="rect5385-6-5" stroke-width=".1" style="color:#000000" width="22" x="504.25" y="206.25">
  </rect>
  <rect fill="none" height="22" id="rect5385-6-0-1" stroke-width=".1" style="color:#000000" width="22" x="504.25" y="206.25">
  </rect>
 </g>
</svg>
