<?xml version="1.0" encoding="UTF-8" standalone="no"?>
<!-- Created with Inkscape (http://www.inkscape.org/) -->
<svg height="22" id="svg7384" style="enable-background:new" version="1.1" width="22" xmlns="http://www.w3.org/2000/svg" xmlns:cc="http://creativecommons.org/ns#" xmlns:dc="http://purl.org/dc/elements/1.1/" xmlns:osb="http://www.openswatchbook.org/uri/2009/osb" xmlns:rdf="http://www.w3.org/1999/02/22-rdf-syntax-ns#">
 <metadata id="metadata90">
  <rdf:rdf>
   <cc:work rdf:about="">
    <dc:format>
     image/svg+xml
    </dc:format>
    <dc:type rdf:resource="http://purl.org/dc/dcmitype/StillImage">
    </dc:type>
    <dc:title>
     Paper Symbolic Icon Theme
    </dc:title>
   </cc:work>
  </rdf:rdf>
 </metadata>
 <title id="title8473">
  Paper Symbolic Icon Theme
 </title>
 <defs id="defs7386">
  <style id="current-color-scheme" type="text/css">
   .ColorScheme-Text { color:#555555; }
  </style>
  <filter color-interpolation-filters="sRGB" id="filter7554">
   <feblend id="feBlend7556" in2="BackgroundImage" mode="darken">
   </feblend>
  </filter>
 </defs>
 <g id="layer1" transform="translate(-504 -206)">
  <rect fill="none" height="22" id="rect5385-6-5" stroke-width=".1" style="color:#000000" width="22" x="504.25" y="206.25">
  </rect>
  <rect fill="none" height="22" id="rect5385-6-0-1" stroke-width=".1" style="color:#000000" width="22" x="504.25" y="206.25">
  </rect>
  <rect fill="none" height="22" id="rect5385-6-4-8" stroke-width=".1" style="color:#000000" width="22" x="504" y="206">
  </rect>
  <path class="ColorScheme-Text" d="m507.52 211a0.50005 0.50005 0 0 0 -0.082 0.99609s3.6861 0.51511 6.2988 2.1777c1.3064 0.83131 2.3077 1.9094 2.5566 3.3203 0.24898 1.4109-0.23238 3.2612-2.1797 5.6953a0.50005 0.50005 0 0 0 0.39 0.81c3.619 0 5.5704-1.3346 6.5352-2.7129s0.96484-2.7871 0.96484-2.7871a0.50005 0.50005 0 1 0 -1 0s0.00004 1.0912-0.78516 2.2129c-0.68535 0.97907-2.1808 1.862-4.7402 2.1035 1.4315-2.1056 2.0683-3.9712 1.7988-5.498-0.31352-1.7766-1.5603-3.0716-3.0039-3.9902-2.8873-1.8374-6.7031-2.3242-6.7031-2.3242a0.50005 0.50005 0 0 0 -0.0508 -0.006z" id="path6308-6" style="fill:currentColor">
  </path>
 </g>
</svg>
