<?xml version="1.0" encoding="UTF-8" standalone="no"?>
<!-- Created with Inkscape (http://www.inkscape.org/) -->
<svg height="22" id="svg7384" style="enable-background:new" version="1.1" width="22" xmlns="http://www.w3.org/2000/svg" xmlns:cc="http://creativecommons.org/ns#" xmlns:dc="http://purl.org/dc/elements/1.1/" xmlns:osb="http://www.openswatchbook.org/uri/2009/osb" xmlns:rdf="http://www.w3.org/1999/02/22-rdf-syntax-ns#">
 <metadata id="metadata90">
  <rdf:rdf>
   <cc:work rdf:about="">
    <dc:format>
     image/svg+xml
    </dc:format>
    <dc:type rdf:resource="http://purl.org/dc/dcmitype/StillImage">
    </dc:type>
    <dc:title>
     Paper Symbolic Icon Theme
    </dc:title>
   </cc:work>
  </rdf:rdf>
 </metadata>
 <title id="title8473">
  Paper Symbolic Icon Theme
 </title>
 <defs id="defs7386">
  <style id="current-color-scheme" type="text/css">
   .ColorScheme-Text { color:#555555; }
  </style>
  <filter color-interpolation-filters="sRGB" id="filter7554">
   <feblend id="feBlend7556" in2="BackgroundImage" mode="darken">
   </feblend>
  </filter>
 </defs>
 <g id="layer1" transform="translate(-504 -206)">
  <rect fill="none" height="22" id="rect5385-6-5" stroke-width=".1" style="color:#000000" width="22" x="504.25" y="206.25">
  </rect>
  <rect fill="none" height="22" id="rect5385-6-0-1" stroke-width=".1" style="color:#000000" width="22" x="504.25" y="206.25">
  </rect>
  <path class="ColorScheme-Text" d="m521.51 209.99a0.50005 0.50005 0 0 0 -0.34375 0.15039l-5.8555 5.8555h-2.291v1.4062l-5.6367 1.6113a0.50005 0.50005 0 1 0 0.27344 0.96093l5.1465-1.4707-5.6367 5.6367a0.50005 0.50005 0 1 0 0.70704 0.70703l5.8516-5.8516h2.2949v-1.4102l5.6367-1.6113a0.50005 0.50005 0 0 0 -0.14063 -0.98242 0.50005 0.50005 0 0 0 -0.13281 0.0215l-5.1465 1.4707 5.6367-5.6367a0.50005 0.50005 0 0 0 -0.36329 -0.85742z" id="rect4355" style="fill:currentColor">
  </path>
  <g id="snap-nodes-intersection" transform="translate(-278 176)">
   <g id="g6774">
    <rect fill="none" height="22" id="rect5385-6-4-0-5" stroke-width=".1" style="color:#000000" width="22" x="782" y="30.001">
    </rect>
   </g>
  </g>
 </g>
</svg>
