<?xml version="1.0" encoding="UTF-8" standalone="no"?>
<!-- Created with Inkscape (http://www.inkscape.org/) -->
<svg height="22" id="svg7384" style="enable-background:new" version="1.1" width="22" xmlns="http://www.w3.org/2000/svg" xmlns:cc="http://creativecommons.org/ns#" xmlns:dc="http://purl.org/dc/elements/1.1/" xmlns:osb="http://www.openswatchbook.org/uri/2009/osb" xmlns:rdf="http://www.w3.org/1999/02/22-rdf-syntax-ns#">
 <defs>
  <style id="current-color-scheme" type="text/css">
   .ColorScheme-Text { color:#555555; }
  </style>
 </defs>
 <metadata id="metadata90">
  <rdf:rdf>
   <cc:work rdf:about="">
    <dc:format>
     image/svg+xml
    </dc:format>
    <dc:type rdf:resource="http://purl.org/dc/dcmitype/StillImage">
    </dc:type>
    <dc:title>
     Paper Symbolic Icon Theme
    </dc:title>
   </cc:work>
  </rdf:rdf>
 </metadata>
 <title id="title8473">
  Paper Symbolic Icon Theme
 </title>
 <g id="layer12" transform="translate(-325 39.003)">
  <g id="g4139" transform="translate(2.999 3.9965)">
   <rect height="7.0034" id="rect5820" opacity=".5" rx=".99990" ry=".99990" style="color:#bebebe" width="1.9998" x="332" y="-38.003">
   </rect>
   <path class="ColorScheme-Text" d="m335.94-36.012a1.0001 1.0001 0 0 0 -0.54297 1.8086c1.3779 1.0307 1.941 2.8163 1.4043 4.4512-0.53674 1.6348-2.0489 2.7386-3.7695 2.752s-3.2504-1.0671-3.8125-2.6934c-0.56214-1.6263-0.0257-3.4206 1.3359-4.4727a1.0001 1.0001 0 1 0 -1.2227 -1.582c-2.035 1.5722-2.8421 4.2785-2.002 6.709 0.84011 2.4305 3.1453 4.0591 5.7168 4.0391 2.5715-0.02002 4.8521-1.6856 5.6543-4.1289 0.80217-2.4433-0.0482-5.1354-2.1074-6.6758a1.0001 1.0001 0 0 0 -0.6543 -0.20703z" id="path6796" style="fill:currentColor">
   </path>
  </g>
 </g>
</svg>
