<?xml version="1.0" encoding="UTF-8" standalone="no"?>
<!-- Created with Inkscape (http://www.inkscape.org/) -->
<svg height="22" id="svg7384" style="enable-background:new" version="1.1" width="22" xmlns="http://www.w3.org/2000/svg" xmlns:cc="http://creativecommons.org/ns#" xmlns:dc="http://purl.org/dc/elements/1.1/" xmlns:osb="http://www.openswatchbook.org/uri/2009/osb" xmlns:rdf="http://www.w3.org/1999/02/22-rdf-syntax-ns#">
 <defs>
  <style id="current-color-scheme" type="text/css">
   .ColorScheme-Text { color:#555555; }
  </style>
 </defs>
 <metadata id="metadata90">
  <rdf:rdf>
   <cc:work rdf:about="">
    <dc:format>
     image/svg+xml
    </dc:format>
    <dc:type rdf:resource="http://purl.org/dc/dcmitype/StillImage">
    </dc:type>
    <dc:title>
     Paper Symbolic Icon Theme
    </dc:title>
   </cc:work>
  </rdf:rdf>
 </metadata>
 <title id="title8473">
  Paper Symbolic Icon Theme
 </title>
 <g id="layer12" transform="translate(-385 -55)">
  <path class="ColorScheme-Text" d="m394 59-5 14h2.5l1.0625-3h3.4629a3.5 3.5 0 0 1 2.9707 -3.0605l-2.99-7.94h-2zm1 4 1.75 5h-3.5l1.75-5zm4.5 4v0.85742c-1.3806 0-2.5 1.1502-2.5 2.5703 0 1.4202 1.1194 2.5723 2.5 2.5723 1.3666 0 2.4756-1.1291 2.498-2.5293a0.41663 0.42857 0 0 0 0.002 -0.04297 0.41663 0.42857 0 0 0 -0.42 -0.427 0.41663 0.42857 0 0 0 -0.41797 0.42773c0 0.94677-0.74562 1.7148-1.666 1.7148s-1.666-0.76807-1.666-1.7148c0-0.94677 0.74564-1.7129 1.666-1.7129v0.85742l1.666-1.2871-1.66-1.285z" id="path5940" style="fill:currentColor">
  </path>
 </g>
</svg>
