<?xml version="1.0" encoding="UTF-8" standalone="no"?>
<!-- Created with Inkscape (http://www.inkscape.org/) -->
<svg height="22" id="svg7384" style="enable-background:new" version="1.1" width="22" xmlns="http://www.w3.org/2000/svg" xmlns:cc="http://creativecommons.org/ns#" xmlns:dc="http://purl.org/dc/elements/1.1/" xmlns:osb="http://www.openswatchbook.org/uri/2009/osb" xmlns:rdf="http://www.w3.org/1999/02/22-rdf-syntax-ns#">
 <defs>
  <style id="current-color-scheme" type="text/css">
   .ColorScheme-Text { color:#555555; }
  </style>
 </defs>
 <metadata id="metadata90">
  <rdf:rdf>
   <cc:work rdf:about="">
    <dc:format>
     image/svg+xml
    </dc:format>
    <dc:type rdf:resource="http://purl.org/dc/dcmitype/StillImage">
    </dc:type>
    <dc:title>
     Paper Symbolic Icon Theme
    </dc:title>
   </cc:work>
  </rdf:rdf>
 </metadata>
 <title id="title8473">
  Paper Symbolic Icon Theme
 </title>
 <g id="layer12" transform="translate(-305 -181)">
  <path class="ColorScheme-Text" d="m316 184.52-8 7.8095 1.5238 1.5581 1.1429-0.98665 0.7619 6.0952h9.1429l0.7619-6.0952 1.1429 0.95239 1.5238-1.5238zm0 5.3333c1.2624 0 2.2857 1.0233 2.2857 2.2857s-1.0234 2.2857-2.2857 2.2857c-1.2624 0-2.2857-1.0233-2.2857-2.2857s1.0234-2.2857 2.2857-2.2857zm0 6.0952c0.42079 0 0.7619 0.34112 0.7619 0.76191s-0.34111 0.7619-0.7619 0.7619-0.7619-0.34111-0.7619-0.7619 0.34111-0.76191 0.7619-0.76191z" id="path6073" style="fill:currentColor">
  </path>
 </g>
</svg>
