<?xml version="1.0" encoding="UTF-8" standalone="no"?>
<!-- Created with Inkscape (http://www.inkscape.org/) -->
<svg height="22" id="svg7384" style="enable-background:new" version="1.1" width="22" xmlns="http://www.w3.org/2000/svg" xmlns:cc="http://creativecommons.org/ns#" xmlns:dc="http://purl.org/dc/elements/1.1/" xmlns:osb="http://www.openswatchbook.org/uri/2009/osb" xmlns:rdf="http://www.w3.org/1999/02/22-rdf-syntax-ns#">
 <metadata id="metadata90">
  <rdf:rdf>
   <cc:work rdf:about="">
    <dc:format>
     image/svg+xml
    </dc:format>
    <dc:type rdf:resource="http://purl.org/dc/dcmitype/StillImage">
    </dc:type>
    <dc:title>
     Paper Symbolic Icon Theme
    </dc:title>
   </cc:work>
  </rdf:rdf>
 </metadata>
 <title id="title8473">
  Paper Symbolic Icon Theme
 </title>
 <defs id="defs7386">
  <style id="current-color-scheme" type="text/css">
   .ColorScheme-Text { color:#555555; }
  </style>
  <filter id="filter7554" style="color-interpolation-filters:sRGB">
   <feblend id="feBlend7556" in2="BackgroundImage" mode="darken">
   </feblend>
  </filter>
 </defs>
 <g id="g6058" transform="translate(-564,-508)">
  <g id="g4150" transform="translate(3.0083 4)">
   <path class="ColorScheme-Text" d="m7 2v2h-1.1406c-0.9638 0-0.8555 0.666-0.8555 0.666v1.334h-0.5703c-1.6062 0-1.4277 1-1.4277 1v2h-0.0059c-2.25 0-2 2-2 2v4h14v-1-3c0-2-2-2-2-2v-0.5-1.5c0-1-1.428-1-1.428-1h-0.572v-0.33398-1c0-0.6667-0.857-0.666-0.857-0.666h-2.143v-2h-1z" id="path6716" style="fill:currentColor" transform="translate(564,508)">
   </path>
   <circle cx="571.5" cy="508.5" id="path4478" opacity=".5">
   </circle>
  </g>
 </g>
</svg>
