<?xml version="1.0" encoding="UTF-8" standalone="no"?>
<!-- Created with Inkscape (http://www.inkscape.org/) -->
<svg height="22" id="svg7384" style="enable-background:new" version="1.1" width="22" xmlns="http://www.w3.org/2000/svg" xmlns:cc="http://creativecommons.org/ns#" xmlns:dc="http://purl.org/dc/elements/1.1/" xmlns:osb="http://www.openswatchbook.org/uri/2009/osb" xmlns:rdf="http://www.w3.org/1999/02/22-rdf-syntax-ns#">
 <defs>
  <style id="current-color-scheme" type="text/css">
   .ColorScheme-Text { color:#555555; }
  </style>
 </defs>
 <metadata id="metadata90">
  <rdf:rdf>
   <cc:work rdf:about="">
    <dc:format>
     image/svg+xml
    </dc:format>
    <dc:type rdf:resource="http://purl.org/dc/dcmitype/StillImage">
    </dc:type>
    <dc:title>
     Paper Symbolic Icon Theme
    </dc:title>
   </cc:work>
  </rdf:rdf>
 </metadata>
 <title id="title8473">
  Paper Symbolic Icon Theme
 </title>
 <g id="layer12" transform="translate(-385 59.003)">
  <path class="ColorScheme-Text" d="m391.19-54.003c-0.6627 0-1.1875 0.54894-1.1875 1.2188v3.7812h2v-3h3v-2h-3.8125zm5.8125 0v2h3v3h2v-3.7812c0-0.66976-0.5248-1.2188-1.1875-1.2188h-3.8125zm-4 2.9961v4h2v2h4v-4h-2v-2h-4zm-3 4.0039v3.7812c0 0.66976 0.5248 1.2188 1.1875 1.2188h3.8125v-2h-3v-3h-2zm10 0v3h-3v2h3.8125c0.6627 0 1.1875-0.54894 1.1875-1.2188v-3.7812h-2z" id="path5311" style="fill:currentColor">
  </path>
 </g>
</svg>
