<?xml version='1.0' encoding='UTF-8' standalone='no'?>
<svg enable-background="new" height="16" version="1.1" width="16" xmlns="http://www.w3.org/2000/svg" xmlns:inkscape="http://www.inkscape.org/namespaces/inkscape" xmlns:sodipodi="http://sodipodi.sourceforge.net/DTD/sodipodi-0.dtd">
 <metadata id="metadata90">
 </metadata>
 <defs id="defs7386">
  <style id="current-color-scheme" type="text/css">
   .ColorScheme-Text { color:#555555; }
  </style>
  <lineargradient id="linearGradient5606" osb:paint="solid">
   <stop id="stop5608">
   </stop>
  </lineargradient>
  <filter color-interpolation-filters="sRGB" id="filter7554" inkscape:collect="always">
   <feblend id="feBlend7556" in2="BackgroundImage" inkscape:collect="always" mode="darken">
   </feblend>
  </filter>
 </defs>
 <g id="layer9" inkscape:groupmode="layer" inkscape:label="status" transform="translate(-261.0002,283)">
  <g fill="#555555" id="layer9-8" transform="translate(200.0002,-520)">
   <path class="ColorScheme-Text" color="#555555" d="m 2.9998,0.99998 c 0,0 -2,0 -2,2.0625 l 0,9.9375 c 0,2 2,2 2,2 l 10,0 c 2,0 2,-2 2,-2 l 0,-10 c 0,0 0,-2 -2,-2 z M 6,3 10,3 c 2,0 2.052216,2.3514242 2,2 l 0,1 -2,0 0,-1 -4,0 0,6 4,0 0,-1 -2,0 C 8,10 8,10 8,9 8,8 8,8 8,8 l 4,0 c 0,0 0,1 0,1.03125 L 12,11 c 0,0 0,2 -2,2 L 6,13 C 6,13 4,13 4,11 L 4,5 C 4,3 6,3 6,3 z" id="rect7011" inkscape:connector-curvature="0" sodipodi:nodetypes="csscscccccccccccccccsccccccccc" style="fill:currentColor" transform="translate(61,237)">
   </path>
  </g>
 </g>
</svg>
