<?xml version='1.0' encoding='UTF-8' standalone='no'?>
<svg enable-background="new" height="16" version="1.1" width="16" xmlns="http://www.w3.org/2000/svg" xmlns:inkscape="http://www.inkscape.org/namespaces/inkscape" xmlns:sodipodi="http://sodipodi.sourceforge.net/DTD/sodipodi-0.dtd">
 <metadata id="metadata90">
 </metadata>
 <defs id="defs7386">
  <style id="current-color-scheme" type="text/css">
   .ColorScheme-Text { color:#555555; }
  </style>
  <lineargradient id="linearGradient5606" osb:paint="solid">
   <stop id="stop5608">
   </stop>
  </lineargradient>
  <filter color-interpolation-filters="sRGB" id="filter7554" inkscape:collect="always">
   <feblend id="feBlend7556" in2="BackgroundImage" inkscape:collect="always" mode="darken">
   </feblend>
  </filter>
 </defs>
 <g id="layer9" inkscape:groupmode="layer" inkscape:label="status" transform="translate(-381.0002,283)">
  <g fill="#555555" id="g16124" transform="translate(320.00044,-519.99998)">
   <path class="ColorScheme-Text" color="#555555" d="m -77.0002,20.99998 c 0,0 -2,0 -2,2.0625 l 0,9.9375 c 0,2 2,2 2,2 l 10,0 c 2,0 2,-2 2,-2 l 0,-10 c 0,0 1.3e-5,-2 -2,-2 z M -76,23 l 2,0 0,8 4,0 0,-8 2,0 0,8 c 0,0 0,2 -2,2 l -4,0 c 0,0 -2,0 -2,-2 z" id="path16126" inkscape:connector-curvature="0" sodipodi:nodetypes="csscsccscccccccccccc" style="fill:currentColor" transform="translate(141,217)">
   </path>
  </g>
 </g>
</svg>
