<?xml version='1.0' encoding='UTF-8' standalone='no'?>
<svg enable-background="new" height="16" version="1.1" width="16" xmlns="http://www.w3.org/2000/svg" xmlns:inkscape="http://www.inkscape.org/namespaces/inkscape" xmlns:sodipodi="http://sodipodi.sourceforge.net/DTD/sodipodi-0.dtd">
 <metadata id="metadata90">
 </metadata>
 <defs id="defs7386">
  <style id="current-color-scheme" type="text/css">
   .ColorScheme-Text { color:#555555; }
  </style>
  <lineargradient id="linearGradient5606" osb:paint="solid">
   <stop id="stop5608">
   </stop>
  </lineargradient>
  <filter color-interpolation-filters="sRGB" id="filter7554" inkscape:collect="always">
   <feblend id="feBlend7556" in2="BackgroundImage" inkscape:collect="always" mode="darken">
   </feblend>
  </filter>
 </defs>
 <g id="layer12" inkscape:groupmode="layer" inkscape:label="actions" transform="translate(-441.0002,-9.0000001)">
  <path class="ColorScheme-Text" color="#000000" d="m 449.00006,9.99998 c -3.86295,0 -7,3.13704 -7,7 0,3.86295 3.13705,7 7,7 3.86295,0 7,-3.13705 7,-7 0,-3.86296 -3.13705,-7 -7,-7 z m 0,2 c 1.01943,0 1.95898,0.28763 2.75,0.8125 l -6.9375,6.9375 c -0.52487,-0.79102 -0.8125,-1.73057 -0.8125,-2.75 0,-2.75926 2.24075,-5 5,-5 z m 4.1875,2.25 c 0.52487,0.79102 0.8125,1.73057 0.8125,2.75 0,2.75925 -2.24075,5 -5,5 -1.01943,0 -1.95898,-0.28763 -2.75,-0.8125 l 6.9375,-6.9375 z" fill="#555555" id="path4992" inkscape:connector-curvature="0" stroke-width="2" style="fill:currentColor">
  </path>
 </g>
</svg>
