<?xml version='1.0' encoding='UTF-8' standalone='no'?>
<svg enable-background="new" height="16" version="1.1" width="16" xmlns="http://www.w3.org/2000/svg" xmlns:inkscape="http://www.inkscape.org/namespaces/inkscape" xmlns:sodipodi="http://sodipodi.sourceforge.net/DTD/sodipodi-0.dtd">
 <metadata id="metadata90">
 </metadata>
 <defs id="defs7386">
  <style id="current-color-scheme" type="text/css">
   .ColorScheme-Text { color:#555555; }
  </style>
  <lineargradient id="linearGradient5606" osb:paint="solid">
   <stop id="stop5608">
   </stop>
  </lineargradient>
  <filter color-interpolation-filters="sRGB" id="filter7554" inkscape:collect="always">
   <feblend id="feBlend7556" in2="BackgroundImage" inkscape:collect="always" mode="darken">
   </feblend>
  </filter>
 </defs>
 <g id="layer12" inkscape:groupmode="layer" inkscape:label="actions" transform="translate(-336.00002,-149)">
  <path class="ColorScheme-Text" color="#555555" d="m 342.0002,151 0,12 1,0 0,-12 z m -4,1 0,1 2,0 0,-1 z m 7,0 0,2 2,0 0,-2 z m 4,0 0,2 2,0 0,-2 z m -11,3 0,1 2,0 0,-1 z m 7,1 0,2 2,0 0,-2 z m 4,0 0,2 2,0 0,-2 z m -11,2 0,1 2,0 0,-1 z m 7,2 0,2 2,0 0,-2 z m 4,0 0,2 2,0 0,-2 z m -11,1 0,1 2,0 0,-1 z" fill="#555555" id="path6153-8" inkscape:connector-curvature="0" sodipodi:nodetypes="ccccccccccccccccccccccccccccccccccccccccccccccccccccccc" style="fill:currentColor">
  </path>
 </g>
</svg>
