<?xml version="1.0" encoding="UTF-8" standalone="no"?>
<!-- Created with Inkscape (http://www.inkscape.org/) -->
<svg height="24" id="svg7384" style="enable-background:new" version="1.1" width="24" xmlns="http://www.w3.org/2000/svg" xmlns:cc="http://creativecommons.org/ns#" xmlns:dc="http://purl.org/dc/elements/1.1/" xmlns:osb="http://www.openswatchbook.org/uri/2009/osb" xmlns:rdf="http://www.w3.org/1999/02/22-rdf-syntax-ns#">
 <metadata id="metadata90">
  <rdf:rdf>
   <cc:work rdf:about="">
    <dc:format>
     image/svg+xml
    </dc:format>
    <dc:type rdf:resource="http://purl.org/dc/dcmitype/StillImage">
    </dc:type>
    <dc:title>
     Paper Symbolic Icon Theme
    </dc:title>
   </cc:work>
  </rdf:rdf>
 </metadata>
 <title id="title8473">
  Paper Symbolic Icon Theme
 </title>
 <defs id="defs7386">
  <filter id="filter7554" style="color-interpolation-filters:sRGB">
   <feblend id="feBlend7556" in2="BackgroundImage" mode="darken">
   </feblend>
  </filter>
  <style id="current-color-scheme" type="text/css">
   .ColorScheme-Text {
        color:#4d4d4d;
      }
      .ColorScheme-Background {
        color:#eff0f1;
      }
      .ColorScheme-Highlight {
        color:#3daee9;
      }
      .ColorScheme-ViewText {
        color:#31363b;
      }
      .ColorScheme-ViewBackground {
        color:#fcfcfc;
      }
      .ColorScheme-ViewHover {
        color:#93cee9;
      }
      .ColorScheme-ViewFocus{
        color:#3daee9;
      }
      .ColorScheme-ButtonText {
        color:#31363b;
      }
      .ColorScheme-ButtonBackground {
        color:#eff0f1;
      }
      .ColorScheme-ButtonHover {
        color:#93cee9;
      }
      .ColorScheme-ButtonFocus{
        color:#3daee9;
      }
  </style>
 </defs>
 <g id="layer15" transform="translate(-785 259)">
  <path class="ColorScheme-Text" d="m790-253c-1 0-1 1-1 1v10c0 1 1 1 1 1h7v-0.004-1.4141l0.58203-0.58203h-6.582v-2.5l2.5-2.9375 3.3125 3.75 2.125-2.0625 1.1973 1.1973 0.1582-0.1582 1-1 0.70703-0.70703 1 1v-5.582c0-1-1-1-1-1h-12zm12 6.9961-1 1-1 1-2 2v1 1h2l0.59375-0.59375 0.40625-0.40625 1-1 1-1 1-1-2-2z" id="path4988" style="fill:currentColor">
  </path>
  <g id="layer1-3" transform="translate(365.29 -781.79)">
  </g>
  <g fill="none" id="g4172" stroke="#000" stroke-width="2" transform="translate(365.29 -781.79)">
  </g>
 </g>
</svg>
