<?xml version="1.0" encoding="UTF-8" standalone="no"?>
<!-- Created with Inkscape (http://www.inkscape.org/) -->
<svg height="24" id="svg3869" version="1.1" width="24" xmlns="http://www.w3.org/2000/svg" xmlns:cc="http://creativecommons.org/ns#" xmlns:dc="http://purl.org/dc/elements/1.1/" xmlns:rdf="http://www.w3.org/1999/02/22-rdf-syntax-ns#" xmlns:xlink="http://www.w3.org/1999/xlink">
 <defs id="defs3871">
  <style id="current-color-scheme" type="text/css">
   .ColorScheme-Text {
        color:#4d4d4d;
      }
      .ColorScheme-Background {
        color:#eff0f1;
      }
      .ColorScheme-Highlight {
        color:#3daee9;
      }
      .ColorScheme-ViewText {
        color:#31363b;
      }
      .ColorScheme-ViewBackground {
        color:#fcfcfc;
      }
      .ColorScheme-ViewHover {
        color:#93cee9;
      }
      .ColorScheme-ViewFocus{
        color:#3daee9;
      }
      .ColorScheme-ButtonText {
        color:#31363b;
      }
      .ColorScheme-ButtonBackground {
        color:#eff0f1;
      }
      .ColorScheme-ButtonHover {
        color:#93cee9;
      }
      .ColorScheme-ButtonFocus{
        color:#3daee9;
      }
  </style>
 </defs>
 <metadata id="metadata3874">
  <rdf:rdf>
   <cc:work rdf:about="">
    <dc:format>
     image/svg+xml
    </dc:format>
    <dc:type rdf:resource="http://purl.org/dc/dcmitype/StillImage">
    </dc:type>
    <dc:title>
    </dc:title>
   </cc:work>
  </rdf:rdf>
 </metadata>
 <g id="layer1" transform="translate(-326 -532.36)">
  <path class="ColorScheme-Text" d="m337.5 536.36a1.5 1.5 0 0 0 -1.5 1.5 1.5 1.5 0 0 0 0.11328 0.57031l-3.8926 3.1152a1.5 1.5 0 0 0 -0.7207 -0.18555 1.5 1.5 0 0 0 -1.5 1.5 1.5 1.5 0 0 0 1 1.4121v5.1758a1.5 1.5 0 0 0 -1 1.4121 1.5 1.5 0 0 0 1.5 1.5 1.5 1.5 0 0 0 1.4121 -1h4.1758a1.5 1.5 0 0 0 1.4121 1 1.5 1.5 0 0 0 1.5 -1.5 1.5 1.5 0 0 0 -0.18555 -0.7168l3.1172-3.8965a1.5 1.5 0 0 0 0.56836 0.11328 1.5 1.5 0 0 0 1.5 -1.5 1.5 1.5 0 0 0 -1.5 -1.5 1.5 1.5 0 0 0 -0.58398 0.11914l-4.0938-4.9121a1.5 1.5 0 0 0 0.17 -0.71 1.5 1.5 0 0 0 -1.5 -1.5zm-0.71875 2.8164a1.5 1.5 0 0 0 0.71875 0.18359 1.5 1.5 0 0 0 0.58203 -0.11914l4.0957 4.9141a1.5 1.5 0 0 0 -0.18 0.71 1.5 1.5 0 0 0 0.18555 0.71875l-3.1152 3.8945a1.5 1.5 0 0 0 -0.57 -0.11 1.5 1.5 0 0 0 -1.4121 1h-4.1758a1.5 1.5 0 0 0 -0.91 -0.91v-5.1758a1.5 1.5 0 0 0 1 -1.4121 1.5 1.5 0 0 0 -0.11328 -0.56836l3.8945-3.1152z" fill-rule="evenodd" id="path4230" style="fill:currentColor">
  </path>
  <use fill="#8ab3df" fill-opacity=".58824" height="1250" id="use15554" stroke="#0000ff" transform="matrix(.34051 0 0 .34051 212.47 470.25)" width="1250" x="0" xlink:href="#path5724" y="0">
  </use>
 </g>
</svg>
