<?xml version="1.0" encoding="UTF-8" standalone="no"?>
<!-- Created with Inkscape (http://www.inkscape.org/) -->
<svg height="24" id="svg7384" style="enable-background:new" version="1.1" width="24" xmlns="http://www.w3.org/2000/svg" xmlns:cc="http://creativecommons.org/ns#" xmlns:dc="http://purl.org/dc/elements/1.1/" xmlns:osb="http://www.openswatchbook.org/uri/2009/osb" xmlns:rdf="http://www.w3.org/1999/02/22-rdf-syntax-ns#">
 <defs>
  <style id="current-color-scheme" type="text/css">
   .ColorScheme-Text { color:#555555; }
  </style>
 </defs>
 <metadata id="metadata90">
  <rdf:rdf>
   <cc:work rdf:about="">
    <dc:format>
     image/svg+xml
    </dc:format>
    <dc:type rdf:resource="http://purl.org/dc/dcmitype/StillImage">
    </dc:type>
    <dc:title>
     Paper Symbolic Icon Theme
    </dc:title>
   </cc:work>
  </rdf:rdf>
 </metadata>
 <title id="title8473">
  Paper Symbolic Icon Theme
 </title>
 <g id="layer12" transform="translate(-385 59.003)">
  <path class="ColorScheme-Text" d="m391-53.003v8h4v4h8v-8h-4v-4h-8zm8 5c0.73867 0 1.334 0.78023 1.334 1.7402v0.83203h0.33203c0.18466 0 0.33398 0.1903 0.33398 0.42773v2.5723c0 0.23743-0.14932 0.42773-0.33398 0.42773h-3.332c-0.18467 0-0.33399-0.19031-0.33399-0.42773v-2.5723c0-0.23743 0.14932-0.42773 0.33399-0.42773h0.33203v-0.83203c0-0.96038 0.59532-1.7402 1.334-1.7402zm0 0.85742c-0.36933 0-0.66601 0.38256-0.66601 0.85742v0.85742h1.332v-0.85742c0-0.47486-0.29668-0.85742-0.66602-0.85742z" id="rect4138" style="fill:currentColor">
  </path>
 </g>
</svg>
