<?xml version="1.0" encoding="UTF-8" standalone="no"?>
<!-- Created with Inkscape (http://www.inkscape.org/) -->
<svg height="24" id="svg3049" inkscape:export-filename="/home/uri/.kde/share/icons/NITRUX-KDE/16x16/actions/view-right-new.png" inkscape:export-xdpi="30" inkscape:export-ydpi="30" inkscape:version="0.91 r13725" sodipodi:docname="krudio-light-off-tray.svg" version="1.1" width="24" xmlns="http://www.w3.org/2000/svg" xmlns:cc="http://creativecommons.org/ns#" xmlns:dc="http://purl.org/dc/elements/1.1/" xmlns:inkscape="http://www.inkscape.org/namespaces/inkscape" xmlns:rdf="http://www.w3.org/1999/02/22-rdf-syntax-ns#" xmlns:sodipodi="http://sodipodi.sourceforge.net/DTD/sodipodi-0.dtd" xmlns:svg="http://www.w3.org/2000/svg">
 <defs id="defs3051">
  <style id="current-color-scheme" type="text/css">
   .ColorScheme-Text { color:#555555; }
  </style>
 </defs>
 <sodipodi:namedview bordercolor="#666666" borderlayer="true" borderopacity="1.0" fit-margin-bottom="0" fit-margin-left="0" fit-margin-right="0" fit-margin-top="0" id="base" inkscape:current-layer="layer1" inkscape:cx="8.9899396" inkscape:cy="10.174201" inkscape:document-units="px" inkscape:object-nodes="true" inkscape:pageopacity="0" inkscape:pageshadow="2" inkscape:showpageshadow="false" inkscape:snap-bbox="true" inkscape:window-height="853" inkscape:window-maximized="1" inkscape:window-width="1600" inkscape:window-x="0" inkscape:window-y="26" inkscape:zoom="19.88" pagecolor="#ff51ff" showborder="true" showgrid="false" showguides="false">
  <inkscape:grid id="grid4085" type="xygrid">
  </inkscape:grid>
  <sodipodi:guide id="guide4075" orientation="12,0" position="2.0000044,14.00003">
  </sodipodi:guide>
  <sodipodi:guide id="guide4077" orientation="0,12" position="2.0000044,2.0000296">
  </sodipodi:guide>
  <sodipodi:guide id="guide4079" orientation="-12,0" position="14.000004,2.0000296">
  </sodipodi:guide>
  <sodipodi:guide id="guide4081" orientation="0,-12" position="14.000004,14.00003">
  </sodipodi:guide>
 </sodipodi:namedview>
 <metadata id="metadata3054">
  <rdf:rdf>
   <cc:work rdf:about="">
    <dc:format>
     image/svg+xml
    </dc:format>
    <dc:type rdf:resource="http://purl.org/dc/dcmitype/StillImage">
    </dc:type>
    <dc:title>
    </dc:title>
   </cc:work>
  </rdf:rdf>
 </metadata>
 <g id="layer1" inkscape:groupmode="layer" inkscape:label="Capa 1" transform="translate(-421.71429,-523.79074)">
  <g id="g4153" transform="translate(1,-1)">
   <path class="ColorScheme-Text" d="M 3.1425781,4 C 2.5094281,4 2,4.5344186 2,5.1992188 L 2,16.800781 C 2,17.465581 2.5094281,18 3.1425781,18 L 18.857422,18 C 19.490572,18 20,17.465581 20,16.800781 L 20,5.1992188 C 20,4.5344187 19.490572,4 18.857422,4 L 3.1425781,4 Z M 8,7 c 2.20913,0 4,1.79087 4,4 0,2.20913 -1.79087,4 -4,4 C 5.79087,15 4,13.20913 4,11 4,8.79087 5.79087,7 8,7 Z m 5,0 5,0 0,1 -5,0 0,-1 z M 8.0996094,8 c -1.65686,0 -3,1.34315 -3,3 0,1.65685 1.34314,3 3,3 1.65685,0 2.9999996,-1.34315 2.9999996,-3 0,-1.65685 -1.3431496,-3 -2.9999996,-3 z M 13,10 l 5,0 0,1 -5,0 0,-1 z m 0,3 5,0 0,1 -5,0 0,-1 z" id="path4148" inkscape:connector-curvature="0" style="fill:currentColor" transform="translate(421.71429,525.79074)">
   </path>
  </g>
 </g>
</svg>
