<?xml version="1.0" encoding="UTF-8" standalone="no"?>
<!-- Created with Inkscape (http://www.inkscape.org/) -->
<svg height="24" id="svg7384" style="enable-background:new" version="1.1" width="24" xmlns="http://www.w3.org/2000/svg" xmlns:cc="http://creativecommons.org/ns#" xmlns:dc="http://purl.org/dc/elements/1.1/" xmlns:osb="http://www.openswatchbook.org/uri/2009/osb" xmlns:rdf="http://www.w3.org/1999/02/22-rdf-syntax-ns#">
 <defs>
  <style id="current-color-scheme" type="text/css">
   .ColorScheme-Text { color:#555555; }
  </style>
 </defs>
 <metadata id="metadata90">
  <rdf:rdf>
   <cc:work rdf:about="">
    <dc:format>
     image/svg+xml
    </dc:format>
    <dc:type rdf:resource="http://purl.org/dc/dcmitype/StillImage">
    </dc:type>
    <dc:title>
     Paper Symbolic Icon Theme
    </dc:title>
   </cc:work>
  </rdf:rdf>
 </metadata>
 <title id="title8473">
  Paper Symbolic Icon Theme
 </title>
 <g id="layer12" transform="translate(-365 119)">
  <path class="ColorScheme-Text" d="m375.5-114c-0.831 0-1.5 0.669-1.5 1.5v1.5h-3c-0.554 0-1 0.446-1 1v3h1.5c0.83101 0 1.5 0.669 1.5 1.5s-0.669 1.5-1.5 1.5h-1.5v3c0 0.55399 0.446 1 1 1h3v-1.5c0-0.83101 0.669-1.5 1.5-1.5s1.5 0.669 1.5 1.5v1.5h3c0.554 0 1-0.44601 1-1v-3h1.5c0.831 0 1.5-0.669 1.5-1.5s-0.669-1.5-1.5-1.5h-1.5v-3c0-0.554-0.446-1-1-1h-3v-1.5c0-0.831-0.669-1.5-1.5-1.5z" id="rect6917" style="fill:currentColor">
  </path>
 </g>
</svg>
