<?xml version="1.0" encoding="UTF-8" standalone="no"?>
<!-- Created with Inkscape (http://www.inkscape.org/) -->
<svg height="24" id="svg3760" version="1.1" width="24" xmlns="http://www.w3.org/2000/svg" xmlns:cc="http://creativecommons.org/ns#" xmlns:dc="http://purl.org/dc/elements/1.1/" xmlns:rdf="http://www.w3.org/1999/02/22-rdf-syntax-ns#">
 <defs id="defs3762">
  <style id="current-color-scheme" type="text/css">
   .ColorScheme-Text {
        color:#4d4d4d;
      }
      .ColorScheme-Background {
        color:#eff0f1;
      }
      .ColorScheme-Highlight {
        color:#3daee9;
      }
      .ColorScheme-ViewText {
        color:#31363b;
      }
      .ColorScheme-ViewBackground {
        color:#fcfcfc;
      }
      .ColorScheme-ViewHover {
        color:#93cee9;
      }
      .ColorScheme-ViewFocus{
        color:#3daee9;
      }
      .ColorScheme-ButtonText {
        color:#31363b;
      }
      .ColorScheme-ButtonBackground {
        color:#eff0f1;
      }
      .ColorScheme-ButtonHover {
        color:#93cee9;
      }
      .ColorScheme-ButtonFocus{
        color:#3daee9;
      }
  </style>
 </defs>
 <metadata id="metadata3765">
  <rdf:rdf>
   <cc:work rdf:about="">
    <dc:format>
     image/svg+xml
    </dc:format>
    <dc:type rdf:resource="http://purl.org/dc/dcmitype/StillImage">
    </dc:type>
    <dc:title>
    </dc:title>
   </cc:work>
  </rdf:rdf>
 </metadata>
 <g id="layer1" transform="translate(-551.29 -605.65)">
  <path class="ColorScheme-Text" d="m556.29 609.65v6 1 2 1 4h-1v1h1v1h1v-1h12.719 1.2812v-0.15625-0.84375h-0.84375l-0.1875-0.1875-0.84375-0.8125-1.2812-1.3125-0.71875-0.6875-2.125 2.0938-1.3125-1.2812-0.8125-0.8125-2-2h-1.875-1-1v-2h1 1 1.875l2-2 0.8125-0.84375 1.3125-1.2812 2.125 2.125 2-2 0.84375-0.84375 1.0312-1.0312v-0.21875h-0.21875l-0.5-0.46875-1.0312 1.0312-0.8125 0.8125-1.3125 1.3125-2.125-2.125-1.5312 1.5312-0.46875 0.46875-0.84375 0.8125-1.6875 1.7188h-1.4688-1-1v-6h-1zm1 10h1 1 1.4688l1.6875 1.6875 0.84375 0.84375 0.46875 0.46875 1 1h-7.4688v-4zm10.125 2.4062 1.3125 1.2812 0.29492 0.3125h-3.2012l1.5938-1.5938z" id="rect3003" style="fill:currentColor">
  </path>
 </g>
</svg>
