<?xml version="1.0" encoding="UTF-8" standalone="no"?>
<!-- Created with Inkscape (http://www.inkscape.org/) -->
<svg height="24" id="svg4355" inkscape:version="0.91 r13725" sodipodi:docname="labplot-xy-curve.svg" version="1.1" width="24" xmlns="http://www.w3.org/2000/svg" xmlns:cc="http://creativecommons.org/ns#" xmlns:dc="http://purl.org/dc/elements/1.1/" xmlns:inkscape="http://www.inkscape.org/namespaces/inkscape" xmlns:rdf="http://www.w3.org/1999/02/22-rdf-syntax-ns#" xmlns:sodipodi="http://sodipodi.sourceforge.net/DTD/sodipodi-0.dtd" xmlns:svg="http://www.w3.org/2000/svg">
 <defs id="defs4357">
  <style id="current-color-scheme" type="text/css">
   .ColorScheme-Text {
        color:#4d4d4d;
      }
      .ColorScheme-Background {
        color:#eff0f1;
      }
      .ColorScheme-Highlight {
        color:#3daee9;
      }
      .ColorScheme-ViewText {
        color:#31363b;
      }
      .ColorScheme-ViewBackground {
        color:#fcfcfc;
      }
      .ColorScheme-ViewHover {
        color:#93cee9;
      }
      .ColorScheme-ViewFocus{
        color:#3daee9;
      }
      .ColorScheme-ButtonText {
        color:#31363b;
      }
      .ColorScheme-ButtonBackground {
        color:#eff0f1;
      }
      .ColorScheme-ButtonHover {
        color:#93cee9;
      }
      .ColorScheme-ButtonFocus{
        color:#3daee9;
      }
  </style>
 </defs>
 <sodipodi:namedview bordercolor="#666666" borderopacity="1.0" fit-margin-bottom="0" fit-margin-left="0" fit-margin-right="0" fit-margin-top="0" height="0px" id="base" inkscape:current-layer="g3845" inkscape:cx="-9.7281798" inkscape:cy="-7.6240324" inkscape:document-units="px" inkscape:pageopacity="0.0" inkscape:pageshadow="2" inkscape:showpageshadow="false" inkscape:snap-bbox="true" inkscape:snap-global="false" inkscape:window-height="847" inkscape:window-maximized="1" inkscape:window-width="1600" inkscape:window-x="0" inkscape:window-y="30" inkscape:zoom="8.2781691" pagecolor="#000000" showgrid="false" showguides="false" width="0px">
  <inkscape:grid id="grid4114" type="xygrid">
  </inkscape:grid>
  <sodipodi:guide id="guide4120" orientation="18,0" position="2.0000011,19.999996">
  </sodipodi:guide>
  <sodipodi:guide id="guide4122" orientation="0,18" position="2.0000011,1.9999962">
  </sodipodi:guide>
  <sodipodi:guide id="guide4124" orientation="-18,0" position="20.000001,1.9999962">
  </sodipodi:guide>
  <sodipodi:guide id="guide4126" orientation="0,-18" position="20.000001,19.999996">
  </sodipodi:guide>
  <sodipodi:guide id="guide4128" orientation="16,0" position="3.0000011,18.999996">
  </sodipodi:guide>
  <sodipodi:guide id="guide4130" orientation="0,16" position="3.0000011,2.9999962">
  </sodipodi:guide>
  <sodipodi:guide id="guide4132" orientation="-16,0" position="19.000001,2.9999962">
  </sodipodi:guide>
  <sodipodi:guide id="guide4134" orientation="0,-16" position="19.000001,18.999996">
  </sodipodi:guide>
 </sodipodi:namedview>
 <metadata id="metadata4360">
  <rdf:rdf>
   <cc:work rdf:about="">
    <dc:format>
     image/svg+xml
    </dc:format>
    <dc:type rdf:resource="http://purl.org/dc/dcmitype/StillImage">
    </dc:type>
    <dc:title>
    </dc:title>
   </cc:work>
  </rdf:rdf>
 </metadata>
 <g id="layer1" inkscape:groupmode="layer" inkscape:label="Capa 1" transform="translate(-544.57141,-740.93359)">
  <g id="g3845" transform="translate(0,-0.53516)">
   <path class="ColorScheme-Text" d="m 562.35266,748.43746 -0.0312,0.0566 c -0.0743,-0.0124 -0.14905,-0.0254 -0.22656,-0.0254 -0.8178,0 -1.52536,0.72322 -1.52344,1.52344 -9e-4,0.35866 0.14663,0.68804 0.37695,0.94726 l -3.12109,5.55469 c -0.0761,-0.0131 -0.15293,-0.0254 -0.23242,-0.0254 -0.0133,0 -0.0259,0.004 -0.0391,0.004 l -1.54297,-4.33398 c 0.3393,-0.27333 0.55969,-0.68755 0.55859,-1.14648 0.002,-0.80022 -0.65877,-1.52344 -1.47656,-1.52344 -0.8178,0 -1.52536,0.72322 -1.52344,1.52344 -1.5e-4,0.058 0.0105,0.11343 0.0176,0.16992 l -2.48047,1.24023 c -0.26449,-0.26356 -0.61952,-0.43359 -1.01367,-0.43359 -0.8178,0 -1.52536,0.72322 -1.52344,1.52344 -0.002,0.80023 0.70564,1.47656 1.52344,1.47656 0.81779,0 1.47848,-0.67633 1.47656,-1.47656 1.8e-4,-0.0735 -0.0109,-0.14508 -0.0215,-0.2168 l 2.48242,-1.24023 c 0.27487,0.26288 0.64648,0.42733 1.04687,0.43164 l 1.5625,4.36718 c -0.34226,0.2863 -0.57139,0.70736 -0.57031,1.15821 -0.002,0.80023 0.70564,1.47656 1.52344,1.47656 0.81779,0 1.47848,-0.67633 1.47656,-1.47656 9.2e-4,-0.36959 -0.14504,-0.7192 -0.37695,-0.99219 l 3.0957,-5.5 0.58984,4.16992 c -0.4729,0.26781 -0.80991,0.77345 -0.80859,1.32227 -0.002,0.80023 0.70564,1.47656 1.52344,1.47656 0.81779,0 1.47848,-0.67633 1.47656,-1.47656 0.002,-0.70802 -0.51564,-1.35238 -1.20117,-1.49219 l -0.59961,-4.20313 c 0.47546,-0.24905 0.80213,-0.74384 0.80078,-1.30468 0.002,-0.71067 -0.51962,-1.35764 -1.20898,-1.49414 l -0.01,-0.0606 z" id="path5273-9-0" inkscape:connector-curvature="0" style="fill:currentColor">
   </path>
  </g>
 </g>
</svg>
