<?xml version="1.0" encoding="UTF-8" standalone="no"?>
<!-- Created with Inkscape (http://www.inkscape.org/) -->
<svg height="24" id="svg4355" inkscape:version="0.91 r13725" sodipodi:docname="lensdistortion.svg" version="1.1" width="24" xmlns="http://www.w3.org/2000/svg" xmlns:cc="http://creativecommons.org/ns#" xmlns:dc="http://purl.org/dc/elements/1.1/" xmlns:inkscape="http://www.inkscape.org/namespaces/inkscape" xmlns:rdf="http://www.w3.org/1999/02/22-rdf-syntax-ns#" xmlns:sodipodi="http://sodipodi.sourceforge.net/DTD/sodipodi-0.dtd" xmlns:svg="http://www.w3.org/2000/svg">
 <defs id="defs4357">
  <style id="current-color-scheme" type="text/css">
   .ColorScheme-Text {
        color:#4d4d4d;
      }
      .ColorScheme-Background {
        color:#eff0f1;
      }
      .ColorScheme-Highlight {
        color:#3daee9;
      }
      .ColorScheme-ViewText {
        color:#31363b;
      }
      .ColorScheme-ViewBackground {
        color:#fcfcfc;
      }
      .ColorScheme-ViewHover {
        color:#93cee9;
      }
      .ColorScheme-ViewFocus{
        color:#3daee9;
      }
      .ColorScheme-ButtonText {
        color:#31363b;
      }
      .ColorScheme-ButtonBackground {
        color:#eff0f1;
      }
      .ColorScheme-ButtonHover {
        color:#93cee9;
      }
      .ColorScheme-ButtonFocus{
        color:#3daee9;
      }
  </style>
 </defs>
 <sodipodi:namedview bordercolor="#666666" borderopacity="1.0" fit-margin-bottom="0" fit-margin-left="0" fit-margin-right="0" fit-margin-top="0" height="0px" id="base" inkscape:current-layer="layer1" inkscape:cx="-15.679801" inkscape:cy="5.7135687" inkscape:document-units="px" inkscape:object-nodes="true" inkscape:pageopacity="0.0" inkscape:pageshadow="2" inkscape:showpageshadow="false" inkscape:snap-bbox="true" inkscape:snap-global="true" inkscape:window-height="847" inkscape:window-maximized="1" inkscape:window-width="1600" inkscape:window-x="0" inkscape:window-y="30" inkscape:zoom="11.313708" pagecolor="#000000" showgrid="false" showguides="false" width="0px">
  <inkscape:grid id="grid4114" type="xygrid">
  </inkscape:grid>
  <sodipodi:guide id="guide4120" orientation="18,0" position="2,13">
  </sodipodi:guide>
  <sodipodi:guide id="guide4122" orientation="0,18" position="2.0000011,1.9999962">
  </sodipodi:guide>
  <sodipodi:guide id="guide4124" orientation="-18,0" position="20.000001,1.9999962">
  </sodipodi:guide>
  <sodipodi:guide id="guide4126" orientation="0,-18" position="20.000001,19.999996">
  </sodipodi:guide>
  <sodipodi:guide id="guide4128" orientation="16,0" position="3,6">
  </sodipodi:guide>
  <sodipodi:guide id="guide4130" orientation="0,16" position="3.0000011,2.9999962">
  </sodipodi:guide>
  <sodipodi:guide id="guide4132" orientation="-16,0" position="19.000001,2.9999962">
  </sodipodi:guide>
  <sodipodi:guide id="guide4134" orientation="0,-16" position="6,19">
  </sodipodi:guide>
 </sodipodi:namedview>
 <metadata id="metadata4360">
  <rdf:rdf>
   <cc:work rdf:about="">
    <dc:format>
     image/svg+xml
    </dc:format>
    <dc:type rdf:resource="http://purl.org/dc/dcmitype/StillImage">
    </dc:type>
    <dc:title>
    </dc:title>
   </cc:work>
  </rdf:rdf>
 </metadata>
 <g id="layer1" inkscape:groupmode="layer" inkscape:label="Capa 1" transform="translate(-544.57141,-740.93359)">
  <path class="ColorScheme-Text" d="m 548.57141,744.93359 0,3.88867 0,1.1211 0,2.99023 0,2.99023 0,1.00977 0,0.11133 0,3.88867 16,0 0,-3.89258 0,-0.10742 0,-1.00977 0,-2.99023 0,-2.99023 0,-1.11719 0,-3.89258 -16,0 z m 1,1 14,0 0,2.38672 a 11,6 0 0 0 -7,-1.38672 11,6 0 0 0 -7,1.38086 l 0,-2.38086 z m 7,2 a 10,5 0 0 1 7,1.44141 l 0,2.10742 a 8,3 0 0 0 -7,-1.54883 8,3 0 0 0 -7,1.55469 l 0,-2.10938 a 10,5 0 0 1 7,-1.44531 z m 0,3 a 7,2 0 0 1 7,2 7,2 0 0 1 -7,2 7,2 0 0 1 -7,-2 7,2 0 0 1 7,-2 z m 7,3.44531 0,2.11328 a 10,5 0 0 1 -7,1.44141 10,5 0 0 1 -7,-1.44531 l 0,-2.10352 a 8,3 0 0 0 7,1.54883 8,3 0 0 0 7,-1.55469 z m 0,3.16797 0,2.38672 -14,0 0,-2.38086 a 11,6 0 0 0 7,1.38086 11,6 0 0 0 7,-1.38672 z" id="path4155" inkscape:connector-curvature="0" style="fill:currentColor">
  </path>
 </g>
</svg>
