<?xml version="1.0" encoding="UTF-8" standalone="no"?>
<!-- Created with Inkscape (http://www.inkscape.org/) -->
<svg height="24" id="svg7384" style="enable-background:new" version="1.1" width="24" xmlns="http://www.w3.org/2000/svg" xmlns:cc="http://creativecommons.org/ns#" xmlns:dc="http://purl.org/dc/elements/1.1/" xmlns:osb="http://www.openswatchbook.org/uri/2009/osb" xmlns:rdf="http://www.w3.org/1999/02/22-rdf-syntax-ns#">
 <defs>
  <style id="current-color-scheme" type="text/css">
   .ColorScheme-Text { color:#555555; }
  </style>
 </defs>
 <metadata id="metadata90">
  <rdf:rdf>
   <cc:work rdf:about="">
    <dc:format>
     image/svg+xml
    </dc:format>
    <dc:type rdf:resource="http://purl.org/dc/dcmitype/StillImage">
    </dc:type>
    <dc:title>
     Paper Symbolic Icon Theme
    </dc:title>
   </cc:work>
  </rdf:rdf>
 </metadata>
 <title id="title8473">
  Paper Symbolic Icon Theme
 </title>
 <g id="layer12" transform="translate(-265 127)">
  <rect fill="none" height="16" id="rect4198" style="color:#000000;enable-background:accumulate" width="16" x="265" y="-119">
  </rect>
  <rect fill="none" height="16" id="rect3038" style="color:#000000;enable-background:accumulate" width="16" x="265" y="-119">
  </rect>
  <path class="ColorScheme-Text" d="m274-121v2h-2.0684c-1.0698 0-1.9316 0.93915-1.9316 2.1055v5.7891c0 1.1663 0.86185 2.1055 1.9316 2.1055h10.137c1.0698 0 1.9316-0.93915 1.9316-2.1055v-5.7891c0-1.1663-0.86185-2.1055-1.9316-2.1055h-2.0684v2h1.998c-0.002 0.009 0.002 0.0263 0.002 0.10547v5.7891c0 0.0791-0.004 0.0966-0.002 0.10547h-9.9941c0.001-0.009-0.004-0.0263-0.004-0.10547v-5.7891c0-0.0792 0.005-0.0966 0.004-0.10547h1.9961v2l4-3-4-3zm4 5v1 1 1 1h1v-1h1v1h1v-1-1-1-1h-1-2zm1 1h1v1h-1v-1z" id="path2194-83" style="fill:currentColor">
  </path>
 </g>
</svg>
