<?xml version="1.0" encoding="UTF-8" standalone="no"?>
<!-- Created with Inkscape (http://www.inkscape.org/) -->
<svg height="24" id="svg7384" style="enable-background:new" version="1.1" width="24" xmlns="http://www.w3.org/2000/svg" xmlns:cc="http://creativecommons.org/ns#" xmlns:dc="http://purl.org/dc/elements/1.1/" xmlns:osb="http://www.openswatchbook.org/uri/2009/osb" xmlns:rdf="http://www.w3.org/1999/02/22-rdf-syntax-ns#">
 <defs>
  <style id="current-color-scheme" type="text/css">
   .ColorScheme-Text { color:#555555; }
  </style>
 </defs>
 <metadata id="metadata90">
  <rdf:rdf>
   <cc:work rdf:about="">
    <dc:format>
     image/svg+xml
    </dc:format>
    <dc:type rdf:resource="http://purl.org/dc/dcmitype/StillImage">
    </dc:type>
    <dc:title>
     Paper Symbolic Icon Theme
    </dc:title>
   </cc:work>
  </rdf:rdf>
 </metadata>
 <title id="title8473">
  Paper Symbolic Icon Theme
 </title>
 <g id="layer12" transform="translate(-265 127)">
  <rect fill="none" height="16" id="rect4198" style="color:#000000;enable-background:accumulate" width="16" x="265" y="-119">
  </rect>
  <rect fill="none" height="16" id="rect3038" style="color:#000000;enable-background:accumulate" width="16" x="265" y="-119">
  </rect>
  <path class="ColorScheme-Text" d="m9 6v2h-2.0684c-1.0697 0-1.9316 0.9391-1.9316 2.105v5.79c0 1.166 0.8619 2.105 1.9316 2.105h10.136c1.07 0 1.932-0.939 1.932-2.105v-5.79c0-1.1659-0.862-2.105-1.932-2.105h-2.068v2h1.998c-0.002 0.009 0.002 0.026 0.002 0.105v5.79c0 0.079-0.004 0.096-0.002 0.105h-0.998v-1h-3v1h-5.9961c0.001-0.009-0.0039-0.026-0.0039-0.105v-5.79c0-0.079 0.0049-0.096 0.0039-0.105h1.9961v2l4-3-4-3zm4 5v1h3v-1h-3zm0 2v1h3v-1h-3z" id="path4214" style="fill:currentColor" transform="translate(265 -127)">
  </path>
 </g>
</svg>
