<?xml version="1.0" encoding="UTF-8" standalone="no"?>
<!-- Created with Inkscape (http://www.inkscape.org/) -->
<svg height="24" id="svg7384" style="enable-background:new" version="1.1" width="24" xmlns="http://www.w3.org/2000/svg" xmlns:cc="http://creativecommons.org/ns#" xmlns:dc="http://purl.org/dc/elements/1.1/" xmlns:osb="http://www.openswatchbook.org/uri/2009/osb" xmlns:rdf="http://www.w3.org/1999/02/22-rdf-syntax-ns#">
 <defs>
  <style id="current-color-scheme" type="text/css">
   .ColorScheme-Text { color:#555555; }
  </style>
 </defs>
 <metadata id="metadata90">
  <rdf:rdf>
   <cc:work rdf:about="">
    <dc:format>
     image/svg+xml
    </dc:format>
    <dc:type rdf:resource="http://purl.org/dc/dcmitype/StillImage">
    </dc:type>
    <dc:title>
     Paper Symbolic Icon Theme
    </dc:title>
   </cc:work>
  </rdf:rdf>
 </metadata>
 <title id="title8473">
  Paper Symbolic Icon Theme
 </title>
 <g id="layer12" transform="translate(-265 127)">
  <path class="ColorScheme-Text" d="m280-122v2h-1.6172l-4 8h-4.3828v2h5.6191l4-8h0.38086v2l4-3-4-3zm-10 2v2h4.3828l0.94141 1.8828 1.1172-2.2363-0.82227-1.6465h-5.6191zm1 3v1 1 1 1h1v-1h1v1h1v-4h-2-1zm1 1h1v1h-1v-1zm8 2v2h-0.38086l-0.94141-1.8828-1.1191 2.2363 0.82422 1.6465h1.6172v2l4-3-4-3z" id="path2194-83" style="fill:currentColor">
  </path>
 </g>
</svg>
