<?xml version="1.0" encoding="UTF-8" standalone="no"?>
<!-- Created with Inkscape (http://www.inkscape.org/) -->
<svg height="24" id="svg7384" style="enable-background:new" version="1.1" width="24" xmlns="http://www.w3.org/2000/svg" xmlns:cc="http://creativecommons.org/ns#" xmlns:dc="http://purl.org/dc/elements/1.1/" xmlns:osb="http://www.openswatchbook.org/uri/2009/osb" xmlns:rdf="http://www.w3.org/1999/02/22-rdf-syntax-ns#">
 <metadata id="metadata90">
  <rdf:rdf>
   <cc:work rdf:about="">
    <dc:format>
     image/svg+xml
    </dc:format>
    <dc:type rdf:resource="http://purl.org/dc/dcmitype/StillImage">
    </dc:type>
    <dc:title>
     Paper Symbolic Icon Theme
    </dc:title>
   </cc:work>
  </rdf:rdf>
 </metadata>
 <title id="title8473">
  Paper Symbolic Icon Theme
 </title>
 <defs id="defs7386">
  <style id="current-color-scheme" type="text/css">
   .ColorScheme-Text { color:#555555; }
  </style>
  <filter color-interpolation-filters="sRGB" id="filter7554">
   <feblend id="feBlend7556" in2="BackgroundImage" mode="darken">
   </feblend>
  </filter>
 </defs>
 <g id="layer1" transform="translate(-524 -206)">
  <path class="ColorScheme-Text" d="m530 211c-1.0312 0.0625-1 1-1 1v8 4s-0.0312 0.9375 1 1h12c1 0 1-1 1-1v-4-8s0-1-1-1h-5.5312l0.3125 0.375 1.3125 1.625h2.9062v7h-1-0.15625-0.84375-1c0 1.108-0.892 2-2 2s-2-0.892-2-2h-1-0.84375-1.1562v-7h2.9062l1.3125-1.625 0.3125-0.375h-5.5312zm6 1-4 5h2v2h4v-2h2l-4-5z" fill-rule="evenodd" id="path8770" style="fill:currentColor">
  </path>
 </g>
</svg>
