<?xml version="1.0" encoding="UTF-8" standalone="no"?>
<!-- Created with Inkscape (http://www.inkscape.org/) -->
<svg height="24" id="svg7384" style="enable-background:new" version="1.1" width="24" xmlns="http://www.w3.org/2000/svg" xmlns:cc="http://creativecommons.org/ns#" xmlns:dc="http://purl.org/dc/elements/1.1/" xmlns:osb="http://www.openswatchbook.org/uri/2009/osb" xmlns:rdf="http://www.w3.org/1999/02/22-rdf-syntax-ns#">
 <metadata id="metadata90">
  <rdf:rdf>
   <cc:work rdf:about="">
    <dc:format>
     image/svg+xml
    </dc:format>
    <dc:type rdf:resource="http://purl.org/dc/dcmitype/StillImage">
    </dc:type>
    <dc:title>
     Paper Symbolic Icon Theme
    </dc:title>
   </cc:work>
  </rdf:rdf>
 </metadata>
 <title id="title8473">
  Paper Symbolic Icon Theme
 </title>
 <defs id="defs7386">
  <style id="current-color-scheme" type="text/css">
   .ColorScheme-Text { color:#555555; }
  </style>
  <filter id="filter7554" style="color-interpolation-filters:sRGB">
   <feblend id="feBlend7556" in2="BackgroundImage" mode="darken">
   </feblend>
  </filter>
 </defs>
 <g id="g6058" transform="translate(-564,-500)">
  <path class="ColorScheme-Text" d="m7.0039 5c-2.25 0-2 2-2 2v12h5.9961v-2h-3.9961v-0.844-1.656-7.5h10v4h1.996v3.176c-0.011-0.653-0.449-1.176-0.996-1.176h-5c-0.554 0-1 0.534-1 1.199v3.602c0 0.665 0.446 1.199 1 1.199h5c0.547 0 0.985-0.523 0.996-1.176v1.176h0.004v-1-0.199-3.602-7.199c0-2-2-2-2-2h-10zm1 3v2h2.0001v-2h-2.0001zm3.0001 0v2h2v-2h-2zm3 0v2h2v-2h-2zm-6.0001 3v2h2.0001v-2h-2.0001zm0 3v2h2.0001v-2h-2.0001z" id="path6716" style="fill:currentColor" transform="translate(564,500)">
  </path>
 </g>
</svg>
