<?xml version="1.0" encoding="UTF-8" standalone="no"?>
<!-- Created with Inkscape (http://www.inkscape.org/) -->
<svg height="24" id="svg3049" inkscape:export-filename="/home/uri/.kde/share/icons/NITRUX-KDE/16x16/actions/view-right-new.png" inkscape:export-xdpi="30" inkscape:export-ydpi="30" inkscape:version="0.91 r13725" sodipodi:docname="show-guides.svg" version="1.1" width="24" xmlns="http://www.w3.org/2000/svg" xmlns:cc="http://creativecommons.org/ns#" xmlns:dc="http://purl.org/dc/elements/1.1/" xmlns:inkscape="http://www.inkscape.org/namespaces/inkscape" xmlns:rdf="http://www.w3.org/1999/02/22-rdf-syntax-ns#" xmlns:sodipodi="http://sodipodi.sourceforge.net/DTD/sodipodi-0.dtd" xmlns:svg="http://www.w3.org/2000/svg">
 <defs id="defs3051">
  <style id="current-color-scheme" type="text/css">
   .ColorScheme-Text {
        color:#4d4d4d;
      }
      .ColorScheme-Background {
        color:#eff0f1;
      }
      .ColorScheme-Highlight {
        color:#3daee9;
      }
      .ColorScheme-ViewText {
        color:#31363b;
      }
      .ColorScheme-ViewBackground {
        color:#fcfcfc;
      }
      .ColorScheme-ViewHover {
        color:#93cee9;
      }
      .ColorScheme-ViewFocus{
        color:#3daee9;
      }
      .ColorScheme-ButtonText {
        color:#31363b;
      }
      .ColorScheme-ButtonBackground {
        color:#eff0f1;
      }
      .ColorScheme-ButtonHover {
        color:#93cee9;
      }
      .ColorScheme-ButtonFocus{
        color:#3daee9;
      }
  </style>
 </defs>
 <sodipodi:namedview bordercolor="#666666" borderlayer="true" borderopacity="1.0" fit-margin-bottom="0" fit-margin-left="0" fit-margin-right="0" fit-margin-top="0" id="base" inkscape:current-layer="layer1-6" inkscape:cx="-5.4956487" inkscape:cy="7.3838546" inkscape:document-units="px" inkscape:pageopacity="0.0" inkscape:pageshadow="2" inkscape:showpageshadow="false" inkscape:snap-bbox="true" inkscape:snap-global="true" inkscape:window-height="847" inkscape:window-maximized="1" inkscape:window-width="1600" inkscape:window-x="0" inkscape:window-y="30" inkscape:zoom="22.627417" pagecolor="#000000" showgrid="false" showguides="false">
  <inkscape:grid id="grid4085" type="xygrid">
  </inkscape:grid>
  <sodipodi:guide id="guide4075" orientation="12,0" position="2.0000044,14.00003">
  </sodipodi:guide>
  <sodipodi:guide id="guide4077" orientation="0,12" position="2.0000044,2.0000296">
  </sodipodi:guide>
  <sodipodi:guide id="guide4079" orientation="-12,0" position="14,9">
  </sodipodi:guide>
  <sodipodi:guide id="guide4081" orientation="0,-12" position="14.000004,14.00003">
  </sodipodi:guide>
 </sodipodi:namedview>
 <metadata id="metadata3054">
  <rdf:rdf>
   <cc:work rdf:about="">
    <dc:format>
     image/svg+xml
    </dc:format>
    <dc:type rdf:resource="http://purl.org/dc/dcmitype/StillImage">
    </dc:type>
    <dc:title>
    </dc:title>
   </cc:work>
  </rdf:rdf>
 </metadata>
 <g id="layer1" inkscape:groupmode="layer" inkscape:label="Capa 1" transform="translate(-421.71429,-523.79074)">
  <g id="layer1-0" inkscape:label="Capa 1" transform="matrix(0.75,0,0,0.74999813,421.46429,-241.22897)">
   <g id="layer1-6" inkscape:label="Capa 1" transform="translate(6.2937501e-7,-2.041003e-4)">
    <path class="ColorScheme-Text" d="m 9.6666662,1028.029 0,1.3334 1.3333328,0 0,-1.3334 -1.3333328,0 z m 0,2.6667 0,1.3333 1.3333328,0 0,-1.3333 -1.3333328,0 z m 0,2.6667 0,1.3333 1.3333328,0 0,-1.3333 -1.3333328,0 z m 0,2.6667 0,1.3333 1.3333328,0 0,-1.3333 -1.3333328,0 z m 0,2.6666 0,1.3334 1.3333328,0 0,-1.3334 -1.3333328,0 z m -2.6666668,2.6667 0,1.3333 1.3333333,0 0,-1.3333 -1.3333333,0 z m 2.6666668,0 0,1.3333 1.3333328,0 0,-1.3333 -1.3333328,0 z m 2.6666658,0 0,1.3333 1.333333,0 0,-1.3333 -1.333333,0 z m 2.666667,0 0,1.3333 1.333333,0 0,-1.3333 -1.333333,0 z m 2.666666,0 0,1.3333 1.333334,0 0,-1.3333 -1.333334,0 z m 2.666667,0 0,1.3333 1.333333,0 0,-1.3333 -1.333333,0 z m 2.666667,0 0,1.3333 1.333333,0 0,-1.3333 -1.333333,0 z m -13.3333328,2.6667 0,1.3333 1.3333328,0 0,-1.3333 -1.3333328,0 z" id="path3396" inkscape:connector-curvature="0" style="fill:currentColor">
    </path>
   </g>
  </g>
 </g>
</svg>
