<?xml version="1.0" encoding="UTF-8" standalone="no"?>
<!-- Created with Inkscape (http://www.inkscape.org/) -->
<svg height="24" id="svg7384" style="enable-background:new" version="1.1" width="24" xmlns="http://www.w3.org/2000/svg" xmlns:cc="http://creativecommons.org/ns#" xmlns:dc="http://purl.org/dc/elements/1.1/" xmlns:osb="http://www.openswatchbook.org/uri/2009/osb" xmlns:rdf="http://www.w3.org/1999/02/22-rdf-syntax-ns#">
 <metadata id="metadata90">
  <rdf:rdf>
   <cc:work rdf:about="">
    <dc:format>
     image/svg+xml
    </dc:format>
    <dc:type rdf:resource="http://purl.org/dc/dcmitype/StillImage">
    </dc:type>
    <dc:title>
     Paper Symbolic Icon Theme
    </dc:title>
   </cc:work>
  </rdf:rdf>
 </metadata>
 <title id="title8473">
  Paper Symbolic Icon Theme
 </title>
 <defs id="defs7386">
  <style id="current-color-scheme" type="text/css">
   .ColorScheme-Text { color:#555555; }
  </style>
  <filter color-interpolation-filters="sRGB" id="filter7554">
   <feblend id="feBlend7556" in2="BackgroundImage" mode="darken">
   </feblend>
  </filter>
 </defs>
 <g id="layer1" transform="translate(-504 -206)">
  <rect fill="none" height="24" id="rect5385-6-5" stroke-width=".1" style="color:#000000" width="24" x="504.25" y="206.25">
  </rect>
  <rect fill="none" height="24" id="rect5385-6-0-1" stroke-width=".1" style="color:#000000" width="24" x="504.25" y="206.25">
  </rect>
  <path class="ColorScheme-Text" d="m522 211.5v0.5 1 0.5h1v-0.5-1-0.5h-1zm0 3v0.5 1 0.5h1v-0.5-1-0.5h-1zm-1 2.5v3h3v-3h-3zm1 3.5v0.5 1 0.5h1v-0.5-1-0.5h-1zm0 3v0.5h-0.5v1h0.5 0.5 0.5v-0.5-0.5-0.5h-1zm-12.5 0.5v1h0.5 1 0.5v-1h-0.5-1-0.5zm3 0v1h0.5 1 0.5v-1h-0.5-1-0.5zm3 0v1h0.5 1 0.5v-1h-0.5-1-0.5zm3 0v1h0.5 1 0.5v-1h-0.5-1-0.5z" id="path9141-9" style="fill:currentColor">
  </path>
 </g>
</svg>
