<?xml version="1.0" encoding="UTF-8" standalone="no"?>
<!-- Created with Inkscape (http://www.inkscape.org/) -->
<svg height="24" id="svg6654" version="1.1" viewbox="0 0 16 16" width="24" xmlns="http://www.w3.org/2000/svg" xmlns:cc="http://creativecommons.org/ns#" xmlns:dc="http://purl.org/dc/elements/1.1/" xmlns:rdf="http://www.w3.org/1999/02/22-rdf-syntax-ns#">
 <defs>
  <style id="current-color-scheme" type="text/css">
   .ColorScheme-Text { color:#555555; }
  </style>
 </defs>
 <metadata id="metadata6659">
  <rdf:rdf>
   <cc:work rdf:about="">
    <dc:format>
     image/svg+xml
    </dc:format>
    <dc:type rdf:resource="http://purl.org/dc/dcmitype/StillImage">
    </dc:type>
    <dc:title>
    </dc:title>
   </cc:work>
  </rdf:rdf>
 </metadata>
 <g id="layer1" transform="translate(0 -1036.4)">
  <rect fill="none" height="24" id="rect10524" style="color:#000000" width="24" x="0" y="1028.4">
  </rect>
  <rect fill="none" height="16" id="rect4400" style="color:#000000" width="24" x="-3.6116e-7" y="1036.4">
  </rect>
  <path class="ColorScheme-Text" d="m8.832 1039.7c-1.1776 0.246-1.7455 1.5224-2.1061 2.6308-0.31536 1.007-0.61413 2.2388-1.6265 2.6785-0.43909 0.173-1.2865 0.2428-1.7535 0.1705l-0.012643 3.8138 9.3333 0.027v-3.8137c-1.2087 0.1906-2.5732 0.1625-3.5691-0.655-0.87577-0.7523-1.1636-2.2689-0.53101-3.2746 0.63025-0.7504 1.9401-0.4376 2.3516 0.401 0.34054 0.1774 0.23037-0.3362 0.17353-0.5379-0.27378-0.9621-1.3129-1.5491-2.2596-1.4402z" id="path4416" style="fill:currentColor">
  </path>
 </g>
</svg>
