<?xml version="1.0" encoding="UTF-8" standalone="no"?>
<!-- Created with Inkscape (http://www.inkscape.org/) -->
<svg height="24" id="svg3049" version="1.1" width="24" xmlns="http://www.w3.org/2000/svg" xmlns:cc="http://creativecommons.org/ns#" xmlns:dc="http://purl.org/dc/elements/1.1/" xmlns:rdf="http://www.w3.org/1999/02/22-rdf-syntax-ns#">
 <defs id="defs3051">
  <style id="current-color-scheme" type="text/css">
   .ColorScheme-Text {
        color:#4d4d4d;
      }
      .ColorScheme-Background {
        color:#eff0f1;
      }
      .ColorScheme-Highlight {
        color:#3daee9;
      }
      .ColorScheme-ViewText {
        color:#31363b;
      }
      .ColorScheme-ViewBackground {
        color:#fcfcfc;
      }
      .ColorScheme-ViewHover {
        color:#93cee9;
      }
      .ColorScheme-ViewFocus{
        color:#3daee9;
      }
      .ColorScheme-ButtonText {
        color:#31363b;
      }
      .ColorScheme-ButtonBackground {
        color:#eff0f1;
      }
      .ColorScheme-ButtonHover {
        color:#93cee9;
      }
      .ColorScheme-ButtonFocus{
        color:#3daee9;
      }
  </style>
 </defs>
 <metadata id="metadata3054">
  <rdf:rdf>
   <cc:work rdf:about="">
    <dc:format>
     image/svg+xml
    </dc:format>
    <dc:type rdf:resource="http://purl.org/dc/dcmitype/StillImage">
    </dc:type>
    <dc:title>
    </dc:title>
   </cc:work>
  </rdf:rdf>
 </metadata>
 <g id="layer1" transform="translate(-421.71 -523.79)">
  <g id="layer1-0" transform="matrix(.75 0 0 0.75 421.46 -241.23)">
   <g id="layer1-6" transform="translate(6.2938e-7 -.00020410)">
    <path class="ColorScheme-Text" d="m7 1026.7v17.333h2.6667v-17.333h-2.6667zm4 0v8.0001h1.3333v-8.0001h-1.3333zm2.6667 0v17.333h1.3333v-17.333h-1.3333zm2.6667 0v10.667h1.3333v-10.667h-1.3333zm2.6667 0v8.0001h1.3333v-8.0001h-1.3333zm2.6667 0v8.0001h4v-8.0001h-4zm-1.3333 9.3334a1.3335 1.3335 0 0 0 -1.335 1.4v1.3334h-1.3333a1.3335 1.3335 0 0 0 -1.3333 1.3333v1.3333a1.3335 1.3335 0 0 0 1.3333 1.3334h1.3333v1.3333a1.3335 1.3335 0 0 0 1.3333 1.3334h1.3333a1.3335 1.3335 0 0 0 1.334 -1.2v-1.3333h1.3333a1.3335 1.3335 0 0 0 1.3333 -1.3334v-1.3333a1.3335 1.3335 0 0 0 -1.3333 -1.3333h-1.3333v-1.3334a1.3335 1.3335 0 0 0 -1.3333 -1.3333h-1.3333z" id="path4148" style="fill:currentColor">
    </path>
   </g>
  </g>
 </g>
</svg>
