<?xml version="1.0" encoding="UTF-8" standalone="no"?>
<!-- Created with Inkscape (http://www.inkscape.org/) -->
<svg height="24" id="svg7384" style="enable-background:new" version="1.1" width="24" xmlns="http://www.w3.org/2000/svg" xmlns:cc="http://creativecommons.org/ns#" xmlns:dc="http://purl.org/dc/elements/1.1/" xmlns:osb="http://www.openswatchbook.org/uri/2009/osb" xmlns:rdf="http://www.w3.org/1999/02/22-rdf-syntax-ns#">
 <defs>
  <style id="current-color-scheme" type="text/css">
   .ColorScheme-Text { color:#555555; }
  </style>
 </defs>
 <metadata id="metadata90">
  <rdf:rdf>
   <cc:work rdf:about="">
    <dc:format>
     image/svg+xml
    </dc:format>
    <dc:type rdf:resource="http://purl.org/dc/dcmitype/StillImage">
    </dc:type>
    <dc:title>
     Paper Symbolic Icon Theme
    </dc:title>
   </cc:work>
  </rdf:rdf>
 </metadata>
 <title id="title8473">
  Paper Symbolic Icon Theme
 </title>
 <g id="layer12" transform="translate(-505 -20.997)">
  <path class="ColorScheme-Text" d="m509 25.993v14c5.3333-0.002 10.667 0.005 16 0.003v-14c-5.3333 0.002-10.667-0.005-16-0.003zm1.9998 2.0034c1.6667-0.001 3.3335-0.002 5.0002-0.003-0.00007 3.3344-0.00013 6.6689-0.0002 10.003-1.6667 0.001-3.3335 0.002-5.0002 0.003 0.00007-3.3343 0.00013-6.6687 0.0002-10.003zm7 0h5c-0.00007 3.3344-0.00013 6.6689-0.0002 10.003h-5c0.00007-3.3344 0.00013-6.6689 0.0002-10.003z" id="rect5700" style="fill:currentColor">
  </path>
 </g>
</svg>
