<?xml version="1.0" encoding="UTF-8" standalone="no"?>
<!-- Created with Inkscape (http://www.inkscape.org/) -->
<svg height="24" id="svg7384" style="enable-background:new" version="1.1" width="24" xmlns="http://www.w3.org/2000/svg" xmlns:cc="http://creativecommons.org/ns#" xmlns:dc="http://purl.org/dc/elements/1.1/" xmlns:osb="http://www.openswatchbook.org/uri/2009/osb" xmlns:rdf="http://www.w3.org/1999/02/22-rdf-syntax-ns#">
 <metadata id="metadata90">
  <rdf:rdf>
   <cc:work rdf:about="">
    <dc:format>
     image/svg+xml
    </dc:format>
    <dc:type rdf:resource="http://purl.org/dc/dcmitype/StillImage">
    </dc:type>
    <dc:title>
     Paper Symbolic Icon Theme
    </dc:title>
   </cc:work>
  </rdf:rdf>
 </metadata>
 <title id="title8473">
  Paper Symbolic Icon Theme
 </title>
 <defs id="defs7386">
  <style id="current-color-scheme" type="text/css">
   .ColorScheme-Text { color:#555555; }
  </style>
  <filter id="filter7554" style="color-interpolation-filters:sRGB">
   <feblend id="feBlend7556" in2="BackgroundImage" mode="darken">
   </feblend>
  </filter>
 </defs>
 <g id="g6058" transform="translate(-564,-500)">
  <path class="ColorScheme-Text" d="m6.0078 5c-2.25 0-2 2-2 2v12h8.0002v-2h-6.0002v-0.844-1.656-4.5h4.0002v-2h-4.0002v-1h10v4h-6v2h2 4 2v-6c0-2-2-2-2-2h-10zm2 9v2h4.0002v-2h-4.0002zm4.9922 0v6h5v-6h-5zm1 2h1v1h-1v-1zm2 0h1v1h-1v-1zm-2 2h1v1h-1v-1zm2 0h1v1h-1v-1z" id="path4314" style="fill:currentColor" transform="translate(564,500)">
  </path>
 </g>
</svg>
