<?xml version="1.0" encoding="UTF-8" standalone="no"?>
<!-- Created with Inkscape (http://www.inkscape.org/) -->
<svg height="24" id="svg7384" style="enable-background:new" version="1.1" width="24" xmlns="http://www.w3.org/2000/svg" xmlns:cc="http://creativecommons.org/ns#" xmlns:dc="http://purl.org/dc/elements/1.1/" xmlns:osb="http://www.openswatchbook.org/uri/2009/osb" xmlns:rdf="http://www.w3.org/1999/02/22-rdf-syntax-ns#">
 <metadata id="metadata90">
  <rdf:rdf>
   <cc:work rdf:about="">
    <dc:format>
     image/svg+xml
    </dc:format>
    <dc:type rdf:resource="http://purl.org/dc/dcmitype/StillImage">
    </dc:type>
    <dc:title>
     Paper Symbolic Icon Theme
    </dc:title>
   </cc:work>
  </rdf:rdf>
 </metadata>
 <title id="title8473">
  Paper Symbolic Icon Theme
 </title>
 <defs id="defs7386">
  <style id="current-color-scheme" type="text/css">
   .ColorScheme-Text {
        color:#4d4d4d;
      }
      .ColorScheme-Background {
        color:#eff0f1;
      }
      .ColorScheme-Highlight {
        color:#3daee9;
      }
      .ColorScheme-ViewText {
        color:#31363b;
      }
      .ColorScheme-ViewBackground {
        color:#fcfcfc;
      }
      .ColorScheme-ViewHover {
        color:#93cee9;
      }
      .ColorScheme-ViewFocus{
        color:#3daee9;
      }
      .ColorScheme-ButtonText {
        color:#31363b;
      }
      .ColorScheme-ButtonBackground {
        color:#eff0f1;
      }
      .ColorScheme-ButtonHover {
        color:#93cee9;
      }
      .ColorScheme-ButtonFocus{
        color:#3daee9;
      }
  </style>
  <style id="current-color-scheme-0" type="text/css">
   .ColorScheme-Text {
        color:#4d4d4d;
      }
      .ColorScheme-Background {
        color:#eff0f1;
      }
      .ColorScheme-Highlight {
        color:#3daee9;
      }
      .ColorScheme-ViewText {
        color:#31363b;
      }
      .ColorScheme-ViewBackground {
        color:#fcfcfc;
      }
      .ColorScheme-ViewHover {
        color:#93cee9;
      }
      .ColorScheme-ViewFocus{
        color:#3daee9;
      }
      .ColorScheme-ButtonText {
        color:#31363b;
      }
      .ColorScheme-ButtonBackground {
        color:#eff0f1;
      }
      .ColorScheme-ButtonHover {
        color:#93cee9;
      }
      .ColorScheme-ButtonFocus{
        color:#3daee9;
      }
  </style>
 </defs>
 <g id="layer12" transform="translate(-585 -33)">
  <path class="ColorScheme-Text" d="m6 5s-0.0762 0.0041-0.1816 0.0234c-0.2042 0.0302-0.3587 0.1035-0.4727 0.2032-0.0221 0.0169-0.0435 0.035-0.0645 0.0546-0.0196 0.021-0.0376 0.0424-0.0546 0.0645-0.0996 0.114-0.173 0.2685-0.2032 0.4727-0.0194 0.1054-0.0234 0.1816-0.0234 0.1816v7 5c0 1 1 1 1 1h5 2 5s1 0 1-1v-5-7s-0.004-0.0762-0.023-0.1816c-0.031-0.2042-0.104-0.3587-0.204-0.4727-0.016-0.0221-0.035-0.0435-0.054-0.0645-0.021-0.0196-0.043-0.0377-0.065-0.0546-0.114-0.0997-0.268-0.173-0.472-0.2032-0.106-0.0193-0.182-0.0234-0.182-0.0234h-12zm2 4h2 1v1 1 2 1 1h-1-2v-2-2-2zm4 1h4v1h-4v-1zm0 3h4v1h-4v-1z" id="path4393" style="fill:currentColor" transform="translate(585 33)">
  </path>
  <rect class="ColorScheme-Text" fill="currentColor" height="11" id="rect4035" style="color:#4d4d4d" width="0" x="561.1" y="45.285">
  </rect>
  <rect class="ColorScheme-Text" fill="currentColor" height="11" id="rect4035-5" style="color:#4d4d4d" width="0" x="579.14" y="43.234">
  </rect>
  <rect class="ColorScheme-Text" fill="currentColor" height="11" id="rect4035-8" style="color:#4d4d4d" width="0" x="561.1" y="45.285">
  </rect>
  <rect class="ColorScheme-Text" fill="currentColor" height="11" id="rect4035-59" style="color:#4d4d4d" width="0" x="561.1" y="45.285">
  </rect>
  <rect class="ColorScheme-Text" fill="currentColor" height="11" id="rect4035-1" style="color:#4d4d4d" width="0" x="574.1" y="45.285">
  </rect>
  <rect class="ColorScheme-Text" fill="currentColor" height="11" id="rect4035-2" style="color:#4d4d4d" width="0" x="567.96" y="45.551">
  </rect>
  <rect class="ColorScheme-Text" fill="currentColor" height="11" id="rect4035-5-6" style="color:#4d4d4d" width="0" x="586" y="43.5">
  </rect>
  <rect class="ColorScheme-Text" fill="currentColor" height="11" id="rect4035-8-0" style="color:#4d4d4d" width="0" x="567.96" y="45.551">
  </rect>
  <rect class="ColorScheme-Text" fill="currentColor" height="11" id="rect4035-59-5" style="color:#4d4d4d" width="0" x="567.96" y="45.551">
  </rect>
  <text class="ColorScheme-Text" fill="currentColor" font-family="Sans" font-size="9px" id="text3781" line-height="125%" style="color:#4d4d4d;word-spacing:0px;letter-spacing:0px" x="583.39539" xml:space="preserve" y="58.308594">
   <tspan id="tspan3783" x="583.39539" y="58.308594">
   </tspan>
  </text>
  <text class="ColorScheme-Text" fill="currentColor" font-family="Sans" font-size="9px" id="text3781-8" line-height="125%" style="color:#4d4d4d;word-spacing:0px;letter-spacing:0px" x="584.13208" xml:space="preserve" y="52.445251">
   <tspan id="tspan3783-1" x="584.13208" y="52.445251">
   </tspan>
  </text>
  <text class="ColorScheme-Text" fill="currentColor" font-family="Sans" font-size="9px" id="text3781-4" line-height="125%" style="color:#4d4d4d;word-spacing:0px;letter-spacing:0px" x="577.39539" xml:space="preserve" y="59.308594">
   <tspan id="tspan3783-13" x="577.39539" y="59.308594">
   </tspan>
  </text>
  <rect class="ColorScheme-Text" fill="currentColor" height="11" id="rect4035-9" style="color:#4d4d4d" width="0" x="567.96" y="45.551">
  </rect>
  <rect class="ColorScheme-Text" fill="currentColor" height="11" id="rect4035-5-7" style="color:#4d4d4d" width="0" x="586" y="43.5">
  </rect>
  <rect class="ColorScheme-Text" fill="currentColor" height="11" id="rect4035-9-0" style="color:#4d4d4d" width="0" x="547.96" y="45.551">
  </rect>
  <rect class="ColorScheme-Text" fill="currentColor" height="11" id="rect4035-5-7-5" style="color:#4d4d4d" width="0" x="566" y="43.5">
  </rect>
  <rect class="ColorScheme-Text" fill="currentColor" height="11" id="rect4035-0" style="color:#4d4d4d" width="0" x="565.1" y="42.285">
  </rect>
  <rect class="ColorScheme-Text" fill="currentColor" height="11" id="rect4035-5-2" style="color:#4d4d4d" width="0" x="583.14" y="40.234">
  </rect>
  <rect class="ColorScheme-Text" fill="currentColor" height="11" id="rect4035-8-6" style="color:#4d4d4d" width="0" x="565.1" y="42.285">
  </rect>
  <rect class="ColorScheme-Text" fill="currentColor" height="11" id="rect4035-59-0" style="color:#4d4d4d" width="0" x="565.1" y="42.285">
  </rect>
  <rect class="ColorScheme-Text" fill="currentColor" height="11" id="rect4035-1-1" style="color:#4d4d4d" width="0" x="578.1" y="42.285">
  </rect>
  <rect class="ColorScheme-Text" fill="currentColor" height="11" id="rect4035-2-5" style="color:#4d4d4d" width="0" x="571.96" y="42.551">
  </rect>
  <rect class="ColorScheme-Text" fill="currentColor" height="11" id="rect4035-5-6-5" style="color:#4d4d4d" width="0" x="590" y="40.5">
  </rect>
  <rect class="ColorScheme-Text" fill="currentColor" height="11" id="rect4035-8-0-7" style="color:#4d4d4d" width="0" x="571.96" y="42.551">
  </rect>
  <rect class="ColorScheme-Text" fill="currentColor" height="11" id="rect4035-59-5-9" style="color:#4d4d4d" width="0" x="571.96" y="42.551">
  </rect>
  <text class="ColorScheme-Text" fill="currentColor" font-family="Sans" font-size="9px" id="text3781-1" line-height="125%" style="color:#4d4d4d;word-spacing:0px;letter-spacing:0px" x="587.39539" xml:space="preserve" y="55.308594">
   <tspan id="tspan3783-9" x="587.39539" y="55.308594">
   </tspan>
  </text>
  <text class="ColorScheme-Text" fill="currentColor" font-family="Sans" font-size="9px" id="text3781-8-5" line-height="125%" style="color:#4d4d4d;word-spacing:0px;letter-spacing:0px" x="588.13208" xml:space="preserve" y="49.445251">
   <tspan id="tspan3783-1-1" x="588.13208" y="49.445251">
   </tspan>
  </text>
  <text class="ColorScheme-Text" fill="currentColor" font-family="Sans" font-size="9px" id="text3781-4-7" line-height="125%" style="color:#4d4d4d;word-spacing:0px;letter-spacing:0px" x="581.39539" xml:space="preserve" y="56.308594">
   <tspan id="tspan3783-13-3" x="581.39539" y="56.308594">
   </tspan>
  </text>
  <rect class="ColorScheme-Text" fill="currentColor" height="11" id="rect4035-9-07" style="color:#4d4d4d" width="0" x="571.96" y="42.551">
  </rect>
  <rect class="ColorScheme-Text" fill="currentColor" height="11" id="rect4035-5-7-59" style="color:#4d4d4d" width="0" x="590" y="40.5">
  </rect>
  <rect class="ColorScheme-Text" fill="currentColor" height="11" id="rect4035-9-0-1" style="color:#4d4d4d" width="0" x="551.96" y="42.551">
  </rect>
  <rect class="ColorScheme-Text" fill="currentColor" height="11" id="rect4035-5-7-5-2" style="color:#4d4d4d" width="0" x="570" y="40.5">
  </rect>
 </g>
</svg>
