<?xml version="1.0" encoding="UTF-8" standalone="no"?>
<!-- Created with Inkscape (http://www.inkscape.org/) -->
<svg height="22" id="svg7384" inkscape:version="0.91 r13725" sodipodi:docname="cloudstatus.svg" style="enable-background:new" version="1.1" width="22" xmlns="http://www.w3.org/2000/svg" xmlns:cc="http://creativecommons.org/ns#" xmlns:dc="http://purl.org/dc/elements/1.1/" xmlns:inkscape="http://www.inkscape.org/namespaces/inkscape" xmlns:rdf="http://www.w3.org/1999/02/22-rdf-syntax-ns#" xmlns:sodipodi="http://sodipodi.sourceforge.net/DTD/sodipodi-0.dtd" xmlns:svg="http://www.w3.org/2000/svg">
 <sodipodi:namedview bordercolor="#666666" borderopacity="1" gridtolerance="10" guidetolerance="10" id="namedview10" inkscape:current-layer="svg7384" inkscape:cx="8" inkscape:cy="8" inkscape:pageopacity="0" inkscape:pageshadow="2" inkscape:window-height="849" inkscape:window-maximized="1" inkscape:window-width="1600" inkscape:window-x="0" inkscape:window-y="0" inkscape:zoom="1" objecttolerance="10" pagecolor="#ffffff" showgrid="false">
 </sodipodi:namedview>
 <metadata id="metadata90">
  <rdf:rdf>
   <cc:work rdf:about="">
    <dc:format>
     image/svg+xml
    </dc:format>
    <dc:type rdf:resource="http://purl.org/dc/dcmitype/StillImage">
    </dc:type>
    <dc:title>
     Paper Symbolic Icon Theme
    </dc:title>
   </cc:work>
  </rdf:rdf>
 </metadata>
 <title id="title8473">
  Paper Symbolic Icon Theme
 </title>
 <defs id="defs7386">
  <style id="current-color-scheme" type="text/css">
   .ColorScheme-Text { color:#555555; }
  </style>
  <filter id="filter7554" style="color-interpolation-filters:sRGB">
   <feblend id="feBlend7556" in2="BackgroundImage" mode="darken">
   </feblend>
  </filter>
 </defs>
 <g id="layer1" transform="matrix(1.0666667,0,0,1.0909091,-514.33335,-196.81818)">
  <path class="ColorScheme-Text" d="M 8,3 A 5,5 0 0 0 3.2676,6.3984 4,4 0 0 0 1,10 4,4 0 0 0 5,14 4,4 0 0 0 7.6582,12.982 5,5 0 0 0 8,13 5,5 0 0 0 10.113,12.525 4,4 0 0 0 12,13 4,4 0 0 0 16,9 4,4 0 0 0 12,5 4,4 0 0 0 11.992,5 5,5 0 0 0 8,3 Z" id="path4148" inkscape:connector-curvature="0" style="fill:currentColor" transform="translate(484,182)">
  </path>
 </g>
</svg>
