<?xml version="1.0" encoding="UTF-8" standalone="no"?>
<!-- Created with Inkscape (http://www.inkscape.org/) -->
<svg height="22" id="svg7384" inkscape:version="0.91 r13725" sodipodi:docname="mic-volume-muted.svg" style="enable-background:new" version="1.1" width="22" xmlns="http://www.w3.org/2000/svg" xmlns:cc="http://creativecommons.org/ns#" xmlns:dc="http://purl.org/dc/elements/1.1/" xmlns:inkscape="http://www.inkscape.org/namespaces/inkscape" xmlns:rdf="http://www.w3.org/1999/02/22-rdf-syntax-ns#" xmlns:sodipodi="http://sodipodi.sourceforge.net/DTD/sodipodi-0.dtd" xmlns:svg="http://www.w3.org/2000/svg">
 <sodipodi:namedview bordercolor="#666666" borderopacity="1" gridtolerance="10" guidetolerance="10" id="namedview10" inkscape:current-layer="svg7384" inkscape:cx="1.2315859" inkscape:cy="10.012072" inkscape:pageopacity="0" inkscape:pageshadow="2" inkscape:window-height="849" inkscape:window-maximized="1" inkscape:window-width="1600" inkscape:window-x="0" inkscape:window-y="0" inkscape:zoom="17.31" objecttolerance="10" pagecolor="#ffa3ff" showgrid="false">
  <inkscape:grid id="grid4192" type="xygrid">
  </inkscape:grid>
 </sodipodi:namedview>
 <metadata id="metadata90">
  <rdf:rdf>
   <cc:work rdf:about="">
    <dc:format>
     image/svg+xml
    </dc:format>
    <dc:type rdf:resource="http://purl.org/dc/dcmitype/StillImage">
    </dc:type>
    <dc:title>
     Paper Symbolic Icon Theme
    </dc:title>
   </cc:work>
  </rdf:rdf>
 </metadata>
 <title id="title8473">
  Paper Symbolic Icon Theme
 </title>
 <defs id="defs7386">
  <style id="current-color-scheme" type="text/css">
   .ColorScheme-Text { color:#555555; }
  </style>
 </defs>
 <path class="ColorScheme-Text" d="M 11,3 C 9.3379,3 8,4.3381 8,6 l 0,5.001953 C 8,12.663853 9.3379,14 11,14 c 1.6621,0 3,-1.336247 3,-2.998047 L 14,6 C 14,4.3381 12.6621,3 11,3 Z m -6,7 0,0.998047 C 5.00001,13.964549 7,17 10,17 l 0,2 2,0 0,-2 c 3,0 5,-3.035551 5,-6.001953 L 17,10 l -2,0 0,0.998047 C 15,13.232128 13.2334,15 11,15 8.7666,15 7,13.232128 7,10.998047 L 7,10 5,10 Z" id="path4234" inkscape:connector-curvature="0" style="fill:currentColor">
 </path>
</svg>
