<?xml version="1.0" encoding="UTF-8" standalone="no"?>
<!-- Created with Inkscape (http://www.inkscape.org/) -->
<svg height="22" id="svg6530" inkscape:version="0.91 r13725" sodipodi:docname="redshift-status-off.svg" version="1.1" viewbox="0 0 22 22" width="22" xmlns="http://www.w3.org/2000/svg" xmlns:cc="http://creativecommons.org/ns#" xmlns:dc="http://purl.org/dc/elements/1.1/" xmlns:inkscape="http://www.inkscape.org/namespaces/inkscape" xmlns:osb="http://www.openswatchbook.org/uri/2009/osb" xmlns:rdf="http://www.w3.org/1999/02/22-rdf-syntax-ns#" xmlns:sodipodi="http://sodipodi.sourceforge.net/DTD/sodipodi-0.dtd" xmlns:svg="http://www.w3.org/2000/svg">
 <defs id="defs6532">
  <style id="current-color-scheme" type="text/css">
   .ColorScheme-Text { color:#555555; }
  </style>
  <lineargradient id="linearGradient5606" osb:paint="solid">
   <stop id="stop5608" offset="0" style="stop-color:#000000;stop-opacity:1;">
   </stop>
  </lineargradient>
 </defs>
 <sodipodi:namedview bordercolor="#666666" borderopacity="1.0" id="base" inkscape:bbox-nodes="true" inkscape:current-layer="layer1" inkscape:cx="10.817551" inkscape:cy="9.4983826" inkscape:document-units="px" inkscape:object-nodes="true" inkscape:object-paths="true" inkscape:pageopacity="0" inkscape:pageshadow="2" inkscape:snap-bbox="true" inkscape:snap-bbox-edge-midpoints="true" inkscape:snap-bbox-midpoints="true" inkscape:snap-smooth-nodes="true" inkscape:window-height="849" inkscape:window-maximized="1" inkscape:window-width="1600" inkscape:window-x="0" inkscape:window-y="30" inkscape:zoom="18.55" pagecolor="#454d50" showgrid="false" units="px">
  <inkscape:grid empspacing="4" id="grid8845" originx="-569" originy="-97.089537" type="xygrid">
  </inkscape:grid>
 </sodipodi:namedview>
 <metadata id="metadata6535">
  <rdf:rdf>
   <cc:work rdf:about="">
    <dc:format>
     image/svg+xml
    </dc:format>
    <dc:type rdf:resource="http://purl.org/dc/dcmitype/StillImage">
    </dc:type>
    <dc:title>
    </dc:title>
   </cc:work>
  </rdf:rdf>
 </metadata>
 <g id="layer1" inkscape:groupmode="layer" inkscape:label="panel" style="display:inline" transform="translate(-569,-933.27262)">
  <path class="ColorScheme-Text" d="M 11 3 C 7.68617 3 5 5.30968 5 8.15625 C 5 9.84414 5.9264494 11.317693 7.3808594 12.257812 C 8.0498794 12.691873 8.96875 13.250054 8.96875 14.021484 L 9.03125 15 L 12.966797 15 L 13.033203 14.021484 C 13.085703 13.251354 13.951321 12.691873 14.619141 12.257812 C 16.074801 11.317694 17 9.84414 17 8.15625 C 17 5.30968 14.31398 3 11 3 z M 11 5 C 13.208 5 15 6.3506156 15 8.0097656 C 15 8.9576356 14.424036 9.830227 13.416016 10.398438 C 11.912016 11.252276 11.342153 12.20669 11.132812 13 L 10.867188 13 C 10.659166 12.20669 10.088654 11.252277 8.5839844 10.398438 C 7.5786544 9.829717 7 8.9571456 7 8.0097656 C 7 6.3506156 8.79267 5 11 5 z M 9 16 L 9 17 L 13 17 L 13 16 L 9 16 z M 10 18 L 10 19 L 12 19 L 12 18 L 10 18 z " id="path4145" style="fill:currentColor" transform="translate(569,933.27262)">
  </path>
  <rect height="22" id="rect9072" style="color:#bebebe;display:inline;overflow:visible;visibility:visible;fill:none;stroke:none;stroke-width:1;marker:none;enable-background:new" width="22" x="569" y="933.27264">
  </rect>
 </g>
 <g id="layer2" inkscape:groupmode="layer" inkscape:label="animations" transform="translate(-569,-480.91046)">
 </g>
</svg>
