<?xml version="1.0" encoding="UTF-8" standalone="no"?>
<!-- Created with Inkscape (http://www.inkscape.org/) -->
<svg height="22" id="svg6530" inkscape:version="0.91 r13725" sodipodi:docname="uget-tray-default.svg" version="1.1" viewbox="0 0 22 22" width="22" xmlns="http://www.w3.org/2000/svg" xmlns:cc="http://creativecommons.org/ns#" xmlns:dc="http://purl.org/dc/elements/1.1/" xmlns:inkscape="http://www.inkscape.org/namespaces/inkscape" xmlns:osb="http://www.openswatchbook.org/uri/2009/osb" xmlns:rdf="http://www.w3.org/1999/02/22-rdf-syntax-ns#" xmlns:sodipodi="http://sodipodi.sourceforge.net/DTD/sodipodi-0.dtd" xmlns:svg="http://www.w3.org/2000/svg">
 <defs id="defs6532">
  <style id="current-color-scheme" type="text/css">
   .ColorScheme-Text { color:#555555; }
  </style>
  <lineargradient id="linearGradient5606" osb:paint="solid">
   <stop id="stop5608" offset="0" style="stop-color:#000000;stop-opacity:1;">
   </stop>
  </lineargradient>
 </defs>
 <sodipodi:namedview bordercolor="#666666" borderopacity="1.0" id="base" inkscape:bbox-nodes="true" inkscape:current-layer="layer1" inkscape:cx="-173.17263" inkscape:cy="5.480874" inkscape:document-units="px" inkscape:object-nodes="true" inkscape:object-paths="true" inkscape:pageopacity="0" inkscape:pageshadow="2" inkscape:snap-bbox="true" inkscape:snap-bbox-edge-midpoints="true" inkscape:snap-bbox-midpoints="true" inkscape:snap-smooth-nodes="true" inkscape:window-height="849" inkscape:window-maximized="1" inkscape:window-width="1600" inkscape:window-x="0" inkscape:window-y="0" inkscape:zoom="1" pagecolor="#454d50" showgrid="false" units="px">
  <inkscape:grid empspacing="4" id="grid8845" originx="-617" originy="-121.08952" type="xygrid">
  </inkscape:grid>
 </sodipodi:namedview>
 <metadata id="metadata6535">
  <rdf:rdf>
   <cc:work rdf:about="">
    <dc:format>
     image/svg+xml
    </dc:format>
    <dc:type rdf:resource="http://purl.org/dc/dcmitype/StillImage">
    </dc:type>
    <dc:title>
    </dc:title>
   </cc:work>
  </rdf:rdf>
 </metadata>
 <g id="layer1" inkscape:groupmode="layer" inkscape:label="panel" style="display:inline" transform="translate(-617,-909.27264)">
  <path class="ColorScheme-Text" d="m 627,912.36216 c 0,0 -3,0 -3,3 l 0,1 0,6 -2,0 0,-6 -2,0 0,6 c 0,2 2,2 2,2 l 2,0 0,1 c 0,3 3,3 3,3 l 6,0 c 3,0 3,-3 3,-3 l 0,-4.45312 0,-1.54688 -4,0 0,1 0,1 2,0 0,0 -4,5 0,0 -4,-5 2,0 0,-6 4,0 0,2 4,0 0,-2 c 0.0783,0.52713 0,-3 -3,-3 z" id="path5250" inkscape:connector-curvature="0" sodipodi:nodetypes="cscccccsccscscccccccccccccccccsc" style="fill:currentColor">
  </path>
  <rect height="22" id="rect5252" style="color:#bebebe;display:inline;overflow:visible;visibility:visible;fill:none;stroke:none;stroke-width:1;marker:none;enable-background:new" width="22" x="617" y="909.27264">
  </rect>
 </g>
 <g id="layer2" inkscape:groupmode="layer" inkscape:label="animations" transform="translate(-617,-456.91048)">
 </g>
</svg>
