<?xml version="1.0" encoding="UTF-8" standalone="no"?>
<!-- Created with Inkscape (http://www.inkscape.org/) -->
<svg height="48" id="svg2817" inkscape:version="0.91 r13725" sodipodi:docname="phone.svg" version="1.0" width="48" xmlns="http://www.w3.org/2000/svg" xmlns:cc="http://creativecommons.org/ns#" xmlns:dc="http://purl.org/dc/elements/1.1/" xmlns:inkscape="http://www.inkscape.org/namespaces/inkscape" xmlns:rdf="http://www.w3.org/1999/02/22-rdf-syntax-ns#" xmlns:sodipodi="http://sodipodi.sourceforge.net/DTD/sodipodi-0.dtd" xmlns:svg="http://www.w3.org/2000/svg">
 <sodipodi:namedview bordercolor="#666666" borderopacity="1" gridtolerance="10" guidetolerance="10" id="namedview229" inkscape:current-layer="svg2817" inkscape:cx="29.777136" inkscape:cy="18.69144" inkscape:pageopacity="0" inkscape:pageshadow="2" inkscape:window-height="876" inkscape:window-maximized="1" inkscape:window-width="1535" inkscape:window-x="65" inkscape:window-y="24" inkscape:zoom="8" objecttolerance="10" pagecolor="#ffffff" showgrid="false">
 </sodipodi:namedview>
 <metadata id="metadata57">
  <rdf:rdf>
   <cc:work rdf:about="">
    <dc:format>
     image/svg+xml
    </dc:format>
    <dc:type rdf:resource="http://purl.org/dc/dcmitype/StillImage">
    </dc:type>
    <dc:title>
    </dc:title>
   </cc:work>
  </rdf:rdf>
 </metadata>
 <defs id="defs2819">
  <style id="current-color-scheme" type="text/css">
   .ColorScheme-Text {
        color:#31363b;
      }
      .ColorScheme-Background{
        color:#eff0f1;
      }
      .ColorScheme-ViewText {
        color:#31363b;
      }
      .ColorScheme-ViewBackground{
        color:#fcfcfc;
      }
      .ColorScheme-ViewHover {
        color:#3daee9;
      }
      .ColorScheme-ViewFocus{
        color:#3daee9;
      }
      .ColorScheme-ButtonText {
        color:#31363b;
      }
      .ColorScheme-ButtonBackground{
        color:#eff0f1;
      }
      .ColorScheme-ButtonHover {
        color:#3daee9;
      }
      .ColorScheme-ButtonFocus{
        color:#3daee9;
      }
  </style>
 </defs>
 <text fill="#000000" font-family="'Bitstream Vera Sans'" font-size="12.666px" id="text4087-2-6-5" opacity=".8" x="877.22626" xml:space="preserve" y="10.812601">
  <tspan id="tspan4089-7-2-9" x="877.22626" y="10.812601">
  </tspan>
 </text>
 <text fill="#000000" font-family="'Bitstream Vera Sans'" font-size="12.666px" id="text4087-2-6-5-5" opacity=".8" x="901.18719" xml:space="preserve" y="-29.929106">
  <tspan id="tspan4089-7-2-9-6" x="901.18719" y="-29.929106">
  </tspan>
 </text>
 <text fill="#000000" font-family="'Bitstream Vera Sans'" font-size="12.666px" id="text4087-2-6-5-2" opacity=".8" x="-569.37115" xml:space="preserve" y="-60.007248">
  <tspan id="tspan4089-7-2-9-2" x="-569.37115" y="-60.007248">
  </tspan>
 </text>
 <text fill="#000000" font-family="'Bitstream Vera Sans'" font-size="12.666px" id="text4087-2-6-5-59" opacity=".8" x="-2393.0571" xml:space="preserve" y="685.5462">
  <tspan id="tspan4089-7-2-9-4" x="-2393.0571" y="685.5462">
  </tspan>
 </text>
 <text fill="#000000" font-family="'Bitstream Vera Sans'" font-size="12.666px" id="text4087-2-6-5-1" opacity=".8" x="-454.88007" xml:space="preserve" y="-445.32822">
  <tspan id="tspan4089-7-2-9-7" x="-454.88007" y="-445.32822">
  </tspan>
 </text>
 <text fill="#000000" font-family="'Bitstream Vera Sans'" font-size="12.666px" id="text4087-2-6-5-7" opacity=".8" x="352.72208" xml:space="preserve" y="-858.79834">
  <tspan id="tspan4089-7-2-9-1" x="352.72208" y="-858.79834">
  </tspan>
 </text>
 <text fill="#000000" font-family="'Bitstream Vera Sans'" font-size="12.666px" id="text4087-2-6-5-5-3" opacity=".8" x="376.68301" xml:space="preserve" y="-899.54004">
  <tspan id="tspan4089-7-2-9-6-5" x="376.68301" y="-899.54004">
  </tspan>
 </text>
 <text fill="#000000" font-family="'Bitstream Vera Sans'" font-size="12.666px" id="text4087-2-6-5-3" opacity=".8" x="-1114.7802" xml:space="preserve" y="-906.74994">
  <tspan id="tspan4089-7-2-9-18" x="-1114.7802" y="-906.74994">
  </tspan>
 </text>
 <text fill="#000000" font-family="'Bitstream Vera Sans'" font-size="12.666px" id="text4087-2-6-5-4" opacity=".8" x="345.7626" xml:space="preserve" y="-1179.9841">
  <tspan id="tspan4089-7-2-9-9" x="345.7626" y="-1179.9841">
  </tspan>
 </text>
 <text fill="#000000" font-family="'Bitstream Vera Sans'" font-size="12.666px" id="text4087-2-6-5-7-1" opacity=".8" x="1831.8861" xml:space="preserve" y="-553.29272">
  <tspan id="tspan4089-7-2-9-1-8" x="1831.8861" y="-553.29272">
  </tspan>
 </text>
 <text fill="#000000" font-family="'Bitstream Vera Sans'" font-size="12.666px" id="text4087-2-6-5-5-5" opacity=".8" x="1855.8469" xml:space="preserve" y="-594.03448">
  <tspan id="tspan4089-7-2-9-6-9" x="1855.8469" y="-594.03448">
  </tspan>
 </text>
 <text fill="#000000" font-family="'Bitstream Vera Sans'" font-size="12.666px" id="text4087-2-6-5-75" opacity=".8" x="364.38376" xml:space="preserve" y="-601.24438">
  <tspan id="tspan4089-7-2-9-3" x="364.38376" y="-601.24438">
  </tspan>
 </text>
 <text fill="#000000" font-family="'Bitstream Vera Sans'" font-size="12.666px" id="text4087-2-6-5-4-8" opacity=".8" x="1824.9266" xml:space="preserve" y="-874.47839">
  <tspan id="tspan4089-7-2-9-9-8" x="1824.9266" y="-874.47839">
  </tspan>
 </text>
 <text fill="#000000" font-family="'Bitstream Vera Sans'" font-size="12.666px" id="text4087-2-6-5-45" opacity=".8" x="-573.43256" xml:space="preserve" y="-649.33569">
  <tspan id="tspan4089-7-2-9-75" x="-573.43256" y="-649.33569">
  </tspan>
 </text>
 <text fill="#000000" font-family="'Bitstream Vera Sans'" font-size="12.666px" id="text4087-2-6-5-59-7" opacity=".8" x="-2397.1182" xml:space="preserve" y="96.217857">
  <tspan id="tspan4089-7-2-9-4-0" x="-2397.1182" y="96.217857">
  </tspan>
 </text>
 <text fill="#000000" font-family="'Bitstream Vera Sans'" font-size="12.666px" id="text4087-2-6-5-8" opacity=".8" x="-682.36279" xml:space="preserve" y="189.09">
  <tspan id="tspan4089-7-2-9-19" x="-682.36279" y="189.09">
  </tspan>
 </text>
 <text fill="#000000" font-family="'Bitstream Vera Sans'" font-size="12.666px" id="text4087-2-6-5-7-5" opacity=".8" x="426.66153" xml:space="preserve" y="9.9078522">
  <tspan id="tspan4089-7-2-9-1-2" x="426.66153" y="9.9078522">
  </tspan>
 </text>
 <text fill="#000000" font-family="'Bitstream Vera Sans'" font-size="12.666px" id="text4087-2-6-5-5-0" opacity=".8" x="450.62247" xml:space="preserve" y="-30.833855">
  <tspan id="tspan4089-7-2-9-6-2" x="450.62247" y="-30.833855">
  </tspan>
 </text>
 <text fill="#000000" font-family="'Bitstream Vera Sans'" font-size="12.666px" id="text4087-2-6-5-26" opacity=".8" x="-1040.8407" xml:space="preserve" y="-38.043827">
  <tspan id="tspan4089-7-2-9-90" x="-1040.8407" y="-38.043827">
  </tspan>
 </text>
 <text fill="#000000" font-family="'Bitstream Vera Sans'" font-size="12.666px" id="text4087-2-6-5-4-3" opacity=".8" x="419.70206" xml:space="preserve" y="-311.27789">
  <tspan id="tspan4089-7-2-9-9-5" x="419.70206" y="-311.27789">
  </tspan>
 </text>
 <text fill="#000000" font-family="'Bitstream Vera Sans'" font-size="12.666px" id="text4087-2-6-5-55" opacity=".8" x="-608.03253" xml:space="preserve" y="-40.758072">
  <tspan id="tspan4089-7-2-9-32" x="-608.03253" y="-40.758072">
  </tspan>
 </text>
 <text fill="#000000" font-family="'Bitstream Vera Sans'" font-size="12.666px" id="text4087-2-6-5-59-9" opacity=".8" x="-2431.7185" xml:space="preserve" y="704.79541">
  <tspan id="tspan4089-7-2-9-4-1" x="-2431.7185" y="704.79541">
  </tspan>
 </text>
 <text fill="#000000" font-family="'Bitstream Vera Sans'" font-size="12.666px" id="text4087-2-6-5-1-8" opacity=".8" x="-456.93948" xml:space="preserve" y="-902.28857">
  <tspan id="tspan4089-7-2-9-7-8" x="-456.93948" y="-902.28857">
  </tspan>
 </text>
 <text fill="#000000" font-family="'Bitstream Vera Sans'" font-size="12.666px" id="text4087-2-6-5-7-8" opacity=".8" x="350.66266" xml:space="preserve" y="-1315.7588">
  <tspan id="tspan4089-7-2-9-1-9" x="350.66266" y="-1315.7588">
  </tspan>
 </text>
 <text fill="#000000" font-family="'Bitstream Vera Sans'" font-size="12.666px" id="text4087-2-6-5-5-52" opacity=".8" x="374.62357" xml:space="preserve" y="-1356.5005">
  <tspan id="tspan4089-7-2-9-6-4" x="374.62357" y="-1356.5005">
  </tspan>
 </text>
 <text fill="#000000" font-family="'Bitstream Vera Sans'" font-size="12.666px" id="text4087-2-6-5-3-4" opacity=".8" x="-1116.8396" xml:space="preserve" y="-1363.7104">
  <tspan id="tspan4089-7-2-9-18-3" x="-1116.8396" y="-1363.7104">
  </tspan>
 </text>
 <text fill="#000000" font-family="'Bitstream Vera Sans'" font-size="12.666px" id="text4087-2-6-5-4-7" opacity=".8" x="343.70316" xml:space="preserve" y="-1636.9446">
  <tspan id="tspan4089-7-2-9-9-54" x="343.70316" y="-1636.9446">
  </tspan>
 </text>
 <text fill="#000000" font-family="'Bitstream Vera Sans'" font-size="12.666px" id="text4087-2-6-5-7-1-2" opacity=".8" x="1829.8265" xml:space="preserve" y="-1010.2533">
  <tspan id="tspan4089-7-2-9-1-8-0" x="1829.8265" y="-1010.2533">
  </tspan>
 </text>
 <text fill="#000000" font-family="'Bitstream Vera Sans'" font-size="12.666px" id="text4087-2-6-5-5-5-6" opacity=".8" x="1853.7874" xml:space="preserve" y="-1050.9949">
  <tspan id="tspan4089-7-2-9-6-9-8" x="1853.7874" y="-1050.9949">
  </tspan>
 </text>
 <text fill="#000000" font-family="'Bitstream Vera Sans'" font-size="12.666px" id="text4087-2-6-5-75-4" opacity=".8" x="362.32431" xml:space="preserve" y="-1058.2048">
  <tspan id="tspan4089-7-2-9-3-9" x="362.32431" y="-1058.2048">
  </tspan>
 </text>
 <text fill="#000000" font-family="'Bitstream Vera Sans'" font-size="12.666px" id="text4087-2-6-5-4-8-1" opacity=".8" x="1822.8671" xml:space="preserve" y="-1331.439">
  <tspan id="tspan4089-7-2-9-9-8-8" x="1822.8671" y="-1331.439">
  </tspan>
 </text>
 <text fill="#000000" font-family="'Bitstream Vera Sans'" font-size="12.666px" id="text4087-2-6-5-45-0" opacity=".8" x="-575.492" xml:space="preserve" y="-1106.2961">
  <tspan id="tspan4089-7-2-9-75-2" x="-575.492" y="-1106.2961">
  </tspan>
 </text>
 <text fill="#000000" font-family="'Bitstream Vera Sans'" font-size="12.666px" id="text4087-2-6-5-59-5" opacity=".8" x="-2399.1777" xml:space="preserve" y="-360.74261">
  <tspan id="tspan4089-7-2-9-4-00" x="-2399.1777" y="-360.74261">
  </tspan>
 </text>
 <text fill="#000000" font-family="'Bitstream Vera Sans'" font-size="12.666px" id="text4087-2-6-5-264" opacity=".8" x="-684.42224" xml:space="preserve" y="-267.87045">
  <tspan id="tspan4089-7-2-9-8" x="-684.42224" y="-267.87045">
  </tspan>
 </text>
 <text fill="#000000" font-family="'Bitstream Vera Sans'" font-size="12.666px" id="text4087-2-6-5-42" opacity=".8" x="155.5923" xml:space="preserve" y="-26.956278">
  <tspan id="tspan4089-7-2-9-93" x="155.5923" y="-26.956278">
  </tspan>
 </text>
 <text fill="#000000" font-family="'Bitstream Vera Sans'" font-size="12.666px" id="text4087-2-6-5-5-05" opacity=".8" x="179.55324" xml:space="preserve" y="-67.697998">
  <tspan id="tspan4089-7-2-9-6-49" x="179.55324" y="-67.697998">
  </tspan>
 </text>
 <text fill="#000000" font-family="'Bitstream Vera Sans'" font-size="12.666px" id="text4087-2-6-5-1-4" opacity=".8" x="-1090.2634" xml:space="preserve" y="-261.72662">
  <tspan id="tspan4089-7-2-9-7-7" x="-1090.2634" y="-261.72662">
  </tspan>
 </text>
 <text fill="#000000" font-family="'Bitstream Vera Sans'" font-size="12.666px" id="text4087-2-6-5-7-56" opacity=".8" x="-282.66141" xml:space="preserve" y="-675.19678">
  <tspan id="tspan4089-7-2-9-1-1" x="-282.66141" y="-675.19678">
  </tspan>
 </text>
 <text fill="#000000" font-family="'Bitstream Vera Sans'" font-size="12.666px" id="text4087-2-6-5-5-8" opacity=".8" x="-258.70047" xml:space="preserve" y="-715.93848">
  <tspan id="tspan4089-7-2-9-6-7" x="-258.70047" y="-715.93848">
  </tspan>
 </text>
 <text fill="#000000" font-family="'Bitstream Vera Sans'" font-size="12.666px" id="text4087-2-6-5-3-42" opacity=".8" x="-1750.1636" xml:space="preserve" y="-723.14838">
  <tspan id="tspan4089-7-2-9-18-39" x="-1750.1636" y="-723.14838">
  </tspan>
 </text>
 <text fill="#000000" font-family="'Bitstream Vera Sans'" font-size="12.666px" id="text4087-2-6-5-4-4" opacity=".8" x="-289.62085" xml:space="preserve" y="-996.38251">
  <tspan id="tspan4089-7-2-9-9-3" x="-289.62085" y="-996.38251">
  </tspan>
 </text>
 <text fill="#000000" font-family="'Bitstream Vera Sans'" font-size="12.666px" id="text4087-2-6-5-7-1-0" opacity=".8" x="1196.5026" xml:space="preserve" y="-369.69113">
  <tspan id="tspan4089-7-2-9-1-8-5" x="1196.5026" y="-369.69113">
  </tspan>
 </text>
 <text fill="#000000" font-family="'Bitstream Vera Sans'" font-size="12.666px" id="text4087-2-6-5-5-5-5" opacity=".8" x="1220.4634" xml:space="preserve" y="-410.43286">
  <tspan id="tspan4089-7-2-9-6-9-2" x="1220.4634" y="-410.43286">
  </tspan>
 </text>
 <text fill="#000000" font-family="'Bitstream Vera Sans'" font-size="12.666px" id="text4087-2-6-5-75-9" opacity=".8" x="-270.99973" xml:space="preserve" y="-417.64282">
  <tspan id="tspan4089-7-2-9-3-1" x="-270.99973" y="-417.64282">
  </tspan>
 </text>
 <text fill="#000000" font-family="'Bitstream Vera Sans'" font-size="12.666px" id="text4087-2-6-5-4-8-18" opacity=".8" x="1189.5431" xml:space="preserve" y="-690.87689">
  <tspan id="tspan4089-7-2-9-9-8-4" x="1189.5431" y="-690.87689">
  </tspan>
 </text>
 <text fill="#000000" font-family="'Bitstream Vera Sans'" font-size="12.666px" id="text4087-2-6-5-45-3" opacity=".8" x="-1208.816" xml:space="preserve" y="-465.7341">
  <tspan id="tspan4089-7-2-9-75-7" x="-1208.816" y="-465.7341">
  </tspan>
 </text>
 <text fill="#000000" font-family="'Bitstream Vera Sans'" font-size="12.666px" id="text4087-2-6-5-59-8" opacity=".8" x="-3032.5017" xml:space="preserve" y="279.81946">
  <tspan id="tspan4089-7-2-9-4-2" x="-3032.5017" y="279.81946">
  </tspan>
 </text>
 <g id="layer4-0" transform="matrix(.90475 0 0 .90475 -716.75 -676.29)">
  <text fill="#000000" font-family="'Bitstream Vera Sans'" font-size="14px" id="text4087-2-6-5-20" opacity=".8" x="-664.2738" xml:space="preserve" y="1159.4154">
   <tspan id="tspan4089-7-2-9-82" x="-664.2738" y="1159.4154">
   </tspan>
  </text>
 </g>
 <text fill="#000000" font-family="'Bitstream Vera Sans'" font-size="12.666px" id="text4087-2-6-5-9" opacity=".8" x="877.22626" xml:space="preserve" y="18.050589">
  <tspan id="tspan4089-7-2-9-43" x="877.22626" y="18.050589">
  </tspan>
 </text>
 <text fill="#000000" font-family="'Bitstream Vera Sans'" font-size="12.666px" id="text4087-2-6-5-5-51" opacity=".8" x="901.18719" xml:space="preserve" y="-22.691116">
  <tspan id="tspan4089-7-2-9-6-74" x="901.18719" y="-22.691116">
  </tspan>
 </text>
 <text fill="#000000" font-family="'Bitstream Vera Sans'" font-size="12.666px" id="text4087-2-6-5-2-3" opacity=".8" x="-569.37115" xml:space="preserve" y="-52.76926">
  <tspan id="tspan4089-7-2-9-2-1" x="-569.37115" y="-52.76926">
  </tspan>
 </text>
 <text fill="#000000" font-family="'Bitstream Vera Sans'" font-size="12.666px" id="text4087-2-6-5-59-4" opacity=".8" x="-2393.0571" xml:space="preserve" y="692.78418">
  <tspan id="tspan4089-7-2-9-4-6" x="-2393.0571" y="692.78418">
  </tspan>
 </text>
 <text fill="#000000" font-family="'Bitstream Vera Sans'" font-size="12.666px" id="text4087-2-6-5-1-9" opacity=".8" x="-454.88007" xml:space="preserve" y="-438.09021">
  <tspan id="tspan4089-7-2-9-7-4" x="-454.88007" y="-438.09021">
  </tspan>
 </text>
 <text fill="#000000" font-family="'Bitstream Vera Sans'" font-size="12.666px" id="text4087-2-6-5-7-2" opacity=".8" x="352.72208" xml:space="preserve" y="-851.5603">
  <tspan id="tspan4089-7-2-9-1-26" x="352.72208" y="-851.5603">
  </tspan>
 </text>
 <text fill="#000000" font-family="'Bitstream Vera Sans'" font-size="12.666px" id="text4087-2-6-5-5-3-4" opacity=".8" x="376.68301" xml:space="preserve" y="-892.30206">
  <tspan id="tspan4089-7-2-9-6-5-1" x="376.68301" y="-892.30206">
  </tspan>
 </text>
 <text fill="#000000" font-family="'Bitstream Vera Sans'" font-size="12.666px" id="text4087-2-6-5-3-2" opacity=".8" x="-1114.7802" xml:space="preserve" y="-899.51196">
  <tspan id="tspan4089-7-2-9-18-8" x="-1114.7802" y="-899.51196">
  </tspan>
 </text>
 <text fill="#000000" font-family="'Bitstream Vera Sans'" font-size="12.666px" id="text4087-2-6-5-4-89" opacity=".8" x="345.7626" xml:space="preserve" y="-1172.7461">
  <tspan id="tspan4089-7-2-9-9-2" x="345.7626" y="-1172.7461">
  </tspan>
 </text>
 <text fill="#000000" font-family="'Bitstream Vera Sans'" font-size="12.666px" id="text4087-2-6-5-7-1-8" opacity=".8" x="1831.8861" xml:space="preserve" y="-546.05475">
  <tspan id="tspan4089-7-2-9-1-8-8" x="1831.8861" y="-546.05475">
  </tspan>
 </text>
 <text fill="#000000" font-family="'Bitstream Vera Sans'" font-size="12.666px" id="text4087-2-6-5-5-5-8" opacity=".8" x="1855.8469" xml:space="preserve" y="-586.79651">
  <tspan id="tspan4089-7-2-9-6-9-6" x="1855.8469" y="-586.79651">
  </tspan>
 </text>
 <text fill="#000000" font-family="'Bitstream Vera Sans'" font-size="12.666px" id="text4087-2-6-5-75-8" opacity=".8" x="364.38376" xml:space="preserve" y="-594.00641">
  <tspan id="tspan4089-7-2-9-3-3" x="364.38376" y="-594.00641">
  </tspan>
 </text>
 <text fill="#000000" font-family="'Bitstream Vera Sans'" font-size="12.666px" id="text4087-2-6-5-4-8-8" opacity=".8" x="1824.9266" xml:space="preserve" y="-867.24036">
  <tspan id="tspan4089-7-2-9-9-8-3" x="1824.9266" y="-867.24036">
  </tspan>
 </text>
 <text fill="#000000" font-family="'Bitstream Vera Sans'" font-size="12.666px" id="text4087-2-6-5-45-33" opacity=".8" x="-573.43256" xml:space="preserve" y="-642.09772">
  <tspan id="tspan4089-7-2-9-75-8" x="-573.43256" y="-642.09772">
  </tspan>
 </text>
 <text fill="#000000" font-family="'Bitstream Vera Sans'" font-size="12.666px" id="text4087-2-6-5-59-7-0" opacity=".8" x="-2397.1182" xml:space="preserve" y="103.45585">
  <tspan id="tspan4089-7-2-9-4-0-4" x="-2397.1182" y="103.45585">
  </tspan>
 </text>
 <text fill="#000000" font-family="'Bitstream Vera Sans'" font-size="12.666px" id="text4087-2-6-5-8-7" opacity=".8" x="-682.36279" xml:space="preserve" y="196.32799">
  <tspan id="tspan4089-7-2-9-19-6" x="-682.36279" y="196.32799">
  </tspan>
 </text>
 <text fill="#000000" font-family="'Bitstream Vera Sans'" font-size="12.666px" id="text4087-2-6-5-7-5-8" opacity=".8" x="426.66153" xml:space="preserve" y="17.14584">
  <tspan id="tspan4089-7-2-9-1-2-9" x="426.66153" y="17.14584">
  </tspan>
 </text>
 <text fill="#000000" font-family="'Bitstream Vera Sans'" font-size="12.666px" id="text4087-2-6-5-5-0-0" opacity=".8" x="450.62247" xml:space="preserve" y="-23.595865">
  <tspan id="tspan4089-7-2-9-6-2-6" x="450.62247" y="-23.595865">
  </tspan>
 </text>
 <text fill="#000000" font-family="'Bitstream Vera Sans'" font-size="12.666px" id="text4087-2-6-5-26-8" opacity=".8" x="-1040.8407" xml:space="preserve" y="-30.805836">
  <tspan id="tspan4089-7-2-9-90-7" x="-1040.8407" y="-30.805836">
  </tspan>
 </text>
 <text fill="#000000" font-family="'Bitstream Vera Sans'" font-size="12.666px" id="text4087-2-6-5-4-3-9" opacity=".8" x="419.70206" xml:space="preserve" y="-304.03989">
  <tspan id="tspan4089-7-2-9-9-5-0" x="419.70206" y="-304.03989">
  </tspan>
 </text>
 <text fill="#000000" font-family="'Bitstream Vera Sans'" font-size="12.666px" id="text4087-2-6-5-55-3" opacity=".8" x="-608.03253" xml:space="preserve" y="-33.520081">
  <tspan id="tspan4089-7-2-9-32-3" x="-608.03253" y="-33.520081">
  </tspan>
 </text>
 <text fill="#000000" font-family="'Bitstream Vera Sans'" font-size="12.666px" id="text4087-2-6-5-59-9-3" opacity=".8" x="-2431.7185" xml:space="preserve" y="712.03345">
  <tspan id="tspan4089-7-2-9-4-1-7" x="-2431.7185" y="712.03345">
  </tspan>
 </text>
 <text fill="#000000" font-family="'Bitstream Vera Sans'" font-size="12.666px" id="text4087-2-6-5-1-8-3" opacity=".8" x="-456.93948" xml:space="preserve" y="-895.0506">
  <tspan id="tspan4089-7-2-9-7-8-2" x="-456.93948" y="-895.0506">
  </tspan>
 </text>
 <text fill="#000000" font-family="'Bitstream Vera Sans'" font-size="12.666px" id="text4087-2-6-5-7-8-6" opacity=".8" x="350.66266" xml:space="preserve" y="-1308.5208">
  <tspan id="tspan4089-7-2-9-1-9-5" x="350.66266" y="-1308.5208">
  </tspan>
 </text>
 <text fill="#000000" font-family="'Bitstream Vera Sans'" font-size="12.666px" id="text4087-2-6-5-5-52-2" opacity=".8" x="374.62357" xml:space="preserve" y="-1349.2626">
  <tspan id="tspan4089-7-2-9-6-4-6" x="374.62357" y="-1349.2626">
  </tspan>
 </text>
 <text fill="#000000" font-family="'Bitstream Vera Sans'" font-size="12.666px" id="text4087-2-6-5-3-4-5" opacity=".8" x="-1116.8396" xml:space="preserve" y="-1356.4724">
  <tspan id="tspan4089-7-2-9-18-3-8" x="-1116.8396" y="-1356.4724">
  </tspan>
 </text>
 <text fill="#000000" font-family="'Bitstream Vera Sans'" font-size="12.666px" id="text4087-2-6-5-4-7-7" opacity=".8" x="343.70316" xml:space="preserve" y="-1629.7065">
  <tspan id="tspan4089-7-2-9-9-54-9" x="343.70316" y="-1629.7065">
  </tspan>
 </text>
 <text fill="#000000" font-family="'Bitstream Vera Sans'" font-size="12.666px" id="text4087-2-6-5-7-1-2-6" opacity=".8" x="1829.8265" xml:space="preserve" y="-1003.0153">
  <tspan id="tspan4089-7-2-9-1-8-0-0" x="1829.8265" y="-1003.0153">
  </tspan>
 </text>
 <text fill="#000000" font-family="'Bitstream Vera Sans'" font-size="12.666px" id="text4087-2-6-5-5-5-6-4" opacity=".8" x="1853.7874" xml:space="preserve" y="-1043.757">
  <tspan id="tspan4089-7-2-9-6-9-8-1" x="1853.7874" y="-1043.757">
  </tspan>
 </text>
 <text fill="#000000" font-family="'Bitstream Vera Sans'" font-size="12.666px" id="text4087-2-6-5-75-4-0" opacity=".8" x="362.32431" xml:space="preserve" y="-1050.9668">
  <tspan id="tspan4089-7-2-9-3-9-4" x="362.32431" y="-1050.9668">
  </tspan>
 </text>
 <text fill="#000000" font-family="'Bitstream Vera Sans'" font-size="12.666px" id="text4087-2-6-5-4-8-1-8" opacity=".8" x="1822.8671" xml:space="preserve" y="-1324.2009">
  <tspan id="tspan4089-7-2-9-9-8-8-7" x="1822.8671" y="-1324.2009">
  </tspan>
 </text>
 <text fill="#000000" font-family="'Bitstream Vera Sans'" font-size="12.666px" id="text4087-2-6-5-45-0-0" opacity=".8" x="-575.492" xml:space="preserve" y="-1099.0581">
  <tspan id="tspan4089-7-2-9-75-2-8" x="-575.492" y="-1099.0581">
  </tspan>
 </text>
 <text fill="#000000" font-family="'Bitstream Vera Sans'" font-size="12.666px" id="text4087-2-6-5-59-5-6" opacity=".8" x="-2399.1777" xml:space="preserve" y="-353.50461">
  <tspan id="tspan4089-7-2-9-4-00-2" x="-2399.1777" y="-353.50461">
  </tspan>
 </text>
 <text fill="#000000" font-family="'Bitstream Vera Sans'" font-size="12.666px" id="text4087-2-6-5-264-4" opacity=".8" x="-684.42224" xml:space="preserve" y="-260.63245">
  <tspan id="tspan4089-7-2-9-8-7" x="-684.42224" y="-260.63245">
  </tspan>
 </text>
 <text fill="#000000" font-family="'Bitstream Vera Sans'" font-size="12.666px" id="text4087-2-6-5-42-9" opacity=".8" x="155.5923" xml:space="preserve" y="-19.71829">
  <tspan id="tspan4089-7-2-9-93-3" x="155.5923" y="-19.71829">
  </tspan>
 </text>
 <text fill="#000000" font-family="'Bitstream Vera Sans'" font-size="12.666px" id="text4087-2-6-5-5-05-9" opacity=".8" x="179.55324" xml:space="preserve" y="-60.460011">
  <tspan id="tspan4089-7-2-9-6-49-2" x="179.55324" y="-60.460011">
  </tspan>
 </text>
 <text fill="#000000" font-family="'Bitstream Vera Sans'" font-size="12.666px" id="text4087-2-6-5-1-4-8" opacity=".8" x="-1090.2634" xml:space="preserve" y="-254.4886">
  <tspan id="tspan4089-7-2-9-7-7-3" x="-1090.2634" y="-254.4886">
  </tspan>
 </text>
 <text fill="#000000" font-family="'Bitstream Vera Sans'" font-size="12.666px" id="text4087-2-6-5-7-56-0" opacity=".8" x="-282.66141" xml:space="preserve" y="-667.9588">
  <tspan id="tspan4089-7-2-9-1-1-1" x="-282.66141" y="-667.9588">
  </tspan>
 </text>
 <text fill="#000000" font-family="'Bitstream Vera Sans'" font-size="12.666px" id="text4087-2-6-5-5-8-7" opacity=".8" x="-258.70047" xml:space="preserve" y="-708.7005">
  <tspan id="tspan4089-7-2-9-6-7-8" x="-258.70047" y="-708.7005">
  </tspan>
 </text>
 <text fill="#000000" font-family="'Bitstream Vera Sans'" font-size="12.666px" id="text4087-2-6-5-3-42-9" opacity=".8" x="-1750.1636" xml:space="preserve" y="-715.91046">
  <tspan id="tspan4089-7-2-9-18-39-1" x="-1750.1636" y="-715.91046">
  </tspan>
 </text>
 <text fill="#000000" font-family="'Bitstream Vera Sans'" font-size="12.666px" id="text4087-2-6-5-4-4-5" opacity=".8" x="-289.62085" xml:space="preserve" y="-989.14447">
  <tspan id="tspan4089-7-2-9-9-3-4" x="-289.62085" y="-989.14447">
  </tspan>
 </text>
 <text fill="#000000" font-family="'Bitstream Vera Sans'" font-size="12.666px" id="text4087-2-6-5-7-1-0-9" opacity=".8" x="1196.5026" xml:space="preserve" y="-362.45316">
  <tspan id="tspan4089-7-2-9-1-8-5-2" x="1196.5026" y="-362.45316">
  </tspan>
 </text>
 <text fill="#000000" font-family="'Bitstream Vera Sans'" font-size="12.666px" id="text4087-2-6-5-5-5-5-5" opacity=".8" x="1220.4634" xml:space="preserve" y="-403.19489">
  <tspan id="tspan4089-7-2-9-6-9-2-7" x="1220.4634" y="-403.19489">
  </tspan>
 </text>
 <text fill="#000000" font-family="'Bitstream Vera Sans'" font-size="12.666px" id="text4087-2-6-5-75-9-4" opacity=".8" x="-270.99973" xml:space="preserve" y="-410.40482">
  <tspan id="tspan4089-7-2-9-3-1-9" x="-270.99973" y="-410.40482">
  </tspan>
 </text>
 <text fill="#000000" font-family="'Bitstream Vera Sans'" font-size="12.666px" id="text4087-2-6-5-4-8-18-9" opacity=".8" x="1189.5431" xml:space="preserve" y="-683.63892">
  <tspan id="tspan4089-7-2-9-9-8-4-4" x="1189.5431" y="-683.63892">
  </tspan>
 </text>
 <text fill="#000000" font-family="'Bitstream Vera Sans'" font-size="12.666px" id="text4087-2-6-5-45-3-5" opacity=".8" x="-1208.816" xml:space="preserve" y="-458.49609">
  <tspan id="tspan4089-7-2-9-75-7-9" x="-1208.816" y="-458.49609">
  </tspan>
 </text>
 <text fill="#000000" font-family="'Bitstream Vera Sans'" font-size="12.666px" id="text4087-2-6-5-59-8-3" opacity=".8" x="-3032.5017" xml:space="preserve" y="287.05743">
  <tspan id="tspan4089-7-2-9-4-2-5" x="-3032.5017" y="287.05743">
  </tspan>
 </text>
 <g id="layer4-0-7" transform="matrix(.90475 0 0 .90475 -716.75 -669.05)">
  <text fill="#000000" font-family="'Bitstream Vera Sans'" font-size="14px" id="text4087-2-6-5-20-0" opacity=".8" x="-664.2738" xml:space="preserve" y="1159.4154">
   <tspan id="tspan4089-7-2-9-82-8" x="-664.2738" y="1159.4154">
   </tspan>
  </text>
 </g>
 <text fill="#000000" font-family="'Droid Sans'" font-size="12.666px" id="text7276" x="435.90427" xml:space="preserve" y="-361.22546">
  <tspan id="tspan7278" x="435.90427" y="-361.22546">
  </tspan>
  <tspan id="tspan7280" x="435.90427" y="-345.3924">
  </tspan>
 </text>
 <text fill="#000000" font-family="'Bitstream Vera Sans'" font-size="12.666px" id="text4087-2-6-5-51" opacity=".8" x="901.0882" xml:space="preserve" y="-843.27002">
  <tspan id="tspan4089-7-2-9-97" x="901.0882" y="-843.27002">
  </tspan>
 </text>
 <text fill="#000000" font-family="'Bitstream Vera Sans'" font-size="12.666px" id="text4087-2-6-5-59-2" opacity=".8" x="-922.59778" xml:space="preserve" y="-97.716553">
  <tspan id="tspan4089-7-2-9-4-4" x="-922.59778" y="-97.716553">
  </tspan>
 </text>
 <text fill="#000000" font-family="'Bitstream Vera Sans'" font-size="12.666px" id="text4087-2-6-5-7-7" opacity=".8" x="1628.1677" xml:space="preserve" y="-1128.2659">
  <tspan id="tspan4089-7-2-9-1-6" x="1628.1677" y="-1128.2659">
  </tspan>
 </text>
 <text fill="#000000" font-family="'Bitstream Vera Sans'" font-size="12.666px" id="text4087-2-6-5-5-6" opacity=".8" x="1652.1285" xml:space="preserve" y="-1169.0076">
  <tspan id="tspan4089-7-2-9-6-53" x="1652.1285" y="-1169.0076">
  </tspan>
 </text>
 <text fill="#000000" font-family="'Bitstream Vera Sans'" font-size="12.666px" id="text4087-2-6-5-54" opacity=".8" x="160.66542" xml:space="preserve" y="-1176.2175">
  <tspan id="tspan4089-7-2-9-0" x="160.66542" y="-1176.2175">
  </tspan>
 </text>
 <text fill="#000000" font-family="'Bitstream Vera Sans'" font-size="12.666px" id="text4087-2-6-5-4-1" opacity=".8" x="1621.2083" xml:space="preserve" y="-1449.4517">
  <tspan id="tspan4089-7-2-9-9-28" x="1621.2083" y="-1449.4517">
  </tspan>
 </text>
 <rect fill-opacity="0" height="60" id="rect3024" ry="10" width="20" x="869.19" y="-421.36">
 </rect>
 <rect height="32" id="rect4203" rx="2" ry="2" style="fill:#4d4d4d;fill-opacity:1" transform="matrix(0,-1,-1,0,0,0)" width="40" x="-44" y="-40">
 </rect>
 <path d="M 10,4 C 8.892,4 8,4.892 8,6 L 8,7 C 8,5.892 8.892,5 10,5 l 28,0 c 1.108,0 2,0.892 2,2 L 40,6 C 40,4.892 39.108,4 38,4 L 10,4 Z" id="rect4196" inkscape:connector-curvature="0" style="opacity:0.1;fill:#ffffff">
 </path>
 <path d="m 13,8 22,0 c 1.108,0 2,1.029231 2,2.307693 l 0,25.384615 C 37,36.97077 36.108,38 35,38 l -22,0 c -1.108,0 -2,-1.02923 -2,-2.307692 L 11,10.307693 C 11,9.029231 11.892,8 13,8 Z" id="rect4443" inkscape:connector-curvature="0" style="opacity:0.4">
 </path>
 <path d="m 8,41 0,1 c 0,1.108 0.892,2 2,2 l 28,0 c 1.108,0 2,-0.892 2,-2 l 0,-1 c 0,1.108 -0.892,2 -2,2 L 10,43 C 8.892,43 8,42.108 8,41 Z" id="rect4453" inkscape:connector-curvature="0" style="opacity:0.3">
 </path>
 <g id="g4434" style="opacity:0.2;fill:#000000;fill-opacity:1" transform="translate(0.003,-1.0002)">
  <path d="M 33.434,19 C 32.571,19 32,19.758 32,20.691 l 0,6.617 c 0,0.934 0.57,1.695 1.434,1.695 0.867,0 1.563,-0.762 1.563,-1.695 l 0,-6.617 C 34.997,19.757 34.298,19 33.434,19 m -18.871,0 c -0.863,0 -1.566,0.758 -1.566,1.691 l 0,6.617 c 0,0.934 0.703,1.695 1.566,1.695 0.863,0 1.434,-0.762 1.434,-1.695 l 0,-6.617 C 15.997,19.757 15.427,19 14.563,19" id="path4436" inkscape:connector-curvature="0" style="fill:#000000;fill-opacity:1">
  </path>
  <path d="m 17.004,19 0,11.594 c 0,0.688 0.32,1.4062 1,1.4062 l 2,0 0,3.375 c 0,0.898 0.3155,1.625 1.1875,1.625 0.867,0 1.8125,-0.727 1.8125,-1.625 l 0,-3.375 2,0 0,3.375 c 0,0.898 0.9405,1.625 1.8125,1.625 0.867,0 1.1914,-0.727 1.1914,-1.625 l 0,-3.375 2,0 c 0.676,0 1,-0.71925 1,-1.4062 l 0,-11.594 -14.004,0 z" id="path4438" inkscape:connector-curvature="0" style="fill:#000000;fill-opacity:1" transform="translate(-0.003,0)">
  </path>
  <path d="m 27.32,13.199 1.293,-1.844 c 0.078,-0.109 0.055,-0.25 -0.043,-0.32 -0.102,-0.07 -0.246,-0.035 -0.324,0.074 l -1.34,1.914 C 26.019,12.679 25.035,12.488 24,12.488 c -1.035,0 -2.02,0.191 -2.906,0.535 L 19.75,11.109 C 19.672,11 19.531,10.964 19.43,11.035 c -0.102,0.066 -0.121,0.211 -0.043,0.32 l 1.293,1.844 c -2.055,0.938 -3.5,2.723 -3.684,4.801 l 14,0 c -0.184,-2.078 -1.625,-3.867 -3.68,-4.801 m -6.27,2.902 c -0.43,0 -0.777,-0.34 -0.777,-0.762 0,-0.418 0.348,-0.758 0.777,-0.758 0.43,0 0.773,0.34 0.773,0.758 0,0.418 -0.348,0.762 -0.773,0.762 m 6,0 c -0.43,0 -0.777,-0.34 -0.777,-0.762 0,-0.418 0.348,-0.758 0.777,-0.758 0.426,0 0.773,0.34 0.773,0.758 0,0.418 -0.348,0.762 -0.773,0.762" id="path4440" inkscape:connector-curvature="0" style="fill:#000000;fill-opacity:1">
  </path>
 </g>
 <g id="g53" style="fill:#a4ca39;fill-opacity:1" transform="translate(0.003,-2.0002)">
  <path d="M 33.434,19 C 32.571,19 32,19.758 32,20.691 l 0,6.617 c 0,0.934 0.57,1.695 1.434,1.695 0.867,0 1.563,-0.762 1.563,-1.695 l 0,-6.617 C 34.997,19.757 34.298,19 33.434,19 m -18.871,0 c -0.863,0 -1.566,0.758 -1.566,1.691 l 0,6.617 c 0,0.934 0.703,1.695 1.566,1.695 0.863,0 1.434,-0.762 1.434,-1.695 l 0,-6.617 C 15.997,19.757 15.427,19 14.563,19" id="path55" inkscape:connector-curvature="0" style="fill:#a4ca39;fill-opacity:1">
  </path>
  <path d="m 17.004,19 0,11.594 c 0,0.688 0.32,1.4062 1,1.4062 l 2,0 0,3.375 c 0,0.898 0.3155,1.625 1.1875,1.625 0.867,0 1.8125,-0.727 1.8125,-1.625 l 0,-3.375 2,0 0,3.375 c 0,0.898 0.9405,1.625 1.8125,1.625 0.867,0 1.1914,-0.727 1.1914,-1.625 l 0,-3.375 2,0 c 0.676,0 1,-0.71925 1,-1.4062 l 0,-11.594 -14.004,0 z" id="path57" inkscape:connector-curvature="0" style="fill:#a4ca39;fill-opacity:1" transform="translate(-0.003,0)">
  </path>
  <path d="m 27.32,13.199 1.293,-1.844 c 0.078,-0.109 0.055,-0.25 -0.043,-0.32 -0.102,-0.07 -0.246,-0.035 -0.324,0.074 l -1.34,1.914 C 26.019,12.679 25.035,12.488 24,12.488 c -1.035,0 -2.02,0.191 -2.906,0.535 L 19.75,11.109 C 19.672,11 19.531,10.964 19.43,11.035 c -0.102,0.066 -0.121,0.211 -0.043,0.32 l 1.293,1.844 c -2.055,0.938 -3.5,2.723 -3.684,4.801 l 14,0 c -0.184,-2.078 -1.625,-3.867 -3.68,-4.801 m -6.27,2.902 c -0.43,0 -0.777,-0.34 -0.777,-0.762 0,-0.418 0.348,-0.758 0.777,-0.758 0.43,0 0.773,0.34 0.773,0.758 0,0.418 -0.348,0.762 -0.773,0.762 m 6,0 c -0.43,0 -0.777,-0.34 -0.777,-0.762 0,-0.418 0.348,-0.758 0.777,-0.758 0.426,0 0.773,0.34 0.773,0.758 0,0.418 -0.348,0.762 -0.773,0.762" id="path59" inkscape:connector-curvature="0" style="fill:#a4ca39;fill-opacity:1">
  </path>
 </g>
 <rect height="2" id="rect4432" rx="0.71428573" ry="1" style="opacity:0.4;fill:#000000;fill-opacity:1" width="10" x="19" y="5">
 </rect>
</svg>
