<?xml version="1.0" encoding="UTF-8" standalone="no"?>
<svg height="100%" id="svg" inkscape:version="0.91 r" sodipodi:docname="tools-report-bug.svg" version="1.1" viewbox="0 0 24 24" width="100%" xmlns="http://www.w3.org/2000/svg" xmlns:cc="http://creativecommons.org/ns#" xmlns:dc="http://purl.org/dc/elements/1.1/" xmlns:inkscape="http://www.inkscape.org/namespaces/inkscape" xmlns:rdf="http://www.w3.org/1999/02/22-rdf-syntax-ns#" xmlns:sodipodi="http://sodipodi.sourceforge.net/DTD/sodipodi-0.dtd" xmlns:svg="http://www.w3.org/2000/svg">
 <defs id="defs81">
  <style id="current-color-scheme" type="text/css">
   .ColorScheme-Text {
        color:#7B7C7E;
      }
      .ColorScheme-Background{
        color:#EFF0F1;
      }
      .ColorScheme-Highlight{
        color:#3DAEE6;
      }
      .ColorScheme-ViewText {
        color:#7B7C7E;
      }
      .ColorScheme-ViewBackground{
        color:#FCFCFC;
      }
      .ColorScheme-ViewHover {
        color:#3DAEE6;
      }
      .ColorScheme-ViewFocus{
        color:#1E92FF;
      }
      .ColorScheme-ButtonText {
        color:#7B7C7E;
      }
      .ColorScheme-ButtonBackground{
        color:#EFF0F1;
      }
      .ColorScheme-ButtonHover {
        color:#3DAEE6;
      }
      .ColorScheme-ButtonFocus{
        color:#1E92FF;
      }
  </style>
 </defs>
 <metadata id="metadata34">
  <rdf:rdf>
   <cc:work rdf:about="">
    <dc:format>
     image/svg+xml
    </dc:format>
    <dc:type rdf:resource="http://purl.org/dc/dcmitype/StillImage">
    </dc:type>
    <dc:title>
    </dc:title>
   </cc:work>
  </rdf:rdf>
 </metadata>
 <sodipodi:namedview bordercolor="#666666" borderlayer="true" borderopacity="1" gridtolerance="10" guidetolerance="10" id="namedview32" inkscape:current-layer="apport" inkscape:cx="-6.799683" inkscape:cy="6.0440939" inkscape:guide-bbox="true" inkscape:pageopacity="1" inkscape:pageshadow="2" inkscape:window-height="842" inkscape:window-maximized="1" inkscape:window-width="1600" inkscape:window-x="-4" inkscape:window-y="32" inkscape:zoom="16" objecttolerance="10" pagecolor="#3daee9" showgrid="true" showguides="true">
  <inkscape:grid empspacing="5" enabled="true" id="grid3046" snapvisiblegridlinesonly="true" type="xygrid" visible="true">
  </inkscape:grid>
  <sodipodi:guide id="guide3820" orientation="0,1" position="2,20">
  </sodipodi:guide>
  <sodipodi:guide id="guide3822" orientation="0,1" position="2,4">
  </sodipodi:guide>
  <sodipodi:guide id="guide3824" orientation="1,0" position="12,12">
  </sodipodi:guide>
  <sodipodi:guide id="guide3826" orientation="0,1" position="12,12">
  </sodipodi:guide>
 </sodipodi:namedview>
 <g id="apport">
  <rect height="24" id="rect3009" style="fill:#ffffff;fill-opacity:0;stroke:none" width="24" x="0" y="0">
  </rect>
  <path class="ColorScheme-Text" d="M 12,5 C 10.188633,5 8.5056924,5.4088469 7.09375,6.125 7.4975734,6.6248223 7.8364761,7.2132849 8.125,7.84375 8.679817,9.0561029 9,10.475857 9,12 9,13.524143 8.679817,14.943897 8.125,16.15625 7.8364761,16.786715 7.4975734,17.375178 7.09375,17.875 8.5056924,18.591153 10.188633,19 12,19 c 4.970563,0 9,-3.134007 9,-7 0,-3.8659932 -4.029437,-7 -9,-7 z m 0,2 c 3.382744,0 6.191026,1.7215844 6.84375,4 L 10.9375,11 C 10.829342,9.6426918 10.526797,8.3590235 10.03125,7.21875 10.654972,7.0866879 11.313643,7 12,7 z M 5.5,8 C 4.6715729,8 4,8.6715729 4,9.5 4,10.328427 4.6715729,11 5.5,11 6.3284271,11 7,10.328427 7,9.5 7,8.6715729 6.3284271,8 5.5,8 z m 0,5 C 4.6715729,13 4,13.671573 4,14.5 4,15.328427 4.6715729,16 5.5,16 6.3284271,16 7,15.328427 7,14.5 7,13.671573 6.3284271,13 5.5,13 z m 5.4375,0 7.90625,0 C 18.191026,15.278416 15.382744,17 12,17 11.313643,17 10.654972,16.913312 10.03125,16.78125 10.526797,15.640976 10.829342,14.357308 10.9375,13 z" id="path3768" inkscape:connector-curvature="0" style="fill:currentColor">
  </path>
 </g>
</svg>
