<?xml version="1.0" encoding="UTF-8" standalone="no"?>
<!-- Created with Inkscape (http://www.inkscape.org/) -->
<svg height="16" id="svg7384" inkscape:export-filename="/home/sam/source-symbolic.png" inkscape:export-xdpi="270" inkscape:export-ydpi="270" inkscape:version="0.91 r" sodipodi:docname="vlc.svg" style="enable-background:new" version="1.1" width="16" xmlns="http://www.w3.org/2000/svg" xmlns:cc="http://creativecommons.org/ns#" xmlns:dc="http://purl.org/dc/elements/1.1/" xmlns:inkscape="http://www.inkscape.org/namespaces/inkscape" xmlns:osb="http://www.openswatchbook.org/uri/2009/osb" xmlns:rdf="http://www.w3.org/1999/02/22-rdf-syntax-ns#" xmlns:sodipodi="http://sodipodi.sourceforge.net/DTD/sodipodi-0.dtd" xmlns:svg="http://www.w3.org/2000/svg">
 <sodipodi:namedview bordercolor="#666666" borderlayer="false" borderopacity="1" gridtolerance="10" guidetolerance="10" id="namedview88" inkscape:bbox-nodes="true" inkscape:bbox-paths="false" inkscape:current-layer="layer2" inkscape:cx="-15.487437" inkscape:cy="4.8073255" inkscape:guide-bbox="true" inkscape:object-nodes="true" inkscape:object-paths="true" inkscape:pageopacity="1" inkscape:pageshadow="2" inkscape:showpageshadow="false" inkscape:snap-bbox="true" inkscape:snap-bbox-edge-midpoints="false" inkscape:snap-bbox-midpoints="true" inkscape:snap-center="false" inkscape:snap-global="true" inkscape:snap-grids="true" inkscape:snap-intersection-paths="true" inkscape:snap-midpoints="true" inkscape:snap-nodes="true" inkscape:snap-object-midpoints="true" inkscape:snap-others="true" inkscape:snap-page="false" inkscape:snap-smooth-nodes="true" inkscape:snap-to-guides="true" inkscape:window-height="841" inkscape:window-maximized="1" inkscape:window-width="1600" inkscape:window-x="-4" inkscape:window-y="33" inkscape:zoom="9.95" objecttolerance="10" pagecolor="#f7f7f7" showborder="true" showgrid="false" showguides="true">
  <inkscape:grid color="#000000" dotted="false" empcolor="#0800ff" empopacity="0.4627451" empspacing="4" enabled="true" id="grid4866" opacity="0.16470588" originx="-424" originy="-256" snapvisiblegridlinesonly="true" spacingx="0.25px" spacingy="0.25px" type="xygrid" visible="true">
  </inkscape:grid>
 </sodipodi:namedview>
 <metadata id="metadata90">
  <rdf:rdf>
   <cc:work rdf:about="">
    <dc:format>
     image/svg+xml
    </dc:format>
    <dc:type rdf:resource="http://purl.org/dc/dcmitype/StillImage">
    </dc:type>
    <dc:title>
     Paper Symbolic Icon Theme
    </dc:title>
   </cc:work>
  </rdf:rdf>
 </metadata>
 <title id="title8473">
  Paper Symbolic Icon Theme
 </title>
 <defs id="defs7386">
  <style id="current-color-scheme" type="text/css">
   .ColorScheme-Text { color:#555555; }
  </style>
  <lineargradient id="linearGradient5606" osb:paint="solid">
   <stop id="stop5608" offset="0" style="stop-color:#000000;stop-opacity:1;">
   </stop>
  </lineargradient>
  <filter id="filter7554" inkscape:collect="always" style="color-interpolation-filters:sRGB">
   <feblend id="feBlend7556" in2="BackgroundImage" inkscape:collect="always" mode="darken">
   </feblend>
  </filter>
  <clippath clippathunits="userSpaceOnUse" id="clipPath4186">
   <circle cx="286" cy="26" id="path4188" r="10" style="color:#000000;display:inline;overflow:visible;visibility:visible;fill:url(#linearGradient4190);fill-opacity:1;fill-rule:nonzero;stroke:none;stroke-width:2;marker:none;enable-background:accumulate">
   </circle>
  </clippath>
  <clippath clippathunits="userSpaceOnUse" id="clipPath4498">
   <circle cx="286" cy="26" id="circle4500" r="10" style="color:#000000;display:inline;overflow:visible;visibility:visible;fill:url(#linearGradient4190);fill-opacity:1;fill-rule:nonzero;stroke:none;stroke-width:2;marker:none;enable-background:accumulate">
   </circle>
  </clippath>
 </defs>
 <g id="layer9" inkscape:groupmode="layer" inkscape:label="status" style="display:inline" transform="translate(-665.0002,38.999997)">
 </g>
 <g id="layer10" inkscape:groupmode="layer" inkscape:label="devices" style="display:inline;filter:url(#filter7554)" transform="translate(-665.0002,38.999997)">
 </g>
 <g id="layer1" inkscape:groupmode="layer" inkscape:label="places" style="display:inline" transform="translate(-424,-578)">
 </g>
 <g id="layer14" inkscape:groupmode="layer" inkscape:label="mimetypes" style="display:inline" transform="translate(-665.0002,38.999997)">
 </g>
 <g id="layer15" inkscape:groupmode="layer" inkscape:label="emblems" style="display:inline" transform="translate(-665.0002,38.999997)">
 </g>
 <g id="g71291" inkscape:groupmode="layer" inkscape:label="emotes" style="display:inline" transform="translate(-665.0002,38.999997)">
 </g>
 <g id="layer2" inkscape:groupmode="layer" inkscape:label="categories" style="display:inline" transform="translate(-424,-428)">
  <circle clip-path="url(#clipPath4186)" cx="286" cy="26" id="path4240" r="10" style="color:#000000;display:inline;overflow:visible;visibility:visible;opacity:0;fill:none;stroke:#000000;stroke-width:0.45454547;stroke-miterlimit:4;stroke-dasharray:none;stroke-opacity:1;marker:none;enable-background:accumulate" transform="matrix(2,0,0,2,-182.17085,393.40704)">
  </circle>
  <circle clip-path="url(#clipPath4186)" cx="286" cy="26" id="path4242" r="10" style="color:#000000;display:inline;overflow:visible;visibility:visible;opacity:0;fill:none;stroke:#000000;stroke-width:0.90909094;stroke-miterlimit:4;stroke-dasharray:none;stroke-opacity:1;marker:none;enable-background:accumulate" transform="matrix(2,0,0,2,-182.17085,393.40704)">
  </circle>
  <path class="ColorScheme-Text" d="m 432.00086,429.00061 c -0.0125,-1.4e-4 -0.0251,0.003 -0.0376,0.003 -0.005,-3e-5 -0.01,-0.002 -0.0154,-0.002 -0.687,0 -1.15585,0.19409 -1.2235,0.45952 -0.0348,0.0546 -0.0769,0.1056 -0.0957,0.16912 l -0.64422,2.17465 c 0.96505,0.69965 3.06602,0.69965 4.03107,0 l -0.64421,-2.17465 c -0.004,-0.0136 -0.0157,-0.0226 -0.0205,-0.0359 6e-5,-0.002 0.003,-0.004 0.003,-0.005 -10e-6,-0.0819 -0.0559,-0.16285 -0.14355,-0.23745 -0.077,-0.0825 -0.17385,-0.14845 -0.28365,-0.1862 -0.2966,-0.10208 -0.60827,-0.16215 -0.92617,-0.1657 z m -2.84345,5.60317 -0.65106,2.19857 -1.05604,0 c -0.28245,7e-5 -0.53724,0.16987 -0.64593,0.43049 l -1.74982,4.79856 c -0.19207,0.46083 0.14656,0.96845 0.64593,0.9686 l 12.59902,0 c 0.49936,-1.5e-4 0.83799,-0.50777 0.64592,-0.9686 l -1.7498,-4.79856 c -0.1087,-0.26062 -0.36349,-0.43042 -0.64593,-0.43049 l -1.05605,0 -0.65105,-2.19857 c -1.92464,0.76526 -3.54184,0.96203 -5.68519,0 z m 6.43706,2.5351 0.57587,1.94915 c 0.0897,0.30331 -0.0346,0.62879 -0.30417,0.79435 -1.09852,0.67411 -2.49825,1.00476 -3.89266,1.01814 -1.39439,0.0134 -2.79521,-0.28843 -3.87386,-1.04035 -0.24703,-0.17234 -0.35537,-0.48336 -0.26999,-0.77214 l 0.55024,-1.86032 c 0.75371,0.44185 4.16816,1.75577 7.21457,-0.0888 z" id="path4733" inkscape:connector-curvature="0" style="fill:currentColor">
  </path>
 </g>
 <g id="g6058" inkscape:groupmode="layer" inkscape:label="apps" style="display:inline" transform="translate(-424,-428)">
 </g>
 <g id="layer12" inkscape:groupmode="layer" inkscape:label="actions" style="display:inline" transform="translate(-665.0002,38.999997)">
 </g>
</svg>
