<?xml version="1.0" encoding="UTF-8" standalone="no"?>
<!-- Created with Inkscape (http://www.inkscape.org/) -->
<svg height="48" id="svg2817" version="1.0" width="48" xmlns="http://www.w3.org/2000/svg" xmlns:cc="http://creativecommons.org/ns#" xmlns:dc="http://purl.org/dc/elements/1.1/" xmlns:rdf="http://www.w3.org/1999/02/22-rdf-syntax-ns#" xmlns:xlink="http://www.w3.org/1999/xlink">
 <metadata id="metadata57">
  <rdf:rdf>
   <cc:work rdf:about="">
    <dc:format>
     image/svg+xml
    </dc:format>
    <dc:type rdf:resource="http://purl.org/dc/dcmitype/StillImage">
    </dc:type>
    <dc:title>
    </dc:title>
   </cc:work>
  </rdf:rdf>
 </metadata>
 <defs id="defs2819">
  <style id="current-color-scheme" type="text/css">
   .ColorScheme-Text {
        color:#31363b;
      }
      .ColorScheme-Background{
        color:#eff0f1;
      }
      .ColorScheme-ViewText {
        color:#31363b;
      }
      .ColorScheme-ViewBackground{
        color:#fcfcfc;
      }
      .ColorScheme-ViewHover {
        color:#3daee9;
      }
      .ColorScheme-ViewFocus{
        color:#3daee9;
      }
      .ColorScheme-ButtonText {
        color:#31363b;
      }
      .ColorScheme-ButtonBackground{
        color:#eff0f1;
      }
      .ColorScheme-ButtonHover {
        color:#3daee9;
      }
      .ColorScheme-ButtonFocus{
        color:#3daee9;
      }
  </style>
 </defs>
 <text fill="#000000" font-family="'Bitstream Vera Sans'" font-size="12.666px" id="text4087-2-6-5" opacity=".8" x="877.22626" xml:space="preserve" y="10.812601">
  <tspan id="tspan4089-7-2-9" x="877.22626" y="10.812601">
  </tspan>
 </text>
 <text fill="#000000" font-family="'Bitstream Vera Sans'" font-size="12.666px" id="text4087-2-6-5-5" opacity=".8" x="901.18719" xml:space="preserve" y="-29.929106">
  <tspan id="tspan4089-7-2-9-6" x="901.18719" y="-29.929106">
  </tspan>
 </text>
 <text fill="#000000" font-family="'Bitstream Vera Sans'" font-size="12.666px" id="text4087-2-6-5-2" opacity=".8" x="-569.37115" xml:space="preserve" y="-60.007248">
  <tspan id="tspan4089-7-2-9-2" x="-569.37115" y="-60.007248">
  </tspan>
 </text>
 <text fill="#000000" font-family="'Bitstream Vera Sans'" font-size="12.666px" id="text4087-2-6-5-59" opacity=".8" x="-2393.0571" xml:space="preserve" y="685.5462">
  <tspan id="tspan4089-7-2-9-4" x="-2393.0571" y="685.5462">
  </tspan>
 </text>
 <text fill="#000000" font-family="'Bitstream Vera Sans'" font-size="12.666px" id="text4087-2-6-5-1" opacity=".8" x="-454.88007" xml:space="preserve" y="-445.32822">
  <tspan id="tspan4089-7-2-9-7" x="-454.88007" y="-445.32822">
  </tspan>
 </text>
 <text fill="#000000" font-family="'Bitstream Vera Sans'" font-size="12.666px" id="text4087-2-6-5-7" opacity=".8" x="352.72208" xml:space="preserve" y="-858.79834">
  <tspan id="tspan4089-7-2-9-1" x="352.72208" y="-858.79834">
  </tspan>
 </text>
 <text fill="#000000" font-family="'Bitstream Vera Sans'" font-size="12.666px" id="text4087-2-6-5-5-3" opacity=".8" x="376.68301" xml:space="preserve" y="-899.54004">
  <tspan id="tspan4089-7-2-9-6-5" x="376.68301" y="-899.54004">
  </tspan>
 </text>
 <text fill="#000000" font-family="'Bitstream Vera Sans'" font-size="12.666px" id="text4087-2-6-5-3" opacity=".8" x="-1114.7802" xml:space="preserve" y="-906.74994">
  <tspan id="tspan4089-7-2-9-18" x="-1114.7802" y="-906.74994">
  </tspan>
 </text>
 <text fill="#000000" font-family="'Bitstream Vera Sans'" font-size="12.666px" id="text4087-2-6-5-4" opacity=".8" x="345.7626" xml:space="preserve" y="-1179.9841">
  <tspan id="tspan4089-7-2-9-9" x="345.7626" y="-1179.9841">
  </tspan>
 </text>
 <text fill="#000000" font-family="'Bitstream Vera Sans'" font-size="12.666px" id="text4087-2-6-5-7-1" opacity=".8" x="1831.8861" xml:space="preserve" y="-553.29272">
  <tspan id="tspan4089-7-2-9-1-8" x="1831.8861" y="-553.29272">
  </tspan>
 </text>
 <text fill="#000000" font-family="'Bitstream Vera Sans'" font-size="12.666px" id="text4087-2-6-5-5-5" opacity=".8" x="1855.8469" xml:space="preserve" y="-594.03448">
  <tspan id="tspan4089-7-2-9-6-9" x="1855.8469" y="-594.03448">
  </tspan>
 </text>
 <text fill="#000000" font-family="'Bitstream Vera Sans'" font-size="12.666px" id="text4087-2-6-5-75" opacity=".8" x="364.38376" xml:space="preserve" y="-601.24438">
  <tspan id="tspan4089-7-2-9-3" x="364.38376" y="-601.24438">
  </tspan>
 </text>
 <text fill="#000000" font-family="'Bitstream Vera Sans'" font-size="12.666px" id="text4087-2-6-5-4-8" opacity=".8" x="1824.9266" xml:space="preserve" y="-874.47839">
  <tspan id="tspan4089-7-2-9-9-8" x="1824.9266" y="-874.47839">
  </tspan>
 </text>
 <text fill="#000000" font-family="'Bitstream Vera Sans'" font-size="12.666px" id="text4087-2-6-5-45" opacity=".8" x="-573.43256" xml:space="preserve" y="-649.33569">
  <tspan id="tspan4089-7-2-9-75" x="-573.43256" y="-649.33569">
  </tspan>
 </text>
 <text fill="#000000" font-family="'Bitstream Vera Sans'" font-size="12.666px" id="text4087-2-6-5-59-7" opacity=".8" x="-2397.1182" xml:space="preserve" y="96.217857">
  <tspan id="tspan4089-7-2-9-4-0" x="-2397.1182" y="96.217857">
  </tspan>
 </text>
 <text fill="#000000" font-family="'Bitstream Vera Sans'" font-size="12.666px" id="text4087-2-6-5-8" opacity=".8" x="-682.36279" xml:space="preserve" y="189.09">
  <tspan id="tspan4089-7-2-9-19" x="-682.36279" y="189.09">
  </tspan>
 </text>
 <text fill="#000000" font-family="'Bitstream Vera Sans'" font-size="12.666px" id="text4087-2-6-5-7-5" opacity=".8" x="426.66153" xml:space="preserve" y="9.9078522">
  <tspan id="tspan4089-7-2-9-1-2" x="426.66153" y="9.9078522">
  </tspan>
 </text>
 <text fill="#000000" font-family="'Bitstream Vera Sans'" font-size="12.666px" id="text4087-2-6-5-5-0" opacity=".8" x="450.62247" xml:space="preserve" y="-30.833855">
  <tspan id="tspan4089-7-2-9-6-2" x="450.62247" y="-30.833855">
  </tspan>
 </text>
 <text fill="#000000" font-family="'Bitstream Vera Sans'" font-size="12.666px" id="text4087-2-6-5-26" opacity=".8" x="-1040.8407" xml:space="preserve" y="-38.043827">
  <tspan id="tspan4089-7-2-9-90" x="-1040.8407" y="-38.043827">
  </tspan>
 </text>
 <text fill="#000000" font-family="'Bitstream Vera Sans'" font-size="12.666px" id="text4087-2-6-5-4-3" opacity=".8" x="419.70206" xml:space="preserve" y="-311.27789">
  <tspan id="tspan4089-7-2-9-9-5" x="419.70206" y="-311.27789">
  </tspan>
 </text>
 <text fill="#000000" font-family="'Bitstream Vera Sans'" font-size="12.666px" id="text4087-2-6-5-55" opacity=".8" x="-608.03253" xml:space="preserve" y="-40.758072">
  <tspan id="tspan4089-7-2-9-32" x="-608.03253" y="-40.758072">
  </tspan>
 </text>
 <text fill="#000000" font-family="'Bitstream Vera Sans'" font-size="12.666px" id="text4087-2-6-5-59-9" opacity=".8" x="-2431.7185" xml:space="preserve" y="704.79541">
  <tspan id="tspan4089-7-2-9-4-1" x="-2431.7185" y="704.79541">
  </tspan>
 </text>
 <text fill="#000000" font-family="'Bitstream Vera Sans'" font-size="12.666px" id="text4087-2-6-5-1-8" opacity=".8" x="-456.93948" xml:space="preserve" y="-902.28857">
  <tspan id="tspan4089-7-2-9-7-8" x="-456.93948" y="-902.28857">
  </tspan>
 </text>
 <text fill="#000000" font-family="'Bitstream Vera Sans'" font-size="12.666px" id="text4087-2-6-5-7-8" opacity=".8" x="350.66266" xml:space="preserve" y="-1315.7588">
  <tspan id="tspan4089-7-2-9-1-9" x="350.66266" y="-1315.7588">
  </tspan>
 </text>
 <text fill="#000000" font-family="'Bitstream Vera Sans'" font-size="12.666px" id="text4087-2-6-5-5-52" opacity=".8" x="374.62357" xml:space="preserve" y="-1356.5005">
  <tspan id="tspan4089-7-2-9-6-4" x="374.62357" y="-1356.5005">
  </tspan>
 </text>
 <text fill="#000000" font-family="'Bitstream Vera Sans'" font-size="12.666px" id="text4087-2-6-5-3-4" opacity=".8" x="-1116.8396" xml:space="preserve" y="-1363.7104">
  <tspan id="tspan4089-7-2-9-18-3" x="-1116.8396" y="-1363.7104">
  </tspan>
 </text>
 <text fill="#000000" font-family="'Bitstream Vera Sans'" font-size="12.666px" id="text4087-2-6-5-4-7" opacity=".8" x="343.70316" xml:space="preserve" y="-1636.9446">
  <tspan id="tspan4089-7-2-9-9-54" x="343.70316" y="-1636.9446">
  </tspan>
 </text>
 <text fill="#000000" font-family="'Bitstream Vera Sans'" font-size="12.666px" id="text4087-2-6-5-7-1-2" opacity=".8" x="1829.8265" xml:space="preserve" y="-1010.2533">
  <tspan id="tspan4089-7-2-9-1-8-0" x="1829.8265" y="-1010.2533">
  </tspan>
 </text>
 <text fill="#000000" font-family="'Bitstream Vera Sans'" font-size="12.666px" id="text4087-2-6-5-5-5-6" opacity=".8" x="1853.7874" xml:space="preserve" y="-1050.9949">
  <tspan id="tspan4089-7-2-9-6-9-8" x="1853.7874" y="-1050.9949">
  </tspan>
 </text>
 <text fill="#000000" font-family="'Bitstream Vera Sans'" font-size="12.666px" id="text4087-2-6-5-75-4" opacity=".8" x="362.32431" xml:space="preserve" y="-1058.2048">
  <tspan id="tspan4089-7-2-9-3-9" x="362.32431" y="-1058.2048">
  </tspan>
 </text>
 <text fill="#000000" font-family="'Bitstream Vera Sans'" font-size="12.666px" id="text4087-2-6-5-4-8-1" opacity=".8" x="1822.8671" xml:space="preserve" y="-1331.439">
  <tspan id="tspan4089-7-2-9-9-8-8" x="1822.8671" y="-1331.439">
  </tspan>
 </text>
 <text fill="#000000" font-family="'Bitstream Vera Sans'" font-size="12.666px" id="text4087-2-6-5-45-0" opacity=".8" x="-575.492" xml:space="preserve" y="-1106.2961">
  <tspan id="tspan4089-7-2-9-75-2" x="-575.492" y="-1106.2961">
  </tspan>
 </text>
 <text fill="#000000" font-family="'Bitstream Vera Sans'" font-size="12.666px" id="text4087-2-6-5-59-5" opacity=".8" x="-2399.1777" xml:space="preserve" y="-360.74261">
  <tspan id="tspan4089-7-2-9-4-00" x="-2399.1777" y="-360.74261">
  </tspan>
 </text>
 <text fill="#000000" font-family="'Bitstream Vera Sans'" font-size="12.666px" id="text4087-2-6-5-264" opacity=".8" x="-684.42224" xml:space="preserve" y="-267.87045">
  <tspan id="tspan4089-7-2-9-8" x="-684.42224" y="-267.87045">
  </tspan>
 </text>
 <text fill="#000000" font-family="'Bitstream Vera Sans'" font-size="12.666px" id="text4087-2-6-5-42" opacity=".8" x="155.5923" xml:space="preserve" y="-26.956278">
  <tspan id="tspan4089-7-2-9-93" x="155.5923" y="-26.956278">
  </tspan>
 </text>
 <text fill="#000000" font-family="'Bitstream Vera Sans'" font-size="12.666px" id="text4087-2-6-5-5-05" opacity=".8" x="179.55324" xml:space="preserve" y="-67.697998">
  <tspan id="tspan4089-7-2-9-6-49" x="179.55324" y="-67.697998">
  </tspan>
 </text>
 <text fill="#000000" font-family="'Bitstream Vera Sans'" font-size="12.666px" id="text4087-2-6-5-1-4" opacity=".8" x="-1090.2634" xml:space="preserve" y="-261.72662">
  <tspan id="tspan4089-7-2-9-7-7" x="-1090.2634" y="-261.72662">
  </tspan>
 </text>
 <text fill="#000000" font-family="'Bitstream Vera Sans'" font-size="12.666px" id="text4087-2-6-5-7-56" opacity=".8" x="-282.66141" xml:space="preserve" y="-675.19678">
  <tspan id="tspan4089-7-2-9-1-1" x="-282.66141" y="-675.19678">
  </tspan>
 </text>
 <text fill="#000000" font-family="'Bitstream Vera Sans'" font-size="12.666px" id="text4087-2-6-5-5-8" opacity=".8" x="-258.70047" xml:space="preserve" y="-715.93848">
  <tspan id="tspan4089-7-2-9-6-7" x="-258.70047" y="-715.93848">
  </tspan>
 </text>
 <text fill="#000000" font-family="'Bitstream Vera Sans'" font-size="12.666px" id="text4087-2-6-5-3-42" opacity=".8" x="-1750.1636" xml:space="preserve" y="-723.14838">
  <tspan id="tspan4089-7-2-9-18-39" x="-1750.1636" y="-723.14838">
  </tspan>
 </text>
 <text fill="#000000" font-family="'Bitstream Vera Sans'" font-size="12.666px" id="text4087-2-6-5-4-4" opacity=".8" x="-289.62085" xml:space="preserve" y="-996.38251">
  <tspan id="tspan4089-7-2-9-9-3" x="-289.62085" y="-996.38251">
  </tspan>
 </text>
 <text fill="#000000" font-family="'Bitstream Vera Sans'" font-size="12.666px" id="text4087-2-6-5-7-1-0" opacity=".8" x="1196.5026" xml:space="preserve" y="-369.69113">
  <tspan id="tspan4089-7-2-9-1-8-5" x="1196.5026" y="-369.69113">
  </tspan>
 </text>
 <text fill="#000000" font-family="'Bitstream Vera Sans'" font-size="12.666px" id="text4087-2-6-5-5-5-5" opacity=".8" x="1220.4634" xml:space="preserve" y="-410.43286">
  <tspan id="tspan4089-7-2-9-6-9-2" x="1220.4634" y="-410.43286">
  </tspan>
 </text>
 <text fill="#000000" font-family="'Bitstream Vera Sans'" font-size="12.666px" id="text4087-2-6-5-75-9" opacity=".8" x="-270.99973" xml:space="preserve" y="-417.64282">
  <tspan id="tspan4089-7-2-9-3-1" x="-270.99973" y="-417.64282">
  </tspan>
 </text>
 <text fill="#000000" font-family="'Bitstream Vera Sans'" font-size="12.666px" id="text4087-2-6-5-4-8-18" opacity=".8" x="1189.5431" xml:space="preserve" y="-690.87689">
  <tspan id="tspan4089-7-2-9-9-8-4" x="1189.5431" y="-690.87689">
  </tspan>
 </text>
 <text fill="#000000" font-family="'Bitstream Vera Sans'" font-size="12.666px" id="text4087-2-6-5-45-3" opacity=".8" x="-1208.816" xml:space="preserve" y="-465.7341">
  <tspan id="tspan4089-7-2-9-75-7" x="-1208.816" y="-465.7341">
  </tspan>
 </text>
 <text fill="#000000" font-family="'Bitstream Vera Sans'" font-size="12.666px" id="text4087-2-6-5-59-8" opacity=".8" x="-3032.5017" xml:space="preserve" y="279.81946">
  <tspan id="tspan4089-7-2-9-4-2" x="-3032.5017" y="279.81946">
  </tspan>
 </text>
 <g id="layer4-0" transform="matrix(.90475 0 0 .90475 -716.75 -676.29)">
  <text fill="#000000" font-family="'Bitstream Vera Sans'" font-size="14px" id="text4087-2-6-5-20" opacity=".8" x="-664.2738" xml:space="preserve" y="1159.4154">
   <tspan id="tspan4089-7-2-9-82" x="-664.2738" y="1159.4154">
   </tspan>
  </text>
 </g>
 <text fill="#000000" font-family="'Bitstream Vera Sans'" font-size="12.666px" id="text4087-2-6-5-9" opacity=".8" x="877.22626" xml:space="preserve" y="18.050589">
  <tspan id="tspan4089-7-2-9-43" x="877.22626" y="18.050589">
  </tspan>
 </text>
 <text fill="#000000" font-family="'Bitstream Vera Sans'" font-size="12.666px" id="text4087-2-6-5-5-51" opacity=".8" x="901.18719" xml:space="preserve" y="-22.691116">
  <tspan id="tspan4089-7-2-9-6-74" x="901.18719" y="-22.691116">
  </tspan>
 </text>
 <text fill="#000000" font-family="'Bitstream Vera Sans'" font-size="12.666px" id="text4087-2-6-5-2-3" opacity=".8" x="-569.37115" xml:space="preserve" y="-52.76926">
  <tspan id="tspan4089-7-2-9-2-1" x="-569.37115" y="-52.76926">
  </tspan>
 </text>
 <text fill="#000000" font-family="'Bitstream Vera Sans'" font-size="12.666px" id="text4087-2-6-5-59-4" opacity=".8" x="-2393.0571" xml:space="preserve" y="692.78418">
  <tspan id="tspan4089-7-2-9-4-6" x="-2393.0571" y="692.78418">
  </tspan>
 </text>
 <text fill="#000000" font-family="'Bitstream Vera Sans'" font-size="12.666px" id="text4087-2-6-5-1-9" opacity=".8" x="-454.88007" xml:space="preserve" y="-438.09021">
  <tspan id="tspan4089-7-2-9-7-4" x="-454.88007" y="-438.09021">
  </tspan>
 </text>
 <text fill="#000000" font-family="'Bitstream Vera Sans'" font-size="12.666px" id="text4087-2-6-5-7-2" opacity=".8" x="352.72208" xml:space="preserve" y="-851.5603">
  <tspan id="tspan4089-7-2-9-1-26" x="352.72208" y="-851.5603">
  </tspan>
 </text>
 <text fill="#000000" font-family="'Bitstream Vera Sans'" font-size="12.666px" id="text4087-2-6-5-5-3-4" opacity=".8" x="376.68301" xml:space="preserve" y="-892.30206">
  <tspan id="tspan4089-7-2-9-6-5-1" x="376.68301" y="-892.30206">
  </tspan>
 </text>
 <text fill="#000000" font-family="'Bitstream Vera Sans'" font-size="12.666px" id="text4087-2-6-5-3-2" opacity=".8" x="-1114.7802" xml:space="preserve" y="-899.51196">
  <tspan id="tspan4089-7-2-9-18-8" x="-1114.7802" y="-899.51196">
  </tspan>
 </text>
 <text fill="#000000" font-family="'Bitstream Vera Sans'" font-size="12.666px" id="text4087-2-6-5-4-89" opacity=".8" x="345.7626" xml:space="preserve" y="-1172.7461">
  <tspan id="tspan4089-7-2-9-9-2" x="345.7626" y="-1172.7461">
  </tspan>
 </text>
 <text fill="#000000" font-family="'Bitstream Vera Sans'" font-size="12.666px" id="text4087-2-6-5-7-1-8" opacity=".8" x="1831.8861" xml:space="preserve" y="-546.05475">
  <tspan id="tspan4089-7-2-9-1-8-8" x="1831.8861" y="-546.05475">
  </tspan>
 </text>
 <text fill="#000000" font-family="'Bitstream Vera Sans'" font-size="12.666px" id="text4087-2-6-5-5-5-8" opacity=".8" x="1855.8469" xml:space="preserve" y="-586.79651">
  <tspan id="tspan4089-7-2-9-6-9-6" x="1855.8469" y="-586.79651">
  </tspan>
 </text>
 <text fill="#000000" font-family="'Bitstream Vera Sans'" font-size="12.666px" id="text4087-2-6-5-75-8" opacity=".8" x="364.38376" xml:space="preserve" y="-594.00641">
  <tspan id="tspan4089-7-2-9-3-3" x="364.38376" y="-594.00641">
  </tspan>
 </text>
 <text fill="#000000" font-family="'Bitstream Vera Sans'" font-size="12.666px" id="text4087-2-6-5-4-8-8" opacity=".8" x="1824.9266" xml:space="preserve" y="-867.24036">
  <tspan id="tspan4089-7-2-9-9-8-3" x="1824.9266" y="-867.24036">
  </tspan>
 </text>
 <text fill="#000000" font-family="'Bitstream Vera Sans'" font-size="12.666px" id="text4087-2-6-5-45-33" opacity=".8" x="-573.43256" xml:space="preserve" y="-642.09772">
  <tspan id="tspan4089-7-2-9-75-8" x="-573.43256" y="-642.09772">
  </tspan>
 </text>
 <text fill="#000000" font-family="'Bitstream Vera Sans'" font-size="12.666px" id="text4087-2-6-5-59-7-0" opacity=".8" x="-2397.1182" xml:space="preserve" y="103.45585">
  <tspan id="tspan4089-7-2-9-4-0-4" x="-2397.1182" y="103.45585">
  </tspan>
 </text>
 <text fill="#000000" font-family="'Bitstream Vera Sans'" font-size="12.666px" id="text4087-2-6-5-8-7" opacity=".8" x="-682.36279" xml:space="preserve" y="196.32799">
  <tspan id="tspan4089-7-2-9-19-6" x="-682.36279" y="196.32799">
  </tspan>
 </text>
 <text fill="#000000" font-family="'Bitstream Vera Sans'" font-size="12.666px" id="text4087-2-6-5-7-5-8" opacity=".8" x="426.66153" xml:space="preserve" y="17.14584">
  <tspan id="tspan4089-7-2-9-1-2-9" x="426.66153" y="17.14584">
  </tspan>
 </text>
 <text fill="#000000" font-family="'Bitstream Vera Sans'" font-size="12.666px" id="text4087-2-6-5-5-0-0" opacity=".8" x="450.62247" xml:space="preserve" y="-23.595865">
  <tspan id="tspan4089-7-2-9-6-2-6" x="450.62247" y="-23.595865">
  </tspan>
 </text>
 <text fill="#000000" font-family="'Bitstream Vera Sans'" font-size="12.666px" id="text4087-2-6-5-26-8" opacity=".8" x="-1040.8407" xml:space="preserve" y="-30.805836">
  <tspan id="tspan4089-7-2-9-90-7" x="-1040.8407" y="-30.805836">
  </tspan>
 </text>
 <text fill="#000000" font-family="'Bitstream Vera Sans'" font-size="12.666px" id="text4087-2-6-5-4-3-9" opacity=".8" x="419.70206" xml:space="preserve" y="-304.03989">
  <tspan id="tspan4089-7-2-9-9-5-0" x="419.70206" y="-304.03989">
  </tspan>
 </text>
 <text fill="#000000" font-family="'Bitstream Vera Sans'" font-size="12.666px" id="text4087-2-6-5-55-3" opacity=".8" x="-608.03253" xml:space="preserve" y="-33.520081">
  <tspan id="tspan4089-7-2-9-32-3" x="-608.03253" y="-33.520081">
  </tspan>
 </text>
 <text fill="#000000" font-family="'Bitstream Vera Sans'" font-size="12.666px" id="text4087-2-6-5-59-9-3" opacity=".8" x="-2431.7185" xml:space="preserve" y="712.03345">
  <tspan id="tspan4089-7-2-9-4-1-7" x="-2431.7185" y="712.03345">
  </tspan>
 </text>
 <text fill="#000000" font-family="'Bitstream Vera Sans'" font-size="12.666px" id="text4087-2-6-5-1-8-3" opacity=".8" x="-456.93948" xml:space="preserve" y="-895.0506">
  <tspan id="tspan4089-7-2-9-7-8-2" x="-456.93948" y="-895.0506">
  </tspan>
 </text>
 <text fill="#000000" font-family="'Bitstream Vera Sans'" font-size="12.666px" id="text4087-2-6-5-7-8-6" opacity=".8" x="350.66266" xml:space="preserve" y="-1308.5208">
  <tspan id="tspan4089-7-2-9-1-9-5" x="350.66266" y="-1308.5208">
  </tspan>
 </text>
 <text fill="#000000" font-family="'Bitstream Vera Sans'" font-size="12.666px" id="text4087-2-6-5-5-52-2" opacity=".8" x="374.62357" xml:space="preserve" y="-1349.2626">
  <tspan id="tspan4089-7-2-9-6-4-6" x="374.62357" y="-1349.2626">
  </tspan>
 </text>
 <text fill="#000000" font-family="'Bitstream Vera Sans'" font-size="12.666px" id="text4087-2-6-5-3-4-5" opacity=".8" x="-1116.8396" xml:space="preserve" y="-1356.4724">
  <tspan id="tspan4089-7-2-9-18-3-8" x="-1116.8396" y="-1356.4724">
  </tspan>
 </text>
 <text fill="#000000" font-family="'Bitstream Vera Sans'" font-size="12.666px" id="text4087-2-6-5-4-7-7" opacity=".8" x="343.70316" xml:space="preserve" y="-1629.7065">
  <tspan id="tspan4089-7-2-9-9-54-9" x="343.70316" y="-1629.7065">
  </tspan>
 </text>
 <text fill="#000000" font-family="'Bitstream Vera Sans'" font-size="12.666px" id="text4087-2-6-5-7-1-2-6" opacity=".8" x="1829.8265" xml:space="preserve" y="-1003.0153">
  <tspan id="tspan4089-7-2-9-1-8-0-0" x="1829.8265" y="-1003.0153">
  </tspan>
 </text>
 <text fill="#000000" font-family="'Bitstream Vera Sans'" font-size="12.666px" id="text4087-2-6-5-5-5-6-4" opacity=".8" x="1853.7874" xml:space="preserve" y="-1043.757">
  <tspan id="tspan4089-7-2-9-6-9-8-1" x="1853.7874" y="-1043.757">
  </tspan>
 </text>
 <text fill="#000000" font-family="'Bitstream Vera Sans'" font-size="12.666px" id="text4087-2-6-5-75-4-0" opacity=".8" x="362.32431" xml:space="preserve" y="-1050.9668">
  <tspan id="tspan4089-7-2-9-3-9-4" x="362.32431" y="-1050.9668">
  </tspan>
 </text>
 <text fill="#000000" font-family="'Bitstream Vera Sans'" font-size="12.666px" id="text4087-2-6-5-4-8-1-8" opacity=".8" x="1822.8671" xml:space="preserve" y="-1324.2009">
  <tspan id="tspan4089-7-2-9-9-8-8-7" x="1822.8671" y="-1324.2009">
  </tspan>
 </text>
 <text fill="#000000" font-family="'Bitstream Vera Sans'" font-size="12.666px" id="text4087-2-6-5-45-0-0" opacity=".8" x="-575.492" xml:space="preserve" y="-1099.0581">
  <tspan id="tspan4089-7-2-9-75-2-8" x="-575.492" y="-1099.0581">
  </tspan>
 </text>
 <text fill="#000000" font-family="'Bitstream Vera Sans'" font-size="12.666px" id="text4087-2-6-5-59-5-6" opacity=".8" x="-2399.1777" xml:space="preserve" y="-353.50461">
  <tspan id="tspan4089-7-2-9-4-00-2" x="-2399.1777" y="-353.50461">
  </tspan>
 </text>
 <text fill="#000000" font-family="'Bitstream Vera Sans'" font-size="12.666px" id="text4087-2-6-5-264-4" opacity=".8" x="-684.42224" xml:space="preserve" y="-260.63245">
  <tspan id="tspan4089-7-2-9-8-7" x="-684.42224" y="-260.63245">
  </tspan>
 </text>
 <text fill="#000000" font-family="'Bitstream Vera Sans'" font-size="12.666px" id="text4087-2-6-5-42-9" opacity=".8" x="155.5923" xml:space="preserve" y="-19.71829">
  <tspan id="tspan4089-7-2-9-93-3" x="155.5923" y="-19.71829">
  </tspan>
 </text>
 <text fill="#000000" font-family="'Bitstream Vera Sans'" font-size="12.666px" id="text4087-2-6-5-5-05-9" opacity=".8" x="179.55324" xml:space="preserve" y="-60.460011">
  <tspan id="tspan4089-7-2-9-6-49-2" x="179.55324" y="-60.460011">
  </tspan>
 </text>
 <text fill="#000000" font-family="'Bitstream Vera Sans'" font-size="12.666px" id="text4087-2-6-5-1-4-8" opacity=".8" x="-1090.2634" xml:space="preserve" y="-254.4886">
  <tspan id="tspan4089-7-2-9-7-7-3" x="-1090.2634" y="-254.4886">
  </tspan>
 </text>
 <text fill="#000000" font-family="'Bitstream Vera Sans'" font-size="12.666px" id="text4087-2-6-5-7-56-0" opacity=".8" x="-282.66141" xml:space="preserve" y="-667.9588">
  <tspan id="tspan4089-7-2-9-1-1-1" x="-282.66141" y="-667.9588">
  </tspan>
 </text>
 <text fill="#000000" font-family="'Bitstream Vera Sans'" font-size="12.666px" id="text4087-2-6-5-5-8-7" opacity=".8" x="-258.70047" xml:space="preserve" y="-708.7005">
  <tspan id="tspan4089-7-2-9-6-7-8" x="-258.70047" y="-708.7005">
  </tspan>
 </text>
 <text fill="#000000" font-family="'Bitstream Vera Sans'" font-size="12.666px" id="text4087-2-6-5-3-42-9" opacity=".8" x="-1750.1636" xml:space="preserve" y="-715.91046">
  <tspan id="tspan4089-7-2-9-18-39-1" x="-1750.1636" y="-715.91046">
  </tspan>
 </text>
 <text fill="#000000" font-family="'Bitstream Vera Sans'" font-size="12.666px" id="text4087-2-6-5-4-4-5" opacity=".8" x="-289.62085" xml:space="preserve" y="-989.14447">
  <tspan id="tspan4089-7-2-9-9-3-4" x="-289.62085" y="-989.14447">
  </tspan>
 </text>
 <text fill="#000000" font-family="'Bitstream Vera Sans'" font-size="12.666px" id="text4087-2-6-5-7-1-0-9" opacity=".8" x="1196.5026" xml:space="preserve" y="-362.45316">
  <tspan id="tspan4089-7-2-9-1-8-5-2" x="1196.5026" y="-362.45316">
  </tspan>
 </text>
 <text fill="#000000" font-family="'Bitstream Vera Sans'" font-size="12.666px" id="text4087-2-6-5-5-5-5-5" opacity=".8" x="1220.4634" xml:space="preserve" y="-403.19489">
  <tspan id="tspan4089-7-2-9-6-9-2-7" x="1220.4634" y="-403.19489">
  </tspan>
 </text>
 <text fill="#000000" font-family="'Bitstream Vera Sans'" font-size="12.666px" id="text4087-2-6-5-75-9-4" opacity=".8" x="-270.99973" xml:space="preserve" y="-410.40482">
  <tspan id="tspan4089-7-2-9-3-1-9" x="-270.99973" y="-410.40482">
  </tspan>
 </text>
 <text fill="#000000" font-family="'Bitstream Vera Sans'" font-size="12.666px" id="text4087-2-6-5-4-8-18-9" opacity=".8" x="1189.5431" xml:space="preserve" y="-683.63892">
  <tspan id="tspan4089-7-2-9-9-8-4-4" x="1189.5431" y="-683.63892">
  </tspan>
 </text>
 <text fill="#000000" font-family="'Bitstream Vera Sans'" font-size="12.666px" id="text4087-2-6-5-45-3-5" opacity=".8" x="-1208.816" xml:space="preserve" y="-458.49609">
  <tspan id="tspan4089-7-2-9-75-7-9" x="-1208.816" y="-458.49609">
  </tspan>
 </text>
 <text fill="#000000" font-family="'Bitstream Vera Sans'" font-size="12.666px" id="text4087-2-6-5-59-8-3" opacity=".8" x="-3032.5017" xml:space="preserve" y="287.05743">
  <tspan id="tspan4089-7-2-9-4-2-5" x="-3032.5017" y="287.05743">
  </tspan>
 </text>
 <g id="layer4-0-7" transform="matrix(.90475 0 0 .90475 -716.75 -669.05)">
  <text fill="#000000" font-family="'Bitstream Vera Sans'" font-size="14px" id="text4087-2-6-5-20-0" opacity=".8" x="-664.2738" xml:space="preserve" y="1159.4154">
   <tspan id="tspan4089-7-2-9-82-8" x="-664.2738" y="1159.4154">
   </tspan>
  </text>
 </g>
 <text fill="#000000" font-family="'Droid Sans'" font-size="12.666px" id="text7276" x="435.90427" xml:space="preserve" y="-361.22546">
  <tspan id="tspan7278" x="435.90427" y="-361.22546">
  </tspan>
  <tspan id="tspan7280" x="435.90427" y="-345.3924">
  </tspan>
 </text>
 <text fill="#000000" font-family="'Bitstream Vera Sans'" font-size="12.666px" id="text4087-2-6-5-51" opacity=".8" x="901.0882" xml:space="preserve" y="-843.27002">
  <tspan id="tspan4089-7-2-9-97" x="901.0882" y="-843.27002">
  </tspan>
 </text>
 <text fill="#000000" font-family="'Bitstream Vera Sans'" font-size="12.666px" id="text4087-2-6-5-59-2" opacity=".8" x="-922.59778" xml:space="preserve" y="-97.716553">
  <tspan id="tspan4089-7-2-9-4-4" x="-922.59778" y="-97.716553">
  </tspan>
 </text>
 <text fill="#000000" font-family="'Bitstream Vera Sans'" font-size="12.666px" id="text4087-2-6-5-7-7" opacity=".8" x="1628.1677" xml:space="preserve" y="-1128.2659">
  <tspan id="tspan4089-7-2-9-1-6" x="1628.1677" y="-1128.2659">
  </tspan>
 </text>
 <text fill="#000000" font-family="'Bitstream Vera Sans'" font-size="12.666px" id="text4087-2-6-5-5-6" opacity=".8" x="1652.1285" xml:space="preserve" y="-1169.0076">
  <tspan id="tspan4089-7-2-9-6-53" x="1652.1285" y="-1169.0076">
  </tspan>
 </text>
 <text fill="#000000" font-family="'Bitstream Vera Sans'" font-size="12.666px" id="text4087-2-6-5-54" opacity=".8" x="160.66542" xml:space="preserve" y="-1176.2175">
  <tspan id="tspan4089-7-2-9-0" x="160.66542" y="-1176.2175">
  </tspan>
 </text>
 <text fill="#000000" font-family="'Bitstream Vera Sans'" font-size="12.666px" id="text4087-2-6-5-4-1" opacity=".8" x="1621.2083" xml:space="preserve" y="-1449.4517">
  <tspan id="tspan4089-7-2-9-9-28" x="1621.2083" y="-1449.4517">
  </tspan>
 </text>
 <g id="g4499" transform="translate(0 1)">
  <path d="m40 41v-36c0-1.108-0.892-2-2-2h-28c-1.108 0-2 0.892-2 2v36c0 1.108 0.892 2 2 2h28c1.108 0 2-0.892 2-2z" fill="#c49a6c" id="rect4203">
  </path>
  <path d="m12.223 5v1h2.9997v-1h-3zm4 0v1h3v-1h-3zm4 0v1h2.777v-1h-2.777zm3.777 0v1h2.5v-1h-2.5zm3.5 0v1h3v-1h-3zm4 0v1h3v-1h-3zm4 0v1h0.96875l0.33398 0.03125 0.2832 0.089844 0.25391 0.13867 0.2207 0.17969 0.18164 0.2207 0.03125 0.039063 0.19922-0.16406 0.64844-0.35156-0.02148-0.041016-0.02344-0.042969-0.03125-0.037109-0.24414-0.29688-0.0293-0.037109-0.03711-0.029297-0.29688-0.24414-0.03711-0.03125-0.04297-0.023437-0.33984-0.18359-0.04297-0.023437-0.04687-0.013672-0.378-0.1172-0.047-0.0137-0.051-0.0058-0.402-0.041-0.026-0.002h-1.025zm-24.326 0.029297-0.12695 0.013672-0.05078 0.00586-0.04687 0.013672-0.37695 0.11719-0.04687 0.013672-0.04297 0.023437-0.33984 0.18359-0.04297 0.023437-0.03711 0.03125l-0.2964 0.244-0.0371 0.0293-0.0293 0.0371-0.1933 0.2344h1.7651l-0.097-0.9707zm27.81 2.2832-0.996 0.0996 0.012 0.1191v2.8301h1v-2.8864l-0.002-0.0254-0.014-0.1367zm-0.984 4.0485v3h1v-3h-1zm0 4v3h1v-3h-1zm0 4v3h1v-3h-1zm0 4v3h1v-3h-1zm0 4v3h1v-3h-1zm0 4v3h1v-3h-1zm0 4v3h1v-3h-1zm0 4v0.10742l-0.03125 0.33398-0.08984 0.2832-0.13867 0.25391-0.17969 0.2207-0.2207 0.17969-0.25391 0.13867-0.28125 0.08789-0.07813 0.0078 0.09961 0.99609 0.12695-0.01367 0.05078-0.0059 0.04687-0.01367 0.37695-0.11719 0.04687-0.01367 0.04297-0.02344 0.33984-0.18359 0.04297-0.02344 0.03711-0.03125 0.29688-0.24414 0.03711-0.0293 0.0293-0.03711 0.24414-0.29688 0.03125-0.03711 0.02344-0.04297 0.18359-0.33984 0.02344-0.04297 0.01367-0.04687 0.11719-0.37695 0.01367-0.04687 0.0059-0.05078 0.04102-0.40234 0.002-0.026v-0.16367h-1zm-28.494 1.639l0.19336 0.23438 0.029297 0.03711 0.037109 0.0293 0.29688 0.24414 0.03711 0.03125 0.04297 0.02344 0.33984 0.18359 0.04297 0.02344 0.04687 0.01367 0.37695 0.11719 0.04687 0.01367 0.05078 0.0059 0.40234 0.04102 0.02539 0.002h1.0254v-1h-2.9942zm3.9941 0v1h3v-1h-3zm4 0v1h3v-1h-3zm4 0v1h2.5v-1h-2.5zm3.5 0v1h2.7773v-1h-2.777zm3.7773 0v1h3v-1h-3zm4 0v1h3v-1h-3z" fill="#fff" id="rect4434" style="color-rendering:auto;text-decoration-color:#000000;color:#000000;isolation:auto;mix-blend-mode:normal;shape-rendering:auto;solid-color:#000000;block-progression:tb;text-decoration-line:none;image-rendering:auto;white-space:normal;text-indent:0;text-transform:none;text-decoration-style:solid">
  </path>
  <path d="m10 3c-1.108 0-2 0.892-2 2v1c0-1.108 0.892-2 2-2h28c1.108 0 2 0.892 2 2v-1c0-1.108-0.892-2-2-2z" fill="#fff" id="rect4199" opacity=".2">
  </path>
  <path d="m33 17h8v12h-8c-1.108 0-2-0.892-2-2v-8c0-1.108 0.892-2 2-2z" fill="#9b6e3e" id="rect4426">
  </path>
  <g id="g4460" transform="translate(1)">
   <path d="m36 23a2 2 0 0 1 -2 2 2 2 0 0 1 -2 -2 2 2 0 0 1 2 -2 2 2 0 0 1 2 2z" fill="#c8c8c8" id="path4429">
   </path>
   <path d="m35.5 22.25a1.5 1.25 0 0 1 -1.5 1.25 1.5 1.25 0 0 1 -1.5 -1.25 1.5 1.25 0 0 1 1.5 -1.25 1.5 1.25 0 0 1 1.5 1.25z" fill="#fff" id="path4432">
   </path>
  </g>
  <path d="m33.6 17.75v0.25l-0.02539-0.24805-0.09375 0.0098 0.05273 0.49609 0.06641-0.0078h0.99999v-0.5h-1zm1.5 0v0.5h1v-0.5h-1zm1.5 0v0.5h1v-0.5h-1zm1.5 0v0.5h1v-0.5h-1zm1.5 0v0.5h0.65039v-0.5h-0.65039zm-6.6543 0.12891-0.04492 0.01367-0.02539 0.0078-0.02148 0.01172-0.27148 0.1543-0.02148 0.01172-0.01953 0.01563-0.23633 0.20312-0.01758 0.01563-0.01563 0.01953-0.19531 0.24609-0.01367 0.01953-0.01172 0.02148-0.0059 0.01172 0.28516 0.14844 0.13867 0.10938 0.18359-0.23047 0.19336-0.16797 0.23047-0.12891 0.02148-0.0078-0.002-0.0039 0.0039-0.002-0.0098-0.01563-0.14453-0.45312zm-1.1152 1.2539-0.03711 0.12695-0.0078 0.02148-0.002 0.02539-0.03125 0.33594-0.002 0.01172v0.54297h0.5v-0.53129l0.0293-0.29102 0.0293-0.09961-0.47852-0.14258zm-0.08008 1.5645v1h0.5v-1h-0.5zm0 1.5v1h0.5v-1h-0.5zm0 1.5v1h0.5v-1h-0.5zm0 1.5v1h0.5v-1h-0.5zm0.5293 1.4258-0.47852 0.14258 0.08398 0.28906 0.0078 0.02344 0.01172 0.01953 0.14648 0.2832 0.01172 0.02148 0.01367 0.01953 0.19531 0.24609 0.01563 0.01953 0.01758 0.01563 0.04883 0.04102 0.32617-0.37891-0.02734-0.02344-0.16797-0.21094-0.12695-0.24414-0.07813-0.26367zm0.76758 1-0.24414 0.43555 0.05078 0.0293 0.02148 0.01172 0.02539 0.0078 0.29883 0.09766 0.02539 0.0078 0.02539 0.002 0.32422 0.0332 0.01367 0.002h0.3125v-0.5h-0.30077l-0.27539-0.03125-0.25195-0.08203-0.02539-0.01367zm1.3535 0.12695v0.5h1v-0.5h-1zm1.5 0v0.5h1v-0.5h-1zm1.5 0v0.5h1v-0.5h-1zm1.5 0v0.5h1v-0.5h-1z" fill="#fff" id="path4452" style="color-rendering:auto;text-decoration-color:#000000;color:#000000;isolation:auto;mix-blend-mode:normal;shape-rendering:auto;solid-color:#000000;block-progression:tb;text-decoration-line:none;image-rendering:auto;white-space:normal;text-indent:0;text-transform:none;text-decoration-style:solid">
  </path>
  <path class="ColorScheme-Text" d="m19.161 26-2.4594 0.2237v9.5853l2.4332-0.34798v-4.0867l3.274 4.5341 2.5646-0.7706-3.3528-4.3601 3.3791-4.1115-2.6171-0.56678-3.2477 4.1116 0.02623-4.211zm-5.5758 2.3367c-0.02774 0.0053-0.05796 0.0098-0.07883 0.03009l-0.96697 0.91477c-0.0406 0.03879-0.04557 0.0975-0.01571 0.14417l1.1299 1.7649c-0.20062 0.31905-0.36354 0.66129-0.47824 1.0241l-2.0758 0.40767c-0.057 0.011-0.099 0.063-0.099 0.119v1.2926c0 0.05472 0.04394 0.10152 0.09985 0.11436l2.0128 0.46234c0.10762 0.4201 0.27389 0.82208 0.49398 1.1882l-1.1666 1.6804c-0.03257 0.04672-0.02621 0.10954 0.01573 0.14914l0.96697 0.91477c0.04076 0.03836 0.10322 0.04317 0.1524 0.0147l1.8288-1.049c0.35869 0.19591 0.74704 0.35285 1.1561 0.45739l0.42568 1.9389c0.012 0.055 0.061 0.095 0.121 0.095h1.3664c0.0573 0 0.10725-0.0363 0.12086-0.08949l0.5045-1.9489c0.422-0.108 0.82-0.268 1.188-0.473l1.8026 1.1186c0.04966 0.03038 0.11553 0.02451 0.15766-0.01474l0.9617-0.91476c0.04086-0.03879 0.05096-0.09761 0.0211-0.14418l-0.6569-1.0241-0.21547 0.06461c-0.03112 0.0092-0.06559-0.0053-0.08409-0.03006 0 0-0.41496-0.57749-0.95645-1.3274-0.64762 1.1988-1.9683 2.0185-3.4895 2.0185-2.1615 0-3.9151-1.659-3.9151-3.7039 0-1.5042 0.95078-2.7961 2.3123-3.3758v-0.95451c-0.2478 0.08206-0.48719 0.18102-0.71472 0.29828-0.000284-0.000208 0.000459-0.0053 0-0.0053l-1.8446-1.1435c-0.02473-0.01517-0.05105-0.01763-0.07885-0.01469z" id="path2876-1" opacity=".2" style="color:#31363b">
  </path>
  <path d="m8 40v1c0 1.108 0.892 2 2 2h28c1.108 0 2-0.892 2-2v-1c0 1.108-0.892 2-2 2h-28c-1.108 0-2-0.892-2-2z" id="rect4279" opacity=".3">
  </path>
 </g>
</svg>
