<?xml version="1.0" encoding="UTF-8" standalone="no"?>
<!-- Created with Inkscape (http://www.inkscape.org/) -->
<svg height="48" id="svg2817" version="1.0" width="48" xmlns="http://www.w3.org/2000/svg" xmlns:cc="http://creativecommons.org/ns#" xmlns:dc="http://purl.org/dc/elements/1.1/" xmlns:rdf="http://www.w3.org/1999/02/22-rdf-syntax-ns#" xmlns:xlink="http://www.w3.org/1999/xlink">
 <metadata id="metadata57">
  <rdf:rdf>
   <cc:work rdf:about="">
    <dc:format>
     image/svg+xml
    </dc:format>
    <dc:type rdf:resource="http://purl.org/dc/dcmitype/StillImage">
    </dc:type>
    <dc:title>
    </dc:title>
   </cc:work>
  </rdf:rdf>
 </metadata>
 <defs id="defs2819">
  <style id="style4450" type="text/css">
   #yandex-ufo {
fill:#516AB5; 
}
#yandex-ufo:hover {
fill:blue; 
}
  </style>
 </defs>
 <text fill="#000000" font-family="'Bitstream Vera Sans'" font-size="12.666px" id="text4087-2-6-5" opacity=".8" x="877.22626" xml:space="preserve" y="10.812601">
  <tspan id="tspan4089-7-2-9" x="877.22626" y="10.812601">
  </tspan>
 </text>
 <text fill="#000000" font-family="'Bitstream Vera Sans'" font-size="12.666px" id="text4087-2-6-5-5" opacity=".8" x="901.18719" xml:space="preserve" y="-29.929106">
  <tspan id="tspan4089-7-2-9-6" x="901.18719" y="-29.929106">
  </tspan>
 </text>
 <text fill="#000000" font-family="'Bitstream Vera Sans'" font-size="12.666px" id="text4087-2-6-5-2" opacity=".8" x="-569.37115" xml:space="preserve" y="-60.007248">
  <tspan id="tspan4089-7-2-9-2" x="-569.37115" y="-60.007248">
  </tspan>
 </text>
 <text fill="#000000" font-family="'Bitstream Vera Sans'" font-size="12.666px" id="text4087-2-6-5-59" opacity=".8" x="-2393.0571" xml:space="preserve" y="685.5462">
  <tspan id="tspan4089-7-2-9-4" x="-2393.0571" y="685.5462">
  </tspan>
 </text>
 <text fill="#000000" font-family="'Bitstream Vera Sans'" font-size="12.666px" id="text4087-2-6-5-1" opacity=".8" x="-454.88007" xml:space="preserve" y="-445.32822">
  <tspan id="tspan4089-7-2-9-7" x="-454.88007" y="-445.32822">
  </tspan>
 </text>
 <text fill="#000000" font-family="'Bitstream Vera Sans'" font-size="12.666px" id="text4087-2-6-5-7" opacity=".8" x="352.72208" xml:space="preserve" y="-858.79834">
  <tspan id="tspan4089-7-2-9-1" x="352.72208" y="-858.79834">
  </tspan>
 </text>
 <text fill="#000000" font-family="'Bitstream Vera Sans'" font-size="12.666px" id="text4087-2-6-5-5-3" opacity=".8" x="376.68301" xml:space="preserve" y="-899.54004">
  <tspan id="tspan4089-7-2-9-6-5" x="376.68301" y="-899.54004">
  </tspan>
 </text>
 <text fill="#000000" font-family="'Bitstream Vera Sans'" font-size="12.666px" id="text4087-2-6-5-3" opacity=".8" x="-1114.7802" xml:space="preserve" y="-906.74994">
  <tspan id="tspan4089-7-2-9-18" x="-1114.7802" y="-906.74994">
  </tspan>
 </text>
 <text fill="#000000" font-family="'Bitstream Vera Sans'" font-size="12.666px" id="text4087-2-6-5-4" opacity=".8" x="345.7626" xml:space="preserve" y="-1179.9841">
  <tspan id="tspan4089-7-2-9-9" x="345.7626" y="-1179.9841">
  </tspan>
 </text>
 <text fill="#000000" font-family="'Bitstream Vera Sans'" font-size="12.666px" id="text4087-2-6-5-7-1" opacity=".8" x="1831.8861" xml:space="preserve" y="-553.29272">
  <tspan id="tspan4089-7-2-9-1-8" x="1831.8861" y="-553.29272">
  </tspan>
 </text>
 <text fill="#000000" font-family="'Bitstream Vera Sans'" font-size="12.666px" id="text4087-2-6-5-5-5" opacity=".8" x="1855.8469" xml:space="preserve" y="-594.03448">
  <tspan id="tspan4089-7-2-9-6-9" x="1855.8469" y="-594.03448">
  </tspan>
 </text>
 <text fill="#000000" font-family="'Bitstream Vera Sans'" font-size="12.666px" id="text4087-2-6-5-75" opacity=".8" x="364.38376" xml:space="preserve" y="-601.24438">
  <tspan id="tspan4089-7-2-9-3" x="364.38376" y="-601.24438">
  </tspan>
 </text>
 <text fill="#000000" font-family="'Bitstream Vera Sans'" font-size="12.666px" id="text4087-2-6-5-4-8" opacity=".8" x="1824.9266" xml:space="preserve" y="-874.47839">
  <tspan id="tspan4089-7-2-9-9-8" x="1824.9266" y="-874.47839">
  </tspan>
 </text>
 <text fill="#000000" font-family="'Bitstream Vera Sans'" font-size="12.666px" id="text4087-2-6-5-45" opacity=".8" x="-573.43256" xml:space="preserve" y="-649.33569">
  <tspan id="tspan4089-7-2-9-75" x="-573.43256" y="-649.33569">
  </tspan>
 </text>
 <text fill="#000000" font-family="'Bitstream Vera Sans'" font-size="12.666px" id="text4087-2-6-5-59-7" opacity=".8" x="-2397.1182" xml:space="preserve" y="96.217857">
  <tspan id="tspan4089-7-2-9-4-0" x="-2397.1182" y="96.217857">
  </tspan>
 </text>
 <text fill="#000000" font-family="'Bitstream Vera Sans'" font-size="12.666px" id="text4087-2-6-5-8" opacity=".8" x="-682.36279" xml:space="preserve" y="189.09">
  <tspan id="tspan4089-7-2-9-19" x="-682.36279" y="189.09">
  </tspan>
 </text>
 <text fill="#000000" font-family="'Bitstream Vera Sans'" font-size="12.666px" id="text4087-2-6-5-7-5" opacity=".8" x="426.66153" xml:space="preserve" y="9.9078522">
  <tspan id="tspan4089-7-2-9-1-2" x="426.66153" y="9.9078522">
  </tspan>
 </text>
 <text fill="#000000" font-family="'Bitstream Vera Sans'" font-size="12.666px" id="text4087-2-6-5-5-0" opacity=".8" x="450.62247" xml:space="preserve" y="-30.833855">
  <tspan id="tspan4089-7-2-9-6-2" x="450.62247" y="-30.833855">
  </tspan>
 </text>
 <text fill="#000000" font-family="'Bitstream Vera Sans'" font-size="12.666px" id="text4087-2-6-5-26" opacity=".8" x="-1040.8407" xml:space="preserve" y="-38.043827">
  <tspan id="tspan4089-7-2-9-90" x="-1040.8407" y="-38.043827">
  </tspan>
 </text>
 <text fill="#000000" font-family="'Bitstream Vera Sans'" font-size="12.666px" id="text4087-2-6-5-4-3" opacity=".8" x="419.70206" xml:space="preserve" y="-311.27789">
  <tspan id="tspan4089-7-2-9-9-5" x="419.70206" y="-311.27789">
  </tspan>
 </text>
 <text fill="#000000" font-family="'Bitstream Vera Sans'" font-size="12.666px" id="text4087-2-6-5-55" opacity=".8" x="-608.03253" xml:space="preserve" y="-40.758072">
  <tspan id="tspan4089-7-2-9-32" x="-608.03253" y="-40.758072">
  </tspan>
 </text>
 <text fill="#000000" font-family="'Bitstream Vera Sans'" font-size="12.666px" id="text4087-2-6-5-59-9" opacity=".8" x="-2431.7185" xml:space="preserve" y="704.79541">
  <tspan id="tspan4089-7-2-9-4-1" x="-2431.7185" y="704.79541">
  </tspan>
 </text>
 <text fill="#000000" font-family="'Bitstream Vera Sans'" font-size="12.666px" id="text4087-2-6-5-1-8" opacity=".8" x="-456.93948" xml:space="preserve" y="-902.28857">
  <tspan id="tspan4089-7-2-9-7-8" x="-456.93948" y="-902.28857">
  </tspan>
 </text>
 <text fill="#000000" font-family="'Bitstream Vera Sans'" font-size="12.666px" id="text4087-2-6-5-7-8" opacity=".8" x="350.66266" xml:space="preserve" y="-1315.7588">
  <tspan id="tspan4089-7-2-9-1-9" x="350.66266" y="-1315.7588">
  </tspan>
 </text>
 <text fill="#000000" font-family="'Bitstream Vera Sans'" font-size="12.666px" id="text4087-2-6-5-5-52" opacity=".8" x="374.62357" xml:space="preserve" y="-1356.5005">
  <tspan id="tspan4089-7-2-9-6-4" x="374.62357" y="-1356.5005">
  </tspan>
 </text>
 <text fill="#000000" font-family="'Bitstream Vera Sans'" font-size="12.666px" id="text4087-2-6-5-3-4" opacity=".8" x="-1116.8396" xml:space="preserve" y="-1363.7104">
  <tspan id="tspan4089-7-2-9-18-3" x="-1116.8396" y="-1363.7104">
  </tspan>
 </text>
 <text fill="#000000" font-family="'Bitstream Vera Sans'" font-size="12.666px" id="text4087-2-6-5-4-7" opacity=".8" x="343.70316" xml:space="preserve" y="-1636.9446">
  <tspan id="tspan4089-7-2-9-9-54" x="343.70316" y="-1636.9446">
  </tspan>
 </text>
 <text fill="#000000" font-family="'Bitstream Vera Sans'" font-size="12.666px" id="text4087-2-6-5-7-1-2" opacity=".8" x="1829.8265" xml:space="preserve" y="-1010.2533">
  <tspan id="tspan4089-7-2-9-1-8-0" x="1829.8265" y="-1010.2533">
  </tspan>
 </text>
 <text fill="#000000" font-family="'Bitstream Vera Sans'" font-size="12.666px" id="text4087-2-6-5-5-5-6" opacity=".8" x="1853.7874" xml:space="preserve" y="-1050.9949">
  <tspan id="tspan4089-7-2-9-6-9-8" x="1853.7874" y="-1050.9949">
  </tspan>
 </text>
 <text fill="#000000" font-family="'Bitstream Vera Sans'" font-size="12.666px" id="text4087-2-6-5-75-4" opacity=".8" x="362.32431" xml:space="preserve" y="-1058.2048">
  <tspan id="tspan4089-7-2-9-3-9" x="362.32431" y="-1058.2048">
  </tspan>
 </text>
 <text fill="#000000" font-family="'Bitstream Vera Sans'" font-size="12.666px" id="text4087-2-6-5-4-8-1" opacity=".8" x="1822.8671" xml:space="preserve" y="-1331.439">
  <tspan id="tspan4089-7-2-9-9-8-8" x="1822.8671" y="-1331.439">
  </tspan>
 </text>
 <text fill="#000000" font-family="'Bitstream Vera Sans'" font-size="12.666px" id="text4087-2-6-5-45-0" opacity=".8" x="-575.492" xml:space="preserve" y="-1106.2961">
  <tspan id="tspan4089-7-2-9-75-2" x="-575.492" y="-1106.2961">
  </tspan>
 </text>
 <text fill="#000000" font-family="'Bitstream Vera Sans'" font-size="12.666px" id="text4087-2-6-5-59-5" opacity=".8" x="-2399.1777" xml:space="preserve" y="-360.74261">
  <tspan id="tspan4089-7-2-9-4-00" x="-2399.1777" y="-360.74261">
  </tspan>
 </text>
 <text fill="#000000" font-family="'Bitstream Vera Sans'" font-size="12.666px" id="text4087-2-6-5-264" opacity=".8" x="-684.42224" xml:space="preserve" y="-267.87045">
  <tspan id="tspan4089-7-2-9-8" x="-684.42224" y="-267.87045">
  </tspan>
 </text>
 <text fill="#000000" font-family="'Bitstream Vera Sans'" font-size="12.666px" id="text4087-2-6-5-42" opacity=".8" x="155.5923" xml:space="preserve" y="-26.956278">
  <tspan id="tspan4089-7-2-9-93" x="155.5923" y="-26.956278">
  </tspan>
 </text>
 <text fill="#000000" font-family="'Bitstream Vera Sans'" font-size="12.666px" id="text4087-2-6-5-5-05" opacity=".8" x="179.55324" xml:space="preserve" y="-67.697998">
  <tspan id="tspan4089-7-2-9-6-49" x="179.55324" y="-67.697998">
  </tspan>
 </text>
 <text fill="#000000" font-family="'Bitstream Vera Sans'" font-size="12.666px" id="text4087-2-6-5-1-4" opacity=".8" x="-1090.2634" xml:space="preserve" y="-261.72662">
  <tspan id="tspan4089-7-2-9-7-7" x="-1090.2634" y="-261.72662">
  </tspan>
 </text>
 <text fill="#000000" font-family="'Bitstream Vera Sans'" font-size="12.666px" id="text4087-2-6-5-7-56" opacity=".8" x="-282.66141" xml:space="preserve" y="-675.19678">
  <tspan id="tspan4089-7-2-9-1-1" x="-282.66141" y="-675.19678">
  </tspan>
 </text>
 <text fill="#000000" font-family="'Bitstream Vera Sans'" font-size="12.666px" id="text4087-2-6-5-5-8" opacity=".8" x="-258.70047" xml:space="preserve" y="-715.93848">
  <tspan id="tspan4089-7-2-9-6-7" x="-258.70047" y="-715.93848">
  </tspan>
 </text>
 <text fill="#000000" font-family="'Bitstream Vera Sans'" font-size="12.666px" id="text4087-2-6-5-3-42" opacity=".8" x="-1750.1636" xml:space="preserve" y="-723.14838">
  <tspan id="tspan4089-7-2-9-18-39" x="-1750.1636" y="-723.14838">
  </tspan>
 </text>
 <text fill="#000000" font-family="'Bitstream Vera Sans'" font-size="12.666px" id="text4087-2-6-5-4-4" opacity=".8" x="-289.62085" xml:space="preserve" y="-996.38251">
  <tspan id="tspan4089-7-2-9-9-3" x="-289.62085" y="-996.38251">
  </tspan>
 </text>
 <text fill="#000000" font-family="'Bitstream Vera Sans'" font-size="12.666px" id="text4087-2-6-5-7-1-0" opacity=".8" x="1196.5026" xml:space="preserve" y="-369.69113">
  <tspan id="tspan4089-7-2-9-1-8-5" x="1196.5026" y="-369.69113">
  </tspan>
 </text>
 <text fill="#000000" font-family="'Bitstream Vera Sans'" font-size="12.666px" id="text4087-2-6-5-5-5-5" opacity=".8" x="1220.4634" xml:space="preserve" y="-410.43286">
  <tspan id="tspan4089-7-2-9-6-9-2" x="1220.4634" y="-410.43286">
  </tspan>
 </text>
 <text fill="#000000" font-family="'Bitstream Vera Sans'" font-size="12.666px" id="text4087-2-6-5-75-9" opacity=".8" x="-270.99973" xml:space="preserve" y="-417.64282">
  <tspan id="tspan4089-7-2-9-3-1" x="-270.99973" y="-417.64282">
  </tspan>
 </text>
 <text fill="#000000" font-family="'Bitstream Vera Sans'" font-size="12.666px" id="text4087-2-6-5-4-8-18" opacity=".8" x="1189.5431" xml:space="preserve" y="-690.87689">
  <tspan id="tspan4089-7-2-9-9-8-4" x="1189.5431" y="-690.87689">
  </tspan>
 </text>
 <text fill="#000000" font-family="'Bitstream Vera Sans'" font-size="12.666px" id="text4087-2-6-5-45-3" opacity=".8" x="-1208.816" xml:space="preserve" y="-465.7341">
  <tspan id="tspan4089-7-2-9-75-7" x="-1208.816" y="-465.7341">
  </tspan>
 </text>
 <text fill="#000000" font-family="'Bitstream Vera Sans'" font-size="12.666px" id="text4087-2-6-5-59-8" opacity=".8" x="-3032.5017" xml:space="preserve" y="279.81946">
  <tspan id="tspan4089-7-2-9-4-2" x="-3032.5017" y="279.81946">
  </tspan>
 </text>
 <g id="layer4-0" transform="matrix(.90475 0 0 .90475 -716.75 -676.29)">
  <text fill="#000000" font-family="'Bitstream Vera Sans'" font-size="14px" id="text4087-2-6-5-20" opacity=".8" x="-664.2738" xml:space="preserve" y="1159.4154">
   <tspan id="tspan4089-7-2-9-82" x="-664.2738" y="1159.4154">
   </tspan>
  </text>
 </g>
 <text fill="#000000" font-family="'Bitstream Vera Sans'" font-size="12.666px" id="text4087-2-6-5-9" opacity=".8" x="877.22626" xml:space="preserve" y="18.050589">
  <tspan id="tspan4089-7-2-9-43" x="877.22626" y="18.050589">
  </tspan>
 </text>
 <text fill="#000000" font-family="'Bitstream Vera Sans'" font-size="12.666px" id="text4087-2-6-5-5-51" opacity=".8" x="901.18719" xml:space="preserve" y="-22.691116">
  <tspan id="tspan4089-7-2-9-6-74" x="901.18719" y="-22.691116">
  </tspan>
 </text>
 <text fill="#000000" font-family="'Bitstream Vera Sans'" font-size="12.666px" id="text4087-2-6-5-2-3" opacity=".8" x="-569.37115" xml:space="preserve" y="-52.76926">
  <tspan id="tspan4089-7-2-9-2-1" x="-569.37115" y="-52.76926">
  </tspan>
 </text>
 <text fill="#000000" font-family="'Bitstream Vera Sans'" font-size="12.666px" id="text4087-2-6-5-59-4" opacity=".8" x="-2393.0571" xml:space="preserve" y="692.78418">
  <tspan id="tspan4089-7-2-9-4-6" x="-2393.0571" y="692.78418">
  </tspan>
 </text>
 <text fill="#000000" font-family="'Bitstream Vera Sans'" font-size="12.666px" id="text4087-2-6-5-1-9" opacity=".8" x="-454.88007" xml:space="preserve" y="-438.09021">
  <tspan id="tspan4089-7-2-9-7-4" x="-454.88007" y="-438.09021">
  </tspan>
 </text>
 <text fill="#000000" font-family="'Bitstream Vera Sans'" font-size="12.666px" id="text4087-2-6-5-7-2" opacity=".8" x="352.72208" xml:space="preserve" y="-851.5603">
  <tspan id="tspan4089-7-2-9-1-26" x="352.72208" y="-851.5603">
  </tspan>
 </text>
 <text fill="#000000" font-family="'Bitstream Vera Sans'" font-size="12.666px" id="text4087-2-6-5-5-3-4" opacity=".8" x="376.68301" xml:space="preserve" y="-892.30206">
  <tspan id="tspan4089-7-2-9-6-5-1" x="376.68301" y="-892.30206">
  </tspan>
 </text>
 <text fill="#000000" font-family="'Bitstream Vera Sans'" font-size="12.666px" id="text4087-2-6-5-3-2" opacity=".8" x="-1114.7802" xml:space="preserve" y="-899.51196">
  <tspan id="tspan4089-7-2-9-18-8" x="-1114.7802" y="-899.51196">
  </tspan>
 </text>
 <text fill="#000000" font-family="'Bitstream Vera Sans'" font-size="12.666px" id="text4087-2-6-5-4-89" opacity=".8" x="345.7626" xml:space="preserve" y="-1172.7461">
  <tspan id="tspan4089-7-2-9-9-2" x="345.7626" y="-1172.7461">
  </tspan>
 </text>
 <text fill="#000000" font-family="'Bitstream Vera Sans'" font-size="12.666px" id="text4087-2-6-5-7-1-8" opacity=".8" x="1831.8861" xml:space="preserve" y="-546.05475">
  <tspan id="tspan4089-7-2-9-1-8-8" x="1831.8861" y="-546.05475">
  </tspan>
 </text>
 <text fill="#000000" font-family="'Bitstream Vera Sans'" font-size="12.666px" id="text4087-2-6-5-5-5-8" opacity=".8" x="1855.8469" xml:space="preserve" y="-586.79651">
  <tspan id="tspan4089-7-2-9-6-9-6" x="1855.8469" y="-586.79651">
  </tspan>
 </text>
 <text fill="#000000" font-family="'Bitstream Vera Sans'" font-size="12.666px" id="text4087-2-6-5-75-8" opacity=".8" x="364.38376" xml:space="preserve" y="-594.00641">
  <tspan id="tspan4089-7-2-9-3-3" x="364.38376" y="-594.00641">
  </tspan>
 </text>
 <text fill="#000000" font-family="'Bitstream Vera Sans'" font-size="12.666px" id="text4087-2-6-5-4-8-8" opacity=".8" x="1824.9266" xml:space="preserve" y="-867.24036">
  <tspan id="tspan4089-7-2-9-9-8-3" x="1824.9266" y="-867.24036">
  </tspan>
 </text>
 <text fill="#000000" font-family="'Bitstream Vera Sans'" font-size="12.666px" id="text4087-2-6-5-45-33" opacity=".8" x="-573.43256" xml:space="preserve" y="-642.09772">
  <tspan id="tspan4089-7-2-9-75-8" x="-573.43256" y="-642.09772">
  </tspan>
 </text>
 <text fill="#000000" font-family="'Bitstream Vera Sans'" font-size="12.666px" id="text4087-2-6-5-59-7-0" opacity=".8" x="-2397.1182" xml:space="preserve" y="103.45585">
  <tspan id="tspan4089-7-2-9-4-0-4" x="-2397.1182" y="103.45585">
  </tspan>
 </text>
 <text fill="#000000" font-family="'Bitstream Vera Sans'" font-size="12.666px" id="text4087-2-6-5-8-7" opacity=".8" x="-682.36279" xml:space="preserve" y="196.32799">
  <tspan id="tspan4089-7-2-9-19-6" x="-682.36279" y="196.32799">
  </tspan>
 </text>
 <text fill="#000000" font-family="'Bitstream Vera Sans'" font-size="12.666px" id="text4087-2-6-5-7-5-8" opacity=".8" x="426.66153" xml:space="preserve" y="17.14584">
  <tspan id="tspan4089-7-2-9-1-2-9" x="426.66153" y="17.14584">
  </tspan>
 </text>
 <text fill="#000000" font-family="'Bitstream Vera Sans'" font-size="12.666px" id="text4087-2-6-5-5-0-0" opacity=".8" x="450.62247" xml:space="preserve" y="-23.595865">
  <tspan id="tspan4089-7-2-9-6-2-6" x="450.62247" y="-23.595865">
  </tspan>
 </text>
 <text fill="#000000" font-family="'Bitstream Vera Sans'" font-size="12.666px" id="text4087-2-6-5-26-8" opacity=".8" x="-1040.8407" xml:space="preserve" y="-30.805836">
  <tspan id="tspan4089-7-2-9-90-7" x="-1040.8407" y="-30.805836">
  </tspan>
 </text>
 <text fill="#000000" font-family="'Bitstream Vera Sans'" font-size="12.666px" id="text4087-2-6-5-4-3-9" opacity=".8" x="419.70206" xml:space="preserve" y="-304.03989">
  <tspan id="tspan4089-7-2-9-9-5-0" x="419.70206" y="-304.03989">
  </tspan>
 </text>
 <text fill="#000000" font-family="'Bitstream Vera Sans'" font-size="12.666px" id="text4087-2-6-5-55-3" opacity=".8" x="-608.03253" xml:space="preserve" y="-33.520081">
  <tspan id="tspan4089-7-2-9-32-3" x="-608.03253" y="-33.520081">
  </tspan>
 </text>
 <text fill="#000000" font-family="'Bitstream Vera Sans'" font-size="12.666px" id="text4087-2-6-5-59-9-3" opacity=".8" x="-2431.7185" xml:space="preserve" y="712.03345">
  <tspan id="tspan4089-7-2-9-4-1-7" x="-2431.7185" y="712.03345">
  </tspan>
 </text>
 <text fill="#000000" font-family="'Bitstream Vera Sans'" font-size="12.666px" id="text4087-2-6-5-1-8-3" opacity=".8" x="-456.93948" xml:space="preserve" y="-895.0506">
  <tspan id="tspan4089-7-2-9-7-8-2" x="-456.93948" y="-895.0506">
  </tspan>
 </text>
 <text fill="#000000" font-family="'Bitstream Vera Sans'" font-size="12.666px" id="text4087-2-6-5-7-8-6" opacity=".8" x="350.66266" xml:space="preserve" y="-1308.5208">
  <tspan id="tspan4089-7-2-9-1-9-5" x="350.66266" y="-1308.5208">
  </tspan>
 </text>
 <text fill="#000000" font-family="'Bitstream Vera Sans'" font-size="12.666px" id="text4087-2-6-5-5-52-2" opacity=".8" x="374.62357" xml:space="preserve" y="-1349.2626">
  <tspan id="tspan4089-7-2-9-6-4-6" x="374.62357" y="-1349.2626">
  </tspan>
 </text>
 <text fill="#000000" font-family="'Bitstream Vera Sans'" font-size="12.666px" id="text4087-2-6-5-3-4-5" opacity=".8" x="-1116.8396" xml:space="preserve" y="-1356.4724">
  <tspan id="tspan4089-7-2-9-18-3-8" x="-1116.8396" y="-1356.4724">
  </tspan>
 </text>
 <text fill="#000000" font-family="'Bitstream Vera Sans'" font-size="12.666px" id="text4087-2-6-5-4-7-7" opacity=".8" x="343.70316" xml:space="preserve" y="-1629.7065">
  <tspan id="tspan4089-7-2-9-9-54-9" x="343.70316" y="-1629.7065">
  </tspan>
 </text>
 <text fill="#000000" font-family="'Bitstream Vera Sans'" font-size="12.666px" id="text4087-2-6-5-7-1-2-6" opacity=".8" x="1829.8265" xml:space="preserve" y="-1003.0153">
  <tspan id="tspan4089-7-2-9-1-8-0-0" x="1829.8265" y="-1003.0153">
  </tspan>
 </text>
 <text fill="#000000" font-family="'Bitstream Vera Sans'" font-size="12.666px" id="text4087-2-6-5-5-5-6-4" opacity=".8" x="1853.7874" xml:space="preserve" y="-1043.757">
  <tspan id="tspan4089-7-2-9-6-9-8-1" x="1853.7874" y="-1043.757">
  </tspan>
 </text>
 <text fill="#000000" font-family="'Bitstream Vera Sans'" font-size="12.666px" id="text4087-2-6-5-75-4-0" opacity=".8" x="362.32431" xml:space="preserve" y="-1050.9668">
  <tspan id="tspan4089-7-2-9-3-9-4" x="362.32431" y="-1050.9668">
  </tspan>
 </text>
 <text fill="#000000" font-family="'Bitstream Vera Sans'" font-size="12.666px" id="text4087-2-6-5-4-8-1-8" opacity=".8" x="1822.8671" xml:space="preserve" y="-1324.2009">
  <tspan id="tspan4089-7-2-9-9-8-8-7" x="1822.8671" y="-1324.2009">
  </tspan>
 </text>
 <text fill="#000000" font-family="'Bitstream Vera Sans'" font-size="12.666px" id="text4087-2-6-5-45-0-0" opacity=".8" x="-575.492" xml:space="preserve" y="-1099.0581">
  <tspan id="tspan4089-7-2-9-75-2-8" x="-575.492" y="-1099.0581">
  </tspan>
 </text>
 <text fill="#000000" font-family="'Bitstream Vera Sans'" font-size="12.666px" id="text4087-2-6-5-59-5-6" opacity=".8" x="-2399.1777" xml:space="preserve" y="-353.50461">
  <tspan id="tspan4089-7-2-9-4-00-2" x="-2399.1777" y="-353.50461">
  </tspan>
 </text>
 <text fill="#000000" font-family="'Bitstream Vera Sans'" font-size="12.666px" id="text4087-2-6-5-264-4" opacity=".8" x="-684.42224" xml:space="preserve" y="-260.63245">
  <tspan id="tspan4089-7-2-9-8-7" x="-684.42224" y="-260.63245">
  </tspan>
 </text>
 <text fill="#000000" font-family="'Bitstream Vera Sans'" font-size="12.666px" id="text4087-2-6-5-42-9" opacity=".8" x="155.5923" xml:space="preserve" y="-19.71829">
  <tspan id="tspan4089-7-2-9-93-3" x="155.5923" y="-19.71829">
  </tspan>
 </text>
 <text fill="#000000" font-family="'Bitstream Vera Sans'" font-size="12.666px" id="text4087-2-6-5-5-05-9" opacity=".8" x="179.55324" xml:space="preserve" y="-60.460011">
  <tspan id="tspan4089-7-2-9-6-49-2" x="179.55324" y="-60.460011">
  </tspan>
 </text>
 <text fill="#000000" font-family="'Bitstream Vera Sans'" font-size="12.666px" id="text4087-2-6-5-1-4-8" opacity=".8" x="-1090.2634" xml:space="preserve" y="-254.4886">
  <tspan id="tspan4089-7-2-9-7-7-3" x="-1090.2634" y="-254.4886">
  </tspan>
 </text>
 <text fill="#000000" font-family="'Bitstream Vera Sans'" font-size="12.666px" id="text4087-2-6-5-7-56-0" opacity=".8" x="-282.66141" xml:space="preserve" y="-667.9588">
  <tspan id="tspan4089-7-2-9-1-1-1" x="-282.66141" y="-667.9588">
  </tspan>
 </text>
 <text fill="#000000" font-family="'Bitstream Vera Sans'" font-size="12.666px" id="text4087-2-6-5-5-8-7" opacity=".8" x="-258.70047" xml:space="preserve" y="-708.7005">
  <tspan id="tspan4089-7-2-9-6-7-8" x="-258.70047" y="-708.7005">
  </tspan>
 </text>
 <text fill="#000000" font-family="'Bitstream Vera Sans'" font-size="12.666px" id="text4087-2-6-5-3-42-9" opacity=".8" x="-1750.1636" xml:space="preserve" y="-715.91046">
  <tspan id="tspan4089-7-2-9-18-39-1" x="-1750.1636" y="-715.91046">
  </tspan>
 </text>
 <text fill="#000000" font-family="'Bitstream Vera Sans'" font-size="12.666px" id="text4087-2-6-5-4-4-5" opacity=".8" x="-289.62085" xml:space="preserve" y="-989.14447">
  <tspan id="tspan4089-7-2-9-9-3-4" x="-289.62085" y="-989.14447">
  </tspan>
 </text>
 <text fill="#000000" font-family="'Bitstream Vera Sans'" font-size="12.666px" id="text4087-2-6-5-7-1-0-9" opacity=".8" x="1196.5026" xml:space="preserve" y="-362.45316">
  <tspan id="tspan4089-7-2-9-1-8-5-2" x="1196.5026" y="-362.45316">
  </tspan>
 </text>
 <text fill="#000000" font-family="'Bitstream Vera Sans'" font-size="12.666px" id="text4087-2-6-5-5-5-5-5" opacity=".8" x="1220.4634" xml:space="preserve" y="-403.19489">
  <tspan id="tspan4089-7-2-9-6-9-2-7" x="1220.4634" y="-403.19489">
  </tspan>
 </text>
 <text fill="#000000" font-family="'Bitstream Vera Sans'" font-size="12.666px" id="text4087-2-6-5-75-9-4" opacity=".8" x="-270.99973" xml:space="preserve" y="-410.40482">
  <tspan id="tspan4089-7-2-9-3-1-9" x="-270.99973" y="-410.40482">
  </tspan>
 </text>
 <text fill="#000000" font-family="'Bitstream Vera Sans'" font-size="12.666px" id="text4087-2-6-5-4-8-18-9" opacity=".8" x="1189.5431" xml:space="preserve" y="-683.63892">
  <tspan id="tspan4089-7-2-9-9-8-4-4" x="1189.5431" y="-683.63892">
  </tspan>
 </text>
 <text fill="#000000" font-family="'Bitstream Vera Sans'" font-size="12.666px" id="text4087-2-6-5-45-3-5" opacity=".8" x="-1208.816" xml:space="preserve" y="-458.49609">
  <tspan id="tspan4089-7-2-9-75-7-9" x="-1208.816" y="-458.49609">
  </tspan>
 </text>
 <text fill="#000000" font-family="'Bitstream Vera Sans'" font-size="12.666px" id="text4087-2-6-5-59-8-3" opacity=".8" x="-3032.5017" xml:space="preserve" y="287.05743">
  <tspan id="tspan4089-7-2-9-4-2-5" x="-3032.5017" y="287.05743">
  </tspan>
 </text>
 <g id="layer4-0-7" transform="matrix(.90475 0 0 .90475 -716.75 -669.05)">
  <text fill="#000000" font-family="'Bitstream Vera Sans'" font-size="14px" id="text4087-2-6-5-20-0" opacity=".8" x="-664.2738" xml:space="preserve" y="1159.4154">
   <tspan id="tspan4089-7-2-9-82-8" x="-664.2738" y="1159.4154">
   </tspan>
  </text>
 </g>
 <text fill="#000000" font-family="'Droid Sans'" font-size="12.666px" id="text7276" x="435.90427" xml:space="preserve" y="-361.22546">
  <tspan id="tspan7278" x="435.90427" y="-361.22546">
  </tspan>
  <tspan id="tspan7280" x="435.90427" y="-345.3924">
  </tspan>
 </text>
 <text fill="#000000" font-family="'Bitstream Vera Sans'" font-size="12.666px" id="text4087-2-6-5-51" opacity=".8" x="901.0882" xml:space="preserve" y="-843.27002">
  <tspan id="tspan4089-7-2-9-97" x="901.0882" y="-843.27002">
  </tspan>
 </text>
 <text fill="#000000" font-family="'Bitstream Vera Sans'" font-size="12.666px" id="text4087-2-6-5-59-2" opacity=".8" x="-922.59778" xml:space="preserve" y="-97.716553">
  <tspan id="tspan4089-7-2-9-4-4" x="-922.59778" y="-97.716553">
  </tspan>
 </text>
 <text fill="#000000" font-family="'Bitstream Vera Sans'" font-size="12.666px" id="text4087-2-6-5-7-7" opacity=".8" x="1628.1677" xml:space="preserve" y="-1128.2659">
  <tspan id="tspan4089-7-2-9-1-6" x="1628.1677" y="-1128.2659">
  </tspan>
 </text>
 <text fill="#000000" font-family="'Bitstream Vera Sans'" font-size="12.666px" id="text4087-2-6-5-5-6" opacity=".8" x="1652.1285" xml:space="preserve" y="-1169.0076">
  <tspan id="tspan4089-7-2-9-6-53" x="1652.1285" y="-1169.0076">
  </tspan>
 </text>
 <text fill="#000000" font-family="'Bitstream Vera Sans'" font-size="12.666px" id="text4087-2-6-5-54" opacity=".8" x="160.66542" xml:space="preserve" y="-1176.2175">
  <tspan id="tspan4089-7-2-9-0" x="160.66542" y="-1176.2175">
  </tspan>
 </text>
 <text fill="#000000" font-family="'Bitstream Vera Sans'" font-size="12.666px" id="text4087-2-6-5-4-1" opacity=".8" x="1621.2083" xml:space="preserve" y="-1449.4517">
  <tspan id="tspan4089-7-2-9-9-28" x="1621.2083" y="-1449.4517">
  </tspan>
 </text>
 <path d="m2.772 30.162c-0.3377 0.36008-0.59015 0.66935-0.77198 0.9164 0.20614-0.27682 0.46981-0.58614 0.77198-0.9164zm41.81-10.467c0.11759 0.05551 0.23716 0.11003 0.33451 0.16648-0.0748-0.04328-0.19261-0.10221-0.33451-0.16648zm-22.61 0.97598c12.48-3.3689 19.178-2.1712 21.774-1.3009-2.8541-0.96345-8.4438-1.7411-11.31-3.4176-2.7397-1.6024-5.6539-6.4528-12.914-4.4935-7.2588 1.9594-7.2763 7.4552-8.9544 10.397-1.3742 2.4129-5.6317 5.9405-7.7948 8.3046 2.0547-2.1943 7.2831-6.2721 19.199-9.4901zm3.7683-7.1425c0.68277-0.1841 1.7582 0.03314 2.6039 0.62774 1.2019 0.84364 1.5629 2.1279 0.25619 2.4805-1.3081 0.35264-2.9818-0.57564-3.5023-1.6034-0.36641-0.72557-0.0396-1.3218 0.64218-1.5049zm-5.3443 0.92016c1.1185-0.30051 2.2284 0.22099 2.4809 1.1679 0.25113 0.94487-0.451 1.9571-1.5694 2.2579-1.1187 0.30153-2.2284-0.21962-2.4812-1.1665-0.25113-0.94482 0.45089-1.9564 1.5696-2.2592zm-7.0286 3.7496c0.43868-0.94145 1.2614-1.6704 1.9428-1.8555 0.68101-0.18375 1.2614 0.1675 1.3033 0.97938 0.0594 1.1523-0.92917 2.799-2.2372 3.1526-1.3057 0.35261-1.6302-0.9405-1.0089-2.2765zm32.571 4.904c-0.88-3.333-11.169-3.133-23.071 0.098-11.899 3.232-20.909 8.271-20.026 11.603 0.59587 2.2545 5.6762 3.531 12.582 3.1215 2.8862 0.24302 6.7525-0.17395 10.876-1.2873 4.0641-1.0965 7.5792-2.6525 9.9573-4.2884 6.38-3.181 10.29-6.9524 9.6829-9.2468zm-20.057 11.963c-5.1766 1.3977-9.5746 1.778-9.9224 0.46701-0.34881-1.3097 3.5807-3.4451 8.7584-4.842 5.176-1.399 9.6409-1.5256 9.9904-0.21525 0.34881 1.309-3.6503 3.1933-8.8264 4.5902z" fill="#608ab5" id="yandex-ufo">
 </path>
 <path d="m36.264 17.438c-3.528 0.04-8.222 0.593-14.293 2.232-6.832 1.845-11.411 3.966-14.508 5.859-1.643 1.644-3.4879 3.316-4.6915 4.631 2.0547-2.194 7.2825-6.272 19.2-9.49 12.478-3.369 19.178-2.171 21.774-1.301-1.845-0.623-4.826-1.171-7.482-1.931zm8.3184 1.2578c0.1419 0.06427 0.25918 0.12274 0.33398 0.16602-0.09735-0.05645-0.2164-0.1105-0.33398-0.16602zm0 1c0.11759 0.05551 0.23664 0.10956 0.33398 0.16602-0.0748-0.04328-0.19209-0.10174-0.33398-0.16602zm1.3555 3.4082c-0.49334 2.2974-4.159 5.4906-9.6816 8.2441-2.3781 1.6359-5.893 3.1926-9.957 4.2891-4.1231 1.1133-7.9908 1.5301-10.877 1.2871-6.8833 0.40817-11.951-0.85869-12.574-3.0996-0.085382 0.33944-0.09055 0.6662-0.00781 0.97852 0.59587 2.2545 5.6765 3.5306 12.582 3.1211 2.8862 0.24302 6.7538-0.17378 10.877-1.2871 4.0641-1.0965 7.5789-2.6531 9.957-4.2891 6.3783-3.1802 10.286-6.9496 9.6816-9.2441zm-43.166 6.058c-0.3022 0.33-0.5654 0.639-0.7715 0.916 0.1818-0.247 0.4338-0.556 0.7715-0.916zm0 1c-0.3377 0.36-0.5897 0.669-0.7715 0.916 0.2061-0.277 0.4693-0.586 0.7715-0.916z" id="path4439" opacity=".3">
 </path>
</svg>
