<?xml version='1.0' encoding='UTF-8' standalone='no'?>
<!-- Created with Inkscape (http://www.inkscape.org/) -->
<svg height="16" id="svg7384" inkscape:export-filename="/home/sam/source-symbolic.png" inkscape:export-xdpi="270" inkscape:export-ydpi="270" inkscape:version="0.91 r13725" sodipodi:docname="face-kiss-symbolic.svg" style="enable-background:new" version="1.1" width="16" xmlns="http://www.w3.org/2000/svg" xmlns:cc="http://creativecommons.org/ns#" xmlns:dc="http://purl.org/dc/elements/1.1/" xmlns:inkscape="http://www.inkscape.org/namespaces/inkscape" xmlns:osb="http://www.openswatchbook.org/uri/2009/osb" xmlns:rdf="http://www.w3.org/1999/02/22-rdf-syntax-ns#" xmlns:sodipodi="http://sodipodi.sourceforge.net/DTD/sodipodi-0.dtd" xmlns:svg="http://www.w3.org/2000/svg">
 <sodipodi:namedview bordercolor="#666666" borderlayer="false" borderopacity="1" gridtolerance="10" guidetolerance="10" id="namedview88" inkscape:bbox-nodes="true" inkscape:bbox-paths="false" inkscape:current-layer="g71291" inkscape:cx="11.999998" inkscape:cy="-2.0000046" inkscape:guide-bbox="true" inkscape:object-nodes="true" inkscape:object-paths="true" inkscape:pageopacity="1" inkscape:pageshadow="2" inkscape:showpageshadow="false" inkscape:snap-bbox="true" inkscape:snap-bbox-edge-midpoints="false" inkscape:snap-bbox-midpoints="true" inkscape:snap-center="false" inkscape:snap-global="true" inkscape:snap-grids="true" inkscape:snap-intersection-paths="true" inkscape:snap-midpoints="true" inkscape:snap-nodes="true" inkscape:snap-object-midpoints="true" inkscape:snap-others="true" inkscape:snap-page="false" inkscape:snap-smooth-nodes="true" inkscape:snap-to-guides="true" inkscape:window-height="711" inkscape:window-maximized="1" inkscape:window-width="1366" inkscape:window-x="0" inkscape:window-y="27" inkscape:zoom="1" objecttolerance="10" pagecolor="#f7f7f7" showborder="true" showgrid="false" showguides="true">
  <inkscape:grid color="#000000" dotted="false" empcolor="#0800ff" empopacity="0.4627451" empspacing="4" enabled="true" id="grid4866" opacity="0.16470588" originx="-624.00015" originy="-376.00336" snapvisiblegridlinesonly="true" spacingx="0.25px" spacingy="0.25px" type="xygrid" visible="true">
  </inkscape:grid>
 </sodipodi:namedview>
 <metadata id="metadata90">
  <rdf:rdf>
   <cc:work rdf:about="">
    <dc:format>
     image/svg+xml
    </dc:format>
    <dc:type rdf:resource="http://purl.org/dc/dcmitype/StillImage">
    </dc:type>
    <dc:title>
     Paper Symbolic Icon Theme
    </dc:title>
   </cc:work>
  </rdf:rdf>
 </metadata>
 <title id="title8473">
  Paper Symbolic Icon Theme
 </title>
 <defs id="defs7386">
  <style id="current-color-scheme" type="text/css">
   .ColorScheme-Text { color:#555555; }
  </style>
  <lineargradient id="linearGradient5606" osb:paint="solid">
   <stop id="stop5608" offset="0" style="stop-color:#000000;stop-opacity:1;">
   </stop>
  </lineargradient>
  <filter id="filter7554" inkscape:collect="always" style="color-interpolation-filters:sRGB">
   <feblend id="feBlend7556" in2="BackgroundImage" inkscape:collect="always" mode="darken">
   </feblend>
  </filter>
 </defs>
 <g id="layer9" inkscape:groupmode="layer" inkscape:label="status" style="display:inline" transform="translate(-865.00035,159.00336)">
 </g>
 <g id="layer10" inkscape:groupmode="layer" inkscape:label="devices" style="display:inline;filter:url(#filter7554)" transform="translate(-865.00035,159.00336)">
 </g>
 <g id="layer1" inkscape:groupmode="layer" inkscape:label="places" style="display:inline" transform="translate(-624.00015,-457.99664)">
 </g>
 <g id="layer14" inkscape:groupmode="layer" inkscape:label="mimetypes" style="display:inline" transform="translate(-865.00035,159.00336)">
 </g>
 <g id="layer15" inkscape:groupmode="layer" inkscape:label="emblems" style="display:inline" transform="translate(-865.00035,159.00336)">
 </g>
 <g id="g71291" inkscape:groupmode="layer" inkscape:label="emotes" style="display:inline" transform="translate(-865.00035,159.00336)">
  <path class="ColorScheme-Text" d="m 873.0002,-158.00391 c -3.86599,0 -7,3.13401 -7,7 0,3.86599 3.13401,7 7,7 3.86599,0 7,-3.13401 7,-7 0,-3.86599 -3.13401,-7 -7,-7 z m 4.09375,3.375 c 0.01,-0.023 0.4323,0.0833 0.5,0.625 0.067,0.542 -0.40625,1 -0.40625,1 0,0 -3.1765,0.017 -3.1875,0 -0.192,-0.2918 -0.2751,-0.7658 0.0625,-1.0625 0.019,0 3.02675,-0.5406 3.03125,-0.5625 z m -8.40625,0.0312 c 0.0424,-0.015 0.06,-0.006 0.0625,0 0.005,0.0219 2.981,0.5625 3,0.5625 0.3376,0.2967 0.2858,0.7707 0.0937,1.0625 -0.0109,0.017 -3.1875,0 -3.1875,0 0,0 -0.47325,-0.458 -0.40625,-1 0.0506,-0.40627 0.31042,-0.58006 0.4375,-0.625 z m 5.6875,3.89712 c 0.5281,0.091 0.85134,0.57183 1.27734,0.85157 0.4234,0.32227 0.90238,0.5632 1.33008,0.87695 -0.2021,0.20917 -0.64509,0.33301 -0.90039,0.56445 -0.4147,0.33204 -0.69441,0.79757 -1.06641,1.17383 -0.4026,0.44495 -0.9266,0.83412 -1.5332,0.92188 -0.3271,0.0289 -0.65612,0.0255 -0.98242,-0.0137 -0.182,0.0454 -0.49171,-0.1335 -0.69531,-0.23242 -0.9209,-0.48261 -1.33201,-1.54103 -2.22461,-2.06054 -0.162,-0.1364 -0.45796,-0.20554 -0.56446,-0.34766 0.72011,-0.41719 1.4058,-0.89669 2.0254,-1.45313 0.2525,-0.19094 0.59664,-0.33773 0.90234,-0.17578 0.4851,0.23862 1.05038,0.41984 1.58398,0.22852 0.2971,-0.073 0.54976,-0.27266 0.84766,-0.33399 z m -1.90625,1.71875 c -0.271,0.11558 -0.5557,0.25709 -0.8125,0.375 0.1567,0.13071 0.46757,0.2025 0.66797,0.33594 0.316,0.21175 0.72878,0.22632 1.08398,0.12109 0.3204,-0.1413 0.62723,-0.31646 0.95703,-0.43554 -0.1945,-0.13166 -0.53614,-0.24101 -0.77734,-0.37891 -0.3745,0.0118 -0.73954,0.0937 -1.11914,-0.0176 z" id="path7970" inkscape:connector-curvature="0" sodipodi:nodetypes="ssssscccccccccccccccccccccccccccccccccc" style="fill:currentColor">
  </path>
 </g>
 <g id="layer2" inkscape:groupmode="layer" inkscape:label="categories" style="display:inline" transform="translate(-624.00015,-307.99664)">
 </g>
 <g id="g6058" inkscape:groupmode="layer" inkscape:label="apps" style="display:inline" transform="translate(-624.00015,-307.99664)">
 </g>
 <g id="layer12" inkscape:groupmode="layer" inkscape:label="actions" style="display:inline" transform="translate(-865.00035,159.00336)">
 </g>
</svg>
