<?xml version='1.0' encoding='UTF-8' standalone='no'?>
<!-- Created with Inkscape (http://www.inkscape.org/) -->
<svg height="16" id="svg7384" inkscape:export-filename="/home/sam/source-symbolic.png" inkscape:export-xdpi="270" inkscape:export-ydpi="270" inkscape:version="0.91 r13725" sodipodi:docname="face-angry-symbolic.svg" style="enable-background:new" version="1.1" width="16" xmlns="http://www.w3.org/2000/svg" xmlns:cc="http://creativecommons.org/ns#" xmlns:dc="http://purl.org/dc/elements/1.1/" xmlns:inkscape="http://www.inkscape.org/namespaces/inkscape" xmlns:osb="http://www.openswatchbook.org/uri/2009/osb" xmlns:rdf="http://www.w3.org/1999/02/22-rdf-syntax-ns#" xmlns:sodipodi="http://sodipodi.sourceforge.net/DTD/sodipodi-0.dtd" xmlns:svg="http://www.w3.org/2000/svg">
 <sodipodi:namedview bordercolor="#666666" borderlayer="false" borderopacity="1" gridtolerance="10" guidetolerance="10" id="namedview88" inkscape:bbox-nodes="true" inkscape:bbox-paths="false" inkscape:current-layer="g71291" inkscape:cx="191.99994" inkscape:cy="-1.999997" inkscape:guide-bbox="true" inkscape:object-nodes="true" inkscape:object-paths="true" inkscape:pageopacity="1" inkscape:pageshadow="2" inkscape:showpageshadow="false" inkscape:snap-bbox="true" inkscape:snap-bbox-edge-midpoints="false" inkscape:snap-bbox-midpoints="true" inkscape:snap-center="false" inkscape:snap-global="true" inkscape:snap-grids="true" inkscape:snap-intersection-paths="true" inkscape:snap-midpoints="true" inkscape:snap-nodes="true" inkscape:snap-object-midpoints="true" inkscape:snap-others="true" inkscape:snap-page="false" inkscape:snap-smooth-nodes="true" inkscape:snap-to-guides="true" inkscape:window-height="711" inkscape:window-maximized="1" inkscape:window-width="1366" inkscape:window-x="0" inkscape:window-y="27" inkscape:zoom="1" objecttolerance="10" pagecolor="#f7f7f7" showborder="true" showgrid="false" showguides="true">
  <inkscape:grid color="#000000" dotted="false" empcolor="#0800ff" empopacity="0.4627451" empspacing="4" enabled="true" id="grid4866" opacity="0.16470588" originx="-444.00021" originy="-376.00336" snapvisiblegridlinesonly="true" spacingx="0.25px" spacingy="0.25px" type="xygrid" visible="true">
  </inkscape:grid>
 </sodipodi:namedview>
 <metadata id="metadata90">
  <rdf:rdf>
   <cc:work rdf:about="">
    <dc:format>
     image/svg+xml
    </dc:format>
    <dc:type rdf:resource="http://purl.org/dc/dcmitype/StillImage">
    </dc:type>
    <dc:title>
     Paper Symbolic Icon Theme
    </dc:title>
   </cc:work>
  </rdf:rdf>
 </metadata>
 <title id="title8473">
  Paper Symbolic Icon Theme
 </title>
 <defs id="defs7386">
  <style id="current-color-scheme" type="text/css">
   .ColorScheme-Text { color:#555555; }
  </style>
  <lineargradient id="linearGradient5606" osb:paint="solid">
   <stop id="stop5608" offset="0" style="stop-color:#000000;stop-opacity:1;">
   </stop>
  </lineargradient>
  <filter id="filter7554" inkscape:collect="always" style="color-interpolation-filters:sRGB">
   <feblend id="feBlend7556" in2="BackgroundImage" inkscape:collect="always" mode="darken">
   </feblend>
  </filter>
 </defs>
 <g id="layer9" inkscape:groupmode="layer" inkscape:label="status" style="display:inline" transform="translate(-685.00041,159.00336)">
 </g>
 <g id="layer10" inkscape:groupmode="layer" inkscape:label="devices" style="display:inline;filter:url(#filter7554)" transform="translate(-685.00041,159.00336)">
 </g>
 <g id="layer1" inkscape:groupmode="layer" inkscape:label="places" style="display:inline" transform="translate(-444.00021,-457.99664)">
 </g>
 <g id="layer14" inkscape:groupmode="layer" inkscape:label="mimetypes" style="display:inline" transform="translate(-685.00041,159.00336)">
 </g>
 <g id="layer15" inkscape:groupmode="layer" inkscape:label="emblems" style="display:inline" transform="translate(-685.00041,159.00336)">
 </g>
 <g id="g71291" inkscape:groupmode="layer" inkscape:label="emotes" style="display:inline" transform="translate(-685.00041,159.00336)">
  <path class="ColorScheme-Text" d="m 693.0002,-158.00391 c -3.86599,0 -7,3.13401 -7,7 0,3.86599 3.13401,7 7,7 3.86599,0 7,-3.13401 7,-7 0,-3.86599 -3.13401,-7 -7,-7 z m -4.96875,5.375 c 0.0421,-0.0152 0.06,-0.006 0.0625,0 0.004,0.0221 3.82475,0.5625 3.84375,0.5625 0.3375,0.2967 0.2544,0.7707 0.0625,1.0625 -0.002,0.003 -0.41685,8.4e-4 -0.75,0 l 0,0.004 -0.25,0 c 0,0.55064 -0.44593,1 -1,1 -0.55424,0 -1,-0.44936 -1,-1 l -0.25,0 0,-0.004 c -0.33366,-1.4e-4 -0.75,0 -0.75,0 0,0 -0.47425,-0.458 -0.40625,-1 0.0506,-0.40635 0.31129,-0.57944 0.4375,-0.625 z m 9.875,0 c 0.01,-0.023 0.4323,0.0832 0.5,0.625 0.068,0.542 -0.40625,1 -0.40625,1 0,0 -0.41634,-1.4e-4 -0.75,0 l 0,0.004 -0.25,0 c 0,0.55064 -0.44585,1 -1,1 -0.55407,0 -1,-0.44936 -1,-1 l -0.25,0 0,-0.004 c -0.33321,8.4e-4 -0.74796,0.003 -0.75,0 -0.192,-0.2918 -0.2741,-0.7658 0.0625,-1.0625 0.019,0 3.83945,-0.5404 3.84375,-0.5625 z m -6.40625,5.625 3,0 c 0.277,0 0.5,0.22429 0.5,0.5 0,0.27571 -0.223,0.5 -0.5,0.5 l -3,0 c -0.277,0 -0.5,-0.22429 -0.5,-0.5 0,-0.27571 0.223,-0.5 0.5,-0.5 z" id="path7955" inkscape:connector-curvature="0" style="fill:currentColor">
  </path>
 </g>
 <g id="layer2" inkscape:groupmode="layer" inkscape:label="categories" style="display:inline" transform="translate(-444.00021,-307.99664)">
 </g>
 <g id="g6058" inkscape:groupmode="layer" inkscape:label="apps" style="display:inline" transform="translate(-444.00021,-307.99664)">
 </g>
 <g id="layer12" inkscape:groupmode="layer" inkscape:label="actions" style="display:inline" transform="translate(-685.00041,159.00336)">
 </g>
</svg>
