<?xml version='1.0' encoding='UTF-8' standalone='no'?>
<!-- Created with Inkscape (http://www.inkscape.org/) -->
<svg height="16.000008" id="svg7384" inkscape:export-filename="/home/sam/source-symbolic.png" inkscape:export-xdpi="270" inkscape:export-ydpi="270" inkscape:version="0.91 r13725" sodipodi:docname="face-shutmouth-symbolic.svg" style="enable-background:new" version="1.1" width="16.000183" xmlns="http://www.w3.org/2000/svg" xmlns:cc="http://creativecommons.org/ns#" xmlns:dc="http://purl.org/dc/elements/1.1/" xmlns:inkscape="http://www.inkscape.org/namespaces/inkscape" xmlns:osb="http://www.openswatchbook.org/uri/2009/osb" xmlns:rdf="http://www.w3.org/1999/02/22-rdf-syntax-ns#" xmlns:sodipodi="http://sodipodi.sourceforge.net/DTD/sodipodi-0.dtd" xmlns:svg="http://www.w3.org/2000/svg">
 <sodipodi:namedview bordercolor="#666666" borderlayer="false" borderopacity="1" gridtolerance="10" guidetolerance="10" id="namedview88" inkscape:bbox-nodes="true" inkscape:bbox-paths="false" inkscape:current-layer="g71291" inkscape:cx="132.00018" inkscape:cy="18.000003" inkscape:guide-bbox="true" inkscape:object-nodes="true" inkscape:object-paths="true" inkscape:pageopacity="1" inkscape:pageshadow="2" inkscape:showpageshadow="false" inkscape:snap-bbox="true" inkscape:snap-bbox-edge-midpoints="false" inkscape:snap-bbox-midpoints="true" inkscape:snap-center="false" inkscape:snap-global="true" inkscape:snap-grids="true" inkscape:snap-intersection-paths="true" inkscape:snap-midpoints="true" inkscape:snap-nodes="true" inkscape:snap-object-midpoints="true" inkscape:snap-others="true" inkscape:snap-page="false" inkscape:snap-smooth-nodes="true" inkscape:snap-to-guides="true" inkscape:window-height="711" inkscape:window-maximized="1" inkscape:window-width="1366" inkscape:window-x="0" inkscape:window-y="27" inkscape:zoom="1" objecttolerance="10" pagecolor="#f7f7f7" showborder="true" showgrid="false" showguides="true">
  <inkscape:grid color="#000000" dotted="false" empcolor="#0800ff" empopacity="0.4627451" empspacing="4" enabled="true" id="grid4866" opacity="0.16470588" originx="-503.99997" originy="-356.00336" snapvisiblegridlinesonly="true" spacingx="0.25px" spacingy="0.25px" type="xygrid" visible="true">
  </inkscape:grid>
 </sodipodi:namedview>
 <metadata id="metadata90">
  <rdf:rdf>
   <cc:work rdf:about="">
    <dc:format>
     image/svg+xml
    </dc:format>
    <dc:type rdf:resource="http://purl.org/dc/dcmitype/StillImage">
    </dc:type>
    <dc:title>
     Paper Symbolic Icon Theme
    </dc:title>
   </cc:work>
  </rdf:rdf>
 </metadata>
 <title id="title8473">
  Paper Symbolic Icon Theme
 </title>
 <defs id="defs7386">
  <style id="current-color-scheme" type="text/css">
   .ColorScheme-Text { color:#555555; }
  </style>
  <lineargradient id="linearGradient5606" osb:paint="solid">
   <stop id="stop5608" offset="0" style="stop-color:#000000;stop-opacity:1;">
   </stop>
  </lineargradient>
  <filter id="filter7554" inkscape:collect="always" style="color-interpolation-filters:sRGB">
   <feblend id="feBlend7556" in2="BackgroundImage" inkscape:collect="always" mode="darken">
   </feblend>
  </filter>
 </defs>
 <g id="layer9" inkscape:groupmode="layer" inkscape:label="status" style="display:inline" transform="translate(-745.00017,139.00336)">
 </g>
 <g id="layer10" inkscape:groupmode="layer" inkscape:label="devices" style="display:inline;filter:url(#filter7554)" transform="translate(-745.00017,139.00336)">
 </g>
 <g id="layer1" inkscape:groupmode="layer" inkscape:label="places" style="display:inline" transform="translate(-503.99997,-477.99664)">
 </g>
 <g id="layer14" inkscape:groupmode="layer" inkscape:label="mimetypes" style="display:inline" transform="translate(-745.00017,139.00336)">
 </g>
 <g id="layer15" inkscape:groupmode="layer" inkscape:label="emblems" style="display:inline" transform="translate(-745.00017,139.00336)">
 </g>
 <g id="g71291" inkscape:groupmode="layer" inkscape:label="emotes" style="display:inline" transform="translate(-745.00017,139.00336)">
  <path class="ColorScheme-Text" d="m 753.0002,-138.00391 c -3.86599,0 -7,3.13401 -7,7 0,3.86599 3.13401,7 7,7 3.86599,0 7,-3.13401 7,-7 0,-3.86599 -3.13401,-7 -7,-7 z m -3,4.00391 c 0.55407,0 1,0.44945 1,1 0,0.55064 -0.44593,1 -1,1 -0.55424,0 -1,-0.44936 -1,-1 0,-0.55055 0.44576,-1 1,-1 z m 6,0 c 0.55415,0 1,0.44945 1,1 0,0.55064 -0.44585,1 -1,1 -0.55407,0 -1,-0.44936 -1,-1 0,-0.55055 0.44593,-1 1,-1 z m -7,3.99609 4,1 4,-1 c 0.0206,0.14762 0.0192,0.27798 0,0.40625 -0.0576,0.38481 -0.27337,0.6646 -0.65625,0.75 l -1.34375,0.34375 1.3125,0.3125 c 0.53601,0.14363 0.6606,0.49922 0.6875,0.84375 0.009,0.11484 0,0.23785 0,0.34375 l -4,-1 -4,1 c -0.0655,-0.63125 0.0484,-0.97818 0.53125,-1.125 l 1.46875,-0.375 -1.5,-0.34375 c -0.4745,-0.12796 -0.5831,-0.67248 -0.5,-1.15625 z" id="rect5869" inkscape:connector-curvature="0" style="fill:currentColor">
  </path>
 </g>
 <g id="layer2" inkscape:groupmode="layer" inkscape:label="categories" style="display:inline" transform="translate(-503.99997,-327.99664)">
 </g>
 <g id="g6058" inkscape:groupmode="layer" inkscape:label="apps" style="display:inline" transform="translate(-503.99997,-327.99664)">
 </g>
 <g id="layer12" inkscape:groupmode="layer" inkscape:label="actions" style="display:inline" transform="translate(-745.00017,139.00336)">
 </g>
</svg>
