<?xml version="1.0" encoding="UTF-8" standalone="no"?>
<!-- Created with Inkscape (http://www.inkscape.org/) -->
<svg height="16" id="svg7384" style="enable-background:new" version="1.1" width="16" xmlns="http://www.w3.org/2000/svg" xmlns:cc="http://creativecommons.org/ns#" xmlns:dc="http://purl.org/dc/elements/1.1/" xmlns:osb="http://www.openswatchbook.org/uri/2009/osb" xmlns:rdf="http://www.w3.org/1999/02/22-rdf-syntax-ns#">
 <metadata id="metadata90">
  <rdf:rdf>
   <cc:work rdf:about="">
    <dc:format>
     image/svg+xml
    </dc:format>
    <dc:type rdf:resource="http://purl.org/dc/dcmitype/StillImage">
    </dc:type>
    <dc:title>
     Paper Symbolic Icon Theme
    </dc:title>
   </cc:work>
  </rdf:rdf>
 </metadata>
 <title id="title8473">
  Paper Symbolic Icon Theme
 </title>
 <defs id="defs7386">
  <style id="current-color-scheme" type="text/css">
   .ColorScheme-Text { color:#555555; }
  </style>
  <filter id="filter7554" style="color-interpolation-filters:sRGB">
   <feblend id="feBlend7556" in2="BackgroundImage" mode="darken">
   </feblend>
  </filter>
 </defs>
 <g id="layer1" transform="translate(-484 -182)">
  <path class="ColorScheme-Text" d="m8 3a5 5 0 0 0 -4.7324 3.3984 4 4 0 0 0 -2.2676 3.6016 4 4 0 0 0 4 4 4 4 0 0 0 2.6582 -1.018 5 5 0 0 0 0.3418 0.018 5 5 0 0 0 2.113 -0.475 4 4 0 0 0 1.887 0.475 4 4 0 0 0 4 -4 4 4 0 0 0 -4 -4 4 4 0 0 0 -0.008 0 5 5 0 0 0 -3.992 -2z" id="path4148" style="fill:currentColor" transform="translate(484 182)">
  </path>
 </g>
</svg>
