<?xml version="1.0" encoding="UTF-8" standalone="no"?>
<!-- Created with Inkscape (http://www.inkscape.org/) -->
<svg height="16" id="svg7384" style="enable-background:new" version="1.1" width="16" xmlns="http://www.w3.org/2000/svg" xmlns:cc="http://creativecommons.org/ns#" xmlns:dc="http://purl.org/dc/elements/1.1/" xmlns:osb="http://www.openswatchbook.org/uri/2009/osb" xmlns:rdf="http://www.w3.org/1999/02/22-rdf-syntax-ns#">
 <metadata id="metadata90">
  <rdf:rdf>
   <cc:work rdf:about="">
    <dc:format>
     image/svg+xml
    </dc:format>
    <dc:type rdf:resource="http://purl.org/dc/dcmitype/StillImage">
    </dc:type>
    <dc:title>
     Paper Symbolic Icon Theme
    </dc:title>
   </cc:work>
  </rdf:rdf>
 </metadata>
 <title id="title8473">
  Paper Symbolic Icon Theme
 </title>
 <defs id="defs7386">
  <style id="current-color-scheme" type="text/css">
   .ColorScheme-Text { color:#555555; }
  </style>
  <filter color-interpolation-filters="sRGB" id="filter7554">
   <feblend id="feBlend7556" in2="BackgroundImage" mode="darken">
   </feblend>
  </filter>
 </defs>
 <g id="layer1" transform="translate(-527 -225)">
  <path class="ColorScheme-Text" d="m2.8125 1c-0.0237 0.005-0.0393 0.0248-0.0625 0.0312-0.0791 0.0194-0.1594 0.0463-0.25 0.0938-0.0994 0.0521-0.198 0.1189-0.2812 0.2188-0.009 0.0108-0.023 0.0201-0.0313 0.0312-0.057 0.0759-0.0919 0.1737-0.125 0.2812-0.009 0.0308-0.0243 0.0602-0.0313 0.0938-0.0208 0.0807-0.0327 0.166-0.0312 0.25v7 1 1h1v-1h1v-1-6h5v3h3v8 1h1v-1h1c0.001-0.145-0.001-0.738 0-1v-1-1-1-2c-0.002-2.4169-0.001-2.3463 0-2.4375v-0.5625l-4-4h-0.5625-6.4375s-0.0556 0.001-0.0938 0c-0.0312-0.001-0.0625-0.001-0.0937 0zm10.188 14v1h1v-1h-1zm-1 0h-1v1h1v-1zm-1 0v-1h-1v1h1zm-1 0h-1v1h1v-1zm-1 0v-1h-1v1h1zm-1 0h-1v1h1v-1zm-1 0v-1h-1v1h1zm-1 0h-1v1h1v-1zm-1 0v-1h-1v1h1zm-1 0h-1v1h1v-1zm-1 0v-1h-1v1h1zm0-1h1v-1h-1v1zm0-1v-1h-1v1h1zm0-1h1v-1h-1v1z" fill-rule="evenodd" id="rect12037" style="fill:currentColor" transform="translate(527 225)">
  </path>
 </g>
</svg>
