<?xml version="1.0" encoding="UTF-8" standalone="no"?>
<!-- Created with Inkscape (http://www.inkscape.org/) -->
<svg height="16" id="svg7384" style="enable-background:new" version="1.1" width="16" xmlns="http://www.w3.org/2000/svg" xmlns:cc="http://creativecommons.org/ns#" xmlns:dc="http://purl.org/dc/elements/1.1/" xmlns:osb="http://www.openswatchbook.org/uri/2009/osb" xmlns:rdf="http://www.w3.org/1999/02/22-rdf-syntax-ns#">
 <metadata id="metadata90">
  <rdf:rdf>
   <cc:work rdf:about="">
    <dc:format>
     image/svg+xml
    </dc:format>
    <dc:type rdf:resource="http://purl.org/dc/dcmitype/StillImage">
    </dc:type>
    <dc:title>
     Paper Symbolic Icon Theme
    </dc:title>
   </cc:work>
  </rdf:rdf>
 </metadata>
 <title id="title8473">
  Paper Symbolic Icon Theme
 </title>
 <defs id="defs7386">
  <style id="current-color-scheme" type="text/css">
   .ColorScheme-Text { color:#555555; }
  </style>
  <filter id="filter7554" style="color-interpolation-filters:sRGB">
   <feblend id="feBlend7556" in2="BackgroundImage" mode="darken">
   </feblend>
  </filter>
 </defs>
 <g id="layer1" transform="translate(-484 -182)">
  <g id="g4536" opacity=".5" transform="translate(476 174)">
   <path class="ColorScheme-Text" d="m28.707 21.016-0.707 0.707 1.408 1.408a2.5 2.5 0 0 0 -0.41 1.369 2.5 2.5 0 0 0 2 2.4492v4.1055a2.5 2.5 0 0 0 -2 2.4453 2.5 2.5 0 0 0 2.5 2.5 2.5 2.5 0 0 0 2.5 -2.5 2.5 2.5 0 0 0 -2 -2.4492v-4.1055a2.5 2.5 0 0 0 0.86914 -0.35352l1.541 1.541a2.5 2.5 0 0 0 -0.41 1.369 2.5 2.5 0 0 0 2.5 2.5 2.5 2.5 0 0 0 2.5 -2.5 2.5 2.5 0 0 0 -2.5 -2.5 2.5 2.5 0 0 0 -1.3867 0.42188l-1.533-1.535a2.5 2.5 0 0 0 0.42 -1.387 2.5 2.5 0 0 0 -2.5 -2.5 2.5 2.5 0 0 0 -1.3848 0.42188l-1.4062-1.4062z" fill-rule="evenodd" id="path4368" style="fill:currentColor" transform="translate(-17.999 -13)">
   </path>
  </g>
 </g>
</svg>
