<?xml version="1.0" encoding="UTF-8" standalone="no"?>
<!-- Created with Inkscape (http://www.inkscape.org/) -->
<svg height="16" id="svg7384" style="enable-background:new" version="1.1" width="16" xmlns="http://www.w3.org/2000/svg" xmlns:cc="http://creativecommons.org/ns#" xmlns:dc="http://purl.org/dc/elements/1.1/" xmlns:osb="http://www.openswatchbook.org/uri/2009/osb" xmlns:rdf="http://www.w3.org/1999/02/22-rdf-syntax-ns#">
 <metadata id="metadata90">
  <rdf:rdf>
   <cc:work rdf:about="">
    <dc:format>
     image/svg+xml
    </dc:format>
    <dc:type rdf:resource="http://purl.org/dc/dcmitype/StillImage">
    </dc:type>
    <dc:title>
     Paper Symbolic Icon Theme
    </dc:title>
   </cc:work>
  </rdf:rdf>
 </metadata>
 <title id="title8473">
  Paper Symbolic Icon Theme
 </title>
 <defs id="defs7386">
  <style id="current-color-scheme" type="text/css">
   .ColorScheme-Text { color:#555555; }
  </style>
  <filter id="filter7554" style="color-interpolation-filters:sRGB">
   <feblend id="feBlend7556" in2="BackgroundImage" mode="darken">
   </feblend>
  </filter>
  <clippath clippathunits="userSpaceOnUse" id="clipPath4186">
   <circle cx="286" cy="26" fill="url(#linearGradient4190)" id="path4188" r="10" style="color:#000000;enable-background:accumulate">
   </circle>
  </clippath>
 </defs>
 <g id="layer2" transform="translate(-424,-428)">
  <circle clip-path="url(#clipPath4186)" cx="286" cy="26" id="path4240" opacity="0" r="10" stroke-width=".45455" style="color:#000000;enable-background:accumulate" transform="matrix(2 0 0 2 -182.17 393.41)">
  </circle>
  <circle clip-path="url(#clipPath4186)" cx="286" cy="26" id="path4242" opacity="0" r="10" stroke-width=".90909" style="color:#000000;enable-background:accumulate" transform="matrix(2 0 0 2 -182.17 393.41)">
  </circle>
  <path class="ColorScheme-Text" d="m8 1a7 7 0 0 0 -7 7 7 7 0 0 0 7 7 7 7 0 0 0 7 -7 7 7 0 0 0 -7 -7zm-4 3h2v0.0059l0.002-0.002 1.998 2.9961 2-3h0.002 1.998v8h-2v-4l-2 2-2-2v4h-2v-8z" id="path4154" style="fill:currentColor" transform="translate(424,428)">
  </path>
 </g>
</svg>
