<?xml version="1.0" encoding="UTF-8" standalone="no"?>
<!-- Created with Inkscape (http://www.inkscape.org/) -->
<svg height="16" id="svg4355" version="1.1" width="16" xmlns="http://www.w3.org/2000/svg" xmlns:cc="http://creativecommons.org/ns#" xmlns:dc="http://purl.org/dc/elements/1.1/" xmlns:rdf="http://www.w3.org/1999/02/22-rdf-syntax-ns#">
 <defs id="defs4357">
  <style id="current-color-scheme" type="text/css">
   .ColorScheme-Text {
        color:#4d4d4d;
      }
      .ColorScheme-Background {
        color:#eff0f1;
      }
      .ColorScheme-Highlight {
        color:#3daee9;
      }
      .ColorScheme-ViewText {
        color:#31363b;
      }
      .ColorScheme-ViewBackground {
        color:#fcfcfc;
      }
      .ColorScheme-ViewHover {
        color:#93cee9;
      }
      .ColorScheme-ViewFocus{
        color:#3daee9;
      }
      .ColorScheme-ButtonText {
        color:#31363b;
      }
      .ColorScheme-ButtonBackground {
        color:#eff0f1;
      }
      .ColorScheme-ButtonHover {
        color:#93cee9;
      }
      .ColorScheme-ButtonFocus{
        color:#3daee9;
      }
  </style>
 </defs>
 <metadata id="metadata4360">
  <rdf:rdf>
   <cc:work rdf:about="">
    <dc:format>
     image/svg+xml
    </dc:format>
    <dc:type rdf:resource="http://purl.org/dc/dcmitype/StillImage">
    </dc:type>
    <dc:title>
    </dc:title>
   </cc:work>
  </rdf:rdf>
 </metadata>
 <g id="layer1" transform="translate(-544.57 -748.93)">
  <rect class="ColorScheme-Text" fill="currentColor" height="11" id="rect4035" style="color:#4d4d4d" width="0" x="507.15" y="747.55">
  </rect>
  <rect class="ColorScheme-Text" fill="currentColor" height="11" id="rect4035-5" style="color:#4d4d4d" width="0" x="525.19" y="745.5">
  </rect>
  <rect class="ColorScheme-Text" fill="currentColor" height="11" id="rect4035-8" style="color:#4d4d4d" width="0" x="507.15" y="747.55">
  </rect>
  <rect class="ColorScheme-Text" fill="currentColor" height="11" id="rect4035-59" style="color:#4d4d4d" width="0" x="507.15" y="747.55">
  </rect>
  <rect class="ColorScheme-Text" fill="currentColor" height="11" id="rect4035-6" style="color:#4d4d4d" width="0" x="499.85" y="742.72">
  </rect>
  <rect class="ColorScheme-Text" fill="currentColor" height="11" id="rect4035-5-1" style="color:#4d4d4d" width="0" x="517.89" y="740.67">
  </rect>
  <rect class="ColorScheme-Text" fill="currentColor" height="11" id="rect4035-8-3" style="color:#4d4d4d" width="0" x="499.85" y="742.72">
  </rect>
  <rect class="ColorScheme-Text" fill="currentColor" height="11" id="rect4035-59-4" style="color:#4d4d4d" width="0" x="499.85" y="742.72">
  </rect>
  <rect class="ColorScheme-Text" fill="currentColor" height="11" id="rect4035-1" style="color:#4d4d4d" width="0" x="505.86" y="746.94">
  </rect>
  <rect class="ColorScheme-Text" fill="currentColor" height="11" id="rect4035-5-0" style="color:#4d4d4d" width="0" x="523.9" y="744.88">
  </rect>
  <rect class="ColorScheme-Text" fill="currentColor" height="11" id="rect4035-8-1" style="color:#4d4d4d" width="0" x="505.86" y="746.94">
  </rect>
  <rect class="ColorScheme-Text" fill="currentColor" height="11" id="rect4035-59-1" style="color:#4d4d4d" width="0" x="505.86" y="746.94">
  </rect>
  <rect class="ColorScheme-Text" fill="currentColor" height="11" id="rect4035-7" style="color:#4d4d4d" width="0" x="507.15" y="747.55">
  </rect>
  <rect class="ColorScheme-Text" fill="currentColor" height="11" id="rect4035-5-7" style="color:#4d4d4d" width="0" x="525.19" y="745.5">
  </rect>
  <rect class="ColorScheme-Text" fill="currentColor" height="11" id="rect4035-8-16" style="color:#4d4d4d" width="0" x="507.15" y="747.55">
  </rect>
  <rect class="ColorScheme-Text" fill="currentColor" height="11" id="rect4035-59-18" style="color:#4d4d4d" width="0" x="507.15" y="747.55">
  </rect>
  <rect class="ColorScheme-Text" fill="currentColor" height="11" id="rect4035-6-5" style="color:#4d4d4d" width="0" x="499.85" y="742.72">
  </rect>
  <rect class="ColorScheme-Text" fill="currentColor" height="11" id="rect4035-5-1-8" style="color:#4d4d4d" width="0" x="517.89" y="740.67">
  </rect>
  <rect class="ColorScheme-Text" fill="currentColor" height="11" id="rect4035-8-3-8" style="color:#4d4d4d" width="0" x="499.85" y="742.72">
  </rect>
  <rect class="ColorScheme-Text" fill="currentColor" height="11" id="rect4035-59-4-7" style="color:#4d4d4d" width="0" x="499.85" y="742.72">
  </rect>
  <rect class="ColorScheme-Text" fill="currentColor" height="11" id="rect4035-1-7" style="color:#4d4d4d" width="0" x="505.86" y="746.94">
  </rect>
  <rect class="ColorScheme-Text" fill="currentColor" height="11" id="rect4035-5-0-8" style="color:#4d4d4d" width="0" x="523.9" y="744.88">
  </rect>
  <rect class="ColorScheme-Text" fill="currentColor" height="11" id="rect4035-8-1-0" style="color:#4d4d4d" width="0" x="505.86" y="746.94">
  </rect>
  <rect class="ColorScheme-Text" fill="currentColor" height="11" id="rect4035-59-1-3" style="color:#4d4d4d" width="0" x="505.86" y="746.94">
  </rect>
  <rect class="ColorScheme-Text" fill="currentColor" height="11" id="rect4035-0" style="color:#4d4d4d" width="0" x="504.62" y="750.93">
  </rect>
  <rect class="ColorScheme-Text" fill="currentColor" height="11" id="rect4035-5-5" style="color:#4d4d4d" width="0" x="522.66" y="748.88">
  </rect>
  <rect class="ColorScheme-Text" fill="currentColor" height="11" id="rect4035-8-6" style="color:#4d4d4d" width="0" x="504.62" y="750.93">
  </rect>
  <rect class="ColorScheme-Text" fill="currentColor" height="11" id="rect4035-59-11" style="color:#4d4d4d" width="0" x="504.62" y="750.93">
  </rect>
  <rect class="ColorScheme-Text" fill="currentColor" height="11" id="rect4035-9" style="color:#4d4d4d" width="0" x="488.63" y="747.3">
  </rect>
  <rect class="ColorScheme-Text" fill="currentColor" height="11" id="rect4035-5-8" style="color:#4d4d4d" width="0" x="506.67" y="745.25">
  </rect>
  <rect class="ColorScheme-Text" fill="currentColor" height="11" id="rect4035-8-0" style="color:#4d4d4d" width="0" x="488.63" y="747.3">
  </rect>
  <rect class="ColorScheme-Text" fill="currentColor" height="11" id="rect4035-59-1-8" style="color:#4d4d4d" width="0" x="488.63" y="747.3">
  </rect>
  <rect class="ColorScheme-Text" fill="currentColor" height="11" id="rect4035-3" style="color:#4d4d4d" width="0" x="507.15" y="747.55">
  </rect>
  <rect class="ColorScheme-Text" fill="currentColor" height="11" id="rect4035-5-2" style="color:#4d4d4d" width="0" x="525.19" y="745.5">
  </rect>
  <rect class="ColorScheme-Text" fill="currentColor" height="11" id="rect4035-8-7" style="color:#4d4d4d" width="0" x="507.15" y="747.55">
  </rect>
  <rect class="ColorScheme-Text" fill="currentColor" height="11" id="rect4035-59-43" style="color:#4d4d4d" width="0" x="507.15" y="747.55">
  </rect>
  <rect class="ColorScheme-Text" fill="currentColor" height="11" id="rect4035-6-2" style="color:#4d4d4d" width="0" x="499.85" y="742.72">
  </rect>
  <rect class="ColorScheme-Text" fill="currentColor" height="11" id="rect4035-5-1-6" style="color:#4d4d4d" width="0" x="517.89" y="740.67">
  </rect>
  <rect class="ColorScheme-Text" fill="currentColor" height="11" id="rect4035-8-3-4" style="color:#4d4d4d" width="0" x="499.85" y="742.72">
  </rect>
  <rect class="ColorScheme-Text" fill="currentColor" height="11" id="rect4035-59-4-8" style="color:#4d4d4d" width="0" x="499.85" y="742.72">
  </rect>
  <rect class="ColorScheme-Text" fill="currentColor" height="11" id="rect4035-1-8" style="color:#4d4d4d" width="0" x="505.86" y="746.94">
  </rect>
  <rect class="ColorScheme-Text" fill="currentColor" height="11" id="rect4035-5-0-0" style="color:#4d4d4d" width="0" x="523.9" y="744.88">
  </rect>
  <rect class="ColorScheme-Text" fill="currentColor" height="11" id="rect4035-8-1-3" style="color:#4d4d4d" width="0" x="505.86" y="746.94">
  </rect>
  <rect class="ColorScheme-Text" fill="currentColor" height="11" id="rect4035-59-1-1" style="color:#4d4d4d" width="0" x="505.86" y="746.94">
  </rect>
  <path class="ColorScheme-Text" d="m558.57 759.93a3 3 0 0 0 -2 -2.8242v-7.1758h-2v7.1738a3 3 0 0 0 -2 2.8262 3 3 0 0 0 2 2.8242v1.1758h2v-1.1738a3 3 0 0 0 2 -2.8262zm-6-5a3 3 0 0 0 -2 -2.8242v-2.1758h-2v2.1738a3 3 0 0 0 -2 2.8262 3 3 0 0 0 2 2.8242v6.1758h2v-6.1738a3 3 0 0 0 2 -2.8262z" id="rect4194" style="fill:currentColor">
  </path>
 </g>
</svg>
