<?xml version="1.0" encoding="UTF-8" standalone="no"?>
<!-- Created with Inkscape (http://www.inkscape.org/) -->
<svg height="16" id="svg3049" inkscape:export-filename="/home/uri/.kde/share/icons/NITRUX-KDE/16x16/actions/view-right-new.png" inkscape:export-xdpi="30" inkscape:export-ydpi="30" inkscape:version="0.91 r13725" sodipodi:docname="automated-tasks.svg" version="1.1" width="16" xmlns="http://www.w3.org/2000/svg" xmlns:cc="http://creativecommons.org/ns#" xmlns:dc="http://purl.org/dc/elements/1.1/" xmlns:inkscape="http://www.inkscape.org/namespaces/inkscape" xmlns:rdf="http://www.w3.org/1999/02/22-rdf-syntax-ns#" xmlns:sodipodi="http://sodipodi.sourceforge.net/DTD/sodipodi-0.dtd" xmlns:svg="http://www.w3.org/2000/svg">
 <defs id="defs3051">
  <style id="current-color-scheme" type="text/css">
   .ColorScheme-Text {
        color:#4d4d4d;
      }
      .ColorScheme-Background {
        color:#eff0f1;
      }
      .ColorScheme-Highlight {
        color:#3daee9;
      }
      .ColorScheme-ViewText {
        color:#31363b;
      }
      .ColorScheme-ViewBackground {
        color:#fcfcfc;
      }
      .ColorScheme-ViewHover {
        color:#93cee9;
      }
      .ColorScheme-ViewFocus{
        color:#3daee9;
      }
      .ColorScheme-ButtonText {
        color:#31363b;
      }
      .ColorScheme-ButtonBackground {
        color:#eff0f1;
      }
      .ColorScheme-ButtonHover {
        color:#93cee9;
      }
      .ColorScheme-ButtonFocus{
        color:#3daee9;
      }
  </style>
 </defs>
 <sodipodi:namedview bordercolor="#666666" borderlayer="true" borderopacity="1.0" fit-margin-bottom="0" fit-margin-left="0" fit-margin-right="0" fit-margin-top="0" id="base" inkscape:current-layer="layer1" inkscape:cx="-5.8914334" inkscape:cy="6.6005824" inkscape:document-units="px" inkscape:object-nodes="true" inkscape:pageopacity="0.0" inkscape:pageshadow="2" inkscape:showpageshadow="false" inkscape:snap-bbox="true" inkscape:snap-global="true" inkscape:window-height="847" inkscape:window-maximized="1" inkscape:window-width="1600" inkscape:window-x="0" inkscape:window-y="30" inkscape:zoom="24.48" pagecolor="#000000" showgrid="false" showguides="false">
  <inkscape:grid id="grid4085" type="xygrid">
  </inkscape:grid>
  <sodipodi:guide id="guide4075" orientation="12,0" position="2.0000044,14.00003">
  </sodipodi:guide>
  <sodipodi:guide id="guide4077" orientation="0,12" position="-11,2">
  </sodipodi:guide>
  <sodipodi:guide id="guide4079" orientation="-12,0" position="14.000004,2.0000296">
  </sodipodi:guide>
  <sodipodi:guide id="guide4081" orientation="0,-12" position="14.000004,14.00003">
  </sodipodi:guide>
 </sodipodi:namedview>
 <metadata id="metadata3054">
  <rdf:rdf>
   <cc:work rdf:about="">
    <dc:format>
     image/svg+xml
    </dc:format>
    <dc:type rdf:resource="http://purl.org/dc/dcmitype/StillImage">
    </dc:type>
    <dc:title>
    </dc:title>
   </cc:work>
  </rdf:rdf>
 </metadata>
 <g id="layer1" inkscape:groupmode="layer" inkscape:label="Capa 1" transform="translate(-421.71429,-531.79074)">
  <path class="ColorScheme-Text" d="M 8 0 A 1 1 0 0 0 7 1 A 1 1 0 0 0 8 2 A 1 1 0 0 0 9 1 A 1 1 0 0 0 8 0 z M 8 2 L 2.4003906 2 C 1.6247606 2 1 2.8941225 1 3.6328125 L 1 10.300781 C 1 11.039481 1.6247606 12 2.4003906 12 L 6.5996094 12 L 6.5996094 13 L 3.8007812 13 L 3.8007812 15 L 12.199219 15 L 12.199219 13 L 9.4003906 13 L 9.4003906 12 L 13.599609 12 C 14.375239 12 15 11.039481 15 10.300781 L 15 3.6328125 C 15 2.8941225 14.375239 2 13.599609 2 L 8 2 z M 3.5 4 L 12.5 4 C 13.331 4 14 4.446 14 5 C 14 5.554 13.331 6 12.5 6 L 3.5 6 C 2.669 6 2 5.554 2 5 C 2 4.446 2.669 4 3.5 4 z " id="path4144" style="fill:currentColor" transform="translate(421.71429,531.79074)">
  </path>
 </g>
</svg>
