<?xml version="1.0" encoding="UTF-8" standalone="no"?>
<!-- Created with Inkscape (http://www.inkscape.org/) -->
<svg height="16" id="svg4355" version="1.1" width="16" xmlns="http://www.w3.org/2000/svg" xmlns:cc="http://creativecommons.org/ns#" xmlns:dc="http://purl.org/dc/elements/1.1/" xmlns:rdf="http://www.w3.org/1999/02/22-rdf-syntax-ns#">
 <defs id="defs4357">
  <style id="current-color-scheme" type="text/css">
   .ColorScheme-Text {
        color:#4d4d4d;
      }
      .ColorScheme-Background {
        color:#eff0f1;
      }
      .ColorScheme-Highlight {
        color:#3daee9;
      }
      .ColorScheme-ViewText {
        color:#31363b;
      }
      .ColorScheme-ViewBackground {
        color:#fcfcfc;
      }
      .ColorScheme-ViewHover {
        color:#93cee9;
      }
      .ColorScheme-ViewFocus{
        color:#3daee9;
      }
      .ColorScheme-ButtonText {
        color:#31363b;
      }
      .ColorScheme-ButtonBackground {
        color:#eff0f1;
      }
      .ColorScheme-ButtonHover {
        color:#93cee9;
      }
      .ColorScheme-ButtonFocus{
        color:#3daee9;
      }
  </style>
 </defs>
 <metadata id="metadata4360">
  <rdf:rdf>
   <cc:work rdf:about="">
    <dc:format>
     image/svg+xml
    </dc:format>
    <dc:type rdf:resource="http://purl.org/dc/dcmitype/StillImage">
    </dc:type>
    <dc:title>
    </dc:title>
   </cc:work>
  </rdf:rdf>
 </metadata>
 <g id="layer1" transform="translate(-544.57 -748.93)">
  <rect class="ColorScheme-Text" fill="currentColor" height="11" id="rect4035" style="color:#4d4d4d" width="0" x="507.15" y="747.55">
  </rect>
  <rect class="ColorScheme-Text" fill="currentColor" height="11" id="rect4035-5" style="color:#4d4d4d" width="0" x="525.19" y="745.5">
  </rect>
  <rect class="ColorScheme-Text" fill="currentColor" height="11" id="rect4035-8" style="color:#4d4d4d" width="0" x="507.15" y="747.55">
  </rect>
  <rect class="ColorScheme-Text" fill="currentColor" height="11" id="rect4035-59" style="color:#4d4d4d" width="0" x="507.15" y="747.55">
  </rect>
  <rect class="ColorScheme-Text" fill="currentColor" height="11" id="rect4035-6" style="color:#4d4d4d" width="0" x="499.85" y="742.72">
  </rect>
  <rect class="ColorScheme-Text" fill="currentColor" height="11" id="rect4035-5-1" style="color:#4d4d4d" width="0" x="517.89" y="740.67">
  </rect>
  <rect class="ColorScheme-Text" fill="currentColor" height="11" id="rect4035-8-3" style="color:#4d4d4d" width="0" x="499.85" y="742.72">
  </rect>
  <rect class="ColorScheme-Text" fill="currentColor" height="11" id="rect4035-59-4" style="color:#4d4d4d" width="0" x="499.85" y="742.72">
  </rect>
  <rect class="ColorScheme-Text" fill="currentColor" height="11" id="rect4035-1" style="color:#4d4d4d" width="0" x="505.86" y="746.94">
  </rect>
  <rect class="ColorScheme-Text" fill="currentColor" height="11" id="rect4035-5-0" style="color:#4d4d4d" width="0" x="523.9" y="744.88">
  </rect>
  <rect class="ColorScheme-Text" fill="currentColor" height="11" id="rect4035-8-1" style="color:#4d4d4d" width="0" x="505.86" y="746.94">
  </rect>
  <rect class="ColorScheme-Text" fill="currentColor" height="11" id="rect4035-59-1" style="color:#4d4d4d" width="0" x="505.86" y="746.94">
  </rect>
  <rect class="ColorScheme-Text" fill="currentColor" height="11" id="rect4035-7" style="color:#4d4d4d" width="0" x="507.15" y="747.55">
  </rect>
  <rect class="ColorScheme-Text" fill="currentColor" height="11" id="rect4035-5-7" style="color:#4d4d4d" width="0" x="525.19" y="745.5">
  </rect>
  <rect class="ColorScheme-Text" fill="currentColor" height="11" id="rect4035-8-16" style="color:#4d4d4d" width="0" x="507.15" y="747.55">
  </rect>
  <rect class="ColorScheme-Text" fill="currentColor" height="11" id="rect4035-59-18" style="color:#4d4d4d" width="0" x="507.15" y="747.55">
  </rect>
  <rect class="ColorScheme-Text" fill="currentColor" height="11" id="rect4035-6-5" style="color:#4d4d4d" width="0" x="499.85" y="742.72">
  </rect>
  <rect class="ColorScheme-Text" fill="currentColor" height="11" id="rect4035-5-1-8" style="color:#4d4d4d" width="0" x="517.89" y="740.67">
  </rect>
  <rect class="ColorScheme-Text" fill="currentColor" height="11" id="rect4035-8-3-8" style="color:#4d4d4d" width="0" x="499.85" y="742.72">
  </rect>
  <rect class="ColorScheme-Text" fill="currentColor" height="11" id="rect4035-59-4-7" style="color:#4d4d4d" width="0" x="499.85" y="742.72">
  </rect>
  <rect class="ColorScheme-Text" fill="currentColor" height="11" id="rect4035-1-7" style="color:#4d4d4d" width="0" x="505.86" y="746.94">
  </rect>
  <rect class="ColorScheme-Text" fill="currentColor" height="11" id="rect4035-5-0-8" style="color:#4d4d4d" width="0" x="523.9" y="744.88">
  </rect>
  <rect class="ColorScheme-Text" fill="currentColor" height="11" id="rect4035-8-1-0" style="color:#4d4d4d" width="0" x="505.86" y="746.94">
  </rect>
  <rect class="ColorScheme-Text" fill="currentColor" height="11" id="rect4035-59-1-3" style="color:#4d4d4d" width="0" x="505.86" y="746.94">
  </rect>
  <rect class="ColorScheme-Text" fill="currentColor" height="11" id="rect4035-0" style="color:#4d4d4d" width="0" x="504.62" y="750.93">
  </rect>
  <rect class="ColorScheme-Text" fill="currentColor" height="11" id="rect4035-5-5" style="color:#4d4d4d" width="0" x="522.66" y="748.88">
  </rect>
  <rect class="ColorScheme-Text" fill="currentColor" height="11" id="rect4035-8-6" style="color:#4d4d4d" width="0" x="504.62" y="750.93">
  </rect>
  <rect class="ColorScheme-Text" fill="currentColor" height="11" id="rect4035-59-11" style="color:#4d4d4d" width="0" x="504.62" y="750.93">
  </rect>
  <rect class="ColorScheme-Text" fill="currentColor" height="11" id="rect4035-9" style="color:#4d4d4d" width="0" x="488.63" y="747.3">
  </rect>
  <rect class="ColorScheme-Text" fill="currentColor" height="11" id="rect4035-5-8" style="color:#4d4d4d" width="0" x="506.67" y="745.25">
  </rect>
  <rect class="ColorScheme-Text" fill="currentColor" height="11" id="rect4035-8-0" style="color:#4d4d4d" width="0" x="488.63" y="747.3">
  </rect>
  <rect class="ColorScheme-Text" fill="currentColor" height="11" id="rect4035-59-1-8" style="color:#4d4d4d" width="0" x="488.63" y="747.3">
  </rect>
  <rect class="ColorScheme-Text" fill="currentColor" height="11" id="rect4035-3" style="color:#4d4d4d" width="0" x="507.15" y="747.55">
  </rect>
  <rect class="ColorScheme-Text" fill="currentColor" height="11" id="rect4035-5-2" style="color:#4d4d4d" width="0" x="525.19" y="745.5">
  </rect>
  <rect class="ColorScheme-Text" fill="currentColor" height="11" id="rect4035-8-7" style="color:#4d4d4d" width="0" x="507.15" y="747.55">
  </rect>
  <rect class="ColorScheme-Text" fill="currentColor" height="11" id="rect4035-59-43" style="color:#4d4d4d" width="0" x="507.15" y="747.55">
  </rect>
  <rect class="ColorScheme-Text" fill="currentColor" height="11" id="rect4035-6-2" style="color:#4d4d4d" width="0" x="499.85" y="742.72">
  </rect>
  <rect class="ColorScheme-Text" fill="currentColor" height="11" id="rect4035-5-1-6" style="color:#4d4d4d" width="0" x="517.89" y="740.67">
  </rect>
  <rect class="ColorScheme-Text" fill="currentColor" height="11" id="rect4035-8-3-4" style="color:#4d4d4d" width="0" x="499.85" y="742.72">
  </rect>
  <rect class="ColorScheme-Text" fill="currentColor" height="11" id="rect4035-59-4-8" style="color:#4d4d4d" width="0" x="499.85" y="742.72">
  </rect>
  <rect class="ColorScheme-Text" fill="currentColor" height="11" id="rect4035-1-8" style="color:#4d4d4d" width="0" x="505.86" y="746.94">
  </rect>
  <rect class="ColorScheme-Text" fill="currentColor" height="11" id="rect4035-5-0-0" style="color:#4d4d4d" width="0" x="523.9" y="744.88">
  </rect>
  <rect class="ColorScheme-Text" fill="currentColor" height="11" id="rect4035-8-1-3" style="color:#4d4d4d" width="0" x="505.86" y="746.94">
  </rect>
  <rect class="ColorScheme-Text" fill="currentColor" height="11" id="rect4035-59-1-1" style="color:#4d4d4d" width="0" x="505.86" y="746.94">
  </rect>
  <g id="layer1-6" opacity=".5" transform="translate(541.57 -284.43)">
   <rect height="11" id="rect4035-73" width="0" x="-37.468" y="1035">
   </rect>
   <rect height="11" id="rect4035-5-02" width="0" x="-19.427" y="1032.9">
   </rect>
   <rect height="11" id="rect4035-8-19" width="0" x="-37.468" y="1035">
   </rect>
   <rect height="11" id="rect4035-59-2" width="0" x="-37.468" y="1035">
   </rect>
   <rect height="11" id="rect4035-6-1" width="0" x="-44.776" y="1030.1">
   </rect>
   <rect height="11" id="rect4035-5-1-7" width="0" x="-26.736" y="1028.1">
   </rect>
   <rect height="11" id="rect4035-8-3-3" width="0" x="-44.776" y="1030.1">
   </rect>
   <rect height="11" id="rect4035-59-4-86" width="0" x="-44.776" y="1030.1">
   </rect>
   <rect height="11" id="rect4035-1-9" width="0" x="-38.761" y="1034.4">
   </rect>
   <rect height="11" id="rect4035-5-0-1" width="0" x="-20.72" y="1032.3">
   </rect>
   <rect height="11" id="rect4035-8-1-31" width="0" x="-38.761" y="1034.4">
   </rect>
   <rect height="11" id="rect4035-59-1-4" width="0" x="-38.761" y="1034.4">
   </rect>
   <rect height="11" id="rect4035-0-7" width="0" x="-40" y="1038.4">
   </rect>
   <rect height="11" id="rect4035-5-5-3" width="0" x="-21.959" y="1036.3">
   </rect>
   <rect height="11" id="rect4035-8-6-9" width="0" x="-40" y="1038.4">
   </rect>
   <rect height="11" id="rect4035-59-11-8" width="0" x="-40" y="1038.4">
   </rect>
   <rect height="11" id="rect4035-9-7" width="0" x="-55.988" y="1034.7">
   </rect>
   <rect height="11" id="rect4035-5-8-0" width="0" x="-37.947" y="1032.7">
   </rect>
   <rect height="11" id="rect4035-8-0-9" width="0" x="-55.988" y="1034.7">
   </rect>
   <rect height="11" id="rect4035-59-1-8-7" width="0" x="-55.988" y="1034.7">
   </rect>
   <path class="ColorScheme-Text" d="m4 4v16h16v-16h-16zm15 1v14h-14l3.4688-3.469c-0.9049-0.905-1.4688-2.15-1.4688-3.531 0-2.7614 2.2386-5 5-5 1.3807 0 2.6264 0.56393 3.5312 1.4688l3.469-3.4688zm-3.4688 3.4688-7.0625 7.0625c0.9051 0.905 2.1505 1.469 3.5315 1.469 2.7614 0 5-2.2386 5-5 0-1.3807-0.56393-2.6264-1.4688-3.5312z" id="path4059" style="fill:currentColor" transform="translate(-1 1029.4)">
   </path>
  </g>
 </g>
</svg>
