<?xml version="1.0" encoding="UTF-8" standalone="no"?>
<!-- Created with Inkscape (http://www.inkscape.org/) -->
<svg height="16" id="svg3049" version="1.1" width="16" xmlns="http://www.w3.org/2000/svg" xmlns:cc="http://creativecommons.org/ns#" xmlns:dc="http://purl.org/dc/elements/1.1/" xmlns:rdf="http://www.w3.org/1999/02/22-rdf-syntax-ns#" xmlns:xlink="http://www.w3.org/1999/xlink">
 <defs id="defs3051">
  <style id="current-color-scheme" type="text/css">
   .ColorScheme-Text {
        color:#4d4d4d;
      }
      .ColorScheme-Background {
        color:#eff0f1;
      }
      .ColorScheme-Highlight {
        color:#3daee9;
      }
      .ColorScheme-ViewText {
        color:#31363b;
      }
      .ColorScheme-ViewBackground {
        color:#fcfcfc;
      }
      .ColorScheme-ViewHover {
        color:#93cee9;
      }
      .ColorScheme-ViewFocus{
        color:#3daee9;
      }
      .ColorScheme-ButtonText {
        color:#31363b;
      }
      .ColorScheme-ButtonBackground {
        color:#eff0f1;
      }
      .ColorScheme-ButtonHover {
        color:#93cee9;
      }
      .ColorScheme-ButtonFocus{
        color:#3daee9;
      }
  </style>
  <lineargradient gradientunits="userSpaceOnUse" id="linearGradient4202" x1="8" x2="24" xlink:href="#linearGradient4288" y1="24" y2="8">
  </lineargradient>
  <lineargradient id="linearGradient4288">
   <stop id="stop4290" offset="0" stop-color="#e81877">
   </stop>
   <stop id="stop4294" offset=".31250" stop-color="#dd1d8c">
   </stop>
   <stop id="stop4296" offset=".56250" stop-color="#6d57b1">
   </stop>
   <stop id="stop4298" offset="0.75" stop-color="#2a78c1">
   </stop>
   <stop id="stop4292" offset="1" stop-color="#018dcb">
   </stop>
  </lineargradient>
  <lineargradient gradienttransform="matrix(1 0 0 -1 384.57 547.8)" gradientunits="userSpaceOnUse" id="linearGradient4204" x1="8" x2="24" xlink:href="#linearGradient4300" y1="24" y2="8">
  </lineargradient>
  <lineargradient id="linearGradient4300">
   <stop id="stop4302" offset="0" stop-color="#e51561">
   </stop>
   <stop id="stop4304" offset=".31250" stop-color="#e4156c">
   </stop>
   <stop id="stop4306" offset=".56250" stop-color="#e71e2c">
   </stop>
   <stop id="stop4308" offset="0.75" stop-color="#e8301e">
   </stop>
   <stop id="stop4310" offset="1" stop-color="#e6320e">
   </stop>
  </lineargradient>
  <lineargradient gradienttransform="matrix(-1 0 0 1 432.57 499.8)" gradientunits="userSpaceOnUse" id="linearGradient4206" x1="8" x2="24" xlink:href="#linearGradient4328" y1="24" y2="8">
  </lineargradient>
  <lineargradient id="linearGradient4328">
   <stop id="stop4330" offset="0" stop-color="#bec900">
   </stop>
   <stop id="stop4332" offset=".31250" stop-color="#9ec80a">
   </stop>
   <stop id="stop4334" offset=".56250" stop-color="#71b93d">
   </stop>
   <stop id="stop4336" offset="0.75" stop-color="#35a48f">
   </stop>
   <stop id="stop4338" offset="1" stop-color="#018fca">
   </stop>
  </lineargradient>
  <lineargradient gradienttransform="matrix(-1 0 0 -1 432.57 547.8)" gradientunits="userSpaceOnUse" id="linearGradient4208" x1="8" x2="24" xlink:href="#linearGradient4316" y1="24" y2="8">
  </lineargradient>
  <lineargradient id="linearGradient4316">
   <stop id="stop4318" offset="0" stop-color="#c1cc00">
   </stop>
   <stop id="stop4320" offset=".31250" stop-color="#dfcd00">
   </stop>
   <stop id="stop4322" offset=".56250" stop-color="#f0cc00">
   </stop>
   <stop id="stop4324" offset="0.75" stop-color="#fd8c08">
   </stop>
   <stop id="stop4326" offset="1" stop-color="#f25c13">
   </stop>
  </lineargradient>
  <filter height="1.12" id="filter4390" style="color-interpolation-filters:sRGB" width="1.12" x="-0.06" y="-0.06">
   <fegaussianblur id="feGaussianBlur4392" stddeviation="0.4">
   </fegaussianblur>
  </filter>
  <filter height="1.12" id="filter4412" style="color-interpolation-filters:sRGB" width="1.12" x="-0.06" y="-0.06">
   <fegaussianblur id="feGaussianBlur4414" stddeviation="0.4">
   </fegaussianblur>
  </filter>
  <filter height="1.12" id="filter4482" style="color-interpolation-filters:sRGB" width="1.12" x="-0.06" y="-0.06">
   <fegaussianblur id="feGaussianBlur4484" stddeviation="0.4">
   </fegaussianblur>
  </filter>
  <filter height="1.12" id="filter4520" style="color-interpolation-filters:sRGB" width="1.12" x="-0.06" y="-0.06">
   <fegaussianblur id="feGaussianBlur4522" stddeviation="0.4">
   </fegaussianblur>
  </filter>
  <clippath clippathunits="userSpaceOnUse" id="clipPath4534">
   <rect fill="url(#linearGradient4538)" height="32" id="rect4536" ry="16" width="32" x="8" y="8">
   </rect>
  </clippath>
  <clippath clippathunits="userSpaceOnUse" id="clipPath4584">
   <rect fill="url(#linearGradient4588)" height="32" id="rect4586" ry="16" width="32" x="392.57" y="507.8">
   </rect>
  </clippath>
  <clippath clippathunits="userSpaceOnUse" id="clipPath4550">
   <rect fill="url(#linearGradient4554)" height="32" id="rect4552" ry="16" width="32" x="392.57" y="507.8">
   </rect>
  </clippath>
  <clippath clippathunits="userSpaceOnUse" id="clipPath4568">
   <rect fill="url(#linearGradient4572)" height="32" id="rect4570" ry="16" width="32" x="392.57" y="507.8">
   </rect>
  </clippath>
  <clippath clippathunits="userSpaceOnUse" id="clipPath4528">
   <rect fill="url(#linearGradient4532)" height="32" id="rect4530" ry="16" width="32" x="8" y="8">
   </rect>
  </clippath>
  <clippath clippathunits="userSpaceOnUse" id="clipPath4578">
   <rect fill="url(#linearGradient4582)" height="32" id="rect4580" ry="16" width="32" x="392.57" y="507.8">
   </rect>
  </clippath>
  <clippath clippathunits="userSpaceOnUse" id="clipPath4562">
   <rect fill="url(#linearGradient4566)" height="32" id="rect4564" ry="16" width="32" x="392.57" y="507.8">
   </rect>
  </clippath>
  <clippath clippathunits="userSpaceOnUse" id="clipPath4544">
   <rect fill="url(#linearGradient4548)" height="32" id="rect4546" ry="16" width="32" x="392.57" y="507.8">
   </rect>
  </clippath>
  <clippath clippathunits="userSpaceOnUse" id="clipPath4528-1">
   <rect fill="url(#linearGradient4532)" height="32" id="rect4530-7" ry="16" width="32" x="8" y="8">
   </rect>
  </clippath>
  <clippath clippathunits="userSpaceOnUse" id="clipPath4578-8">
   <rect fill="url(#linearGradient4582)" height="32" id="rect4580-7" ry="16" width="32" x="392.57" y="507.8">
   </rect>
  </clippath>
  <clippath clippathunits="userSpaceOnUse" id="clipPath4562-8">
   <rect fill="url(#linearGradient4566)" height="32" id="rect4564-8" ry="16" width="32" x="392.57" y="507.8">
   </rect>
  </clippath>
  <clippath clippathunits="userSpaceOnUse" id="clipPath4544-1">
   <rect fill="url(#linearGradient4548)" height="32" id="rect4546-1" ry="16" width="32" x="392.57" y="507.8">
   </rect>
  </clippath>
 </defs>
 <metadata id="metadata3054">
  <rdf:rdf>
   <cc:work rdf:about="">
    <dc:format>
     image/svg+xml
    </dc:format>
    <dc:type rdf:resource="http://purl.org/dc/dcmitype/StillImage">
    </dc:type>
    <dc:title>
    </dc:title>
   </cc:work>
  </rdf:rdf>
 </metadata>
 <g id="layer1" transform="translate(-421.71 -531.79)">
  <g id="layer1-0" transform="matrix(.75 0 0 0.75 421.46 -241.23)">
   <g id="layer1-6" transform="translate(6.2938e-7 -.00020410)">
    <g id="g4181" transform="matrix(1.457 0 0 1.457 -5.0271 -475.92)">
     <g id="g4612" transform="matrix(.38637 .10353 -.10353 .38637 -92.632 796.68)">
      <path clip-path="url(#clipPath4534)" d="m24 8c-8.864 0-16 7.136-16 16h16v-16z" fill="url(#linearGradient4202)" id="rect4263" transform="translate(384.57 499.8)">
      </path>
      <path clip-path="url(#clipPath4584)" d="m408.57 539.8c-8.864 0-16-7.136-16-16h16v16z" fill="url(#linearGradient4204)" id="path4276">
      </path>
      <path clip-path="url(#clipPath4550)" d="m408.57 507.8c8.864 0 16 7.136 16 16h-16v-16z" fill="url(#linearGradient4206)" id="path4280">
      </path>
      <path clip-path="url(#clipPath4568)" d="m408.57 539.8c8.864 0 16-7.136 16-16h-16v16z" fill="url(#linearGradient4208)" id="path4282">
      </path>
     </g>
     <g id="g4590" opacity=".7" transform="matrix(.4 0 0 0.4 -152.43 831.84)">
      <path clip-path="url(#clipPath4528)" d="m24 8c-8.864 0-16 7.136-16 16h16v-16z" fill="url(#linearGradient4202)" filter="url(#filter4390)" id="path4340" transform="translate(384.57 499.8)">
      </path>
      <path clip-path="url(#clipPath4578)" d="m408.57 539.8c-8.864 0-16-7.136-16-16h16v16z" fill="url(#linearGradient4204)" filter="url(#filter4412)" id="path4394">
      </path>
      <path clip-path="url(#clipPath4562)" d="m408.57 539.8c8.864 0 16-7.136 16-16h-16v16z" fill="url(#linearGradient4208)" filter="url(#filter4482)" id="path4416">
      </path>
      <path clip-path="url(#clipPath4544)" d="m408.57 507.8c8.864 0 16 7.136 16 16h-16v-16z" fill="url(#linearGradient4206)" filter="url(#filter4520)" id="path4486">
      </path>
     </g>
     <path clip-path="url(#clipPath4528)" d="m24 8c-8.864 0-16 7.136-16 16h16v-16z" fill="url(#linearGradient4202)" id="path4320" opacity=".35" transform="matrix(.28284 .28284 -.28284 .28284 11 1027.8)">
     </path>
     <path clip-path="url(#clipPath4578)" d="m408.57 539.8c-8.864 0-16-7.136-16-16h16v16z" fill="url(#linearGradient4204)" id="path4322" opacity=".35" transform="matrix(.28284 .28284 -.28284 .28284 43.591 777.65)">
     </path>
     <path clip-path="url(#clipPath4562)" d="m408.57 539.8c8.864 0 16-7.136 16-16h-16v16z" fill="url(#linearGradient4208)" id="path4324" opacity=".35" transform="matrix(.28284 .28284 -.28284 .28284 43.591 777.65)">
     </path>
     <path clip-path="url(#clipPath4544)" d="m408.57 507.8c8.864 0 16 7.136 16 16h-16v-16z" fill="url(#linearGradient4206)" id="path4326" opacity=".35" transform="matrix(.28284 .28284 -.28284 .28284 43.591 777.65)">
     </path>
     <g id="g4594" transform="matrix(.10353 .38637 -.38637 .10353 171.08 829.27)">
      <path clip-path="url(#clipPath4528-1)" d="m24 8c-8.864 0-16 7.136-16 16h16v-16z" fill="url(#linearGradient4202)" id="path4340-7" opacity=".3" transform="translate(384.57 499.8)">
      </path>
      <path clip-path="url(#clipPath4578-8)" d="m408.57 539.8c-8.864 0-16-7.136-16-16h16v16z" fill="url(#linearGradient4204)" id="path4394-4" opacity=".3" transform="translate(-.0000058252 .000010323)">
      </path>
      <path clip-path="url(#clipPath4562-8)" d="m408.57 539.8c8.864 0 16-7.136 16-16h-16v16z" fill="url(#linearGradient4208)" id="path4416-6" opacity=".3" transform="translate(-.0000058252 .000010323)">
      </path>
      <path clip-path="url(#clipPath4544-1)" d="m408.57 507.8c8.864 0 16 7.136 16 16h-16v-16z" fill="url(#linearGradient4206)" id="path4486-5" opacity=".3" transform="translate(-.0000058601 .000010272)">
      </path>
     </g>
    </g>
   </g>
  </g>
 </g>
</svg>
