<?xml version="1.0" encoding="UTF-8" standalone="no"?>
<!-- Created with Inkscape (http://www.inkscape.org/) -->
<svg height="16" id="svg7384" style="enable-background:new" version="1.1" width="16" xmlns="http://www.w3.org/2000/svg" xmlns:cc="http://creativecommons.org/ns#" xmlns:dc="http://purl.org/dc/elements/1.1/" xmlns:osb="http://www.openswatchbook.org/uri/2009/osb" xmlns:rdf="http://www.w3.org/1999/02/22-rdf-syntax-ns#">
 <metadata id="metadata90">
  <rdf:rdf>
   <cc:work rdf:about="">
    <dc:format>
     image/svg+xml
    </dc:format>
    <dc:type rdf:resource="http://purl.org/dc/dcmitype/StillImage">
    </dc:type>
    <dc:title>
     Paper Symbolic Icon Theme
    </dc:title>
   </cc:work>
  </rdf:rdf>
 </metadata>
 <title id="title8473">
  Paper Symbolic Icon Theme
 </title>
 <defs id="defs7386">
  <style id="current-color-scheme" type="text/css">
   .ColorScheme-Text { color:#555555; }
  </style>
  <filter id="filter7554" style="color-interpolation-filters:sRGB">
   <feblend id="feBlend7556" in2="BackgroundImage" mode="darken">
   </feblend>
  </filter>
 </defs>
 <g id="layer9" transform="translate(-265 275)">
  <path class="ColorScheme-Text" d="m2.9688 2s-1.9688 0-1.9688 2v3 2 1c0 1.108 0.892 2 2 2h5l2 3.004 2-3.004h1s2 0 2-2v-6c0-2-2-2-2-2h-10.031zm3.6171 2.1719l1.4141 1.414 1.4141-1.414 1.4139 1.414-1.4139 1.4141 1.4139 1.4141-1.4139 1.414-1.4141-1.414-1.4141 1.414-1.414-1.414 1.414-1.4141-1.414-1.4141 1.414-1.414z" id="path4150" style="fill:currentColor" transform="translate(265 -275)">
  </path>
 </g>
</svg>
