<?xml version="1.0" encoding="UTF-8" standalone="no"?>
<!-- Created with Inkscape (http://www.inkscape.org/) -->
<svg height="16" id="svg7384" style="enable-background:new" version="1.1" width="16" xmlns="http://www.w3.org/2000/svg" xmlns:cc="http://creativecommons.org/ns#" xmlns:dc="http://purl.org/dc/elements/1.1/" xmlns:osb="http://www.openswatchbook.org/uri/2009/osb" xmlns:rdf="http://www.w3.org/1999/02/22-rdf-syntax-ns#">
 <defs>
  <style id="current-color-scheme" type="text/css">
   .ColorScheme-Text { color:#555555; }
  </style>
 </defs>
 <metadata id="metadata90">
  <rdf:rdf>
   <cc:work rdf:about="">
    <dc:format>
     image/svg+xml
    </dc:format>
    <dc:type rdf:resource="http://purl.org/dc/dcmitype/StillImage">
    </dc:type>
    <dc:title>
     Paper Symbolic Icon Theme
    </dc:title>
   </cc:work>
  </rdf:rdf>
 </metadata>
 <title id="title8473">
  Paper Symbolic Icon Theme
 </title>
 <g id="layer12" transform="translate(-546 99.01)">
  <path class="ColorScheme-Text" d="m3 1.0098s-1 0-1 1v8.9962 3.004c0 1 1 1 1 1h10s1 0 1-1v-1.002-2.998c0-3.0002-3-3.0002-3-3.0002l-1-0.0039v-2l-4.5 3 4.5 3.0001v-2.0001l1 0.0039s1 0 1 1.0002v3h-8v-9.9963h8v2.9961l2-0.0039v-3.9961c0-1-1-1-1-1h-10z" id="path7064" style="fill:currentColor" transform="translate(546 -99.01)">
  </path>
 </g>
</svg>
