<?xml version="1.0" encoding="UTF-8" standalone="no"?>
<!-- Created with Inkscape (http://www.inkscape.org/) -->
<svg height="16" id="svg3049" inkscape:export-filename="/home/uri/.kde/share/icons/NITRUX-KDE/16x16/actions/view-right-new.png" inkscape:export-xdpi="30" inkscape:export-ydpi="30" inkscape:version="0.91 r13725" sodipodi:docname="draw-bezier-curves.svg" version="1.1" width="16" xmlns="http://www.w3.org/2000/svg" xmlns:cc="http://creativecommons.org/ns#" xmlns:dc="http://purl.org/dc/elements/1.1/" xmlns:inkscape="http://www.inkscape.org/namespaces/inkscape" xmlns:rdf="http://www.w3.org/1999/02/22-rdf-syntax-ns#" xmlns:sodipodi="http://sodipodi.sourceforge.net/DTD/sodipodi-0.dtd" xmlns:svg="http://www.w3.org/2000/svg">
 <defs id="defs3051">
  <style id="current-color-scheme" type="text/css">
   .ColorScheme-Text {
        color:#4d4d4d;
      }
      .ColorScheme-Background {
        color:#eff0f1;
      }
      .ColorScheme-Highlight {
        color:#3daee9;
      }
      .ColorScheme-ViewText {
        color:#31363b;
      }
      .ColorScheme-ViewBackground {
        color:#fcfcfc;
      }
      .ColorScheme-ViewHover {
        color:#93cee9;
      }
      .ColorScheme-ViewFocus{
        color:#3daee9;
      }
      .ColorScheme-ButtonText {
        color:#31363b;
      }
      .ColorScheme-ButtonBackground {
        color:#eff0f1;
      }
      .ColorScheme-ButtonHover {
        color:#93cee9;
      }
      .ColorScheme-ButtonFocus{
        color:#3daee9;
      }
  </style>
 </defs>
 <sodipodi:namedview bordercolor="#666666" borderlayer="true" borderopacity="1.0" fit-margin-bottom="0" fit-margin-left="0" fit-margin-right="0" fit-margin-top="0" id="base" inkscape:current-layer="layer1" inkscape:cx="-11.108099" inkscape:cy="8.8330706" inkscape:document-units="px" inkscape:object-nodes="true" inkscape:pageopacity="0.0" inkscape:pageshadow="2" inkscape:showpageshadow="false" inkscape:snap-bbox="true" inkscape:snap-global="true" inkscape:window-height="847" inkscape:window-maximized="1" inkscape:window-width="1600" inkscape:window-x="0" inkscape:window-y="30" inkscape:zoom="24.411306" pagecolor="#000000" showgrid="false" showguides="false">
  <inkscape:grid id="grid4085" type="xygrid">
  </inkscape:grid>
  <sodipodi:guide id="guide4075" orientation="12,0" position="2.0000044,14.00003">
  </sodipodi:guide>
  <sodipodi:guide id="guide4077" orientation="0,12" position="2.0000044,2.0000296">
  </sodipodi:guide>
  <sodipodi:guide id="guide4079" orientation="-12,0" position="14.000004,2.0000296">
  </sodipodi:guide>
  <sodipodi:guide id="guide4081" orientation="0,-12" position="14.000004,14.00003">
  </sodipodi:guide>
 </sodipodi:namedview>
 <metadata id="metadata3054">
  <rdf:rdf>
   <cc:work rdf:about="">
    <dc:format>
     image/svg+xml
    </dc:format>
    <dc:type rdf:resource="http://purl.org/dc/dcmitype/StillImage">
    </dc:type>
    <dc:title>
    </dc:title>
   </cc:work>
  </rdf:rdf>
 </metadata>
 <g id="layer1" inkscape:groupmode="layer" inkscape:label="Capa 1" transform="translate(-421.71429,-531.79074)">
  <path class="ColorScheme-Text" d="M 12.5 1 A 2.5 2.5 0 0 0 10.050781 3 L 2 3 L 2 4 C 3.85517 4.95878 5.1650519 6.4794944 5.3574219 7.3027344 C 5.5659588 8.1951633 5.3336358 9.2145624 4.7089844 10.3125 A 2.5 2.5 0 0 0 3.5 10 A 2.5 2.5 0 0 0 1 12.5 A 2.5 2.5 0 0 0 3.5 15 A 2.5 2.5 0 0 0 5.9492188 13 L 9 13 L 9 14 L 9 15 L 14 15 L 14 10 L 9 10 L 9 11 L 9 12 L 5.9453125 12 A 2.5 2.5 0 0 0 5.5019531 11.005859 C 6.3543366 9.6604157 6.7107534 8.3809872 6.4257812 7.140625 C 6.1320226 5.8619857 5.2413533 4.8645012 3.96875 4 L 10.054688 4 A 2.5 2.5 0 0 0 12.5 6 A 2.5 2.5 0 0 0 15 3.5 A 2.5 2.5 0 0 0 12.5 1 z " id="path4139" style="fill:currentColor" transform="translate(421.71429,531.79074)">
  </path>
 </g>
</svg>
