<?xml version="1.0" encoding="UTF-8" standalone="no"?>
<!-- Created with Inkscape (http://www.inkscape.org/) -->
<svg height="16" id="svg3049" version="1.1" width="16" xmlns="http://www.w3.org/2000/svg" xmlns:cc="http://creativecommons.org/ns#" xmlns:dc="http://purl.org/dc/elements/1.1/" xmlns:rdf="http://www.w3.org/1999/02/22-rdf-syntax-ns#">
 <defs id="defs3051">
  <style id="current-color-scheme" type="text/css">
   .ColorScheme-Text {
        color:#4d4d4d;
      }
      .ColorScheme-Background {
        color:#eff0f1;
      }
      .ColorScheme-Highlight {
        color:#3daee9;
      }
      .ColorScheme-ViewText {
        color:#31363b;
      }
      .ColorScheme-ViewBackground {
        color:#fcfcfc;
      }
      .ColorScheme-ViewHover {
        color:#93cee9;
      }
      .ColorScheme-ViewFocus{
        color:#3daee9;
      }
      .ColorScheme-ButtonText {
        color:#31363b;
      }
      .ColorScheme-ButtonBackground {
        color:#eff0f1;
      }
      .ColorScheme-ButtonHover {
        color:#93cee9;
      }
      .ColorScheme-ButtonFocus{
        color:#3daee9;
      }
  </style>
 </defs>
 <metadata id="metadata3054">
  <rdf:rdf>
   <cc:work rdf:about="">
    <dc:format>
     image/svg+xml
    </dc:format>
    <dc:type rdf:resource="http://purl.org/dc/dcmitype/StillImage">
    </dc:type>
    <dc:title>
    </dc:title>
   </cc:work>
  </rdf:rdf>
 </metadata>
 <g id="layer1" transform="translate(-421.71 -531.79)">
  <rect class="ColorScheme-Text" fill="currentColor" height="11" id="rect4035" width="0" x="404.71" y="534.79">
  </rect>
  <rect class="ColorScheme-Text" fill="currentColor" height="11" id="rect4035-5" width="0" x="422.76" y="532.74">
  </rect>
  <rect class="ColorScheme-Text" fill="currentColor" height="11" id="rect4035-8" width="0" x="404.71" y="534.79">
  </rect>
  <rect class="ColorScheme-Text" fill="currentColor" height="11" id="rect4035-59" width="0" x="404.71" y="534.79">
  </rect>
  <path class="ColorScheme-Text" d="m14.574 1.0059a1.7502 7.8757 44.989 0 0 -6.5135 4.4629 1.7502 7.8757 44.989 0 0 -3.0996 3.5996c0.9415 0.2999 1.6748 1.0326 1.9746 1.9746a1.7502 7.8757 44.989 0 0 3.5975 -3.0996 1.7502 7.8757 44.989 0 0 4.332 -6.8067 1.7502 7.8757 44.989 0 0 -0.291 -0.1308zm-1.574 7.9941c-0.389 1.277-1.361 2.371-1.781 3.25-0.147 0.261-0.219 0.558-0.219 0.875 0 1.039 0.892 1.875 2 1.875s2-0.836 2-1.875c0-0.317-0.103-0.614-0.25-0.875-0.42-0.879-1.361-1.973-1.75-3.25zm-8.5 1.33v0.002c-3.4999 0.938-0.8751 3.154-3.5 4.668 3.4999 0 5.25-1.752 5.25-2.92 0-0.582 0.0594-1.653-1.75-1.75z" id="path88" style="fill:currentColor" transform="translate(421.71 531.79)">
  </path>
 </g>
</svg>
