<?xml version="1.0" encoding="UTF-8" standalone="no"?>
<!-- Created with Inkscape (http://www.inkscape.org/) -->
<svg height="16" id="svg7384" style="enable-background:new" version="1.1" width="16" xmlns="http://www.w3.org/2000/svg" xmlns:cc="http://creativecommons.org/ns#" xmlns:dc="http://purl.org/dc/elements/1.1/" xmlns:osb="http://www.openswatchbook.org/uri/2009/osb" xmlns:rdf="http://www.w3.org/1999/02/22-rdf-syntax-ns#">
 <defs>
  <style id="current-color-scheme" type="text/css">
   .ColorScheme-Text { color:#555555; }
  </style>
 </defs>
 <metadata id="metadata90">
  <rdf:rdf>
   <cc:work rdf:about="">
    <dc:format>
     image/svg+xml
    </dc:format>
    <dc:type rdf:resource="http://purl.org/dc/dcmitype/StillImage">
    </dc:type>
    <dc:title>
     Paper Symbolic Icon Theme
    </dc:title>
   </cc:work>
  </rdf:rdf>
 </metadata>
 <title id="title8473">
  Paper Symbolic Icon Theme
 </title>
 <g id="layer12" transform="translate(-565 39)">
  <rect height="2" id="rect10848" opacity=".5" width="6" x="568" y="-36">
  </rect>
  <rect height="2" id="rect4139" opacity=".5" width="6" x="570" y="-32">
  </rect>
  <rect height="2" id="rect4141" opacity=".5" width="6" x="572" y="-28">
  </rect>
  <path class="ColorScheme-Text" d="m565.09-38.781-0.0527 0.46484 0.35351 0.30469l0.11 0.011h1l0.41406-0.21875 0.0508-0.46484-0.35351-0.30469-0.11-0.012h-1zm3 0-0.0527 0.46484 0.35351 0.30469l0.11 0.011h1l0.41406-0.21875 0.0508-0.46484-0.35351-0.30469-0.11-0.012h-1zm3 0-0.0527 0.46484 0.35351 0.30469l0.11 0.011h1l0.41406-0.21875 0.0508-0.46484-0.35351-0.30469-0.11-0.012h-1zm3 0-0.0527 0.46484 0.35351 0.30469l0.11 0.011h1l0.41406-0.21875 0.0508-0.46484-0.35351-0.30469-0.11-0.012h-1zm3 0-0.0527 0.46484 0.35351 0.30469l0.11 0.011h1l0.41406-0.21875 0.0508-0.46484-0.35351-0.30469-0.11-0.012h-1zm2.91 1.281l0.21875 0.41406 0.46484 0.05078 0.30469-0.35352 0.01-0.111-0.5-1zm-14.99 0.889-0.01 0.111v1l0.21875 0.41406 0.46484 0.05078 0.30469-0.35352 0.01-0.111v-1l-0.21875-0.41406-0.46289-0.05078zm15 1l-0.01 0.111v1l0.21875 0.41406 0.46484 0.05078 0.30469-0.35352 0.01-0.111v-1l-0.21875-0.41406-0.46289-0.05078zm-15 2l-0.01 0.111v1l0.21875 0.41406 0.46484 0.05078 0.30469-0.35352 0.01-0.111v-1l-0.21875-0.41406-0.46289-0.05078zm15 1l-0.01 0.111v1l0.21875 0.41406 0.46484 0.05078 0.30469-0.35352 0.01-0.111v-1l-0.21875-0.41406-0.46289-0.05078zm-15 2l-0.01 0.111v1l0.21875 0.41406 0.46484 0.05078 0.30469-0.35352 0.01-0.111v-1l-0.21875-0.41406-0.46289-0.05078zm15 1l-0.01 0.111v1l0.21875 0.41406 0.46484 0.05078 0.30469-0.35352 0.01-0.111v-1l-0.21875-0.41406-0.46289-0.05078zm-15 2l-0.01 0.111v1l0.21875 0.41406 0.46484 0.05078 0.30469-0.35352 0.01-0.111v-1l-0.21875-0.41406-0.46289-0.05078zm15 1l-0.01 0.111v1l0.21875 0.41406 0.46484 0.05078 0.30469-0.35352 0.01-0.111v-1l-0.21875-0.41406-0.46289-0.05078zm-15 2l-0.01 0.111 0.5 1 0.5-1-0.21875-0.41406-0.46289-0.05078zm2.0742 0.83008-0.0527 0.46484 0.35351 0.30469l0.12 0.011h1l0.41406-0.21875 0.0508-0.46484-0.35351-0.30469-0.11-0.012h-1zm3 0-0.0527 0.46484 0.35351 0.30469l0.12 0.011h1l0.41406-0.21875 0.0508-0.46484-0.35351-0.30469-0.11-0.012h-1zm3 0-0.0527 0.46484 0.35351 0.30469l0.12 0.011h1l0.41406-0.21875 0.0508-0.46484-0.35351-0.30469-0.11-0.012h-1zm3 0-0.0527 0.46484 0.35351 0.30469l0.12 0.011h1l0.41406-0.21875 0.0508-0.46484-0.35351-0.30469-0.11-0.012h-1zm3 0-0.0527 0.46484 0.35351 0.30469l0.12 0.011 1-0.5-1-0.5z" id="rect4151" style="fill:currentColor">
  </path>
 </g>
</svg>
