<?xml version="1.0" encoding="UTF-8" standalone="no"?>
<!-- Created with Inkscape (http://www.inkscape.org/) -->
<svg height="16" id="svg7384" style="enable-background:new" version="1.1" width="16" xmlns="http://www.w3.org/2000/svg" xmlns:cc="http://creativecommons.org/ns#" xmlns:dc="http://purl.org/dc/elements/1.1/" xmlns:osb="http://www.openswatchbook.org/uri/2009/osb" xmlns:rdf="http://www.w3.org/1999/02/22-rdf-syntax-ns#">
 <defs>
  <style id="current-color-scheme" type="text/css">
   .ColorScheme-Text { color:#555555; }
  </style>
 </defs>
 <metadata id="metadata90">
  <rdf:rdf>
   <cc:work rdf:about="">
    <dc:format>
     image/svg+xml
    </dc:format>
    <dc:type rdf:resource="http://purl.org/dc/dcmitype/StillImage">
    </dc:type>
    <dc:title>
     Paper Symbolic Icon Theme
    </dc:title>
   </cc:work>
  </rdf:rdf>
 </metadata>
 <title id="title8473">
  Paper Symbolic Icon Theme
 </title>
 <g id="layer12" transform="translate(-365 59.003)">
  <path class="ColorScheme-Text" d="m370-57-5 6 5 6h11v-12zm2 3h1c0.277 0 0.52628 0.11222 0.70703 0.29297l1.293 1.293 1.293-1.293c0.17-0.181 0.42-0.293 0.7-0.293h1v1c0 0.277-0.11222 0.52628-0.29297 0.70703l-1.3 1.293 1.293 1.293c0.18075 0.18075 0.29297 0.43003 0.29297 0.70703v1h-1c-0.277 0-0.52628-0.11222-0.70703-0.29297l-1.293-1.293-1.293 1.293c-0.16 0.181-0.41 0.293-0.69 0.293h-1v-1c0-0.277 0.11222-0.52628 0.29297-0.70703l1.3-1.293-1.3-1.293c-0.18-0.181-0.29-0.43-0.29-0.707z" id="rect6867" style="fill:currentColor">
  </path>
 </g>
</svg>
