<?xml version="1.0" encoding="UTF-8" standalone="no"?>
<!-- Created with Inkscape (http://www.inkscape.org/) -->
<svg height="16" id="svg7384" style="enable-background:new" version="1.1" width="16" xmlns="http://www.w3.org/2000/svg" xmlns:cc="http://creativecommons.org/ns#" xmlns:dc="http://purl.org/dc/elements/1.1/" xmlns:osb="http://www.openswatchbook.org/uri/2009/osb" xmlns:rdf="http://www.w3.org/1999/02/22-rdf-syntax-ns#">
 <defs>
  <style id="current-color-scheme" type="text/css">
   .ColorScheme-Text { color:#555555; }
  </style>
 </defs>
 <metadata id="metadata90">
  <rdf:rdf>
   <cc:work rdf:about="">
    <dc:format>
     image/svg+xml
    </dc:format>
    <dc:type rdf:resource="http://purl.org/dc/dcmitype/StillImage">
    </dc:type>
    <dc:title>
     Paper Symbolic Icon Theme
    </dc:title>
   </cc:work>
  </rdf:rdf>
 </metadata>
 <title id="title8473">
  Paper Symbolic Icon Theme
 </title>
 <g id="layer12" transform="translate(-345 79.003)">
  <path class="ColorScheme-Text" d="m351.49-78.006c3.0288 0 5.5312 2.4746 5.5312 5.5 0 1.1499-0.38921 2.2078-1 3.0938l3.6875 3.6875a1.0055 1.0055 0 1 1 -1.4062 1.4375l-3.6875-3.6875c-0.88729 0.61091-1.973 0.96875-3.125 0.96875-3.0289 0-5.5-2.4746-5.5-5.5s2.4711-5.5 5.5-5.5zm0 2c-1.9474 0-3.5 1.5548-3.5 3.5 0 1.9451 1.5526 3.5 3.5 3.5s3.5-1.5549 3.5-3.5c0-1.9452-1.5526-3.5-3.5-3.5z" id="path27918-2" style="fill:currentColor">
  </path>
 </g>
</svg>
