<?xml version="1.0" encoding="UTF-8" standalone="no"?>
<!-- Created with Inkscape (http://www.inkscape.org/) -->
<svg height="16" id="svg7384" style="enable-background:new" version="1.1" width="15.982" xmlns="http://www.w3.org/2000/svg" xmlns:cc="http://creativecommons.org/ns#" xmlns:dc="http://purl.org/dc/elements/1.1/" xmlns:osb="http://www.openswatchbook.org/uri/2009/osb" xmlns:rdf="http://www.w3.org/1999/02/22-rdf-syntax-ns#">
 <defs>
  <style id="current-color-scheme" type="text/css">
   .ColorScheme-Text { color:#555555; }
  </style>
 </defs>
 <metadata id="metadata90">
  <rdf:rdf>
   <cc:work rdf:about="">
    <dc:format>
     image/svg+xml
    </dc:format>
    <dc:type rdf:resource="http://purl.org/dc/dcmitype/StillImage">
    </dc:type>
    <dc:title>
     Paper Symbolic Icon Theme
    </dc:title>
   </cc:work>
  </rdf:rdf>
 </metadata>
 <title id="title8473">
  Paper Symbolic Icon Theme
 </title>
 <g id="layer12" transform="translate(-385 59.003)">
  <path class="ColorScheme-Text" d="m2 2v8h4v4h8v-8h-4v-4h-8zm8 5c0.739 0 1.334 0.6834 1.334 1.5234v1.4766h0.332c0.185 0 0.334 0.167 0.334 0.375v2.25c0 0.208-0.149 0.375-0.334 0.375h-3.332c-0.1847 0-0.334-0.167-0.334-0.375v-2.25c0-0.208 0.1493-0.375 0.334-0.375h0.332 0.334 1 0.666v-1.5c0-0.4155-0.297-0.75-0.666-0.75-0.3693 0-0.666 0.3345-0.666 0.75v0.375h-0.334-0.334v-0.375c0.0112-0.8294 0.6023-1.5 1.334-1.5z" id="rect4138" style="fill:currentColor" transform="translate(385 -59.003)">
  </path>
 </g>
</svg>
