<?xml version="1.0" encoding="UTF-8" standalone="no"?>
<!-- Created with Inkscape (http://www.inkscape.org/) -->
<svg height="16" id="svg3049" version="1.1" width="16" xmlns="http://www.w3.org/2000/svg" xmlns:cc="http://creativecommons.org/ns#" xmlns:dc="http://purl.org/dc/elements/1.1/" xmlns:rdf="http://www.w3.org/1999/02/22-rdf-syntax-ns#">
 <defs id="defs3051">
  <style id="current-color-scheme" type="text/css">
   .ColorScheme-Text {
        color:#4d4d4d;
      }
      .ColorScheme-Background {
        color:#eff0f1;
      }
      .ColorScheme-Highlight {
        color:#3daee9;
      }
      .ColorScheme-ViewText {
        color:#31363b;
      }
      .ColorScheme-ViewBackground {
        color:#fcfcfc;
      }
      .ColorScheme-ViewHover {
        color:#93cee9;
      }
      .ColorScheme-ViewFocus{
        color:#3daee9;
      }
      .ColorScheme-ButtonText {
        color:#31363b;
      }
      .ColorScheme-ButtonBackground {
        color:#eff0f1;
      }
      .ColorScheme-ButtonHover {
        color:#93cee9;
      }
      .ColorScheme-ButtonFocus{
        color:#3daee9;
      }
  </style>
 </defs>
 <metadata id="metadata3054">
  <rdf:rdf>
   <cc:work rdf:about="">
    <dc:format>
     image/svg+xml
    </dc:format>
    <dc:type rdf:resource="http://purl.org/dc/dcmitype/StillImage">
    </dc:type>
    <dc:title>
    </dc:title>
   </cc:work>
  </rdf:rdf>
 </metadata>
 <g id="layer1" transform="translate(-421.71 -531.79)">
  <g id="layer1-0" transform="matrix(.75 0 0 0.75 421.46 -241.23)">
   <g id="layer1-6" transform="translate(6.2938e-7 -.00020410)">
    <text fill="#000000" font-family="Sans" font-size="12px" id="text3781" line-height="125%" style="word-spacing:0px;letter-spacing:0px" transform="scale(1)" x="16.914654" xml:space="preserve" y="1053.0374">
     <tspan id="tspan3783" x="16.914654" y="1053.0374">
     </tspan>
    </text>
    <path class="ColorScheme-Text" d="m1 1v14h14v-14h-14zm2 2h10v10h-4v-3.2773c0.5956-0.3464 1-0.984 1-1.7227 0-1.1046-0.8954-2-2-2s-2 0.8954-2 2c0 0.7387 0.4044 1.3763 1 1.7227v3.2773h-4v-10z" fill-rule="evenodd" id="rect4152-9-3-4" style="fill:currentColor" transform="matrix(1.3333 0 0 1.3333 .33333 1030.7)">
    </path>
   </g>
  </g>
 </g>
</svg>
