<?xml version="1.0" encoding="UTF-8" standalone="no"?>
<!-- Created with Inkscape (http://www.inkscape.org/) -->
<svg height="16" id="svg7384" style="enable-background:new" version="1.1" width="16" xmlns="http://www.w3.org/2000/svg" xmlns:cc="http://creativecommons.org/ns#" xmlns:dc="http://purl.org/dc/elements/1.1/" xmlns:osb="http://www.openswatchbook.org/uri/2009/osb" xmlns:rdf="http://www.w3.org/1999/02/22-rdf-syntax-ns#">
 <defs>
  <style id="current-color-scheme" type="text/css">
   .ColorScheme-Text { color:#555555; }
  </style>
 </defs>
 <metadata id="metadata90">
  <rdf:rdf>
   <cc:work rdf:about="">
    <dc:format>
     image/svg+xml
    </dc:format>
    <dc:type rdf:resource="http://purl.org/dc/dcmitype/StillImage">
    </dc:type>
    <dc:title>
     Paper Symbolic Icon Theme
    </dc:title>
   </cc:work>
  </rdf:rdf>
 </metadata>
 <title id="title8473">
  Paper Symbolic Icon Theme
 </title>
 <g id="layer12" transform="translate(-405 39.003)">
  <path class="ColorScheme-Text" d="m412-37.906v2c-1.9529 0.39963-3.5066 1.9533-3.9062 3.9062h-2.0938v2h2.0938c0.39963 1.9529 1.9533 3.5066 3.9062 3.9062v2.0938h2v-2.0938c1.9529-0.39963 3.5066-1.9533 3.9062-3.9062h2.0938v-2h-2.0938c-0.39963-1.9529-1.9533-3.5066-3.9062-3.9062v-2h-2zm1 4.9062c1.1046 0 2 0.89543 2 2s-0.89543 2-2 2-2-0.89543-2-2 0.89543-2 2-2z" id="rect5033" style="fill:currentColor">
  </path>
 </g>
</svg>
