<?xml version="1.0" encoding="UTF-8" standalone="no"?>
<!-- Created with Inkscape (http://www.inkscape.org/) -->
<svg height="16" id="svg7384" style="enable-background:new" version="1.1" width="16" xmlns="http://www.w3.org/2000/svg" xmlns:cc="http://creativecommons.org/ns#" xmlns:dc="http://purl.org/dc/elements/1.1/" xmlns:osb="http://www.openswatchbook.org/uri/2009/osb" xmlns:rdf="http://www.w3.org/1999/02/22-rdf-syntax-ns#">
 <defs>
  <style id="current-color-scheme" type="text/css">
   .ColorScheme-Text { color:#555555; }
  </style>
 </defs>
 <metadata id="metadata90">
  <rdf:rdf>
   <cc:work rdf:about="">
    <dc:format>
     image/svg+xml
    </dc:format>
    <dc:type rdf:resource="http://purl.org/dc/dcmitype/StillImage">
    </dc:type>
    <dc:title>
     Paper Symbolic Icon Theme
    </dc:title>
   </cc:work>
  </rdf:rdf>
 </metadata>
 <title id="title8473">
  Paper Symbolic Icon Theme
 </title>
 <g id="layer12" transform="translate(-385 -61)">
  <path class="ColorScheme-Text" d="m6 1l-5 14h2.5l1.0625-3h3.5723a1.0001 1.0001 0 0 1 0.1582 -0.207l0.707-0.707a1.0001 1.0001 0 0 1 1.414 0l0.586 0.586v-1.879a1.0001 1.0001 0 0 1 0.131 -0.4922l-3.131-8.3008h-2zm1 4l1.75 5h-3.5l1.75-5zm5 4.793v4.293l-2.293-2.293-0.707 0.707 3.293 3.293 0.207 0.207 0.207-0.207 3.293-3.293-0.707-0.707-2.293 2.293v-4.293h-1z" id="path4142" style="fill:currentColor" transform="translate(385 61)">
  </path>
 </g>
</svg>
