<?xml version="1.0" encoding="UTF-8" standalone="no"?>
<!-- Created with Inkscape (http://www.inkscape.org/) -->
<svg height="16" id="svg3049" inkscape:export-filename="/home/uri/.kde/share/icons/NITRUX-KDE/16x16/actions/view-right-new.png" inkscape:export-xdpi="30" inkscape:export-ydpi="30" inkscape:version="0.91 r13725" sodipodi:docname="format-add-node.svg" version="1.1" width="16" xmlns="http://www.w3.org/2000/svg" xmlns:cc="http://creativecommons.org/ns#" xmlns:dc="http://purl.org/dc/elements/1.1/" xmlns:inkscape="http://www.inkscape.org/namespaces/inkscape" xmlns:rdf="http://www.w3.org/1999/02/22-rdf-syntax-ns#" xmlns:sodipodi="http://sodipodi.sourceforge.net/DTD/sodipodi-0.dtd" xmlns:svg="http://www.w3.org/2000/svg">
 <defs id="defs3051">
  <style id="current-color-scheme" type="text/css">
   .ColorScheme-Text {
        color:#4d4d4d;
      }
      .ColorScheme-Background {
        color:#eff0f1;
      }
      .ColorScheme-Highlight {
        color:#3daee9;
      }
      .ColorScheme-ViewText {
        color:#31363b;
      }
      .ColorScheme-ViewBackground {
        color:#fcfcfc;
      }
      .ColorScheme-ViewHover {
        color:#93cee9;
      }
      .ColorScheme-ViewFocus{
        color:#3daee9;
      }
      .ColorScheme-ButtonText {
        color:#31363b;
      }
      .ColorScheme-ButtonBackground {
        color:#eff0f1;
      }
      .ColorScheme-ButtonHover {
        color:#93cee9;
      }
      .ColorScheme-ButtonFocus{
        color:#3daee9;
      }
  </style>
 </defs>
 <sodipodi:namedview bordercolor="#666666" borderlayer="true" borderopacity="1.0" fit-margin-bottom="0" fit-margin-left="0" fit-margin-right="0" fit-margin-top="0" id="base" inkscape:current-layer="layer1" inkscape:cx="-5.8264627" inkscape:cy="9.1525941" inkscape:document-units="px" inkscape:object-nodes="true" inkscape:pageopacity="0.0" inkscape:pageshadow="2" inkscape:showpageshadow="false" inkscape:snap-bbox="true" inkscape:snap-global="true" inkscape:window-height="847" inkscape:window-maximized="1" inkscape:window-width="1600" inkscape:window-x="0" inkscape:window-y="30" inkscape:zoom="26.24" pagecolor="#000000" showgrid="false" showguides="false">
  <inkscape:grid id="grid4085" type="xygrid">
  </inkscape:grid>
  <sodipodi:guide id="guide4075" orientation="12,0" position="2,15">
  </sodipodi:guide>
  <sodipodi:guide id="guide4077" orientation="0,12" position="17,2">
  </sodipodi:guide>
  <sodipodi:guide id="guide4079" orientation="-12,0" position="14.000004,2.0000296">
  </sodipodi:guide>
  <sodipodi:guide id="guide4081" orientation="0,-12" position="0,14">
  </sodipodi:guide>
 </sodipodi:namedview>
 <metadata id="metadata3054">
  <rdf:rdf>
   <cc:work rdf:about="">
    <dc:format>
     image/svg+xml
    </dc:format>
    <dc:type rdf:resource="http://purl.org/dc/dcmitype/StillImage">
    </dc:type>
    <dc:title>
    </dc:title>
   </cc:work>
  </rdf:rdf>
 </metadata>
 <g id="layer1" inkscape:groupmode="layer" inkscape:label="Capa 1" transform="translate(-421.71429,-531.79074)">
  <path class="ColorScheme-Text" d="M 3.5 1 A 2.5 2.5 0 0 0 1 3.5 A 2.5 2.5 0 0 0 3 5.9492188 L 3 6 L 3 10 L 1 10 L 1 15 L 6 15 L 6 13 L 8 13 L 8 12 L 6 12 L 6 10 L 4 10 L 4 6 L 4 5.9453125 A 2.5 2.5 0 0 0 5.9492188 4 L 6 4 L 10 4 L 10 6 L 12 6 L 12 8 L 13 8 L 13 6 L 15 6 L 15 1 L 10 1 L 10 3 L 6 3 L 5.9453125 3 A 2.5 2.5 0 0 0 3.5 1 z M 11 9 L 11 11 L 9 11 L 9 13 L 11 13 L 11 15 L 13 15 L 13 13 L 15 13 L 15 11 L 13 11 L 13 9 L 11 9 z " id="rect4874" style="fill:currentColor" transform="translate(421.71429,531.79074)">
  </path>
 </g>
</svg>
