<?xml version="1.0" encoding="UTF-8" standalone="no"?>
<!-- Created with Inkscape (http://www.inkscape.org/) -->
<svg height="16" id="svg3049" version="1.1" width="16" xmlns="http://www.w3.org/2000/svg" xmlns:cc="http://creativecommons.org/ns#" xmlns:dc="http://purl.org/dc/elements/1.1/" xmlns:rdf="http://www.w3.org/1999/02/22-rdf-syntax-ns#">
 <defs id="defs3051">
  <style id="current-color-scheme" type="text/css">
   .ColorScheme-Text {
        color:#4d4d4d;
      }
      .ColorScheme-Background {
        color:#eff0f1;
      }
      .ColorScheme-Highlight {
        color:#3daee9;
      }
      .ColorScheme-ViewText {
        color:#31363b;
      }
      .ColorScheme-ViewBackground {
        color:#fcfcfc;
      }
      .ColorScheme-ViewHover {
        color:#93cee9;
      }
      .ColorScheme-ViewFocus{
        color:#3daee9;
      }
      .ColorScheme-ButtonText {
        color:#31363b;
      }
      .ColorScheme-ButtonBackground {
        color:#eff0f1;
      }
      .ColorScheme-ButtonHover {
        color:#93cee9;
      }
      .ColorScheme-ButtonFocus{
        color:#3daee9;
      }
  </style>
 </defs>
 <metadata id="metadata3054">
  <rdf:rdf>
   <cc:work rdf:about="">
    <dc:format>
     image/svg+xml
    </dc:format>
    <dc:type rdf:resource="http://purl.org/dc/dcmitype/StillImage">
    </dc:type>
    <dc:title>
    </dc:title>
   </cc:work>
  </rdf:rdf>
 </metadata>
 <g id="layer1" transform="translate(-421.71 -531.79)">
  <rect fill="#4d4d4d" height="11" id="rect4035" width="0" x="417.43" y="534.79">
  </rect>
  <rect fill="#4d4d4d" height="11" id="rect4035-2" width="0" x="411.29" y="535.06">
  </rect>
  <rect fill="#4d4d4d" height="11" id="rect4035-5" width="0" x="429.33" y="533.01">
  </rect>
  <rect fill="#4d4d4d" height="11" id="rect4035-8" width="0" x="411.29" y="535.06">
  </rect>
  <rect fill="#4d4d4d" height="11" id="rect4035-59" width="0" x="411.29" y="535.06">
  </rect>
  <text fill="#4d4d4d" font-family="Sans" font-size="9px" id="text3781" line-height="125%" style="word-spacing:0px;letter-spacing:0px" x="426.7243" xml:space="preserve" y="547.81396">
   <tspan id="tspan3783" x="426.7243" y="547.81396">
   </tspan>
  </text>
  <text fill="#4d4d4d" font-family="Sans" font-size="9px" id="text3781-8" line-height="125%" style="word-spacing:0px;letter-spacing:0px" x="427.461" xml:space="preserve" y="541.95062">
   <tspan id="tspan3783-1" x="427.461" y="541.95062">
   </tspan>
  </text>
  <text fill="#4d4d4d" font-family="Sans" font-size="9px" id="text3781-4" line-height="125%" style="word-spacing:0px;letter-spacing:0px" x="420.7243" xml:space="preserve" y="548.81396">
   <tspan id="tspan3783-13" x="420.7243" y="548.81396">
   </tspan>
  </text>
  <rect fill="#4d4d4d" height="11" id="rect4035-9" width="0" x="411.29" y="535.06">
  </rect>
  <rect fill="#4d4d4d" height="11" id="rect4035-5-7" width="0" x="429.33" y="533.01">
  </rect>
  <rect fill="#4d4d4d" height="11" id="rect4035-9-0" width="0" x="391.29" y="535.06">
  </rect>
  <rect fill="#4d4d4d" height="11" id="rect4035-5-7-5" width="0" x="409.33" y="533.01">
  </rect>
  <rect fill="#4d4d4d" height="11" id="rect4035-90" width="0" x="409.43" y="512.79">
  </rect>
  <path class="ColorScheme-Text" d="m11.215 2l-2.5002 3h5.0002l-2.5-3zm-7.3869 4l-2.8281 8h1.1426l0.9746-2.285h2.7226l0.875 2.285h1.1426l-2.5918-8h-1.4375zm4.8867 0v8h0.5704 0.5722 2.8576a2.2857 2.2857 0 0 0 2.285 -2.285 2.2857 2.2857 0 0 0 -1.533 -2.1545 2.2857 2.2857 0 0 0 0.39 -1.2753 2.2857 2.2857 0 0 0 -2.285 -2.2852h-1.7146-0.5722-0.5704zm1.1426 1.1426h1.7146a1.1429 1.1429 0 0 1 1.143 1.1426 1.1429 1.1429 0 0 1 -1.143 1.1425h-1.7146v-2.2851zm-5.3105 0.0976l1.0722 3.3318h-2.2558l1.1836-3.3318zm5.3105 3.3318h2.8576a1.1429 1.1429 0 0 1 1.142 1.143 1.1429 1.1429 0 0 1 -1.142 1.142h-2.8576v-2.285z" id="path5641" style="fill:currentColor" transform="translate(421.71 531.79)">
  </path>
 </g>
</svg>
