<?xml version="1.0" encoding="UTF-8" standalone="no"?>
<!-- Created with Inkscape (http://www.inkscape.org/) -->
<svg height="16" id="svg3049" version="1.1" width="16" xmlns="http://www.w3.org/2000/svg" xmlns:cc="http://creativecommons.org/ns#" xmlns:dc="http://purl.org/dc/elements/1.1/" xmlns:rdf="http://www.w3.org/1999/02/22-rdf-syntax-ns#">
 <defs id="defs3051">
  <style id="current-color-scheme" type="text/css">
   .ColorScheme-Text {
        color:#4d4d4d;
      }
      .ColorScheme-Background {
        color:#eff0f1;
      }
      .ColorScheme-Highlight {
        color:#3daee9;
      }
      .ColorScheme-ViewText {
        color:#31363b;
      }
      .ColorScheme-ViewBackground {
        color:#fcfcfc;
      }
      .ColorScheme-ViewHover {
        color:#93cee9;
      }
      .ColorScheme-ViewFocus{
        color:#3daee9;
      }
      .ColorScheme-ButtonText {
        color:#31363b;
      }
      .ColorScheme-ButtonBackground {
        color:#eff0f1;
      }
      .ColorScheme-ButtonHover {
        color:#93cee9;
      }
      .ColorScheme-ButtonFocus{
        color:#3daee9;
      }
  </style>
 </defs>
 <metadata id="metadata3054">
  <rdf:rdf>
   <cc:work rdf:about="">
    <dc:format>
     image/svg+xml
    </dc:format>
    <dc:type rdf:resource="http://purl.org/dc/dcmitype/StillImage">
    </dc:type>
    <dc:title>
    </dc:title>
   </cc:work>
  </rdf:rdf>
 </metadata>
 <g id="layer1" transform="translate(-421.71 -531.79)">
  <path class="ColorScheme-Text" d="m4.5 1c-1.9212 0-3.5 1.5789-3.5 3.5 0 1.9212 1.5788 3.5 3.5 3.5 0.8976 0 1.7022-0.3684 2.3242-0.9316l-3.875 5.8146a1.0001 1.0001 0 0 0 0.2637 1.377l0.8125 0.562a1.0001 1.0001 0 0 0 1.4004 -0.267l2.8125-4.219c-0.133 0.368-0.2383 0.752-0.2383 1.164 0 1.921 1.5788 3.5 3.5 3.5 1.921 0 3.5-1.579 3.5-3.5 0-1.9212-1.579-3.5-3.5-3.5-0.898 0-1.7022 0.3684-2.3242 0.9316l3.8752-5.8144a1.0001 1.0001 0 0 0 -0.264 -1.377l-0.812-0.5625a1.0001 1.0001 0 0 0 -1.401 0.2676l-2.8123 4.2188c0.133-0.3683 0.2383-0.7522 0.2383-1.1641 0-1.9211-1.5788-3.5-3.5-3.5zm0 2c0.864 0 1.5 0.636 1.5 1.5s-0.636 1.5-1.5 1.5-1.5-0.636-1.5-1.5 0.636-1.5 1.5-1.5zm7 7c0.864 0 1.5 0.636 1.5 1.5s-0.636 1.5-1.5 1.5-1.5-0.636-1.5-1.5 0.636-1.5 1.5-1.5z" id="path4158" style="fill:currentColor" transform="translate(421.71 531.79)">
  </path>
 </g>
</svg>
