<?xml version="1.0" encoding="UTF-8" standalone="no"?>
<!-- Created with Inkscape (http://www.inkscape.org/) -->
<svg height="16" id="svg7384" style="enable-background:new" version="1.1" width="16" xmlns="http://www.w3.org/2000/svg" xmlns:cc="http://creativecommons.org/ns#" xmlns:dc="http://purl.org/dc/elements/1.1/" xmlns:osb="http://www.openswatchbook.org/uri/2009/osb" xmlns:rdf="http://www.w3.org/1999/02/22-rdf-syntax-ns#">
 <defs>
  <style id="current-color-scheme" type="text/css">
   .ColorScheme-Text { color:#555555; }
  </style>
 </defs>
 <metadata id="metadata90">
  <rdf:rdf>
   <cc:work rdf:about="">
    <dc:format>
     image/svg+xml
    </dc:format>
    <dc:type rdf:resource="http://purl.org/dc/dcmitype/StillImage">
    </dc:type>
    <dc:title>
     Paper Symbolic Icon Theme
    </dc:title>
   </cc:work>
  </rdf:rdf>
 </metadata>
 <title id="title8473">
  Paper Symbolic Icon Theme
 </title>
 <g id="layer12" transform="translate(-385 -61)">
  <path class="ColorScheme-Text" d="m7 1l-5 14h2.5l1.0625-3h4.4375v-4h1.641l-2.641-7h-2zm1 4l1.75 5h-3.5l1.75-5zm3 4v2 1 2 1h1 2c1.108 0 2-0.892 2-2 0-0.811-0.481-1.502-1.172-1.816 0.106-0.206 0.172-0.436 0.172-0.684 0-0.831-0.669-1.5-1.5-1.5h-1.5-1zm1 1h1.5c0.277 0 0.5 0.223 0.5 0.5s-0.223 0.5-0.5 0.5h-1.5v-1zm0 2h1.5 0.5c0.554 0 1 0.446 1 1s-0.446 1-1 1h-2v-2z" id="path6087" style="fill:currentColor" transform="translate(385 61)">
  </path>
 </g>
</svg>
