<?xml version="1.0" encoding="UTF-8" standalone="no"?>
<!-- Created with Inkscape (http://www.inkscape.org/) -->
<svg height="16" id="svg3049" version="1.1" viewbox="0 0 16 16" width="16" xmlns="http://www.w3.org/2000/svg" xmlns:cc="http://creativecommons.org/ns#" xmlns:dc="http://purl.org/dc/elements/1.1/" xmlns:rdf="http://www.w3.org/1999/02/22-rdf-syntax-ns#">
 <defs id="defs3051">
  <style id="current-color-scheme" type="text/css">
   .ColorScheme-Text {
        color:#4d4d4d;
      }
      .ColorScheme-Background {
        color:#eff0f1;
      }
      .ColorScheme-Highlight {
        color:#3daee9;
      }
      .ColorScheme-ViewText {
        color:#31363b;
      }
      .ColorScheme-ViewBackground {
        color:#fcfcfc;
      }
      .ColorScheme-ViewHover {
        color:#93cee9;
      }
      .ColorScheme-ViewFocus{
        color:#3daee9;
      }
      .ColorScheme-ButtonText {
        color:#31363b;
      }
      .ColorScheme-ButtonBackground {
        color:#eff0f1;
      }
      .ColorScheme-ButtonHover {
        color:#93cee9;
      }
      .ColorScheme-ButtonFocus{
        color:#3daee9;
      }
  </style>
 </defs>
 <metadata id="metadata3054">
  <rdf:rdf>
   <cc:work rdf:about="">
    <dc:format>
     image/svg+xml
    </dc:format>
    <dc:type rdf:resource="http://purl.org/dc/dcmitype/StillImage">
    </dc:type>
    <dc:title>
    </dc:title>
   </cc:work>
  </rdf:rdf>
 </metadata>
 <g id="layer1" transform="translate(-421.71 -531.79)">
  <path class="ColorScheme-Text" d="m8 1a5 5 0 0 0 -5 5 5 5 0 0 0 2.0098 4h-0.0098v5l3-2 3 2v-5h-0.01a5 5 0 0 0 2.01 -4 5 5 0 0 0 -5 -5zm0 2l0.9277 1.9746 2.0723 0.3164-1.5 1.5371 0.3535 2.1719-1.8535-1.0254-1.8555 1.0254 0.3555-2.1719-1.5-1.5371 2.0723-0.3164 0.9277-1.9746z" id="path4144" style="fill:currentColor" transform="translate(421.71 531.79)">
  </path>
 </g>
</svg>
