<?xml version="1.0" encoding="UTF-8" standalone="no"?>
<!-- Created with Inkscape (http://www.inkscape.org/) -->
<svg height="16" id="svg7384" style="enable-background:new" version="1.1" width="16" xmlns="http://www.w3.org/2000/svg" xmlns:cc="http://creativecommons.org/ns#" xmlns:dc="http://purl.org/dc/elements/1.1/" xmlns:osb="http://www.openswatchbook.org/uri/2009/osb" xmlns:rdf="http://www.w3.org/1999/02/22-rdf-syntax-ns#">
 <metadata id="metadata90">
  <rdf:rdf>
   <cc:work rdf:about="">
    <dc:format>
     image/svg+xml
    </dc:format>
    <dc:type rdf:resource="http://purl.org/dc/dcmitype/StillImage">
    </dc:type>
    <dc:title>
     Paper Symbolic Icon Theme
    </dc:title>
   </cc:work>
  </rdf:rdf>
 </metadata>
 <title id="title8473">
  Paper Symbolic Icon Theme
 </title>
 <defs id="defs7386">
  <style id="current-color-scheme" type="text/css">
   .ColorScheme-Text {
        color:#4d4d4d;
      }
      .ColorScheme-Background {
        color:#eff0f1;
      }
      .ColorScheme-Highlight {
        color:#3daee9;
      }
      .ColorScheme-ViewText {
        color:#31363b;
      }
      .ColorScheme-ViewBackground {
        color:#fcfcfc;
      }
      .ColorScheme-ViewHover {
        color:#93cee9;
      }
      .ColorScheme-ViewFocus{
        color:#3daee9;
      }
      .ColorScheme-ButtonText {
        color:#31363b;
      }
      .ColorScheme-ButtonBackground {
        color:#eff0f1;
      }
      .ColorScheme-ButtonHover {
        color:#93cee9;
      }
      .ColorScheme-ButtonFocus{
        color:#3daee9;
      }
  </style>
 </defs>
 <g id="layer12" transform="translate(-525 99.01)">
  <path class="ColorScheme-Text" d="m1.8438 1.0098c-0.2813 0.0468-0.8438 0.25-0.8438 1v11s0 1 1 1h8.672v-1.682c-0.398 0.316-0.9691 0.283-1.3282-0.076l-0.7071-0.707c-0.3903-0.391-0.3903-1.024 0-1.414l0.9492-0.9494 1.8791-1.8789c0.184-0.1842 0.433-0.2893 0.693-0.2929 0.27-0.0036 0.53 0.102 0.721 0.2929l1.879 1.8789 0.242 0.2422v-5.414c0-1-1-1-1-1h-5l-2-2h-5s-0.0625-0.01563-0.1562 0zm10.328 7l-1.879 1.8789-0.9492 0.9493 0.7072 0.707 0.949-0.949 0.672-0.6722v2.0862 2h1v-1-1-2.0862l0.672 0.6722 0.949 0.949 0.707-0.707-0.949-0.9493-1.879-1.8789z" id="path4247" style="fill:currentColor" transform="translate(525 -99.01)">
  </path>
  <text fill="#000000" font-family="Sans" font-size="9px" id="text3781" line-height="125%" style="word-spacing:0px;letter-spacing:0px" x="512.0119" xml:space="preserve" y="-91.443733">
   <tspan id="tspan3783" x="512.0119" y="-91.443733">
   </tspan>
  </text>
  <rect class="ColorScheme-Text" fill="currentColor" height="11" id="rect4035" style="color:#4d4d4d" transform="scale(-1,1)" width="0" x="-571.67" y="-84.076">
  </rect>
  <rect class="ColorScheme-Text" fill="currentColor" height="11" id="rect4035-5" style="color:#4d4d4d" transform="scale(-1,1)" width="0" x="-553.63" y="-86.127">
  </rect>
  <rect class="ColorScheme-Text" fill="currentColor" height="11" id="rect4035-8" style="color:#4d4d4d" transform="scale(-1,1)" width="0" x="-571.67" y="-84.076">
  </rect>
  <rect class="ColorScheme-Text" fill="currentColor" height="11" id="rect4035-59" style="color:#4d4d4d" transform="scale(-1,1)" width="0" x="-571.67" y="-84.076">
  </rect>
  <text class="ColorScheme-Text" fill="currentColor" font-family="Sans" font-size="9px" id="text3781-9" line-height="125%" style="color:#4d4d4d;word-spacing:0px;letter-spacing:0px" transform="scale(-1 1)" x="-556.2337" xml:space="preserve" y="-71.318726">
   <tspan id="tspan3783-5" x="-556.2337" y="-71.318726">
   </tspan>
  </text>
  <text class="ColorScheme-Text" fill="currentColor" font-family="Sans" font-size="9px" id="text3781-8" line-height="125%" style="color:#4d4d4d;word-spacing:0px;letter-spacing:0px" transform="scale(-1 1)" x="-555.49701" xml:space="preserve" y="-77.18203">
   <tspan id="tspan3783-1" x="-555.49701" y="-77.18203">
   </tspan>
  </text>
  <text class="ColorScheme-Text" fill="currentColor" font-family="Sans" font-size="9px" id="text3781-4" line-height="125%" style="color:#4d4d4d;word-spacing:0px;letter-spacing:0px" transform="scale(-1 1)" x="-562.2337" xml:space="preserve" y="-70.318695">
   <tspan id="tspan3783-13" x="-562.2337" y="-70.318695">
   </tspan>
  </text>
  <rect class="ColorScheme-Text" fill="currentColor" height="11" id="rect4035-9" style="color:#4d4d4d" transform="scale(-1,1)" width="0" x="-571.67" y="-84.076">
  </rect>
  <rect class="ColorScheme-Text" fill="currentColor" height="11" id="rect4035-5-7" style="color:#4d4d4d" transform="scale(-1,1)" width="0" x="-553.63" y="-86.127">
  </rect>
  <rect class="ColorScheme-Text" fill="currentColor" height="11" id="rect4035-9-0" style="color:#4d4d4d" transform="scale(-1,1)" width="0" x="-591.67" y="-84.076">
  </rect>
  <rect class="ColorScheme-Text" fill="currentColor" height="11" id="rect4035-5-7-5" style="color:#4d4d4d" transform="scale(-1,1)" width="0" x="-573.63" y="-86.127">
  </rect>
  <rect class="ColorScheme-Text" fill="currentColor" height="11" id="rect4035-3" style="color:#4d4d4d" transform="scale(-1,1)" width="0" x="-571.67" y="-84.076">
  </rect>
  <rect class="ColorScheme-Text" fill="currentColor" height="11" id="rect4035-5-4" style="color:#4d4d4d" transform="scale(-1,1)" width="0" x="-553.63" y="-86.127">
  </rect>
  <rect class="ColorScheme-Text" fill="currentColor" height="11" id="rect4035-8-7" style="color:#4d4d4d" transform="scale(-1,1)" width="0" x="-571.67" y="-84.076">
  </rect>
  <rect class="ColorScheme-Text" fill="currentColor" height="11" id="rect4035-59-1" style="color:#4d4d4d" transform="scale(-1,1)" width="0" x="-571.67" y="-84.076">
  </rect>
  <text class="ColorScheme-Text" fill="currentColor" font-family="Sans" font-size="9px" id="text3781-1" line-height="125%" style="color:#4d4d4d;word-spacing:0px;letter-spacing:0px" transform="scale(-1 1)" x="-556.2337" xml:space="preserve" y="-71.318726">
   <tspan id="tspan3783-8" x="-556.2337" y="-71.318726">
   </tspan>
  </text>
  <text class="ColorScheme-Text" fill="currentColor" font-family="Sans" font-size="9px" id="text3781-8-2" line-height="125%" style="color:#4d4d4d;word-spacing:0px;letter-spacing:0px" transform="scale(-1 1)" x="-555.49701" xml:space="preserve" y="-77.18203">
   <tspan id="tspan3783-1-6" x="-555.49701" y="-77.18203">
   </tspan>
  </text>
  <text class="ColorScheme-Text" fill="currentColor" font-family="Sans" font-size="9px" id="text3781-4-7" line-height="125%" style="color:#4d4d4d;word-spacing:0px;letter-spacing:0px" transform="scale(-1 1)" x="-562.2337" xml:space="preserve" y="-70.318695">
   <tspan id="tspan3783-13-8" x="-562.2337" y="-70.318695">
   </tspan>
  </text>
  <rect class="ColorScheme-Text" fill="currentColor" height="11" id="rect4035-9-08" style="color:#4d4d4d" transform="scale(-1,1)" width="0" x="-571.67" y="-84.076">
  </rect>
  <rect class="ColorScheme-Text" fill="currentColor" height="11" id="rect4035-5-7-8" style="color:#4d4d4d" transform="scale(-1,1)" width="0" x="-553.63" y="-86.127">
  </rect>
  <rect class="ColorScheme-Text" fill="currentColor" height="11" id="rect4035-9-0-2" style="color:#4d4d4d" transform="scale(-1,1)" width="0" x="-591.67" y="-84.076">
  </rect>
  <rect class="ColorScheme-Text" fill="currentColor" height="11" id="rect4035-5-7-5-2" style="color:#4d4d4d" transform="scale(-1,1)" width="0" x="-573.63" y="-86.127">
  </rect>
  <rect class="ColorScheme-Text" fill="currentColor" height="11" id="rect4035-2" style="color:#4d4d4d" transform="scale(-1,1)" width="0" x="-575.9" y="-82.101">
  </rect>
  <rect class="ColorScheme-Text" fill="currentColor" height="11" id="rect4035-5-0" style="color:#4d4d4d" transform="scale(-1,1)" width="0" x="-557.86" y="-84.152">
  </rect>
  <rect class="ColorScheme-Text" fill="currentColor" height="11" id="rect4035-8-1" style="color:#4d4d4d" transform="scale(-1,1)" width="0" x="-575.9" y="-82.101">
  </rect>
  <rect class="ColorScheme-Text" fill="currentColor" height="11" id="rect4035-59-7" style="color:#4d4d4d" transform="scale(-1,1)" width="0" x="-575.9" y="-82.101">
  </rect>
  <text class="ColorScheme-Text" fill="currentColor" font-family="Sans" font-size="9px" id="text3781-41" line-height="125%" style="color:#4d4d4d;word-spacing:0px;letter-spacing:0px" transform="scale(-1 1)" x="-560.46808" xml:space="preserve" y="-69.34375">
   <tspan id="tspan3783-9" x="-560.46808" y="-69.34375">
   </tspan>
  </text>
  <text class="ColorScheme-Text" fill="currentColor" font-family="Sans" font-size="9px" id="text3781-8-7" line-height="125%" style="color:#4d4d4d;word-spacing:0px;letter-spacing:0px" transform="scale(-1 1)" x="-559.73138" xml:space="preserve" y="-75.207054">
   <tspan id="tspan3783-1-2" x="-559.73138" y="-75.207054">
   </tspan>
  </text>
  <text class="ColorScheme-Text" fill="currentColor" font-family="Sans" font-size="9px" id="text3781-4-3" line-height="125%" style="color:#4d4d4d;word-spacing:0px;letter-spacing:0px" transform="scale(-1 1)" x="-566.46808" xml:space="preserve" y="-68.343719">
   <tspan id="tspan3783-13-6" x="-566.46808" y="-68.343719">
   </tspan>
  </text>
  <rect class="ColorScheme-Text" fill="currentColor" height="11" id="rect4035-9-9" style="color:#4d4d4d" transform="scale(-1,1)" width="0" x="-575.9" y="-82.101">
  </rect>
  <rect class="ColorScheme-Text" fill="currentColor" height="11" id="rect4035-5-7-9" style="color:#4d4d4d" transform="scale(-1,1)" width="0" x="-557.86" y="-84.152">
  </rect>
  <rect class="ColorScheme-Text" fill="currentColor" height="11" id="rect4035-9-0-5" style="color:#4d4d4d" transform="scale(-1,1)" width="0" x="-595.9" y="-82.101">
  </rect>
  <rect class="ColorScheme-Text" fill="currentColor" height="11" id="rect4035-5-7-5-3" style="color:#4d4d4d" transform="scale(-1,1)" width="0" x="-577.86" y="-84.152">
  </rect>
 </g>
</svg>
