<?xml version="1.0" encoding="UTF-8" standalone="no"?>
<!-- Created with Inkscape (http://www.inkscape.org/) -->
<svg height="16.003" id="svg7384" style="enable-background:new" version="1.1" width="16" xmlns="http://www.w3.org/2000/svg" xmlns:cc="http://creativecommons.org/ns#" xmlns:dc="http://purl.org/dc/elements/1.1/" xmlns:osb="http://www.openswatchbook.org/uri/2009/osb" xmlns:rdf="http://www.w3.org/1999/02/22-rdf-syntax-ns#">
 <defs>
  <style id="current-color-scheme" type="text/css">
   .ColorScheme-Text { color:#555555; }
  </style>
 </defs>
 <metadata id="metadata90">
  <rdf:rdf>
   <cc:work rdf:about="">
    <dc:format>
     image/svg+xml
    </dc:format>
    <dc:type rdf:resource="http://purl.org/dc/dcmitype/StillImage">
    </dc:type>
    <dc:title>
     Paper Symbolic Icon Theme
    </dc:title>
   </cc:work>
  </rdf:rdf>
 </metadata>
 <title id="title8473">
  Paper Symbolic Icon Theme
 </title>
 <g id="layer12" transform="translate(-425 79.003)">
  <path class="ColorScheme-Text" d="m2 1.0039v1h-1v2h1v3h-1v2h1v3.0001h-1v2h1v1h2v-1h3v1h2v-1h3v1h2v-1h1v-2h-1v-3.0001h1v-2h-1v-3h1v-2h-1v-1h-2v1h-3v-1h-2v1h-3v-1h-2zm2 3h3v3h-3v-3zm5 0h3v3h-3v-3zm-5 5h3v3.0001h-3v-3.0001zm5 0h3v3.0001h-3v-3.0001z" id="rect4161" style="fill:currentColor" transform="translate(425 -79.003)">
  </path>
 </g>
</svg>
