<?xml version="1.0" encoding="UTF-8" standalone="no"?>
<!-- Created with Inkscape (http://www.inkscape.org/) -->
<svg height="16" id="svg7384" style="enable-background:new" version="1.1" width="16" xmlns="http://www.w3.org/2000/svg" xmlns:cc="http://creativecommons.org/ns#" xmlns:dc="http://purl.org/dc/elements/1.1/" xmlns:osb="http://www.openswatchbook.org/uri/2009/osb" xmlns:rdf="http://www.w3.org/1999/02/22-rdf-syntax-ns#">
 <defs>
  <style id="current-color-scheme" type="text/css">
   .ColorScheme-Text { color:#555555; }
  </style>
 </defs>
 <metadata id="metadata90">
  <rdf:rdf>
   <cc:work rdf:about="">
    <dc:format>
     image/svg+xml
    </dc:format>
    <dc:type rdf:resource="http://purl.org/dc/dcmitype/StillImage">
    </dc:type>
    <dc:title>
     Paper Symbolic Icon Theme
    </dc:title>
   </cc:work>
  </rdf:rdf>
 </metadata>
 <title id="title8473">
  Paper Symbolic Icon Theme
 </title>
 <g id="layer12" transform="translate(-465.03 -41.017)">
  <g id="g4146" transform="translate(-2)">
   <path class="ColorScheme-Text" d="m6 0v2c-3.3137 0-6 2.6863-6 6 0 2.622 1.6837 4.846 4.0273 5.662v-2.203c-1.2051-0.689-2.0273-1.9713-2.0273-3.459 0-2.2091 1.7909-4 4-4v2l4-3-4-3zm5 2.3477v2.207c1.191 0.6929 2 1.9685 2 3.4453 0 2.209-1.791 4-4 4v-2l-4 3 4 3v-2c3.314 0 6-2.686 6-6 0-2.6116-1.671-4.8281-4-5.6523z" id="path6666" style="fill:currentColor" transform="translate(467.03 41.017)">
   </path>
  </g>
 </g>
</svg>
