<?xml version="1.0" encoding="UTF-8" standalone="no"?>
<!-- Created with Inkscape (http://www.inkscape.org/) -->
<svg height="16" id="svg7384" style="enable-background:new" version="1.1" width="16" xmlns="http://www.w3.org/2000/svg" xmlns:cc="http://creativecommons.org/ns#" xmlns:dc="http://purl.org/dc/elements/1.1/" xmlns:osb="http://www.openswatchbook.org/uri/2009/osb" xmlns:rdf="http://www.w3.org/1999/02/22-rdf-syntax-ns#">
 <metadata id="metadata90">
  <rdf:rdf>
   <cc:work rdf:about="">
    <dc:format>
     image/svg+xml
    </dc:format>
    <dc:type rdf:resource="http://purl.org/dc/dcmitype/StillImage">
    </dc:type>
    <dc:title>
     Paper Symbolic Icon Theme
    </dc:title>
   </cc:work>
  </rdf:rdf>
 </metadata>
 <title id="title8473">
  Paper Symbolic Icon Theme
 </title>
 <defs id="defs7386">
  <style id="current-color-scheme" type="text/css">
   .ColorScheme-Text { color:#555555; }
  </style>
  <filter id="filter7554" style="color-interpolation-filters:sRGB">
   <feblend id="feBlend7556" in2="BackgroundImage" mode="darken">
   </feblend>
  </filter>
 </defs>
 <g id="layer9" transform="translate(-265 275)">
  <path class="ColorScheme-Text" d="m9 2c-0.9168 0.001-1.8102 0.293-2.3555 0.9688-0.5452 0.6757-0.699 1.5035-0.7675 2.4628-0.0338 0.4727-0.0437 0.9945-0.0391 1.5684h-0.8379c-0.554 0-1 0.446-1 1s0.446 1 1 1h0.8887c0.0477 1.398 0.1113 3.043 0.1113 5a1.0001 1.0001 0 1 0 2 0c0-1.962-0.0563-3.619-0.1016-5h1.1016c0.554 0 1-0.446 1-1s-0.446-1-1-1h-1.1543c-0.0068-0.5528-0.0011-1.028 0.0273-1.4258 0.0565-0.7906 0.2171-1.212 0.3282-1.3496 0.111-0.1376 0.2174-0.2239 0.8008-0.2246a1.0001 1.0001 0 1 0 -0.002 -2z" fill-rule="evenodd" id="path4195" style="fill:currentColor" transform="translate(265 -275)">
  </path>
 </g>
</svg>
