<?xml version="1.0" encoding="UTF-8" standalone="no"?>
<!-- Created with Inkscape (http://www.inkscape.org/) -->
<svg height="16" id="svg7384" style="enable-background:new" version="1.1" width="16" xmlns="http://www.w3.org/2000/svg" xmlns:cc="http://creativecommons.org/ns#" xmlns:dc="http://purl.org/dc/elements/1.1/" xmlns:osb="http://www.openswatchbook.org/uri/2009/osb" xmlns:rdf="http://www.w3.org/1999/02/22-rdf-syntax-ns#">
 <defs>
  <style id="current-color-scheme" type="text/css">
   .ColorScheme-Text { color:#555555; }
  </style>
 </defs>
 <metadata id="metadata90">
  <rdf:rdf>
   <cc:work rdf:about="">
    <dc:format>
     image/svg+xml
    </dc:format>
    <dc:type rdf:resource="http://purl.org/dc/dcmitype/StillImage">
    </dc:type>
    <dc:title>
     Paper Symbolic Icon Theme
    </dc:title>
   </cc:work>
  </rdf:rdf>
 </metadata>
 <title id="title8473">
  Paper Symbolic Icon Theme
 </title>
 <g id="layer12" transform="translate(-385 -80.997)">
  <path class="ColorScheme-Text" d="m2.3438 0.9375l-1.4063 1.4063 2.1133 2.1132c-2.2001 1.4746-3.0508 3.543-3.0508 3.543s2 5.004 8 5.004c1.1815 0 2.191-0.209 3.076-0.522l2.58 2.58 1.406-1.406-12.718-12.718zm5.6562 2.0664c-0.5239 0-1.0064 0.0496-1.4707 0.1191l1.9199 1.92a3 3 0 0 1 2.5158 2.5156l3.109 3.1094c1.374-1.3022 1.926-2.6641 1.926-2.6641s-2-5-8-5zm-2.6992 3.7031l3.9961 3.996a3 3 0 0 1 -1.2969 0.301 3 3 0 0 1 -3 -3.0001 3 3 0 0 1 0.3008 -1.2969z" id="path2986-2" style="fill:currentColor" transform="translate(385 80.997)">
  </path>
 </g>
</svg>
