<?xml version="1.0" encoding="UTF-8" standalone="no"?>
<!-- Created with Inkscape (http://www.inkscape.org/) -->
<svg height="16" id="svg7384" style="enable-background:new" version="1.1" width="16" xmlns="http://www.w3.org/2000/svg" xmlns:cc="http://creativecommons.org/ns#" xmlns:dc="http://purl.org/dc/elements/1.1/" xmlns:osb="http://www.openswatchbook.org/uri/2009/osb" xmlns:rdf="http://www.w3.org/1999/02/22-rdf-syntax-ns#">
 <defs>
  <style id="current-color-scheme" type="text/css">
   .ColorScheme-Text { color:#555555; }
  </style>
 </defs>
 <metadata id="metadata90">
  <rdf:rdf>
   <cc:work rdf:about="">
    <dc:format>
     image/svg+xml
    </dc:format>
    <dc:type rdf:resource="http://purl.org/dc/dcmitype/StillImage">
    </dc:type>
    <dc:title>
     Paper Symbolic Icon Theme
    </dc:title>
   </cc:work>
  </rdf:rdf>
 </metadata>
 <title id="title8473">
  Paper Symbolic Icon Theme
 </title>
 <g id="layer12" transform="translate(-425 79)">
  <path class="ColorScheme-Text" d="m2.8438 1.0059c-0.2811 0.0437-0.8438 0.2339-0.8438 0.9336v4.5605h11.99c-0.001-0.6953 0.001-1.313 0-1.7617l-3.9959-3.7324h-6.9941s-0.0625-0.01459-0.1562 0zm-1.8438 5.9941v1h1v-1h-1zm2 0v1h1v-1h-1zm2 0v1h1v-1h-1zm2 0v1h1v-1h-1zm2 0v1h1v-1h-1zm2 0v1h1v-1h-1zm2 0v1h1v-1h-1zm2 0v1h1v-1h-1zm-13 2.5v4.566c0 0.933 1 0.934 1 0.934h9.99c0.999 0 1-0.934 1-0.934 0.009-0.021 0.002-2.592 0-4.566h-11.99z" id="path4140" style="fill:currentColor" transform="translate(425 -79)">
  </path>
 </g>
</svg>
