<?xml version="1.0" encoding="UTF-8" standalone="no"?>
<!-- Created with Inkscape (http://www.inkscape.org/) -->
<svg height="16" id="svg3049" version="1.1" width="16" xmlns="http://www.w3.org/2000/svg" xmlns:cc="http://creativecommons.org/ns#" xmlns:dc="http://purl.org/dc/elements/1.1/" xmlns:rdf="http://www.w3.org/1999/02/22-rdf-syntax-ns#">
 <defs id="defs3051">
  <style id="current-color-scheme" type="text/css">
   .ColorScheme-Text {
        color:#4d4d4d;
      }
      .ColorScheme-Background {
        color:#eff0f1;
      }
      .ColorScheme-Highlight {
        color:#3daee9;
      }
      .ColorScheme-ViewText {
        color:#31363b;
      }
      .ColorScheme-ViewBackground {
        color:#fcfcfc;
      }
      .ColorScheme-ViewHover {
        color:#93cee9;
      }
      .ColorScheme-ViewFocus{
        color:#3daee9;
      }
      .ColorScheme-ButtonText {
        color:#31363b;
      }
      .ColorScheme-ButtonBackground {
        color:#eff0f1;
      }
      .ColorScheme-ButtonHover {
        color:#93cee9;
      }
      .ColorScheme-ButtonFocus{
        color:#3daee9;
      }
  </style>
 </defs>
 <metadata id="metadata3054">
  <rdf:rdf>
   <cc:work rdf:about="">
    <dc:format>
     image/svg+xml
    </dc:format>
    <dc:type rdf:resource="http://purl.org/dc/dcmitype/StillImage">
    </dc:type>
    <dc:title>
    </dc:title>
   </cc:work>
  </rdf:rdf>
 </metadata>
 <g id="layer1" transform="translate(-421.71 -531.79)">
  <g id="layer1-0" transform="matrix(.75 0 0 0.75 421.46 -241.23)">
   <text fill="#000000" font-family="Sans" font-size="12px" id="text3781" line-height="125%" style="word-spacing:0px;letter-spacing:0px" transform="scale(1)" x="5.9146366" xml:space="preserve" y="1040.7039">
    <tspan id="tspan3783" x="5.9146366" y="1040.7039">
    </tspan>
   </text>
   <path class="ColorScheme-Text" d="m2.2734 4c-0.7051 0-1.2734 0.5094-1.2734 1.1426v5.7144c0 0.633 0.5683 1.143 1.2734 1.143h11.454c0.705 0 1.273-0.51 1.273-1.143v-5.7144c0-0.6332-0.568-1.1426-1.273-1.1426h-11.454zm7.7266 2h1v3h-5v1l-2-1.5 2-1.5v1h4v-2z" id="path3346" style="fill:currentColor" transform="matrix(1.3333 0 0 1.3333 .33333 1030.7)">
   </path>
  </g>
 </g>
</svg>
