<?xml version="1.0" encoding="UTF-8" standalone="no"?>
<!-- Created with Inkscape (http://www.inkscape.org/) -->
<svg height="16" id="svg7384" style="enable-background:new" version="1.1" width="16" xmlns="http://www.w3.org/2000/svg" xmlns:cc="http://creativecommons.org/ns#" xmlns:dc="http://purl.org/dc/elements/1.1/" xmlns:osb="http://www.openswatchbook.org/uri/2009/osb" xmlns:rdf="http://www.w3.org/1999/02/22-rdf-syntax-ns#">
 <metadata id="metadata90">
  <rdf:rdf>
   <cc:work rdf:about="">
    <dc:format>
     image/svg+xml
    </dc:format>
    <dc:type rdf:resource="http://purl.org/dc/dcmitype/StillImage">
    </dc:type>
    <dc:title>
     Paper Symbolic Icon Theme
    </dc:title>
   </cc:work>
  </rdf:rdf>
 </metadata>
 <title id="title8473">
  Paper Symbolic Icon Theme
 </title>
 <defs id="defs7386">
  <style id="current-color-scheme" type="text/css">
   .ColorScheme-Text { color:#555555; }
  </style>
  <filter id="filter7554" style="color-interpolation-filters:sRGB">
   <feblend id="feBlend7556" in2="BackgroundImage" mode="darken">
   </feblend>
  </filter>
 </defs>
 <g id="layer12" transform="translate(-405 -1)">
  <path class="ColorScheme-Text" d="m2 1.0039s-1 0-1 1v11s0 1 1 1h12s1 0 1-1v-9.0001c0-1-1-1-1-1h-5l-2-2h-5zm9.5 5.9961l1.666 1.2852-1.666 1.2871v-0.8575c-0.92 0-1.666 0.7662-1.666 1.7132s0.746 1.715 1.666 1.715 1.666-0.768 1.666-1.715a0.41663 0.42857 0 0 1 0.418 -0.428 0.41663 0.42857 0 0 1 0.416 0.428 0.41663 0.42857 0 0 1 -0.002 0.043c-0.022 1.4-1.131 2.529-2.498 2.529-1.381 0-2.5-1.152-2.5-2.572 0-1.4204 1.119-2.5706 2.5-2.5706v-0.8574z" id="path5940" style="fill:currentColor" transform="translate(405 1)">
  </path>
  <g id="g4160" style="enable-background:new" transform="translate(339.27 -3.2755)">
  </g>
 </g>
</svg>
