<?xml version="1.0" encoding="UTF-8" standalone="no"?>
<!-- Created with Inkscape (http://www.inkscape.org/) -->
<svg height="16" id="svg7384" style="enable-background:new" version="1.1" width="16" xmlns="http://www.w3.org/2000/svg" xmlns:cc="http://creativecommons.org/ns#" xmlns:dc="http://purl.org/dc/elements/1.1/" xmlns:osb="http://www.openswatchbook.org/uri/2009/osb" xmlns:rdf="http://www.w3.org/1999/02/22-rdf-syntax-ns#">
 <defs>
  <style id="current-color-scheme" type="text/css">
   .ColorScheme-Text { color:#555555; }
  </style>
 </defs>
 <metadata id="metadata90">
  <rdf:rdf>
   <cc:work rdf:about="">
    <dc:format>
     image/svg+xml
    </dc:format>
    <dc:type rdf:resource="http://purl.org/dc/dcmitype/StillImage">
    </dc:type>
    <dc:title>
     Paper Symbolic Icon Theme
    </dc:title>
   </cc:work>
  </rdf:rdf>
 </metadata>
 <title id="title8473">
  Paper Symbolic Icon Theme
 </title>
 <g id="layer12" transform="translate(-467 -141)">
  <path class="ColorScheme-Text" d="m2 2.0039c-1.108 0-2 0.892-2 2v8.0001c0 1.108 0.892 2 2 2h12c1.108 0 2-0.892 2-2v-8.0001c0-1.108-0.892-2-2-2h-12zm10.525 1.9063c0.38 0.0343 0.659 0.3086 0.659 0.3086s0.72 0.7263 0 1.414v0.002l-6.3637 6.3652-3.5371-3.5371c-0.3776-0.359-0.3776-1.0571 0-1.416 0.3776-0.359 1.0365-0.359 1.4141 0l2.1211 2.123 4.9496-4.9511c0.264-0.2642 0.529-0.3293 0.757-0.3086z" id="path4142" style="fill:currentColor" transform="translate(467 141)">
  </path>
  <g id="g4162" style="enable-background:new" transform="matrix(1.0034 0 0 .95377 466.96 141.12)">
  </g>
 </g>
</svg>
