<?xml version="1.0" encoding="UTF-8" standalone="no"?>
<!-- Created with Inkscape (http://www.inkscape.org/) -->
<svg height="16" id="svg7384" style="enable-background:new" version="1.1" width="16" xmlns="http://www.w3.org/2000/svg" xmlns:cc="http://creativecommons.org/ns#" xmlns:dc="http://purl.org/dc/elements/1.1/" xmlns:osb="http://www.openswatchbook.org/uri/2009/osb" xmlns:rdf="http://www.w3.org/1999/02/22-rdf-syntax-ns#">
 <metadata id="metadata90">
  <rdf:rdf>
   <cc:work rdf:about="">
    <dc:format>
     image/svg+xml
    </dc:format>
    <dc:type rdf:resource="http://purl.org/dc/dcmitype/StillImage">
    </dc:type>
    <dc:title>
     Paper Symbolic Icon Theme
    </dc:title>
   </cc:work>
  </rdf:rdf>
 </metadata>
 <title id="title8473">
  Paper Symbolic Icon Theme
 </title>
 <defs id="defs7386">
  <style id="current-color-scheme" type="text/css">
   .ColorScheme-Text { color:#555555; }
  </style>
  <filter id="filter7554" style="color-interpolation-filters:sRGB">
   <feblend id="feBlend7556" in2="BackgroundImage" mode="darken">
   </feblend>
  </filter>
 </defs>
 <g filter="url(#filter7554)" id="layer10" transform="translate(-385 119)">
  <path class="ColorScheme-Text" d="m8 0.0019531c-1.6621 0-3 1.3381-3 3v5.002c0 1.6619 1.3379 2.998 3 2.998s3-1.3362 3-2.998v-5.002c0-1.6619-1.3379-3-3-3zm-6 7.0039v0.998c0.00001 2.9652 2.168 5.4276 5 5.9062v2.0918h2v-2.0918c2.832-0.47866 5-2.9411 5-5.9062v-0.99805h-2v0.99805c0 2.2331-1.7666 3.998-4 3.998s-4-1.7649-4-3.998v-0.99805h-2z" id="path4150" style="fill:currentColor" transform="translate(385 -119)">
  </path>
 </g>
</svg>
