<?xml version="1.0" encoding="UTF-8" standalone="no"?>
<!-- Created with Inkscape (http://www.inkscape.org/) -->
<svg height="16" id="svg7384" inkscape:version="0.91 r13725" sodipodi:docname="playlist-queue.svg" style="enable-background:new" version="1.1" width="16" xmlns="http://www.w3.org/2000/svg" xmlns:cc="http://creativecommons.org/ns#" xmlns:dc="http://purl.org/dc/elements/1.1/" xmlns:inkscape="http://www.inkscape.org/namespaces/inkscape" xmlns:rdf="http://www.w3.org/1999/02/22-rdf-syntax-ns#" xmlns:sodipodi="http://sodipodi.sourceforge.net/DTD/sodipodi-0.dtd" xmlns:svg="http://www.w3.org/2000/svg">
 <defs id="defs9">
  <style id="current-color-scheme" type="text/css">
   .ColorScheme-Text { color:#555555; }
  </style>
 </defs>
 <sodipodi:namedview bordercolor="#666666" borderopacity="1" gridtolerance="10" guidetolerance="10" id="namedview7" inkscape:current-layer="svg7384" inkscape:cx="5.8737809" inkscape:cy="7.8397724" inkscape:pageopacity="0" inkscape:pageshadow="2" inkscape:window-height="876" inkscape:window-maximized="1" inkscape:window-width="1535" inkscape:window-x="65" inkscape:window-y="24" inkscape:zoom="17.31" objecttolerance="10" pagecolor="#ffffff" showgrid="false">
 </sodipodi:namedview>
 <metadata id="metadata90">
  <rdf:rdf>
   <cc:work rdf:about="">
    <dc:format>
     image/svg+xml
    </dc:format>
    <dc:type rdf:resource="http://purl.org/dc/dcmitype/StillImage">
    </dc:type>
    <dc:title>
     Paper Symbolic Icon Theme
    </dc:title>
   </cc:work>
  </rdf:rdf>
 </metadata>
 <title id="title8473">
  Paper Symbolic Icon Theme
 </title>
 <path class="ColorScheme-Text" d="M 1 1 L 1 3 L 15 3 L 15 1 L 1 1 z M 9 5 L 9 7 L 9 13 L 9 15 L 14 15 L 14 16 L 16 16 L 16 14 L 15 14 L 15 13 L 15 7 L 15 5 L 9 5 z M 1 5.0039062 L 1 7.0039062 L 7 7.0039062 L 7 5.0039062 L 1 5.0039062 z M 11 7 L 13 7 L 13 13 L 11 13 L 11 7 z M 1 9.0039062 L 1 11.003906 L 7 11.003906 L 7 9.0039062 L 1 9.0039062 z M 1 13 L 1 15 L 7 15 L 7 13 L 1 13 z " id="rect10753" style="fill:currentColor">
 </path>
</svg>
