<?xml version="1.0" encoding="UTF-8" standalone="no"?>
<!-- Created with Inkscape (http://www.inkscape.org/) -->
<svg height="16" id="svg7384" style="enable-background:new" version="1.1" width="16" xmlns="http://www.w3.org/2000/svg" xmlns:cc="http://creativecommons.org/ns#" xmlns:dc="http://purl.org/dc/elements/1.1/" xmlns:osb="http://www.openswatchbook.org/uri/2009/osb" xmlns:rdf="http://www.w3.org/1999/02/22-rdf-syntax-ns#">
 <defs>
  <style id="current-color-scheme" type="text/css">
   .ColorScheme-Text { color:#555555; }
  </style>
 </defs>
 <metadata id="metadata90">
  <rdf:rdf>
   <cc:work rdf:about="">
    <dc:format>
     image/svg+xml
    </dc:format>
    <dc:type rdf:resource="http://purl.org/dc/dcmitype/StillImage">
    </dc:type>
    <dc:title>
     Paper Symbolic Icon Theme
    </dc:title>
   </cc:work>
  </rdf:rdf>
 </metadata>
 <title id="title8473">
  Paper Symbolic Icon Theme
 </title>
 <g id="layer12" transform="translate(-585 -41)">
  <path class="ColorScheme-Text" d="m2 1c-1 0-1 1-1 1v12c0 1 1 1 1 1h7v-2h-6v-0.844-1.656-4.5h10v3h2v-7c0-1-1-1-1-1h-12zm9.414 9.344l-1.414 1.414 1.414 1.414-1.414 1.414 1.414 1.414 1.414-1.414 1.414 1.414 1.414-1.414-1.414-1.414 1.414-1.414-1.414-1.414-1.414 1.414-1.414-1.414z" id="path6716-1" style="fill:currentColor" transform="translate(585 41)">
  </path>
 </g>
</svg>
