<?xml version="1.0" encoding="UTF-8" standalone="no"?>
<!-- Created with Inkscape (http://www.inkscape.org/) -->
<svg height="16" id="svg4355" inkscape:version="0.91 r13725" sodipodi:docname="raindrop.svg" version="1.1" width="16" xmlns="http://www.w3.org/2000/svg" xmlns:cc="http://creativecommons.org/ns#" xmlns:dc="http://purl.org/dc/elements/1.1/" xmlns:inkscape="http://www.inkscape.org/namespaces/inkscape" xmlns:rdf="http://www.w3.org/1999/02/22-rdf-syntax-ns#" xmlns:sodipodi="http://sodipodi.sourceforge.net/DTD/sodipodi-0.dtd" xmlns:svg="http://www.w3.org/2000/svg">
 <defs id="defs4357">
  <style id="current-color-scheme" type="text/css">
   .ColorScheme-Text {
        color:#4d4d4d;
      }
      .ColorScheme-Background {
        color:#eff0f1;
      }
      .ColorScheme-Highlight {
        color:#3daee9;
      }
      .ColorScheme-ViewText {
        color:#31363b;
      }
      .ColorScheme-ViewBackground {
        color:#fcfcfc;
      }
      .ColorScheme-ViewHover {
        color:#93cee9;
      }
      .ColorScheme-ViewFocus{
        color:#3daee9;
      }
      .ColorScheme-ButtonText {
        color:#31363b;
      }
      .ColorScheme-ButtonBackground {
        color:#eff0f1;
      }
      .ColorScheme-ButtonHover {
        color:#93cee9;
      }
      .ColorScheme-ButtonFocus{
        color:#3daee9;
      }
  </style>
  <clippath clippathunits="userSpaceOnUse" id="clipPath4160">
   <rect height="1" id="rect4162" style="opacity:1;fill:#f2f2f2;fill-opacity:1;stroke:none;stroke-opacity:1" width="1" x="7" y="1023.3622">
   </rect>
  </clippath>
 </defs>
 <sodipodi:namedview bordercolor="#666666" borderopacity="1.0" fit-margin-bottom="0" fit-margin-left="0" fit-margin-right="0" fit-margin-top="0" height="0px" id="base" inkscape:current-layer="layer1" inkscape:cx="-17.574596" inkscape:cy="11.519569" inkscape:document-units="px" inkscape:guide-bbox="true" inkscape:object-nodes="true" inkscape:pageopacity="0.0" inkscape:pageshadow="2" inkscape:showpageshadow="false" inkscape:snap-bbox="true" inkscape:snap-global="true" inkscape:window-height="847" inkscape:window-maximized="1" inkscape:window-width="1600" inkscape:window-x="0" inkscape:window-y="30" inkscape:zoom="11.707099" pagecolor="#000000" showgrid="false" showguides="false" width="0px">
  <inkscape:grid id="grid4114" type="xygrid">
  </inkscape:grid>
  <sodipodi:guide id="guide4120" orientation="18,0" position="2,13">
  </sodipodi:guide>
  <sodipodi:guide id="guide4122" orientation="0,18" position="2.0000011,1.9999962">
  </sodipodi:guide>
  <sodipodi:guide id="guide4124" orientation="-18,0" position="20.000001,1.9999962">
  </sodipodi:guide>
  <sodipodi:guide id="guide4126" orientation="0,-18" position="20.000001,19.999996">
  </sodipodi:guide>
  <sodipodi:guide id="guide4128" orientation="16,0" position="3,6">
  </sodipodi:guide>
  <sodipodi:guide id="guide4130" orientation="0,16" position="3.0000011,2.9999962">
  </sodipodi:guide>
  <sodipodi:guide id="guide4134" orientation="0,-16" position="6,19">
  </sodipodi:guide>
  <sodipodi:guide id="guide4431" orientation="1,0" position="19,11">
  </sodipodi:guide>
 </sodipodi:namedview>
 <metadata id="metadata4360">
  <rdf:rdf>
   <cc:work rdf:about="">
    <dc:format>
     image/svg+xml
    </dc:format>
    <dc:type rdf:resource="http://purl.org/dc/dcmitype/StillImage">
    </dc:type>
    <dc:title>
    </dc:title>
   </cc:work>
  </rdf:rdf>
 </metadata>
 <g id="layer1" inkscape:groupmode="layer" inkscape:label="Capa 1" transform="translate(-544.57141,-748.93359)">
  <path class="ColorScheme-Text" d="m 552.57141,748.93359 c -0.48646,1.7025 -1.66257,3.17195 -2.1875,4.34375 -0.1837,0.3484 -0.3125,0.73355 -0.3125,1.15625 0,1.385 1.115,2.5 2.5,2.5 1.385,0 2.5,-1.115 2.5,-2.5 0,-0.4227 -0.0975,-0.80785 -0.28125,-1.15625 -0.52491,-1.1718 -1.7323,-2.64125 -2.21875,-4.34375 z m -4.5,8 c -0.48646,1.7025 -1.66257,3.17195 -2.1875,4.34375 -0.1837,0.3484 -0.3125,0.73355 -0.3125,1.15625 0,1.385 1.115,2.5 2.5,2.5 1.385,0 2.5,-1.115 2.5,-2.5 0,-0.4227 -0.0975,-0.80785 -0.28125,-1.15625 -0.52491,-1.1718 -1.7323,-2.64125 -2.21875,-4.34375 z m 9,0 c -0.48646,1.7025 -1.66257,3.17195 -2.1875,4.34375 -0.1837,0.3484 -0.3125,0.73355 -0.3125,1.15625 0,1.385 1.115,2.5 2.5,2.5 1.385,0 2.5,-1.115 2.5,-2.5 0,-0.4227 -0.0975,-0.80785 -0.28125,-1.15625 -0.52491,-1.1718 -1.7323,-2.64125 -2.21875,-4.34375 z" id="rect4151" inkscape:connector-curvature="0" style="fill:currentColor">
  </path>
 </g>
</svg>
