<?xml version="1.0" encoding="UTF-8" standalone="no"?>
<!-- Created with Inkscape (http://www.inkscape.org/) -->
<svg height="16" id="svg7384" style="enable-background:new" version="1.1" width="16" xmlns="http://www.w3.org/2000/svg" xmlns:cc="http://creativecommons.org/ns#" xmlns:dc="http://purl.org/dc/elements/1.1/" xmlns:osb="http://www.openswatchbook.org/uri/2009/osb" xmlns:rdf="http://www.w3.org/1999/02/22-rdf-syntax-ns#">
 <metadata id="metadata90">
  <rdf:rdf>
   <cc:work rdf:about="">
    <dc:format>
     image/svg+xml
    </dc:format>
    <dc:type rdf:resource="http://purl.org/dc/dcmitype/StillImage">
    </dc:type>
    <dc:title>
     Paper Symbolic Icon Theme
    </dc:title>
   </cc:work>
  </rdf:rdf>
 </metadata>
 <title id="title8473">
  Paper Symbolic Icon Theme
 </title>
 <defs id="defs7386">
  <style id="current-color-scheme" type="text/css">
   .ColorScheme-Text { color:#555555; }
  </style>
  <filter id="filter7554" style="color-interpolation-filters:sRGB">
   <feblend id="feBlend7556" in2="BackgroundImage" mode="darken">
   </feblend>
  </filter>
 </defs>
 <g id="g6058" transform="translate(-564,-508)">
  <path class="ColorScheme-Text" d="m3 1c-2.25 0-2 2-2 2v4h2v-4h10v4h2v-4c0-2-2-2-2-2h-10zm1 3v2h2v-2h-2zm3 0v2h2v-2h-2zm3 0v2h2v-2h-2zm-7 5v2h-2v2h2v2h2v-2h2v-2h-2v-2h-2zm6 0c-0.554 0-1 0.5344-1 1.199v3.602c0 0.665 0.446 1.199 1 1.199h5c0.554 0 1-0.534 1-1.199v-3.602c0-0.6646-0.446-1.199-1-1.199h-5z" id="path6716" style="fill:currentColor" transform="translate(564,508)">
  </path>
 </g>
</svg>
