<?xml version="1.0" encoding="UTF-8" standalone="no"?>
<!-- Created with Inkscape (http://www.inkscape.org/) -->
<svg height="16" id="svg3049" inkscape:export-filename="/home/uri/.kde/share/icons/NITRUX-KDE/16x16/actions/view-right-new.png" inkscape:export-xdpi="30" inkscape:export-ydpi="30" inkscape:version="0.91 r13725" sodipodi:docname="svn-commit.svg" version="1.1" viewbox="0 0 16 16" width="16" xmlns="http://www.w3.org/2000/svg" xmlns:cc="http://creativecommons.org/ns#" xmlns:dc="http://purl.org/dc/elements/1.1/" xmlns:inkscape="http://www.inkscape.org/namespaces/inkscape" xmlns:rdf="http://www.w3.org/1999/02/22-rdf-syntax-ns#" xmlns:sodipodi="http://sodipodi.sourceforge.net/DTD/sodipodi-0.dtd" xmlns:svg="http://www.w3.org/2000/svg">
 <defs id="defs3051">
  <style id="current-color-scheme" type="text/css">
   .ColorScheme-Text {
        color:#4d4d4d;
      }
      .ColorScheme-Background {
        color:#eff0f1;
      }
      .ColorScheme-Highlight {
        color:#3daee9;
      }
      .ColorScheme-ViewText {
        color:#31363b;
      }
      .ColorScheme-ViewBackground {
        color:#fcfcfc;
      }
      .ColorScheme-ViewHover {
        color:#93cee9;
      }
      .ColorScheme-ViewFocus{
        color:#3daee9;
      }
      .ColorScheme-ButtonText {
        color:#31363b;
      }
      .ColorScheme-ButtonBackground {
        color:#eff0f1;
      }
      .ColorScheme-ButtonHover {
        color:#93cee9;
      }
      .ColorScheme-ButtonFocus{
        color:#3daee9;
      }
  </style>
 </defs>
 <sodipodi:namedview bordercolor="#666666" borderlayer="true" borderopacity="1.0" fit-margin-bottom="0" fit-margin-left="0" fit-margin-right="0" fit-margin-top="0" id="base" inkscape:current-layer="layer1" inkscape:cx="-8.3262774" inkscape:cy="6.519839" inkscape:document-units="px" inkscape:pageopacity="0.0" inkscape:pageshadow="2" inkscape:showpageshadow="false" inkscape:snap-bbox="true" inkscape:window-height="847" inkscape:window-maximized="1" inkscape:window-width="1600" inkscape:window-x="0" inkscape:window-y="30" inkscape:zoom="21.31" pagecolor="#000000" showgrid="false" showguides="false">
  <inkscape:grid id="grid4085" type="xygrid">
  </inkscape:grid>
  <sodipodi:guide id="guide4075" orientation="12,0" position="2.0000044,14.00003">
  </sodipodi:guide>
  <sodipodi:guide id="guide4077" orientation="0,12" position="2.0000044,2.0000296">
  </sodipodi:guide>
  <sodipodi:guide id="guide4079" orientation="-12,0" position="14.000004,2.0000296">
  </sodipodi:guide>
  <sodipodi:guide id="guide4081" orientation="0,-12" position="14.000004,14.00003">
  </sodipodi:guide>
 </sodipodi:namedview>
 <metadata id="metadata3054">
  <rdf:rdf>
   <cc:work rdf:about="">
    <dc:format>
     image/svg+xml
    </dc:format>
    <dc:type rdf:resource="http://purl.org/dc/dcmitype/StillImage">
    </dc:type>
    <dc:title>
    </dc:title>
   </cc:work>
  </rdf:rdf>
 </metadata>
 <g id="layer1" inkscape:groupmode="layer" inkscape:label="Capa 1" transform="translate(-421.71429,-531.79074)">
  <path class="ColorScheme-Text" d="M 3.5,1 C 2.1192881,1 1,2.1192881 1,3.5 1.0001287,4.6878781 1.8361219,5.7116432 3,5.9492188 L 3,9.953125 c -1.1631597,0.237428 -1.9989439,1.260122 -2,2.447266 0,1.380712 1.1192881,2.5 2.5,2.5 1.3807119,0 2.5,-1.119288 2.5,-2.5 C 5.9998714,11.212513 5.1638782,10.188748 4,9.9511719 L 4,5.9453125 C 4.3898627,5.8671079 4.755448,5.6970371 5.0664062,5.4492188 L 6.2792969,6.3574219 C 6.096653,6.7106484 6.0009041,7.1023482 6,7.5 6,8.8807119 7.1192881,10 8.5,10 9.8807119,10 11,8.8807119 11,7.5 11,6.1192881 9.8807119,5 8.5,5 7.9080423,5.001075 7.3356707,5.2121673 6.8847656,5.5957031 L 5.6914062,4.703125 C 5.8938436,4.3344289 5.999984,3.9206159 6,3.5 6,2.1192881 4.8807119,1 3.5,1 Z m 8,8 L 11.28125,9.1875 8,12 l 2,0 0,3 3,0 0,-3 2,0 -3.28125,-2.8125 z" id="path4148" inkscape:connector-curvature="0" sodipodi:nodetypes="sccccsccccccssccccscccccccccc" style="fill:currentColor" transform="translate(421.71429,531.79074)">
  </path>
  <rect class="ColorScheme-Text" height="10.999983" id="rect4035" style="fill:currentColor;fill-opacity:1;stroke:none" width="0" x="404.71429" y="534.79071">
  </rect>
 </g>
</svg>
