<?xml version="1.0" encoding="UTF-8" standalone="no"?>
<!-- Created with Inkscape (http://www.inkscape.org/) -->
<svg height="16" id="svg3049" inkscape:export-filename="/home/uri/.kde/share/icons/NITRUX-KDE/16x16/actions/view-right-new.png" inkscape:export-xdpi="30" inkscape:export-ydpi="30" inkscape:version="0.91 r13725" sodipodi:docname="svn-update.svg" version="1.1" viewbox="0 0 16 16" width="16" xmlns="http://www.w3.org/2000/svg" xmlns:cc="http://creativecommons.org/ns#" xmlns:dc="http://purl.org/dc/elements/1.1/" xmlns:inkscape="http://www.inkscape.org/namespaces/inkscape" xmlns:rdf="http://www.w3.org/1999/02/22-rdf-syntax-ns#" xmlns:sodipodi="http://sodipodi.sourceforge.net/DTD/sodipodi-0.dtd" xmlns:svg="http://www.w3.org/2000/svg">
 <defs id="defs3051">
  <style id="current-color-scheme" type="text/css">
   .ColorScheme-Text {
        color:#4d4d4d;
      }
      .ColorScheme-Background {
        color:#eff0f1;
      }
      .ColorScheme-Highlight {
        color:#3daee9;
      }
      .ColorScheme-ViewText {
        color:#31363b;
      }
      .ColorScheme-ViewBackground {
        color:#fcfcfc;
      }
      .ColorScheme-ViewHover {
        color:#93cee9;
      }
      .ColorScheme-ViewFocus{
        color:#3daee9;
      }
      .ColorScheme-ButtonText {
        color:#31363b;
      }
      .ColorScheme-ButtonBackground {
        color:#eff0f1;
      }
      .ColorScheme-ButtonHover {
        color:#93cee9;
      }
      .ColorScheme-ButtonFocus{
        color:#3daee9;
      }
  </style>
 </defs>
 <sodipodi:namedview bordercolor="#666666" borderlayer="true" borderopacity="1.0" fit-margin-bottom="0" fit-margin-left="0" fit-margin-right="0" fit-margin-top="0" id="base" inkscape:current-layer="layer1" inkscape:cx="-12.306755" inkscape:cy="6.519839" inkscape:document-units="px" inkscape:pageopacity="0.0" inkscape:pageshadow="2" inkscape:showpageshadow="false" inkscape:snap-bbox="true" inkscape:window-height="847" inkscape:window-maximized="1" inkscape:window-width="1600" inkscape:window-x="0" inkscape:window-y="30" inkscape:zoom="14.06" pagecolor="#000000" showgrid="false" showguides="false">
  <inkscape:grid id="grid4085" type="xygrid">
  </inkscape:grid>
  <sodipodi:guide id="guide4075" orientation="12,0" position="2.0000044,14.00003">
  </sodipodi:guide>
  <sodipodi:guide id="guide4077" orientation="0,12" position="2.0000044,2.0000296">
  </sodipodi:guide>
  <sodipodi:guide id="guide4079" orientation="-12,0" position="14.000004,2.0000296">
  </sodipodi:guide>
  <sodipodi:guide id="guide4081" orientation="0,-12" position="14.000004,14.00003">
  </sodipodi:guide>
 </sodipodi:namedview>
 <metadata id="metadata3054">
  <rdf:rdf>
   <cc:work rdf:about="">
    <dc:format>
     image/svg+xml
    </dc:format>
    <dc:type rdf:resource="http://purl.org/dc/dcmitype/StillImage">
    </dc:type>
    <dc:title>
    </dc:title>
   </cc:work>
  </rdf:rdf>
 </metadata>
 <g id="layer1" inkscape:groupmode="layer" inkscape:label="Capa 1" transform="translate(-421.71429,-531.79074)">
  <path class="ColorScheme-Text" d="m 425.21429,532.79074 c -1.38071,0 -2.5,1.11929 -2.5,2.5 1.3e-4,1.18788 0.83612,2.21164 2,2.44922 l 0,4.00391 c -1.16316,0.23742 -1.99894,1.26012 -2,2.44726 0,1.38071 1.11929,2.5 2.5,2.5 1.38071,0 2.5,-1.11929 2.5,-2.5 -1.3e-4,-1.18788 -0.83612,-2.21164 -2,-2.44922 l 0,-4.00586 c 0.38986,-0.0782 0.75545,-0.24827 1.06641,-0.49609 l 1.21289,0.9082 c -0.18265,0.35323 -0.2784,0.74493 -0.2793,1.14258 0,1.38071 1.11929,2.5 2.5,2.5 0.56529,0 1.08123,-0.19536 1.5,-0.51172 l 0,2.51172 -2,0 3.28125,2.8125 0.21875,0.1875 0.21875,-0.1875 3.28125,-2.8125 -2,0 0,-3 -2.51172,0 c 0.31636,-0.41877 0.51172,-0.93471 0.51172,-1.5 0,-1.38071 -1.11929,-2.5 -2.5,-2.5 -0.59196,10e-4 -1.16433,0.21217 -1.61523,0.5957 l -1.19336,-0.89257 c 0.20243,-0.3687 0.30857,-0.78251 0.30859,-1.20313 0,-1.38071 -1.11929,-2.5 -2.5,-2.5 z" id="path4198" inkscape:connector-curvature="0" style="fill:currentColor">
  </path>
  <rect class="ColorScheme-Text" height="10.999983" id="rect4035" style="color:#4d4d4d;fill:currentColor;fill-opacity:1;stroke:none" width="0" x="404.71429" y="534.79071">
  </rect>
 </g>
</svg>
