<?xml version="1.0" encoding="UTF-8" standalone="no"?>
<!-- Created with Inkscape (http://www.inkscape.org/) -->
<svg height="16" id="svg3049" version="1.1" width="16" xmlns="http://www.w3.org/2000/svg" xmlns:cc="http://creativecommons.org/ns#" xmlns:dc="http://purl.org/dc/elements/1.1/" xmlns:rdf="http://www.w3.org/1999/02/22-rdf-syntax-ns#">
 <defs id="defs3051">
  <style id="current-color-scheme" type="text/css">
   .ColorScheme-Text {
        color:#4d4d4d;
      }
      .ColorScheme-Background {
        color:#eff0f1;
      }
      .ColorScheme-Highlight {
        color:#3daee9;
      }
      .ColorScheme-ViewText {
        color:#31363b;
      }
      .ColorScheme-ViewBackground {
        color:#fcfcfc;
      }
      .ColorScheme-ViewHover {
        color:#93cee9;
      }
      .ColorScheme-ViewFocus{
        color:#3daee9;
      }
      .ColorScheme-ButtonText {
        color:#31363b;
      }
      .ColorScheme-ButtonBackground {
        color:#eff0f1;
      }
      .ColorScheme-ButtonHover {
        color:#93cee9;
      }
      .ColorScheme-ButtonFocus{
        color:#3daee9;
      }
  </style>
 </defs>
 <metadata id="metadata3054">
  <rdf:rdf>
   <cc:work rdf:about="">
    <dc:format>
     image/svg+xml
    </dc:format>
    <dc:type rdf:resource="http://purl.org/dc/dcmitype/StillImage">
    </dc:type>
    <dc:title>
    </dc:title>
   </cc:work>
  </rdf:rdf>
 </metadata>
 <g id="layer1" transform="translate(-421.71 -531.79)">
  <rect class="ColorScheme-Text" fill="currentColor" height="11" id="rect4035" width="0" x="417.71" y="534.79">
  </rect>
  <rect class="ColorScheme-Text" fill="currentColor" height="11" id="rect4035-2" width="0" x="411.57" y="535.06">
  </rect>
  <rect class="ColorScheme-Text" fill="currentColor" height="11" id="rect4035-5" width="0" x="429.61" y="533.01">
  </rect>
  <rect class="ColorScheme-Text" fill="currentColor" height="11" id="rect4035-8" width="0" x="411.57" y="535.06">
  </rect>
  <rect class="ColorScheme-Text" fill="currentColor" height="11" id="rect4035-59" width="0" x="411.57" y="535.06">
  </rect>
  <text class="ColorScheme-Text" fill="currentColor" font-family="Sans" font-size="9px" id="text3781" line-height="125%" style="word-spacing:0px;letter-spacing:0px" x="427.01001" xml:space="preserve" y="547.81396">
   <tspan id="tspan3783" x="427.01001" y="547.81396">
   </tspan>
  </text>
  <text class="ColorScheme-Text" fill="currentColor" font-family="Sans" font-size="9px" id="text3781-8" line-height="125%" style="word-spacing:0px;letter-spacing:0px" x="427.7467" xml:space="preserve" y="541.95062">
   <tspan id="tspan3783-1" x="427.7467" y="541.95062">
   </tspan>
  </text>
  <text class="ColorScheme-Text" fill="currentColor" font-family="Sans" font-size="9px" id="text3781-4" line-height="125%" style="word-spacing:0px;letter-spacing:0px" x="421.01001" xml:space="preserve" y="548.81396">
   <tspan id="tspan3783-13" x="421.01001" y="548.81396">
   </tspan>
  </text>
  <rect class="ColorScheme-Text" fill="currentColor" height="11" id="rect4035-9" width="0" x="411.57" y="535.06">
  </rect>
  <rect class="ColorScheme-Text" fill="currentColor" height="11" id="rect4035-5-7" width="0" x="429.61" y="533.01">
  </rect>
  <rect class="ColorScheme-Text" fill="currentColor" height="11" id="rect4035-9-0" width="0" x="391.57" y="535.06">
  </rect>
  <rect class="ColorScheme-Text" fill="currentColor" height="11" id="rect4035-5-7-5" width="0" x="409.61" y="533.01">
  </rect>
  <path class="ColorScheme-Text" d="m1 1v5h1 1.5c0.8284 0 1.5-0.6716 1.5-1.5 0-0.5333-0.2682-1.0153-0.6875-1.2812 0.1155-0.2126 0.1875-0.4599 0.1875-0.7188 0-0.8284-0.6716-1.5-1.5-1.5h-1-0.5-0.5zm10 0v5h1 1.5c0.828 0 1.5-0.6716 1.5-1.5v-2c0-0.8284-0.672-1.5-1.5-1.5h-1.5-1zm-9 1h1c0.2761 0 0.5 0.2239 0.5 0.5s-0.2239 0.5-0.5 0.5h-1v-1zm10 0h1.5c0.276 0 0.5 0.2239 0.5 0.5v0.5938 0.8124 0.5938c0 0.2761-0.224 0.5-0.5 0.5h-1.5v-3zm-6 1v1h3v-1h-3zm-4 1h1.5c0.2761 0 0.5 0.2239 0.5 0.5s-0.2239 0.5-0.5 0.5h-1.5v-1zm-1 4v2h4v-2h-4zm6 0v2h2v-2h-2zm4 0v2h4v-2h-4zm-5 4l-4 1.5 4 1.5v-3zm4 0v3l4-1.5-4-1.5zm-2 1c-0.2761 0-0.5 0.224-0.5 0.5s0.2239 0.5 0.5 0.5 0.5-0.224 0.5-0.5-0.2239-0.5-0.5-0.5z" id="rect4749" style="fill:currentColor" transform="translate(421.71 531.79)">
  </path>
 </g>
</svg>
