<?xml version="1.0" encoding="UTF-8" standalone="no"?>
<!-- Created with Inkscape (http://www.inkscape.org/) -->
<svg height="16" id="svg7384" style="enable-background:new" version="1.1" width="16" xmlns="http://www.w3.org/2000/svg" xmlns:cc="http://creativecommons.org/ns#" xmlns:dc="http://purl.org/dc/elements/1.1/" xmlns:osb="http://www.openswatchbook.org/uri/2009/osb" xmlns:rdf="http://www.w3.org/1999/02/22-rdf-syntax-ns#">
 <defs>
  <style id="current-color-scheme" type="text/css">
   .ColorScheme-Text { color:#555555; }
  </style>
 </defs>
 <metadata id="metadata90">
  <rdf:rdf>
   <cc:work rdf:about="">
    <dc:format>
     image/svg+xml
    </dc:format>
    <dc:type rdf:resource="http://purl.org/dc/dcmitype/StillImage">
    </dc:type>
    <dc:title>
     Paper Symbolic Icon Theme
    </dc:title>
   </cc:work>
  </rdf:rdf>
 </metadata>
 <title id="title8473">
  Paper Symbolic Icon Theme
 </title>
 <g id="layer12" transform="translate(-385 -61)">
  <path class="ColorScheme-Text" d="m6 1l-5 14h2.5l1.0625-3h3.4629a3.5 3.5 0 0 1 2.9706 -3.0605l-2.996-7.9395h-2zm1 4l1.75 5h-3.5l1.75-5zm4.5 4v0.8574c-1.381 0-2.5 1.1506-2.5 2.5706s1.119 2.572 2.5 2.572c1.367 0 2.476-1.129 2.498-2.529a0.41663 0.42857 0 0 0 0.002 -0.043 0.41663 0.42857 0 0 0 -0.416 -0.428 0.41663 0.42857 0 0 0 -0.418 0.428c0 0.947-0.746 1.715-1.666 1.715s-1.666-0.768-1.666-1.715 0.746-1.713 1.666-1.713v0.857l1.666-1.287-1.666-1.285z" id="path5940" style="fill:currentColor" transform="translate(385 61)">
  </path>
 </g>
</svg>
