<?xml version="1.0" encoding="UTF-8" standalone="no"?>
<!-- Created with Inkscape (http://www.inkscape.org/) -->
<svg height="16" id="svg6654" version="1.1" viewbox="0 0 16 16" width="16" xmlns="http://www.w3.org/2000/svg" xmlns:cc="http://creativecommons.org/ns#" xmlns:dc="http://purl.org/dc/elements/1.1/" xmlns:rdf="http://www.w3.org/1999/02/22-rdf-syntax-ns#">
 <defs>
  <style id="current-color-scheme" type="text/css">
   .ColorScheme-Text { color:#555555; }
  </style>
 </defs>
 <metadata id="metadata6659">
  <rdf:rdf>
   <cc:work rdf:about="">
    <dc:format>
     image/svg+xml
    </dc:format>
    <dc:type rdf:resource="http://purl.org/dc/dcmitype/StillImage">
    </dc:type>
    <dc:title>
    </dc:title>
   </cc:work>
  </rdf:rdf>
 </metadata>
 <g id="layer1" transform="translate(0 -1036.4)">
  <rect fill="none" height="24" id="rect10524" style="color:#000000" width="24" x="0" y="1028.4">
  </rect>
  <rect fill="none" height="16" id="rect4400" style="color:#000000" width="16" x="-3.6116e-7" y="1036.4">
  </rect>
  <path class="ColorScheme-Text" d="m9.248 1037.4c-1.7665 0.369-2.6182 2.2836-3.1591 3.9463-0.47305 1.5104-0.9212 3.3581-2.4398 4.0177-0.65864 0.2595-1.9297 0.3642-2.6302 0.2558l-0.018964 5.7207 14 0.04v-5.7206c-1.8131 0.286-3.8598 0.2438-5.3537-0.9825-1.3137-1.1284-1.7454-3.4033-0.79652-4.9119 0.94537-1.1256 2.9102-0.6564 3.5274 0.6016 0.51081 0.266 0.34556-0.5043 0.2603-0.8069-0.41066-1.4431-1.9694-2.3236-3.3895-2.1603z" id="path4416" style="fill:currentColor">
  </path>
 </g>
</svg>
