<?xml version="1.0" encoding="UTF-8" standalone="no"?>
<!-- Created with Inkscape (http://www.inkscape.org/) -->
<svg height="16" id="svg6654" version="1.1" viewbox="0 0 16 16" width="16" xmlns="http://www.w3.org/2000/svg" xmlns:cc="http://creativecommons.org/ns#" xmlns:dc="http://purl.org/dc/elements/1.1/" xmlns:rdf="http://www.w3.org/1999/02/22-rdf-syntax-ns#">
 <defs>
  <style id="current-color-scheme" type="text/css">
   .ColorScheme-Text { color:#555555; }
  </style>
 </defs>
 <metadata id="metadata6659">
  <rdf:rdf>
   <cc:work rdf:about="">
    <dc:format>
     image/svg+xml
    </dc:format>
    <dc:type rdf:resource="http://purl.org/dc/dcmitype/StillImage">
    </dc:type>
    <dc:title>
    </dc:title>
   </cc:work>
  </rdf:rdf>
 </metadata>
 <g id="layer1" transform="translate(0 -1036.4)">
  <rect fill="none" height="24" id="rect10524" style="color:#000000" width="24" x="0" y="1028.4">
  </rect>
  <path class="ColorScheme-Text" d="m11 0v1.5547c-0.363 0.0213-0.723 0.0405-1.1152 0.0781-1.2789 0.1227-2.6619 0.329-3.8848 0.7305v-0.3633h-4v4h0.127c-0.5694 1.3541-0.92 2.9317-1.1622 4.391-0.03542 0.213-0.05555 0.402-0.08589 0.609h-0.87891v4h1l0.5 0.012v-0.012h2.5v-4h-2.1113c0.0231-0.154 0.0365-0.291 0.0625-0.447 0.2605-1.5694 0.698-3.2569 1.3047-4.553h2.7441v-2.5508c1.1634-0.4239 2.6276-0.6925 3.9805-0.8222 0.3575-0.0344 0.6855-0.052 1.0195-0.0723v1.4453h4v-4h-4zm-4 6l4.801 9 3.199-3.375-8-5.625z" fill-rule="evenodd" id="path10543" style="fill:currentColor" transform="translate(0 1036.4)">
  </path>
 </g>
</svg>
