<?xml version="1.0" encoding="UTF-8" standalone="no"?>
<!-- Created with Inkscape (http://www.inkscape.org/) -->
<svg height="16" id="svg7384" style="enable-background:new" version="1.1" width="16" xmlns="http://www.w3.org/2000/svg" xmlns:cc="http://creativecommons.org/ns#" xmlns:dc="http://purl.org/dc/elements/1.1/" xmlns:osb="http://www.openswatchbook.org/uri/2009/osb" xmlns:rdf="http://www.w3.org/1999/02/22-rdf-syntax-ns#">
 <defs>
  <style id="current-color-scheme" type="text/css">
   .ColorScheme-Text { color:#555555; }
  </style>
 </defs>
 <metadata id="metadata90">
  <rdf:rdf>
   <cc:work rdf:about="">
    <dc:format>
     image/svg+xml
    </dc:format>
    <dc:type rdf:resource="http://purl.org/dc/dcmitype/StillImage">
    </dc:type>
    <dc:title>
     Paper Symbolic Icon Theme
    </dc:title>
   </cc:work>
  </rdf:rdf>
 </metadata>
 <title id="title8473">
  Paper Symbolic Icon Theme
 </title>
 <g id="layer12" transform="translate(-265 19.003)">
  <g id="g4172" opacity=".5" transform="matrix(.98651 .16373 -.16373 .98651 1.8824 -44.846)">
   <g id="g4162" style="">
    <path class="ColorScheme-Text" d="m8.8066 1.0684a2 2 0 0 0 -1.9609 1.6718 2 2 0 0 0 1.6445 2.3008 2 2 0 0 0 2.3008 -1.6465 2 2 0 0 0 -1.6445 -2.3007 2 2 0 0 0 -0.3399 -0.0254zm-4.2246 1.3457a1 1 0 0 0 -1 1 1 1 0 0 0 1 1 1 1 0 0 0 1 -1 1 1 0 0 0 -1 -1zm8.32 0.9726a1 1 0 0 0 -1 1 1 1 0 0 0 1 1 1 1 0 0 0 1 -1 1 1 0 0 0 -1 -1zm-9.8473 1.7949a2 2 0 0 0 -1.9609 1.6719 2 2 0 0 0 1.6464 2.3008 2 2 0 0 0 2.3008 -1.6445 2 2 0 0 0 -1.6465 -2.3008 2 2 0 0 0 -0.3398 -0.0274zm5.1855 1.4258a1 1 0 0 0 -1 1 1 1 0 0 0 1 1 1 1 0 0 0 1 -1 1 1 0 0 0 -1 -1zm4.6798 0.211a2 2 0 0 0 -1.961 1.6718 2 2 0 0 0 1.646 2.3008 2 2 0 0 0 2.301 -1.6445 2 2 0 0 0 -1.646 -2.3008 2 2 0 0 0 -0.34 -0.0273zm-9.9278 3.5816a1 1 0 0 0 -1 1 1 1 0 0 0 1 1 1 1 0 0 0 1 -1 1 1 0 0 0 -1 -1zm4.1758 0.532a2 2 0 0 0 -1.959 1.673 2 2 0 0 0 1.6445 2.301 2 2 0 0 0 2.3008 -1.646 2 2 0 0 0 -1.6445 -2.301 2 2 0 0 0 -0.3418 -0.027zm4.59 1.068a1 1 0 0 0 -1 1 1 1 0 0 0 1 1 1 1 0 0 0 1 -1 1 1 0 0 0 -1 -1z" id="path4157" style="fill:currentColor" transform="matrix(.98651 -.16373 .16373 .98651 263.8 -17.586)">
    </path>
   </g>
  </g>
 </g>
</svg>
