<?xml version="1.0" encoding="UTF-8" standalone="no"?>
<!-- Created with Inkscape (http://www.inkscape.org/) -->
<svg height="16" id="svg7384" style="enable-background:new" version="1.1" width="16" xmlns="http://www.w3.org/2000/svg" xmlns:cc="http://creativecommons.org/ns#" xmlns:dc="http://purl.org/dc/elements/1.1/" xmlns:osb="http://www.openswatchbook.org/uri/2009/osb" xmlns:rdf="http://www.w3.org/1999/02/22-rdf-syntax-ns#">
 <metadata id="metadata90">
  <rdf:rdf>
   <cc:work rdf:about="">
    <dc:format>
     image/svg+xml
    </dc:format>
    <dc:type rdf:resource="http://purl.org/dc/dcmitype/StillImage">
    </dc:type>
    <dc:title>
     Paper Symbolic Icon Theme
    </dc:title>
   </cc:work>
  </rdf:rdf>
 </metadata>
 <title id="title8473">
  Paper Symbolic Icon Theme
 </title>
 <defs id="defs7386">
  <style id="current-color-scheme" type="text/css">
   .ColorScheme-Text { color:#555555; }
  </style>
  <filter id="filter7554" style="color-interpolation-filters:sRGB">
   <feblend id="feBlend7556" in2="BackgroundImage" mode="darken">
   </feblend>
  </filter>
 </defs>
 <g id="g6058" transform="translate(-564,-508)">
  <path class="ColorScheme-Text" d="m3 1c-2.25 0-2 2-2 2v12h14v-1-11c0-2-2-2-2-2h-10zm0 2h10v0.1641l-6.0293 6.8979-2.25-2.2495c-0.3763-0.3764-1.0611-0.3763-1.4375 0-0.1882 0.1882-0.2832 0.4534-0.2832 0.7187 0 0.2654 0.095 0.5306 0.2832 0.7188l3 3 0.7813 0.75 0.6875-0.812 5.248-5.9985v5.1225 0.844 0.844h-5.9355-4.0645v-0.844-1.656-1.9688-5.5312z" id="path6716" style="fill:currentColor" transform="translate(564,508)">
  </path>
 </g>
</svg>
