<?xml version="1.0" encoding="UTF-8" standalone="no"?>
<!-- Created with Inkscape (http://www.inkscape.org/) -->
<svg height="16" id="svg7384" style="enable-background:new" version="1.1" width="16" xmlns="http://www.w3.org/2000/svg" xmlns:cc="http://creativecommons.org/ns#" xmlns:dc="http://purl.org/dc/elements/1.1/" xmlns:osb="http://www.openswatchbook.org/uri/2009/osb" xmlns:rdf="http://www.w3.org/1999/02/22-rdf-syntax-ns#">
 <metadata id="metadata90">
  <rdf:rdf>
   <cc:work rdf:about="">
    <dc:format>
     image/svg+xml
    </dc:format>
    <dc:type rdf:resource="http://purl.org/dc/dcmitype/StillImage">
    </dc:type>
    <dc:title>
     Paper Symbolic Icon Theme
    </dc:title>
   </cc:work>
  </rdf:rdf>
 </metadata>
 <title id="title8473">
  Paper Symbolic Icon Theme
 </title>
 <defs id="defs7386">
  <style id="current-color-scheme" type="text/css">
   .ColorScheme-Text {
        color:#4d4d4d;
      }
      .ColorScheme-Background {
        color:#eff0f1;
      }
      .ColorScheme-Highlight {
        color:#3daee9;
      }
      .ColorScheme-ViewText {
        color:#31363b;
      }
      .ColorScheme-ViewBackground {
        color:#fcfcfc;
      }
      .ColorScheme-ViewHover {
        color:#93cee9;
      }
      .ColorScheme-ViewFocus{
        color:#3daee9;
      }
      .ColorScheme-ButtonText {
        color:#31363b;
      }
      .ColorScheme-ButtonBackground {
        color:#eff0f1;
      }
      .ColorScheme-ButtonHover {
        color:#93cee9;
      }
      .ColorScheme-ButtonFocus{
        color:#3daee9;
      }
  </style>
  <style id="current-color-scheme-0" type="text/css">
   .ColorScheme-Text {
        color:#4d4d4d;
      }
      .ColorScheme-Background {
        color:#eff0f1;
      }
      .ColorScheme-Highlight {
        color:#3daee9;
      }
      .ColorScheme-ViewText {
        color:#31363b;
      }
      .ColorScheme-ViewBackground {
        color:#fcfcfc;
      }
      .ColorScheme-ViewHover {
        color:#93cee9;
      }
      .ColorScheme-ViewFocus{
        color:#3daee9;
      }
      .ColorScheme-ButtonText {
        color:#31363b;
      }
      .ColorScheme-ButtonBackground {
        color:#eff0f1;
      }
      .ColorScheme-ButtonHover {
        color:#93cee9;
      }
      .ColorScheme-ButtonFocus{
        color:#3daee9;
      }
  </style>
 </defs>
 <g id="layer12" transform="translate(-585 -41)">
  <path class="ColorScheme-Text" d="m587 42s-0.0762 0.0041-0.18164 0.02344c-0.20412 0.03015-0.35869 0.10349-0.47266 0.20312-0.0221 0.01694-0.0435 0.03507-0.0644 0.05469-0.0196 0.02097-0.0377 0.04238-0.0547 0.06445-0.0996 0.11397-0.17297 0.26854-0.20312 0.47266-0.02 0.106-0.02 0.182-0.02 0.182v7 5c0 1 1 1 1 1h5 2 5s1 0 1-1v-5-7s-0.004-0.07623-0.0234-0.18164c-0.0301-0.20412-0.1035-0.35868-0.20312-0.47266-0.0169-0.02207-0.0351-0.04348-0.0547-0.06445-0.021-0.01962-0.0426-0.03775-0.0644-0.05469-0.11397-0.09963-0.26854-0.17297-0.47266-0.20312-0.1-0.019-0.18-0.023-0.18-0.023h-12zm2 4h2 1v1 1 2 1 1h-1-2v-2-2-2zm4 1h4v1h-4v-1zm0 3h4v1h-4v-1z" id="path4393" style="fill:currentColor">
  </path>
  <rect class="ColorScheme-Text" fill="currentColor" height="11" id="rect4035" style="color:#4d4d4d" width="0" x="561.1" y="45.285">
  </rect>
  <rect class="ColorScheme-Text" fill="currentColor" height="11" id="rect4035-5" style="color:#4d4d4d" width="0" x="579.14" y="43.234">
  </rect>
  <rect class="ColorScheme-Text" fill="currentColor" height="11" id="rect4035-8" style="color:#4d4d4d" width="0" x="561.1" y="45.285">
  </rect>
  <rect class="ColorScheme-Text" fill="currentColor" height="11" id="rect4035-59" style="color:#4d4d4d" width="0" x="561.1" y="45.285">
  </rect>
  <rect class="ColorScheme-Text" fill="currentColor" height="11" id="rect4035-1" style="color:#4d4d4d" width="0" x="574.1" y="45.285">
  </rect>
  <rect class="ColorScheme-Text" fill="currentColor" height="11" id="rect4035-2" style="color:#4d4d4d" width="0" x="567.96" y="45.551">
  </rect>
  <rect class="ColorScheme-Text" fill="currentColor" height="11" id="rect4035-5-6" style="color:#4d4d4d" width="0" x="586" y="43.5">
  </rect>
  <rect class="ColorScheme-Text" fill="currentColor" height="11" id="rect4035-8-0" style="color:#4d4d4d" width="0" x="567.96" y="45.551">
  </rect>
  <rect class="ColorScheme-Text" fill="currentColor" height="11" id="rect4035-59-5" style="color:#4d4d4d" width="0" x="567.96" y="45.551">
  </rect>
  <text class="ColorScheme-Text" fill="currentColor" font-family="Sans" font-size="9px" id="text3781" line-height="125%" style="color:#4d4d4d;word-spacing:0px;letter-spacing:0px" x="583.39539" xml:space="preserve" y="58.308594">
   <tspan id="tspan3783" x="583.39539" y="58.308594">
   </tspan>
  </text>
  <text class="ColorScheme-Text" fill="currentColor" font-family="Sans" font-size="9px" id="text3781-8" line-height="125%" style="color:#4d4d4d;word-spacing:0px;letter-spacing:0px" x="584.13208" xml:space="preserve" y="52.445251">
   <tspan id="tspan3783-1" x="584.13208" y="52.445251">
   </tspan>
  </text>
  <text class="ColorScheme-Text" fill="currentColor" font-family="Sans" font-size="9px" id="text3781-4" line-height="125%" style="color:#4d4d4d;word-spacing:0px;letter-spacing:0px" x="577.39539" xml:space="preserve" y="59.308594">
   <tspan id="tspan3783-13" x="577.39539" y="59.308594">
   </tspan>
  </text>
  <rect class="ColorScheme-Text" fill="currentColor" height="11" id="rect4035-9" style="color:#4d4d4d" width="0" x="567.96" y="45.551">
  </rect>
  <rect class="ColorScheme-Text" fill="currentColor" height="11" id="rect4035-5-7" style="color:#4d4d4d" width="0" x="586" y="43.5">
  </rect>
  <rect class="ColorScheme-Text" fill="currentColor" height="11" id="rect4035-9-0" style="color:#4d4d4d" width="0" x="547.96" y="45.551">
  </rect>
  <rect class="ColorScheme-Text" fill="currentColor" height="11" id="rect4035-5-7-5" style="color:#4d4d4d" width="0" x="566" y="43.5">
  </rect>
  <rect class="ColorScheme-Text" fill="currentColor" height="11" id="rect4035-0" style="color:#4d4d4d" width="0" x="565.1" y="42.285">
  </rect>
  <rect class="ColorScheme-Text" fill="currentColor" height="11" id="rect4035-5-2" style="color:#4d4d4d" width="0" x="583.14" y="40.234">
  </rect>
  <rect class="ColorScheme-Text" fill="currentColor" height="11" id="rect4035-8-6" style="color:#4d4d4d" width="0" x="565.1" y="42.285">
  </rect>
  <rect class="ColorScheme-Text" fill="currentColor" height="11" id="rect4035-59-0" style="color:#4d4d4d" width="0" x="565.1" y="42.285">
  </rect>
  <rect class="ColorScheme-Text" fill="currentColor" height="11" id="rect4035-1-1" style="color:#4d4d4d" width="0" x="578.1" y="42.285">
  </rect>
  <rect class="ColorScheme-Text" fill="currentColor" height="11" id="rect4035-2-5" style="color:#4d4d4d" width="0" x="571.96" y="42.551">
  </rect>
  <rect class="ColorScheme-Text" fill="currentColor" height="11" id="rect4035-5-6-5" style="color:#4d4d4d" width="0" x="590" y="40.5">
  </rect>
  <rect class="ColorScheme-Text" fill="currentColor" height="11" id="rect4035-8-0-7" style="color:#4d4d4d" width="0" x="571.96" y="42.551">
  </rect>
  <rect class="ColorScheme-Text" fill="currentColor" height="11" id="rect4035-59-5-9" style="color:#4d4d4d" width="0" x="571.96" y="42.551">
  </rect>
  <text class="ColorScheme-Text" fill="currentColor" font-family="Sans" font-size="9px" id="text3781-1" line-height="125%" style="color:#4d4d4d;word-spacing:0px;letter-spacing:0px" x="587.39539" xml:space="preserve" y="55.308594">
   <tspan id="tspan3783-9" x="587.39539" y="55.308594">
   </tspan>
  </text>
  <text class="ColorScheme-Text" fill="currentColor" font-family="Sans" font-size="9px" id="text3781-8-5" line-height="125%" style="color:#4d4d4d;word-spacing:0px;letter-spacing:0px" x="588.13208" xml:space="preserve" y="49.445251">
   <tspan id="tspan3783-1-1" x="588.13208" y="49.445251">
   </tspan>
  </text>
  <text class="ColorScheme-Text" fill="currentColor" font-family="Sans" font-size="9px" id="text3781-4-7" line-height="125%" style="color:#4d4d4d;word-spacing:0px;letter-spacing:0px" x="581.39539" xml:space="preserve" y="56.308594">
   <tspan id="tspan3783-13-3" x="581.39539" y="56.308594">
   </tspan>
  </text>
  <rect class="ColorScheme-Text" fill="currentColor" height="11" id="rect4035-9-07" style="color:#4d4d4d" width="0" x="571.96" y="42.551">
  </rect>
  <rect class="ColorScheme-Text" fill="currentColor" height="11" id="rect4035-5-7-59" style="color:#4d4d4d" width="0" x="590" y="40.5">
  </rect>
  <rect class="ColorScheme-Text" fill="currentColor" height="11" id="rect4035-9-0-1" style="color:#4d4d4d" width="0" x="551.96" y="42.551">
  </rect>
  <rect class="ColorScheme-Text" fill="currentColor" height="11" id="rect4035-5-7-5-2" style="color:#4d4d4d" width="0" x="570" y="40.5">
  </rect>
 </g>
</svg>
