<?xml version="1.0" encoding="UTF-8" standalone="no"?>
<!-- Created with Inkscape (http://www.inkscape.org/) -->
<svg height="16" id="svg7384" style="enable-background:new" version="1.1" width="16.003" xmlns="http://www.w3.org/2000/svg" xmlns:cc="http://creativecommons.org/ns#" xmlns:dc="http://purl.org/dc/elements/1.1/" xmlns:osb="http://www.openswatchbook.org/uri/2009/osb" xmlns:rdf="http://www.w3.org/1999/02/22-rdf-syntax-ns#">
 <metadata id="metadata90">
  <rdf:rdf>
   <cc:work rdf:about="">
    <dc:format>
     image/svg+xml
    </dc:format>
    <dc:type rdf:resource="http://purl.org/dc/dcmitype/StillImage">
    </dc:type>
    <dc:title>
     Paper Symbolic Icon Theme
    </dc:title>
   </cc:work>
  </rdf:rdf>
 </metadata>
 <title id="title8473">
  Paper Symbolic Icon Theme
 </title>
 <defs id="defs7386">
  <style id="current-color-scheme" type="text/css">
   .ColorScheme-Text { color:#555555; }
  </style>
  <filter color-interpolation-filters="sRGB" id="filter7554">
   <feblend id="feBlend7556" in2="BackgroundImage" mode="darken">
   </feblend>
  </filter>
 </defs>
 <g filter="url(#filter7554)" id="layer10" transform="translate(-325 139)">
  <g id="g4156" opacity=".5" transform="translate(-1.9985)">
   <path class="ColorScheme-Text" d="m6.002 2a6 6 0 0 0 -6 6 6 6 0 0 0 6 6 6 6 0 0 0 1.998 -0.352 6 6 0 0 0 2.002 0.352 6 6 0 0 0 6 -6 6 6 0 0 0 -6 -6 6 6 0 0 0 -2 0.3496 6 6 0 0 0 -2 -0.3496zm-0.4942 2.0352a6 6 0 0 0 -1.5058 3.9648 6 6 0 0 0 1.5039 3.965 4 4 0 0 1 -3.5039 -3.965 4 4 0 0 1 3.5058 -3.9648zm4.9882 0a4 4 0 0 1 3.506 3.9648 4 4 0 0 1 -3.508 3.965 6 6 0 0 0 1.508 -3.965 6 6 0 0 0 -1.506 -3.9648zm-2.4921 0.5058a4 4 0 0 1 1.9981 3.459 4 4 0 0 1 -2.002 3.459 4 4 0 0 1 -1.998 -3.459 4 4 0 0 1 2.0019 -3.459z" id="path4148" style="fill:currentColor" transform="translate(327 -139)">
   </path>
  </g>
 </g>
</svg>
