<?xml version="1.0" encoding="UTF-8" standalone="no"?>
<!-- Created with Inkscape (http://www.inkscape.org/) -->
<svg height="16" id="svg3760" version="1.1" width="16" xmlns="http://www.w3.org/2000/svg" xmlns:cc="http://creativecommons.org/ns#" xmlns:dc="http://purl.org/dc/elements/1.1/" xmlns:rdf="http://www.w3.org/1999/02/22-rdf-syntax-ns#">
 <defs id="defs3762">
  <style id="current-color-scheme" type="text/css">
   .ColorScheme-Text {
        color:#4d4d4d;
      }
      .ColorScheme-Background {
        color:#eff0f1;
      }
      .ColorScheme-Highlight {
        color:#3daee9;
      }
      .ColorScheme-ViewText {
        color:#31363b;
      }
      .ColorScheme-ViewBackground {
        color:#fcfcfc;
      }
      .ColorScheme-ViewHover {
        color:#93cee9;
      }
      .ColorScheme-ViewFocus{
        color:#3daee9;
      }
      .ColorScheme-ButtonText {
        color:#31363b;
      }
      .ColorScheme-ButtonBackground {
        color:#eff0f1;
      }
      .ColorScheme-ButtonHover {
        color:#93cee9;
      }
      .ColorScheme-ButtonFocus{
        color:#3daee9;
      }
  </style>
 </defs>
 <metadata id="metadata3765">
  <rdf:rdf>
   <cc:work rdf:about="">
    <dc:format>
     image/svg+xml
    </dc:format>
    <dc:type rdf:resource="http://purl.org/dc/dcmitype/StillImage">
    </dc:type>
    <dc:title>
    </dc:title>
   </cc:work>
  </rdf:rdf>
 </metadata>
 <g id="layer1" transform="translate(-553.72 -589.12)">
  <rect class="ColorScheme-Text" fill="currentColor" height="11" id="rect4035" style="color:#4d4d4d" width="0" x="537.72" y="591.12">
  </rect>
  <rect class="ColorScheme-Text" fill="currentColor" height="11" id="rect4035-5" style="color:#4d4d4d" width="0" x="555.76" y="589.07">
  </rect>
  <rect class="ColorScheme-Text" fill="currentColor" height="11" id="rect4035-8" style="color:#4d4d4d" width="0" x="537.72" y="591.12">
  </rect>
  <rect class="ColorScheme-Text" fill="currentColor" height="11" id="rect4035-59" style="color:#4d4d4d" width="0" x="537.72" y="591.12">
  </rect>
  <rect class="ColorScheme-Text" fill="currentColor" height="11" id="rect4035-60" style="color:#4d4d4d" width="0" x="516.25" y="587.74">
  </rect>
  <rect class="ColorScheme-Text" fill="currentColor" height="11" id="rect4035-5-15" style="color:#4d4d4d" width="0" x="534.3" y="585.69">
  </rect>
  <rect class="ColorScheme-Text" fill="currentColor" height="11" id="rect4035-8-03" style="color:#4d4d4d" width="0" x="516.25" y="587.74">
  </rect>
  <rect class="ColorScheme-Text" fill="currentColor" height="11" id="rect4035-59-10" style="color:#4d4d4d" width="0" x="516.25" y="587.74">
  </rect>
  <rect class="ColorScheme-Text" fill="currentColor" height="11" id="rect4035-6" style="color:#4d4d4d" width="0" x="508.95" y="582.91">
  </rect>
  <rect class="ColorScheme-Text" fill="currentColor" height="11" id="rect4035-5-1" style="color:#4d4d4d" width="0" x="526.99" y="580.85">
  </rect>
  <rect class="ColorScheme-Text" fill="currentColor" height="11" id="rect4035-8-3" style="color:#4d4d4d" width="0" x="508.95" y="582.91">
  </rect>
  <rect class="ColorScheme-Text" fill="currentColor" height="11" id="rect4035-59-4" style="color:#4d4d4d" width="0" x="508.95" y="582.91">
  </rect>
  <rect class="ColorScheme-Text" fill="currentColor" height="11" id="rect4035-1" style="color:#4d4d4d" width="0" x="514.96" y="587.12">
  </rect>
  <rect class="ColorScheme-Text" fill="currentColor" height="11" id="rect4035-5-0" style="color:#4d4d4d" width="0" x="533" y="585.07">
  </rect>
  <rect class="ColorScheme-Text" fill="currentColor" height="11" id="rect4035-8-1" style="color:#4d4d4d" width="0" x="514.96" y="587.12">
  </rect>
  <rect class="ColorScheme-Text" fill="currentColor" height="11" id="rect4035-59-1" style="color:#4d4d4d" width="0" x="514.96" y="587.12">
  </rect>
  <rect class="ColorScheme-Text" fill="currentColor" height="11" id="rect4035-0" style="color:#4d4d4d" width="0" x="513.72" y="591.12">
  </rect>
  <rect class="ColorScheme-Text" fill="currentColor" height="11" id="rect4035-5-5" style="color:#4d4d4d" width="0" x="531.76" y="589.07">
  </rect>
  <rect class="ColorScheme-Text" fill="currentColor" height="11" id="rect4035-8-6" style="color:#4d4d4d" width="0" x="513.72" y="591.12">
  </rect>
  <rect class="ColorScheme-Text" fill="currentColor" height="11" id="rect4035-59-11" style="color:#4d4d4d" width="0" x="513.72" y="591.12">
  </rect>
  <rect class="ColorScheme-Text" fill="currentColor" height="11" id="rect4035-9" style="color:#4d4d4d" width="0" x="497.73" y="587.49">
  </rect>
  <rect class="ColorScheme-Text" fill="currentColor" height="11" id="rect4035-5-8" style="color:#4d4d4d" width="0" x="515.78" y="585.43">
  </rect>
  <rect class="ColorScheme-Text" fill="currentColor" height="11" id="rect4035-8-0" style="color:#4d4d4d" width="0" x="497.73" y="587.49">
  </rect>
  <rect class="ColorScheme-Text" fill="currentColor" height="11" id="rect4035-59-1-8" style="color:#4d4d4d" width="0" x="497.73" y="587.49">
  </rect>
  <rect class="ColorScheme-Text" height="11" id="rect4035-52" style="color:#4d4d4d" width="0" x="513.25" y="590.74">
  </rect>
  <rect class="ColorScheme-Text" height="11" id="rect4035-5-3" style="color:#4d4d4d" width="0" x="531.3" y="588.69">
  </rect>
  <rect class="ColorScheme-Text" height="11" id="rect4035-8-7" style="color:#4d4d4d" width="0" x="513.25" y="590.74">
  </rect>
  <rect class="ColorScheme-Text" height="11" id="rect4035-59-9" style="color:#4d4d4d" width="0" x="513.25" y="590.74">
  </rect>
  <rect class="ColorScheme-Text" height="11" id="rect4035-6-9" style="color:#4d4d4d" width="0" x="505.95" y="585.91">
  </rect>
  <rect class="ColorScheme-Text" height="11" id="rect4035-5-1-1" style="color:#4d4d4d" width="0" x="523.99" y="583.85">
  </rect>
  <rect class="ColorScheme-Text" height="11" id="rect4035-8-3-9" style="color:#4d4d4d" width="0" x="505.95" y="585.91">
  </rect>
  <rect class="ColorScheme-Text" height="11" id="rect4035-59-4-2" style="color:#4d4d4d" width="0" x="505.95" y="585.91">
  </rect>
  <rect class="ColorScheme-Text" height="11" id="rect4035-1-5" style="color:#4d4d4d" width="0" x="511.96" y="590.12">
  </rect>
  <rect class="ColorScheme-Text" height="11" id="rect4035-5-0-1" style="color:#4d4d4d" width="0" x="530" y="588.07">
  </rect>
  <rect class="ColorScheme-Text" height="11" id="rect4035-8-1-1" style="color:#4d4d4d" width="0" x="511.96" y="590.12">
  </rect>
  <rect class="ColorScheme-Text" height="11" id="rect4035-59-1-7" style="color:#4d4d4d" width="0" x="511.96" y="590.12">
  </rect>
  <rect class="ColorScheme-Text" height="11" id="rect4035-0-9" style="color:#4d4d4d" width="0" x="510.72" y="594.12">
  </rect>
  <rect class="ColorScheme-Text" height="11" id="rect4035-5-5-6" style="color:#4d4d4d" width="0" x="528.76" y="592.07">
  </rect>
  <rect class="ColorScheme-Text" height="11" id="rect4035-8-6-3" style="color:#4d4d4d" width="0" x="510.72" y="594.12">
  </rect>
  <rect class="ColorScheme-Text" height="11" id="rect4035-59-11-1" style="color:#4d4d4d" width="0" x="510.72" y="594.12">
  </rect>
  <rect class="ColorScheme-Text" height="11" id="rect4035-9-0" style="color:#4d4d4d" width="0" x="494.73" y="590.49">
  </rect>
  <rect class="ColorScheme-Text" height="11" id="rect4035-5-8-8" style="color:#4d4d4d" width="0" x="512.78" y="588.43">
  </rect>
  <rect class="ColorScheme-Text" height="11" id="rect4035-8-0-2" style="color:#4d4d4d" width="0" x="494.73" y="590.49">
  </rect>
  <rect class="ColorScheme-Text" height="11" id="rect4035-59-1-8-5" style="color:#4d4d4d" width="0" x="494.73" y="590.49">
  </rect>
  <path class="ColorScheme-Text" d="m7.5 0v1.8125h1v-1.8125h-1zm-4.8125 1.9688l-0.7187 0.7187 1.2812 1.3125 0.7188-0.75-1.2813-1.2812zm10.624 0l-1.281 1.2812 0.719 0.75 1.281-1.3125-0.719-0.7187zm-5.312 1.0312c-2.7614 0-5 2.2386-5 5 0 2.761 2.2386 5 5 5 2.761 0 5-2.239 5-5 0-2.7614-2.239-5-5-5zm0 2a3 3 0 0 1 3 3 3 3 0 0 1 -3 3 3 3 0 0 1 -3 -3 3 3 0 0 1 3 -3zm-8 2.5v1h1.8125v-1h-1.8125zm14.188 0v1h1.812v-1h-1.812zm-10.938 4.531l-1.2812 1.281 0.7187 0.719 1.2813-1.281-0.7188-0.719zm9.5 0l-0.719 0.719 1.281 1.281 0.719-0.719-1.281-1.281zm-5.25 2.157v1.812h1v-1.812h-1z" id="path4210" style="fill:currentColor" transform="translate(553.72 589.12)">
  </path>
 </g>
</svg>
