<?xml version="1.0" encoding="UTF-8" standalone="no"?>
<!-- Created with Inkscape (http://www.inkscape.org/) -->
<svg height="16" id="svg3487" inkscape:version="0.91 r13725" sodipodi:docname="battery-missing.svg" version="1.1" viewbox="0 0 16 16" width="16" xmlns="http://www.w3.org/2000/svg" xmlns:cc="http://creativecommons.org/ns#" xmlns:dc="http://purl.org/dc/elements/1.1/" xmlns:inkscape="http://www.inkscape.org/namespaces/inkscape" xmlns:osb="http://www.openswatchbook.org/uri/2009/osb" xmlns:rdf="http://www.w3.org/1999/02/22-rdf-syntax-ns#" xmlns:sodipodi="http://sodipodi.sourceforge.net/DTD/sodipodi-0.dtd" xmlns:svg="http://www.w3.org/2000/svg">
 <defs id="defs3489">
  <style id="current-color-scheme" type="text/css">
   .ColorScheme-Text { color:#555555; }
  </style>
  <lineargradient id="linearGradient5606" osb:paint="solid">
   <stop id="stop5608" offset="0" style="stop-color:#000000;stop-opacity:1;">
   </stop>
  </lineargradient>
 </defs>
 <sodipodi:namedview bordercolor="#666666" borderopacity="1.0" id="base" inkscape:current-layer="layer1" inkscape:cx="15.377662" inkscape:cy="1.6980215" inkscape:document-units="px" inkscape:pageopacity="0.0" inkscape:pageshadow="2" inkscape:window-height="846" inkscape:window-maximized="1" inkscape:window-width="1548" inkscape:window-x="52" inkscape:window-y="30" inkscape:zoom="18.55" pagecolor="#ffffff" showgrid="false" units="px">
 </sodipodi:namedview>
 <metadata id="metadata3492">
  <rdf:rdf>
   <cc:work rdf:about="">
    <dc:format>
     image/svg+xml
    </dc:format>
    <dc:type rdf:resource="http://purl.org/dc/dcmitype/StillImage">
    </dc:type>
    <dc:title>
    </dc:title>
   </cc:work>
  </rdf:rdf>
 </metadata>
 <g id="layer1" inkscape:groupmode="layer" inkscape:label="Layer 1" transform="translate(0,-1036.3622)">
  <path class="ColorScheme-Text" d="M 6 1 L 6 2 L 3 2 L 3 15 L 13 15 L 13 2 L 10 2 L 10 1 L 6 1 z M 5 5 A 1 1 0 0 1 5.7070312 5.2929688 A 1 1 0 0 1 5.7167969 5.3027344 L 8 7.5859375 L 10.292969 5.2929688 A 1 1 0 0 1 11 5 A 1 1 0 0 1 12 6 A 1 1 0 0 1 11.697266 6.7167969 L 9.4140625 9 L 11.707031 11.292969 A 1 1 0 0 1 12 12 A 1 1 0 0 1 11 13 A 1 1 0 0 1 10.283203 12.697266 L 8 10.414062 L 5.7070312 12.707031 A 1 1 0 0 1 5 13 A 1 1 0 0 1 4 12 A 1 1 0 0 1 4.2929688 11.292969 L 6.5859375 9 L 4.2929688 6.7070312 A 1 1 0 0 1 4 6 A 1 1 0 0 1 5 5 z " id="path3336" style="fill:currentColor" transform="translate(0,1036.3622)">
  </path>
  <g id="g3350" style="enable-background:new" transform="translate(2e-4,1037.3588)">
   <g id="layer12" inkscape:label="actions" style="display:inline" transform="translate(-265.0004,-120.99664)">
   </g>
  </g>
 </g>
</svg>
