<?xml version="1.0" encoding="UTF-8" standalone="no"?>
<!-- Created with Inkscape (http://www.inkscape.org/) -->
<svg height="16" id="svg5453" inkscape:version="0.91 r13725" sodipodi:docname="blender.svg" version="1.1" width="16" xmlns="http://www.w3.org/2000/svg" xmlns:cc="http://creativecommons.org/ns#" xmlns:dc="http://purl.org/dc/elements/1.1/" xmlns:inkscape="http://www.inkscape.org/namespaces/inkscape" xmlns:rdf="http://www.w3.org/1999/02/22-rdf-syntax-ns#" xmlns:sodipodi="http://sodipodi.sourceforge.net/DTD/sodipodi-0.dtd" xmlns:svg="http://www.w3.org/2000/svg">
 <defs id="defs11">
  <style id="current-color-scheme" type="text/css">
   .ColorScheme-Text { color:#555555; }
  </style>
 </defs>
 <sodipodi:namedview bordercolor="#666666" borderopacity="1" gridtolerance="10" guidetolerance="10" id="namedview9" inkscape:current-layer="svg5453" inkscape:cx="-0.15362731" inkscape:cy="16" inkscape:pageopacity="0" inkscape:pageshadow="2" inkscape:window-height="847" inkscape:window-maximized="1" inkscape:window-width="1600" inkscape:window-x="0" inkscape:window-y="0" inkscape:zoom="7.03" objecttolerance="10" pagecolor="#ffffff" showgrid="false">
 </sodipodi:namedview>
 <metadata id="metadata5458">
  <rdf:rdf>
   <cc:work rdf:about="">
    <dc:format>
     image/svg+xml
    </dc:format>
    <dc:type rdf:resource="http://purl.org/dc/dcmitype/StillImage">
    </dc:type>
    <dc:title>
    </dc:title>
   </cc:work>
  </rdf:rdf>
 </metadata>
 <path class="ColorScheme-Text" d="m 7.172038,0.51367 c -0.255619,0 -0.511163,0.099 -0.707031,0.29492 -0.391737,0.39173 -0.391737,1.02233 0,1.41407 L 9.242351,5 2.000163,5 c -0.554,0 -1,0.446 -1,1 0,0.554 0.446,1 1,1 1.275834,-0.003 2.2729,-8.3e-4 3.929688,0 l -5.123047,5.12109 c -0.391738,0.39174 -0.391738,1.02234 0,1.41407 0.391737,0.39174 1.024278,0.39174 1.416015,0 0.917083,-0.92204 1.64577,-1.64702 2.832032,-2.83204 A 5,5 0 0 0 10.000163,15 a 5,5 0 0 0 5,-5 5,5 0 0 0 -1.466797,-3.5332 l 0.002,-0.002 c 0,0 -3.824614,-3.81472 -5.65625,-5.65625 C 7.683248,0.61268 7.427704,0.51363 7.172085,0.51363 Z" id="circle4802" inkscape:connector-curvature="0" style="fill:currentColor">
 </path>
 <circle cx="10.000163" cy="10" id="circle4871" r="3" style="opacity:1;fill:#ffffff;fill-opacity:1;stroke:none;stroke-width:1;stroke-linecap:round;stroke-linejoin:round;stroke-miterlimit:4;stroke-dasharray:none;stroke-opacity:1">
 </circle>
 <circle cx="10.000163" cy="10" id="circle4873" r="2" style="opacity:1;fill:#408ef4;fill-opacity:1;stroke:none;stroke-width:1;stroke-linecap:round;stroke-linejoin:round;stroke-miterlimit:4;stroke-dasharray:none;stroke-opacity:1">
 </circle>
</svg>
