<?xml version="1.0" encoding="UTF-8" standalone="no"?>
<!-- Created with Inkscape (http://www.inkscape.org/) -->
<svg height="16" id="svg4432" inkscape:version="0.91 r13725" sodipodi:docname="facebook.svg" version="1.1" viewbox="0 0 16 16.000001" width="16" xmlns="http://www.w3.org/2000/svg" xmlns:cc="http://creativecommons.org/ns#" xmlns:dc="http://purl.org/dc/elements/1.1/" xmlns:inkscape="http://www.inkscape.org/namespaces/inkscape" xmlns:rdf="http://www.w3.org/1999/02/22-rdf-syntax-ns#" xmlns:sodipodi="http://sodipodi.sourceforge.net/DTD/sodipodi-0.dtd" xmlns:svg="http://www.w3.org/2000/svg">
 <defs id="defs4434">
  <style id="current-color-scheme" type="text/css">
   .ColorScheme-Text { color:#555555; }
  </style>
 </defs>
 <sodipodi:namedview bordercolor="#666666" borderopacity="1.0" id="base" inkscape:current-layer="layer1" inkscape:cx="-205" inkscape:cy="-10.5" inkscape:document-units="px" inkscape:pageopacity="0.0" inkscape:pageshadow="2" inkscape:window-height="849" inkscape:window-maximized="1" inkscape:window-width="1600" inkscape:window-x="0" inkscape:window-y="30" inkscape:zoom="1" pagecolor="#ffffff" showgrid="false" units="px">
 </sodipodi:namedview>
 <metadata id="metadata4437">
  <rdf:rdf>
   <cc:work rdf:about="">
    <dc:format>
     image/svg+xml
    </dc:format>
    <dc:type rdf:resource="http://purl.org/dc/dcmitype/StillImage">
    </dc:type>
    <dc:title>
    </dc:title>
   </cc:work>
  </rdf:rdf>
 </metadata>
 <g id="layer1" inkscape:groupmode="layer" inkscape:label="Layer 1" transform="translate(0,-1036.3622)">
  <g id="g4428" style="display:inline;enable-background:new" transform="translate(-16,768.3622)">
   <rect height="16" id="rect4405" rx="1.1999999" ry="1.1999999" style="fill:#3b5999;fill-opacity:1;stroke:none" transform="matrix(0,-1,-1,0,0,0)" width="16" x="-284" y="-32">
   </rect>
   <path class="ColorScheme-Text" d="m 27,515 c 0,0 -0.44899,-0.0255 -0.9375,0.21875 C 25.57399,515.46301 25,516.16667 25,517 l 0,2 -2,0 0,2 2,0 0,5 2,0 0,-5 2,0 0,-2 -2,0 0,-2 2,0 0,-2 -2,0 z" id="path4034" inkscape:connector-curvature="0" style="fill:currentColor" transform="translate(0,-244)">
   </path>
  </g>
 </g>
</svg>
