<?xml version="1.0" encoding="UTF-8" standalone="no"?>
<!-- Created with Inkscape (http://www.inkscape.org/) -->
<svg height="16" id="svg2817" inkscape:version="0.91 r13725" sodipodi:docname="kolf.svg" version="1.0" width="16" xmlns="http://www.w3.org/2000/svg" xmlns:cc="http://creativecommons.org/ns#" xmlns:dc="http://purl.org/dc/elements/1.1/" xmlns:inkscape="http://www.inkscape.org/namespaces/inkscape" xmlns:rdf="http://www.w3.org/1999/02/22-rdf-syntax-ns#" xmlns:sodipodi="http://sodipodi.sourceforge.net/DTD/sodipodi-0.dtd" xmlns:svg="http://www.w3.org/2000/svg">
 <defs id="defs219">
  <style id="current-color-scheme" type="text/css">
   .ColorScheme-Text { color:#555555; }
  </style>
 </defs>
 <sodipodi:namedview bordercolor="#666666" borderopacity="1" gridtolerance="10" guidetolerance="10" id="namedview217" inkscape:current-layer="svg2817" inkscape:cx="-11.728814" inkscape:cy="16" inkscape:pageopacity="0" inkscape:pageshadow="2" inkscape:window-height="847" inkscape:window-maximized="1" inkscape:window-width="1600" inkscape:window-x="0" inkscape:window-y="0" inkscape:zoom="7.375" objecttolerance="10" pagecolor="#ffffff" showgrid="false">
 </sodipodi:namedview>
 <metadata id="metadata57">
  <rdf:rdf>
   <cc:work rdf:about="">
    <dc:format>
     image/svg+xml
    </dc:format>
    <dc:type rdf:resource="http://purl.org/dc/dcmitype/StillImage">
    </dc:type>
    <dc:title>
    </dc:title>
   </cc:work>
  </rdf:rdf>
 </metadata>
 <text font-size="12.666px" id="text4087-2-6-5" style="font-size:12.66600037px;font-family:'Bitstream Vera Sans';opacity:0.8;fill:#000000" x="877.22626" xml:space="preserve" y="-21.187399">
  <tspan id="tspan4089-7-2-9" x="877.22626" y="-21.187399">
  </tspan>
 </text>
 <text font-size="12.666px" id="text4087-2-6-5-5" style="font-size:12.66600037px;font-family:'Bitstream Vera Sans';opacity:0.8;fill:#000000" x="901.18719" xml:space="preserve" y="-61.929108">
  <tspan id="tspan4089-7-2-9-6" x="901.18719" y="-61.929108">
  </tspan>
 </text>
 <text font-size="12.666px" id="text4087-2-6-5-2" style="font-size:12.66600037px;font-family:'Bitstream Vera Sans';opacity:0.8;fill:#000000" x="-569.37115" xml:space="preserve" y="-92.007248">
  <tspan id="tspan4089-7-2-9-2" x="-569.37115" y="-92.007248">
  </tspan>
 </text>
 <text font-size="12.666px" id="text4087-2-6-5-59" style="font-size:12.66600037px;font-family:'Bitstream Vera Sans';opacity:0.8;fill:#000000" x="-2393.0571" xml:space="preserve" y="653.5462">
  <tspan id="tspan4089-7-2-9-4" x="-2393.0571" y="653.5462">
  </tspan>
 </text>
 <text font-size="12.666px" id="text4087-2-6-5-1" style="font-size:12.66600037px;font-family:'Bitstream Vera Sans';opacity:0.8;fill:#000000" x="-454.88007" xml:space="preserve" y="-477.32822">
  <tspan id="tspan4089-7-2-9-7" x="-454.88007" y="-477.32822">
  </tspan>
 </text>
 <text font-size="12.666px" id="text4087-2-6-5-7" style="font-size:12.66600037px;font-family:'Bitstream Vera Sans';opacity:0.8;fill:#000000" x="352.72208" xml:space="preserve" y="-890.79834">
  <tspan id="tspan4089-7-2-9-1" x="352.72208" y="-890.79834">
  </tspan>
 </text>
 <text font-size="12.666px" id="text4087-2-6-5-5-3" style="font-size:12.66600037px;font-family:'Bitstream Vera Sans';opacity:0.8;fill:#000000" x="376.68301" xml:space="preserve" y="-931.54004">
  <tspan id="tspan4089-7-2-9-6-5" x="376.68301" y="-931.54004">
  </tspan>
 </text>
 <text font-size="12.666px" id="text4087-2-6-5-3" style="font-size:12.66600037px;font-family:'Bitstream Vera Sans';opacity:0.8;fill:#000000" x="-1114.7802" xml:space="preserve" y="-938.74994">
  <tspan id="tspan4089-7-2-9-18" x="-1114.7802" y="-938.74994">
  </tspan>
 </text>
 <text font-size="12.666px" id="text4087-2-6-5-4" style="font-size:12.66600037px;font-family:'Bitstream Vera Sans';opacity:0.8;fill:#000000" x="345.7626" xml:space="preserve" y="-1211.9841">
  <tspan id="tspan4089-7-2-9-9" x="345.7626" y="-1211.9841">
  </tspan>
 </text>
 <text font-size="12.666px" id="text4087-2-6-5-7-1" style="font-size:12.66600037px;font-family:'Bitstream Vera Sans';opacity:0.8;fill:#000000" x="1831.8861" xml:space="preserve" y="-585.29272">
  <tspan id="tspan4089-7-2-9-1-8" x="1831.8861" y="-585.29272">
  </tspan>
 </text>
 <text font-size="12.666px" id="text4087-2-6-5-5-5" style="font-size:12.66600037px;font-family:'Bitstream Vera Sans';opacity:0.8;fill:#000000" x="1855.8469" xml:space="preserve" y="-626.03448">
  <tspan id="tspan4089-7-2-9-6-9" x="1855.8469" y="-626.03448">
  </tspan>
 </text>
 <text font-size="12.666px" id="text4087-2-6-5-75" style="font-size:12.66600037px;font-family:'Bitstream Vera Sans';opacity:0.8;fill:#000000" x="364.38376" xml:space="preserve" y="-633.24438">
  <tspan id="tspan4089-7-2-9-3" x="364.38376" y="-633.24438">
  </tspan>
 </text>
 <text font-size="12.666px" id="text4087-2-6-5-4-8" style="font-size:12.66600037px;font-family:'Bitstream Vera Sans';opacity:0.8;fill:#000000" x="1824.9266" xml:space="preserve" y="-906.47839">
  <tspan id="tspan4089-7-2-9-9-8" x="1824.9266" y="-906.47839">
  </tspan>
 </text>
 <text font-size="12.666px" id="text4087-2-6-5-45" style="font-size:12.66600037px;font-family:'Bitstream Vera Sans';opacity:0.8;fill:#000000" x="-573.43256" xml:space="preserve" y="-681.33569">
  <tspan id="tspan4089-7-2-9-75" x="-573.43256" y="-681.33569">
  </tspan>
 </text>
 <text font-size="12.666px" id="text4087-2-6-5-59-7" style="font-size:12.66600037px;font-family:'Bitstream Vera Sans';opacity:0.8;fill:#000000" x="-2397.1182" xml:space="preserve" y="64.217857">
  <tspan id="tspan4089-7-2-9-4-0" x="-2397.1182" y="64.217857">
  </tspan>
 </text>
 <text font-size="12.666px" id="text4087-2-6-5-8" style="font-size:12.66600037px;font-family:'Bitstream Vera Sans';opacity:0.8;fill:#000000" x="-682.36279" xml:space="preserve" y="157.09">
  <tspan id="tspan4089-7-2-9-19" x="-682.36279" y="157.09">
  </tspan>
 </text>
 <text font-size="12.666px" id="text4087-2-6-5-7-5" style="font-size:12.66600037px;font-family:'Bitstream Vera Sans';opacity:0.8;fill:#000000" x="426.66153" xml:space="preserve" y="-22.092148">
  <tspan id="tspan4089-7-2-9-1-2" x="426.66153" y="-22.092148">
  </tspan>
 </text>
 <text font-size="12.666px" id="text4087-2-6-5-5-0" style="font-size:12.66600037px;font-family:'Bitstream Vera Sans';opacity:0.8;fill:#000000" x="450.62247" xml:space="preserve" y="-62.833855">
  <tspan id="tspan4089-7-2-9-6-2" x="450.62247" y="-62.833855">
  </tspan>
 </text>
 <text font-size="12.666px" id="text4087-2-6-5-26" style="font-size:12.66600037px;font-family:'Bitstream Vera Sans';opacity:0.8;fill:#000000" x="-1040.8407" xml:space="preserve" y="-70.043823">
  <tspan id="tspan4089-7-2-9-90" x="-1040.8407" y="-70.043823">
  </tspan>
 </text>
 <text font-size="12.666px" id="text4087-2-6-5-4-3" style="font-size:12.66600037px;font-family:'Bitstream Vera Sans';opacity:0.8;fill:#000000" x="419.70206" xml:space="preserve" y="-343.27789">
  <tspan id="tspan4089-7-2-9-9-5" x="419.70206" y="-343.27789">
  </tspan>
 </text>
 <text font-size="12.666px" id="text4087-2-6-5-55" style="font-size:12.66600037px;font-family:'Bitstream Vera Sans';opacity:0.8;fill:#000000" x="-608.03253" xml:space="preserve" y="-72.758072">
  <tspan id="tspan4089-7-2-9-32" x="-608.03253" y="-72.758072">
  </tspan>
 </text>
 <text font-size="12.666px" id="text4087-2-6-5-59-9" style="font-size:12.66600037px;font-family:'Bitstream Vera Sans';opacity:0.8;fill:#000000" x="-2431.7185" xml:space="preserve" y="672.79541">
  <tspan id="tspan4089-7-2-9-4-1" x="-2431.7185" y="672.79541">
  </tspan>
 </text>
 <text font-size="12.666px" id="text4087-2-6-5-1-8" style="font-size:12.66600037px;font-family:'Bitstream Vera Sans';opacity:0.8;fill:#000000" x="-456.93948" xml:space="preserve" y="-934.28857">
  <tspan id="tspan4089-7-2-9-7-8" x="-456.93948" y="-934.28857">
  </tspan>
 </text>
 <text font-size="12.666px" id="text4087-2-6-5-7-8" style="font-size:12.66600037px;font-family:'Bitstream Vera Sans';opacity:0.8;fill:#000000" x="350.66266" xml:space="preserve" y="-1347.7588">
  <tspan id="tspan4089-7-2-9-1-9" x="350.66266" y="-1347.7588">
  </tspan>
 </text>
 <text font-size="12.666px" id="text4087-2-6-5-5-52" style="font-size:12.66600037px;font-family:'Bitstream Vera Sans';opacity:0.8;fill:#000000" x="374.62357" xml:space="preserve" y="-1388.5005">
  <tspan id="tspan4089-7-2-9-6-4" x="374.62357" y="-1388.5005">
  </tspan>
 </text>
 <text font-size="12.666px" id="text4087-2-6-5-3-4" style="font-size:12.66600037px;font-family:'Bitstream Vera Sans';opacity:0.8;fill:#000000" x="-1116.8396" xml:space="preserve" y="-1395.7104">
  <tspan id="tspan4089-7-2-9-18-3" x="-1116.8396" y="-1395.7104">
  </tspan>
 </text>
 <text font-size="12.666px" id="text4087-2-6-5-4-7" style="font-size:12.66600037px;font-family:'Bitstream Vera Sans';opacity:0.8;fill:#000000" x="343.70316" xml:space="preserve" y="-1668.9446">
  <tspan id="tspan4089-7-2-9-9-54" x="343.70316" y="-1668.9446">
  </tspan>
 </text>
 <text font-size="12.666px" id="text4087-2-6-5-7-1-2" style="font-size:12.66600037px;font-family:'Bitstream Vera Sans';opacity:0.8;fill:#000000" x="1829.8265" xml:space="preserve" y="-1042.2533">
  <tspan id="tspan4089-7-2-9-1-8-0" x="1829.8265" y="-1042.2533">
  </tspan>
 </text>
 <text font-size="12.666px" id="text4087-2-6-5-5-5-6" style="font-size:12.66600037px;font-family:'Bitstream Vera Sans';opacity:0.8;fill:#000000" x="1853.7874" xml:space="preserve" y="-1082.9949">
  <tspan id="tspan4089-7-2-9-6-9-8" x="1853.7874" y="-1082.9949">
  </tspan>
 </text>
 <text font-size="12.666px" id="text4087-2-6-5-75-4" style="font-size:12.66600037px;font-family:'Bitstream Vera Sans';opacity:0.8;fill:#000000" x="362.32431" xml:space="preserve" y="-1090.2048">
  <tspan id="tspan4089-7-2-9-3-9" x="362.32431" y="-1090.2048">
  </tspan>
 </text>
 <text font-size="12.666px" id="text4087-2-6-5-4-8-1" style="font-size:12.66600037px;font-family:'Bitstream Vera Sans';opacity:0.8;fill:#000000" x="1822.8671" xml:space="preserve" y="-1363.439">
  <tspan id="tspan4089-7-2-9-9-8-8" x="1822.8671" y="-1363.439">
  </tspan>
 </text>
 <text font-size="12.666px" id="text4087-2-6-5-45-0" style="font-size:12.66600037px;font-family:'Bitstream Vera Sans';opacity:0.8;fill:#000000" x="-575.492" xml:space="preserve" y="-1138.2961">
  <tspan id="tspan4089-7-2-9-75-2" x="-575.492" y="-1138.2961">
  </tspan>
 </text>
 <text font-size="12.666px" id="text4087-2-6-5-59-5" style="font-size:12.66600037px;font-family:'Bitstream Vera Sans';opacity:0.8;fill:#000000" x="-2399.1777" xml:space="preserve" y="-392.74261">
  <tspan id="tspan4089-7-2-9-4-00" x="-2399.1777" y="-392.74261">
  </tspan>
 </text>
 <text font-size="12.666px" id="text4087-2-6-5-264" style="font-size:12.66600037px;font-family:'Bitstream Vera Sans';opacity:0.8;fill:#000000" x="-684.42224" xml:space="preserve" y="-299.87045">
  <tspan id="tspan4089-7-2-9-8" x="-684.42224" y="-299.87045">
  </tspan>
 </text>
 <text font-size="12.666px" id="text4087-2-6-5-42" style="font-size:12.66600037px;font-family:'Bitstream Vera Sans';opacity:0.8;fill:#000000" x="155.5923" xml:space="preserve" y="-58.956276">
  <tspan id="tspan4089-7-2-9-93" x="155.5923" y="-58.956276">
  </tspan>
 </text>
 <text font-size="12.666px" id="text4087-2-6-5-5-05" style="font-size:12.66600037px;font-family:'Bitstream Vera Sans';opacity:0.8;fill:#000000" x="179.55324" xml:space="preserve" y="-99.697998">
  <tspan id="tspan4089-7-2-9-6-49" x="179.55324" y="-99.697998">
  </tspan>
 </text>
 <text font-size="12.666px" id="text4087-2-6-5-1-4" style="font-size:12.66600037px;font-family:'Bitstream Vera Sans';opacity:0.8;fill:#000000" x="-1090.2634" xml:space="preserve" y="-293.72662">
  <tspan id="tspan4089-7-2-9-7-7" x="-1090.2634" y="-293.72662">
  </tspan>
 </text>
 <text font-size="12.666px" id="text4087-2-6-5-7-56" style="font-size:12.66600037px;font-family:'Bitstream Vera Sans';opacity:0.8;fill:#000000" x="-282.66141" xml:space="preserve" y="-707.19678">
  <tspan id="tspan4089-7-2-9-1-1" x="-282.66141" y="-707.19678">
  </tspan>
 </text>
 <text font-size="12.666px" id="text4087-2-6-5-5-8" style="font-size:12.66600037px;font-family:'Bitstream Vera Sans';opacity:0.8;fill:#000000" x="-258.70047" xml:space="preserve" y="-747.93848">
  <tspan id="tspan4089-7-2-9-6-7" x="-258.70047" y="-747.93848">
  </tspan>
 </text>
 <text font-size="12.666px" id="text4087-2-6-5-3-42" style="font-size:12.66600037px;font-family:'Bitstream Vera Sans';opacity:0.8;fill:#000000" x="-1750.1636" xml:space="preserve" y="-755.14838">
  <tspan id="tspan4089-7-2-9-18-39" x="-1750.1636" y="-755.14838">
  </tspan>
 </text>
 <text font-size="12.666px" id="text4087-2-6-5-4-4" style="font-size:12.66600037px;font-family:'Bitstream Vera Sans';opacity:0.8;fill:#000000" x="-289.62085" xml:space="preserve" y="-1028.3826">
  <tspan id="tspan4089-7-2-9-9-3" x="-289.62085" y="-1028.3826">
  </tspan>
 </text>
 <text font-size="12.666px" id="text4087-2-6-5-7-1-0" style="font-size:12.66600037px;font-family:'Bitstream Vera Sans';opacity:0.8;fill:#000000" x="1196.5026" xml:space="preserve" y="-401.69113">
  <tspan id="tspan4089-7-2-9-1-8-5" x="1196.5026" y="-401.69113">
  </tspan>
 </text>
 <text font-size="12.666px" id="text4087-2-6-5-5-5-5" style="font-size:12.66600037px;font-family:'Bitstream Vera Sans';opacity:0.8;fill:#000000" x="1220.4634" xml:space="preserve" y="-442.43286">
  <tspan id="tspan4089-7-2-9-6-9-2" x="1220.4634" y="-442.43286">
  </tspan>
 </text>
 <text font-size="12.666px" id="text4087-2-6-5-75-9" style="font-size:12.66600037px;font-family:'Bitstream Vera Sans';opacity:0.8;fill:#000000" x="-270.99973" xml:space="preserve" y="-449.64282">
  <tspan id="tspan4089-7-2-9-3-1" x="-270.99973" y="-449.64282">
  </tspan>
 </text>
 <text font-size="12.666px" id="text4087-2-6-5-4-8-18" style="font-size:12.66600037px;font-family:'Bitstream Vera Sans';opacity:0.8;fill:#000000" x="1189.5431" xml:space="preserve" y="-722.87689">
  <tspan id="tspan4089-7-2-9-9-8-4" x="1189.5431" y="-722.87689">
  </tspan>
 </text>
 <text font-size="12.666px" id="text4087-2-6-5-45-3" style="font-size:12.66600037px;font-family:'Bitstream Vera Sans';opacity:0.8;fill:#000000" x="-1208.816" xml:space="preserve" y="-497.7341">
  <tspan id="tspan4089-7-2-9-75-7" x="-1208.816" y="-497.7341">
  </tspan>
 </text>
 <text font-size="12.666px" id="text4087-2-6-5-59-8" style="font-size:12.66600037px;font-family:'Bitstream Vera Sans';opacity:0.8;fill:#000000" x="-3032.5017" xml:space="preserve" y="247.81946">
  <tspan id="tspan4089-7-2-9-4-2" x="-3032.5017" y="247.81946">
  </tspan>
 </text>
 <g id="layer4-0" transform="matrix(0.90475,0,0,0.90475,-716.75,-708.29)">
  <text font-size="14px" id="text4087-2-6-5-20" style="font-size:14px;font-family:'Bitstream Vera Sans';opacity:0.8;fill:#000000" x="-664.2738" xml:space="preserve" y="1159.4154">
   <tspan id="tspan4089-7-2-9-82" x="-664.2738" y="1159.4154">
   </tspan>
  </text>
 </g>
 <text font-size="12.666px" id="text4087-2-6-5-9" style="font-size:12.66600037px;font-family:'Bitstream Vera Sans';opacity:0.8;fill:#000000" x="877.22626" xml:space="preserve" y="-13.949411">
  <tspan id="tspan4089-7-2-9-43" x="877.22626" y="-13.949411">
  </tspan>
 </text>
 <text font-size="12.666px" id="text4087-2-6-5-5-51" style="font-size:12.66600037px;font-family:'Bitstream Vera Sans';opacity:0.8;fill:#000000" x="901.18719" xml:space="preserve" y="-54.691116">
  <tspan id="tspan4089-7-2-9-6-74" x="901.18719" y="-54.691116">
  </tspan>
 </text>
 <text font-size="12.666px" id="text4087-2-6-5-2-3" style="font-size:12.66600037px;font-family:'Bitstream Vera Sans';opacity:0.8;fill:#000000" x="-569.37115" xml:space="preserve" y="-84.769257">
  <tspan id="tspan4089-7-2-9-2-1" x="-569.37115" y="-84.769257">
  </tspan>
 </text>
 <text font-size="12.666px" id="text4087-2-6-5-59-4" style="font-size:12.66600037px;font-family:'Bitstream Vera Sans';opacity:0.8;fill:#000000" x="-2393.0571" xml:space="preserve" y="660.78418">
  <tspan id="tspan4089-7-2-9-4-6" x="-2393.0571" y="660.78418">
  </tspan>
 </text>
 <text font-size="12.666px" id="text4087-2-6-5-1-9" style="font-size:12.66600037px;font-family:'Bitstream Vera Sans';opacity:0.8;fill:#000000" x="-454.88007" xml:space="preserve" y="-470.09021">
  <tspan id="tspan4089-7-2-9-7-4" x="-454.88007" y="-470.09021">
  </tspan>
 </text>
 <text font-size="12.666px" id="text4087-2-6-5-7-2" style="font-size:12.66600037px;font-family:'Bitstream Vera Sans';opacity:0.8;fill:#000000" x="352.72208" xml:space="preserve" y="-883.5603">
  <tspan id="tspan4089-7-2-9-1-26" x="352.72208" y="-883.5603">
  </tspan>
 </text>
 <text font-size="12.666px" id="text4087-2-6-5-5-3-4" style="font-size:12.66600037px;font-family:'Bitstream Vera Sans';opacity:0.8;fill:#000000" x="376.68301" xml:space="preserve" y="-924.30206">
  <tspan id="tspan4089-7-2-9-6-5-1" x="376.68301" y="-924.30206">
  </tspan>
 </text>
 <text font-size="12.666px" id="text4087-2-6-5-3-2" style="font-size:12.66600037px;font-family:'Bitstream Vera Sans';opacity:0.8;fill:#000000" x="-1114.7802" xml:space="preserve" y="-931.51196">
  <tspan id="tspan4089-7-2-9-18-8" x="-1114.7802" y="-931.51196">
  </tspan>
 </text>
 <text font-size="12.666px" id="text4087-2-6-5-4-89" style="font-size:12.66600037px;font-family:'Bitstream Vera Sans';opacity:0.8;fill:#000000" x="345.7626" xml:space="preserve" y="-1204.7461">
  <tspan id="tspan4089-7-2-9-9-2" x="345.7626" y="-1204.7461">
  </tspan>
 </text>
 <text font-size="12.666px" id="text4087-2-6-5-7-1-8" style="font-size:12.66600037px;font-family:'Bitstream Vera Sans';opacity:0.8;fill:#000000" x="1831.8861" xml:space="preserve" y="-578.05475">
  <tspan id="tspan4089-7-2-9-1-8-8" x="1831.8861" y="-578.05475">
  </tspan>
 </text>
 <text font-size="12.666px" id="text4087-2-6-5-5-5-8" style="font-size:12.66600037px;font-family:'Bitstream Vera Sans';opacity:0.8;fill:#000000" x="1855.8469" xml:space="preserve" y="-618.79651">
  <tspan id="tspan4089-7-2-9-6-9-6" x="1855.8469" y="-618.79651">
  </tspan>
 </text>
 <text font-size="12.666px" id="text4087-2-6-5-75-8" style="font-size:12.66600037px;font-family:'Bitstream Vera Sans';opacity:0.8;fill:#000000" x="364.38376" xml:space="preserve" y="-626.00641">
  <tspan id="tspan4089-7-2-9-3-3" x="364.38376" y="-626.00641">
  </tspan>
 </text>
 <text font-size="12.666px" id="text4087-2-6-5-4-8-8" style="font-size:12.66600037px;font-family:'Bitstream Vera Sans';opacity:0.8;fill:#000000" x="1824.9266" xml:space="preserve" y="-899.24036">
  <tspan id="tspan4089-7-2-9-9-8-3" x="1824.9266" y="-899.24036">
  </tspan>
 </text>
 <text font-size="12.666px" id="text4087-2-6-5-45-33" style="font-size:12.66600037px;font-family:'Bitstream Vera Sans';opacity:0.8;fill:#000000" x="-573.43256" xml:space="preserve" y="-674.09772">
  <tspan id="tspan4089-7-2-9-75-8" x="-573.43256" y="-674.09772">
  </tspan>
 </text>
 <text font-size="12.666px" id="text4087-2-6-5-59-7-0" style="font-size:12.66600037px;font-family:'Bitstream Vera Sans';opacity:0.8;fill:#000000" x="-2397.1182" xml:space="preserve" y="71.455849">
  <tspan id="tspan4089-7-2-9-4-0-4" x="-2397.1182" y="71.455849">
  </tspan>
 </text>
 <text font-size="12.666px" id="text4087-2-6-5-8-7" style="font-size:12.66600037px;font-family:'Bitstream Vera Sans';opacity:0.8;fill:#000000" x="-682.36279" xml:space="preserve" y="164.32799">
  <tspan id="tspan4089-7-2-9-19-6" x="-682.36279" y="164.32799">
  </tspan>
 </text>
 <text font-size="12.666px" id="text4087-2-6-5-7-5-8" style="font-size:12.66600037px;font-family:'Bitstream Vera Sans';opacity:0.8;fill:#000000" x="426.66153" xml:space="preserve" y="-14.85416">
  <tspan id="tspan4089-7-2-9-1-2-9" x="426.66153" y="-14.85416">
  </tspan>
 </text>
 <text font-size="12.666px" id="text4087-2-6-5-5-0-0" style="font-size:12.66600037px;font-family:'Bitstream Vera Sans';opacity:0.8;fill:#000000" x="450.62247" xml:space="preserve" y="-55.595863">
  <tspan id="tspan4089-7-2-9-6-2-6" x="450.62247" y="-55.595863">
  </tspan>
 </text>
 <text font-size="12.666px" id="text4087-2-6-5-26-8" style="font-size:12.66600037px;font-family:'Bitstream Vera Sans';opacity:0.8;fill:#000000" x="-1040.8407" xml:space="preserve" y="-62.805836">
  <tspan id="tspan4089-7-2-9-90-7" x="-1040.8407" y="-62.805836">
  </tspan>
 </text>
 <text font-size="12.666px" id="text4087-2-6-5-4-3-9" style="font-size:12.66600037px;font-family:'Bitstream Vera Sans';opacity:0.8;fill:#000000" x="419.70206" xml:space="preserve" y="-336.03989">
  <tspan id="tspan4089-7-2-9-9-5-0" x="419.70206" y="-336.03989">
  </tspan>
 </text>
 <text font-size="12.666px" id="text4087-2-6-5-55-3" style="font-size:12.66600037px;font-family:'Bitstream Vera Sans';opacity:0.8;fill:#000000" x="-608.03253" xml:space="preserve" y="-65.520081">
  <tspan id="tspan4089-7-2-9-32-3" x="-608.03253" y="-65.520081">
  </tspan>
 </text>
 <text font-size="12.666px" id="text4087-2-6-5-59-9-3" style="font-size:12.66600037px;font-family:'Bitstream Vera Sans';opacity:0.8;fill:#000000" x="-2431.7185" xml:space="preserve" y="680.03345">
  <tspan id="tspan4089-7-2-9-4-1-7" x="-2431.7185" y="680.03345">
  </tspan>
 </text>
 <text font-size="12.666px" id="text4087-2-6-5-1-8-3" style="font-size:12.66600037px;font-family:'Bitstream Vera Sans';opacity:0.8;fill:#000000" x="-456.93948" xml:space="preserve" y="-927.0506">
  <tspan id="tspan4089-7-2-9-7-8-2" x="-456.93948" y="-927.0506">
  </tspan>
 </text>
 <text font-size="12.666px" id="text4087-2-6-5-7-8-6" style="font-size:12.66600037px;font-family:'Bitstream Vera Sans';opacity:0.8;fill:#000000" x="350.66266" xml:space="preserve" y="-1340.5208">
  <tspan id="tspan4089-7-2-9-1-9-5" x="350.66266" y="-1340.5208">
  </tspan>
 </text>
 <text font-size="12.666px" id="text4087-2-6-5-5-52-2" style="font-size:12.66600037px;font-family:'Bitstream Vera Sans';opacity:0.8;fill:#000000" x="374.62357" xml:space="preserve" y="-1381.2626">
  <tspan id="tspan4089-7-2-9-6-4-6" x="374.62357" y="-1381.2626">
  </tspan>
 </text>
 <text font-size="12.666px" id="text4087-2-6-5-3-4-5" style="font-size:12.66600037px;font-family:'Bitstream Vera Sans';opacity:0.8;fill:#000000" x="-1116.8396" xml:space="preserve" y="-1388.4724">
  <tspan id="tspan4089-7-2-9-18-3-8" x="-1116.8396" y="-1388.4724">
  </tspan>
 </text>
 <text font-size="12.666px" id="text4087-2-6-5-4-7-7" style="font-size:12.66600037px;font-family:'Bitstream Vera Sans';opacity:0.8;fill:#000000" x="343.70316" xml:space="preserve" y="-1661.7065">
  <tspan id="tspan4089-7-2-9-9-54-9" x="343.70316" y="-1661.7065">
  </tspan>
 </text>
 <text font-size="12.666px" id="text4087-2-6-5-7-1-2-6" style="font-size:12.66600037px;font-family:'Bitstream Vera Sans';opacity:0.8;fill:#000000" x="1829.8265" xml:space="preserve" y="-1035.0154">
  <tspan id="tspan4089-7-2-9-1-8-0-0" x="1829.8265" y="-1035.0154">
  </tspan>
 </text>
 <text font-size="12.666px" id="text4087-2-6-5-5-5-6-4" style="font-size:12.66600037px;font-family:'Bitstream Vera Sans';opacity:0.8;fill:#000000" x="1853.7874" xml:space="preserve" y="-1075.757">
  <tspan id="tspan4089-7-2-9-6-9-8-1" x="1853.7874" y="-1075.757">
  </tspan>
 </text>
 <text font-size="12.666px" id="text4087-2-6-5-75-4-0" style="font-size:12.66600037px;font-family:'Bitstream Vera Sans';opacity:0.8;fill:#000000" x="362.32431" xml:space="preserve" y="-1082.9668">
  <tspan id="tspan4089-7-2-9-3-9-4" x="362.32431" y="-1082.9668">
  </tspan>
 </text>
 <text font-size="12.666px" id="text4087-2-6-5-4-8-1-8" style="font-size:12.66600037px;font-family:'Bitstream Vera Sans';opacity:0.8;fill:#000000" x="1822.8671" xml:space="preserve" y="-1356.2009">
  <tspan id="tspan4089-7-2-9-9-8-8-7" x="1822.8671" y="-1356.2009">
  </tspan>
 </text>
 <text font-size="12.666px" id="text4087-2-6-5-45-0-0" style="font-size:12.66600037px;font-family:'Bitstream Vera Sans';opacity:0.8;fill:#000000" x="-575.492" xml:space="preserve" y="-1131.0581">
  <tspan id="tspan4089-7-2-9-75-2-8" x="-575.492" y="-1131.0581">
  </tspan>
 </text>
 <text font-size="12.666px" id="text4087-2-6-5-59-5-6" style="font-size:12.66600037px;font-family:'Bitstream Vera Sans';opacity:0.8;fill:#000000" x="-2399.1777" xml:space="preserve" y="-385.50461">
  <tspan id="tspan4089-7-2-9-4-00-2" x="-2399.1777" y="-385.50461">
  </tspan>
 </text>
 <text font-size="12.666px" id="text4087-2-6-5-264-4" style="font-size:12.66600037px;font-family:'Bitstream Vera Sans';opacity:0.8;fill:#000000" x="-684.42224" xml:space="preserve" y="-292.63245">
  <tspan id="tspan4089-7-2-9-8-7" x="-684.42224" y="-292.63245">
  </tspan>
 </text>
 <text font-size="12.666px" id="text4087-2-6-5-42-9" style="font-size:12.66600037px;font-family:'Bitstream Vera Sans';opacity:0.8;fill:#000000" x="155.5923" xml:space="preserve" y="-51.718292">
  <tspan id="tspan4089-7-2-9-93-3" x="155.5923" y="-51.718292">
  </tspan>
 </text>
 <text font-size="12.666px" id="text4087-2-6-5-5-05-9" style="font-size:12.66600037px;font-family:'Bitstream Vera Sans';opacity:0.8;fill:#000000" x="179.55324" xml:space="preserve" y="-92.460007">
  <tspan id="tspan4089-7-2-9-6-49-2" x="179.55324" y="-92.460007">
  </tspan>
 </text>
 <text font-size="12.666px" id="text4087-2-6-5-1-4-8" style="font-size:12.66600037px;font-family:'Bitstream Vera Sans';opacity:0.8;fill:#000000" x="-1090.2634" xml:space="preserve" y="-286.48859">
  <tspan id="tspan4089-7-2-9-7-7-3" x="-1090.2634" y="-286.48859">
  </tspan>
 </text>
 <text font-size="12.666px" id="text4087-2-6-5-7-56-0" style="font-size:12.66600037px;font-family:'Bitstream Vera Sans';opacity:0.8;fill:#000000" x="-282.66141" xml:space="preserve" y="-699.9588">
  <tspan id="tspan4089-7-2-9-1-1-1" x="-282.66141" y="-699.9588">
  </tspan>
 </text>
 <text font-size="12.666px" id="text4087-2-6-5-5-8-7" style="font-size:12.66600037px;font-family:'Bitstream Vera Sans';opacity:0.8;fill:#000000" x="-258.70047" xml:space="preserve" y="-740.7005">
  <tspan id="tspan4089-7-2-9-6-7-8" x="-258.70047" y="-740.7005">
  </tspan>
 </text>
 <text font-size="12.666px" id="text4087-2-6-5-3-42-9" style="font-size:12.66600037px;font-family:'Bitstream Vera Sans';opacity:0.8;fill:#000000" x="-1750.1636" xml:space="preserve" y="-747.91046">
  <tspan id="tspan4089-7-2-9-18-39-1" x="-1750.1636" y="-747.91046">
  </tspan>
 </text>
 <text font-size="12.666px" id="text4087-2-6-5-4-4-5" style="font-size:12.66600037px;font-family:'Bitstream Vera Sans';opacity:0.8;fill:#000000" x="-289.62085" xml:space="preserve" y="-1021.1445">
  <tspan id="tspan4089-7-2-9-9-3-4" x="-289.62085" y="-1021.1445">
  </tspan>
 </text>
 <text font-size="12.666px" id="text4087-2-6-5-7-1-0-9" style="font-size:12.66600037px;font-family:'Bitstream Vera Sans';opacity:0.8;fill:#000000" x="1196.5026" xml:space="preserve" y="-394.45316">
  <tspan id="tspan4089-7-2-9-1-8-5-2" x="1196.5026" y="-394.45316">
  </tspan>
 </text>
 <text font-size="12.666px" id="text4087-2-6-5-5-5-5-5" style="font-size:12.66600037px;font-family:'Bitstream Vera Sans';opacity:0.8;fill:#000000" x="1220.4634" xml:space="preserve" y="-435.19489">
  <tspan id="tspan4089-7-2-9-6-9-2-7" x="1220.4634" y="-435.19489">
  </tspan>
 </text>
 <text font-size="12.666px" id="text4087-2-6-5-75-9-4" style="font-size:12.66600037px;font-family:'Bitstream Vera Sans';opacity:0.8;fill:#000000" x="-270.99973" xml:space="preserve" y="-442.40482">
  <tspan id="tspan4089-7-2-9-3-1-9" x="-270.99973" y="-442.40482">
  </tspan>
 </text>
 <text font-size="12.666px" id="text4087-2-6-5-4-8-18-9" style="font-size:12.66600037px;font-family:'Bitstream Vera Sans';opacity:0.8;fill:#000000" x="1189.5431" xml:space="preserve" y="-715.63892">
  <tspan id="tspan4089-7-2-9-9-8-4-4" x="1189.5431" y="-715.63892">
  </tspan>
 </text>
 <text font-size="12.666px" id="text4087-2-6-5-45-3-5" style="font-size:12.66600037px;font-family:'Bitstream Vera Sans';opacity:0.8;fill:#000000" x="-1208.816" xml:space="preserve" y="-490.49609">
  <tspan id="tspan4089-7-2-9-75-7-9" x="-1208.816" y="-490.49609">
  </tspan>
 </text>
 <text font-size="12.666px" id="text4087-2-6-5-59-8-3" style="font-size:12.66600037px;font-family:'Bitstream Vera Sans';opacity:0.8;fill:#000000" x="-3032.5017" xml:space="preserve" y="255.05743">
  <tspan id="tspan4089-7-2-9-4-2-5" x="-3032.5017" y="255.05743">
  </tspan>
 </text>
 <g id="layer4-0-7" transform="matrix(0.90475,0,0,0.90475,-716.75,-701.05)">
  <text font-size="14px" id="text4087-2-6-5-20-0" style="font-size:14px;font-family:'Bitstream Vera Sans';opacity:0.8;fill:#000000" x="-664.2738" xml:space="preserve" y="1159.4154">
   <tspan id="tspan4089-7-2-9-82-8" x="-664.2738" y="1159.4154">
   </tspan>
  </text>
 </g>
 <text font-size="12.666px" id="text7276" style="font-size:12.66600037px;font-family:'Droid Sans';fill:#000000" x="435.90427" xml:space="preserve" y="-393.22546">
  <tspan id="tspan7278" x="435.90427" y="-393.22546">
  </tspan>
  <tspan id="tspan7280" x="435.90427" y="-377.3924">
  </tspan>
 </text>
 <text font-size="12.666px" id="text4087-2-6-5-51" style="font-size:12.66600037px;font-family:'Bitstream Vera Sans';opacity:0.8;fill:#000000" x="901.0882" xml:space="preserve" y="-875.27002">
  <tspan id="tspan4089-7-2-9-97" x="901.0882" y="-875.27002">
  </tspan>
 </text>
 <text font-size="12.666px" id="text4087-2-6-5-59-2" style="font-size:12.66600037px;font-family:'Bitstream Vera Sans';opacity:0.8;fill:#000000" x="-922.59778" xml:space="preserve" y="-129.71655">
  <tspan id="tspan4089-7-2-9-4-4" x="-922.59778" y="-129.71655">
  </tspan>
 </text>
 <text font-size="12.666px" id="text4087-2-6-5-7-7" style="font-size:12.66600037px;font-family:'Bitstream Vera Sans';opacity:0.8;fill:#000000" x="1628.1677" xml:space="preserve" y="-1160.2659">
  <tspan id="tspan4089-7-2-9-1-6" x="1628.1677" y="-1160.2659">
  </tspan>
 </text>
 <text font-size="12.666px" id="text4087-2-6-5-5-6" style="font-size:12.66600037px;font-family:'Bitstream Vera Sans';opacity:0.8;fill:#000000" x="1652.1285" xml:space="preserve" y="-1201.0076">
  <tspan id="tspan4089-7-2-9-6-53" x="1652.1285" y="-1201.0076">
  </tspan>
 </text>
 <text font-size="12.666px" id="text4087-2-6-5-54" style="font-size:12.66600037px;font-family:'Bitstream Vera Sans';opacity:0.8;fill:#000000" x="160.66542" xml:space="preserve" y="-1208.2175">
  <tspan id="tspan4089-7-2-9-0" x="160.66542" y="-1208.2175">
  </tspan>
 </text>
 <text font-size="12.666px" id="text4087-2-6-5-4-1" style="font-size:12.66600037px;font-family:'Bitstream Vera Sans';opacity:0.8;fill:#000000" x="1621.2083" xml:space="preserve" y="-1481.4517">
  <tspan id="tspan4089-7-2-9-9-28" x="1621.2083" y="-1481.4517">
  </tspan>
 </text>
 <rect height="16" id="rect4255-6" rx="8" ry="8" style="fill:#cccccc;fill-opacity:1" transform="matrix(0,-1,-1,0,0,0)" width="16" x="-16" y="-16">
 </rect>
 <path class="ColorScheme-Text" d="M 4.9288536,0.614037 C 4.6305678,0.737865 4.3483964,0.882037 4.0741678,1.035922 A 1.1428571,1.1428571 0 0 0 5.1482821,1.141637 1.1428571,1.1428571 0 0 0 5.8299965,0.305579 c -0.3022858,0.086 -0.6034286,0.184629 -0.9011429,0.308458 z m -1.8325714,1.0728 C 2.8587393,1.870551 2.631825,2.064037 2.4191964,2.270608 a 1.1428571,1.1428571 0 0 0 0.0908,-0.03171 1.1428571,1.1428571 0 0 0 0.5862857,-0.552057 z M 6.981425,0.070951 a 1.1428571,1.1428571 0 0 0 0.8048572,-0.02653 1.1428571,1.1428571 0 0 0 0.087937,-0.04141 c -0.2968514,0.0051 -0.5945714,0.02896 -0.8928,0.06794 z m -4.252,2.695543 A 1.1428571,1.1428571 0 0 0 2.1130822,4.260608 1.1428571,1.1428571 0 0 0 3.6071965,4.877179 1.1428571,1.1428571 0 0 0 4.2235392,3.382837 1.1428571,1.1428571 0 0 0 2.7294249,2.766494 Z M 5.3674821,1.669237 A 1.1428571,1.1428571 0 0 0 4.7511392,3.163351 1.1428571,1.1428571 0 0 0 6.2452535,3.779694 1.1428571,1.1428571 0 0 0 6.8615965,2.285579 1.1428571,1.1428571 0 0 0 5.3674821,1.669237 Z M 8.0055396,0.571979 A 1.1428571,1.1428571 0 0 0 7.3891964,2.066094 1.1428571,1.1428571 0 0 0 8.8833105,2.682437 1.1428571,1.1428571 0 0 0 9.4996536,1.188322 1.1428571,1.1428571 0 0 0 8.0055396,0.571979 Z M 1.1112535,3.937294 C 0.72630495,4.589808 0.43736785,5.292151 0.25039645,6.026322 a 1.1428571,1.1428571 0 0 0 0.7180571,-0.052 A 1.1428571,1.1428571 0 0 0 1.5847964,4.480094 1.1428571,1.1428571 0 0 0 1.1112535,3.937294 Z M 9.9746826,0.250837 a 1.1428571,1.1428571 0 0 0 0.05208,0.718114 1.1428571,1.1428571 0 0 0 1.494115,0.616343 1.1428571,1.1428571 0 0 0 0.542794,-0.47356 C 11.411105,0.726705 10.70882,0.437791 9.9745336,0.250819 Z M 1.1883964,6.501694 A 1.1428571,1.1428571 0 0 0 0.57205355,7.995808 1.1428571,1.1428571 0 0 0 2.0661678,8.612151 1.1428571,1.1428571 0 0 0 2.6825107,7.118037 1.1428571,1.1428571 0 0 0 1.1883964,6.501694 Z M 3.8264536,5.404437 A 1.1428571,1.1428571 0 0 0 3.2101106,6.898551 1.1428571,1.1428571 0 0 0 4.704225,7.514894 1.1428571,1.1428571 0 0 0 5.3205678,6.020779 1.1428571,1.1428571 0 0 0 3.8264536,5.404437 Z M 6.4646249,4.307179 A 1.1428571,1.1428571 0 0 0 5.8482821,5.801294 1.1428571,1.1428571 0 0 0 7.3423964,6.417637 1.1428571,1.1428571 0 0 0 7.9587392,4.923522 1.1428571,1.1428571 0 0 0 6.4646249,4.307179 Z M 9.1026826,3.209922 A 1.1428571,1.1428571 0 0 0 8.4863396,4.704037 1.1428571,1.1428571 0 0 0 9.9804536,5.320379 1.1428571,1.1428571 0 0 0 10.596797,3.826265 1.1428571,1.1428571 0 0 0 9.1026826,3.209922 Z M 11.740397,2.112665 A 1.1428571,1.1428571 0 0 0 11.123825,3.606779 1.1428571,1.1428571 0 0 0 12.618111,4.223122 1.1428571,1.1428571 0 0 0 13.234683,2.729008 1.1428571,1.1428571 0 0 0 11.740397,2.112665 Z M 0.00268215,8.127522 c 0.00513,0.296852 0.028957,0.594572 0.067943,0.8928 a 1.1428571,1.1428571 0 0 0 -0.026514,-0.804571 1.1428571,1.1428571 0 0 0 -0.041428,-0.088 z M 13.730683,2.419008 a 1.1428571,1.1428571 0 0 0 0.03171,0.09077 1.1428571,1.1428571 0 0 0 0.552086,0.586285 c -0.184,-0.237485 -0.377714,-0.4644 -0.584,-0.677028 z M 2.2855393,9.140151 A 1.1428571,1.1428571 0 0 0 1.6691964,10.634265 1.1428571,1.1428571 0 0 0 3.1633107,11.250608 1.1428571,1.1428571 0 0 0 3.7796536,9.756494 1.1428571,1.1428571 0 0 0 2.2855393,9.140151 Z M 4.9235964,8.042894 A 1.1428571,1.1428571 0 0 0 4.3072536,9.537008 1.1428571,1.1428571 0 0 0 5.8013678,10.153351 1.1428571,1.1428571 0 0 0 6.4177106,8.659237 1.1428571,1.1428571 0 0 0 4.9235964,8.042894 Z M 7.5616535,6.945637 A 1.1428571,1.1428571 0 0 0 6.9453106,8.439751 1.1428571,1.1428571 0 0 0 8.4394246,9.056094 1.1428571,1.1428571 0 0 0 9.0557676,7.561979 1.1428571,1.1428571 0 0 0 7.5616535,6.945637 Z M 10.19994,5.847922 A 1.1428571,1.1428571 0 0 0 9.5835965,7.342037 1.1428571,1.1428571 0 0 0 11.077711,7.958379 1.1428571,1.1428571 0 0 0 11.694054,6.464265 1.1428571,1.1428571 0 0 0 10.19994,5.847922 Z M 12.837997,4.750665 A 1.1428571,1.1428571 0 0 0 12.221654,6.244779 1.1428571,1.1428571 0 0 0 13.715768,6.861122 1.1428571,1.1428571 0 0 0 14.332111,5.367008 1.1428571,1.1428571 0 0 0 12.837997,4.750665 Z M 0.30542495,10.171237 c 0.086006,0.302445 0.1846572,0.603828 0.3084972,0.901542 0.12384,0.297743 0.2680057,0.580172 0.42185135,0.8544 A 1.1428571,1.1428571 0 0 0 1.1414878,10.852894 1.1428571,1.1428571 0 0 0 0.30543065,10.171179 Z M 14.964854,4.073522 a 1.1428571,1.1428571 0 0 0 -0.10576,1.073829 1.1428571,1.1428571 0 0 0 0.836114,0.682114 C 15.609498,5.527179 15.510637,5.226037 15.386637,4.928322 15.263208,4.630037 15.118637,4.347865 14.964923,4.073637 Z m -11.5822861,7.704 A 1.1428571,1.1428571 0 0 0 2.766225,13.271808 1.1428571,1.1428571 0 0 0 4.2603393,13.888379 1.1428571,1.1428571 0 0 0 4.8769106,12.394094 1.1428571,1.1428571 0 0 0 3.3825679,11.777522 Z M 6.0203392,10.680379 A 1.1428571,1.1428571 0 0 0 5.4039964,12.174494 1.1428571,1.1428571 0 0 0 6.8981107,12.790837 1.1428571,1.1428571 0 0 0 7.5144535,11.296722 1.1428571,1.1428571 0 0 0 6.0203392,10.680379 Z M 8.6583966,9.583122 a 1.1428571,1.1428571 0 0 0 -0.616343,1.494115 1.1428571,1.1428571 0 0 0 1.494114,0.616342 A 1.1428571,1.1428571 0 0 0 10.152511,10.199465 1.1428571,1.1428571 0 0 0 8.6583966,9.583122 Z M 11.296454,8.485865 a 1.1428571,1.1428571 0 0 0 -0.616343,1.494114 1.1428571,1.1428571 0 0 0 1.494114,0.616343 1.1428571,1.1428571 0 0 0 0.616343,-1.494114 1.1428571,1.1428571 0 0 0 -1.494114,-0.616343 z m 2.638057,-1.097257 a 1.1428571,1.1428571 0 0 0 -0.616343,1.494114 1.1428571,1.1428571 0 0 0 1.494115,0.616343 1.1428571,1.1428571 0 0 0 0.616342,-1.494114 1.1428571,1.1428571 0 0 0 -1.494114,-0.616343 z m -12.2485717,5.516 c 0.1837143,0.237531 0.3772514,0.464429 0.5837714,0.677029 a 1.1428571,1.1428571 0 0 0 -0.031714,-0.09086 1.1428571,1.1428571 0 0 0 -0.5520571,-0.586285 z m 14.2434287,-5.924 a 1.1428571,1.1428571 0 0 0 0.02654,0.804857 1.1428571,1.1428571 0 0 0 0.04141,0.08794 c -0.0051,-0.296851 -0.02895,-0.594571 -0.06794,-0.8928 z M 4.4790821,14.415465 a 1.1428571,1.1428571 0 0 0 -0.5427942,0.47356 c 0.6525142,0.384949 1.3548571,0.673886 2.0889714,0.860857 a 1.1428571,1.1428571 0 0 0 -0.052,-0.718285 1.1428571,1.1428571 0 0 0 -1.4942286,-0.616 z m 2.6380571,-1.097257 a 1.1428571,1.1428571 0 0 0 -0.6163428,1.494114 1.1428571,1.1428571 0 0 0 1.4941143,0.616343 1.1428571,1.1428571 0 0 0 0.6163429,-1.494114 1.1428571,1.1428571 0 0 0 -1.4941144,-0.616343 z m 2.6380574,-1.097257 a 1.1428571,1.1428571 0 0 0 -0.616343,1.494114 1.1428571,1.1428571 0 0 0 1.4941144,0.616343 1.1428571,1.1428571 0 0 0 0.616343,-1.494114 1.1428571,1.1428571 0 0 0 -1.4941144,-0.616343 z m 2.6380574,-1.097257 a 1.1428571,1.1428571 0 0 0 -0.616343,1.494114 1.1428571,1.1428571 0 0 0 1.494114,0.616343 1.1428571,1.1428571 0 0 0 0.616343,-1.494114 1.1428571,1.1428571 0 0 0 -1.494114,-0.616343 z m 2.638057,-1.097257 a 1.1428571,1.1428571 0 0 0 -0.616343,1.494114 1.1428571,1.1428571 0 0 0 0.47356,0.542794 c 0.384949,-0.652514 0.673886,-1.354857 0.860857,-2.088971 a 1.1428571,1.1428571 0 0 0 -0.718114,0.05208 z m -6.8177144,5.929142 a 1.1428571,1.1428571 0 0 0 -0.08794,0.04141 c 0.296851,-0.0051 0.594571,-0.02895 0.8928,-0.06794 a 1.1428571,1.1428571 0 0 0 -0.804857,0.02654 z m 2.6380574,-1.097257 a 1.1428571,1.1428571 0 0 0 -0.682114,0.836115 c 0.302445,-0.08601 0.603828,-0.184658 0.901543,-0.308498 0.297742,-0.12384 0.580171,-0.268005 0.8544,-0.421851 a 1.1428571,1.1428571 0 0 0 -1.073829,-0.10576 z m 2.638057,-1.097257 a 1.1428571,1.1428571 0 0 0 -0.586286,0.552086 c 0.237532,-0.183714 0.464429,-0.377252 0.677029,-0.583772 a 1.1428571,1.1428571 0 0 0 -0.09077,0.03171 z" id="path4347" inkscape:connector-curvature="0" style="fill:currentColor">
 </path>
</svg>
