<?xml version="1.0" encoding="UTF-8" standalone="no"?>
<!-- Created with Inkscape (http://www.inkscape.org/) -->
<svg height="16" id="svg4571" inkscape:version="0.91 r13725" sodipodi:docname="kronometer.svg" version="1.1" viewbox="0 0 16 16" width="16" xmlns="http://www.w3.org/2000/svg" xmlns:cc="http://creativecommons.org/ns#" xmlns:dc="http://purl.org/dc/elements/1.1/" xmlns:inkscape="http://www.inkscape.org/namespaces/inkscape" xmlns:rdf="http://www.w3.org/1999/02/22-rdf-syntax-ns#" xmlns:sodipodi="http://sodipodi.sourceforge.net/DTD/sodipodi-0.dtd" xmlns:svg="http://www.w3.org/2000/svg">
 <defs id="defs17">
  <style id="current-color-scheme" type="text/css">
   .ColorScheme-Text { color:#555555; }
  </style>
 </defs>
 <sodipodi:namedview bordercolor="#666666" borderopacity="1" gridtolerance="10" guidetolerance="10" id="namedview15" inkscape:current-layer="svg4571" inkscape:cx="-79.633663" inkscape:cy="11.098039" inkscape:pageopacity="0" inkscape:pageshadow="2" inkscape:window-height="847" inkscape:window-maximized="1" inkscape:window-width="1600" inkscape:window-x="0" inkscape:window-y="0" inkscape:zoom="4.04" objecttolerance="10" pagecolor="#ffffff" showgrid="false">
 </sodipodi:namedview>
 <metadata id="metadata4576">
  <rdf:rdf>
   <cc:work rdf:about="">
    <dc:format>
     image/svg+xml
    </dc:format>
    <dc:type rdf:resource="http://purl.org/dc/dcmitype/StillImage">
    </dc:type>
    <dc:title>
    </dc:title>
   </cc:work>
  </rdf:rdf>
 </metadata>
 <rect height="16" id="rect4203-9" rx="8" ry="8" style="fill:#3ce7bb" transform="matrix(0,-1,-1,0,0,0)" width="16" x="-16" y="-16">
 </rect>
 <rect height="12" id="rect4514" rx="6" ry="6" style="opacity:0.8;fill:#ffffff" transform="matrix(0,-1,-1,0,0,0)" width="12" x="-14" y="-14">
 </rect>
 <path class="ColorScheme-Text" d="m 7.0653915,8.7838073 1.0891,1.8606997 c 0.199525,0.34088 0.63845,0.456435 0.98435,0.25945 0.345905,-0.19699 0.463915,-0.6297 0.26439,-0.9705997 l -1.08135,-1.84745 2.4975015,-1.4223 c 0.17295,-0.09849 0.231835,-0.31507 0.13202,-0.4856 -0.09982,-0.17053 -0.319405,-0.22852 -0.49236,-0.130025 l -2.9956515,1.706 c -0.408685,0.20074 -0.56365,0.72595 -0.398,1.02985 z" id="rect4556" inkscape:connector-curvature="0" style="fill:currentColor">
 </path>
</svg>
