<?xml version="1.0" encoding="UTF-8" standalone="no"?>
<!-- Created with Inkscape (http://www.inkscape.org/) -->
<svg height="16" id="svg2817" inkscape:version="0.91 r13725" sodipodi:docname="skrooge.svg" version="1.0" width="16" xmlns="http://www.w3.org/2000/svg" xmlns:cc="http://creativecommons.org/ns#" xmlns:dc="http://purl.org/dc/elements/1.1/" xmlns:inkscape="http://www.inkscape.org/namespaces/inkscape" xmlns:rdf="http://www.w3.org/1999/02/22-rdf-syntax-ns#" xmlns:sodipodi="http://sodipodi.sourceforge.net/DTD/sodipodi-0.dtd" xmlns:svg="http://www.w3.org/2000/svg">
 <sodipodi:namedview bordercolor="#666666" borderopacity="1" gridtolerance="10" guidetolerance="10" id="namedview14" inkscape:current-layer="svg2817" inkscape:cx="-46.984238" inkscape:cy="14.401731" inkscape:pageopacity="0" inkscape:pageshadow="2" inkscape:window-height="847" inkscape:window-maximized="1" inkscape:window-width="1600" inkscape:window-x="0" inkscape:window-y="0" inkscape:zoom="5.71" objecttolerance="10" pagecolor="#ffffff" showgrid="false">
 </sodipodi:namedview>
 <metadata id="metadata57">
  <rdf:rdf>
   <cc:work rdf:about="">
    <dc:format>
     image/svg+xml
    </dc:format>
    <dc:type rdf:resource="http://purl.org/dc/dcmitype/StillImage">
    </dc:type>
    <dc:title>
    </dc:title>
   </cc:work>
  </rdf:rdf>
 </metadata>
 <defs id="defs2819">
  <style id="current-color-scheme" type="text/css">
   .ColorScheme-Text { color:#555555; }
  </style>
  <clippath clippathunits="userSpaceOnUse" id="clipPath4186">
   <circle cx="286" cy="26" id="path4188" r="10" style="color:#000000;fill:url(#linearGradient4190)">
   </circle>
  </clippath>
 </defs>
 <circle cx="8" cy="8" id="path4230" r="8" style="color:#000000;fill:#ffc947;fill-opacity:1">
 </circle>
 <path class="ColorScheme-Text" d="M 9.17375,3 A 5,5 0 0 0 4.5411875,6.125 l -0.9924375,0 -0.625,1.25 1.2951875,0 A 5,5 0 0 0 4.17375,8 l -0.625,1.25 0.791,0 a 5,5 0 0 0 4.834,3.75 5,5 0 0 0 3.9025,-1.875 l -1.833125,0 A 3.75,3.75 0 0 1 9.17375,11.75 3.75,3.75 0 0 1 5.6425,9.25 l 4.15625,0 0.625,-1.25 -5,0 A 3.75,3.75 0 0 1 5.48,7.375 l 4.94375,0 0.625,-1.25 -5.118125,0 A 3.75,3.75 0 0 1 9.17375,4.25 3.75,3.75 0 0 1 11.241875,4.875 l 1.829375,0 A 5,5 0 0 0 9.17375,3 Z" id="path4736" inkscape:connector-curvature="0" style="fill:currentColor">
 </path>
</svg>
