<?xml version="1.0" encoding="UTF-8" standalone="no"?>
<!-- Created with Inkscape (http://www.inkscape.org/) -->
<svg height="16" id="svg2817" inkscape:version="0.91 r13725" sodipodi:docname="soundcloud.svg" version="1.0" width="16" xmlns="http://www.w3.org/2000/svg" xmlns:cc="http://creativecommons.org/ns#" xmlns:dc="http://purl.org/dc/elements/1.1/" xmlns:inkscape="http://www.inkscape.org/namespaces/inkscape" xmlns:rdf="http://www.w3.org/1999/02/22-rdf-syntax-ns#" xmlns:sodipodi="http://sodipodi.sourceforge.net/DTD/sodipodi-0.dtd" xmlns:svg="http://www.w3.org/2000/svg">
 <defs id="defs219">
  <style id="current-color-scheme" type="text/css">
   .ColorScheme-Text { color:#555555; }
  </style>
 </defs>
 <sodipodi:namedview bordercolor="#666666" borderopacity="1" gridtolerance="10" guidetolerance="10" id="namedview217" inkscape:current-layer="svg2817" inkscape:cx="-0.076813656" inkscape:cy="16" inkscape:pageopacity="0" inkscape:pageshadow="2" inkscape:window-height="847" inkscape:window-maximized="1" inkscape:window-width="1600" inkscape:window-x="0" inkscape:window-y="0" inkscape:zoom="14.06" objecttolerance="10" pagecolor="#ffffff" showgrid="false">
 </sodipodi:namedview>
 <metadata id="metadata57">
  <rdf:rdf>
   <cc:work rdf:about="">
    <dc:format>
     image/svg+xml
    </dc:format>
    <dc:type rdf:resource="http://purl.org/dc/dcmitype/StillImage">
    </dc:type>
    <dc:title>
    </dc:title>
   </cc:work>
  </rdf:rdf>
 </metadata>
 <text font-size="12.666px" id="text4087-2-6-5" style="font-size:12.66600037px;font-family:'Bitstream Vera Sans';opacity:0.8;fill:#000000" x="877.22626" xml:space="preserve" y="-21.187399">
  <tspan id="tspan4089-7-2-9" x="877.22626" y="-21.187399">
  </tspan>
 </text>
 <text font-size="12.666px" id="text4087-2-6-5-5" style="font-size:12.66600037px;font-family:'Bitstream Vera Sans';opacity:0.8;fill:#000000" x="901.18719" xml:space="preserve" y="-61.929108">
  <tspan id="tspan4089-7-2-9-6" x="901.18719" y="-61.929108">
  </tspan>
 </text>
 <text font-size="12.666px" id="text4087-2-6-5-2" style="font-size:12.66600037px;font-family:'Bitstream Vera Sans';opacity:0.8;fill:#000000" x="-569.37115" xml:space="preserve" y="-92.007248">
  <tspan id="tspan4089-7-2-9-2" x="-569.37115" y="-92.007248">
  </tspan>
 </text>
 <text font-size="12.666px" id="text4087-2-6-5-59" style="font-size:12.66600037px;font-family:'Bitstream Vera Sans';opacity:0.8;fill:#000000" x="-2393.0571" xml:space="preserve" y="653.5462">
  <tspan id="tspan4089-7-2-9-4" x="-2393.0571" y="653.5462">
  </tspan>
 </text>
 <text font-size="12.666px" id="text4087-2-6-5-1" style="font-size:12.66600037px;font-family:'Bitstream Vera Sans';opacity:0.8;fill:#000000" x="-454.88007" xml:space="preserve" y="-477.32822">
  <tspan id="tspan4089-7-2-9-7" x="-454.88007" y="-477.32822">
  </tspan>
 </text>
 <text font-size="12.666px" id="text4087-2-6-5-7" style="font-size:12.66600037px;font-family:'Bitstream Vera Sans';opacity:0.8;fill:#000000" x="352.72208" xml:space="preserve" y="-890.79834">
  <tspan id="tspan4089-7-2-9-1" x="352.72208" y="-890.79834">
  </tspan>
 </text>
 <text font-size="12.666px" id="text4087-2-6-5-5-3" style="font-size:12.66600037px;font-family:'Bitstream Vera Sans';opacity:0.8;fill:#000000" x="376.68301" xml:space="preserve" y="-931.54004">
  <tspan id="tspan4089-7-2-9-6-5" x="376.68301" y="-931.54004">
  </tspan>
 </text>
 <text font-size="12.666px" id="text4087-2-6-5-3" style="font-size:12.66600037px;font-family:'Bitstream Vera Sans';opacity:0.8;fill:#000000" x="-1114.7802" xml:space="preserve" y="-938.74994">
  <tspan id="tspan4089-7-2-9-18" x="-1114.7802" y="-938.74994">
  </tspan>
 </text>
 <text font-size="12.666px" id="text4087-2-6-5-4" style="font-size:12.66600037px;font-family:'Bitstream Vera Sans';opacity:0.8;fill:#000000" x="345.7626" xml:space="preserve" y="-1211.9841">
  <tspan id="tspan4089-7-2-9-9" x="345.7626" y="-1211.9841">
  </tspan>
 </text>
 <text font-size="12.666px" id="text4087-2-6-5-7-1" style="font-size:12.66600037px;font-family:'Bitstream Vera Sans';opacity:0.8;fill:#000000" x="1831.8861" xml:space="preserve" y="-585.29272">
  <tspan id="tspan4089-7-2-9-1-8" x="1831.8861" y="-585.29272">
  </tspan>
 </text>
 <text font-size="12.666px" id="text4087-2-6-5-5-5" style="font-size:12.66600037px;font-family:'Bitstream Vera Sans';opacity:0.8;fill:#000000" x="1855.8469" xml:space="preserve" y="-626.03448">
  <tspan id="tspan4089-7-2-9-6-9" x="1855.8469" y="-626.03448">
  </tspan>
 </text>
 <text font-size="12.666px" id="text4087-2-6-5-75" style="font-size:12.66600037px;font-family:'Bitstream Vera Sans';opacity:0.8;fill:#000000" x="364.38376" xml:space="preserve" y="-633.24438">
  <tspan id="tspan4089-7-2-9-3" x="364.38376" y="-633.24438">
  </tspan>
 </text>
 <text font-size="12.666px" id="text4087-2-6-5-4-8" style="font-size:12.66600037px;font-family:'Bitstream Vera Sans';opacity:0.8;fill:#000000" x="1824.9266" xml:space="preserve" y="-906.47839">
  <tspan id="tspan4089-7-2-9-9-8" x="1824.9266" y="-906.47839">
  </tspan>
 </text>
 <text font-size="12.666px" id="text4087-2-6-5-45" style="font-size:12.66600037px;font-family:'Bitstream Vera Sans';opacity:0.8;fill:#000000" x="-573.43256" xml:space="preserve" y="-681.33569">
  <tspan id="tspan4089-7-2-9-75" x="-573.43256" y="-681.33569">
  </tspan>
 </text>
 <text font-size="12.666px" id="text4087-2-6-5-59-7" style="font-size:12.66600037px;font-family:'Bitstream Vera Sans';opacity:0.8;fill:#000000" x="-2397.1182" xml:space="preserve" y="64.217857">
  <tspan id="tspan4089-7-2-9-4-0" x="-2397.1182" y="64.217857">
  </tspan>
 </text>
 <text font-size="12.666px" id="text4087-2-6-5-8" style="font-size:12.66600037px;font-family:'Bitstream Vera Sans';opacity:0.8;fill:#000000" x="-682.36279" xml:space="preserve" y="157.09">
  <tspan id="tspan4089-7-2-9-19" x="-682.36279" y="157.09">
  </tspan>
 </text>
 <text font-size="12.666px" id="text4087-2-6-5-7-5" style="font-size:12.66600037px;font-family:'Bitstream Vera Sans';opacity:0.8;fill:#000000" x="426.66153" xml:space="preserve" y="-22.092148">
  <tspan id="tspan4089-7-2-9-1-2" x="426.66153" y="-22.092148">
  </tspan>
 </text>
 <text font-size="12.666px" id="text4087-2-6-5-5-0" style="font-size:12.66600037px;font-family:'Bitstream Vera Sans';opacity:0.8;fill:#000000" x="450.62247" xml:space="preserve" y="-62.833855">
  <tspan id="tspan4089-7-2-9-6-2" x="450.62247" y="-62.833855">
  </tspan>
 </text>
 <text font-size="12.666px" id="text4087-2-6-5-26" style="font-size:12.66600037px;font-family:'Bitstream Vera Sans';opacity:0.8;fill:#000000" x="-1040.8407" xml:space="preserve" y="-70.043823">
  <tspan id="tspan4089-7-2-9-90" x="-1040.8407" y="-70.043823">
  </tspan>
 </text>
 <text font-size="12.666px" id="text4087-2-6-5-4-3" style="font-size:12.66600037px;font-family:'Bitstream Vera Sans';opacity:0.8;fill:#000000" x="419.70206" xml:space="preserve" y="-343.27789">
  <tspan id="tspan4089-7-2-9-9-5" x="419.70206" y="-343.27789">
  </tspan>
 </text>
 <text font-size="12.666px" id="text4087-2-6-5-55" style="font-size:12.66600037px;font-family:'Bitstream Vera Sans';opacity:0.8;fill:#000000" x="-608.03253" xml:space="preserve" y="-72.758072">
  <tspan id="tspan4089-7-2-9-32" x="-608.03253" y="-72.758072">
  </tspan>
 </text>
 <text font-size="12.666px" id="text4087-2-6-5-59-9" style="font-size:12.66600037px;font-family:'Bitstream Vera Sans';opacity:0.8;fill:#000000" x="-2431.7185" xml:space="preserve" y="672.79541">
  <tspan id="tspan4089-7-2-9-4-1" x="-2431.7185" y="672.79541">
  </tspan>
 </text>
 <text font-size="12.666px" id="text4087-2-6-5-1-8" style="font-size:12.66600037px;font-family:'Bitstream Vera Sans';opacity:0.8;fill:#000000" x="-456.93948" xml:space="preserve" y="-934.28857">
  <tspan id="tspan4089-7-2-9-7-8" x="-456.93948" y="-934.28857">
  </tspan>
 </text>
 <text font-size="12.666px" id="text4087-2-6-5-7-8" style="font-size:12.66600037px;font-family:'Bitstream Vera Sans';opacity:0.8;fill:#000000" x="350.66266" xml:space="preserve" y="-1347.7588">
  <tspan id="tspan4089-7-2-9-1-9" x="350.66266" y="-1347.7588">
  </tspan>
 </text>
 <text font-size="12.666px" id="text4087-2-6-5-5-52" style="font-size:12.66600037px;font-family:'Bitstream Vera Sans';opacity:0.8;fill:#000000" x="374.62357" xml:space="preserve" y="-1388.5005">
  <tspan id="tspan4089-7-2-9-6-4" x="374.62357" y="-1388.5005">
  </tspan>
 </text>
 <text font-size="12.666px" id="text4087-2-6-5-3-4" style="font-size:12.66600037px;font-family:'Bitstream Vera Sans';opacity:0.8;fill:#000000" x="-1116.8396" xml:space="preserve" y="-1395.7104">
  <tspan id="tspan4089-7-2-9-18-3" x="-1116.8396" y="-1395.7104">
  </tspan>
 </text>
 <text font-size="12.666px" id="text4087-2-6-5-4-7" style="font-size:12.66600037px;font-family:'Bitstream Vera Sans';opacity:0.8;fill:#000000" x="343.70316" xml:space="preserve" y="-1668.9446">
  <tspan id="tspan4089-7-2-9-9-54" x="343.70316" y="-1668.9446">
  </tspan>
 </text>
 <text font-size="12.666px" id="text4087-2-6-5-7-1-2" style="font-size:12.66600037px;font-family:'Bitstream Vera Sans';opacity:0.8;fill:#000000" x="1829.8265" xml:space="preserve" y="-1042.2533">
  <tspan id="tspan4089-7-2-9-1-8-0" x="1829.8265" y="-1042.2533">
  </tspan>
 </text>
 <text font-size="12.666px" id="text4087-2-6-5-5-5-6" style="font-size:12.66600037px;font-family:'Bitstream Vera Sans';opacity:0.8;fill:#000000" x="1853.7874" xml:space="preserve" y="-1082.9949">
  <tspan id="tspan4089-7-2-9-6-9-8" x="1853.7874" y="-1082.9949">
  </tspan>
 </text>
 <text font-size="12.666px" id="text4087-2-6-5-75-4" style="font-size:12.66600037px;font-family:'Bitstream Vera Sans';opacity:0.8;fill:#000000" x="362.32431" xml:space="preserve" y="-1090.2048">
  <tspan id="tspan4089-7-2-9-3-9" x="362.32431" y="-1090.2048">
  </tspan>
 </text>
 <text font-size="12.666px" id="text4087-2-6-5-4-8-1" style="font-size:12.66600037px;font-family:'Bitstream Vera Sans';opacity:0.8;fill:#000000" x="1822.8671" xml:space="preserve" y="-1363.439">
  <tspan id="tspan4089-7-2-9-9-8-8" x="1822.8671" y="-1363.439">
  </tspan>
 </text>
 <text font-size="12.666px" id="text4087-2-6-5-45-0" style="font-size:12.66600037px;font-family:'Bitstream Vera Sans';opacity:0.8;fill:#000000" x="-575.492" xml:space="preserve" y="-1138.2961">
  <tspan id="tspan4089-7-2-9-75-2" x="-575.492" y="-1138.2961">
  </tspan>
 </text>
 <text font-size="12.666px" id="text4087-2-6-5-59-5" style="font-size:12.66600037px;font-family:'Bitstream Vera Sans';opacity:0.8;fill:#000000" x="-2399.1777" xml:space="preserve" y="-392.74261">
  <tspan id="tspan4089-7-2-9-4-00" x="-2399.1777" y="-392.74261">
  </tspan>
 </text>
 <text font-size="12.666px" id="text4087-2-6-5-264" style="font-size:12.66600037px;font-family:'Bitstream Vera Sans';opacity:0.8;fill:#000000" x="-684.42224" xml:space="preserve" y="-299.87045">
  <tspan id="tspan4089-7-2-9-8" x="-684.42224" y="-299.87045">
  </tspan>
 </text>
 <text font-size="12.666px" id="text4087-2-6-5-42" style="font-size:12.66600037px;font-family:'Bitstream Vera Sans';opacity:0.8;fill:#000000" x="155.5923" xml:space="preserve" y="-58.956276">
  <tspan id="tspan4089-7-2-9-93" x="155.5923" y="-58.956276">
  </tspan>
 </text>
 <text font-size="12.666px" id="text4087-2-6-5-5-05" style="font-size:12.66600037px;font-family:'Bitstream Vera Sans';opacity:0.8;fill:#000000" x="179.55324" xml:space="preserve" y="-99.697998">
  <tspan id="tspan4089-7-2-9-6-49" x="179.55324" y="-99.697998">
  </tspan>
 </text>
 <text font-size="12.666px" id="text4087-2-6-5-1-4" style="font-size:12.66600037px;font-family:'Bitstream Vera Sans';opacity:0.8;fill:#000000" x="-1090.2634" xml:space="preserve" y="-293.72662">
  <tspan id="tspan4089-7-2-9-7-7" x="-1090.2634" y="-293.72662">
  </tspan>
 </text>
 <text font-size="12.666px" id="text4087-2-6-5-7-56" style="font-size:12.66600037px;font-family:'Bitstream Vera Sans';opacity:0.8;fill:#000000" x="-282.66141" xml:space="preserve" y="-707.19678">
  <tspan id="tspan4089-7-2-9-1-1" x="-282.66141" y="-707.19678">
  </tspan>
 </text>
 <text font-size="12.666px" id="text4087-2-6-5-5-8" style="font-size:12.66600037px;font-family:'Bitstream Vera Sans';opacity:0.8;fill:#000000" x="-258.70047" xml:space="preserve" y="-747.93848">
  <tspan id="tspan4089-7-2-9-6-7" x="-258.70047" y="-747.93848">
  </tspan>
 </text>
 <text font-size="12.666px" id="text4087-2-6-5-3-42" style="font-size:12.66600037px;font-family:'Bitstream Vera Sans';opacity:0.8;fill:#000000" x="-1750.1636" xml:space="preserve" y="-755.14838">
  <tspan id="tspan4089-7-2-9-18-39" x="-1750.1636" y="-755.14838">
  </tspan>
 </text>
 <text font-size="12.666px" id="text4087-2-6-5-4-4" style="font-size:12.66600037px;font-family:'Bitstream Vera Sans';opacity:0.8;fill:#000000" x="-289.62085" xml:space="preserve" y="-1028.3826">
  <tspan id="tspan4089-7-2-9-9-3" x="-289.62085" y="-1028.3826">
  </tspan>
 </text>
 <text font-size="12.666px" id="text4087-2-6-5-7-1-0" style="font-size:12.66600037px;font-family:'Bitstream Vera Sans';opacity:0.8;fill:#000000" x="1196.5026" xml:space="preserve" y="-401.69113">
  <tspan id="tspan4089-7-2-9-1-8-5" x="1196.5026" y="-401.69113">
  </tspan>
 </text>
 <text font-size="12.666px" id="text4087-2-6-5-5-5-5" style="font-size:12.66600037px;font-family:'Bitstream Vera Sans';opacity:0.8;fill:#000000" x="1220.4634" xml:space="preserve" y="-442.43286">
  <tspan id="tspan4089-7-2-9-6-9-2" x="1220.4634" y="-442.43286">
  </tspan>
 </text>
 <text font-size="12.666px" id="text4087-2-6-5-75-9" style="font-size:12.66600037px;font-family:'Bitstream Vera Sans';opacity:0.8;fill:#000000" x="-270.99973" xml:space="preserve" y="-449.64282">
  <tspan id="tspan4089-7-2-9-3-1" x="-270.99973" y="-449.64282">
  </tspan>
 </text>
 <text font-size="12.666px" id="text4087-2-6-5-4-8-18" style="font-size:12.66600037px;font-family:'Bitstream Vera Sans';opacity:0.8;fill:#000000" x="1189.5431" xml:space="preserve" y="-722.87689">
  <tspan id="tspan4089-7-2-9-9-8-4" x="1189.5431" y="-722.87689">
  </tspan>
 </text>
 <text font-size="12.666px" id="text4087-2-6-5-45-3" style="font-size:12.66600037px;font-family:'Bitstream Vera Sans';opacity:0.8;fill:#000000" x="-1208.816" xml:space="preserve" y="-497.7341">
  <tspan id="tspan4089-7-2-9-75-7" x="-1208.816" y="-497.7341">
  </tspan>
 </text>
 <text font-size="12.666px" id="text4087-2-6-5-59-8" style="font-size:12.66600037px;font-family:'Bitstream Vera Sans';opacity:0.8;fill:#000000" x="-3032.5017" xml:space="preserve" y="247.81946">
  <tspan id="tspan4089-7-2-9-4-2" x="-3032.5017" y="247.81946">
  </tspan>
 </text>
 <g id="layer4-0" transform="matrix(0.90475,0,0,0.90475,-716.75,-708.29)">
  <text font-size="14px" id="text4087-2-6-5-20" style="font-size:14px;font-family:'Bitstream Vera Sans';opacity:0.8;fill:#000000" x="-664.2738" xml:space="preserve" y="1159.4154">
   <tspan id="tspan4089-7-2-9-82" x="-664.2738" y="1159.4154">
   </tspan>
  </text>
 </g>
 <text font-size="12.666px" id="text4087-2-6-5-9" style="font-size:12.66600037px;font-family:'Bitstream Vera Sans';opacity:0.8;fill:#000000" x="877.22626" xml:space="preserve" y="-13.949411">
  <tspan id="tspan4089-7-2-9-43" x="877.22626" y="-13.949411">
  </tspan>
 </text>
 <text font-size="12.666px" id="text4087-2-6-5-5-51" style="font-size:12.66600037px;font-family:'Bitstream Vera Sans';opacity:0.8;fill:#000000" x="901.18719" xml:space="preserve" y="-54.691116">
  <tspan id="tspan4089-7-2-9-6-74" x="901.18719" y="-54.691116">
  </tspan>
 </text>
 <text font-size="12.666px" id="text4087-2-6-5-2-3" style="font-size:12.66600037px;font-family:'Bitstream Vera Sans';opacity:0.8;fill:#000000" x="-569.37115" xml:space="preserve" y="-84.769257">
  <tspan id="tspan4089-7-2-9-2-1" x="-569.37115" y="-84.769257">
  </tspan>
 </text>
 <text font-size="12.666px" id="text4087-2-6-5-59-4" style="font-size:12.66600037px;font-family:'Bitstream Vera Sans';opacity:0.8;fill:#000000" x="-2393.0571" xml:space="preserve" y="660.78418">
  <tspan id="tspan4089-7-2-9-4-6" x="-2393.0571" y="660.78418">
  </tspan>
 </text>
 <text font-size="12.666px" id="text4087-2-6-5-1-9" style="font-size:12.66600037px;font-family:'Bitstream Vera Sans';opacity:0.8;fill:#000000" x="-454.88007" xml:space="preserve" y="-470.09021">
  <tspan id="tspan4089-7-2-9-7-4" x="-454.88007" y="-470.09021">
  </tspan>
 </text>
 <text font-size="12.666px" id="text4087-2-6-5-7-2" style="font-size:12.66600037px;font-family:'Bitstream Vera Sans';opacity:0.8;fill:#000000" x="352.72208" xml:space="preserve" y="-883.5603">
  <tspan id="tspan4089-7-2-9-1-26" x="352.72208" y="-883.5603">
  </tspan>
 </text>
 <text font-size="12.666px" id="text4087-2-6-5-5-3-4" style="font-size:12.66600037px;font-family:'Bitstream Vera Sans';opacity:0.8;fill:#000000" x="376.68301" xml:space="preserve" y="-924.30206">
  <tspan id="tspan4089-7-2-9-6-5-1" x="376.68301" y="-924.30206">
  </tspan>
 </text>
 <text font-size="12.666px" id="text4087-2-6-5-3-2" style="font-size:12.66600037px;font-family:'Bitstream Vera Sans';opacity:0.8;fill:#000000" x="-1114.7802" xml:space="preserve" y="-931.51196">
  <tspan id="tspan4089-7-2-9-18-8" x="-1114.7802" y="-931.51196">
  </tspan>
 </text>
 <text font-size="12.666px" id="text4087-2-6-5-4-89" style="font-size:12.66600037px;font-family:'Bitstream Vera Sans';opacity:0.8;fill:#000000" x="345.7626" xml:space="preserve" y="-1204.7461">
  <tspan id="tspan4089-7-2-9-9-2" x="345.7626" y="-1204.7461">
  </tspan>
 </text>
 <text font-size="12.666px" id="text4087-2-6-5-7-1-8" style="font-size:12.66600037px;font-family:'Bitstream Vera Sans';opacity:0.8;fill:#000000" x="1831.8861" xml:space="preserve" y="-578.05475">
  <tspan id="tspan4089-7-2-9-1-8-8" x="1831.8861" y="-578.05475">
  </tspan>
 </text>
 <text font-size="12.666px" id="text4087-2-6-5-5-5-8" style="font-size:12.66600037px;font-family:'Bitstream Vera Sans';opacity:0.8;fill:#000000" x="1855.8469" xml:space="preserve" y="-618.79651">
  <tspan id="tspan4089-7-2-9-6-9-6" x="1855.8469" y="-618.79651">
  </tspan>
 </text>
 <text font-size="12.666px" id="text4087-2-6-5-75-8" style="font-size:12.66600037px;font-family:'Bitstream Vera Sans';opacity:0.8;fill:#000000" x="364.38376" xml:space="preserve" y="-626.00641">
  <tspan id="tspan4089-7-2-9-3-3" x="364.38376" y="-626.00641">
  </tspan>
 </text>
 <text font-size="12.666px" id="text4087-2-6-5-4-8-8" style="font-size:12.66600037px;font-family:'Bitstream Vera Sans';opacity:0.8;fill:#000000" x="1824.9266" xml:space="preserve" y="-899.24036">
  <tspan id="tspan4089-7-2-9-9-8-3" x="1824.9266" y="-899.24036">
  </tspan>
 </text>
 <text font-size="12.666px" id="text4087-2-6-5-45-33" style="font-size:12.66600037px;font-family:'Bitstream Vera Sans';opacity:0.8;fill:#000000" x="-573.43256" xml:space="preserve" y="-674.09772">
  <tspan id="tspan4089-7-2-9-75-8" x="-573.43256" y="-674.09772">
  </tspan>
 </text>
 <text font-size="12.666px" id="text4087-2-6-5-59-7-0" style="font-size:12.66600037px;font-family:'Bitstream Vera Sans';opacity:0.8;fill:#000000" x="-2397.1182" xml:space="preserve" y="71.455849">
  <tspan id="tspan4089-7-2-9-4-0-4" x="-2397.1182" y="71.455849">
  </tspan>
 </text>
 <text font-size="12.666px" id="text4087-2-6-5-8-7" style="font-size:12.66600037px;font-family:'Bitstream Vera Sans';opacity:0.8;fill:#000000" x="-682.36279" xml:space="preserve" y="164.32799">
  <tspan id="tspan4089-7-2-9-19-6" x="-682.36279" y="164.32799">
  </tspan>
 </text>
 <text font-size="12.666px" id="text4087-2-6-5-7-5-8" style="font-size:12.66600037px;font-family:'Bitstream Vera Sans';opacity:0.8;fill:#000000" x="426.66153" xml:space="preserve" y="-14.85416">
  <tspan id="tspan4089-7-2-9-1-2-9" x="426.66153" y="-14.85416">
  </tspan>
 </text>
 <text font-size="12.666px" id="text4087-2-6-5-5-0-0" style="font-size:12.66600037px;font-family:'Bitstream Vera Sans';opacity:0.8;fill:#000000" x="450.62247" xml:space="preserve" y="-55.595863">
  <tspan id="tspan4089-7-2-9-6-2-6" x="450.62247" y="-55.595863">
  </tspan>
 </text>
 <text font-size="12.666px" id="text4087-2-6-5-26-8" style="font-size:12.66600037px;font-family:'Bitstream Vera Sans';opacity:0.8;fill:#000000" x="-1040.8407" xml:space="preserve" y="-62.805836">
  <tspan id="tspan4089-7-2-9-90-7" x="-1040.8407" y="-62.805836">
  </tspan>
 </text>
 <text font-size="12.666px" id="text4087-2-6-5-4-3-9" style="font-size:12.66600037px;font-family:'Bitstream Vera Sans';opacity:0.8;fill:#000000" x="419.70206" xml:space="preserve" y="-336.03989">
  <tspan id="tspan4089-7-2-9-9-5-0" x="419.70206" y="-336.03989">
  </tspan>
 </text>
 <text font-size="12.666px" id="text4087-2-6-5-55-3" style="font-size:12.66600037px;font-family:'Bitstream Vera Sans';opacity:0.8;fill:#000000" x="-608.03253" xml:space="preserve" y="-65.520081">
  <tspan id="tspan4089-7-2-9-32-3" x="-608.03253" y="-65.520081">
  </tspan>
 </text>
 <text font-size="12.666px" id="text4087-2-6-5-59-9-3" style="font-size:12.66600037px;font-family:'Bitstream Vera Sans';opacity:0.8;fill:#000000" x="-2431.7185" xml:space="preserve" y="680.03345">
  <tspan id="tspan4089-7-2-9-4-1-7" x="-2431.7185" y="680.03345">
  </tspan>
 </text>
 <text font-size="12.666px" id="text4087-2-6-5-1-8-3" style="font-size:12.66600037px;font-family:'Bitstream Vera Sans';opacity:0.8;fill:#000000" x="-456.93948" xml:space="preserve" y="-927.0506">
  <tspan id="tspan4089-7-2-9-7-8-2" x="-456.93948" y="-927.0506">
  </tspan>
 </text>
 <text font-size="12.666px" id="text4087-2-6-5-7-8-6" style="font-size:12.66600037px;font-family:'Bitstream Vera Sans';opacity:0.8;fill:#000000" x="350.66266" xml:space="preserve" y="-1340.5208">
  <tspan id="tspan4089-7-2-9-1-9-5" x="350.66266" y="-1340.5208">
  </tspan>
 </text>
 <text font-size="12.666px" id="text4087-2-6-5-5-52-2" style="font-size:12.66600037px;font-family:'Bitstream Vera Sans';opacity:0.8;fill:#000000" x="374.62357" xml:space="preserve" y="-1381.2626">
  <tspan id="tspan4089-7-2-9-6-4-6" x="374.62357" y="-1381.2626">
  </tspan>
 </text>
 <text font-size="12.666px" id="text4087-2-6-5-3-4-5" style="font-size:12.66600037px;font-family:'Bitstream Vera Sans';opacity:0.8;fill:#000000" x="-1116.8396" xml:space="preserve" y="-1388.4724">
  <tspan id="tspan4089-7-2-9-18-3-8" x="-1116.8396" y="-1388.4724">
  </tspan>
 </text>
 <text font-size="12.666px" id="text4087-2-6-5-4-7-7" style="font-size:12.66600037px;font-family:'Bitstream Vera Sans';opacity:0.8;fill:#000000" x="343.70316" xml:space="preserve" y="-1661.7065">
  <tspan id="tspan4089-7-2-9-9-54-9" x="343.70316" y="-1661.7065">
  </tspan>
 </text>
 <text font-size="12.666px" id="text4087-2-6-5-7-1-2-6" style="font-size:12.66600037px;font-family:'Bitstream Vera Sans';opacity:0.8;fill:#000000" x="1829.8265" xml:space="preserve" y="-1035.0154">
  <tspan id="tspan4089-7-2-9-1-8-0-0" x="1829.8265" y="-1035.0154">
  </tspan>
 </text>
 <text font-size="12.666px" id="text4087-2-6-5-5-5-6-4" style="font-size:12.66600037px;font-family:'Bitstream Vera Sans';opacity:0.8;fill:#000000" x="1853.7874" xml:space="preserve" y="-1075.757">
  <tspan id="tspan4089-7-2-9-6-9-8-1" x="1853.7874" y="-1075.757">
  </tspan>
 </text>
 <text font-size="12.666px" id="text4087-2-6-5-75-4-0" style="font-size:12.66600037px;font-family:'Bitstream Vera Sans';opacity:0.8;fill:#000000" x="362.32431" xml:space="preserve" y="-1082.9668">
  <tspan id="tspan4089-7-2-9-3-9-4" x="362.32431" y="-1082.9668">
  </tspan>
 </text>
 <text font-size="12.666px" id="text4087-2-6-5-4-8-1-8" style="font-size:12.66600037px;font-family:'Bitstream Vera Sans';opacity:0.8;fill:#000000" x="1822.8671" xml:space="preserve" y="-1356.2009">
  <tspan id="tspan4089-7-2-9-9-8-8-7" x="1822.8671" y="-1356.2009">
  </tspan>
 </text>
 <text font-size="12.666px" id="text4087-2-6-5-45-0-0" style="font-size:12.66600037px;font-family:'Bitstream Vera Sans';opacity:0.8;fill:#000000" x="-575.492" xml:space="preserve" y="-1131.0581">
  <tspan id="tspan4089-7-2-9-75-2-8" x="-575.492" y="-1131.0581">
  </tspan>
 </text>
 <text font-size="12.666px" id="text4087-2-6-5-59-5-6" style="font-size:12.66600037px;font-family:'Bitstream Vera Sans';opacity:0.8;fill:#000000" x="-2399.1777" xml:space="preserve" y="-385.50461">
  <tspan id="tspan4089-7-2-9-4-00-2" x="-2399.1777" y="-385.50461">
  </tspan>
 </text>
 <text font-size="12.666px" id="text4087-2-6-5-264-4" style="font-size:12.66600037px;font-family:'Bitstream Vera Sans';opacity:0.8;fill:#000000" x="-684.42224" xml:space="preserve" y="-292.63245">
  <tspan id="tspan4089-7-2-9-8-7" x="-684.42224" y="-292.63245">
  </tspan>
 </text>
 <text font-size="12.666px" id="text4087-2-6-5-42-9" style="font-size:12.66600037px;font-family:'Bitstream Vera Sans';opacity:0.8;fill:#000000" x="155.5923" xml:space="preserve" y="-51.718292">
  <tspan id="tspan4089-7-2-9-93-3" x="155.5923" y="-51.718292">
  </tspan>
 </text>
 <text font-size="12.666px" id="text4087-2-6-5-5-05-9" style="font-size:12.66600037px;font-family:'Bitstream Vera Sans';opacity:0.8;fill:#000000" x="179.55324" xml:space="preserve" y="-92.460007">
  <tspan id="tspan4089-7-2-9-6-49-2" x="179.55324" y="-92.460007">
  </tspan>
 </text>
 <text font-size="12.666px" id="text4087-2-6-5-1-4-8" style="font-size:12.66600037px;font-family:'Bitstream Vera Sans';opacity:0.8;fill:#000000" x="-1090.2634" xml:space="preserve" y="-286.48859">
  <tspan id="tspan4089-7-2-9-7-7-3" x="-1090.2634" y="-286.48859">
  </tspan>
 </text>
 <text font-size="12.666px" id="text4087-2-6-5-7-56-0" style="font-size:12.66600037px;font-family:'Bitstream Vera Sans';opacity:0.8;fill:#000000" x="-282.66141" xml:space="preserve" y="-699.9588">
  <tspan id="tspan4089-7-2-9-1-1-1" x="-282.66141" y="-699.9588">
  </tspan>
 </text>
 <text font-size="12.666px" id="text4087-2-6-5-5-8-7" style="font-size:12.66600037px;font-family:'Bitstream Vera Sans';opacity:0.8;fill:#000000" x="-258.70047" xml:space="preserve" y="-740.7005">
  <tspan id="tspan4089-7-2-9-6-7-8" x="-258.70047" y="-740.7005">
  </tspan>
 </text>
 <text font-size="12.666px" id="text4087-2-6-5-3-42-9" style="font-size:12.66600037px;font-family:'Bitstream Vera Sans';opacity:0.8;fill:#000000" x="-1750.1636" xml:space="preserve" y="-747.91046">
  <tspan id="tspan4089-7-2-9-18-39-1" x="-1750.1636" y="-747.91046">
  </tspan>
 </text>
 <text font-size="12.666px" id="text4087-2-6-5-4-4-5" style="font-size:12.66600037px;font-family:'Bitstream Vera Sans';opacity:0.8;fill:#000000" x="-289.62085" xml:space="preserve" y="-1021.1445">
  <tspan id="tspan4089-7-2-9-9-3-4" x="-289.62085" y="-1021.1445">
  </tspan>
 </text>
 <text font-size="12.666px" id="text4087-2-6-5-7-1-0-9" style="font-size:12.66600037px;font-family:'Bitstream Vera Sans';opacity:0.8;fill:#000000" x="1196.5026" xml:space="preserve" y="-394.45316">
  <tspan id="tspan4089-7-2-9-1-8-5-2" x="1196.5026" y="-394.45316">
  </tspan>
 </text>
 <text font-size="12.666px" id="text4087-2-6-5-5-5-5-5" style="font-size:12.66600037px;font-family:'Bitstream Vera Sans';opacity:0.8;fill:#000000" x="1220.4634" xml:space="preserve" y="-435.19489">
  <tspan id="tspan4089-7-2-9-6-9-2-7" x="1220.4634" y="-435.19489">
  </tspan>
 </text>
 <text font-size="12.666px" id="text4087-2-6-5-75-9-4" style="font-size:12.66600037px;font-family:'Bitstream Vera Sans';opacity:0.8;fill:#000000" x="-270.99973" xml:space="preserve" y="-442.40482">
  <tspan id="tspan4089-7-2-9-3-1-9" x="-270.99973" y="-442.40482">
  </tspan>
 </text>
 <text font-size="12.666px" id="text4087-2-6-5-4-8-18-9" style="font-size:12.66600037px;font-family:'Bitstream Vera Sans';opacity:0.8;fill:#000000" x="1189.5431" xml:space="preserve" y="-715.63892">
  <tspan id="tspan4089-7-2-9-9-8-4-4" x="1189.5431" y="-715.63892">
  </tspan>
 </text>
 <text font-size="12.666px" id="text4087-2-6-5-45-3-5" style="font-size:12.66600037px;font-family:'Bitstream Vera Sans';opacity:0.8;fill:#000000" x="-1208.816" xml:space="preserve" y="-490.49609">
  <tspan id="tspan4089-7-2-9-75-7-9" x="-1208.816" y="-490.49609">
  </tspan>
 </text>
 <text font-size="12.666px" id="text4087-2-6-5-59-8-3" style="font-size:12.66600037px;font-family:'Bitstream Vera Sans';opacity:0.8;fill:#000000" x="-3032.5017" xml:space="preserve" y="255.05743">
  <tspan id="tspan4089-7-2-9-4-2-5" x="-3032.5017" y="255.05743">
  </tspan>
 </text>
 <g id="layer4-0-7" transform="matrix(0.90475,0,0,0.90475,-716.75,-701.05)">
  <text font-size="14px" id="text4087-2-6-5-20-0" style="font-size:14px;font-family:'Bitstream Vera Sans';opacity:0.8;fill:#000000" x="-664.2738" xml:space="preserve" y="1159.4154">
   <tspan id="tspan4089-7-2-9-82-8" x="-664.2738" y="1159.4154">
   </tspan>
  </text>
 </g>
 <text font-size="12.666px" id="text7276" style="font-size:12.66600037px;font-family:'Droid Sans';fill:#000000" x="435.90427" xml:space="preserve" y="-393.22546">
  <tspan id="tspan7278" x="435.90427" y="-393.22546">
  </tspan>
  <tspan id="tspan7280" x="435.90427" y="-377.3924">
  </tspan>
 </text>
 <text font-size="12.666px" id="text4087-2-6-5-51" style="font-size:12.66600037px;font-family:'Bitstream Vera Sans';opacity:0.8;fill:#000000" x="901.0882" xml:space="preserve" y="-875.27002">
  <tspan id="tspan4089-7-2-9-97" x="901.0882" y="-875.27002">
  </tspan>
 </text>
 <text font-size="12.666px" id="text4087-2-6-5-59-2" style="font-size:12.66600037px;font-family:'Bitstream Vera Sans';opacity:0.8;fill:#000000" x="-922.59778" xml:space="preserve" y="-129.71655">
  <tspan id="tspan4089-7-2-9-4-4" x="-922.59778" y="-129.71655">
  </tspan>
 </text>
 <text font-size="12.666px" id="text4087-2-6-5-7-7" style="font-size:12.66600037px;font-family:'Bitstream Vera Sans';opacity:0.8;fill:#000000" x="1628.1677" xml:space="preserve" y="-1160.2659">
  <tspan id="tspan4089-7-2-9-1-6" x="1628.1677" y="-1160.2659">
  </tspan>
 </text>
 <text font-size="12.666px" id="text4087-2-6-5-5-6" style="font-size:12.66600037px;font-family:'Bitstream Vera Sans';opacity:0.8;fill:#000000" x="1652.1285" xml:space="preserve" y="-1201.0076">
  <tspan id="tspan4089-7-2-9-6-53" x="1652.1285" y="-1201.0076">
  </tspan>
 </text>
 <text font-size="12.666px" id="text4087-2-6-5-54" style="font-size:12.66600037px;font-family:'Bitstream Vera Sans';opacity:0.8;fill:#000000" x="160.66542" xml:space="preserve" y="-1208.2175">
  <tspan id="tspan4089-7-2-9-0" x="160.66542" y="-1208.2175">
  </tspan>
 </text>
 <text font-size="12.666px" id="text4087-2-6-5-4-1" style="font-size:12.66600037px;font-family:'Bitstream Vera Sans';opacity:0.8;fill:#000000" x="1621.2083" xml:space="preserve" y="-1481.4517">
  <tspan id="tspan4089-7-2-9-9-28" x="1621.2083" y="-1481.4517">
  </tspan>
 </text>
 <rect height="16" id="rect4255" rx="0.85714287" ry="0.85714287" style="fill:#ff8833;fill-opacity:1" transform="matrix(0,-1,-1,0,0,0)" width="16" x="-16" y="-16">
 </rect>
 <path class="ColorScheme-Text" d="m 2.12457,7.9904655 c -0.02295,0 -0.04115,0.01857 -0.04415,0.04507 L 2,8.675038 2.080445,9.303529 c 0.003,0.02649 0.02115,0.044945 0.04415,0.044945 0.02225,0 0.04035,-0.018325 0.0439,-0.0447 l 0,0 0,0 0,0 L 2.26385,8.675034 2.168495,8.035408 c -0.0035,-0.02637 -0.02175,-0.04495 -0.0439,-0.04495 z m 0.45237,-0.349406 c -0.004,-0.02749 -0.0226,-0.04643 -0.0458,-0.04643 -0.0233,0 -0.0426,0.019565 -0.0458,0.04643 0,3.18e-4 -0.108125,1.033978 -0.108125,1.033978 L 2.48534,9.686116 c 0.003,0.02712 0.02235,0.04667 0.0458,0.04667 0.02305,0 0.0419,-0.01906 0.04565,-0.04642 L 2.69982,8.675038 Z m 1.703975,-0.953746 c -0.04435,0 -0.081035,0.03801 -0.083165,0.086298 L 4.11163,8.6759035 4.19775,9.905259 c 0.002,0.04804 0.0388,0.08593 0.083165,0.08593 0.04415,0 0.08068,-0.038 0.083285,-0.08617 l 0,8e-4 L 4.46156,8.6763115 4.3642,6.7740195 C 4.3617,6.7257285 4.32505,6.6877215 4.280915,6.6877215 Z M 3.399,7.348486 c -0.03405,0 -0.06187,0.028475 -0.06459,0.066488 L 3.237405,8.675408 3.33441,9.894866 c 0.0025,0.03777 0.0305,0.06624 0.06459,0.06624 0.0337,0 0.061515,-0.02848 0.064475,-0.06624 L 3.573725,8.675408 3.463475,7.414727 C 3.460475,7.3769645 3.432725,7.348486 3.399,7.348486 Z m 1.778145,2.642587 c 0.05501,0 0.09973,-0.04643 0.101975,-0.105858 L 5.363585,8.676521 5.27924,6.143887 C 5.27724,6.084458 5.23229,6.038029 5.177265,6.038029 c -0.05548,0 -0.100315,0.046555 -0.10209,0.105985 0,1.585e-4 -0.074885,2.532387 -0.074885,2.532387 l 0.074885,1.209171 c 0.002,0.05895 0.0466,0.105501 0.10197,0.105501 z m 1.83481,0.0056 c 0.075715,0 0.138175,-0.06525 0.139595,-0.145482 l 0,8e-4 0,-8e-4 L 7.210465,8.677197 7.15155,5.7521925 C 7.15005,5.6720835 7.08767,5.60671 7.011955,5.60671 6.93613,5.60671 6.87355,5.671962 6.872365,5.7523165 L 6.819725,8.676204 c 0,0.00185 0.05264,1.175754 0.05264,1.175754 10e-4,0.07949 0.06388,0.14474 0.13959,0.14474 z M 6.08757,9.992073 c 0.065895,0 0.11901,-0.05535 0.120785,-0.125929 l 0,8e-4 0.07169,-1.19036 -0.07181,-2.5509565 c -0.002,-0.070575 -0.05489,-0.1257955 -0.12078,-0.1257955 -0.066365,0 -0.11948,0.05522 -0.1209,0.1257955 L 5.90279,8.676735 5.96667,9.866854 c 0.0015,0.06982 0.05454,0.125169 0.120905,0.125169 z M 3.838245,9.980943 c 0.03915,0 0.07086,-0.0328 0.073815,-0.07601 L 4.015925,8.67537 3.91206,7.5056915 c -0.003,-0.04321 -0.03455,-0.075773 -0.073815,-0.075773 -0.03975,0 -0.071455,0.032815 -0.07394,0.07627 L 3.67286,8.6753715 3.764305,9.90486 c 0.0025,0.04333 0.0342,0.07614 0.07394,0.07614 z m -0.87494,-0.06732 c 0.02865,0 0.051815,-0.02364 0.05513,-0.05633 L 3.135075,8.6751125 3.01855,7.4483565 c -0.0035,-0.03281 -0.0266,-0.056462 -0.055245,-0.056462 -0.029,0 -0.05217,0.023775 -0.055125,0.056462 0,1.585e-4 -0.1026849,1.226756 -0.1026849,1.226756 L 2.90818,9.857059 c 0.003,0.03282 0.02605,0.05658 0.055125,0.05658 z M 6.54799,6.083297 c -0.07157,0 -0.128945,0.059556 -0.130365,0.135825 l -0.0582,2.457851 0.0582,1.182684 c 0.0015,0.07528 0.058675,0.13483 0.130365,0.13483 0.071455,0 0.128475,-0.05943 0.13013,-0.135697 l 0,0.0011 0.0653,-1.182695 -0.0653,-2.4581145 C 6.67662,6.143052 6.619445,6.083497 6.54799,6.083497 Z M 4.727375,9.993495 c 0.04945,0 0.09026,-0.04221 0.09263,-0.09608 L 4.910855,8.676225 4.820005,6.33885 c -0.0025,-0.053983 -0.0432,-0.096079 -0.09263,-0.096079 -0.0499,0 -0.090615,0.04222 -0.092745,0.096079 0,1.59e-4 -0.080445,2.337375 -0.080445,2.337375 L 4.63475,9.897914 c 0.002,0.05337 0.0427,0.09558 0.092625,0.09558 z m 1.01453,-0.115258 0,-8e-4 L 5.81998,8.676433 5.741905,6.0584885 c -0.002,-0.065002 -0.05087,-0.116015 -0.11132,-0.116015 -0.060805,0 -0.10978,0.050891 -0.11144,0.116015 l -0.06932,2.6178205 0.06944,1.201626 c 0.0015,0.06439 0.050635,0.115269 0.11132,0.115269 0.06057,0 0.10931,-0.05089 0.11132,-0.115651 l 0,8e-4 z m 5.90523,-2.710691 c -0.18537,0 -0.36223,0.03925 -0.52335,0.109947 C 11.01613,6.0012065 9.99356,5.0000395 8.746215,5.0000395 c -0.30521,0 -0.60273,0.062898 -0.86547,0.169254 -0.102095,0.041355 -0.1293,0.083948 -0.13025,0.166534 l 0,4.4944885 C 7.751495,9.916986 7.8158,9.989164 7.896595,9.9977 7.900095,9.9985 11.622885,10 11.64702,10 12.394195,10 13,9.365946 13,8.5838015 c 0,-0.782137 -0.60569,-1.41632 -1.352865,-1.41632 z M 7.473915,5.3319525 c -0.08127,0 -0.14799,0.069832 -0.149175,0.155634 L 7.2637,8.677678 7.32486,9.835479 c 10e-4,0.08456 0.067785,0.154276 0.149055,0.154276 0.081035,0 0.147755,-0.06972 0.14894,-0.155516 l 0,0.0014 L 7.68922,8.677716 7.622855,5.4873795 C 7.621855,5.401824 7.55495,5.331993 7.473915,5.331993 Z" id="path3862" inkscape:connector-curvature="0" sodipodi:nodetypes="scccsccccccscscccscccccccsccccccscccscccsscccscccsscccccscccscccccscccccscccscccsscccscccsccccsccccccscccscccsccccscccscccccsccccssccccccscccccc" style="fill:currentColor">
 </path>
</svg>
