<?xml version="1.0" encoding="UTF-8" standalone="no"?>
<!-- Created with Inkscape (http://www.inkscape.org/) -->
<svg height="16" id="svg5470" inkscape:version="0.91 r13725" sodipodi:docname="subsonic.svg" version="1.1" viewbox="0 0 16 16" width="16" xmlns="http://www.w3.org/2000/svg" xmlns:cc="http://creativecommons.org/ns#" xmlns:dc="http://purl.org/dc/elements/1.1/" xmlns:inkscape="http://www.inkscape.org/namespaces/inkscape" xmlns:rdf="http://www.w3.org/1999/02/22-rdf-syntax-ns#" xmlns:sodipodi="http://sodipodi.sourceforge.net/DTD/sodipodi-0.dtd" xmlns:svg="http://www.w3.org/2000/svg">
 <defs id="defs5472">
  <style id="current-color-scheme" type="text/css">
   .ColorScheme-Text { color:#555555; }
  </style>
 </defs>
 <sodipodi:namedview bordercolor="#666666" borderopacity="1.0" id="base" inkscape:current-layer="layer1" inkscape:cx="12.25394" inkscape:cy="4.8447079" inkscape:document-units="px" inkscape:pageopacity="0.0" inkscape:pageshadow="2" inkscape:window-height="847" inkscape:window-maximized="1" inkscape:window-width="1600" inkscape:window-x="0" inkscape:window-y="0" inkscape:zoom="22.84" pagecolor="#ffffff" showgrid="false" units="px">
  <inkscape:grid id="grid6095" type="xygrid">
  </inkscape:grid>
 </sodipodi:namedview>
 <metadata id="metadata5475">
  <rdf:rdf>
   <cc:work rdf:about="">
    <dc:format>
     image/svg+xml
    </dc:format>
    <dc:type rdf:resource="http://purl.org/dc/dcmitype/StillImage">
    </dc:type>
    <dc:title>
    </dc:title>
   </cc:work>
  </rdf:rdf>
 </metadata>
 <g id="layer1" inkscape:groupmode="layer" inkscape:label="Layer 1" transform="translate(0,-1036.3622)">
  <rect height="4" id="rect6068" rx="0.46866664" ry="0.69863355" style="opacity:1;fill:#41b941;fill-opacity:1;stroke:none;stroke-width:1;stroke-linecap:round;stroke-linejoin:round;stroke-miterlimit:4;stroke-dasharray:none;stroke-opacity:1" width="1" x="4" y="1040.3622">
  </rect>
  <path class="ColorScheme-Text" d="m 7.3,1040.3622 c -0.3878,0 -0.8,0.3088 -0.8,0.6923 l 0,0.8084 c -1.298842,0.4105 -2.15,1.557 -2.5,2.2493 -0.35,-0.6923 -2.5,-1 -2.5,-1 l 0,1.75 -0.5,0 0,2 0.5,0 0,1.5 c -0.013672,0 2.15,-0.3077 2.5,-1 0.35,0.6923 2.25,2 5.05,2 2.8,0 5.95,-1.5136 5.95,-3.8077 -0.003,-1.6303 -1.371882,-3.0216 -3.5,-3.6929 l 0,-0.8071 c 0,-0.3835 -0.3122,-0.6923 -0.7,-0.6923 z" id="path5454" inkscape:connector-curvature="0" sodipodi:nodetypes="ssccccccccccccsss" style="fill:currentColor">
  </path>
  <circle cx="9" cy="1045.3622" id="path6070" r="1" style="opacity:1;fill:#ffffff;fill-opacity:1;stroke:none;stroke-width:1;stroke-linecap:round;stroke-linejoin:round;stroke-miterlimit:4;stroke-dasharray:none;stroke-opacity:1">
  </circle>
  <circle cx="12" cy="1045.3622" id="circle4179" r="1" style="opacity:1;fill:#ffffff;fill-opacity:1;stroke:none;stroke-width:1;stroke-linecap:round;stroke-linejoin:round;stroke-miterlimit:4;stroke-dasharray:none;stroke-opacity:1">
  </circle>
  <circle cx="6" cy="1045.3622" id="circle4181" r="1" style="opacity:1;fill:#ffffff;fill-opacity:1;stroke:none;stroke-width:1;stroke-linecap:round;stroke-linejoin:round;stroke-miterlimit:4;stroke-dasharray:none;stroke-opacity:1">
  </circle>
 </g>
</svg>
